<?xml version="1.0" encoding="UTF-8"?>
<svg width="60px" height="70px" viewBox="0 0 60 70" version="1.1" xmlns="http://www.w3.org/2000/svg" xmlns:xlink="http://www.w3.org/1999/xlink">
    <!-- Generator: Sketch 57.1 (83088) - https://sketch.com -->
    <title>Group 28</title>
    <desc>Created with Sketch.</desc>
    <g id="Dark-theme-Fuji-Yahoo-Properties" stroke="none" stroke-width="1" fill="none" fill-rule="evenodd">
        <g id="Group-28">
            <path d="M39.9374151,-3.14770432e-12 C41.4474807,-3.14770432e-12 42.6716307,1.21474979 42.6716307,2.73281108 L42.6715214,11.122447 C41.9222991,11.0415206 41.1612645,11 40.3905322,11 C40.2109449,11 40.0318842,11.0022543 39.8533767,11.0067361 L39.8536949,6.80658203 C39.8536949,6.11692914 39.2867738,5.54349895 38.5874413,5.54349895 L4.33405986,5.54349895 C3.68865197,5.54349895 3.14046572,6.04052181 3.07446356,6.67743912 L3.06780631,6.80658203 L3.06780631,58.6141513 C3.06780631,59.2607008 3.56607674,59.8051016 4.20459279,59.8706261 L4.33405986,59.8772343 L38.5874413,59.8772343 C39.2328492,59.8772343 39.7810354,59.3802115 39.8470376,58.7432942 L39.8536949,58.6141513 L39.8533767,52.9932639 C40.0318842,52.9977457 40.2109449,53 40.3905322,53 C41.1612645,53 41.9222991,52.9584794 42.6715214,52.877553 L42.6716307,67.2538632 C42.6716307,68.7631531 41.4405712,69.9866743 39.9374151,69.9866743 L2.7342156,69.9866743 C1.22415002,69.9866743 1.77635684e-14,68.7719245 1.77635684e-14,67.2538632 L1.77635684e-14,2.73281108 C1.77635684e-14,1.2235212 1.23105955,-3.14770432e-12 2.7342156,-3.14770432e-12 L39.9374151,-3.14770432e-12 Z M21.2222153,61.0414828 C19.4387389,61.0414828 17.9929455,62.4798619 17.9929455,64.2541924 C17.9929455,66.0285229 19.4387389,67.466902 21.2222153,67.466902 C23.0056918,67.466902 24.4514851,66.0285229 24.4514851,64.2541924 C24.4514851,62.4798619 23.0056918,61.0414828 21.2222153,61.0414828 Z" id="Combined-Shape" fill="#464E56"></path>
            <path d="M40.3905322,47.7175698 C31.7238655,47.7175698 24.6746044,40.6683087 24.6746044,32.001642 C24.6746044,23.3349754 31.7238655,16.2840722 40.3905322,16.2840722 C49.0555568,16.2840722 56.1064599,23.3349754 56.1064599,32.001642 C56.1064599,40.6683087 49.0555568,47.7175698 40.3905322,47.7175698 M40.3905322,13 C29.8962793,13 21.3905322,21.5073892 21.3905322,32.001642 C21.3905322,42.4942529 29.8962793,51.001642 40.3905322,51.001642 C50.8847851,51.001642 59.3905322,42.4942529 59.3905322,32.001642 C59.3905322,21.5073892 50.8847851,13 40.3905322,13 M38.1207456,28.2359606 C37.0599903,29.2901478 35.2159837,29.2901478 34.1585125,28.2359606 C33.6297768,27.708867 33.3391364,27.0093596 33.3391364,26.2638752 C33.3391364,25.5200328 33.6297768,24.8188834 34.1585125,24.2934319 C34.6888901,23.7663383 35.3916816,23.4773399 36.1404501,23.4773399 C36.8892185,23.4773399 37.59201,23.7663383 38.1207456,24.2934319 C39.2110576,25.3804598 39.2110576,27.1489327 38.1207456,28.2359606 L38.1207456,28.2359606 Z M40.9499739,29.0816092 C42.2094156,26.9436782 41.9401217,24.1538588 40.1010412,22.3197044 C37.9828146,20.2146141 34.2948015,20.2162562 32.1798589,22.3197044 C31.1207456,23.3755337 30.5378228,24.7745484 30.5378228,26.2638752 C30.5378228,27.753202 31.1207456,29.1538588 32.1798589,30.2064039 C33.2373302,31.2622332 34.6445552,31.8402299 36.1404501,31.8402299 C37.1568704,31.8402299 38.1191036,31.5545156 38.9729624,31.0536946 L42.9007128,34.9666667 L40.9220593,36.9387521 C40.3736192,37.482266 40.3736192,38.3656814 40.9220593,38.9091954 C41.1946373,39.1817734 41.5526011,39.3180624 41.910565,39.3180624 C42.2701709,39.3180624 42.6281348,39.1817734 42.9007128,38.9091954 L44.8826504,36.9387521 L46.862946,38.9091954 L44.8826504,40.8812808 C44.3358524,41.4264368 44.3358524,42.3082102 44.8826504,42.8517241 C45.1552284,43.1259442 45.5115502,43.2605911 45.8695141,43.2605911 C46.22912,43.2605911 46.5887259,43.1259442 46.8613039,42.8517241 L49.8317473,39.8944171 C50.3785453,39.3509031 50.3785453,38.4674877 49.8317473,37.9223317 L40.9499739,29.0816092 Z" id="Fill-3" fill="#5D5EFF"></path>
        </g>
    </g>
</svg>