<?xml version="1.0" encoding="UTF-8"?>
<svg width="77px" height="77px" viewBox="0 0 77 77" version="1.1" xmlns="http://www.w3.org/2000/svg" xmlns:xlink="http://www.w3.org/1999/xlink">
    <!-- Generator: Sketch 57.1 (83088) - https://sketch.com -->
    <title>Group 4</title>
    <desc>Created with Sketch.</desc>
    <g id="Dark-theme-Fuji-Yahoo-Properties" stroke="none" stroke-width="1" fill="none" fill-rule="evenodd">
        <g id="Yak-DM-1.3-Copy" transform="translate(-122.000000, -105.000000)">
            <g id="Group-4" transform="translate(124.000000, 107.000000)">
                <g id="Group-2">
                    <circle id="Oval" stroke="#232A31" stroke-width="2.38043478" cx="36.5" cy="36.5" r="36.5"></circle>
                    <circle id="Oval" fill="#464E56" cx="36.5" cy="36.5" r="30.9456522"></circle>
                    <g id="Group" transform="translate(22.456522, 24.456522)" fill="#FFFFFF">
                        <circle id="Oval" cx="14.0434783" cy="13.6304348" r="13.4891304"></circle>
                    </g>
                </g>
                <path d="M39.1023636,36.4450455 L44.7467273,30.7953636 C45.4682273,30.0720909 45.4682273,28.9003182 44.7467273,28.1770455 L44.7467273,28.1770455 C44.0234545,27.4537727 42.8534545,27.4537727 42.1301818,28.1770455 L36.4911364,33.8214091 L30.8148636,28.1238636 C30.0915909,27.3970455 28.9215909,27.3970455 28.1983182,28.1238636 L28.1983182,28.1238636 C27.4768182,28.8489091 27.4768182,30.026 28.1983182,30.7528182 L33.8710455,36.4450455 L28.1203182,42.1993182 C27.3970455,42.9243636 27.3970455,44.0961364 28.1203182,44.8194091 C28.8435909,45.5426818 30.0135909,45.5426818 30.7368636,44.8194091 L36.4805,39.0704545 L42.2081818,44.8176364 C42.9314545,45.5444545 44.1032273,45.5444545 44.8247273,44.8176364 C45.548,44.0908182 45.548,42.9137273 44.8247273,42.1886818 L39.1023636,36.4450455 Z M36.5,17 C25.7306818,17 17,25.7306818 17,36.5 C17,47.2693182 25.7306818,56 36.5,56 C47.2693182,56 56,47.2693182 56,36.5 C56,25.7306818 47.2693182,17 36.5,17 L36.5,17 Z" id="Fill-33" fill="#FF4D52"></path>
            </g>
        </g>
    </g>
</svg>