<?xml version="1.0" encoding="UTF-8"?>
<svg width="144px" height="144px" viewBox="0 0 144 144" version="1.1" xmlns="http://www.w3.org/2000/svg" xmlns:xlink="http://www.w3.org/1999/xlink">
    <defs>
        <rect id="path-1" x="5.9059375" y="10.4534552" width="69.0840655" height="102.457901" rx="2.39860221"></rect>
    </defs>
    <g id="Yahoo-Phone-message" stroke="none" stroke-width="1" fill="none" fill-rule="evenodd">
        <g id="phone" transform="translate(33.000000, 6.000000)">
            <g id="Group-20-Copy">
                <rect id="phone" fill="#808080" x="0.144583333" y="0" width="80.137516" height="131.974872" rx="5.1525529"></rect>
                <mask id="mask-2" fill="black">
                    <use xlink:href="#path-1"></use>
                </mask>
                <use id="screen-copy" fill="#000" xlink:href="#path-1"></use>
            </g>
            <rect id="ear-copy" fill="#000" x="33.9354167" y="3.02912621" width="12.1291667" height="3.02912621" rx="1.51456311"></rect>
            <ellipse id="home-copy" fill="#000" cx="40" cy="121.165049" rx="6.06458333" ry="6.05825243"></ellipse>
        </g>
        <g id="Group-2-Copy" transform="translate(24.000000, 34.000000)">
            <g id="mail" fill="#5D5EFF">
                <g id="Rectangle-2">
                    <rect x="0" y="0" width="99.4940981" height="43.1185766" rx="4.99819891"></rect>
                </g>
            </g>
            <g id="passcode" transform="translate(13.000000, 14.000000)" fill="#FFFFFF" opacity="0.6">
                <path d="M7.96034762,6.0969561 C8.68660473,5.75212224 9.37014085,5.40728838 10.0323165,5.06245452 C10.6944921,4.71762066 11.2142643,4.46816638 11.5987534,4.30675479 C11.9832424,4.1453432 12.2965298,4.0646374 12.5314954,4.0646374 C12.9231046,4.0646374 13.2577525,4.19670143 13.5425592,4.46816638 C13.8273659,4.73963134 13.9697693,5.06979141 13.9697693,5.4733204 C13.9697693,5.70076401 13.8985676,5.9428814 13.7632844,6.18499879 C13.6280012,6.42711618 13.4784777,6.58852777 13.321834,6.65455979 C11.8835601,7.24151104 10.310003,7.6597138 8.57980222,7.92384186 C8.8930896,8.22465438 9.27757866,8.62084647 9.7332694,9.11241814 C10.1889601,9.60398981 10.4310458,9.86811788 10.4524064,9.90480233 C10.6161702,10.1469197 10.8511358,10.4403953 11.1501828,10.799903 C11.4492298,11.1594106 11.6557147,11.4308756 11.7767576,11.6363085 C11.8978004,11.8417415 11.9547618,12.0838588 11.9547618,12.3699976 C11.9547618,12.7368421 11.8194786,13.0596653 11.5560324,13.3311302 C11.2925862,13.6025952 10.9436979,13.7419961 10.523608,13.7419961 C10.1035181,13.7419961 9.62646689,13.4044992 9.09957447,12.7295052 C8.57268205,12.0545113 7.88914594,10.8365874 7.05608631,9.08307058 C6.20878634,10.667839 5.64629308,11.7096774 5.3543662,12.2159229 C5.06243932,12.7221683 4.78475277,13.1036866 4.52130656,13.3604778 C4.25786035,13.617269 3.95169314,13.749333 3.60280491,13.749333 C3.18983518,13.749333 2.84806713,13.6025952 2.57750075,13.3091196 C2.30693437,13.0156439 2.17165118,12.7074945 2.17165118,12.3699976 C2.17165118,12.0618482 2.22861253,11.8270677 2.33541504,11.6656561 C3.36071921,10.2349624 4.42874438,8.987691 5.53949056,7.93117875 C4.60674858,7.78444094 3.77368894,7.61569246 3.03319149,7.43227019 C2.2998142,7.24884793 1.52371591,6.97738297 0.697776446,6.62521222 C0.562493257,6.55918021 0.434330237,6.39776862 0.306167216,6.15565122 C0.178004195,5.91353383 0.113922685,5.68609023 0.113922685,5.4733204 C0.113922685,5.06979141 0.256326041,4.73963134 0.541132754,4.46816638 C0.825939467,4.19670143 1.15346719,4.0646374 1.51659574,4.0646374 C1.78716212,4.0646374 2.11468984,4.1453432 2.52053941,4.31409168 C2.92638897,4.48284016 3.43192089,4.71762066 4.04425532,5.03310696 C4.65658975,5.34859326 5.36860653,5.70076401 6.15182499,6.08961921 C6.00942164,5.37060393 5.88837878,4.54153529 5.7958166,3.60241329 C5.70325442,2.66329129 5.65341325,2.0323187 5.65341325,1.68748484 C5.65341325,1.26194519 5.78157627,0.902437545 6.04502248,0.59428814 C6.30846868,0.286138734 6.64311657,0.139400922 7.05608631,0.139400922 C7.4548157,0.139400922 7.78946359,0.293475625 8.04578963,0.59428814 C8.30211567,0.895100655 8.43739886,1.29862964 8.43739886,1.80487509 C8.43739886,1.94427601 8.41603836,2.21574097 8.38043752,2.61926995 C8.34483668,3.02279893 8.28787534,3.52170749 8.21667366,4.10132185 C8.14547198,4.68093621 8.04578963,5.34859326 7.96034762,6.0969561 Z" id="Path"></path>
                <path d="M28.5324543,6.0969561 C29.2587114,5.75212224 29.9422475,5.40728838 30.6044231,5.06245452 C31.2665987,4.71762066 31.786371,4.46816638 32.1708601,4.30675479 C32.5553491,4.1453432 32.8686365,4.0646374 33.103602,4.0646374 C33.4952113,4.0646374 33.8298592,4.19670143 34.1146659,4.46816638 C34.3994726,4.73963134 34.5418759,5.06979141 34.5418759,5.4733204 C34.5418759,5.70076401 34.4706743,5.9428814 34.3353911,6.18499879 C34.2001079,6.42711618 34.0505844,6.58852777 33.8939407,6.65455979 C32.4556668,7.24151104 30.8821097,7.6597138 29.1519089,7.92384186 C29.4651963,8.22465438 29.8496853,8.62084647 30.3053761,9.11241814 C30.7610668,9.60398981 31.0031525,9.86811788 31.024513,9.90480233 C31.1882769,10.1469197 31.4232424,10.4403953 31.7222895,10.799903 C32.0213365,11.1594106 32.2278214,11.4308756 32.3488642,11.6363085 C32.4699071,11.8417415 32.5268684,12.0838588 32.5268684,12.3699976 C32.5268684,12.7368421 32.3915853,13.0596653 32.128139,13.3311302 C31.8646928,13.6025952 31.5158046,13.7419961 31.0957147,13.7419961 C30.6756248,13.7419961 30.1985736,13.4044992 29.6716812,12.7295052 C29.1447887,12.0545113 28.4612526,10.8365874 27.628193,9.08307058 C26.780893,10.667839 26.2183998,11.7096774 25.9264729,12.2159229 C25.634546,12.7221683 25.3568595,13.1036866 25.0934132,13.3604778 C24.829967,13.617269 24.5237998,13.749333 24.1749116,13.749333 C23.7619419,13.749333 23.4201738,13.6025952 23.1496074,13.3091196 C22.8790411,13.0156439 22.7437579,12.7074945 22.7437579,12.3699976 C22.7437579,12.0618482 22.8007192,11.8270677 22.9075217,11.6656561 C23.9328259,10.2349624 25.0008511,8.987691 26.1115972,7.93117875 C25.1788553,7.78444094 24.3457956,7.61569246 23.6052982,7.43227019 C22.8719209,7.24884793 22.0958226,6.97738297 21.2698831,6.62521222 C21.1345999,6.55918021 21.0064369,6.39776862 20.8782739,6.15565122 C20.7501109,5.91353383 20.6860294,5.68609023 20.6860294,5.4733204 C20.6860294,5.06979141 20.8284327,4.73963134 21.1132394,4.46816638 C21.3980461,4.19670143 21.7255739,4.0646374 22.0887024,4.0646374 C22.3592688,4.0646374 22.6867965,4.1453432 23.0926461,4.31409168 C23.4984957,4.48284016 24.0040276,4.71762066 24.616362,5.03310696 C25.2286964,5.34859326 25.9407132,5.70076401 26.7239317,6.08961921 C26.5815283,5.37060393 26.4604855,4.54153529 26.3679233,3.60241329 C26.2753611,2.66329129 26.2255199,2.0323187 26.2255199,1.68748484 C26.2255199,1.26194519 26.3536829,0.902437545 26.6171292,0.59428814 C26.8805754,0.286138734 27.2152233,0.139400922 27.628193,0.139400922 C28.0269224,0.139400922 28.3615703,0.293475625 28.6178963,0.59428814 C28.8742224,0.895100655 29.0095055,1.29862964 29.0095055,1.80487509 C29.0095055,1.94427601 28.988145,2.21574097 28.9525442,2.61926995 C28.9169434,3.02279893 28.859982,3.52170749 28.7887803,4.10132185 C28.7175787,4.68093621 28.6178963,5.34859326 28.5324543,6.0969561 Z" id="Path"></path>
                <path d="M49.104561,6.0969561 C49.8308181,5.75212224 50.5143542,5.40728838 51.1765298,5.06245452 C51.8387054,4.71762066 52.3584777,4.46816638 52.7429667,4.30675479 C53.1274558,4.1453432 53.4407432,4.0646374 53.6757087,4.0646374 C54.067318,4.0646374 54.4019658,4.19670143 54.6867726,4.46816638 C54.9715793,4.73963134 55.1139826,5.06979141 55.1139826,5.4733204 C55.1139826,5.70076401 55.0427809,5.9428814 54.9074978,6.18499879 C54.7722146,6.42711618 54.622691,6.58852777 54.4660473,6.65455979 C53.0277734,7.24151104 51.4542164,7.6597138 49.7240156,7.92384186 C50.037303,8.22465438 50.421792,8.62084647 50.8774828,9.11241814 C51.3331735,9.60398981 51.5752592,9.86811788 51.5966197,9.90480233 C51.7603836,10.1469197 51.9953491,10.4403953 52.2943962,10.799903 C52.5934432,11.1594106 52.7999281,11.4308756 52.9209709,11.6363085 C53.0420138,11.8417415 53.0989751,12.0838588 53.0989751,12.3699976 C53.0989751,12.7368421 52.9636919,13.0596653 52.7002457,13.3311302 C52.4367995,13.6025952 52.0879113,13.7419961 51.6678214,13.7419961 C51.2477315,13.7419961 50.7706803,13.4044992 50.2437878,12.7295052 C49.7168954,12.0545113 49.0333593,10.8365874 48.2002997,9.08307058 C47.3529997,10.667839 46.7905064,11.7096774 46.4985796,12.2159229 C46.2066527,12.7221683 45.9289661,13.1036866 45.6655199,13.3604778 C45.4020737,13.617269 45.0959065,13.749333 44.7470183,13.749333 C44.3340485,13.749333 43.9922805,13.6025952 43.7217141,13.3091196 C43.4511477,13.0156439 43.3158645,12.7074945 43.3158645,12.3699976 C43.3158645,12.0618482 43.3728259,11.8270677 43.4796284,11.6656561 C44.5049326,10.2349624 45.5729577,8.987691 46.6837039,7.93117875 C45.7509619,7.78444094 44.9179023,7.61569246 44.1774049,7.43227019 C43.4440276,7.24884793 42.6679293,6.97738297 41.8419898,6.62521222 C41.7067066,6.55918021 41.5785436,6.39776862 41.4503806,6.15565122 C41.3222176,5.91353383 41.2581361,5.68609023 41.2581361,5.4733204 C41.2581361,5.06979141 41.4005394,4.73963134 41.6853461,4.46816638 C41.9701528,4.19670143 42.2976806,4.0646374 42.6608091,4.0646374 C42.9313755,4.0646374 43.2589032,4.1453432 43.6647528,4.31409168 C44.0706023,4.48284016 44.5761343,4.71762066 45.1884687,5.03310696 C45.8008031,5.34859326 46.5128199,5.70076401 47.2960384,6.08961921 C47.153635,5.37060393 47.0325921,4.54153529 46.94003,3.60241329 C46.8474678,2.66329129 46.7976266,2.0323187 46.7976266,1.68748484 C46.7976266,1.26194519 46.9257896,0.902437545 47.1892358,0.59428814 C47.452682,0.286138734 47.7873299,0.139400922 48.2002997,0.139400922 C48.5990291,0.139400922 48.933677,0.293475625 49.190003,0.59428814 C49.446329,0.895100655 49.5816122,1.29862964 49.5816122,1.80487509 C49.5816122,1.94427601 49.5602517,2.21574097 49.5246509,2.61926995 C49.48905,3.02279893 49.4320887,3.52170749 49.360887,4.10132185 C49.2896853,4.68093621 49.1971232,5.34859326 49.104561,6.0969561 Z" id="Path"></path>
                <path d="M69.6837878,6.0969561 C70.410045,5.75212224 71.0935811,5.40728838 71.7557567,5.06245452 C72.4179323,4.71762066 72.9377045,4.46816638 73.3221936,4.30675479 C73.7066826,4.1453432 74.01997,4.0646374 74.2549356,4.0646374 C74.6465448,4.0646374 74.9811927,4.19670143 75.2659994,4.46816638 C75.5508061,4.73963134 75.6932095,5.06979141 75.6932095,5.4733204 C75.6932095,5.70076401 75.6220078,5.9428814 75.4867246,6.18499879 C75.3514414,6.42711618 75.2019179,6.58852777 75.0452742,6.65455979 C73.6070003,7.24151104 72.026323,7.6597138 70.3032424,7.92384186 C70.6165298,8.22465438 71.0010189,8.62084647 71.4567096,9.11241814 C71.9124004,9.60398981 72.1544861,9.86811788 72.1758466,9.90480233 C72.3396104,10.1469197 72.574576,10.4403953 72.873623,10.799903 C73.1726701,11.1594106 73.3791549,11.4308756 73.5001978,11.6363085 C73.6212406,11.8417415 73.678202,12.0838588 73.678202,12.3699976 C73.678202,12.7368421 73.5429188,13.0596653 73.2794726,13.3311302 C73.0160264,13.6025952 72.6671381,13.7419961 72.2470482,13.7419961 C71.8269583,13.7419961 71.3499071,13.4044992 70.8230147,12.7295052 C70.2961223,12.0545113 69.6125862,10.8365874 68.7795265,9.08307058 C67.9322266,10.667839 67.3697333,11.7096774 67.0778064,12.2159229 C66.7858795,12.7221683 66.508193,13.1036866 66.2447468,13.3604778 C65.9813006,13.617269 65.6751334,13.749333 65.3262451,13.749333 C64.9132754,13.749333 64.5715073,13.6025952 64.300941,13.3091196 C64.0303746,13.0156439 63.8950914,12.7074945 63.8950914,12.3699976 C63.8950914,12.0618482 63.9520527,11.8270677 64.0588553,11.6656561 C65.0841594,10.2349624 66.1521846,8.987691 67.2629308,7.93117875 C66.3301888,7.78444094 65.4971292,7.61569246 64.7566317,7.43227019 C64.0232544,7.24884793 63.2471561,6.97738297 62.4212167,6.62521222 C62.2859335,6.55918021 62.1577705,6.39776862 62.0296074,6.15565122 C61.9014444,5.91353383 61.8373629,5.68609023 61.8373629,5.4733204 C61.8373629,5.06979141 61.9797663,4.73963134 62.264573,4.46816638 C62.5493797,4.19670143 62.8769074,4.0646374 63.240036,4.0646374 C63.5106023,4.0646374 63.8381301,4.1453432 64.2439796,4.31409168 C64.6498292,4.48284016 65.1553611,4.71762066 65.7676955,5.03310696 C66.38003,5.34859326 67.0920467,5.70076401 67.8752652,6.08961921 C67.7328619,5.37060393 67.611819,4.54153529 67.5192568,3.60241329 C67.4266946,2.66329129 67.3768535,2.0323187 67.3768535,1.68748484 C67.3768535,1.26194519 67.5050165,0.902437545 67.7684627,0.59428814 C68.0319089,0.286138734 68.3665568,0.139400922 68.7795265,0.139400922 C69.1782559,0.139400922 69.5129038,0.293475625 69.7692298,0.59428814 C70.0255559,0.895100655 70.1608391,1.29862964 70.1608391,1.80487509 C70.1608391,1.94427601 70.1394786,2.21574097 70.1038777,2.61926995 C70.0682769,3.02279893 70.0113156,3.52170749 69.9401139,4.10132185 C69.8689122,4.68093621 69.7692298,5.34859326 69.6837878,6.0969561 Z" id="Path"></path>
            </g>
            <g id="passcode" transform="translate(13.000000, 14.000000)" fill="#FFFFFF" opacity="0.6">
                <path d="M7.96034762,6.0969561 C8.68660473,5.75212224 9.37014085,5.40728838 10.0323165,5.06245452 C10.6944921,4.71762066 11.2142643,4.46816638 11.5987534,4.30675479 C11.9832424,4.1453432 12.2965298,4.0646374 12.5314954,4.0646374 C12.9231046,4.0646374 13.2577525,4.19670143 13.5425592,4.46816638 C13.8273659,4.73963134 13.9697693,5.06979141 13.9697693,5.4733204 C13.9697693,5.70076401 13.8985676,5.9428814 13.7632844,6.18499879 C13.6280012,6.42711618 13.4784777,6.58852777 13.321834,6.65455979 C11.8835601,7.24151104 10.310003,7.6597138 8.57980222,7.92384186 C8.8930896,8.22465438 9.27757866,8.62084647 9.7332694,9.11241814 C10.1889601,9.60398981 10.4310458,9.86811788 10.4524064,9.90480233 C10.6161702,10.1469197 10.8511358,10.4403953 11.1501828,10.799903 C11.4492298,11.1594106 11.6557147,11.4308756 11.7767576,11.6363085 C11.8978004,11.8417415 11.9547618,12.0838588 11.9547618,12.3699976 C11.9547618,12.7368421 11.8194786,13.0596653 11.5560324,13.3311302 C11.2925862,13.6025952 10.9436979,13.7419961 10.523608,13.7419961 C10.1035181,13.7419961 9.62646689,13.4044992 9.09957447,12.7295052 C8.57268205,12.0545113 7.88914594,10.8365874 7.05608631,9.08307058 C6.20878634,10.667839 5.64629308,11.7096774 5.3543662,12.2159229 C5.06243932,12.7221683 4.78475277,13.1036866 4.52130656,13.3604778 C4.25786035,13.617269 3.95169314,13.749333 3.60280491,13.749333 C3.18983518,13.749333 2.84806713,13.6025952 2.57750075,13.3091196 C2.30693437,13.0156439 2.17165118,12.7074945 2.17165118,12.3699976 C2.17165118,12.0618482 2.22861253,11.8270677 2.33541504,11.6656561 C3.36071921,10.2349624 4.42874438,8.987691 5.53949056,7.93117875 C4.60674858,7.78444094 3.77368894,7.61569246 3.03319149,7.43227019 C2.2998142,7.24884793 1.52371591,6.97738297 0.697776446,6.62521222 C0.562493257,6.55918021 0.434330237,6.39776862 0.306167216,6.15565122 C0.178004195,5.91353383 0.113922685,5.68609023 0.113922685,5.4733204 C0.113922685,5.06979141 0.256326041,4.73963134 0.541132754,4.46816638 C0.825939467,4.19670143 1.15346719,4.0646374 1.51659574,4.0646374 C1.78716212,4.0646374 2.11468984,4.1453432 2.52053941,4.31409168 C2.92638897,4.48284016 3.43192089,4.71762066 4.04425532,5.03310696 C4.65658975,5.34859326 5.36860653,5.70076401 6.15182499,6.08961921 C6.00942164,5.37060393 5.88837878,4.54153529 5.7958166,3.60241329 C5.70325442,2.66329129 5.65341325,2.0323187 5.65341325,1.68748484 C5.65341325,1.26194519 5.78157627,0.902437545 6.04502248,0.59428814 C6.30846868,0.286138734 6.64311657,0.139400922 7.05608631,0.139400922 C7.4548157,0.139400922 7.78946359,0.293475625 8.04578963,0.59428814 C8.30211567,0.895100655 8.43739886,1.29862964 8.43739886,1.80487509 C8.43739886,1.94427601 8.41603836,2.21574097 8.38043752,2.61926995 C8.34483668,3.02279893 8.28787534,3.52170749 8.21667366,4.10132185 C8.14547198,4.68093621 8.04578963,5.34859326 7.96034762,6.0969561 Z" id="Path"></path>
                <path d="M28.5324543,6.0969561 C29.2587114,5.75212224 29.9422475,5.40728838 30.6044231,5.06245452 C31.2665987,4.71762066 31.786371,4.46816638 32.1708601,4.30675479 C32.5553491,4.1453432 32.8686365,4.0646374 33.103602,4.0646374 C33.4952113,4.0646374 33.8298592,4.19670143 34.1146659,4.46816638 C34.3994726,4.73963134 34.5418759,5.06979141 34.5418759,5.4733204 C34.5418759,5.70076401 34.4706743,5.9428814 34.3353911,6.18499879 C34.2001079,6.42711618 34.0505844,6.58852777 33.8939407,6.65455979 C32.4556668,7.24151104 30.8821097,7.6597138 29.1519089,7.92384186 C29.4651963,8.22465438 29.8496853,8.62084647 30.3053761,9.11241814 C30.7610668,9.60398981 31.0031525,9.86811788 31.024513,9.90480233 C31.1882769,10.1469197 31.4232424,10.4403953 31.7222895,10.799903 C32.0213365,11.1594106 32.2278214,11.4308756 32.3488642,11.6363085 C32.4699071,11.8417415 32.5268684,12.0838588 32.5268684,12.3699976 C32.5268684,12.7368421 32.3915853,13.0596653 32.128139,13.3311302 C31.8646928,13.6025952 31.5158046,13.7419961 31.0957147,13.7419961 C30.6756248,13.7419961 30.1985736,13.4044992 29.6716812,12.7295052 C29.1447887,12.0545113 28.4612526,10.8365874 27.628193,9.08307058 C26.780893,10.667839 26.2183998,11.7096774 25.9264729,12.2159229 C25.634546,12.7221683 25.3568595,13.1036866 25.0934132,13.3604778 C24.829967,13.617269 24.5237998,13.749333 24.1749116,13.749333 C23.7619419,13.749333 23.4201738,13.6025952 23.1496074,13.3091196 C22.8790411,13.0156439 22.7437579,12.7074945 22.7437579,12.3699976 C22.7437579,12.0618482 22.8007192,11.8270677 22.9075217,11.6656561 C23.9328259,10.2349624 25.0008511,8.987691 26.1115972,7.93117875 C25.1788553,7.78444094 24.3457956,7.61569246 23.6052982,7.43227019 C22.8719209,7.24884793 22.0958226,6.97738297 21.2698831,6.62521222 C21.1345999,6.55918021 21.0064369,6.39776862 20.8782739,6.15565122 C20.7501109,5.91353383 20.6860294,5.68609023 20.6860294,5.4733204 C20.6860294,5.06979141 20.8284327,4.73963134 21.1132394,4.46816638 C21.3980461,4.19670143 21.7255739,4.0646374 22.0887024,4.0646374 C22.3592688,4.0646374 22.6867965,4.1453432 23.0926461,4.31409168 C23.4984957,4.48284016 24.0040276,4.71762066 24.616362,5.03310696 C25.2286964,5.34859326 25.9407132,5.70076401 26.7239317,6.08961921 C26.5815283,5.37060393 26.4604855,4.54153529 26.3679233,3.60241329 C26.2753611,2.66329129 26.2255199,2.0323187 26.2255199,1.68748484 C26.2255199,1.26194519 26.3536829,0.902437545 26.6171292,0.59428814 C26.8805754,0.286138734 27.2152233,0.139400922 27.628193,0.139400922 C28.0269224,0.139400922 28.3615703,0.293475625 28.6178963,0.59428814 C28.8742224,0.895100655 29.0095055,1.29862964 29.0095055,1.80487509 C29.0095055,1.94427601 28.988145,2.21574097 28.9525442,2.61926995 C28.9169434,3.02279893 28.859982,3.52170749 28.7887803,4.10132185 C28.7175787,4.68093621 28.6178963,5.34859326 28.5324543,6.0969561 Z" id="Path"></path>
                <path d="M49.104561,6.0969561 C49.8308181,5.75212224 50.5143542,5.40728838 51.1765298,5.06245452 C51.8387054,4.71762066 52.3584777,4.46816638 52.7429667,4.30675479 C53.1274558,4.1453432 53.4407432,4.0646374 53.6757087,4.0646374 C54.067318,4.0646374 54.4019658,4.19670143 54.6867726,4.46816638 C54.9715793,4.73963134 55.1139826,5.06979141 55.1139826,5.4733204 C55.1139826,5.70076401 55.0427809,5.9428814 54.9074978,6.18499879 C54.7722146,6.42711618 54.622691,6.58852777 54.4660473,6.65455979 C53.0277734,7.24151104 51.4542164,7.6597138 49.7240156,7.92384186 C50.037303,8.22465438 50.421792,8.62084647 50.8774828,9.11241814 C51.3331735,9.60398981 51.5752592,9.86811788 51.5966197,9.90480233 C51.7603836,10.1469197 51.9953491,10.4403953 52.2943962,10.799903 C52.5934432,11.1594106 52.7999281,11.4308756 52.9209709,11.6363085 C53.0420138,11.8417415 53.0989751,12.0838588 53.0989751,12.3699976 C53.0989751,12.7368421 52.9636919,13.0596653 52.7002457,13.3311302 C52.4367995,13.6025952 52.0879113,13.7419961 51.6678214,13.7419961 C51.2477315,13.7419961 50.7706803,13.4044992 50.2437878,12.7295052 C49.7168954,12.0545113 49.0333593,10.8365874 48.2002997,9.08307058 C47.3529997,10.667839 46.7905064,11.7096774 46.4985796,12.2159229 C46.2066527,12.7221683 45.9289661,13.1036866 45.6655199,13.3604778 C45.4020737,13.617269 45.0959065,13.749333 44.7470183,13.749333 C44.3340485,13.749333 43.9922805,13.6025952 43.7217141,13.3091196 C43.4511477,13.0156439 43.3158645,12.7074945 43.3158645,12.3699976 C43.3158645,12.0618482 43.3728259,11.8270677 43.4796284,11.6656561 C44.5049326,10.2349624 45.5729577,8.987691 46.6837039,7.93117875 C45.7509619,7.78444094 44.9179023,7.61569246 44.1774049,7.43227019 C43.4440276,7.24884793 42.6679293,6.97738297 41.8419898,6.62521222 C41.7067066,6.55918021 41.5785436,6.39776862 41.4503806,6.15565122 C41.3222176,5.91353383 41.2581361,5.68609023 41.2581361,5.4733204 C41.2581361,5.06979141 41.4005394,4.73963134 41.6853461,4.46816638 C41.9701528,4.19670143 42.2976806,4.0646374 42.6608091,4.0646374 C42.9313755,4.0646374 43.2589032,4.1453432 43.6647528,4.31409168 C44.0706023,4.48284016 44.5761343,4.71762066 45.1884687,5.03310696 C45.8008031,5.34859326 46.5128199,5.70076401 47.2960384,6.08961921 C47.153635,5.37060393 47.0325921,4.54153529 46.94003,3.60241329 C46.8474678,2.66329129 46.7976266,2.0323187 46.7976266,1.68748484 C46.7976266,1.26194519 46.9257896,0.902437545 47.1892358,0.59428814 C47.452682,0.286138734 47.7873299,0.139400922 48.2002997,0.139400922 C48.5990291,0.139400922 48.933677,0.293475625 49.190003,0.59428814 C49.446329,0.895100655 49.5816122,1.29862964 49.5816122,1.80487509 C49.5816122,1.94427601 49.5602517,2.21574097 49.5246509,2.61926995 C49.48905,3.02279893 49.4320887,3.52170749 49.360887,4.10132185 C49.2896853,4.68093621 49.1971232,5.34859326 49.104561,6.0969561 Z" id="Path"></path>
                <path d="M69.6837878,6.0969561 C70.410045,5.75212224 71.0935811,5.40728838 71.7557567,5.06245452 C72.4179323,4.71762066 72.9377045,4.46816638 73.3221936,4.30675479 C73.7066826,4.1453432 74.01997,4.0646374 74.2549356,4.0646374 C74.6465448,4.0646374 74.9811927,4.19670143 75.2659994,4.46816638 C75.5508061,4.73963134 75.6932095,5.06979141 75.6932095,5.4733204 C75.6932095,5.70076401 75.6220078,5.9428814 75.4867246,6.18499879 C75.3514414,6.42711618 75.2019179,6.58852777 75.0452742,6.65455979 C73.6070003,7.24151104 72.026323,7.6597138 70.3032424,7.92384186 C70.6165298,8.22465438 71.0010189,8.62084647 71.4567096,9.11241814 C71.9124004,9.60398981 72.1544861,9.86811788 72.1758466,9.90480233 C72.3396104,10.1469197 72.574576,10.4403953 72.873623,10.799903 C73.1726701,11.1594106 73.3791549,11.4308756 73.5001978,11.6363085 C73.6212406,11.8417415 73.678202,12.0838588 73.678202,12.3699976 C73.678202,12.7368421 73.5429188,13.0596653 73.2794726,13.3311302 C73.0160264,13.6025952 72.6671381,13.7419961 72.2470482,13.7419961 C71.8269583,13.7419961 71.3499071,13.4044992 70.8230147,12.7295052 C70.2961223,12.0545113 69.6125862,10.8365874 68.7795265,9.08307058 C67.9322266,10.667839 67.3697333,11.7096774 67.0778064,12.2159229 C66.7858795,12.7221683 66.508193,13.1036866 66.2447468,13.3604778 C65.9813006,13.617269 65.6751334,13.749333 65.3262451,13.749333 C64.9132754,13.749333 64.5715073,13.6025952 64.300941,13.3091196 C64.0303746,13.0156439 63.8950914,12.7074945 63.8950914,12.3699976 C63.8950914,12.0618482 63.9520527,11.8270677 64.0588553,11.6656561 C65.0841594,10.2349624 66.1521846,8.987691 67.2629308,7.93117875 C66.3301888,7.78444094 65.4971292,7.61569246 64.7566317,7.43227019 C64.0232544,7.24884793 63.2471561,6.97738297 62.4212167,6.62521222 C62.2859335,6.55918021 62.1577705,6.39776862 62.0296074,6.15565122 C61.9014444,5.91353383 61.8373629,5.68609023 61.8373629,5.4733204 C61.8373629,5.06979141 61.9797663,4.73963134 62.264573,4.46816638 C62.5493797,4.19670143 62.8769074,4.0646374 63.240036,4.0646374 C63.5106023,4.0646374 63.8381301,4.1453432 64.2439796,4.31409168 C64.6498292,4.48284016 65.1553611,4.71762066 65.7676955,5.03310696 C66.38003,5.34859326 67.0920467,5.70076401 67.8752652,6.08961921 C67.7328619,5.37060393 67.611819,4.54153529 67.5192568,3.60241329 C67.4266946,2.66329129 67.3768535,2.0323187 67.3768535,1.68748484 C67.3768535,1.26194519 67.5050165,0.902437545 67.7684627,0.59428814 C68.0319089,0.286138734 68.3665568,0.139400922 68.7795265,0.139400922 C69.1782559,0.139400922 69.5129038,0.293475625 69.7692298,0.59428814 C70.0255559,0.895100655 70.1608391,1.29862964 70.1608391,1.80487509 C70.1608391,1.94427601 70.1394786,2.21574097 70.1038777,2.61926995 C70.0682769,3.02279893 70.0113156,3.52170749 69.9401139,4.10132185 C69.8689122,4.68093621 69.7692298,5.34859326 69.6837878,6.0969561 Z" id="Path"></path>
            </g>
        </g>
    </g>
</svg>