<?xml version="1.0" encoding="UTF-8"?>
<svg width="145px" height="111px" viewBox="0 0 145 111" version="1.1" xmlns="http://www.w3.org/2000/svg" xmlns:xlink="http://www.w3.org/1999/xlink">
    <!-- Generator: Sketch 57.1 (83088) - https://sketch.com -->
    <title>Group</title>
    <desc>Created with Sketch.</desc>
    <defs>
        <path d="M58.5033597,-2.40163445e-12 C60.6821686,-2.40163445e-12 62.4484422,1.77407831 62.4484422,3.94305598 L62.4484422,97.0377169 C62.4484422,99.2154066 60.6886231,100.980773 58.5033597,100.980773 L4.82445751,100.980773 C2.6456486,100.980773 0.879375,99.2066946 0.879375,97.0377169 L0.879375,3.94305598 C0.879375,1.7653663 2.63919411,-2.40163445e-12 4.82445751,-2.40163445e-12 L58.5033597,-2.40163445e-12 Z M31.5,88.0741395 C28.9266982,88.0741395 26.840625,90.149515 26.840625,92.7096205 C26.840625,95.269726 28.9266982,97.3451015 31.5,97.3451015 C34.0733018,97.3451015 36.159375,95.269726 36.159375,92.7096205 C36.159375,90.149515 34.0733018,88.0741395 31.5,88.0741395 Z M34.9979907,2.31774051 L28.0020093,2.31774051 C27.3683415,2.31774051 26.840625,2.8365844 26.840625,3.47661077 C26.840625,4.07813338 27.2935762,4.56631854 27.8754637,4.62873646 L28.0020093,4.63548102 L34.9979907,4.63548102 C35.589414,4.63548102 36.0885419,4.18351035 36.1524637,3.60288245 L36.159375,3.47661077 L36.1525602,3.34956168 C36.089506,2.76582416 35.5966445,2.31774051 34.9979907,2.31774051 Z" id="path-1"></path>
        <filter x="-13.8%" y="-6.4%" width="127.6%" height="116.8%" filterUnits="objectBoundingBox" id="filter-2">
            <feOffset dx="0" dy="2" in="SourceAlpha" result="shadowOffsetOuter1"></feOffset>
            <feGaussianBlur stdDeviation="2.5" in="shadowOffsetOuter1" result="shadowBlurOuter1"></feGaussianBlur>
            <feColorMatrix values="0 0 0 0 0   0 0 0 0 0   0 0 0 0 0  0 0 0 0.161769701 0" type="matrix" in="shadowBlurOuter1"></feColorMatrix>
        </filter>
        <rect id="path-3" x="5.30578125" y="7.99847706" width="53.076782" height="78.3958182" rx="1.83529412"></rect>
    </defs>
    <g id="Dark-theme-Fuji-Yahoo-Properties" stroke="none" stroke-width="1" fill="none" fill-rule="evenodd">
        <g id="Yak-DM-1.2" transform="translate(-88.000000, -218.000000)">
            <g id="Group" transform="translate(87.000000, 220.000000)">
                <g id="Finance-" transform="translate(118.059076, 66.227076)" fill="#464E56">
                    <g id="finance-icon">
                        <polygon id="Fill-1" points="17.1421259 -0.000182114014 10.0889177 6.73318005 5.64196187 2.83047671 0.000120939784 8.69454798 0.000120939784 10.5569673 5.64619475 4.68439739 10.0750096 8.56767522 17.1421259 1.82095803"></polygon>
                        <polygon id="Fill-2" points="10.2968132 10.5606096 5.64184092 6.76110419 0.237041976 12.4879829 0.237041976 14.0493071 17.1686118 14.0493071 17.1686118 3.81571353"></polygon>
                    </g>
                </g>
                <path d="M119.892641,93.196884 C123.597159,96.9576312 124.844132,96.965403 128.617863,93.2469763 C124.844132,96.965403 124.833193,98.2138497 128.53628,101.970282 C124.833193,98.2138497 123.584067,98.2032036 119.812491,101.923785 C123.584068,98.202484 123.597159,96.9576312 119.892641,93.196884 Z" id="Path-Copy-16" fill="#464E56" transform="translate(124.215177, 97.583583) rotate(-315.000000) translate(-124.215177, -97.583583) "></path>
                <path d="M132.393901,51.2270755 L130.059076,52.1168613 L130.059076,53.3032424 C130.059941,54.8104985 130.995395,56.1536002 132.393901,56.6555252 C133.792406,56.1536002 134.72786,54.8104985 134.728725,53.3032424 L134.728725,52.1168613 L132.393901,51.2270755 Z" id="Path-Copy-6" stroke="#464E56" stroke-width="1.15555556"></path>
                <path d="M116.393901,7.22707554 L114.059076,8.11686134 L114.059076,9.30324241 C114.059941,10.8104985 114.995395,12.1536002 116.393901,12.6555252 C117.792406,12.1536002 118.72786,10.8104985 118.728725,9.30324241 L118.728725,8.11686134 L116.393901,7.22707554 Z" id="Path-Copy-9" stroke="#FFFFFF" stroke-width="1.15555556"></path>
                <path d="M34.3939006,30.2270755 L32.0590761,31.1168613 L32.0590761,32.3032424 C32.0599409,33.8104985 32.995395,35.1536002 34.3939006,35.6555252 C35.7924062,35.1536002 36.7278603,33.8104985 36.7287251,32.3032424 L36.7287251,31.1168613 L34.3939006,30.2270755 Z" id="Path-Copy-10" stroke="#FFFFFF" stroke-width="1.15555556"></path>
                <path d="M111.376333,89.1891748 C111.637272,89.1891748 111.848804,89.3914639 111.848804,89.65779 L111.847979,91.0721748 L113.233061,91.0723024 C113.481283,91.0723024 113.687728,91.2448498 113.730541,91.4759573 L113.735979,91.5421748 L113.730491,91.6096126 C113.687431,91.8395229 113.479944,92.0138662 113.233061,92.0138662 L111.847979,92.0131748 L111.848804,93.4283786 C111.848804,93.658431 111.675638,93.8497652 111.45925,93.8894437 L111.376333,93.8969937 C111.115395,93.8969937 110.903862,93.6947046 110.903862,93.4283786 L110.902979,92.0131748 L109.519606,92.0138662 C109.271384,92.0138662 109.064938,91.8413188 109.022126,91.6102113 L109.015979,91.5421748 L109.022175,91.4765559 C109.065235,91.2466456 109.272722,91.0723024 109.519606,91.0723024 L110.902979,91.0721748 L110.903862,89.65779 C110.903862,89.4277375 111.077029,89.2364034 111.293416,89.1967248 L111.376333,89.1891748 Z M113.738687,91.5210236 L113.738687,91.565145 L113.738687,91.565145 L113.735979,91.5421748 L113.738687,91.5210236 Z M109.013979,91.5210236 L109.015979,91.5421748 L109.013979,91.565145 L109.013979,91.5210236 L109.013979,91.5210236 Z" id="Combined-Shape-Copy-8" fill="#FFFFFF" transform="translate(111.376333, 91.543084) rotate(39.000000) translate(-111.376333, -91.543084) "></path>
                <g id="mail" transform="translate(124.559076, 19.227076)">
                    <g id="mail-icon" transform="translate(0.217391, 0.130435)">
                        <rect id="envelope" fill="#464E56" x="0" y="0" width="18.5327814" height="12.0193546" rx="0.296592593"></rect>
                        <polygon id="cut" fill="#000000" points="1.3237701 1.33548384 1.3237701 3.33870961 9.2663907 6.67741921 17.2090113 3.33870961 17.2090113 1.33548384"></polygon>
                    </g>
                </g>
                <ellipse id="Oval-2-Copy-5" stroke="#464E56" stroke-width="1.15555556" transform="translate(7.283324, 50.756485) scale(-1, 1) rotate(-37.000000) translate(-7.283324, -50.756485) " cx="7.28332419" cy="50.756485" rx="1.52149741" ry="1.52056636"></ellipse>
                <g id="Fatasy" transform="translate(1.059076, 17.227076)" fill="#464E56" fill-rule="nonzero">
                    <path d="M15.2876608,7.77554076 C15.2918153,7.77120136 15.2918153,7.76758518 15.2952774,7.76324577 C15.8914575,6.53157656 16.2764472,5.0634095 16.3796189,3.47084602 L18.9325991,3.47084602 C18.738027,4.70251523 18.007516,7.29025008 15.2876608,7.77554076 L15.2876608,7.77554076 Z M2.07822118,3.47084602 L4.6312014,3.47084602 C4.73021853,5.07136508 5.11936279,6.54387155 5.72315958,7.77554076 C3.00330433,7.29025008 2.27279331,4.70251523 2.07822118,3.47084602 L2.07822118,3.47084602 Z M16.4114706,2.22688182 C16.4190873,1.77919935 16.4350131,1.32717747 16.4232418,0.891790003 L12.2742163,0.891790003 L12.2742163,7.25698127 L10.5071412,5.27459413 L8.7366041,7.25698127 L8.7366041,0.891790003 L4.59173303,0.891790003 C4.57926933,1.33079365 4.59173303,1.78281553 4.59519517,2.22688182 L0.8,2.22688182 L0.81938797,2.86983774 C0.887245866,4.94696867 2.13776995,8.92837736 6.38235057,9.09399817 L6.38996727,8.93705617 C7.17241036,10.0732584 8.16465897,10.8897906 9.27254298,11.2427293 C9.28431426,11.2463455 9.29608552,11.250685 9.30854922,11.250685 L9.30854922,13.0175481 L6.27086974,13.0175481 L6.27086974,14.3114155 L4.54395554,14.3114155 L4.54395554,15.9452034 L16.4627102,15.9452034 L16.4627102,14.3114155 L14.7399506,14.3114155 L14.7399506,13.0175481 L11.7022711,13.0175481 L11.7022711,11.250685 C12.7942293,10.9151039 13.7830158,10.1224384 14.5571497,9.01950497 C14.5806923,8.98623616 14.6007726,8.95730676 14.620853,8.92403795 L14.6284698,9.09399817 C18.8730504,8.92837736 20.1235744,4.94696867 20.19074,2.86983774 L20.2108204,2.22688182 L16.4114706,2.22688182 Z" id="fatasy-icon"></path>
                </g>
                <g id="sport-icon" transform="translate(10.059076, 67.227076)" fill="#464E56">
                    <g id="sporty-icon" transform="translate(0.676829, 0.541533)">
                        <path d="M12.3394032,12.0166157 L1.08645082,12.0166157 C0.486747687,12.0166157 5.67900693e-05,11.5125744 5.67900693e-05,10.8901776 C5.67900693e-05,10.2677808 0.486747687,9.76373943 1.08645082,9.76373943 L12.0389837,9.76373943 C12.4734277,9.47226699 12.9288841,9.041241 13.0407605,8.47242802 C13.1566122,7.88359472 12.8533533,7.29711675 12.5620202,6.89258827 C12.4836499,6.8878776 12.3524648,6.89141059 12.2598971,6.89494359 C12.1690329,6.89788776 12.0776009,6.9002431 11.985601,6.9002431 L2.78731341,6.9002431 C2.67202957,6.9002431 2.55731363,6.88140043 2.44770879,6.8437151 C2.33526445,6.80544094 1.33519133,6.44095312 0.787167156,5.43758117 C0.376007052,4.68387453 0.2527726,3.66519292 0.465167461,2.77899879 C0.941636149,0.79521938 3.01788109,0.115705745 3.25355988,0.0450457479 C3.3518067,0.0150152493 3.45402883,0.000294416653 3.55681885,0.000294416653 L14.7387835,0.000294416653 C15.3390546,0.000294416653 15.8251776,0.504335727 15.8251776,1.12673253 C15.8251776,1.74912934 15.3390546,2.25317064 14.7387835,2.25317064 L3.73797918,2.25317064 C3.38588074,2.39566831 2.70610361,2.77252162 2.57378275,3.32308077 C2.48575814,3.68992391 2.56185683,4.11447273 2.67827647,4.32704155 C2.76005418,4.47778288 2.91281946,4.5861282 3.01731319,4.64677804 L11.9861689,4.64677804 C12.0548849,4.64677804 12.1241688,4.6444227 12.1928847,4.6426562 C12.717625,4.62558004 13.5973032,4.59731604 14.2430063,5.46348983 C15.2941905,6.87139027 15.3276966,8.12148338 15.1703881,8.92288547 C14.9358451,10.1158618 14.1402163,11.1363099 12.8698224,11.8729404 C12.7079707,11.9671537 12.5251066,12.0166157 12.3394032,12.0166157" id="Fill-1"></path>
                    </g>
                </g>
                <path d="M27.5709405,95.3604089 L24.8048388,96.3930384 L24.8048388,97.7698777 C24.8058634,99.5191044 25.9141099,101.077824 27.5709405,101.660327 C29.2277711,101.077824 30.3360177,99.5191044 30.3370422,97.7698777 L30.3370422,96.3930384 L27.5709405,95.3604089 Z" id="Path-Copy-11" stroke="#707070" stroke-width="1.15555556"></path>
                <path d="M5.44513841,92.0959832 C8.17985519,94.8660917 9.10038734,94.871819 11.8862134,92.1328989 C9.10038734,94.871819 9.09230916,95.7914029 11.8259695,98.5583333 C9.09230916,95.7914029 8.17018738,95.7835586 5.38595192,98.5240658 C8.17018836,95.7830285 8.17985519,94.8660917 5.44513841,92.0959832 Z" id="Path-Copy-17" fill="#464E56" transform="translate(8.636083, 95.327158) rotate(-315.000000) translate(-8.636083, -95.327158) "></path>
                <path d="M3.36235393,60.1747819 C3.75376155,60.1747819 4.07106011,60.483675 4.07106011,60.8897982 L4.071,61.8217819 L5.02756095,61.8225185 C5.38049926,61.8225185 5.67218106,62.0858996 5.71834373,62.4322967 L5.72470786,62.5286913 C5.72470786,62.9186998 5.41470659,63.2348642 5.02756095,63.2348642 L4.071,63.2347819 L4.07106011,64.1675844 C4.07106011,64.5295693 3.80673415,64.8287276 3.4590944,64.8760735 L3.36235393,64.8826008 C2.97094632,64.8826008 2.65364775,64.5737076 2.65364775,64.1675844 L2.653,63.2347819 L1.69714692,63.2348642 C1.34420861,63.2348642 1.0525268,62.9714831 1.00636413,62.625086 L1,62.5286913 C1,62.1386828 1.31000128,61.8225185 1.69714692,61.8225185 L2.653,61.8217819 L2.65364775,60.8897982 C2.65364775,60.5278133 2.91797372,60.228655 3.26561346,60.1813091 L3.36235393,60.1747819 Z" id="Combined-Shape-Copy" fill="#FFFFFF" transform="translate(3.362354, 62.528691) scale(-1, 1) rotate(-37.000000) translate(-3.362354, -62.528691) "></path>
                <path d="M143.362354,44.1747819 C143.753762,44.1747819 144.07106,44.483675 144.07106,44.8897982 L144.071,45.8217819 L145.027561,45.8225185 C145.380499,45.8225185 145.672181,46.0858996 145.718344,46.4322967 L145.724708,46.5286913 C145.724708,46.9186998 145.414707,47.2348642 145.027561,47.2348642 L144.071,47.2347819 L144.07106,48.1675844 C144.07106,48.5295693 143.806734,48.8287276 143.459094,48.8760735 L143.362354,48.8826008 C142.970946,48.8826008 142.653648,48.5737076 142.653648,48.1675844 L142.653,47.2347819 L141.697147,47.2348642 C141.344209,47.2348642 141.052527,46.9714831 141.006364,46.625086 L141,46.5286913 C141,46.1386828 141.310001,45.8225185 141.697147,45.8225185 L142.653,45.8217819 L142.653648,44.8897982 C142.653648,44.5278133 142.917974,44.228655 143.265613,44.1813091 L143.362354,44.1747819 Z" id="Combined-Shape-Copy-2" fill="#FFFFFF" transform="translate(143.362354, 46.528691) scale(-1, 1) rotate(-37.000000) translate(-143.362354, -46.528691) "></path>
                <path d="M131.362354,1 C131.753762,1 132.07106,1.30889315 132.07106,1.71501637 L132.071,2.647 L133.027561,2.64773663 C133.380499,2.64773663 133.672181,2.91111773 133.718344,3.2575148 L133.724708,3.35390947 C133.724708,3.74391796 133.414707,4.0600823 133.027561,4.0600823 L132.071,4.06 L132.07106,4.99280256 C132.07106,5.35478748 131.806734,5.65394575 131.459094,5.70129167 L131.362354,5.70781893 C130.970946,5.70781893 130.653648,5.39892578 130.653648,4.99280256 L130.653,4.06 L129.697147,4.0600823 C129.344209,4.0600823 129.052527,3.7967012 129.006364,3.45030413 L129,3.35390947 C129,2.96390098 129.310001,2.64773663 129.697147,2.64773663 L130.653,2.647 L130.653648,1.71501637 C130.653648,1.35303145 130.917974,1.05387318 131.265613,1.00652726 L131.362354,1 Z" id="Combined-Shape-Copy-3" fill="#464E56" transform="translate(131.362354, 3.353909) scale(-1, 1) rotate(-37.000000) translate(-131.362354, -3.353909) "></path>
                <path d="M26.4809389,4.60037836 C29.2636977,7.42568537 30.2003987,7.43152425 33.0351495,4.63801205 C30.2003987,7.43152425 30.1921812,8.36943482 32.973865,11.1915004 C30.1921812,8.36943482 29.2538626,8.36143663 26.4207304,11.1565676 C29.2538636,8.36089605 29.2636977,7.42568537 26.4809389,4.60037836 Z" id="Path-Copy-13" fill="#464E56" transform="translate(29.727940, 7.895939) rotate(-315.000000) translate(-29.727940, -7.895939) "></path>
                <g id="phone" transform="translate(42.059076, 1.227076)">
                    <g id="Group-20-Copy">
                        <g id="Combined-Shape">
                            <use fill="black" fill-opacity="1" filter="url(#filter-2)" xlink:href="#path-1"></use>
                            <use fill="#464E56" fill-rule="evenodd" xlink:href="#path-1"></use>
                        </g>
                        <mask id="mask-4" fill="white">
                            <use xlink:href="#path-3"></use>
                        </mask>
                        <use id="screen" fill="#000000" xlink:href="#path-3"></use>
                    </g>
                </g>
                <g id="Avator-2" transform="translate(67.059076, 19.227076)" fill="#5D5EFF">
                    <path d="M7.88375,5.10490375 C7.88375,6.07179094 7.15898692,6.85553515 6.26375,6.85553515 C5.36951,6.85553515 4.64375,6.07179094 4.64375,5.10490375 C4.64375,4.13801656 5.36951,3.35427235 6.26375,3.35427235 C7.15898692,3.35427235 7.88375,4.13801656 7.88375,5.10490375 M3.02375,9.64655032 C3.0519106,9.26625932 3.24478411,8.91451707 3.56039532,8.61286981 C3.63053114,8.54607649 3.69854163,8.47766721 3.78036676,8.41626044 C4.4137145,7.93847274 5.38073873,7.63359354 6.46625,7.63359354 C7.55176127,7.63359354 8.5187855,7.93847274 9.15213324,8.41626044 C9.23395837,8.47766721 9.30196886,8.54607649 9.37210468,8.61286981 C9.68771589,8.91451707 9.8805894,9.26625932 9.90875,9.64655032 C9.05118016,10.5498761 7.8546205,11.1176194 6.52735318,11.1348563 L6.40514682,11.1348563 C5.0778795,11.1176194 3.88131984,10.5498761 3.02375,9.64655032 M6.26375,0.631067961 C3.13236364,0.631067961 0.59375,3.1566632 0.59375,6.27199135 C0.59375,9.38731949 3.13236364,11.9129147 6.26375,11.9129147 C9.39513636,11.9129147 11.93375,9.38731949 11.93375,6.27199135 C11.93375,3.1566632 9.39513636,0.631067961 6.26375,0.631067961" id="Avator"></path>
                </g>
                <g id="no-button" transform="translate(47.177826, 45.353289)">
                    <g id="circle" fill="#000000" stroke="#464E56" stroke-width="2">
                        <g id="Group-16-Copy-2">
                            <g>
                                <rect id="grey-circle" x="-1" y="-1" width="23.3163838" height="23.3913627" rx="11.6581919"></rect>
                            </g>
                        </g>
                    </g>
                    <path d="M11.3023461,10.5185142 L13.987419,7.84664023 C14.1382464,7.69658623 14.1382464,7.45315263 13.987419,7.30347901 C13.8369738,7.15342501 13.5922854,7.15342501 13.441458,7.30347901 L10.7561939,9.97535295 L8.07092993,7.30347901 C7.92010247,7.15342501 7.67541407,7.15342501 7.52496894,7.30347901 C7.37414148,7.45315263 7.37414148,7.69639605 7.52496894,7.84664023 L10.2100418,10.5185142 L7.33170334,13.3824724 C7.18106704,13.5319559 7.18106704,13.7755797 7.3318945,13.9250631 C7.48233963,14.0749269 7.72702803,14.0749269 7.87785549,13.9250631 L10.7561939,11.0616754 L13.441458,13.9250631 C13.5922854,14.0749269 13.8369738,14.0749269 13.9876101,13.9250631 C14.1382464,13.7755797 14.1382464,13.5327166 13.987419,13.3824724 L11.3023461,10.5185142 Z" id="cross-icon" stroke="#5D5EFF" stroke-width="1.18181818" fill="#5D5EFF"></path>
                </g>
                <path d="M30.231734,82.2927214 C33.2283415,85.336544 34.2524267,85.3276656 37.3974346,82.2270755 C34.2524267,85.3276656 34.2281594,86.3533023 37.2236442,89.3935982 C34.2281594,86.3533023 33.2023407,86.3598461 30.0590761,89.4621797 C33.2023506,86.359255 33.2283415,85.336544 30.231734,82.2927214 Z" id="Path" fill="#DFE2E8" transform="translate(33.728255, 85.844628) rotate(-315.000000) translate(-33.728255, -85.844628) "></path>
                <g id="yes-button" transform="translate(78.973139, 45.353289)">
                    <g id="Group-4">
                        <g id="circle" fill="#000000" stroke="#464E56" stroke-width="2">
                            <g id="grey-circle">
                                <rect x="-1" y="-1" width="23.3163838" height="23.3913627" rx="11.6581919"></rect>
                            </g>
                        </g>
                        <g id="click" transform="translate(6.015625, 7.190939)" fill="#5D5EFF" stroke="#5D5EFF" stroke-width="1.18181818">
                            <path d="M0.132102562,3.61120765 C-0.0465452935,3.43946957 -0.043586794,3.16344608 0.138474715,2.99481437 C0.320763801,2.82640455 0.613427677,2.82906715 0.79230311,3.00102712 L3.28631821,5.41157303 L8.76591448,0.130737922 C8.94456233,-0.0412220452 9.23722621,-0.0438846511 9.4195153,0.124747058 C9.60180438,0.293156884 9.6045353,0.569180366 9.42588745,0.740918449 L3.28631821,6.6563413 L0.132102562,3.61120765 Z" id="Fill-2"></path>
                        </g>
                    </g>
                </g>
            </g>
        </g>
    </g>
</svg>