<?xml version="1.0" encoding="UTF-8"?>
<svg width="160px" height="104px" viewBox="0 0 160 104" version="1.1" xmlns="http://www.w3.org/2000/svg" xmlns:xlink="http://www.w3.org/1999/xlink">
    <defs>
        <rect id="path-1" x="4.2289429" y="7.52332001" width="49.4676025" height="73.7386409" rx="1.71751763"></rect>
        <linearGradient x1="83.3606481%" y1="21.874927%" x2="14.7192096%" y2="77.1426975%" id="linearGradient-3">
            <stop stop-color="#EEEFF1" offset="0%"></stop>
            <stop stop-color="#D8DADE" offset="100%"></stop>
        </linearGradient>
        <path d="M22,1.58280421 C22,0.708647003 21.1793121,2.5733304e-06 20.1669422,2.5733304e-06 L1.836364,2.5733304e-06 C1.33053698,-0.000784364581 0.846816113,0.178946916 0.499706719,0.496650825 C0.152597325,0.814354735 -0.0270443108,1.24178899 0.00330618035,1.67777231 L0.00330618035,13.5329565 L0.00330618035,30.453106 C0.000187164128,30.8894214 0.205796374,31.3074962 0.571554104,31.6085512 L9.7368432,39.5225594 C10.0629722,39.8269456 10.5214185,40 11.0016531,40 C11.4818877,40 11.940334,39.8269456 12.266463,39.5225594 C12.266463,39.5225594 21.4317521,31.6085512 21.5600661,31.434443 C21.8359592,31.1560439 21.9914449,30.8036161 22,30.437278 L22,13.4221604 L22,1.58280421 Z" id="path-4"></path>
        <filter x="-56.8%" y="-21.2%" width="213.6%" height="162.5%" filterUnits="objectBoundingBox" id="filter-5">
            <feOffset dx="0" dy="4" in="SourceAlpha" result="shadowOffsetOuter1"></feOffset>
            <feGaussianBlur stdDeviation="3.5" in="shadowOffsetOuter1" result="shadowBlurOuter1"></feGaussianBlur>
            <feColorMatrix values="0 0 0 0 0   0 0 0 0 0   0 0 0 0 0  0 0 0 0.15 0" type="matrix" in="shadowBlurOuter1"></feColorMatrix>
        </filter>
        <linearGradient x1="0%" y1="100%" x2="100%" y2="0%" id="linearGradient-6">
            <stop stop-color="#7282FB" offset="0%"></stop>
            <stop stop-color="#755BF9" offset="68.7141263%"></stop>
            <stop stop-color="#7934F7" offset="100%"></stop>
        </linearGradient>
    </defs>
    <g id="Edit-phone-number" stroke="none" stroke-width="1" fill="none" fill-rule="evenodd">
        <rect fill="transparent" x="0" y="0" width="160" height="104"></rect>
        <g id="phone-copy" transform="translate(51.000000, 4.000000)">
            <g id="Group-20-Copy">
                <rect id="phone" fill="#808080" x="0.103528807" y="0" width="57.3824189" height="94.9819151" rx="3.68948233"></rect>
                <mask id="mask-2" fill="000">
                    <use xlink:href="#path-1"></use>
                </mask>
                <use id="screen-copy" fill="black" xlink:href="#path-1"></use>
            </g>
            <rect id="ear-copy" fill="#000" x="24.2994342" y="2.18005296" width="8.6850823" height="2.18005296" rx="1.09002648"></rect>
            <ellipse id="home-copy" fill="#000" cx="28.6419753" cy="87.2021183" rx="4.34254115" ry="4.36010591"></ellipse>
            <path d="M29.9316314,21.7323352 C29.9316314,22.6417836 29.2561516,23.3789687 28.4217901,23.3789687 C27.5883577,23.3789687 26.9119489,22.6417836 26.9119489,21.7323352 C26.9119489,20.8228869 27.5883577,20.0857017 28.4217901,20.0857017 C29.2561516,20.0857017 29.9316314,20.8228869 29.9316314,21.7323352 M25.4021076,26.004181 C25.4283533,25.6464815 25.6081115,25.3156349 25.9022614,25.0319073 C25.9676281,24.9690819 26.0310139,24.9047365 26.107275,24.8469776 C26.6975556,24.3975734 27.5988229,24.1108058 28.6105203,24.1108058 C29.6222176,24.1108058 30.523485,24.3975734 31.1137656,24.8469776 C31.1900266,24.9047365 31.2534125,24.9690819 31.3187791,25.0319073 C31.612929,25.3156349 31.7926873,25.6464815 31.818933,26.004181 C31.0196772,26.8538439 29.9044827,27.3878598 28.6674685,27.4040728 L28.5535721,27.4040728 C27.3165579,27.3878598 26.2013633,26.8538439 25.4021076,26.004181 M28.4217901,17.5242718 C25.5033356,17.5242718 23.1373457,19.8998317 23.1373457,22.8300909 C23.1373457,25.76035 25.5033356,28.1359099 28.4217901,28.1359099 C31.3402447,28.1359099 33.7062346,25.76035 33.7062346,22.8300909 C33.7062346,19.8998317 31.3402447,17.5242718 28.4217901,17.5242718" id="Fill-1-Copy" fill="url(#linearGradient-3)"></path>
        </g>
        <path d="M129.900724,88.8363893 C133.605168,92.59721 134.853761,92.6033619 138.637285,88.8751415 C134.853761,92.6033619 134.841176,93.8534549 138.544193,97.6099571 C134.841176,93.8534549 133.59043,93.8444277 129.809061,97.5748028 C133.590433,93.8437072 133.605168,92.59721 129.900724,88.8363893 Z" id="Path-Copy-16" fill="#707070" transform="translate(134.223173, 93.223173) rotate(-315.000000) translate(-134.223173, -93.223173) "></path>
        <path d="M133.5,42 L130,43.3112927 L130,45.0596829 C130.001296,47.2809522 131.403581,49.2603044 133.5,50 C135.596419,49.2603044 136.998704,47.2809522 137,45.0596829 L137,43.3112927 L133.5,42 Z" id="Path-Copy-6" stroke="#707070" stroke-width="1.15555556"></path>
        <path d="M131,8 L128,9.1473811 L128,10.6772226 C128.001111,12.6208332 129.20307,14.3527663 131,15 C132.79693,14.3527663 133.998889,12.6208332 134,10.6772226 L134,9.1473811 L131,8 Z" id="Path-Copy-9" stroke="#707070" stroke-width="1.15555556"></path>
        <path d="M120.484652,20.0268914 L121.232766,20.0268914 C121.866076,20.0268914 122.379476,20.5417516 122.379476,20.9684551 L122.379476,20.0268914 C122.379476,20.5469027 121.854428,20.9684551 121.232766,20.9684551 L120.484652,20.9684551 L120.484652,22.3829676 C120.484652,22.6417766 120.264915,22.8515827 120.010946,22.8515827 C119.749325,22.8515827 119.53724,22.6492936 119.53724,22.3829676 L119.53724,20.9684551 L118.789126,20.9684551 C118.155815,20.9684551 117.642416,20.4535949 117.642416,20.0268914 L117.642416,20.9684551 C117.642416,20.4484438 118.167463,20.0268914 118.789126,20.0268914 L119.53724,20.0268914 L119.53724,18.6123789 C119.53724,18.3535699 119.756976,18.1437638 120.010946,18.1437638 C120.272566,18.1437638 120.484652,18.3460529 120.484652,18.6123789 L120.484652,20.0268914 Z" id="Combined-Shape-Copy-9" fill="#808080" transform="translate(120.010946, 20.497673) rotate(39.000000) translate(-120.010946, -20.497673) "></path>
        <circle id="Oval-2-Copy-4" stroke="#808080" stroke-width="1.15555556" transform="translate(143.018749, 30.018749) scale(-1, 1) rotate(-37.000000) translate(-143.018749, -30.018749) " cx="143.018749" cy="30.0187488" r="2.73333328"></circle>
        <circle id="Oval-2-Copy-6" stroke="#808080" stroke-width="1.15555556" transform="translate(16.354612, 31.018749) scale(-1, 1) rotate(-37.000000) translate(-16.354612, -31.018749) " cx="16.3546122" cy="31.0187488" r="2.73333328"></circle>
        <circle id="Oval-2-Copy-5" stroke="#808080" stroke-width="1.15555556" transform="translate(31.618298, 23.618298) scale(-1, 1) rotate(-37.000000) translate(-31.618298, -23.618298) " cx="31.6182984" cy="23.6182984" r="1.73333333"></circle>
        <path d="M40,91 L36,92.4752043 L36,94.4421433 C36.0014816,96.9410713 37.604093,99.1678424 40,100 C42.395907,99.1678424 43.9985184,96.9410713 44,94.4421433 L44,92.4752043 L40,91 Z" id="Path-Copy-11" stroke="#707070" stroke-width="1.15555556"></path>
        <path d="M23.3980809,81.209708 C26.1327514,83.9798627 27.0544794,83.9843942 29.8475274,81.2382522 C27.0544794,83.9843942 27.0451886,84.9051908 29.7788054,87.6721646 C27.0451886,84.9051908 26.1218717,84.8985415 23.3304144,87.6462706 C26.1218734,84.8980108 26.1327514,83.9798627 23.3980809,81.209708 Z" id="Path-Copy-17" fill="#707070" transform="translate(26.588971, 84.440936) rotate(-315.000000) translate(-26.588971, -84.440936) "></path>
        <path d="M26.867137,63.147846 L28.0285851,63.147846 C28.4961068,63.147846 28.875108,63.5274601 28.875108,64.0030929 C28.875108,64.4754328 28.4986835,64.8583399 28.0285851,64.8583399 L26.867137,64.8583399 L26.867137,65.9879587 C26.867137,66.4662137 26.4851652,66.853916 26.006578,66.853916 C25.5313044,66.853916 25.146019,66.4620187 25.146019,65.9879587 L25.146019,64.8583399 L23.984571,64.8583399 C23.5170493,64.8583399 23.138048,64.4787258 23.138048,64.0030929 C23.138048,63.5307531 23.5144726,63.147846 23.984571,63.147846 L25.146019,63.147846 L25.146019,62.0182272 C25.146019,61.5399722 25.5279909,61.1522699 26.006578,61.1522699 C26.4818517,61.1522699 26.867137,61.5441671 26.867137,62.0182272 L26.867137,63.147846 Z" id="Combined-Shape-Copy" fill="#808080" transform="translate(26.006578, 64.003093) scale(-1, 1) rotate(-37.000000) translate(-26.006578, -64.003093) "></path>
        <path d="M139.867137,69.5308367 L141.028585,69.5308367 C141.496107,69.5308367 141.875108,69.9104507 141.875108,70.3860836 C141.875108,70.8584235 141.498684,71.2413305 141.028585,71.2413305 L139.867137,71.2413305 L139.867137,72.3709493 C139.867137,72.8492044 139.485165,73.2369067 139.006578,73.2369067 C138.531304,73.2369067 138.146019,72.8450094 138.146019,72.3709493 L138.146019,71.2413305 L136.984571,71.2413305 C136.517049,71.2413305 136.138048,70.8617165 136.138048,70.3860836 C136.138048,69.9137438 136.514473,69.5308367 136.984571,69.5308367 L138.146019,69.5308367 L138.146019,68.4012179 C138.146019,67.9229629 138.527991,67.5352606 139.006578,67.5352606 C139.481852,67.5352606 139.867137,67.9271578 139.867137,68.4012179 L139.867137,69.5308367 Z" id="Combined-Shape-Copy-2" fill="#808080" transform="translate(139.006578, 70.386084) scale(-1, 1) rotate(-37.000000) translate(-139.006578, -70.386084) "></path>
        <path d="M34.5,37 L32,38.1473811 L32,39.6772226 C32.000926,41.6208332 33.0025581,43.3527663 34.5,44 C35.9974419,43.3527663 36.999074,41.6208332 37,39.6772226 L37,38.1473811 L34.5,37 Z" id="Path-Copy-12" stroke="#707070" stroke-width="1.15555556"></path>
        <path d="M34.9169318,7.00157579 C37.699635,9.82693842 38.6375529,9.83156048 41.4796608,7.03069108 C38.6375529,9.83156048 38.6280986,10.7707078 41.4097295,13.5928262 C38.6280986,10.7707078 37.6885639,10.7639257 34.8480745,13.5664139 C37.6885656,10.7633845 37.699635,9.82693842 34.9169318,7.00157579 Z" id="Path-Copy-13" fill="#707070" transform="translate(38.163868, 10.297201) rotate(-315.000000) translate(-38.163868, -10.297201) "></path>
        <g id="Group-13-Copy-8" transform="translate(104.179492, 44.526279) rotate(60.000000) translate(-104.179492, -44.526279) translate(93.179492, 24.526279)">
            <g id="Path-Copy-3">
                <use fill="black" fill-opacity="1" filter="url(#filter-5)" xlink:href="#path-4"></use>
                <use fill="#FFFFFF" fill-rule="evenodd" xlink:href="#path-4"></use>
            </g>
            <g id="FUJICONS-Copy-3" transform="translate(3.000000, 5.000000)" fill="url(#linearGradient-6)">
                <g id="compose-fill">
                    <path d="M15.2021644,23.2589763 C15.1965638,23.5379022 15.0947761,23.806237 14.9141644,24.0182071 C14.9141644,24.1266686 8.83016437,30.1764122 8.83016437,30.1764122 C8.36504843,30.6279179 7.62728031,30.6279179 7.16216437,30.1764122 L1.16216437,24.1507712 C0.927137092,23.9194941 0.796986531,23.601441 0.802164371,23.2710276 L0.802164371,10.2315404 L15.2021644,10.2315404 L15.2021644,23.2589763 Z M15.2021644,7.7610276 L0.802164371,7.7610276 L0.802164371,1.27743786 C0.782295609,0.945484833 0.899896898,0.620040969 1.12712992,0.378144617 C1.35436295,0.136248265 1.67102783,-0.000597206787 2.00216437,1.95930619e-06 L14.0021644,1.95930619e-06 C14.6649061,1.95930619e-06 15.2021644,0.539556235 15.2021644,1.20513016 L15.2021644,7.7610276 Z" id="Fill-1"></path>
                </g>
            </g>
        </g>
    </g>
</svg>