<?xml version="1.0" encoding="UTF-8"?>
<svg width="77px" height="77px" viewBox="0 0 77 77" version="1.1" xmlns="http://www.w3.org/2000/svg" xmlns:xlink="http://www.w3.org/1999/xlink">
    <!-- Generator: Sketch 57.1 (83088) - https://sketch.com -->
    <title>Group 2</title>
    <desc>Created with Sketch.</desc>
    <g id="Dark-theme-Fuji-Yahoo-Properties" stroke="none" stroke-width="1" fill="none" fill-rule="evenodd">
        <g id="Yak-DM-1.3" transform="translate(-122.000000, -105.000000)">
            <g id="Group-2" transform="translate(124.000000, 107.000000)">
                <circle id="Oval" stroke="#232A31" stroke-width="2.38043478" cx="36.5" cy="36.5" r="36.5"></circle>
                <circle id="Oval" fill="#464E56" cx="36.5" cy="36.5" r="30.9456522"></circle>
                <g id="Group" transform="translate(17.456522, 17.456522)">
                    <circle id="Oval" fill="#FFFFFF" cx="19.0434783" cy="20.6304348" r="13.4891304"></circle>
                    <path d="M19.0434783,0 C29.5606719,0 38.0869565,8.52628458 38.0869565,19.0434783 C38.0869565,29.5606719 29.5606719,38.0869565 19.0434783,38.0869565 C8.52628458,38.0869565 0,29.5606719 0,19.0434783 C0,8.52628458 8.52628458,0 19.0434783,0 Z M26.3163557,12.6466008 L15.606996,23.3317233 L11.7584822,19.4953281 C11.0504111,18.7872569 9.9026087,18.7872569 9.19453755,19.4953281 C8.4864664,20.201668 8.4864664,21.3460079 9.19453755,22.0523478 L14.3241581,27.1698498 C15.0322292,27.8761897 16.1817628,27.8761897 16.889834,27.1698498 L28.8803004,15.2053518 C29.5883715,14.4990119 29.5883715,13.3529407 28.8803004,12.6466008 C28.1722292,11.9402609 27.0226957,11.9402609 26.3163557,12.6466008 Z" id="Combined-Shape" fill="#00D15E"></path>
                </g>
            </g>
        </g>
    </g>
</svg>