<?xml version="1.0" encoding="UTF-8"?>
<svg width="24px" height="24px" viewBox="0 0 24 24" version="1.1" xmlns="http://www.w3.org/2000/svg" xmlns:xlink="http://www.w3.org/1999/xlink">
    <g id="overflowVerticle" stroke="none" stroke-width="1" fill="none" fill-rule="evenodd">
        <path d="M12,8.00186306 C10.8954305,8.00186306 10,7.1060155 10,6.00093153 C10,4.89584756 10.8954305,4 12,4 C13.1045695,4 14,4.89584756 14,6.00093153 C14,7.1060155 13.1045695,8.00186306 12,8.00186306 Z M12,14.0018631 C10.8954305,14.0018631 10,13.1060155 10,12.0009315 C10,10.8958476 10.8954305,10 12,10 C13.1045695,10 14,10.8958476 14,12.0009315 C14,13.1060155 13.1045695,14.0018631 12,14.0018631 Z M12,20.0018631 C10.8954305,20.0018631 10,19.1060155 10,18.0009315 C10,16.8958476 10.8954305,16 12,16 C13.1045695,16 14,16.8958476 14,18.0009315 C14,19.1060155 13.1045695,20.0018631 12,20.0018631 Z" id="actions" fill="white"></path>
    </g>
</svg>