<?xml version="1.0" encoding="UTF-8"?>
<svg width="48px" height="48px" viewBox="0 0 48 48" version="1.1" xmlns="http://www.w3.org/2000/svg" xmlns:xlink="http://www.w3.org/1999/xlink">
    <!-- Generator: Sketch 57.1 (83088) - https://sketch.com -->
    <title>visit help site dark theme</title>
    <desc>Created with Sketch.</desc>
    <g id="visit-help-site-dark-theme" stroke="none" stroke-width="1" fill="none" fill-rule="evenodd">
        <g id="Group" transform="translate(2.000000, 6.000000)">
            <path d="M41.05,3 L41.05,33 L3,33 L3,3 L41.05,3 L41.05,3 Z M42.05,0 L2,0 C0.8954305,0 -2.55795385e-13,0.8954305 -2.55795385e-13,2 L-2.55795385e-13,34 C-2.55795385e-13,35.1045695 0.8954305,36 2,36 L42.06,36 C43.1645695,36 44.06,35.1045695 44.06,34 L44.06,2 C44.06,0.8954305 43.1645695,0 42.06,0 L42.05,0 Z" id="Shape" fill="#5D5EFF" fill-rule="nonzero"></path>
            <path d="M1.54,10.13 L41.83,10.13" id="Path" stroke="#5D5EFF" stroke-width="3" stroke-linecap="round" stroke-linejoin="round"></path>
            <g id="Overflow" transform="translate(28.000000, 4.000000)" fill="#5D5EFF" fill-rule="nonzero">
                <path d="M2.49,1.83 C2.49,2.38228475 2.04228475,2.83 1.49,2.83 C0.93771525,2.83 0.49,2.38228475 0.49,1.83 C0.49,1.27771525 0.93771525,0.83 1.49,0.83 C2.04228475,0.83 2.49,1.27771525 2.49,1.83 Z M5.56,1.83 C5.56,2.38228475 5.11228475,2.83 4.56,2.83 C4.00771525,2.83 3.56,2.38228475 3.56,1.83 C3.56,1.27771525 4.00771525,0.83 4.56,0.83 C5.11228475,0.83 5.56,1.27771525 5.56,1.83 Z M8.63,1.83 C8.63,2.38228475 8.18228475,2.83 7.63,2.83 C7.07771525,2.83 6.63,2.38228475 6.63,1.83 C6.63,1.27771525 7.07771525,0.83 7.63,0.83 C8.18228475,0.83 8.63,1.27771525 8.63,1.83 Z" id="actions"></path>
            </g>
            <g id="minus" transform="translate(6.000000, 4.000000)" fill="#5D5EFF" fill-rule="nonzero">
                <path d="M16.1,0.76 C16.51,0.76 16.83,1.21 16.83,1.76 C16.83,2.31 16.51,2.76 16.1,2.76 L1.56,2.76 C1.16,2.76 0.83,2.32 0.83,1.76 C0.83,1.2 1.16,0.76 1.56,0.76 L16.1,0.76 Z" id="Fill-18"></path>
            </g>
            <path d="M22.7272727,23.4225455 L22.7272727,23.672 C22.7272727,24.064 22.4014545,24.3818182 22,24.3818182 C21.5985455,24.3818182 21.2727273,24.064 21.2727273,23.672 L21.2727273,22.8065455 C21.2727273,22.4145455 21.5985455,22.096 22,22.096 C22.8014545,22.096 23.4545455,21.4596364 23.4545455,20.6763636 C23.4545455,19.8930909 22.8014545,19.256 22,19.256 C21.1970909,19.256 20.5454545,19.8930909 20.5454545,20.6763636 C20.5454545,21.0690909 20.2196364,21.3861818 19.8181818,21.3861818 C19.4167273,21.3861818 19.0909091,21.0690909 19.0909091,20.6763636 C19.0909091,19.1112727 20.3956364,17.8363636 22,17.8363636 C23.6043636,17.8363636 24.9090909,19.1112727 24.9090909,20.6763636 C24.9090909,21.9970909 23.9796364,23.1069091 22.7272727,23.4225455 M22,26.5636364 C21.5985455,26.5636364 21.2727273,26.2385455 21.2727273,25.8363636 C21.2727273,25.4349091 21.5985455,25.1090909 22,25.1090909 C22.4014545,25.1090909 22.7272727,25.4349091 22.7272727,25.8363636 C22.7272727,26.2385455 22.4014545,26.5636364 22,26.5636364 M22,14.2 C17.5890909,14.2 14,17.7890909 14,22.2 C14,26.6109091 17.5890909,30.2 22,30.2 C26.4101818,30.2 30,26.6109091 30,22.2 C30,17.7890909 26.4101818,14.2 22,14.2" id="Fill-22-Copy" fill="#5D5EFF"></path>
        </g>
    </g>
</svg>