<?xml version="1.0" encoding="UTF-8"?>
<svg xmlns="http://www.w3.org/2000/svg" xmlns:xlink="http://www.w3.org/1999/xlink" width="160px" height="104px" version="1.1" viewBox="0 0 160 104">
    <defs>
        <rect id="path-1" width="49.4676025" height="73.7386409" x="4.2289429" y="7.52332001" rx="1.71751763"/>
        <rect id="path-3" width="73.8" height="47.5959596" x="4.1" y="8.27755819" rx="3.075"/>
        <filter id="filter-6" width="175.0%" height="165.6%" x="-37.5%" y="-31.5%" filterUnits="objectBoundingBox">
            <feOffset dx="0" dy="2" in="SourceAlpha" result="shadowOffsetOuter1"/>
            <feGaussianBlur in="shadowOffsetOuter1" result="shadowBlurOuter1" stdDeviation="2"/>
            <feColorMatrix in="shadowBlurOuter1" result="shadowMatrixOuter1" type="matrix" values="0 0 0 0 0   0 0 0 0 0   0 0 0 0 0  0 0 0 0.15 0"/>
            <feMerge>
                <feMergeNode in="shadowMatrixOuter1"/>
                <feMergeNode in="SourceGraphic"/>
            </feMerge>
        </filter>
        <linearGradient id="linearGradient-7" x1="13.7021732%" x2="100%" y1="82.904234%" y2="12.1901584%">
            <stop offset="0%" stop-color="#FF333A"/>
            <stop offset="52.9056105%" stop-color="#F32C53"/>
            <stop offset="100%" stop-color="#E6256D"/>
        </linearGradient>
    </defs>
    <g id="Phone-OTP_Initiate-IL-only-Copy-18" fill="none" fill-rule="evenodd" stroke="none" stroke-width="1">
        <g id="phone-copy-4" transform="translate(22.000000, 3.000000)">
            <g id="Group-20-Copy">
                <rect id="phone" width="57.3824189" height="94.9819151" x="0.103528807" y="0" fill="#707070" rx="3.68948233"/>
                <mask id="mask-2" fill="#121212">
                    <use xlink:href="#path-1"/>
                </mask>
                <use id="screen-copy" fill="#121212" xlink:href="#path-1"/>
            </g>
            <rect id="ear-copy" width="8.6850823" height="2.18005296" x="24.2994342" y="2.18005296" fill="#121212" rx="1.09002648"/>
            <ellipse id="home-copy" cx="28.6419753" cy="87.2021183" fill="#121212" rx="4.34254115" ry="4.36010591"/>
        </g>
        <g id="Group-Copy-2" transform="translate(56.000000, 20.000000)">
            <g id="envelope-back" transform="translate(0.000000, 0.326746)">
                <rect width="82" height="32.075538" x="0" y="0" fill="#707070" rx="6.15"/>
                <g id="envelope-inside">
                    <use fill="#121212" fill-opacity="1" xlink:href="#path-3"/>
                    <use fill="#121212" fill-rule="evenodd" xlink:href="#path-3"/>
                </g>
            </g>
            <g id="envelope-front" transform="translate(0.000000, 19.577514)">
                <path id="Triangle-2-Copy" fill="#707070" d="M81.6416504,18.7479074 L82,41.5198775 L47.15,41.5198775 C43.7534488,41.5198775 41,38.7664287 41,35.3698775 L41,3.0781391 C41,1.3798635 42.3767244,0.00313910345 44.075,0.00313910345 C44.5598051,0.00313910345 45.0377408,0.117769002 45.4698031,0.337673924 L81.6416504,18.7479074 Z" transform="translate(61.500000, 20.759939) scale(-1, 1) translate(-61.500000, -20.759939) "/>
                <path id="Triangle-2-Copy-2" fill="#707070" d="M40.6416504,18.7479074 L41,41.5198775 L6.15,41.5198775 C2.75344879,41.5198775 4.15957557e-16,38.7664287 0,35.3698775 L-4.4408921e-16,3.0781391 C-6.52067988e-16,1.3798635 1.37672439,0.00313910345 3.075,0.00313910345 C3.5598051,0.00313910345 4.0377408,0.117769002 4.46980307,0.337673924 L40.6416504,18.7479074 Z"/>
                <path id="Triangle" fill="#707070" d="M78.925,40.7615283 L3.075,40.7615283 L37.7532052,19.9287071 C39.7413283,18.7343484 42.2586717,18.7343484 44.2467948,19.9287071 L78.925,40.7615283 Z"/>
            </g>
        </g>
        <path id="Path-Copy-16" fill="#808080" d="M143.900724,78.8363893 C147.605168,82.59721 148.853761,82.6033619 152.637285,78.8751415 C148.853761,82.6033619 148.841176,83.8534549 152.544193,87.6099571 C148.841176,83.8534549 147.59043,83.8444277 143.809061,87.5748028 C147.590433,83.8437072 147.605168,82.59721 143.900724,78.8363893 Z" transform="translate(148.223173, 83.223173) rotate(-315.000000) translate(-148.223173, -83.223173) "/>
        <path id="Path-Copy-6" stroke="#808080" stroke-width="1.15555556" d="M152.5,63 L149,64.3303483 L149,66.1041459 C149.001296,68.3576945 150.403581,70.3658103 152.5,71.1162551 C154.596419,70.3658103 155.998704,68.3576945 156,66.1041459 L156,64.3303483 L152.5,63 Z"/>
        <path id="Path-Copy-9" stroke="#808080" stroke-width="1.01641414" d="M142.5,13 L140,13.9834695 L140,15.2947622 C140.000926,16.9607142 141.002558,18.4452283 142.5,19 C143.997442,18.4452283 144.999074,16.9607142 145,15.2947622 L145,13.9834695 L142.5,13 Z"/>
        <path id="Path-Copy-10" stroke="#808080" stroke-width="1.15555556" d="M9.84223602,45 L7,46.0803325 L7,47.5207758 C7.00105275,49.3508092 8.13980273,50.9815347 9.84223602,51.5909465 C11.5446693,50.9815347 12.6834193,49.3508092 12.684472,47.5207758 L12.684472,46.0803325 L9.84223602,45 Z"/>
        <path id="Combined-Shape-Copy-9" fill="#808080" d="M131.795763,12.2093226 L132.543877,12.2093226 C133.177187,12.2093226 133.690587,12.7241829 133.690587,13.1508864 L133.690587,12.2093226 C133.690587,12.729334 133.165539,13.1508864 132.543877,13.1508864 L131.795763,13.1508864 L131.795763,14.5653988 C131.795763,14.8242078 131.576026,15.034014 131.322057,15.034014 C131.060436,15.034014 130.848351,14.8317249 130.848351,14.5653988 L130.848351,13.1508864 L130.100237,13.1508864 C129.466926,13.1508864 128.953527,12.6360262 128.953527,12.2093226 L128.953527,13.1508864 C128.953527,12.6308751 129.478574,12.2093226 130.100237,12.2093226 L130.848351,12.2093226 L130.848351,10.7948102 C130.848351,10.5360012 131.068087,10.3261951 131.322057,10.3261951 C131.583677,10.3261951 131.795763,10.5284842 131.795763,10.7948102 L131.795763,12.2093226 Z" transform="translate(131.322057, 12.680105) rotate(39.000000) translate(-131.322057, -12.680105) "/>
        <circle id="Oval-2-Copy-4" cx="151.159504" cy="34.9055101" r="1.90206187" stroke="#707070" stroke-width="0.804123732" transform="translate(151.159504, 34.905510) scale(-1, 1) rotate(-37.000000) translate(-151.159504, -34.905510) "/>
        <circle id="Oval-2-Copy-5" cx="15.6182984" cy="31.9544526" r="1.73333333" stroke="#707070" stroke-width="1.15555556" transform="translate(15.618298, 31.954453) scale(-1, 1) rotate(-37.000000) translate(-15.618298, -31.954453) "/>
        <path id="Path-Copy-11" stroke="#808080" stroke-width="1.15555556" d="M8.7733335,69 L5,70.4049719 L5,72.2782678 C5.00139762,74.6582254 6.51319446,76.7789832 8.7733335,77.571523 C11.0334725,76.7789832 12.5452694,74.6582254 12.546667,72.2782678 L12.546667,70.4049719 L8.7733335,69 Z"/>
        <path id="Path-Copy-17" fill="#808080" d="M11.3980809,85.8750505 C14.1327514,88.6452053 15.0544794,88.6497367 17.8475274,85.9035947 C15.0544794,88.6497367 15.0451886,89.5705333 17.7788054,92.3375072 C15.0451886,89.5705333 14.1218717,89.5638841 11.3304144,92.3116131 C14.1218734,89.5633534 14.1327514,88.6452053 11.3980809,85.8750505 Z" transform="translate(14.588971, 89.106279) rotate(-315.000000) translate(-14.588971, -89.106279) "/>
        <path id="Combined-Shape-Copy" fill="#808080" d="M17.867137,58.147846 L19.0285851,58.147846 C19.4961068,58.147846 19.875108,58.5274601 19.875108,59.0030929 C19.875108,59.4754328 19.4986835,59.8583399 19.0285851,59.8583399 L17.867137,59.8583399 L17.867137,60.9879587 C17.867137,61.4662137 17.4851652,61.853916 17.006578,61.853916 C16.5313044,61.853916 16.146019,61.4620187 16.146019,60.9879587 L16.146019,59.8583399 L14.984571,59.8583399 C14.5170493,59.8583399 14.138048,59.4787258 14.138048,59.0030929 C14.138048,58.5307531 14.5144726,58.147846 14.984571,58.147846 L16.146019,58.147846 L16.146019,57.0182272 C16.146019,56.5399722 16.5279909,56.1522699 17.006578,56.1522699 C17.4818517,56.1522699 17.867137,56.5441671 17.867137,57.0182272 L17.867137,58.147846 Z" transform="translate(17.006578, 59.003093) scale(-1, 1) rotate(-37.000000) translate(-17.006578, -59.003093) "/>
        <path id="Combined-Shape-Copy-3" fill="#808080" d="M150.867137,49.147846 L152.028585,49.147846 C152.496107,49.147846 152.875108,49.5274601 152.875108,50.0030929 C152.875108,50.4754328 152.498684,50.8583399 152.028585,50.8583399 L150.867137,50.8583399 L150.867137,51.9879587 C150.867137,52.4662137 150.485165,52.853916 150.006578,52.853916 C149.531304,52.853916 149.146019,52.4620187 149.146019,51.9879587 L149.146019,50.8583399 L147.984571,50.8583399 C147.517049,50.8583399 147.138048,50.4787258 147.138048,50.0030929 C147.138048,49.5307531 147.514473,49.147846 147.984571,49.147846 L149.146019,49.147846 L149.146019,48.0182272 C149.146019,47.5399722 149.527991,47.1522699 150.006578,47.1522699 C150.481852,47.1522699 150.867137,47.5441671 150.867137,48.0182272 L150.867137,49.147846 Z" transform="translate(150.006578, 50.003093) scale(-1, 1) rotate(-37.000000) translate(-150.006578, -50.003093) "/>
        <path id="Combined-Shape-Copy-2" fill="#808080" d="M148.867137,94.147846 L150.028585,94.147846 C150.496107,94.147846 150.875108,94.5274601 150.875108,95.0030929 C150.875108,95.4754328 150.498684,95.8583399 150.028585,95.8583399 L148.867137,95.8583399 L148.867137,96.9879587 C148.867137,97.4662137 148.485165,97.853916 148.006578,97.853916 C147.531304,97.853916 147.146019,97.4620187 147.146019,96.9879587 L147.146019,95.8583399 L145.984571,95.8583399 C145.517049,95.8583399 145.138048,95.4787258 145.138048,95.0030929 C145.138048,94.5307531 145.514473,94.147846 145.984571,94.147846 L147.146019,94.147846 L147.146019,93.0182272 C147.146019,92.5399722 147.527991,92.1522699 148.006578,92.1522699 C148.481852,92.1522699 148.867137,92.5441671 148.867137,93.0182272 L148.867137,94.147846 Z" transform="translate(148.006578, 95.003093) scale(-1, 1) rotate(-37.000000) translate(-148.006578, -95.003093) "/>
        <path id="Path-Copy-13" fill="#808080" d="M5.42804293,16.3793536 C8.21074614,19.2047162 9.14866398,19.2093383 11.9907719,16.4084689 C9.14866398,19.2093383 9.13920966,20.1484856 11.9208407,22.9706039 C9.13920966,20.1484856 8.19967497,20.1417035 5.35918558,22.9441917 C8.19967668,20.1411622 8.21074614,19.2047162 5.42804293,16.3793536 Z" transform="translate(8.674979, 19.674979) rotate(-315.000000) translate(-8.674979, -19.674979) "/>
        <path id="Path-Copy-14" fill="#808080" d="M150.428043,18.3793536 C153.210746,21.2047162 154.148664,21.2093383 156.990772,18.4084689 C154.148664,21.2093383 154.13921,22.1484856 156.920841,24.9706039 C154.13921,22.1484856 153.199675,22.1417035 150.359186,24.9441917 C153.199677,22.1411622 153.210746,21.2047162 150.428043,18.3793536 Z" transform="translate(153.674979, 21.674979) rotate(-315.000000) translate(-153.674979, -21.674979) "/>
        <g id="Group" fill-rule="nonzero" transform="translate(41.000000, 29.000000)">
            <g id="Master_icon_grid-working-file--copy-91-Copy-Copy" fill="#FFFFFF" filter="url(#filter-6)">
                <path id="Shape" d="M15.6281081,0 C15.6281081,0 0.0605405405,4.41081081 0.0605405405,5.18918919 L0.0605405405,20.9297297 C0.0605405405,28.8864865 11.5632432,35.8918919 14.7632432,37.7945946 C15.2881552,38.1397821 15.968061,38.1397821 16.492973,37.7945946 C19.7794595,35.9783784 31.1956757,28.8864865 31.1956757,20.9297297 L31.1956757,5.18918919 C31.1956757,4.41081081 15.6281081,0 15.6281081,0 Z M15.6281081,11.9005405 C12.5145946,11.9005405 12.4627027,15.0659459 12.4627027,15.0659459 L18.7935135,15.0659459 C18.7935135,15.0659459 18.7416216,11.9005405 15.6281081,11.9005405 Z"/>
            </g>
            <g id="Master_icon_grid-working-file--copy-92" fill="url(#linearGradient-7)" transform="translate(3.459459, 4.324324)">
                <path id="Shape" d="M12.3304018,0 C12.3304018,0 0.128794741,3.40835381 0.128794741,4.00982801 L0.128794741,16.172973 C0.128794741,22.3213759 9.14442659,27.7346437 11.6525347,29.204914 C12.0639522,29.4716498 12.5968513,29.4716498 13.0082688,29.204914 C15.5841636,27.8014742 24.5320088,22.3213759 24.5320088,16.172973 L24.5320088,4.00982801 C24.5320088,3.40835381 12.3304018,0 12.3304018,0 Z M12.242279,17.8771499 C11.4935278,17.8771499 10.8865449,17.2787295 10.8865449,16.5405405 L10.8865449,8.52088452 C10.8865449,7.78269557 11.4935278,7.18427518 12.242279,7.18427518 C12.9910303,7.18427518 13.5980131,7.78269557 13.5980131,8.52088452 L13.5980131,16.5405405 C13.5980131,17.2787295 12.9910303,17.8771499 12.242279,17.8771499 Z M12.242279,23.2235872 C11.4935278,23.2235872 10.8865449,22.6251668 10.8865449,21.8869779 C10.8865449,21.1487889 11.4935278,20.5503686 12.242279,20.5503686 C12.9910303,20.5503686 13.5980131,21.1487889 13.5980131,21.8869779 C13.5980131,22.6251668 12.9910303,23.2235872 12.242279,23.2235872 Z"/>
            </g>
        </g>
    </g>
</svg>
