<svg width="140" height="140" viewBox="0 0 140 140" fill="none" xmlns="http://www.w3.org/2000/svg">
<rect x="2.25113" y="13.941" width="57.1686" height="107.036" rx="3.46519" transform="rotate(-10.7771 2.25113 13.941)" fill="black" stroke="white" stroke-width="3.85022"/>
<path d="M55.5226 73.6414L57.6062 73.2448C58.4418 73.0858 58.9902 72.2795 58.8312 71.4439L58.1976 68.1155" stroke="white" stroke-width="2.31013" stroke-linecap="round"/>
<path d="M54.7071 45.6722L54.0736 42.3437C53.9145 41.5082 53.1082 40.9598 52.2727 41.1188L48.9902 41.7436" stroke="white" stroke-width="2.31013" stroke-linecap="round"/>
<path d="M26.2111 46.0799L24.1274 46.4765C23.2919 46.6355 22.7435 47.4418 22.9025 48.2774L23.5361 51.6058" stroke="white" stroke-width="2.31013" stroke-linecap="round"/>
<path d="M26.7144 74.8303L27.1175 76.9484C27.2766 77.784 28.0829 78.3324 28.9184 78.1734L32.2009 77.5486" stroke="white" stroke-width="2.31013" stroke-linecap="round"/>
<path d="M42.269 54.471L41.2755 49.2516C41.2096 48.9055 41.2958 48.545 41.5152 48.2498C41.7346 47.9545 42.0693 47.7483 42.4455 47.6767L48.1189 46.5968C48.495 46.5252 48.8821 46.594 49.1946 46.788C49.5072 46.9821 49.7198 47.2857 49.7857 47.6317L50.7791 52.8511C50.845 53.1971 50.7588 53.5576 50.5394 53.8529C50.32 54.1482 49.9853 54.3544 49.6092 54.4259L43.9357 55.5059C43.5596 55.5775 43.1725 55.5087 42.86 55.3146C42.5475 55.1206 42.3348 54.817 42.269 54.471ZM44.8573 52.6262L47.694 52.0862L47.1973 49.4765L44.3606 50.0165L44.8573 52.6262ZM35.4255 57.1257L29.752 58.2057C29.3759 58.2772 28.9888 58.2085 28.6763 58.0144C28.3638 57.8204 28.1512 57.5168 28.0853 57.1708L27.0918 51.9513C27.0259 51.6053 27.1122 51.2448 27.3316 50.9496C27.5509 50.6543 27.8857 50.4481 28.2618 50.3765L33.9353 49.2966C34.3114 49.225 34.6985 49.2938 35.011 49.4878C35.3235 49.6818 35.5361 49.9854 35.602 50.3315L36.5955 55.5509C36.6614 55.8969 36.5751 56.2574 36.3558 56.5527C36.1364 56.848 35.8016 57.0541 35.4255 57.1257ZM33.0136 52.1763L30.1769 52.7162L30.6737 55.326L33.5104 54.786L33.0136 52.1763ZM38.5825 65.9898L39.576 71.2092C39.6418 71.5552 39.5556 71.9157 39.3362 72.211C39.1169 72.5063 38.7821 72.7124 38.406 72.784L32.7325 73.8639C32.3564 73.9355 31.9693 73.8668 31.6568 73.6727C31.3443 73.4787 31.1316 73.1751 31.0658 72.8291L30.0723 67.6096C30.0064 67.2636 30.0927 66.9031 30.312 66.6078C30.5314 66.3126 30.8662 66.1064 31.2423 66.0348L36.9157 64.9549C37.2919 64.8833 37.679 64.9521 37.9915 65.1461C38.304 65.3401 38.5166 65.6437 38.5825 65.9898ZM35.9941 67.8346L33.1574 68.3745L33.6541 70.9842L36.4909 70.4443L35.9941 67.8346ZM47.341 65.6747L47.0927 64.3699L48.511 64.0999C49.0179 64.0034 49.4388 63.6656 49.6152 63.2137C49.7917 62.7618 49.697 62.2643 49.3669 61.9088C49.0367 61.5533 48.5212 61.3937 48.0143 61.4902L45.1776 62.0301C44.8014 62.1017 44.4667 62.3079 44.2473 62.6032C44.0279 62.8985 43.9417 63.259 44.0076 63.605L44.5043 66.2147C44.5931 66.681 44.9454 67.0603 45.4286 67.2098C45.9118 67.3593 46.4525 67.2564 46.847 66.9398C47.2414 66.6233 47.4298 66.141 47.341 65.6747ZM30.2488 60.8154C29.7419 60.9118 29.321 61.2497 29.1446 61.7016C28.9682 62.1535 29.0628 62.651 29.393 63.0065C29.7231 63.3619 30.2387 63.5216 30.7455 63.4251L33.5823 62.8851C34.0891 62.7886 34.51 62.4508 34.6865 61.9989C34.8629 61.547 34.7682 61.0495 34.4381 60.694C34.108 60.3385 33.5924 60.1789 33.0855 60.2754L30.2488 60.8154ZM43.5108 60.9953C44.0177 60.8988 44.4386 60.5609 44.615 60.109C44.7915 59.6571 44.6968 59.1596 44.3667 58.8042C44.0365 58.4487 43.5209 58.2891 43.0141 58.3856L41.5957 58.6555L40.8506 54.741C40.7618 54.2747 40.4095 53.8954 39.9263 53.7459C39.4431 53.5964 38.9024 53.6993 38.5079 54.0158C38.1135 54.3324 37.9251 54.8146 38.0139 55.2809L38.759 59.1955L37.3406 59.4655C36.8337 59.562 36.4129 59.8998 36.2364 60.3517C36.06 60.8036 36.1547 61.3011 36.4848 61.6566C36.8149 62.0121 37.3305 62.1717 37.8374 62.0752L43.5108 60.9953ZM50.1059 57.0357L48.6875 57.3056C48.1807 57.4021 47.7598 57.74 47.5833 58.1919C47.4069 58.6438 47.5016 59.1413 47.8317 59.4967C48.1618 59.8522 48.6774 60.0118 49.1843 59.9154L50.6027 59.6454C51.1095 59.5489 51.5304 59.211 51.7069 58.7591C51.8833 58.3072 51.7886 57.8097 51.4585 57.4543C51.1284 57.0988 50.6128 56.9392 50.1059 57.0357ZM38.9355 52.4012C39.3116 52.3296 39.6464 52.1235 39.8657 51.8282C40.0851 51.5329 40.1713 51.1724 40.1055 50.8264L39.8571 49.5215C39.7683 49.0552 39.416 48.6759 38.9328 48.5264C38.4496 48.377 37.9089 48.4799 37.5144 48.7964C37.12 49.113 36.9316 49.5952 37.0204 50.0615L37.2687 51.3663C37.3346 51.7124 37.5472 52.016 37.8598 52.21C38.1723 52.404 38.5594 52.4728 38.9355 52.4012ZM40.9225 62.8401C40.5463 62.9117 40.2116 63.1179 39.9922 63.4131C39.7728 63.7084 39.6866 64.0689 39.7525 64.4149L40.9943 70.9392C41.0831 71.4055 41.4355 71.7848 41.9186 71.9343C42.4018 72.0838 42.9425 71.9809 43.337 71.6643C43.7314 71.3478 43.9198 70.8655 43.8311 70.3993L42.5892 63.875C42.5233 63.5289 42.3107 63.2253 41.9982 63.0313C41.6857 62.8373 41.2986 62.7685 40.9225 62.8401ZM48.3345 70.8942L52.5896 70.0842C52.9658 70.0126 53.3005 69.8065 53.5199 69.5112C53.7393 69.2159 53.8255 68.8554 53.7596 68.5094L53.0145 64.5948C52.9257 64.1285 52.5734 63.7492 52.0902 63.5997C51.6071 63.4503 51.0663 63.5532 50.6719 63.8697C50.2774 64.1863 50.089 64.6685 50.1778 65.1348L50.6745 67.7445L47.8378 68.2845C47.3309 68.3809 46.91 68.7188 46.7336 69.1707C46.5572 69.6226 46.6519 70.1201 46.982 70.4756C47.3121 70.831 47.8277 70.9907 48.3345 70.8942Z" fill="white"/>
<rect x="80.5002" y="20.2552" width="57.1686" height="107.036" rx="3.46519" transform="rotate(11.1349 80.5002 20.2552)" fill="white" stroke="white" stroke-width="3.85022"/>
<path d="M107.641 95.5223L109.722 95.932C110.556 96.0962 111.366 95.5528 111.53 94.7183L112.185 91.3939" stroke="#FFBD41" stroke-width="2.31013" stroke-linecap="round"/>
<path d="M117.324 69.2695L117.978 65.9451C118.143 65.1106 117.599 64.3009 116.765 64.1366L113.486 63.4913" stroke="#FFBD41" stroke-width="2.31013" stroke-linecap="round"/>
<path d="M90.7336 59.0135L88.6525 58.6039C87.8179 58.4397 87.0082 58.9831 86.8439 59.8176L86.1896 63.142" stroke="#FFBD41" stroke-width="2.31013" stroke-linecap="round"/>
<path d="M80.4714 85.8749L80.0551 87.9904C79.8908 88.825 80.4342 89.6347 81.2687 89.7989L84.5472 90.4442" stroke="#FFBD41" stroke-width="2.31013" stroke-linecap="round"/>
<path d="M102.501 72.7915L103.527 67.5784C103.596 67.2328 103.81 66.9305 104.124 66.7384C104.437 66.5463 104.825 66.48 105.201 66.5539L110.867 67.6692C111.243 67.7432 111.576 67.9514 111.794 68.2481C112.011 68.5447 112.095 68.9057 112.027 69.2513L111.001 74.4645C110.933 74.8101 110.719 75.1123 110.405 75.3044C110.091 75.4965 109.704 75.5629 109.328 75.4889L103.662 74.3736C103.286 74.2997 102.952 74.0914 102.735 73.7947C102.517 73.4981 102.433 73.1371 102.501 72.7915ZM105.591 72.0459L108.425 72.6035L108.938 69.997L106.104 69.4393L105.591 72.0459ZM95.1616 72.7006L89.495 71.5853C89.1194 71.5113 88.7859 71.3031 88.5684 71.0064C88.3509 70.7098 88.2669 70.3488 88.3349 70.0032L89.361 64.79C89.429 64.4444 89.6435 64.1422 89.9572 63.9501C90.271 63.758 90.6585 63.6916 91.0341 63.7656L96.7008 64.8809C97.0764 64.9549 97.4099 65.1631 97.6274 65.4598C97.8449 65.7564 97.9289 66.1174 97.8609 66.463L96.8348 71.6762C96.7668 72.0218 96.5523 72.324 96.2385 72.5161C95.9248 72.7082 95.5373 72.7745 95.1616 72.7006ZM94.7711 67.2086L91.9378 66.651L91.4247 69.2575L94.258 69.8152L94.7711 67.2086ZM94.7827 82.1024L93.7566 87.3155C93.6886 87.6611 93.474 87.9634 93.1603 88.1555C92.8466 88.3476 92.4591 88.4139 92.0834 88.34L86.4168 87.2246C86.0412 87.1507 85.7077 86.9424 85.4902 86.6458C85.2727 86.3492 85.1887 85.9881 85.2567 85.6425L86.2828 80.4294C86.3508 80.0838 86.5653 79.7815 86.879 79.5895C87.1928 79.3974 87.5803 79.331 87.9559 79.405L93.6225 80.5203C93.9982 80.5942 94.3317 80.8025 94.5492 81.0991C94.7667 81.3958 94.8507 81.7568 94.7827 82.1024ZM91.6929 82.848L88.8596 82.2904L88.3465 84.8969L91.1798 85.4546L91.6929 82.848ZM103.026 85.0787L103.283 83.7754L104.699 84.0542C105.206 84.1539 105.722 83.9975 106.054 83.6441C106.387 83.2907 106.485 82.7938 106.311 82.3408C106.137 81.8878 105.719 81.5473 105.212 81.4477L102.379 80.89C102.003 80.8161 101.616 80.8824 101.302 81.0745C100.988 81.2666 100.774 81.5688 100.706 81.9144L100.193 84.521C100.101 84.9868 100.286 85.4701 100.679 85.7891C101.071 86.1081 101.612 86.2144 102.096 86.068C102.58 85.9215 102.934 85.5444 103.026 85.0787ZM88.982 74.1918C88.4757 74.0922 87.9592 74.2486 87.6268 74.602C87.2945 74.9554 87.1967 75.4523 87.3703 75.9053C87.5439 76.3583 87.9627 76.6988 88.469 76.7984L91.3023 77.3561C91.8085 77.4557 92.3251 77.2993 92.6574 76.9459C92.9898 76.5925 93.0876 76.0956 92.914 75.6426C92.7403 75.1896 92.3216 74.8491 91.8153 74.7495L88.982 74.1918ZM101.219 79.3079C101.725 79.4075 102.242 79.2511 102.574 78.8977C102.906 78.5443 103.004 78.0474 102.831 77.5944C102.657 77.1415 102.238 76.801 101.732 76.7013L100.315 76.4225L101.085 72.5126C101.176 72.0469 100.991 71.5635 100.599 71.2445C100.206 70.9255 99.666 70.8192 99.182 70.9657C98.6979 71.1121 98.3431 71.4893 98.2515 71.955L97.4819 75.8648L96.0653 75.586C95.559 75.4863 95.0424 75.6427 94.7101 75.9962C94.3778 76.3496 94.28 76.8464 94.4536 77.2994C94.6272 77.7524 95.046 78.0929 95.5522 78.1926L101.219 79.3079ZM108.815 78.0955L107.398 77.8166C106.892 77.717 106.376 77.8734 106.043 78.2268C105.711 78.5802 105.613 79.0771 105.787 79.5301C105.96 79.9831 106.379 80.3236 106.885 80.4232L108.302 80.702C108.808 80.8017 109.325 80.6453 109.657 80.2919C109.99 79.9385 110.087 79.4416 109.914 78.9886C109.74 78.5356 109.321 78.1951 108.815 78.0955ZM100.181 69.6273C100.557 69.7012 100.944 69.6348 101.258 69.4428C101.572 69.2507 101.786 68.9484 101.854 68.6028L102.111 67.2995C102.203 66.8338 102.017 66.3504 101.625 66.0314C101.232 65.7124 100.692 65.6061 100.208 65.7526C99.7239 65.899 99.3692 66.2761 99.2775 66.7419L99.021 68.0451C98.953 68.3907 99.037 68.7518 99.2545 69.0484C99.472 69.345 99.8055 69.5533 100.181 69.6273ZM98.129 80.0535C97.7534 79.9796 97.3658 80.0459 97.0521 80.238C96.7384 80.4301 96.5239 80.7324 96.4558 81.078L95.1733 87.5944C95.0816 88.0601 95.267 88.5435 95.6594 88.8625C96.0519 89.1815 96.592 89.2878 97.0761 89.1413C97.5602 88.9949 97.9149 88.6178 98.0066 88.152L99.2892 81.6356C99.3572 81.29 99.2732 80.929 99.0557 80.6324C98.8381 80.3357 98.5047 80.1274 98.129 80.0535ZM102 90.2918L106.25 91.1283C106.626 91.2022 107.013 91.1359 107.327 90.9438C107.641 90.7517 107.855 90.4494 107.923 90.1038L108.693 86.194C108.784 85.7283 108.599 85.2449 108.207 84.9259C107.814 84.6069 107.274 84.5006 106.79 84.647C106.306 84.7935 105.951 85.1706 105.859 85.6363L105.346 88.2429L102.513 87.6852C102.007 87.5856 101.49 87.742 101.158 88.0954C100.826 88.4488 100.728 88.9457 100.901 89.3987C101.075 89.8517 101.494 90.1922 102 90.2918Z" fill="#FFBD41"/>
<rect x="80.1585" y="20.5646" width="57.1686" height="107.036" rx="3.4652" transform="rotate(11.1319 80.1585 20.5646)" fill="black" stroke="white" stroke-width="3.85022"/>
<circle cx="84.4632" cy="77.195" r="8.94021" transform="rotate(4.1942 84.4632 77.195)" stroke="#FF5257" stroke-width="1.37797"/>
<line x1="87.9372" y1="74.5761" x2="81.4961" y2="80.185" stroke="#FF5257" stroke-width="1.24017" stroke-linecap="round"/>
<line x1="87.4567" y1="80.5207" x2="81.8478" y2="74.0796" stroke="#FF5257" stroke-width="1.24018" stroke-linecap="round"/>
<rect x="102.391" y="69.8986" width="20.0211" height="20.0211" rx="10.0106" transform="rotate(11.1319 102.391 69.8986)" fill="#1BB562"/>
<path d="M106.819 81.7047C106.695 81.5232 106.744 81.2765 106.927 81.1539C107.11 81.0324 107.359 81.0813 107.483 81.2632L108.765 83.1561L113.476 80.0201C113.66 79.8984 113.908 79.9473 114.031 80.1294C114.155 80.3121 114.107 80.5585 113.923 80.6802L108.88 84.0373C108.695 84.1605 108.461 84.1099 108.324 83.9279L106.819 81.7047Z" fill="#242930"/>
<path d="M129.628 35.7287L85.1065 26.9707C84.6811 26.8871 84.2728 27.1415 84.1946 27.539L81.735 40.035C81.6567 40.4326 81.9382 40.8227 82.3636 40.9064L126.885 49.6643C127.31 49.748 127.719 49.4935 127.797 49.096L130.257 36.6C130.335 36.2024 130.053 35.8123 129.628 35.7287Z" fill="#C9CBCD"/>
<path d="M106.847 86.8637L109.793 94.9471L117.682 101.182L110.156 115.111L101.035 114.046L94.5275 100.463L96.1876 98.6076L99.3507 100.358L106.847 86.8637Z" fill="black"/>
<path fill-rule="evenodd" clip-rule="evenodd" d="M115.442 97.4915C115.861 97.4731 116.287 97.5171 116.704 97.6531C118.533 98.2492 119.462 100.19 118.781 101.988L116.317 108.499C113.594 115.692 109.509 118.715 102.197 116.331L102.159 116.318C98.6818 115.184 97.8161 113.39 96.2736 110.194L96.2428 110.13L92.5366 102.563C91.5628 100.531 92.499 98.0581 94.6283 97.0378C95.693 96.5276 96.8542 96.4776 97.8695 96.8087C98.4663 97.0033 98.8071 97.4162 99.0773 97.7436C99.2027 97.8955 99.3129 98.029 99.4264 98.1138L103.206 88.1307C103.887 86.3323 105.92 85.3581 107.748 85.9543C109.576 86.5505 110.506 88.4908 109.825 90.2892L109.061 92.3077C109.291 92.3346 109.521 92.3846 109.747 92.4584C110.927 92.843 111.723 93.7888 111.963 94.8942C112.382 94.8757 112.809 94.9197 113.226 95.0557C114.405 95.4404 115.201 96.3861 115.442 97.4915ZM103.093 113.697C107.731 115.439 111.597 113.564 113.209 108.85L116.134 101.125C116.27 100.765 116.084 100.377 115.718 100.258C115.353 100.138 114.946 100.333 114.81 100.693L113.084 105.251C112.812 105.97 111.998 106.36 111.268 106.121C110.537 105.883 110.165 105.106 110.437 104.387L112.655 98.5272C112.791 98.1678 112.605 97.7794 112.24 97.6602C111.874 97.5411 111.467 97.7361 111.331 98.0955L109.606 102.653C109.334 103.372 108.52 103.762 107.789 103.524C107.058 103.286 106.686 102.509 106.958 101.79L109.177 95.9299C109.313 95.5705 109.127 95.182 108.761 95.0629C108.396 94.9438 107.989 95.1388 107.853 95.4982L106.127 100.056C105.855 100.775 105.041 101.165 104.311 100.927C103.58 100.688 103.208 99.9115 103.48 99.1927L107.177 89.4258C107.313 89.0664 107.127 88.6779 106.762 88.5588C106.396 88.4397 105.989 88.6347 105.853 88.9941L101.111 101.52C100.814 102.306 99.9647 102.612 99.2842 102.391C98.9585 102.284 98.6725 102.058 98.503 101.704L98.0601 100.78L98.0583 100.781L98.0561 100.779C97.8443 100.337 97.0888 99.4801 96.8836 99.4132C96.6784 99.3463 96.2665 99.2676 95.8045 99.49C95.3399 99.7116 95.1427 100.083 95.0667 100.284C94.9903 100.486 94.8942 100.889 95.1061 101.331L98.7357 108.829C98.8816 109.135 99.0145 109.424 99.14 109.697C100.084 111.749 100.607 112.886 103.093 113.697Z" fill="white"/>
<path d="M101.693 66.5636C103.203 67.2286 103.519 68.6737 103.676 68.9023" stroke="white" stroke-width="1.85309" stroke-linecap="round"/>
<path d="M109.683 64.3868C109.88 65.2759 110.076 66.2432 110.153 67.1474" stroke="white" stroke-width="1.85309" stroke-linecap="round"/>
<path d="M116.697 64.9953C115.94 65.5199 115.39 66.2384 115.102 66.9432" stroke="white" stroke-width="1.85309" stroke-linecap="round"/>
</svg>
