<?xml version="1.0" encoding="UTF-8" standalone="no"?>
<svg width="30px" height="33px" viewBox="0 0 30 33" version="1.1" xmlns="http://www.w3.org/2000/svg" xmlns:xlink="http://www.w3.org/1999/xlink">
    <!-- Generator: Sketch 3.7.1 (28215) - http://www.bohemiancoding.com/sketch -->
    <title>Fill 6</title>
    <desc>Created with Sketch.</desc>
    <defs></defs>
    <g id="Page-1" stroke="none" stroke-width="1" fill="none" fill-rule="evenodd">
        <g id="SignIn_Yahoo-Copy-28" transform="translate(-491.000000, -731.000000)" fill="#2592FC">
            <g id="Group-4-Copy-2" transform="translate(491.000000, 731.000000)">
                <path d="M6.0015,30 L24,30 L24,9 L27,9 L27,31.5 C27,32.328 26.3295,33 25.5015,33 L4.5015,33 C3.672,33 3,32.328 3,31.5 L3,9 L6.0015,9 L6.0015,30 Z M28.5,6 L1.5015,6 C0.672,6 0,5.328 0,4.5 C0,3.672 0.672,3 1.5015,3 L6.0015,3 L6.0015,1.5 C6.0015,0.672 6.672,0 7.5,0 L22.5,0 C23.3295,0 24,0.672 24,1.5 L24,3 L28.5,3 C29.3295,3 30,3.672 30,4.5 C30,5.328 29.3295,6 28.5,6 L28.5,6 Z" id="Fill-6"></path>
            </g>
        </g>
    </g>
</svg>