<?xml version="1.0" encoding="utf-8"?>
<!-- Generator: Adobe Illustrator 16.0.0, SVG Export Plug-In . SVG Version: 6.00 Build 0)  -->
<!DOCTYPE svg PUBLIC "-//W3C//DTD SVG 1.1//EN" "http://www.w3.org/Graphics/SVG/1.1/DTD/svg11.dtd">
<svg version="1.1" id="Layer_1" xmlns="http://www.w3.org/2000/svg" xmlns:xlink="http://www.w3.org/1999/xlink" x="0px" y="0px"
	 width="30px" height="33px" viewBox="0 0 30 33" enable-background="new 0 0 30 33" xml:space="preserve">
<title>Fill 6</title>
<desc>Created with Sketch.</desc>
<g id="Page-1">
	<g id="SignIn_Yahoo-Copy-28" transform="translate(-491.000000, -731.000000)">
		<g id="Group-4-Copy-2" transform="translate(491.000000, 731.000000)">
			<path id="Fill-6" fill="#003ABC" d="M6.001,30H24V9h3v22.5c0,0.828-0.67,1.5-1.498,1.5h-21C3.672,33,3,32.328,3,31.5V9h3.001V30z
				 M28.5,6H1.501C0.672,6,0,5.328,0,4.5S0.672,3,1.501,3h4.5V1.5C6.001,0.672,6.672,0,7.5,0h15C23.33,0,24,0.672,24,1.5V3h4.5
				C29.33,3,30,3.672,30,4.5S29.33,6,28.5,6L28.5,6z"/>
		</g>
	</g>
</g>
</svg>
