<svg width="20" height="20" viewBox="0 0 20 20" fill="none" xmlns="http://www.w3.org/2000/svg">
<path fill-rule="evenodd" clip-rule="evenodd" d="M16.0775 6.91084L18.9225 9.75584C19.0791 9.9125 19.1666 10.1242 19.1666 10.345V15C19.1666 15.46 18.7941 15.8333 18.3333 15.8333H17.2691C16.98 16.3292 16.4483 16.6667 15.8333 16.6667C14.9133 16.6667 14.1666 15.9208 14.1666 15C14.1666 14.0792 14.9133 13.3333 15.8333 13.3333C16.4483 13.3333 16.98 13.6708 17.2691 14.1667H17.5V11.6667H12.5V15C12.5 15.46 12.1266 15.8333 11.6666 15.8333H8.33331V14.1667H10.8333V5.83334H2.49998V14.1667H3.56415C3.85331 13.6708 4.38498 13.3333 4.99998 13.3333C5.92081 13.3333 6.66665 14.0792 6.66665 15C6.66665 15.9208 5.92081 16.6667 4.99998 16.6667C4.38498 16.6667 3.85331 16.3292 3.56415 15.8333H1.66665C1.20665 15.8333 0.833313 15.46 0.833313 15V5.00001C0.833313 4.54001 1.20665 4.16667 1.66665 4.16667H11.6666C12.1266 4.16667 12.5 4.54001 12.5 5.00001V6.66667H15.4883C15.7091 6.66667 15.9208 6.75417 16.0775 6.91084ZM12.5 8.33334V10H16.81L15.1433 8.33334H12.5Z" fill="#0F69FF"/>
</svg>
