<svg width="22" height="22" xmlns="http://www.w3.org/2000/svg"><g id="FUJICONS" stroke="none" stroke-width="1" fill="none" fill-rule="evenodd"><g id="compose" transform="translate(-1 -1)" fill="#999"><path d="M22.716 8.62l-7.351-7.355a1 1 0 0 0-1.414 0L1.293 13.931a.997.997 0 0 0-.293.707V22a1 1 0 0 0 1 1h7.353c.268 0 .525-.106.713-.295l12.65-12.658a1.021 1.021 0 0 0 0-1.428zM8.936 20.981H5.899L3.017 18.1v-3.04l7.695-7.7 5.918 5.922-7.694 7.7zm9.12-9.128l-5.918-5.92 2.52-2.523 5.919 5.922-2.521 2.521z" id="Fill-1"/></g></g></svg>