<svg width="160" height="104" xmlns="http://www.w3.org/2000/svg" xmlns:xlink="http://www.w3.org/1999/xlink"><defs><rect id="path-1" x="4.8" y="9.613" width="86.4" height="55.273" rx="3.6"/><filter x="-7.5%" y="-10%" width="115%" height="123.5%" filterUnits="objectBoundingBox" id="filter-2"><feOffset dy="1" in="SourceAlpha" result="shadowOffsetOuter1"/><feGaussianBlur stdDeviation="2" in="shadowOffsetOuter1" result="shadowBlurOuter1"/><feColorMatrix values="0 0 0 0 0.878431373 0 0 0 0 0.894117647 0 0 0 0 0.91372549 0 0 0 1 0" in="shadowBlurOuter1"/></filter><linearGradient x1="50%" y1="90.702%" x2="50%" y2="0%" id="linearGradient-3"><stop stop-color="#E0E4E9" offset="0%"/><stop stop-color="#D8DADE" offset="100%"/></linearGradient><path d="M15.556 12.444V1.556a1.556 1.556 0 0 0-3.112 0v10.888H1.556a1.556 1.556 0 0 0 0 3.112h10.888v10.888a1.555 1.555 0 1 0 3.112 0V15.556h10.888a1.556 1.556 0 0 0 0-3.112H15.556z" id="path-4"/><filter x="-51.8%" y="-41.1%" width="203.6%" height="203.6%" filterUnits="objectBoundingBox" id="filter-5"><feMorphology radius="4" operator="dilate" in="SourceAlpha" result="shadowSpreadOuter1"/><feOffset dy="3" in="shadowSpreadOuter1" result="shadowOffsetOuter1"/><feGaussianBlur stdDeviation="3" in="shadowOffsetOuter1" result="shadowBlurOuter1"/><feComposite in="shadowBlurOuter1" in2="SourceAlpha" operator="out" result="shadowBlurOuter1"/><feColorMatrix values="0 0 0 0 0 0 0 0 0 0 0 0 0 0 0 0 0 0 0.15 0" in="shadowBlurOuter1"/></filter><linearGradient x1="0%" y1="100%" x2="100%" y2="0%" id="linearGradient-6"><stop stop-color="#7282FB" offset="0%"/><stop stop-color="#755BF9" offset="68.714%"/><stop stop-color="#7934F7" offset="100%"/></linearGradient></defs><g id="Add-email" stroke="none" stroke-width="1" fill="none" fill-rule="evenodd"><path fill="#FFF" d="M0 0h160v104H0z"/><g id="Group-Copy" transform="translate(32 19)"><g id="envelope-back" transform="translate(0 .38)"><rect fill="#E0E4E9" width="96" height="37.249" rx="7.2"/><g id="envelope-inside"><use fill="#000" filter="url(#filter-2)" xlink:href="#path-1"/><use fill="#FFF" xlink:href="#path-1"/></g></g><g id="envelope-front" transform="translate(0 22.735)"><path d="M95.58 21.772L96 48.217H55.2a7.2 7.2 0 0 1-7.2-7.2V3.6A3.6 3.6 0 0 1 53.222.387L95.58 21.772z" id="Triangle-2-Copy" fill="#E0E4E9" transform="matrix(-1 0 0 1 144 0)"/><path d="M47.58 21.772L48 48.217H7.2a7.2 7.2 0 0 1-7.2-7.2V3.6A3.6 3.6 0 0 1 5.222.387L47.58 21.772z" id="Triangle-2-Copy-2" fill="#E0E4E9"/><path d="M92.4 47.336H3.6l40.599-24.193a7.465 7.465 0 0 1 7.602 0L92.4 47.336z" id="Triangle" fill="url(#linearGradient-3)"/></g></g><path d="M136.368 88.288c4.616 4.686 6.172 4.694 10.886.048-4.714 4.646-4.73 6.203-.116 10.884-4.614-4.68-6.172-4.692-10.884-.044 4.712-4.649 4.73-6.202.114-10.888z" id="Path-Copy-15" fill="#DFE2E8" transform="rotate(45 141.754 93.754)"/><path d="M147.642 46.84l-3.3 1.254v1.672c.001 2.125 1.323 4.018 3.3 4.725 1.976-.707 3.298-2.6 3.299-4.725v-1.672l-3.3-1.254z" id="Path-Copy-5" stroke="#DFE2E8" stroke-width="1.341"/><path d="M139.5 4l-2.5.95v1.267a3.796 3.796 0 0 0 2.5 3.58 3.796 3.796 0 0 0 2.5-3.58V4.95L139.5 4z" id="Path-Copy-7" stroke="#DFE2E8" stroke-width="1.341"/><path d="M20 22l-3 1.14v1.52c.001 1.932 1.203 3.654 3 4.297 1.797-.643 2.999-2.365 3-4.296v-1.52L20 22z" id="Path-Copy-8" stroke="#DFE2E8" stroke-width="1.341"/><path d="M146.406 74.307h.855c.743 0 1.345.598 1.345 1.094v-1.094c0 .604-.61 1.094-1.345 1.094h-.855v1.642a.55.55 0 0 1-1.1 0V75.4h-.854c-.743 0-1.345-.598-1.345-1.094V75.4c0-.604.61-1.094 1.345-1.094h.855v-1.642a.55.55 0 0 1 1.1 0v1.642z" id="Combined-Shape-Copy-6" fill="#DFE2E8" transform="rotate(39 145.857 74.854)"/><path d="M149.358 29.905h.5c.828 0 1.5.668 1.5 1.222v-1.222c0 .675-.674 1.222-1.5 1.222h-.5v1.391a.504.504 0 0 1-.5.498.494.494 0 0 1-.5-.498v-1.39h-.5c-.828 0-1.5-.67-1.5-1.223v1.222c0-.675.674-1.222 1.5-1.222h.5v-1.391c0-.275.232-.498.5-.498.276 0 .5.215.5.498v1.391z" id="Combined-Shape-Copy-7" fill="#DFE2E8" transform="rotate(39 148.858 30.516)"/><circle id="Oval-2-Copy-2" stroke="#E0E4E9" stroke-width="1.341" transform="scale(-1 1) rotate(-37 0 526.614)" cx="153.952" cy="66.499" r="2.012"/><circle id="Oval-2-Copy-3" stroke="#E0E4E9" stroke-width="1.341" transform="scale(-1 1) rotate(-37 0 78.41)" cx="10.391" cy="47.353" r="2.012"/><circle id="Oval-2-Copy-4" stroke="#E0E4E9" stroke-width="1.341" transform="scale(-1 1) rotate(-37 0 438.114)" cx="137.806" cy="26.255" r="2.012"/><path d="M23.513 89.133l-3.22 1.199v1.598a4.795 4.795 0 0 0 3.22 4.516 4.795 4.795 0 0 0 3.22-4.516v-1.598l-3.22-1.2z" id="Path-Copy-4" stroke="#DFE2E8" stroke-width="1.341"/><path d="M4.623 84.859c3.175 3.216 4.245 3.221 7.487.033-3.242 3.188-3.253 4.257-.08 7.47-3.173-3.213-4.245-3.22-7.486-.03 3.241-3.191 3.254-4.257.079-7.473z" id="Path-Copy-14" fill="#DFE2E8" transform="rotate(45 8.327 88.61)"/><path d="M21.665 56.017h.58c.743 0 1.345.592 1.345 1.34v-1.039c0 .74-.61 1.339-1.345 1.339h-.58v1.083c0 .458-.366.83-.825.83a.83.83 0 0 1-.824-.83v-1.083h-.58a1.337 1.337 0 0 1-1.345-1.339v1.038c0-.74.61-1.339 1.345-1.339h.58v-1.082c0-.459.366-.83.824-.83a.83.83 0 0 1 .825.83v1.082z" id="Combined-Shape" fill="#DFE2E8" transform="scale(-1 1) rotate(-37 0 119.123)"/><path d="M29.276 8.248h.58c.742 0 1.344.592 1.344 1.339V8.548c0 .74-.61 1.34-1.345 1.34h-.58v1.082c0 .458-.366.83-.824.83a.83.83 0 0 1-.825-.83V9.887h-.58a1.337 1.337 0 0 1-1.345-1.339v1.039c0-.74.61-1.34 1.345-1.34h.58V7.166c0-.458.366-.83.825-.83a.83.83 0 0 1 .825.83v1.083z" id="Combined-Shape-Copy" fill="#DFE2E8" transform="scale(-1 1) rotate(-37 0 94.098)"/><g id="Group" transform="translate(110 52)"><g id="+-shadow"><use fill="#000" filter="url(#filter-5)" xlink:href="#path-4"/><path stroke="#FFF" stroke-width="4" d="M14.444 13.556h-.888v.888h.888v-.888zm3.112-3.112h8.888a3.556 3.556 0 0 1 0 7.112h-8.888v8.888a3.556 3.556 0 0 1-7.112 0v-8.888H1.556a3.556 3.556 0 0 1 0-7.112h8.888V1.556a3.556 3.556 0 0 1 7.112 0v8.888z" fill="#FFF"/></g><path d="M15.556 12.444V1.556a1.556 1.556 0 0 0-3.112 0v10.888H1.556a1.556 1.556 0 0 0 0 3.112h10.888v10.888a1.555 1.555 0 1 0 3.112 0V15.556h10.888a1.556 1.556 0 0 0 0-3.112H15.556z" id="New-Copy-5" fill="url(#linearGradient-6)"/></g></g></svg>