<?xml version="1.0" encoding="UTF-8"?>
<svg width="54px" height="35px" viewBox="0 0 54 35" version="1.1" xmlns="http://www.w3.org/2000/svg" xmlns:xlink="http://www.w3.org/1999/xlink">
    <!-- Generator: Sketch 52.5 (67469) - http://www.bohemiancoding.com/sketch -->
    <title>Yahoo Email OTP </title>
    <desc>Created with Sketch.</desc>
    <defs>
        <filter x="-19.7%" y="-29.5%" width="139.4%" height="163.6%" filterUnits="objectBoundingBox" id="filter-1">
            <feOffset dx="0" dy="1" in="SourceAlpha" result="shadowOffsetOuter1"></feOffset>
            <feGaussianBlur stdDeviation="1" in="shadowOffsetOuter1" result="shadowBlurOuter1"></feGaussianBlur>
            <feColorMatrix values="0 0 0 0 0   0 0 0 0 0   0 0 0 0 0  0 0 0 0.15 0" type="matrix" in="shadowBlurOuter1" result="shadowMatrixOuter1"></feColorMatrix>
            <feMerge>
                <feMergeNode in="shadowMatrixOuter1"></feMergeNode>
                <feMergeNode in="SourceGraphic"></feMergeNode>
            </feMerge>
        </filter>
        <linearGradient x1="50%" y1="90.7019413%" x2="50%" y2="0%" id="linearGradient-2">
            <stop stop-color="#EEEFF1" offset="0%"></stop>
            <stop stop-color="#D8DADE" offset="100%"></stop>
        </linearGradient>
        <rect id="path-3" x="1.78021978" y="2.50354478" width="29.0460684" height="18.6408794" rx="1.07128135"></rect>
        <filter x="-5.2%" y="-8.0%" width="110.3%" height="116.1%" filterUnits="objectBoundingBox" id="filter-4">
            <feOffset dx="0" dy="0" in="SourceAlpha" result="shadowOffsetOuter1"></feOffset>
            <feGaussianBlur stdDeviation="0.5" in="shadowOffsetOuter1" result="shadowBlurOuter1"></feGaussianBlur>
            <feColorMatrix values="0 0 0 0 0.878431373   0 0 0 0 0.894117647   0 0 0 0 0.91372549  0 0 0 1 0" type="matrix" in="shadowBlurOuter1"></feColorMatrix>
        </filter>
        <filter x="-34.0%" y="-85.0%" width="168.0%" height="270.0%" filterUnits="objectBoundingBox" id="filter-5">
            <feOffset dx="0" dy="1" in="SourceAlpha" result="shadowOffsetOuter1"></feOffset>
            <feGaussianBlur stdDeviation="1" in="shadowOffsetOuter1" result="shadowBlurOuter1"></feGaussianBlur>
            <feColorMatrix values="0 0 0 0 0   0 0 0 0 0   0 0 0 0 0  0 0 0 0.15 0" type="matrix" in="shadowBlurOuter1" result="shadowMatrixOuter1"></feColorMatrix>
            <feMerge>
                <feMergeNode in="shadowMatrixOuter1"></feMergeNode>
                <feMergeNode in="SourceGraphic"></feMergeNode>
            </feMerge>
        </filter>
        <linearGradient x1="0%" y1="100%" x2="100%" y2="0%" id="linearGradient-6">
            <stop stop-color="#7282FB" offset="0%"></stop>
            <stop stop-color="#755BF9" offset="68.7141263%"></stop>
            <stop stop-color="#7934F7" offset="100%"></stop>
        </linearGradient>
        <filter x="-20.1%" y="-45.4%" width="142.0%" height="187.5%" filterUnits="objectBoundingBox" id="filter-7">
            <feOffset dx="0" dy="1" in="SourceAlpha" result="shadowOffsetOuter1"></feOffset>
            <feGaussianBlur stdDeviation="1" in="shadowOffsetOuter1" result="shadowBlurOuter1"></feGaussianBlur>
            <feColorMatrix values="0 0 0 0 0   0 0 0 0 0   0 0 0 0 0  0 0 0 0.15 0" type="matrix" in="shadowBlurOuter1" result="shadowMatrixOuter1"></feColorMatrix>
            <feMerge>
                <feMergeNode in="shadowMatrixOuter1"></feMergeNode>
                <feMergeNode in="SourceGraphic"></feMergeNode>
            </feMerge>
        </filter>
    </defs>
    <g id="Yahoo-Email-OTP-" stroke="none" stroke-width="1" fill="none" fill-rule="evenodd">
        <path d="M47.7118042,29.1222499 C49.2696204,30.7037737 49.7946865,30.7063608 51.3857577,29.1385462 C49.7946865,30.7063608 49.789394,31.2320577 51.34661,32.8117655 C49.789394,31.2320577 49.2634228,31.2282615 47.6732577,32.7969822 C49.2634237,31.2279585 49.2696204,30.7037737 47.7118042,29.1222499 Z" id="Path-Copy-15" fill="#DFE2E8" transform="translate(49.529508, 30.967008) rotate(-315.000000) translate(-49.529508, -30.967008) "></path>
        <path d="M49.78125,14.175 L48.6,14.6175613 L48.6,15.207643 C48.6004375,15.9573214 49.0737087,16.6253527 49.78125,16.875 C50.4887913,16.6253527 50.9620625,15.9573214 50.9625,15.207643 L50.9625,14.6175613 L49.78125,14.175 Z" id="Path-Copy-5" stroke="#DFE2E8" stroke-width="0.5"></path>
        <path d="M46.74375,1.35 L45.9,1.68192096 L45.9,2.12448224 C45.9003125,2.68674103 46.2383634,3.18776454 46.74375,3.375 C47.2491366,3.18776454 47.5871875,2.68674103 47.5875,2.12448224 L47.5875,1.68192096 L46.74375,1.35 Z" id="Path-Copy-7" stroke="#DFE2E8" stroke-width="0.5"></path>
        <path d="M6.4125,9.45 L5.4,9.83724112 L5.4,10.3535626 C5.40037503,11.0095312 5.80603604,11.5940586 6.4125,11.8125 C7.01896396,11.5940586 7.42462497,11.0095312 7.425,10.3535626 L7.425,9.83724112 L6.4125,9.45 Z" id="Path-Copy-8" stroke="#DFE2E8" stroke-width="0.5"></path>
        <path d="M49.0746708,24.0662759 L49.36778,24.0662759 C49.6159096,24.0662759 49.8170583,24.2679969 49.8170583,24.4351783 L49.8170583,24.0662759 C49.8170583,24.2700151 49.6184371,24.4351783 49.36778,24.4351783 L49.0746708,24.4351783 L49.0746708,24.9893809 C49.0746708,25.0907817 48.9885785,25.1729832 48.8890739,25.1729832 C48.7865716,25.1729832 48.703477,25.0937268 48.703477,24.9893809 L48.703477,24.4351783 L48.4103678,24.4351783 C48.1622382,24.4351783 47.9610895,24.2334573 47.9610895,24.0662759 L47.9610895,24.4351783 C47.9610895,24.2314391 48.1597107,24.0662759 48.4103678,24.0662759 L48.703477,24.0662759 L48.703477,23.5120733 C48.703477,23.4106726 48.7895693,23.328471 48.8890739,23.328471 C48.9915762,23.328471 49.0746708,23.4077274 49.0746708,23.5120733 L49.0746708,24.0662759 Z" id="Combined-Shape-Copy-6" fill="#DFE2E8" transform="translate(48.889074, 24.250727) rotate(39.000000) translate(-48.889074, -24.250727) "></path>
        <path d="M50.0707866,8.06795598 L50.248608,8.06795598 C50.5231922,8.06795598 50.7457866,8.29351675 50.7457866,8.48045598 L50.7457866,8.06795598 C50.7457866,8.29577344 50.5111469,8.48045598 50.248608,8.48045598 L50.0707866,8.48045598 L50.0707866,8.94998265 C50.0707866,9.04275176 49.992509,9.11795598 49.9020366,9.11795598 C49.8088385,9.11795598 49.7332866,9.04544622 49.7332866,8.94998265 L49.7332866,8.48045598 L49.5554651,8.48045598 C49.280881,8.48045598 49.0582866,8.25489522 49.0582866,8.06795598 L49.0582866,8.48045598 C49.0582866,8.25263853 49.2929262,8.06795598 49.5554651,8.06795598 L49.7332866,8.06795598 L49.7332866,7.59842932 C49.7332866,7.50566021 49.8115642,7.43045598 49.9020366,7.43045598 C49.9952346,7.43045598 50.0707866,7.50296575 50.0707866,7.59842932 L50.0707866,8.06795598 Z" id="Combined-Shape-Copy-7" fill="#DFE2E8" transform="translate(49.902037, 8.274206) rotate(39.000000) translate(-49.902037, -8.274206) "></path>
        <circle id="Oval-2-Copy-2" stroke="#E0E4E9" stroke-width="0.5" transform="translate(7.046545, 24.934045) scale(-1, 1) rotate(-37.000000) translate(-7.046545, -24.934045) " cx="7.04654544" cy="24.9340454" r="1"></circle>
        <circle id="Oval-2-Copy-3" stroke="#E0E4E9" stroke-width="0.5" transform="translate(3.169593, 16.319120) scale(-1, 1) rotate(-37.000000) translate(-3.169593, -16.319120) " cx="3.16959303" cy="16.3191202" r="1"></circle>
        <circle id="Oval-2-Copy-4" stroke="#E0E4E9" stroke-width="0.5" transform="translate(46.172032, 7.848693) scale(-1, 1) rotate(-37.000000) translate(-46.172032, -7.848693) " cx="46.1720321" cy="7.84869338" r="1"></circle>
        <path d="M7.7625,30.375 L6.75,30.7622411 L6.75,31.2785626 C6.75037503,31.9345312 7.15603604,32.5190586 7.7625,32.7375 C8.36896396,32.5190586 8.77462497,31.9345312 8.775,31.2785626 L8.775,30.7622411 L7.7625,30.375 Z" id="Path-Copy-4" stroke="#DFE2E8" stroke-width="0.5"></path>
        <path d="M1.22276477,28.9774174 C2.29420213,30.0627574 2.65533295,30.0645328 3.74964246,28.988601 C2.65533295,30.0645328 2.65169283,30.4252988 3.72271735,31.5093925 C2.65169283,30.4252988 2.28993947,30.4226936 1.19625316,31.4992473 C2.28994013,30.4224857 2.29420213,30.0627574 1.22276477,28.9774174 Z" id="Path-Copy-14" fill="#DFE2E8" transform="translate(2.472948, 30.243405) rotate(-315.000000) translate(-2.472948, -30.243405) "></path>
        <path d="M6.97454419,19.2433446 L7.17485499,19.2433446 C7.42298453,19.2433446 7.62413326,19.443118 7.62413326,19.6900061 L7.62413326,19.3500367 C7.62413326,19.5967211 7.42551209,19.7966982 7.17485499,19.7966982 L6.97454419,19.7966982 L6.97454419,20.1540725 C6.97454419,20.3132437 6.84540573,20.4422775 6.69614887,20.4422775 C6.54239538,20.4422775 6.41775355,20.3212539 6.41775355,20.1540725 L6.41775355,19.7966982 L6.21744274,19.7966982 C5.9693132,19.7966982 5.76816447,19.5969249 5.76816447,19.3500367 L5.76816447,19.6900061 C5.76816447,19.4433218 5.96678564,19.2433446 6.21744274,19.2433446 L6.41775355,19.2433446 L6.41775355,18.8859704 C6.41775355,18.7267991 6.546892,18.5977653 6.69614887,18.5977653 C6.84990236,18.5977653 6.97454419,18.7187889 6.97454419,18.8859704 L6.97454419,19.2433446 Z" id="Combined-Shape" fill="#DFE2E8" transform="translate(6.696149, 19.520021) scale(-1, 1) rotate(-37.000000) translate(-6.696149, -19.520021) "></path>
        <path d="M9.5430186,2.44610228 L9.74332941,2.44610228 C9.99145895,2.44610228 10.1926077,2.64587565 10.1926077,2.89276379 L10.1926077,2.55279443 C10.1926077,2.79947877 9.99398651,2.99945594 9.74332941,2.99945594 L9.5430186,2.99945594 L9.5430186,3.35683018 C9.5430186,3.51600142 9.41388015,3.64503521 9.26462328,3.64503521 C9.11086979,3.64503521 8.98622796,3.52401161 8.98622796,3.35683018 L8.98622796,2.99945594 L8.78591716,2.99945594 C8.53778762,2.99945594 8.33663889,2.79968257 8.33663889,2.55279443 L8.33663889,2.89276379 C8.33663889,2.64607945 8.53526006,2.44610228 8.78591716,2.44610228 L8.98622796,2.44610228 L8.98622796,2.08872805 C8.98622796,1.9295568 9.11536642,1.80052301 9.26462328,1.80052301 C9.41837677,1.80052301 9.5430186,1.92154661 9.5430186,2.08872805 L9.5430186,2.44610228 Z" id="Combined-Shape-Copy" fill="#DFE2E8" transform="translate(9.264623, 2.722779) scale(-1, 1) rotate(-37.000000) translate(-9.264623, -2.722779) "></path>
        <g id="envelop" filter="url(#filter-1)" transform="translate(10.800000, 8.437500)">
            <g id="envelope-back">
                <rect fill="url(#linearGradient-2)" x="0" y="0" width="32.2734093" height="12.5623317" rx="2.14256269"></rect>
                <g id="envelope-inside">
                    <use fill="black" fill-opacity="1" filter="url(#filter-4)" xlink:href="#path-3"></use>
                    <use fill="#FFFFFF" fill-rule="evenodd" xlink:href="#path-3"></use>
                </g>
            </g>
        </g>
        <g id="message" transform="translate(14.512500, 3.375000)">
            <g filter="url(#filter-5)" transform="translate(0.263857, 0.000000)" fill="url(#linearGradient-6)" id="Rectangle-2-Copy-7" stroke="#FFFFFF" stroke-width="1.39266575">
                <g>
                    <g>
                        <rect x="-0.696332875" y="-0.696332875" width="26.0723146" height="11.1617516" rx="0.928443834"></rect>
                    </g>
                </g>
            </g>
            <path d="M12.8930812,2.51182406 C12.8930812,2.83585858 12.6514358,3.09851609 12.3529521,3.09851609 C12.0548008,3.09851609 11.8128229,2.83585858 11.8128229,2.51182406 C11.8128229,2.18778955 12.0548008,1.92513204 12.3529521,1.92513204 C12.6514358,1.92513204 12.8930812,2.18778955 12.8930812,2.51182406 M11.2726937,4.03387367 C11.2820829,3.90642611 11.3463894,3.78854614 11.4516183,3.68745459 C11.4750025,3.66507004 11.4976781,3.64214392 11.5249597,3.62156457 C11.7361261,3.46144277 12.0585446,3.3592681 12.4204682,3.3592681 C12.7823919,3.3592681 13.1048104,3.46144277 13.3159768,3.62156457 C13.3432584,3.64214392 13.3659339,3.66507004 13.3893181,3.68745459 C13.494547,3.78854614 13.5588536,3.90642611 13.5682427,4.03387367 C13.2823177,4.33660675 12.8833691,4.52687549 12.4408408,4.53265215 L12.4000956,4.53265215 C11.9575674,4.52687549 11.5586187,4.33660675 11.2726937,4.03387367 M10.4625,2.90295208 C10.4625,3.94699721 11.308907,4.79340416 12.3529521,4.79340416 C13.3969972,4.79340416 14.2434042,3.94699721 14.2434042,2.90295208 C14.2434042,1.85890695 13.3969972,1.0125 12.3529521,1.0125 C11.308907,1.0125 10.4625,1.85890695 10.4625,2.90295208 Z" id="Fill-1" fill-opacity="0.6" fill="#FFFFFF"></path>
        </g>
        <g id="envelope-front" transform="translate(10.800000, 16.069257)" fill="url(#linearGradient-2)">
            <g id="Group" filter="url(#filter-7)">
                <path d="M15.9956661,7.35859213 L16.1367046,16.2771968 L2.14256269,16.2771968 C0.959257992,16.2771968 2.55052119e-13,15.3179388 2.54907206e-13,14.1346341 L2.56017429e-13,1.00068039 C2.55944973e-13,0.409028042 0.479628996,-0.0706009538 1.07128135,-0.0706009538 C1.23946139,-0.0706009538 1.40527891,-0.0310045782 1.55531341,0.0449834278 L15.9956661,7.35859213 Z" id="Triangle-2"></path>
                <path d="M32.1323707,7.35859213 L32.2734093,16.2771968 L18.2792673,16.2771968 C17.0959626,16.2771968 16.1367046,15.3179388 16.1367046,14.1346341 L16.1367046,1.00068039 C16.1367046,0.409028042 16.6163336,-0.0706009538 17.207986,-0.0706009538 C17.376166,-0.0706009538 17.5419836,-0.0310045782 17.692018,0.0449834278 L32.1323707,7.35859213 Z" id="Triangle-2-Copy" transform="translate(24.205057, 8.146601) scale(-1, 1) translate(-24.205057, -8.146601) "></path>
                <path d="M31.0631564,15.8719603 L1.21025285,15.8719603 L14.8588371,7.7128201 C15.6413189,7.2450515 16.6320903,7.2450515 17.4145722,7.7128201 L31.0631564,15.8719603 Z" id="Triangle"></path>
            </g>
        </g>
        <g id="Group-2" transform="translate(20.000000, 9.000000)" fill="#FFFFFF" opacity="0.6">
            <path d="M1.93778232,1.55472335 C2.0663257,1.49367409 2.18730769,1.43262483 2.304509,1.37157557 C2.42171031,1.31052632 2.51370704,1.26636302 2.58175941,1.23778677 C2.64981178,1.20921053 2.70526187,1.1949224 2.74684943,1.1949224 C2.81616203,1.1949224 2.8753928,1.21830297 2.92580196,1.26636302 C2.97621113,1.31442308 3.00141571,1.37287449 3.00141571,1.44431511 C3.00141571,1.48458165 2.98881342,1.52744602 2.96486907,1.57031039 C2.94092471,1.61317476 2.9144599,1.64175101 2.88673486,1.6534413 C2.63216858,1.75735493 2.35365794,1.83139339 2.04742226,1.87815452 C2.10287234,1.93141026 2.17092471,2.00155196 2.25157938,2.08857962 C2.33223404,2.17560729 2.37508183,2.22236842 2.37886252,2.22886302 C2.40784779,2.2717274 2.44943535,2.32368421 2.50236498,2.38733131 C2.5552946,2.45097841 2.59184124,2.49903846 2.61326514,2.53540823 C2.63468903,2.571778 2.64477087,2.61464238 2.64477087,2.66530027 C2.64477087,2.73024629 2.62082651,2.78739879 2.57419804,2.83545884 C2.52756956,2.88351889 2.46581833,2.90819838 2.39146481,2.90819838 C2.31711129,2.90819838 2.23267594,2.84844804 2.13941899,2.72894737 C2.04616203,2.60944669 1.92518003,2.39382591 1.77773322,2.08338394 C1.62776596,2.36395074 1.52820786,2.54839744 1.47653846,2.63802294 C1.42486907,2.72764845 1.37572013,2.79519231 1.32909165,2.84065452 C1.28246318,2.88611673 1.22827332,2.9094973 1.16652209,2.9094973 C1.09342881,2.9094973 1.03293781,2.88351889 0.9850491,2.83156208 C0.937160393,2.77960526 0.913216039,2.72505061 0.913216039,2.66530027 C0.913216039,2.61074561 0.923297872,2.56918016 0.942201309,2.54060391 C1.1236743,2.28731444 1.31270867,2.06649798 1.50930442,1.87945344 C1.3442144,1.85347503 1.19676759,1.82359987 1.06570376,1.79112686 C0.935900164,1.75865385 0.798535188,1.71059379 0.652348609,1.64824561 C0.628404255,1.63655533 0.605720131,1.60797908 0.583036007,1.56511471 C0.560351882,1.52225034 0.54900982,1.48198381 0.54900982,1.44431511 C0.54900982,1.37287449 0.574214403,1.31442308 0.624623568,1.26636302 C0.675032733,1.21830297 0.733003273,1.1949224 0.797274959,1.1949224 C0.845163666,1.1949224 0.903134206,1.20921053 0.974967267,1.2390857 C1.04680033,1.26896086 1.1362766,1.31052632 1.2446563,1.36637989 C1.35303601,1.42223347 1.47905892,1.48458165 1.61768412,1.55342443 C1.59247954,1.42613023 1.57105565,1.27935223 1.55467267,1.11309042 C1.53828969,0.94682861 1.52946809,0.835121457 1.52946809,0.7740722 C1.52946809,0.698734818 1.55215221,0.635087719 1.59878069,0.580533063 C1.64540917,0.525978408 1.70463993,0.5 1.77773322,0.5 C1.84830606,0.5 1.90753682,0.527277328 1.95290507,0.580533063 C1.99827332,0.633788799 2.02221768,0.70522942 2.02221768,0.794854926 C2.02221768,0.819534413 2.01843699,0.867594467 2.01213584,0.939035088 C2.0058347,1.01047571 1.99575286,1.09880229 1.98315057,1.201417 C1.97054828,1.30403171 1.95290507,1.42223347 1.93778232,1.55472335 Z" id="Path"></path>
            <path d="M5.57892799,1.55472335 C5.70747136,1.49367409 5.82845336,1.43262483 5.94565466,1.37157557 C6.06285597,1.31052632 6.1548527,1.26636302 6.22290507,1.23778677 C6.29095745,1.20921053 6.34640753,1.1949224 6.38799509,1.1949224 C6.45730769,1.1949224 6.51653846,1.21830297 6.56694763,1.26636302 C6.61735679,1.31442308 6.64256137,1.37287449 6.64256137,1.44431511 C6.64256137,1.48458165 6.62995908,1.52744602 6.60601473,1.57031039 C6.58207038,1.61317476 6.55560556,1.64175101 6.52788052,1.6534413 C6.27331424,1.75735493 5.9948036,1.83139339 5.68856792,1.87815452 C5.744018,1.93141026 5.81207038,2.00155196 5.89272504,2.08857962 C5.97337971,2.17560729 6.0162275,2.22236842 6.02000818,2.22886302 C6.04899345,2.2717274 6.09058101,2.32368421 6.14351064,2.38733131 C6.19644026,2.45097841 6.23298691,2.49903846 6.2544108,2.53540823 C6.2758347,2.571778 6.28591653,2.61464238 6.28591653,2.66530027 C6.28591653,2.73024629 6.26197218,2.78739879 6.2153437,2.83545884 C6.16871522,2.88351889 6.10696399,2.90819838 6.03261047,2.90819838 C5.95825696,2.90819838 5.8738216,2.84844804 5.78056465,2.72894737 C5.68730769,2.60944669 5.5663257,2.39382591 5.41887889,2.08338394 C5.26891162,2.36395074 5.16935352,2.54839744 5.11768412,2.63802294 C5.06601473,2.72764845 5.01686579,2.79519231 4.97023732,2.84065452 C4.92360884,2.88611673 4.86941899,2.9094973 4.80766776,2.9094973 C4.73457447,2.9094973 4.67408347,2.88351889 4.62619476,2.83156208 C4.57830606,2.77960526 4.5543617,2.72505061 4.5543617,2.66530027 C4.5543617,2.61074561 4.56444354,2.56918016 4.58334697,2.54060391 C4.76481997,2.28731444 4.95385434,2.06649798 5.15045008,1.87945344 C4.98536007,1.85347503 4.83791326,1.82359987 4.70684943,1.79112686 C4.57704583,1.75865385 4.43968085,1.71059379 4.29349427,1.64824561 C4.26954992,1.63655533 4.24686579,1.60797908 4.22418167,1.56511471 C4.20149755,1.52225034 4.19015548,1.48198381 4.19015548,1.44431511 C4.19015548,1.37287449 4.21536007,1.31442308 4.26576923,1.26636302 C4.3161784,1.21830297 4.37414894,1.1949224 4.43842062,1.1949224 C4.48630933,1.1949224 4.54427987,1.20921053 4.61611293,1.2390857 C4.68794599,1.26896086 4.77742226,1.31052632 4.88580196,1.36637989 C4.99418167,1.42223347 5.12020458,1.48458165 5.25882979,1.55342443 C5.2336252,1.42613023 5.21220131,1.27935223 5.19581833,1.11309042 C5.17943535,0.94682861 5.17061375,0.835121457 5.17061375,0.7740722 C5.17061375,0.698734818 5.19329787,0.635087719 5.23992635,0.580533063 C5.28655483,0.525978408 5.3457856,0.5 5.41887889,0.5 C5.48945172,0.5 5.54868249,0.527277328 5.59405074,0.580533063 C5.63941899,0.633788799 5.66336334,0.70522942 5.66336334,0.794854926 C5.66336334,0.819534413 5.65958265,0.867594467 5.65328151,0.939035088 C5.64698036,1.01047571 5.63689853,1.09880229 5.62429624,1.201417 C5.61169394,1.30403171 5.59405074,1.42223347 5.57892799,1.55472335 Z" id="Path"></path>
            <path d="M9.22007365,1.55472335 C9.34861702,1.49367409 9.46959902,1.43262483 9.58680033,1.37157557 C9.70400164,1.31052632 9.79599836,1.26636302 9.86405074,1.23778677 C9.93210311,1.20921053 9.98755319,1.1949224 10.0291408,1.1949224 C10.0984534,1.1949224 10.1576841,1.21830297 10.2080933,1.26636302 C10.2585025,1.31442308 10.283707,1.37287449 10.283707,1.44431511 C10.283707,1.48458165 10.2711047,1.52744602 10.2471604,1.57031039 C10.223216,1.61317476 10.1967512,1.64175101 10.1690262,1.6534413 C9.9144599,1.75735493 9.63594926,1.83139339 9.32971358,1.87815452 C9.38516367,1.93141026 9.45321604,2.00155196 9.5338707,2.08857962 C9.61452537,2.17560729 9.65737316,2.22236842 9.66115385,2.22886302 C9.69013912,2.2717274 9.73172668,2.32368421 9.7846563,2.38733131 C9.83758592,2.45097841 9.87413257,2.49903846 9.89555646,2.53540823 C9.91698036,2.571778 9.92706219,2.61464238 9.92706219,2.66530027 C9.92706219,2.73024629 9.90311784,2.78739879 9.85648936,2.83545884 C9.80986088,2.88351889 9.74810966,2.90819838 9.67375614,2.90819838 C9.59940262,2.90819838 9.51496727,2.84844804 9.42171031,2.72894737 C9.32845336,2.60944669 9.20747136,2.39382591 9.06002455,2.08338394 C8.91005728,2.36395074 8.81049918,2.54839744 8.75882979,2.63802294 C8.70716039,2.72764845 8.65801146,2.79519231 8.61138298,2.84065452 C8.5647545,2.88611673 8.51056465,2.9094973 8.44881342,2.9094973 C8.37572013,2.9094973 8.31522913,2.88351889 8.26734043,2.83156208 C8.21945172,2.77960526 8.19550736,2.72505061 8.19550736,2.66530027 C8.19550736,2.61074561 8.2055892,2.56918016 8.22449264,2.54060391 C8.40596563,2.28731444 8.595,2.06649798 8.79159574,1.87945344 C8.62650573,1.85347503 8.47905892,1.82359987 8.34799509,1.79112686 C8.21819149,1.75865385 8.08082651,1.71059379 7.93463993,1.64824561 C7.91069558,1.63655533 7.88801146,1.60797908 7.86532733,1.56511471 C7.84264321,1.52225034 7.83130115,1.48198381 7.83130115,1.44431511 C7.83130115,1.37287449 7.85650573,1.31442308 7.90691489,1.26636302 C7.95732406,1.21830297 8.0152946,1.1949224 8.07956628,1.1949224 C8.12745499,1.1949224 8.18542553,1.20921053 8.25725859,1.2390857 C8.32909165,1.26896086 8.41856792,1.31052632 8.52694763,1.36637989 C8.63532733,1.42223347 8.76135025,1.48458165 8.89997545,1.55342443 C8.87477087,1.42613023 8.85334697,1.27935223 8.83696399,1.11309042 C8.82058101,0.94682861 8.81175941,0.835121457 8.81175941,0.7740722 C8.81175941,0.698734818 8.83444354,0.635087719 8.88107201,0.580533063 C8.92770049,0.525978408 8.98693126,0.5 9.06002455,0.5 C9.13059738,0.5 9.18982815,0.527277328 9.2351964,0.580533063 C9.28056465,0.633788799 9.304509,0.70522942 9.304509,0.794854926 C9.304509,0.819534413 9.30072831,0.867594467 9.29442717,0.939035088 C9.28812602,1.01047571 9.27804419,1.09880229 9.2654419,1.201417 C9.25283961,1.30403171 9.23645663,1.42223347 9.22007365,1.55472335 Z" id="Path"></path>
            <path d="M12.8624795,1.55472335 C12.9910229,1.49367409 13.1120049,1.43262483 13.2292062,1.37157557 C13.3464075,1.31052632 13.4384043,1.26636302 13.5064566,1.23778677 C13.574509,1.20921053 13.6299591,1.1949224 13.6715466,1.1949224 C13.7408592,1.1949224 13.80009,1.21830297 13.8504992,1.26636302 C13.9009083,1.31442308 13.9261129,1.37287449 13.9261129,1.44431511 C13.9261129,1.48458165 13.9135106,1.52744602 13.8895663,1.57031039 C13.8656219,1.61317476 13.8391571,1.64175101 13.8114321,1.6534413 C13.5568658,1.75735493 13.2770949,1.83139339 12.9721195,1.87815452 C13.0275696,1.93141026 13.0956219,2.00155196 13.1762766,2.08857962 C13.2569313,2.17560729 13.2997791,2.22236842 13.3035597,2.22886302 C13.332545,2.2717274 13.3741326,2.32368421 13.4270622,2.38733131 C13.4799918,2.45097841 13.5165385,2.49903846 13.5379624,2.53540823 C13.5593863,2.571778 13.5694681,2.61464238 13.5694681,2.66530027 C13.5694681,2.73024629 13.5455237,2.78739879 13.4988953,2.83545884 C13.4522668,2.88351889 13.3905155,2.90819838 13.316162,2.90819838 C13.2418085,2.90819838 13.1573732,2.84844804 13.0641162,2.72894737 C12.9708592,2.60944669 12.8498773,2.39382591 12.7024304,2.08338394 C12.5524632,2.36395074 12.4529051,2.54839744 12.4012357,2.63802294 C12.3495663,2.72764845 12.3004173,2.79519231 12.2537889,2.84065452 C12.2071604,2.88611673 12.1529705,2.9094973 12.0912193,2.9094973 C12.018126,2.9094973 11.957635,2.88351889 11.9097463,2.83156208 C11.8618576,2.77960526 11.8379133,2.72505061 11.8379133,2.66530027 C11.8379133,2.61074561 11.8479951,2.56918016 11.8668985,2.54060391 C12.0483715,2.28731444 12.2374059,2.06649798 12.4340016,1.87945344 C12.2689116,1.85347503 12.1214648,1.82359987 11.990401,1.79112686 C11.8605974,1.75865385 11.7232324,1.71059379 11.5770458,1.64824561 C11.5531015,1.63655533 11.5304173,1.60797908 11.5077332,1.56511471 C11.4850491,1.52225034 11.473707,1.48198381 11.473707,1.44431511 C11.473707,1.37287449 11.4989116,1.31442308 11.5493208,1.26636302 C11.59973,1.21830297 11.6577005,1.1949224 11.7219722,1.1949224 C11.7698609,1.1949224 11.8278314,1.20921053 11.8996645,1.2390857 C11.9714975,1.26896086 12.0609738,1.31052632 12.1693535,1.36637989 C12.2777332,1.42223347 12.4037561,1.48458165 12.5423813,1.55342443 C12.5171768,1.42613023 12.4957529,1.27935223 12.4793699,1.11309042 C12.4629869,0.94682861 12.4541653,0.835121457 12.4541653,0.7740722 C12.4541653,0.698734818 12.4768494,0.635087719 12.5234779,0.580533063 C12.5701064,0.525978408 12.6293372,0.5 12.7024304,0.5 C12.7730033,0.5 12.832234,0.527277328 12.8776023,0.580533063 C12.9229705,0.633788799 12.9469149,0.70522942 12.9469149,0.794854926 C12.9469149,0.819534413 12.9431342,0.867594467 12.9368331,0.939035088 C12.9305319,1.01047571 12.9204501,1.09880229 12.9078478,1.201417 C12.8952455,1.30403171 12.8776023,1.42223347 12.8624795,1.55472335 Z" id="Path"></path>
        </g>
    </g>
</svg>