<?xml version="1.0" encoding="UTF-8"?>
<svg width="63px" height="60px" viewBox="0 0 63 60" version="1.1" xmlns="http://www.w3.org/2000/svg" xmlns:xlink="http://www.w3.org/1999/xlink">
    <title>Group 5</title>
    <g id="Page-1" stroke="none" stroke-width="1" fill="none" fill-rule="evenodd">
        <g id="Verfy-email-with-link-recovery-flow-semail" transform="translate(-129.000000, -199.000000)">
            <g id="Group-5" transform="translate(129.000000, 202.000000)">
                <g id="Group" transform="translate(0.000000, 9.800000)" fill="#E0E4E9">
                    <path d="M58.7808433,-6.95381912e-13 C61.0722524,-6.95802837e-13 62.9298064,1.85755408 62.9298064,4.14896316 L62.9298064,20.0647284 C62.9298064,21.8916175 61.7490493,23.442726 60.1090525,23.9965364 L60.10807,6.90002372 C60.10807,5.75431918 59.179293,4.82554214 58.0335885,4.82554214 L58.0335885,4.82554214 L5.54572582,4.82554214 C4.40002128,4.82554214 3.47124424,5.75431918 3.47124424,6.90002372 L3.47124424,6.90002372 L3.47135445,24.1586316 C1.5022658,23.8351655 -8.82929562e-14,22.1253834 -8.77465784e-14,20.0647284 L-8.77465784e-14,4.14896316 C-8.80271951e-14,1.85755408 1.85755408,-6.94960987e-13 4.14896316,-6.95381912e-13 L58.7808433,-6.95381912e-13 Z" id="Combined-Shape"></path>
                    <path d="M31.1898926,28.8936562 L31.4649032,46.0841227 L4.14896316,46.0841227 C1.85755408,46.0841227 2.16468781e-13,44.2265686 2.12635451e-13,41.9351596 L2.12635451e-13,16.6370057 C2.13383321e-13,15.4913011 0.92877704,14.5625241 2.07448158,14.5625241 C2.39689832,14.5625241 2.71487709,14.6376758 3.00318053,14.7820146 L31.1898926,28.8936562 L31.1898926,28.8936562 Z" id="Triangle-2"></path>
                    <path d="M62.6547958,28.8936562 L62.9298064,46.0841227 L35.6138664,46.0841227 C33.3224573,46.0841227 31.4649032,44.2265686 31.4649032,41.9351596 L31.4649032,16.6370057 C31.4649032,15.4913011 32.3936803,14.5625241 33.5393848,14.5625241 C33.8618015,14.5625241 34.1797803,14.6376758 34.4680838,14.7820146 L62.6547958,28.8936562 L62.6547958,28.8936562 Z" id="Triangle-2-Copy" transform="translate(47.197355, 30.412530) scale(-1, 1) translate(-47.197355, -30.412530) "></path>
                    <path d="M58.8,46.088 L3.32508659,46.0409835 L28.9731938,29.5764249 C30.4989524,28.6748084 32.430854,28.6748084 33.9566126,29.5764249 L58.8,46.088 Z" id="Triangle"></path>
                </g>
                <g id="Group-3" transform="translate(21.000000, 0.000000)">
                    <g id="Group-2" fill="#1AC567" stroke="#FFFFFF" stroke-width="2.03831418">
                        <g id="Group-4">
                            <g id="Group-16-Copy-3">
                                <g id="Group-16-Copy-2">
                                    <rect id="Rectangle-2-Copy-6" x="-1.01915709" y="-1.01915709" width="24.107895" height="24.2711792" rx="12.0539475"></rect>
                                </g>
                            </g>
                        </g>
                    </g>
                    <path d="M16.0239169,5.6410127 L4.55019623,10.2824102 C4.34039137,10.3672472 4.20229552,10.5699601 4.20005461,10.7961922 C4.19781371,11.0224243 4.33198798,11.2276571 4.54067238,11.316414 C4.54067238,11.316414 7.20068957,12.4503513 8.53069816,13.0173199 C9.14376942,12.426649 11.1270385,10.5417741 11.1270385,10.5417741 L11.8881331,11.3636656 C11.8881331,11.3636656 10.839887,12.3418435 9.35148403,13.7999489 C9.92874889,15.1531343 11.0832786,17.8595049 11.0832786,17.8595049 C11.1712342,18.0661377 11.3743163,18.199973 11.5986871,18.199973 L11.6037291,18.199973 C11.8300607,18.1977331 12.0331428,18.0596979 12.117737,17.8499853 L16.7614552,6.38130679 C16.8359654,6.19763322 16.7992705,5.97728093 16.6788218,5.81964645 C16.5258799,5.61945346 16.2572513,5.54637602 16.0239169,5.6410127 Z" id="Sent" fill="#FFFFFF"></path>
                </g>
            </g>
        </g>
    </g>
</svg>