<?xml version="1.0" encoding="UTF-8"?>
<svg width="64px" height="57px" viewBox="0 0 64 57" version="1.1" xmlns="http://www.w3.org/2000/svg" xmlns:xlink="http://www.w3.org/1999/xlink">
    <title>Group 8</title>
    <defs>
        <linearGradient x1="0%" y1="57.5050532%" x2="100%" y2="42.4949468%" id="linearGradient-1">
            <stop stop-color="#7282FB" offset="0%"></stop>
            <stop stop-color="#755BF9" offset="68.7141263%"></stop>
            <stop stop-color="#7934F7" offset="100%"></stop>
        </linearGradient>
        <linearGradient x1="0%" y1="97.8987157%" x2="100%" y2="2.10128427%" id="linearGradient-2">
            <stop stop-color="#7282FB" offset="0%"></stop>
            <stop stop-color="#755BF9" offset="68.7141263%"></stop>
            <stop stop-color="#7934F7" offset="100%"></stop>
        </linearGradient>
    </defs>
    <g id="Page-1" stroke="none" stroke-width="1" fill="none" fill-rule="evenodd">
        <g id="Verfy-email-with-link-recovery-flow-Copy-2" transform="translate(-129.000000, -221.000000)">
            <g id="Group-8" transform="translate(129.000000, 221.000000)">
                <path d="M5.5,9.818 L5.5,14.679 L5.47951792,14.680256 C4.43781828,14.7572693 3.60655137,15.5907337 3.53297935,16.633387 L3.52768251,16.784046 L3.52740807,34.1271601 C1.52631801,33.7970941 -3.10916633e-12,32.0589916 -3.10862447e-12,29.9643983 L-3.10862447e-12,14.0379874 C-3.10890984e-12,11.7077873 1.88900035,9.81878698 4.21920038,9.81878698 L5.5,9.818 Z M59.7337692,9.81878698 C62.0639692,9.81878698 63.9529696,11.7077873 63.9529696,14.0379874 L63.9529696,29.9643983 C63.9529696,31.8217559 62.7528164,33.3988027 61.0856986,33.96235 L61.0853551,16.784046 C61.0853551,15.6696025 60.2211999,14.7569933 59.126414,14.6797427 L58.9757549,14.6744458 L58.42,14.674 L58.42,9.818 L59.7337692,9.81878698 Z M56.42,9.818 L56.42,14.674 L7.5,14.674 L7.5,9.818 L56.42,9.818 Z" id="Combined-Shape" fill="#E0E4E9"></path>
                <g id="envelope-front" transform="translate(0.000000, 23.966097)" fill="#E0E4E9">
                    <path d="M31.6970028,14.9266744 L31.9764848,32.2244284 L4.21920038,32.2244284 C1.88900035,32.2244284 -6.02811219e-16,30.335428 0,28.005228 L0,2.61437054 C-1.03086202e-15,1.44927053 0.944500177,0.504770351 2.10960019,0.504770351 C2.43465729,0.504770351 2.75531758,0.57988679 3.04655512,0.724257205 L31.6970028,14.9266744 L31.6970028,14.9266744 Z" id="Triangle-2"></path>
                    <path d="M63.6734876,14.9266744 L63.9529696,32.2244284 L36.1956852,32.2244284 C33.8654851,32.2244284 31.9764848,30.335428 31.9764848,28.005228 L31.9764848,2.61437054 C31.9764848,1.44927053 32.920985,0.504770351 34.086085,0.504770351 C34.4111421,0.504770351 34.7318024,0.57988679 35.0230399,0.724257205 L63.6734876,14.9266744 L63.6734876,14.9266744 Z" id="Triangle-2-Copy" transform="translate(47.964727, 16.455028) scale(-1, 1) translate(-47.964727, -16.455028) "></path>
                    <path d="M61.5547332,31.4384667 L2.39823636,31.4384667 L29.4442632,15.6137043 C30.9948288,14.7064608 32.9581408,14.7064608 34.5087064,15.6137043 L61.5547332,31.4384667 Z" id="Triangle"></path>
                </g>
                <g id="Group-5" transform="translate(5.500000, 0.000000)">
                    <g id="Group-3">
                        <g id="Group-2" transform="translate(1.476688, 0.000000)">
                            <g id="Group-25-Copy" transform="translate(0.522859, 0.000000)">
                                <g id="Group">
                                    <g id="Group-24" transform="translate(0.000000, -0.000000)" fill="url(#linearGradient-1)">
                                        <rect id="Rectangle-2-Copy-7" x="0" y="0" width="48.9051781" height="18.9472738" rx="1.82832016"></rect>
                                    </g>
                                    <path d="M25.5489225,4.87171663 C25.5489225,5.50018594 25.070078,6.00961372 24.4786029,6.00961372 C23.8877864,6.00961372 23.4082832,5.50018594 23.4082832,4.87171663 C23.4082832,4.24324731 23.8877864,3.73381954 24.4786029,3.73381954 C25.070078,3.73381954 25.5489225,4.24324731 25.5489225,4.87171663 M22.3379636,7.82375235 C22.356569,7.57656609 22.4839988,7.34793631 22.6925204,7.15186788 C22.7388585,7.10845273 22.7837924,7.06398722 22.8378535,7.02407329 C23.2563008,6.71351491 23.8952051,6.51534576 24.6123928,6.51534576 C25.3295805,6.51534576 25.9684848,6.71351491 26.3869321,7.02407329 C26.4409932,7.06398722 26.4859271,7.10845273 26.5322653,7.15186788 C26.7407868,7.34793631 26.8682166,7.57656609 26.8868221,7.82375235 C26.3202333,8.41090725 25.5296769,8.77993603 24.6527631,8.79113994 L24.5720225,8.79113994 C23.6951087,8.77993603 22.9045523,8.41090725 22.3379636,7.82375235 M20.7324841,5.63031469 C20.7324841,7.65525428 22.4097236,9.29687198 24.4786029,9.29687198 C26.5474821,9.29687198 28.2247216,7.65525428 28.2247216,5.63031469 C28.2247216,3.60537509 26.5474821,1.9637574 24.4786029,1.9637574 C22.4097236,1.9637574 20.7324841,3.60537509 20.7324841,5.63031469 Z" id="Fill-1" fill-opacity="0.6" fill="#FFFFFF"></path>
                                </g>
                            </g>
                        </g>
                    </g>
                    <g id="Group-7" transform="translate(18.865223, 11.782544)">
                        <g id="Group-6" fill="#F1F1F5" stroke="#FFFFFF" stroke-width="1.32923077">
                            <g id="Group-2">
                                <g id="Group-4">
                                    <g id="Group-16-Copy-3">
                                        <g id="Group-16-Copy-2">
                                            <rect id="Rectangle-2-Copy-6" x="-0.664615385" y="-0.664615385" width="15.8116996" height="15.6089899" rx="7.80449494"></rect>
                                        </g>
                                    </g>
                                </g>
                            </g>
                        </g>
                        <path d="M6.09088363,9.79237544 C5.67882044,10.2158806 5.00227334,10.2025694 4.60691081,9.75139107 C4.23642885,9.32858648 4.29436991,8.66653125 4.68564249,8.2640437 L6.33185027,6.57247507 C6.73130276,6.16193076 7.3785385,6.16193076 7.77799099,6.57247507 C7.9109146,6.70908964 8.12665984,6.70908964 8.25992428,6.57247507 C8.39318872,6.4355102 8.39318872,6.21377424 8.25992428,6.07680938 C7.59428374,5.39303593 6.51555752,5.39303593 5.84991698,6.07680938 L4.21461575,7.7575189 C3.58510316,8.4045115 3.48353589,9.45504253 4.0503358,10.1601839 C4.70029817,10.9693625 5.86832179,11.0117481 6.57281692,10.2876908 L7.05475022,9.79237544 C7.18801466,9.65541057 7.18801466,9.43367461 7.05475022,9.29706004 C6.92182661,9.16009518 6.70608136,9.16009518 6.57281692,9.29706004 L6.09088363,9.79237544 Z M10.4137644,3.98351891 C9.72977713,3.39931707 8.71076183,3.50435396 8.08317888,4.15284259 L7.65437017,4.59652685 C7.52151422,4.73353149 7.52151422,4.95590056 7.65437017,5.09325649 L7.65437017,5.09325649 C7.78688633,5.23026113 8.00197026,5.23026113 8.1348262,5.09325649 L8.57450803,4.63833083 C8.96492103,4.23504538 9.60711474,4.17532541 10.0172353,4.55753322 C10.4545386,4.96468291 10.4677902,5.6620014 10.0569901,6.08671578 L8.37505422,7.82562083 C7.97682616,8.23733734 7.33157439,8.23733734 6.93334634,7.82562083 C6.80083018,7.68826489 6.58574625,7.68826489 6.45289031,7.82562083 C6.32037414,7.96297676 6.32037414,8.18534583 6.45289031,8.32235047 C7.11649047,9.00842755 8.19224987,9.00842755 8.85551025,8.32235047 L10.5374461,6.58344543 C11.2397818,5.85732083 11.1986678,4.65343647 10.4137644,3.98351891 L10.4137644,3.98351891 Z" id="Fill-10" fill="url(#linearGradient-2)"></path>
                    </g>
                </g>
            </g>
        </g>
    </g>
</svg>