<svg width="24" height="25" viewBox="0 0 24 25" fill="none" xmlns="http://www.w3.org/2000/svg">
<path fill-rule="evenodd" clip-rule="evenodd" d="M12 2C5.925 2 1 6.925 1 13C1 19.075 5.925 24 12 24C18.075 24 23 19.075 23 13C23 6.925 18.075 2 12 2ZM12 22C7.029 22 3 17.971 3 13C3 8.029 7.029 4 12 4C16.97 4 21 8.029 21 13C21 17.971 16.97 22 12 22ZM9.41304 15.719C10.014 14.138 11.696 13 13.677 13C15.658 13 17.34 14.138 17.941 15.719C18.178 16.341 17.666 17 16.987 17H10.367C9.68804 17 9.17604 16.341 9.41304 15.719ZM16.5 8C15.671 8 15 8.672 15 9.5C15 10.329 15.671 11 16.5 11C17.329 11 18 10.329 18 9.5C18 8.672 17.329 8 16.5 8ZM12 9.5C12 10.329 11.329 11 10.5 11C9.672 11 9 10.329 9 9.5C9 8.672 9.672 8 10.5 8C11.329 8 12 8.672 12 9.5Z" fill="#6E7780"/>
</svg>

