<svg width="20" height="20" viewBox="0 0 20 20" fill="none" xmlns="http://www.w3.org/2000/svg">
<path fill-rule="evenodd" clip-rule="evenodd" d="M8.31553 7.44304C8.59704 7.80102 9.01015 8.22471 9.51154 8.54057L8.04567 14.0889C7.92657 14.5378 8.1906 14.9994 8.63452 15.1198C8.70698 15.1401 8.77944 15.1493 8.85107 15.1493C9.21837 15.1493 9.55402 14.9008 9.65396 14.5243L11.134 8.97773C11.7228 8.95836 12.2875 8.8 12.7073 8.63238C13.1221 9.16135 13.8067 9.85289 14.6754 10.0879C14.9228 10.1553 15.1768 10.1831 15.4291 10.1831C16.5802 10.1831 17.6779 9.60104 17.8228 9.52186C18.201 9.31381 18.3609 8.84801 18.1901 8.44876C17.1324 5.96479 15.1401 4.08813 12.6598 3.17928L12.7798 2.72696C12.8989 2.27801 12.6348 1.81642 12.1909 1.69597C11.7487 1.57552 11.2897 1.84169 11.1715 2.29148L11.0515 2.7438C8.45545 2.27632 5.80107 2.89542 3.65807 4.51097C3.31326 4.77124 3.22081 5.25472 3.44485 5.62534C3.55063 5.7997 4.5126 7.33438 5.89185 7.70837C6.75804 7.94253 7.6942 7.69068 8.31553 7.44304ZM11.4372 4.54297C13.5169 5.10648 15.2442 6.4727 16.2845 8.34684C15.8972 8.46982 15.4475 8.55405 15.106 8.46139C14.4905 8.29462 13.8758 7.43462 13.7101 7.14824C13.556 6.8787 13.2762 6.72792 12.9871 6.72792C12.8472 6.72792 12.7048 6.76414 12.5749 6.83911C12.2875 7.0042 11.3339 7.43631 10.7142 7.27121C10.0987 7.10443 9.48322 6.24444 9.31831 5.95805C9.08927 5.55796 8.58371 5.41813 8.18227 5.64893C7.89576 5.81402 6.94378 6.24528 6.32245 6.08103C5.9818 5.98838 5.63366 5.68767 5.35797 5.38613C7.18614 4.28775 9.35829 3.98031 11.4372 4.54297ZM16.1075 16.6491C16.5747 16.6491 16.7646 16.4924 17.1094 16.2077C17.5292 15.8607 18.1039 15.3856 19.1666 15.3856V17.0702C18.6994 17.0702 18.51 17.2266 18.1676 17.5093L18.1639 17.5124C17.7441 17.8595 17.1686 18.3337 16.1075 18.3337C15.0447 18.3337 14.47 17.8595 14.0503 17.5124L14.0465 17.5093C13.7041 17.2266 13.5147 17.0702 13.0483 17.0702C12.5823 17.0702 12.393 17.2269 12.0508 17.5102L12.048 17.5124L12.0478 17.5126C11.6289 17.8588 11.0542 18.3337 9.99415 18.3337C8.93389 18.3337 8.35921 17.8586 7.93944 17.5116L7.93648 17.5091C7.5952 17.2268 7.40589 17.0702 6.94081 17.0702C6.47574 17.0702 6.28643 17.2268 5.94515 17.5091L5.94219 17.5116C5.52242 17.8586 4.94773 18.3337 3.88748 18.3337C2.82743 18.3337 2.25276 17.8588 1.83385 17.5126L1.8336 17.5124L1.83087 17.5102C1.48862 17.2269 1.29932 17.0702 0.833313 17.0702V15.3856C1.8944 15.3856 2.46909 15.8615 2.88803 16.2085L2.88977 16.21C3.23264 16.4929 3.42185 16.6491 3.88748 16.6491C4.35311 16.6491 4.54232 16.4929 4.88519 16.21L4.88693 16.2085C5.30587 15.8615 5.88056 15.3856 6.94081 15.3856C8.0001 15.3856 8.57471 15.8606 8.99438 16.2076L8.99553 16.2085L8.99625 16.2091C9.33894 16.4926 9.52806 16.6491 9.99415 16.6491C10.4598 16.6491 10.649 16.4929 10.9919 16.21L10.9936 16.2085C11.4125 15.8615 11.9872 15.3856 13.0483 15.3856C14.1094 15.3856 14.6849 15.8607 15.1047 16.2077L15.1062 16.2089C15.4501 16.4928 15.6393 16.6491 16.1075 16.6491Z" fill="#F5F8FA"/>
</svg>
