<svg width="20" height="20" viewBox="0 0 20 20" fill="none" xmlns="http://www.w3.org/2000/svg">
<path fill-rule="evenodd" clip-rule="evenodd" d="M2.50012 7.91758C2.50012 11.2176 7.25096 17.0634 8.82679 18.7776C9.30262 19.2934 9.79596 19.2992 10.2776 18.7776C11.8151 17.1092 16.6668 11.2417 16.6668 7.91758C16.6668 4.00592 13.4951 0.835083 9.58346 0.835083C5.67179 0.835083 2.50012 4.00592 2.50012 7.91758ZM4.16679 7.91758C4.16679 4.93258 6.59679 2.50258 9.58346 2.50258C12.5701 2.50258 15.0001 4.93258 15.0001 7.91758C15.0001 9.99925 11.921 14.3859 9.55262 17.0893C7.14846 14.3309 4.16679 9.94508 4.16679 7.91758ZM9.58179 9.99675C8.43346 9.99675 7.50429 9.06425 7.50429 7.91092C7.50429 6.75925 8.43346 5.82675 9.58179 5.82675C10.7293 5.82675 11.6585 6.75925 11.6585 7.91092C11.6585 9.06425 10.7293 9.99675 9.58179 9.99675Z" fill="#12A9FF"/>
</svg>
