<svg width="40" height="40" viewBox="0 0 40 40" fill="none" xmlns="http://www.w3.org/2000/svg">
    <rect width="40" height="40" rx="8" fill="#464E56"/>
    <g clip-path="url(#clip0_3507_22318)">
        <path fill-rule="evenodd" clip-rule="evenodd" d="M20 28.2772C24.4183 28.2772 28 24.6955 28 20.2772C28 15.8589 24.4183 12.2772 20 12.2772C15.5817 12.2772 12 15.8589 12 20.2772C12 24.6955 15.5817 28.2772 20 28.2772ZM20 24.7772C18.3431 24.7772 17 23.8818 17 22.7772H23C23 23.8818 21.6569 24.7772 20 24.7772ZM18 20.0272C18 20.7176 17.4404 21.2772 16.75 21.2772C16.0596 21.2772 15.5 20.7176 15.5 20.0272C15.5 19.3369 16.0596 18.7772 16.75 18.7772C17.4404 18.7772 18 19.3369 18 20.0272ZM23.25 21.2772C23.9404 21.2772 24.5 20.7176 24.5 20.0272C24.5 19.3369 23.9404 18.7772 23.25 18.7772C22.5596 18.7772 22 19.3369 22 20.0272C22 20.7176 22.5596 21.2772 23.25 21.2772Z" fill="#F0F3F5"/>
    </g>
    <defs>
        <clipPath id="clip0_3507_22318">
            <rect width="16" height="16" fill="white" transform="translate(12 12.2772)"/>
        </clipPath>
    </defs>
</svg>
