<svg width="18" height="18" viewBox="0 0 18 18" fill="none" xmlns="http://www.w3.org/2000/svg">
<path fill-rule="evenodd" clip-rule="evenodd" d="M12.3225 7.1591H15.1365C15.4755 7.1591 15.75 7.4336 15.75 7.7726C15.75 11.5009 12.7283 14.5226 9 14.5226C5.2725 14.5226 2.25 11.5009 2.25 7.7726C2.25 7.4336 2.5245 7.1591 2.8635 7.1591H10.4618L12.747 2.58935C12.8985 2.28635 13.2668 2.16335 13.5698 2.31485C13.8735 2.46635 13.9957 2.8346 13.8442 3.13835L13.0808 4.6646L14.7023 3.0431C14.9423 2.80385 15.3307 2.80385 15.5708 3.0431C15.81 3.2831 15.81 3.6716 15.5708 3.91085L12.3225 7.1591ZM9 14.5226H12.0683C12.4073 14.5226 12.6818 14.7971 12.6818 15.1361C12.6818 15.4751 12.4073 15.7504 12.0683 15.7504H5.93175C5.59275 15.7504 5.31825 15.4751 5.31825 15.1361C5.31825 14.7971 5.59275 14.5226 5.93175 14.5226H9ZM9 13.2956C6.1575 13.2956 3.81675 11.1476 3.51075 8.3861H14.4893C14.184 11.1476 11.8433 13.2956 9 13.2956ZM5.31825 3.47735V5.9321C5.31825 6.2711 5.59275 6.5456 5.93175 6.5456C6.27075 6.5456 6.54525 6.2711 6.54525 5.9321V3.47735C6.54525 3.13835 6.27075 2.86385 5.93175 2.86385C5.59275 2.86385 5.31825 3.13835 5.31825 3.47735ZM7.1595 5.9321V4.70435C7.1595 4.36535 7.434 4.09085 7.773 4.09085C8.112 4.09085 8.3865 4.36535 8.3865 4.70435V5.9321C8.3865 6.2711 8.112 6.5456 7.773 6.5456C7.434 6.5456 7.1595 6.2711 7.1595 5.9321Z" fill="#F5F8FA"/>
</svg>
