<?xml version="1.0" encoding="UTF-8"?>
<svg width="48px" height="48px" viewBox="0 0 48 48" version="1.1" xmlns="http://www.w3.org/2000/svg" xmlns:xlink="http://www.w3.org/1999/xlink">
    <title>Yahoo</title>
    <defs>
        <linearGradient x1="16.5289256%" y1="100%" x2="83.4710744%" y2="0%" id="linearGradient-1">
            <stop stop-color="#7282FB" offset="0%"></stop>
            <stop stop-color="#755BF9" offset="68.7141263%"></stop>
            <stop stop-color="#7934F7" offset="100%"></stop>
        </linearGradient>
    </defs>
    <g id="Yahoo" stroke="none" stroke-width="1" fill="none" fill-rule="evenodd">
        <path d="M24,7.5 C20.9455385,7.5 18.4615385,9.96675 18.4615385,13 C18.4615385,16.03325 20.9455385,18.5 24,18.5 C27.0544615,18.5 29.5384615,16.03325 29.5384615,13 C29.5384615,9.96675 27.0544615,7.5 24,7.5 M23.6953846,32.25 C32.0363077,32.25 36.5335385,35.55275 36.5335385,38.663 L36.5335385,40.5 L11.2006154,40.5 L11.2006154,38.663 C11.2006154,37.0185 14.2744615,32.25275 23.6953846,32.25 Z M24,2 C30.1089231,2 35.0769231,6.9335 35.0769231,13 C35.0769231,19.0665 30.1089231,24 24,24 C17.8910769,24 12.9230769,19.0665 12.9230769,13 C12.9230769,6.9335 17.8910769,2 24,2 Z M23.82,26.75 C11.5273846,26.75275 6,33.7185 6,38.663 L6,46 L42,46 L42,38.663 C42,32.92375 36.3147692,26.75 23.82,26.75 L23.82,26.75 Z" id="Combined-Shape" fill="url(#linearGradient-1)"></path>
    </g>
</svg>