<?xml version="1.0" encoding="UTF-8"?>
<svg width="22px" height="18px" viewBox="0 0 22 18" version="1.1" xmlns="http://www.w3.org/2000/svg" xmlns:xlink="http://www.w3.org/1999/xlink">
    <title>device-generic</title>
    <g id="Unlink" stroke="none" stroke-width="1" fill="none" fill-rule="evenodd">
        <g id="Group" transform="translate(0.000000, -3.000000)" fill="#6001D2" fill-rule="nonzero">
            <g id="accessibility/accessibility">
                <path d="M20.1666667,8.70833332 C20.6729277,8.70833332 21.0833334,9.11873897 21.0833334,9.62499999 L21.0833334,9.62499999 L21.0833334,19.7083333 C21.0833334,20.2145944 20.6729277,20.625 20.1666667,20.625 L20.1666667,20.625 L14.6666667,20.625 C14.1604057,20.625 13.75,20.2145944 13.75,19.7083333 L13.75,19.7083333 L13.75,9.62499999 C13.75,9.11873897 14.1604057,8.70833332 14.6666667,8.70833332 L14.6666667,8.70833332 Z M19.25,10.5416667 L15.5833334,10.5416667 L15.5833334,18.7916667 L19.25,18.7916667 L19.25,10.5416667 Z M11.9166666,16.9583334 L11.9166666,18.7916667 L1.8333333,18.7916667 C1.32707227,18.7916667 0.916666625,18.3812611 0.916666625,17.875 C0.916666625,17.368739 1.32707227,16.9583334 1.8333333,16.9583334 L11.9166666,16.9583334 Z M17.4166667,3.2083333 C17.9229277,3.2083333 18.3333334,3.61873895 18.3333334,4.12499997 L18.3333334,4.12499997 L18.3333334,6.87499998 L16.5,6.87499998 L16.5,5.04166664 L4.12499997,5.04166664 L4.12499997,13.2916667 L11.9166667,13.2916667 L11.9166667,15.125 L3.2083333,15.125 C2.70207228,15.125 2.29166663,14.7145944 2.29166663,14.2083333 L2.29166663,14.2083333 L2.29166663,4.12499997 C2.29166663,3.61873895 2.70207228,3.2083333 3.2083333,3.2083333 L3.2083333,3.2083333 Z" id="Icon"></path>
            </g>
        </g>
    </g>
</svg>