<?xml version="1.0" encoding="UTF-8"?>
<svg width="40px" height="40px" viewBox="0 0 40 40" version="1.1" xmlns="http://www.w3.org/2000/svg" xmlns:xlink="http://www.w3.org/1999/xlink">
    <title>Google</title>
    <defs>
        <path d="M19.3181818,8.18181818 L10,8.18181818 L10,12.0454545 L15.3636364,12.0454545 C14.8636364,14.5 12.7727273,15.9090909 10,15.9090909 C6.72727273,15.9090909 4.09090909,13.2727273 4.09090909,10 C4.09090909,6.72727273 6.72727273,4.09090909 10,4.09090909 C11.4090909,4.09090909 12.6818182,4.59090909 13.6818182,5.40909091 L16.5909091,2.5 C14.8181818,0.954545455 12.5454545,0 10,0 C4.45454545,0 0,4.45454545 0,10 C0,15.5454545 4.45454545,20 10,20 C15,20 19.5454545,16.3636364 19.5454545,10 C19.5454545,9.40909091 19.4545455,8.77272727 19.3181818,8.18181818 Z" id="path-1"></path>
        <path d="M19.3181818,8.18181818 L10,8.18181818 L10,12.0454545 L15.3636364,12.0454545 C14.8636364,14.5 12.7727273,15.9090909 10,15.9090909 C6.72727273,15.9090909 4.09090909,13.2727273 4.09090909,10 C4.09090909,6.72727273 6.72727273,4.09090909 10,4.09090909 C11.4090909,4.09090909 12.6818182,4.59090909 13.6818182,5.40909091 L16.5909091,2.5 C14.8181818,0.954545455 12.5454545,0 10,0 C4.45454545,0 0,4.45454545 0,10 C0,15.5454545 4.45454545,20 10,20 C15,20 19.5454545,16.3636364 19.5454545,10 C19.5454545,9.40909091 19.4545455,8.77272727 19.3181818,8.18181818 Z" id="path-3"></path>
        <path d="M19.3181818,8.18181818 L10,8.18181818 L10,12.0454545 L15.3636364,12.0454545 C14.8636364,14.5 12.7727273,15.9090909 10,15.9090909 C6.72727273,15.9090909 4.09090909,13.2727273 4.09090909,10 C4.09090909,6.72727273 6.72727273,4.09090909 10,4.09090909 C11.4090909,4.09090909 12.6818182,4.59090909 13.6818182,5.40909091 L16.5909091,2.5 C14.8181818,0.954545455 12.5454545,0 10,0 C4.45454545,0 0,4.45454545 0,10 C0,15.5454545 4.45454545,20 10,20 C15,20 19.5454545,16.3636364 19.5454545,10 C19.5454545,9.40909091 19.4545455,8.77272727 19.3181818,8.18181818 Z" id="path-5"></path>
        <path d="M19.3181818,8.18181818 L10,8.18181818 L10,12.0454545 L15.3636364,12.0454545 C14.8636364,14.5 12.7727273,15.9090909 10,15.9090909 C6.72727273,15.9090909 4.09090909,13.2727273 4.09090909,10 C4.09090909,6.72727273 6.72727273,4.09090909 10,4.09090909 C11.4090909,4.09090909 12.6818182,4.59090909 13.6818182,5.40909091 L16.5909091,2.5 C14.8181818,0.954545455 12.5454545,0 10,0 C4.45454545,0 0,4.45454545 0,10 C0,15.5454545 4.45454545,20 10,20 C15,20 19.5454545,16.3636364 19.5454545,10 C19.5454545,9.40909091 19.4545455,8.77272727 19.3181818,8.18181818 Z" id="path-7"></path>
    </defs>
    <g id="Page-1" stroke="none" stroke-width="1" fill="none" fill-rule="evenodd">
        <g id="Brand-assets" transform="translate(-74.000000, -21.000000)">
            <g id="Google" transform="translate(74.000000, 21.000000)">
                <circle id="Oval" fill="#F1F1F5" cx="20" cy="20" r="20"></circle>
                <g id="Google__G__Logo" transform="translate(10.000000, 10.000000)">
                    <g id="Clipped">
                        <mask id="mask-2" fill="white">
                            <use xlink:href="#path-1"></use>
                        </mask>
                        <g id="a"></g>
                        <polygon id="Path" fill="#FBBC05" fill-rule="nonzero" mask="url(#mask-2)" points="-0.909090909 15.9090909 -0.909090909 4.09090909 6.81818182 10"></polygon>
                    </g>
                    <g id="Clipped">
                        <mask id="mask-4" fill="white">
                            <use xlink:href="#path-3"></use>
                        </mask>
                        <g id="a"></g>
                        <polygon id="Path" fill="#EA4335" fill-rule="nonzero" mask="url(#mask-4)" points="-0.909090909 4.09090909 6.81818182 10 10 7.22727273 20.9090909 5.45454545 20.9090909 -0.909090909 -0.909090909 -0.909090909"></polygon>
                    </g>
                    <g id="Clipped">
                        <mask id="mask-6" fill="white">
                            <use xlink:href="#path-5"></use>
                        </mask>
                        <g id="a"></g>
                        <polygon id="Path" fill="#34A853" fill-rule="nonzero" mask="url(#mask-6)" points="-0.909090909 15.9090909 12.7272727 5.45454545 16.3181818 5.90909091 20.9090909 -0.909090909 20.9090909 20.9090909 -0.909090909 20.9090909"></polygon>
                    </g>
                    <g id="Clipped">
                        <mask id="mask-8" fill="white">
                            <use xlink:href="#path-7"></use>
                        </mask>
                        <g id="a"></g>
                        <polygon id="Path" fill="#4285F4" fill-rule="nonzero" mask="url(#mask-8)" points="20.9090909 20.9090909 6.81818182 10 5 8.63636364 20.9090909 4.09090909"></polygon>
                    </g>
                </g>
            </g>
        </g>
    </g>
</svg>