<?xml version="1.0" encoding="UTF-8"?>
<svg width="67px" height="80px" viewBox="0 0 67 80" version="1.1" xmlns="http://www.w3.org/2000/svg" xmlns:xlink="http://www.w3.org/1999/xlink">
    <title>success-created new password</title>
    <g id="Page-1" stroke="none" stroke-width="1" fill="none" fill-rule="evenodd">
        <g id="Success-created-a-password" transform="translate(-127.000000, -201.000000)" fill="#1AC567" fill-rule="nonzero">
            <g id="success-created-new-password" transform="translate(127.000000, 201.000000)">
                <g id="Group-3" transform="translate(0.071429, 0.000000)">
                    <path d="M32.8571429,0 C32.8571429,0 0,9.27115725 0,10.9072438 L0,43.9925501 C0,60.7169906 24.2777778,75.4417698 31.031746,79.4410925 C32.1336453,80.1863025 33.5806404,80.1863025 34.6825397,79.4410925 C41.6190476,75.6235571 65.7142857,60.7169906 65.7142857,43.9925501 L65.7142857,10.9072438 C65.7142857,9.23479977 32.8571429,0 32.8571429,0 Z M50.015873,33.594311 L31.5793651,51.6457995 C30.1034407,53.0845943 27.7433847,53.0845943 26.2674603,51.6457995 L15.6984127,41.2657391 C14.9787087,40.579882 14.5716716,39.6309361 14.5716716,38.6389112 C14.5716716,37.6468863 14.9787087,36.6979405 15.6984127,36.0120833 C17.174337,34.5732886 19.5343931,34.5732886 21.0103175,36.0120833 L28.9325397,43.7744052 L44.7039683,28.3588339 C46.1717761,26.9003611 48.5480652,26.9003611 50.015873,28.3588339 C50.7297925,29.0441115 51.1331106,29.989104 51.1331106,30.9765724 C51.1331106,31.9640409 50.7297925,32.9090334 50.015873,33.594311 L50.015873,33.594311 Z" id="Shape"></path>
                </g>
            </g>
        </g>
    </g>
</svg>