<svg width="20" height="20" viewBox="0 0 20 20" fill="none" xmlns="http://www.w3.org/2000/svg">
<path fill-rule="evenodd" clip-rule="evenodd" d="M0.833313 9.99998C0.833313 4.94581 4.94581 0.833313 9.99998 0.833313C15.0533 0.833313 19.1666 4.94581 19.1666 9.99998C19.1666 15.0541 15.0533 19.1666 9.99998 19.1666C4.94581 19.1666 0.833313 15.0541 0.833313 9.99998ZM10.8333 11.4008V11.6866C10.8333 12.1358 10.46 12.5 9.99998 12.5C9.53998 12.5 9.16665 12.1358 9.16665 11.6866V10.695C9.16665 10.2458 9.53998 9.88081 9.99998 9.88081C10.9183 9.88081 11.6666 9.15165 11.6666 8.25415C11.6666 7.35665 10.9183 6.62665 9.99998 6.62665C9.07998 6.62665 8.33331 7.35665 8.33331 8.25415C8.33331 8.70415 7.95998 9.06748 7.49998 9.06748C7.03998 9.06748 6.66665 8.70415 6.66665 8.25415C6.66665 6.46081 8.16165 4.99998 9.99998 4.99998C11.8383 4.99998 13.3333 6.46081 13.3333 8.25415C13.3333 9.76748 12.2683 11.0391 10.8333 11.4008ZM9.99998 15C9.53998 15 9.16665 14.6275 9.16665 14.1666C9.16665 13.7066 9.53998 13.3333 9.99998 13.3333C10.46 13.3333 10.8333 13.7066 10.8333 14.1666C10.8333 14.6275 10.46 15 9.99998 15Z" fill="#12A9FF"/>
</svg>

