<svg xmlns="http://www.w3.org/2000/svg" width="16" height="16" viewBox="0 0 16 16" fill="none">
    <g clip-path="url(#clip0_1813_4882)">
        <path d="M7.4298 4.58506C6.68235 4.58506 6.0748 5.19261 6.0748 5.94006V6.51006H4.9248V5.94006C4.9248 4.55749 6.04725 3.43506 7.4298 3.43506H8.5648C9.94735 3.43506 11.0698 4.55749 11.0698 5.94006C11.0698 6.88841 10.5311 7.75801 9.68035 8.18016L9.6792 8.18071L9.30565 8.36501C8.85145 8.59271 8.5648 9.05806 8.5648 9.56506V9.94506H7.4148V9.56506C7.4148 8.62251 7.94765 7.75826 8.79265 7.33576L8.7954 7.33441L9.16925 7.14996L9.1698 7.14971C9.62875 6.92171 9.9198 6.45151 9.9198 5.94006C9.9198 5.19261 9.31225 4.58506 8.5648 4.58506H7.4298Z" fill="#5015B0"/>
        <path d="M9.02456 11.7501C9.02456 12.3161 8.56566 12.775 7.99961 12.775C7.43351 12.775 6.97461 12.3161 6.97461 11.7501C6.97461 11.184 7.43351 10.7251 7.99961 10.7251C8.56566 10.7251 9.02456 11.184 9.02456 11.7501Z" fill="#5015B0"/>
        <path d="M8 0.5C3.86 0.5 0.5 3.86 0.5 8C0.5 12.14 3.86 15.5 8 15.5C12.14 15.5 15.5 12.14 15.5 8C15.5 3.86 12.14 0.5 8 0.5ZM8 1.65C11.5 1.65 14.35 4.5 14.35 8C14.35 11.5 11.5 14.35 8 14.35C4.5 14.35 1.65 11.5 1.65 8C1.65 4.5 4.5 1.65 8 1.65Z" fill="#5015B0"/>
    </g>
    <defs>
        <clipPath id="clip0_1813_4882">
            <rect width="16" height="16" fill="white"/>
        </clipPath>
    </defs>
</svg>