<svg width="20" height="20" viewBox="0 0 20 20" fill="none" xmlns="http://www.w3.org/2000/svg">
<path fill-rule="evenodd" clip-rule="evenodd" d="M0.833008 10C0.833008 4.94587 4.94551 0.833374 9.99967 0.833374C15.053 0.833374 19.1663 4.94587 19.1663 10C19.1663 15.0542 15.053 19.1667 9.99967 19.1667C4.94551 19.1667 0.833008 15.0542 0.833008 10ZM10.833 11.4009V11.6867C10.833 12.1359 10.4597 12.5 9.99967 12.5C9.53967 12.5 9.16634 12.1359 9.16634 11.6867V10.695C9.16634 10.2459 9.53967 9.88087 9.99967 9.88087C10.918 9.88087 11.6663 9.15171 11.6663 8.25421C11.6663 7.35671 10.918 6.62671 9.99967 6.62671C9.07967 6.62671 8.33301 7.35671 8.33301 8.25421C8.33301 8.70421 7.95967 9.06754 7.49967 9.06754C7.03967 9.06754 6.66634 8.70421 6.66634 8.25421C6.66634 6.46087 8.16134 5.00004 9.99967 5.00004C11.838 5.00004 13.333 6.46087 13.333 8.25421C13.333 9.76754 12.268 11.0392 10.833 11.4009ZM9.99967 15C9.53967 15 9.16634 14.6275 9.16634 14.1667C9.16634 13.7067 9.53967 13.3334 9.99967 13.3334C10.4597 13.3334 10.833 13.7067 10.833 14.1667C10.833 14.6275 10.4597 15 9.99967 15Z" fill="#232A31"/>
</svg>

