<svg width="20" height="20" viewBox="0 0 20 20" fill="none" xmlns="http://www.w3.org/2000/svg">
<path fill-rule="evenodd" clip-rule="evenodd" d="M0.833313 10C0.833313 4.94587 4.94581 0.833374 9.99998 0.833374C15.0533 0.833374 19.1666 4.94587 19.1666 10C19.1666 15.0542 15.0533 19.1667 9.99998 19.1667C4.94581 19.1667 0.833313 15.0542 0.833313 10ZM10.8333 11.4009V11.6867C10.8333 12.1359 10.46 12.5 9.99998 12.5C9.53998 12.5 9.16665 12.1359 9.16665 11.6867V10.695C9.16665 10.2459 9.53998 9.88087 9.99998 9.88087C10.9183 9.88087 11.6666 9.15171 11.6666 8.25421C11.6666 7.35671 10.9183 6.62671 9.99998 6.62671C9.07998 6.62671 8.33331 7.35671 8.33331 8.25421C8.33331 8.70421 7.95998 9.06754 7.49998 9.06754C7.03998 9.06754 6.66665 8.70421 6.66665 8.25421C6.66665 6.46087 8.16165 5.00004 9.99998 5.00004C11.8383 5.00004 13.3333 6.46087 13.3333 8.25421C13.3333 9.76754 12.2683 11.0392 10.8333 11.4009ZM9.99998 15C9.53998 15 9.16665 14.6275 9.16665 14.1667C9.16665 13.7067 9.53998 13.3334 9.99998 13.3334C10.46 13.3334 10.8333 13.7067 10.8333 14.1667C10.8333 14.6275 10.46 15 9.99998 15Z" fill="#0F69FF"/>
</svg>

