<svg xmlns="http://www.w3.org/2000/svg" viewBox="0 0 52 46"><path d="M26.4 2c-1.1 1.1-2 2.4-2.7 3.8H9.8v24.8h17.3v-5.9c1.1 1.1 2.4 1.9 3.8 2.6V42c0 1.1-.9 1.9-1.9 1.9H7.9c-1 .1-1.9-.8-1.9-1.8V3.9C6 2.9 6.9 2 7.9 2h18.5zm-7.9 32.5c-1.6 0-2.9 1.3-2.9 2.9 0 1.6 1.3 2.9 2.9 2.9 1.6 0 2.9-1.3 2.9-2.9 0-1.7-1.3-2.9-2.9-2.9z" fill="#188fff"/><path d="M38 1c6.6 0 12 5.4 12 12s-5.4 12-12 12-12-5.4-12-12S31.4 1 38 1zm0 16c-.8 0-1.5.7-1.5 1.5S37.2 20 38 20s1.5-.7 1.5-1.5S38.8 17 38 17zm0-11c-.6 0-1.1.5-1.1 1.1v6.5c0 .6.5 1.1 1.1 1.1.6 0 1.1-.5 1.1-1.1V7.1c0-.6-.5-1.1-1.1-1.1z" fill="#f0162f"/></svg>
