<?xml version="1.0" encoding="UTF-8"?>
<svg width="20px" height="20px" viewBox="0 0 20 20" version="1.1" xmlns="http://www.w3.org/2000/svg" xmlns:xlink="http://www.w3.org/1999/xlink">
    <!-- Generator: Sketch 64 (93537) - https://sketch.com -->
    <title>Fill 7</title>
    <desc>Created with Sketch.</desc>
    <g id="Design" stroke="none" stroke-width="1" fill="none" fill-rule="evenodd">
        <g id="D3_FIDO_2SV_Error" transform="translate(-59.000000, -323.000000)" fill="#FF4D52">
            <g id="Group-3" transform="translate(45.000000, 312.000000)">
                <g id="Group" transform="translate(14.000000, 11.000000)">
                    <path d="M10,11.8181818 C9.49818182,11.8181818 9.09090909,11.4109091 9.09090909,10.9090909 L9.09090909,5.45454545 C9.09090909,4.95181818 9.49818182,4.54545455 10,4.54545455 C10.5018182,4.54545455 10.9090909,4.95181818 10.9090909,5.45454545 L10.9090909,10.9090909 C10.9090909,11.4109091 10.5018182,11.8181818 10,11.8181818 M10,15.4545455 C9.49818182,15.4545455 9.09090909,15.0472727 9.09090909,14.5454545 C9.09090909,14.0436364 9.49818182,13.6363636 10,13.6363636 C10.5018182,13.6363636 10.9090909,14.0436364 10.9090909,14.5454545 C10.9090909,15.0472727 10.5018182,15.4545455 10,15.4545455 M10,1.81818182 C5.49,1.81818182 1.81909091,5.48909091 1.81909091,10 C1.81909091,14.5109091 5.49,18.1818182 10,18.1818182 C14.5109091,18.1818182 18.1818182,14.5109091 18.1818182,10 C18.1818182,5.48909091 14.5109091,1.81818182 10,1.81818182 M10,20 C4.48636364,20 0,15.5136364 0,10 C0,4.48636364 4.48636364,0 10,0 C15.5127273,0 20,4.48636364 20,10 C20,15.5136364 15.5127273,20 10,20" id="Fill-7"></path>
                </g>
            </g>
        </g>
    </g>
</svg>