<svg width="16" height="16" viewBox="0 0 16 16" fill="none" xmlns="http://www.w3.org/2000/svg">
<path fill-rule="evenodd" clip-rule="evenodd" d="M0.666992 7.99935C0.666992 3.95602 3.95699 0.666016 8.00033 0.666016C12.043 0.666016 15.3337 3.95602 15.3337 7.99935C15.3337 12.0427 12.043 15.3327 8.00033 15.3327C3.95699 15.3327 0.666992 12.0427 0.666992 7.99935ZM8.66699 8.66602C8.66699 9.03402 8.36833 9.33268 8.00033 9.33268C7.63166 9.33268 7.33366 9.03402 7.33366 8.66602V4.66602C7.33366 4.29802 7.63166 3.99935 8.00033 3.99935C8.36833 3.99935 8.66699 4.29802 8.66699 4.66602V8.66602ZM8.00033 11.9993C7.63166 11.9993 7.33366 11.7007 7.33366 11.3327C7.33366 10.9647 7.63166 10.666 8.00033 10.666C8.36833 10.666 8.66699 10.9647 8.66699 11.3327C8.66699 11.7007 8.36833 11.9993 8.00033 11.9993Z" fill="#B0B9C1"/>
</svg>
