<svg width="24" height="24" viewBox="0 0 24 24" fill="none" xmlns="http://www.w3.org/2000/svg">
<path fill-rule="evenodd" clip-rule="evenodd" d="M1 12C1 5.935 5.935 1 12 1C18.064 1 23 5.935 23 12C23 18.065 18.064 23 12 23C5.935 23 1 18.065 1 12ZM3 12C3 16.962 7.039 21 12 21C16.962 21 21 16.962 21 12C21 7.038 16.962 3 12 3C7.039 3 3 7.038 3 12ZM11 7C11 6.447 11.448 6 12 6C12.552 6 13 6.447 13 7C13 7.552 12.552 8 12 8C11.448 8 11 7.552 11 7ZM11 16V11C11 10.447 11.448 10 12 10C12.552 10 13 10.447 13 11V16C13 16.552 12.552 17 12 17C11.448 17 11 16.552 11 16Z" fill="#F5F8FA"/>
</svg>

