<svg xmlns="http://www.w3.org/2000/svg" width="22" height="19" viewBox="0 0 22 19">
    <g fill="none" fill-rule="evenodd">
        <g fill="#6001D2" fill-rule="nonzero">
            <path d="M621 434c.552 0 1 .448 1 1s-.448 1-1 1h-20c-.552 0-1-.448-1-1s.448-1 1-1h20zm-18.35-16.15l17 .3c.265.013.515.13.693.328.178.197.27.457.257.722l-.2 12c-.052.54-.507.952-1.05.95l-17-.3c-.265-.013-.515-.13-.693-.328-.178-.197-.27-.457-.257-.722l.2-12c.052-.54.507-.952 1.05-.95zm.95 2l-.2 10 15 .3.2-10-15-.3z" transform="translate(-600 -417)"/>
        </g>
    </g>
</svg>
