<svg width="40" height="40" viewBox="0 0 40 40" fill="none" xmlns="http://www.w3.org/2000/svg">
<circle cx="20" cy="20" r="19.5" fill="white" stroke="#E0E4E9"/>
<path fill-rule="evenodd" clip-rule="evenodd" d="M13.8049 9.285C13.9969 9.093 14.2449 9 14.4919 9C14.7909 9 15.0869 9.136 15.2789 9.401L19.0569 14.535C19.2659 14.807 19.3169 15.169 19.1899 15.488L17.7969 18.802C18.4209 19.592 19.1099 20.378 19.8729 21.141C20.6369 21.905 21.4229 22.593 22.2129 23.218L25.5419 21.841C25.6589 21.794 25.7809 21.772 25.9019 21.772C26.1129 21.772 26.3229 21.841 26.4959 21.974L31.6129 25.735C32.0969 26.086 32.1519 26.786 31.7299 27.209L28.8349 30.104C28.2169 30.722 27.3369 31.015 26.2829 31.015C23.4439 31.015 19.3459 28.888 15.7359 25.278C10.7859 20.329 8.62688 14.463 10.9109 12.179L13.8049 9.285ZM17.1129 15.268L14.3739 11.545L12.3249 13.593C11.4009 14.517 12.2659 18.98 17.1499 23.864C20.7089 27.422 24.3019 29.015 26.2829 29.015C26.6539 29.015 27.1519 28.958 27.4209 28.69L29.4689 26.641L25.7599 23.915L22.9769 25.066L21.8929 25.515L20.9719 24.786C20.0779 24.079 19.2319 23.329 18.4589 22.556C17.6809 21.777 16.9299 20.932 16.2269 20.042L15.4959 19.115L15.9529 18.027L17.1129 15.268Z" fill="#828A93"/>
</svg>
