<?xml version="1.0" encoding="UTF-8"?>
<svg width="16px" height="12px" viewBox="0 0 16 12" version="1.1" xmlns="http://www.w3.org/2000/svg" xmlns:xlink="http://www.w3.org/1999/xlink">
    <g id="Fuji-ID_Sk_v5" stroke="none" stroke-width="1" fill="none" fill-rule="evenodd">
        <g id="User-Name-Copy-9" transform="translate(-24.000000, -226.000000)" fill="#232A31">
            <path d="M24.7272727,237.636364 C24.3258182,237.636364 24,237.311273 24,236.909091 L24,226.727273 C24,226.325091 24.3258182,226 24.7272727,226 L39.2727273,226 C39.6741818,226 40,226.325091 40,226.727273 L40,236.909091 C40,237.311273 39.6741818,237.636364 39.2727273,237.636364 L24.7272727,237.636364 Z M38.5454545,236.181818 L38.5454545,230.594909 L32,233.280727 L25.4545455,230.594909 L25.4545455,236.181818 L38.5454545,236.181818 Z M25.4545455,227.454545 L25.4545455,228.992727 L32,231.679273 L38.5454545,228.992727 L38.5454545,227.454545 L25.4545455,227.454545 Z" id="Mail"></path>
        </g>
    </g>
</svg>