<?xml version="1.0" encoding="UTF-8"?>
<svg width="20px" height="20px" viewBox="0 0 20 20" version="1.1" xmlns="http://www.w3.org/2000/svg" xmlns:xlink="http://www.w3.org/1999/xlink">
    <title>messenger-icon</title>
    <defs>
        <radialGradient cx="19.2474387%" cy="99.4651948%" fx="19.2474387%" fy="99.4651948%" r="108.959529%" id="radialGradient-1">
            <stop stop-color="#0099FF" offset="0%"></stop>
            <stop stop-color="#A033FF" offset="60.9753877%"></stop>
            <stop stop-color="#FF5280" offset="93.482299%"></stop>
            <stop stop-color="#FF7061" offset="100%"></stop>
        </radialGradient>
    </defs>
    <g id="Account-recovery-flow" stroke="none" stroke-width="1" fill="none" fill-rule="evenodd">
        <g id="comm-selector" transform="translate(-886.000000, -551.000000)">
            <g id="messenger-icon" transform="translate(886.000000, 551.000000)">
                <path d="M10,0 C4.3667,0 0,4.1264076 0,9.70001787 C0,12.6153832 1.1948,15.1345879 3.14056,16.8746311 C3.3039,17.0208314 3.4025,17.2256317 3.4092,17.4448321 L3.46366,19.2236354 C3.48106,19.7910365 4.06714,20.1602371 4.58634,19.9310367 L6.5712,19.0548351 C6.73946,18.980635 6.928,18.9668349 7.1053,19.015635 C8.0174,19.2664355 8.98816,19.4000357 10,19.4000357 C15.6333,19.4000357 20,15.2736281 20,9.70001787 C20,4.1264076 15.6333,0 10,0 Z" id="Path" fill="url(#radialGradient-1)"></path>
                <path d="M4.07615815,12.3279129 L6.97397358,8.05113689 C7.43492106,7.37076573 8.42200332,7.20136121 9.11363171,7.68387962 L11.4184086,9.29190115 C11.6298727,9.43946479 11.9208281,9.43867558 12.1314044,9.29001072 L15.2441168,7.09243208 C15.6595871,6.79914017 16.2019003,7.26165307 15.9238679,7.67209656 L13.0260525,11.9489093 C12.5650655,12.6292437 11.5779833,12.7986849 10.8863943,12.3161298 L8.58155827,10.7080716 C8.37011392,10.5605447 8.07913873,10.5613339 7.86858223,10.7099987 L4.75585001,12.9075774 C4.34039946,13.2008509 3.79806652,12.738338 4.07615815,12.3279129 Z" id="Path" fill="#FFFFFF"></path>
            </g>
        </g>
    </g>
</svg>