<?xml version="1.0" encoding="UTF-8"?>
<svg width="10px" height="16px" viewBox="0 0 10 16" version="1.1" xmlns="http://www.w3.org/2000/svg" xmlns:xlink="http://www.w3.org/1999/xlink">
    <defs>
        <linearGradient x1="69.53125%" y1="1.11022302e-14%" x2="30.46875%" y2="100%" id="linearGradient-1">
            <stop stop-color="#7764F9" offset="0%"></stop>
            <stop stop-color="#769FFC" offset="100%"></stop>
        </linearGradient>
    </defs>
    <g id="Account-Access" stroke="none" stroke-width="1" fill="none" fill-rule="evenodd">
        <g id="User-Name-Copy-9" transform="translate(-251.000000, -110.000000)" fill="url(#linearGradient-1)">
            <path d="M256.714286,123.090909 C256.714286,122.688727 256.394286,122.363636 256,122.363636 C255.605714,122.363636 255.285714,122.688727 255.285714,123.090909 C255.285714,123.492364 255.605714,123.818182 256,123.818182 C256.394286,123.818182 256.714286,123.492364 256.714286,123.090909 Z M259.571429,120.181818 L252.428571,120.181818 L252.428571,111.454545 L259.571429,111.454545 L259.571429,120.181818 Z M259.571429,124.545455 L252.428571,124.545455 L252.428571,121.636364 L259.571429,121.636364 L259.571429,124.545455 Z M251.714286,110 C251.319286,110 251,110.325091 251,110.727273 L251,125.272727 C251,125.674909 251.319286,126 251.714286,126 L260.285714,126 C260.68,126 261,125.674909 261,125.272727 L261,110.727273 C261,110.325091 260.68,110 260.285714,110 L251.714286,110 Z" id="Mobile_Yahoo"></path>
        </g>
    </g>
</svg>