<svg width="40" height="40" viewBox="0 0 40 40" fill="none" xmlns="http://www.w3.org/2000/svg">
    <circle cx="20" cy="20" r="19.5" fill="white" stroke="#D7F0FF"/>
    <path d="M17.8587 21.868H22.3555C26.0666 21.868 28.9286 24.5401 28.9987 27.6835C28.5759 27.8448 27.8043 28.0834 26.7018 28.3247C24.7781 28.7456 22.5686 29 20.1071 29C17.6455 29 15.436 28.7456 13.5123 28.3247C12.5579 28.1158 11.8474 27.908 11.3957 27.7493L11.2155 27.6818C11.2865 24.5392 14.1481 21.868 17.8587 21.868Z" stroke="#828A93" stroke-width="2"/>
    <path d="M15.7801 13.7254C15.7801 11.5442 17.6693 9.69232 20.1071 9.69232C22.5448 9.69232 24.434 11.5442 24.434 13.7254C24.434 16.1094 22.3601 18.3463 20.1071 18.3463C17.854 18.3463 15.7801 16.1094 15.7801 13.7254Z" stroke="#828A93" stroke-width="2"/>
</svg>
