<?xml version="1.0" encoding="UTF-8"?>
<svg width="148px" height="57px" viewBox="0 0 148 57" version="1.1" xmlns="http://www.w3.org/2000/svg" xmlns:xlink="http://www.w3.org/1999/xlink">
    <!-- Generator: Sketch 55.1 (78136) - https://sketchapp.com -->
    <title>Group 4</title>
    <desc>Created with Sketch.</desc>
    <defs>
        <rect id="path-1" x="3.55271368e-15" y="8.17124146e-14" width="58" height="18.8631579" rx="1.17894737"></rect>
        <filter x="-10.1%" y="-25.8%" width="120.2%" height="162.1%" filterUnits="objectBoundingBox" id="filter-2">
            <feMorphology radius="2.35789474" operator="dilate" in="SourceAlpha" result="shadowSpreadOuter1"></feMorphology>
            <feOffset dx="0" dy="1" in="shadowSpreadOuter1" result="shadowOffsetOuter1"></feOffset>
            <feGaussianBlur stdDeviation="1" in="shadowOffsetOuter1" result="shadowBlurOuter1"></feGaussianBlur>
            <feComposite in="shadowBlurOuter1" in2="SourceAlpha" operator="out" result="shadowBlurOuter1"></feComposite>
            <feColorMatrix values="0 0 0 0 0   0 0 0 0 0   0 0 0 0 0  0 0 0 0.15 0" type="matrix" in="shadowBlurOuter1"></feColorMatrix>
        </filter>
    </defs>
    <g id="Page-1" stroke="none" stroke-width="1" fill="none" fill-rule="evenodd">
        <g id="VZ-verification_02-Copy-2" transform="translate(-77.000000, -207.000000)">
            <g id="Group-4" transform="translate(76.000000, 207.000000)">
                <g id="Network" transform="translate(96.000000, 0.000000)" fill="#E9E2E2" fill-rule="nonzero">
                    <path d="M16.5007859,22.779661 C12.6011717,22.779661 9.42857143,19.7992349 9.42857143,16.13565 C9.42857143,12.4720652 12.6011717,9.49152542 16.5007859,9.49152542 C20.3995537,9.49152542 23.5714286,12.4720652 23.5714286,16.13565 C23.5714286,19.7992349 20.3995537,22.779661 16.5007859,22.779661 Z M16.5007859,10.4004344 C13.1344926,10.4004344 10.3958276,12.9733285 10.3958276,16.13565 C10.3958276,19.2979716 13.1344926,21.870752 16.5007859,21.870752 C19.8662329,21.870752 22.6041724,19.2979716 22.6041724,16.13565 C22.6041724,12.9733285 19.8662329,10.4004344 16.5007859,10.4004344 Z" id="Shape"></path>
                    <path d="M4.23194835,56 C4.19018185,56 4.147725,55.9940731 4.10561333,55.9817452 C3.86111248,55.91003 3.71947458,55.6477064 3.78920047,55.3959327 L13.2399347,21.2257105 C13.3095455,20.9738182 13.5641715,20.8278985 13.8086724,20.8996137 C14.0531732,20.9713289 14.1948111,21.2336525 14.1250852,21.4854262 L4.67435105,55.6556485 C4.61670638,55.8640374 4.43238151,56 4.23194835,56 Z" id="Path"></path>
                    <path d="M28.7681022,56 C28.5676694,56 28.3833448,55.864156 28.3257002,55.6556485 L18.8748655,21.4854262 C18.8052547,21.2336525 18.9468924,20.9713289 19.1912778,20.8996137 C19.4357783,20.8278985 19.690404,20.9738182 19.7600147,21.2257105 L29.2108494,55.3959327 C29.2804601,55.6477064 29.1388225,55.91003 28.894322,55.9817452 C28.8522104,55.9940731 28.8097536,56 28.7681022,56 Z" id="Path"></path>
                    <path d="M22.1513437,34.1694915 L9.90579917,34.1694915 C9.64225015,34.1694915 9.42857143,33.957 9.42857143,33.6949153 C9.42857143,33.4328305 9.64225015,33.220339 9.90579917,33.220339 L22.1513437,33.220339 C22.4148927,33.220339 22.6285714,33.4328305 22.6285714,33.6949153 C22.6285714,33.957 22.4148927,34.1694915 22.1513437,34.1694915 Z" id="Path"></path>
                    <path d="M6.13363071,49.3559322 C5.9670341,49.3559322 5.80531639,49.27276 5.71809116,49.1249484 C5.58945477,48.9071863 5.67108711,48.6316782 5.90039545,48.509632 L23.8053666,38.9731876 C24.034913,38.8509153 24.3247911,38.9285503 24.4533085,39.1461994 C24.5819448,39.3639615 24.5004315,39.6394696 24.2711232,39.7615159 L6.36603299,49.2979602 C6.29249249,49.3372863 6.21252611,49.3559322 6.13363071,49.3559322 Z" id="Path"></path>
                    <path d="M26.8719984,49.3559322 C26.7954693,49.3559322 26.7176471,49.3377494 26.6457027,49.2994518 L8.72931282,39.7681263 C8.50184154,39.6470969 8.41884686,39.3706042 8.54404422,39.150592 C8.66924159,38.9306934 8.95537341,38.8508026 9.18272713,38.9714911 L27.0992345,48.5030439 C27.3268234,48.6239597 27.4097005,48.9004523 27.2845031,49.1204646 C27.1989222,49.2708138 27.0378702,49.3559322 26.8719984,49.3559322 Z" id="Path"></path>
                    <path d="M23.2214622,31.3220339 L22.8343014,30.4624339 C28.4333058,27.9813025 32.0510765,22.4491502 32.0510765,16.3687601 C32.0510765,7.86195654 25.074947,0.941264898 16.5,0.941264898 C7.92505302,0.941264898 0.948923475,7.86207421 0.948923475,16.3688778 C0.948923475,22.6453107 4.4404874,28.0110737 10.0609611,30.3720612 L9.6909996,31.2389569 C3.71337479,28.7278189 0,23.0299832 0,16.3688778 C0,7.34301939 7.40184034,0 16.5,0 C25.5981597,0 33,7.34301939 33,16.3688778 C33,22.8201726 29.1617232,28.6895752 23.2214622,31.3220339 Z" id="Path"></path>
                    <path d="M9.9942568,27.5254237 C5.5742724,25.273993 2.82857143,20.8228521 2.82857143,15.9094079 C2.82857143,8.70695035 8.75006453,2.84745763 16.028631,2.84745763 C23.3070783,2.84745763 29.2285714,8.70695035 29.2285714,15.9094079 C29.2285714,21.2945804 26.5728895,25.5247018 21.9425034,27.5154095 L21.5628991,26.6508884 C25.8291605,24.8168737 28.2759886,20.9017876 28.2759886,15.9094079 C28.2759886,9.2266291 22.7817289,3.78997179 16.028631,3.78997179 C9.2752949,3.78997179 3.78115427,9.2266291 3.78115427,15.9094079 C3.78115427,20.4682311 6.32895616,24.5982104 10.4303016,26.687293 L9.9942568,27.5254237 Z" id="Path"></path>
                    <path d="M21.4726304,24.6779661 L21.0375275,23.8423775 C23.8771465,22.4296479 25.4408313,19.7594917 25.4408313,16.3236039 C25.4408313,11.5033513 21.4300673,7.58174612 16.5000599,7.58174612 C11.5700526,7.58174612 7.55916872,11.5033513 7.55916872,16.3236039 C7.55916872,19.7717987 8.945767,22.2507858 11.6805968,23.6917629 L11.2254713,24.5172715 C8.19953374,22.9227495 6.6,20.0894372 6.6,16.3236039 C6.6,10.9863389 11.041191,6.6440678 16.5000599,6.6440678 C21.958809,6.6440678 26.4,10.9863389 26.4,16.3236039 C26.4,20.1302262 24.6501166,23.0972749 21.4726304,24.6779661 Z" id="Path"></path>
                </g>
                <path d="M8.05164471,8 C10.2353326,10.2168896 10.9710092,10.220852 13.1992656,8.02519564 C10.9710092,10.220852 10.9639319,10.9574074 13.1467775,13.1717521 C10.9639319,10.9574074 10.2269862,10.9517503 8,13.1486768 C10.2269874,10.9513258 10.2353326,10.2168896 8.05164471,8 Z" id="Path-Copy-16" fill="#FF8B12" transform="translate(10.599633, 10.585876) rotate(-315.000000) translate(-10.599633, -10.585876) "></path>
                <path d="M133.061265,6 L131,6.77297253 L131,7.80360258 C131.000763,9.11298237 131.826615,10.2797584 133.061265,10.7157895 C134.295915,10.2797584 135.121766,9.11298237 135.12253,7.80360258 L135.12253,6.77297253 L133.061265,6 Z" id="Path-Copy-6" stroke="#FF8B12" stroke-width="0.681169591"></path>
                <path d="M136.766798,40 L135,40.676351 L135,41.5781523 C135.000654,42.7238596 135.708527,43.7447886 136.766798,44.1263158 C137.82507,43.7447886 138.532942,42.7238596 138.533597,41.5781523 L138.533597,40.676351 L136.766798,40 Z" id="Path-Copy-9" stroke="#DFE2E8" stroke-width="0.681169591"></path>
                <path d="M143.766798,10 L142,10.676351 L142,11.5781523 C142.000654,12.7238596 142.708527,13.7447886 143.766798,14.1263158 C144.82507,13.7447886 145.532942,12.7238596 145.533597,11.5781523 L145.533597,10.676351 L143.766798,10 Z" id="Path-Copy-9" stroke="#DFE2E8" stroke-width="0.681169591"></path>
                <path d="M29.673886,46.1100541 L30.2910479,46.1100541 C30.5665067,46.1100541 30.7898101,46.3358049 30.7898101,46.6138605 L30.7898101,46.1612749 C30.7898101,46.4395195 30.5708983,46.6650812 30.2910479,46.6650812 L29.673886,46.6650812 L29.673886,47.4988991 C29.673886,47.6514602 29.5444759,47.7751354 29.394905,47.7751354 C29.2408281,47.7751354 29.115924,47.6558913 29.115924,47.4988991 L29.115924,46.6650812 L28.4987621,46.6650812 C28.2233034,46.6650812 28,46.4393305 28,46.1612749 L28,46.6138605 C28,46.3356159 28.2189117,46.1100541 28.4987621,46.1100541 L29.115924,46.1100541 L29.115924,45.2762363 C29.115924,45.1236752 29.2453342,45 29.394905,45 C29.548982,45 29.673886,45.1192441 29.673886,45.2762363 L29.673886,46.1100541 Z" id="Combined-Shape-Copy-9" fill="#DFE2E8" transform="translate(29.394905, 46.387568) rotate(39.000000) translate(-29.394905, -46.387568) "></path>
                <ellipse id="Oval-2-Copy-4" stroke="#E0E4E9" stroke-width="0.681169591" transform="translate(80.038834, 46.037325) scale(-1, 1) rotate(-37.000000) translate(-80.038834, -46.037325) " cx="80.0388343" cy="46.0373252" rx="1.37941906" ry="1.37791001"></ellipse>
                <ellipse id="Oval-2-Copy-4" stroke="#21D87D" stroke-width="0.681169591" transform="translate(128.038834, 29.037325) scale(-1, 1) rotate(-37.000000) translate(-128.038834, -29.037325) " cx="128.038834" cy="29.0373252" rx="1.37941906" ry="1.37791001"></ellipse>
                <ellipse id="Oval-2-Copy-4" stroke="#E0E4E9" stroke-width="0.681169591" transform="translate(6.038834, 39.037325) scale(-1, 1) rotate(-37.000000) translate(-6.038834, -39.037325) " cx="6.03883427" cy="39.0373252" rx="1.37941906" ry="1.37791001"></ellipse>
                <ellipse id="Oval-2-Copy-6" stroke="#E0E4E9" stroke-width="0.681169591" transform="translate(27.038834, 20.037325) scale(-1, 1) rotate(-37.000000) translate(-27.038834, -20.037325) " cx="27.0388343" cy="20.0373252" rx="1.37941906" ry="1.37791001"></ellipse>
                <ellipse id="Oval-2-Copy-5" stroke="#6001D2" stroke-width="0.681169591" transform="translate(17.556901, 26.556092) scale(-1, 1) rotate(-37.000000) translate(-17.556901, -26.556092) " cx="17.5569009" cy="26.5560919" rx="1" ry="1"></ellipse>
                <path d="M90.3557312,5 L88,5.8695941 L88,7.0290529 C88.0008726,8.50210516 88.944703,9.81472815 90.3557312,10.3052632 C91.7667595,9.81472815 92.7105899,8.50210516 92.7114625,7.0290529 L92.7114625,5.8695941 L90.3557312,5 Z" id="Path-Copy-11" stroke="#6D00F6" stroke-width="0.681169591"></path>
                <path d="M90.0381287,43 C91.6501546,44.6329237 92.1932409,44.6358429 93.8381712,43.0185625 C92.1932409,44.6358429 92.1880158,45.1783768 93.7994199,46.809426 C92.1880158,45.1783768 91.6439926,45.1742093 90,46.7924253 C91.6439935,45.1738966 91.6501546,44.6329237 90.0381287,43 Z" id="Path-Copy-17" fill="#DFE2E8" transform="translate(91.919086, 44.904713) rotate(-315.000000) translate(-91.919086, -44.904713) "></path>
                <path d="M78.0381287,4 C79.6501546,5.63292373 80.1932409,5.63584294 81.8381712,4.01856252 C80.1932409,5.63584294 80.1880158,6.17837678 81.7994199,7.80942602 C80.1880158,6.17837678 79.6439926,6.17420932 78,7.79242529 C79.6439935,6.17389662 79.6501546,5.63292373 78.0381287,4 Z" id="Path-Copy-17" fill="#DFE2E8" transform="translate(79.919086, 5.904713) rotate(-315.000000) translate(-79.919086, -5.904713) "></path>
                <path d="M139.196183,23.1763396 L139.880198,23.1763396 C140.155537,23.1763396 140.378743,23.4101962 140.378743,23.6804852 C140.378743,23.958917 140.157054,24.1846307 139.880198,24.1846307 L139.196183,24.1846307 L139.196183,24.8505113 C139.196183,25.13243 138.96109,25.3609703 138.689371,25.3609703 C138.409467,25.3609703 138.18256,25.1404477 138.18256,24.8505113 L138.18256,24.1846307 L137.498545,24.1846307 C137.223206,24.1846307 137,23.9507741 137,23.6804852 C137,23.4020533 137.221689,23.1763396 137.498545,23.1763396 L138.18256,23.1763396 L138.18256,22.510459 C138.18256,22.2285403 138.417653,22 138.689371,22 C138.969276,22 139.196183,22.2205226 139.196183,22.510459 L139.196183,23.1763396 Z" id="Combined-Shape-Copy" fill="#DFE2E8" transform="translate(138.689371, 23.680485) scale(-1, 1) rotate(-37.000000) translate(-138.689371, -23.680485) "></path>
                <path d="M3.19618285,25.1763396 L3.8801977,25.1763396 C4.15553658,25.1763396 4.37874285,25.4101962 4.37874285,25.6804852 C4.37874285,25.958917 4.15705409,26.1846307 3.8801977,26.1846307 L3.19618285,26.1846307 L3.19618285,26.8505113 C3.19618285,27.13243 2.96108966,27.3609703 2.68937142,27.3609703 C2.4094672,27.3609703 2.18256,27.1404477 2.18256,26.8505113 L2.18256,26.1846307 L1.49854514,26.1846307 C1.22320626,26.1846307 1,25.9507741 1,25.6804852 C1,25.4020533 1.22168875,25.1763396 1.49854514,25.1763396 L2.18256,25.1763396 L2.18256,24.510459 C2.18256,24.2285403 2.41765319,24 2.68937142,24 C2.96927565,24 3.19618285,24.2205226 3.19618285,24.510459 L3.19618285,25.1763396 Z" id="Combined-Shape-Copy-2" fill="#DFE2E8" transform="translate(2.689371, 25.680485) scale(-1, 1) rotate(-37.000000) translate(-2.689371, -25.680485) "></path>
                <path d="M24.1961828,10.1763396 L24.8801977,10.1763396 C25.1555366,10.1763396 25.3787428,10.4101962 25.3787428,10.6804852 C25.3787428,10.958917 25.1570541,11.1846307 24.8801977,11.1846307 L24.1961828,11.1846307 L24.1961828,11.8505113 C24.1961828,12.13243 23.9610897,12.3609703 23.6893714,12.3609703 C23.4094672,12.3609703 23.18256,12.1404477 23.18256,11.8505113 L23.18256,11.1846307 L22.4985451,11.1846307 C22.2232063,11.1846307 22,10.9507741 22,10.6804852 C22,10.4020533 22.2216888,10.1763396 22.4985451,10.1763396 L23.18256,10.1763396 L23.18256,9.51045905 C23.18256,9.2285403 23.4176532,9 23.6893714,9 C23.9692756,9 24.1961828,9.22052265 24.1961828,9.51045905 L24.1961828,10.1763396 Z" id="Combined-Shape-Copy-2" fill="#DFE2E8" transform="translate(23.689371, 10.680485) scale(-1, 1) rotate(-37.000000) translate(-23.689371, -10.680485) "></path>
                <path d="M29.1961828,32.1763396 L29.8801977,32.1763396 C30.1555366,32.1763396 30.3787428,32.4101962 30.3787428,32.6804852 C30.3787428,32.958917 30.1570541,33.1846307 29.8801977,33.1846307 L29.1961828,33.1846307 L29.1961828,33.8505113 C29.1961828,34.13243 28.9610897,34.3609703 28.6893714,34.3609703 C28.4094672,34.3609703 28.18256,34.1404477 28.18256,33.8505113 L28.18256,33.1846307 L27.4985451,33.1846307 C27.2232063,33.1846307 27,32.9507741 27,32.6804852 C27,32.4020533 27.2216888,32.1763396 27.4985451,32.1763396 L28.18256,32.1763396 L28.18256,31.510459 C28.18256,31.2285403 28.4176532,31 28.6893714,31 C28.9692756,31 29.1961828,31.2205226 29.1961828,31.510459 L29.1961828,32.1763396 Z" id="Combined-Shape-Copy-2" fill="#DFE2E8" transform="translate(28.689371, 32.680485) scale(-1, 1) rotate(-37.000000) translate(-28.689371, -32.680485) "></path>
                <path d="M19.7,38 L18,38.676351 L18,39.5781523 C18.0006297,40.7238596 18.6817395,41.7447886 19.7,42.1263158 C20.7182605,41.7447886 21.3993703,40.7238596 21.4,39.5781523 L21.4,38.676351 L19.7,38 Z" id="Path-Copy-12" stroke="#21D87D" stroke-width="0.681169591"></path>
                <path d="M34.0387956,2 C35.6791374,3.66546538 36.2317629,3.66844237 37.9055847,2.01892964 C36.2317629,3.66844237 36.2264464,4.22178847 37.8661556,5.88534201 C36.2264464,4.22178847 35.6728677,4.21753836 34,5.86800528 C35.6728685,4.21721943 35.6791374,3.66546538 34.0387956,2 Z" id="Path-Copy-13" fill="#DFE2E8" transform="translate(35.952792, 3.942671) rotate(-315.000000) translate(-35.952792, -3.942671) "></path>
                <path d="M144.038796,31 C145.679137,32.6654654 146.231763,32.6684424 147.905585,31.0189296 C146.231763,32.6684424 146.226446,33.2217885 147.866156,34.885342 C146.226446,33.2217885 145.672868,33.2175384 144,34.8680053 C145.672869,33.2172194 145.679137,32.6654654 144.038796,31 Z" id="Path-Copy-13" fill="#DFE2E8" transform="translate(145.952792, 32.942671) rotate(-315.000000) translate(-145.952792, -32.942671) "></path>
                <g id="noun_Mobile_1620056" transform="translate(40.000000, 1.000000)" fill="#E9E2E2" fill-rule="nonzero">
                    <path d="M29.0511111,0 L4.94888889,0 C2.51474499,0 0.541481481,1.95004865 0.541481481,4.35555556 L0.541481481,51.6444444 C0.541481481,54.0499514 2.51474499,56 4.94888889,56 L29.0511111,56 C31.485255,56 33.4585185,54.0499514 33.4585185,51.6444444 L33.4585185,4.35555556 C33.4585185,1.95004865 31.485255,0 29.0511111,0 Z M31.3996296,51.6444444 C31.3996296,52.926236 30.3481621,53.9653333 29.0511111,53.9653333 L4.94888889,53.9653333 C3.65183793,53.9653333 2.60037037,52.926236 2.60037037,51.6444444 L2.60037037,4.35555556 C2.60037037,3.07376402 3.65183793,2.03466667 4.94888889,2.03466667 L29.0511111,2.03466667 C30.3481621,2.03466667 31.3996296,3.07376402 31.3996296,4.35555556 L31.3996296,51.6444444 Z" id="Shape"></path>
                    <ellipse id="Oval" cx="17" cy="49.0995556" rx="2.47444444" ry="2.44533333"></ellipse>
                </g>
                <g id="Vz-Logo" transform="translate(50.000000, 16.820110)">
                    <g id="Rectangle">
                        <use fill="black" fill-opacity="1" filter="url(#filter-2)" xlink:href="#path-1"></use>
                        <rect stroke="#FFFFFF" stroke-width="2.35789474" fill="#FFFFFF" fill-rule="evenodd" x="-1.17894737" y="-1.17894737" width="60.3578947" height="21.2210526" rx="1.17894737"></rect>
                    </g>
                    <g id="Verizon_2015_logo_-vector" transform="translate(6.000000, 4.000000)" fill-rule="nonzero">
                        <polygon id="Path" fill="#D52B1E" points="46.6652607 0 44.058628 5.58142754 43.0784179 3.46658976 42.0183388 3.46658976 43.6302399 6.92591204 44.4870161 6.92591204 47.7180789 0"></polygon>
                        <path d="M35.483605,10.3634319 L37.5819806,10.3634319 L37.5819806,6.51893295 C37.5819806,5.63956741 38.0902377,5.02183129 38.8453625,5.02183129 C39.571444,5.02183129 39.9490064,5.53055516 39.9490064,6.26457102 L39.9490064,10.3634319 L42.0473821,10.3634319 L42.0473821,5.86485941 C42.0473821,4.33868782 41.1325194,3.26310022 39.651313,3.26310022 C38.707407,3.26310022 38.0466728,3.67007931 37.5529374,4.41136265 L37.5093725,4.41136265 L37.5093725,3.46658976 L35.4763441,3.46658976 L35.483605,10.3634319 L35.483605,10.3634319 Z M31.3594618,3.27763518 C29.1666955,3.27763518 27.7000108,4.85467916 27.7000108,6.93317952 C27.7000108,8.99714492 29.1666955,10.5887239 31.3594618,10.5887239 C33.5522281,10.5887239 35.0189395,8.99714492 35.0189395,6.93317952 C35.0261736,4.85467916 33.5522281,3.27763518 31.3594618,3.27763518 Z M31.3449402,9.03348234 C30.3502085,9.03348234 29.8201689,8.1977217 29.8201689,6.93317952 C29.8201689,5.65410238 30.3429476,4.83287671 31.3449402,4.83287671 C32.3396719,4.83287671 32.8914939,5.65410238 32.8914939,6.93317952 C32.8987547,8.1977217 32.3469327,9.03348234 31.3449402,9.03348234 Z M21.7170989,10.3634319 L27.612881,10.3634319 L27.612881,8.70644557 L24.272906,8.70644557 L24.272906,8.66284066 L27.4676647,5.07997116 L27.4676647,3.45932228 L21.7170989,3.45932228 L21.7170989,5.12357606 L24.9481618,5.12357606 L24.9481618,5.16718097 L21.7170989,8.7791204 L21.7170989,10.3634319 L21.7170989,10.3634319 Z M19.0233364,10.3634319 L21.1362337,10.3634319 L21.1362337,3.46658976 L19.0233364,3.46658976 L19.0233364,10.3634319 Z M14.122286,10.3634319 L16.2279225,10.3634319 L16.2279225,7.19480894 C16.2279225,5.75584715 17.0919595,5.11630858 18.4061671,5.29799567 L18.449732,5.29799567 L18.449732,3.48112473 C18.3408198,3.43751983 18.2173859,3.43025234 18.0213439,3.43025234 C17.2008717,3.43025234 16.6490498,3.8081615 16.1770968,4.6148522 L16.1335319,4.6148522 L16.1335319,3.46658976 L14.122286,3.46658976 L14.122286,10.3634319 Z M10.2595322,9.04074982 C9.33014782,9.04074982 8.76380421,8.43754867 8.65489198,7.50731074 L13.6212897,7.50731074 C13.6358114,6.02474405 13.2437273,4.8401442 12.4232552,4.09886085 C11.84239,3.56106705 11.0800043,3.26310022 10.1070551,3.26310022 C8.03046186,3.26310022 6.5928204,4.8401442 6.5928204,6.90410959 C6.5928204,8.98260995 7.96511452,10.5669214 10.2450106,10.5669214 C11.1090476,10.5669214 11.7915642,10.3343619 12.3579078,9.94918529 C12.9605555,9.53493872 13.3962045,8.92447008 13.5123775,8.32126893 L11.4938708,8.32126893 C11.2978288,8.77185292 10.8767015,9.04074982 10.2595322,9.04074982 Z M10.15062,4.76746936 C10.8912231,4.76746936 11.3994802,5.31979813 11.48661,6.12648882 L8.66941361,6.12648882 C8.83641237,5.31253064 9.27932211,4.76746936 10.15062,4.76746936 Z M2.39606909,10.3634319 L4.60335698,10.3634319 L6.99942607,3.46658976 L4.88652878,3.46658976 L3.54327793,7.89975487 L3.51423466,7.89975487 L2.17098381,3.46658976 L0,3.46658976 L2.39606909,10.3634319 Z M19.0233364,1.01018025 L21.1362337,1.01018025 L21.1362337,2.88519106 L19.0233364,2.88519106 L19.0233364,1.01018025 Z" id="Shape" fill="#000000"></path>
                    </g>
                </g>
            </g>
        </g>
    </g>
</svg>