<svg width="20" height="20" viewBox="0 0 20 20" fill="none" xmlns="http://www.w3.org/2000/svg">
<path fill-rule="evenodd" clip-rule="evenodd" d="M0.833313 14.375C0.833313 16.101 1.95331 17.5 3.33331 17.5H15.8325C17.67 17.5 19.165 15.6302 19.165 13.3333V3.54167C19.165 2.96667 18.7925 2.5 18.3316 2.5H5.00165C4.54081 2.5 4.16915 2.96667 4.16915 3.54167V5.84969H1.66665C1.20665 5.84969 0.833313 6.31531 0.833313 6.89136V14.375ZM5.83665 4.16667H17.5L17.4991 13.4722C17.4991 14.7732 16.7516 15.8333 15.8333 15.8333H5.83581L5.83665 4.16667ZM4.16915 7.5H2.50248V15.0145C2.50248 15.6279 2.87498 15.8382 3.33581 15.8382C3.79581 15.8382 4.16915 15.6279 4.16915 15.0145V7.5ZM8.33331 12.5H14.9983C15.4591 12.5 15.8316 12.1275 15.8316 11.6667C15.8316 11.2058 15.4591 10.8333 14.9983 10.8333H8.33331C7.87331 10.8333 7.49998 11.2058 7.49998 11.6667C7.49998 12.1275 7.87331 12.5 8.33331 12.5ZM11.6666 9.16667C11.2066 9.16667 10.8333 8.79417 10.8333 8.33333C10.8333 7.8725 11.2066 7.5 11.6666 7.5H14.9983C15.4591 7.5 15.8316 7.8725 15.8316 8.33333C15.8316 8.79417 15.4591 9.16667 14.9983 9.16667H11.6666ZM7.49998 8.33333C7.49998 8.79417 7.87331 9.16667 8.33331 9.16667H9.16498C9.62581 9.16667 9.99831 8.79417 9.99831 8.33333C9.99831 7.8725 9.62581 7.5 9.16498 7.5H8.33331C7.87331 7.5 7.49998 7.8725 7.49998 8.33333Z" fill="#F5F8FA"/>
</svg>
