<svg width="40" height="40" viewBox="0 0 40 40" fill="none" xmlns="http://www.w3.org/2000/svg">
    <rect width="40" height="40" rx="8" fill="#464E56"/>
    <path d="M14.7634 26.4773C14.1851 26.4773 13.7188 25.9442 13.7188 25.2831V21.0927H16.0505V14.0874H26.3103V25.2831C26.3103 25.9442 25.844 26.4773 25.2657 26.4773H14.7727H14.7634Z" fill="#464E56"/>
    <path d="M26.9907 13.2771H15.3318V20.2824H13V25.2725C13 26.3708 13.7835 27.2771 14.7535 27.2771H25.2465C26.2165 27.2771 27 26.3814 27 25.2725V13.2771H26.9907Z" fill="#F0F3F5"/>
    <path d="M14.8749 26.4774C14.2313 26.4774 13.709 25.8803 13.709 25.1446V20.0159H16.0408V25.1446C16.0408 25.8803 15.5184 26.4774 14.8749 26.4774Z" fill="#464E56"/>
    <path d="M15.3415 20.805V25.134C15.3415 25.4325 15.1363 25.6671 14.8752 25.6671C14.614 25.6671 14.4088 25.4325 14.4088 25.134V20.805H15.3415ZM16.7406 19.2056H13.0098V25.134C13.0098 26.3069 13.8399 27.2665 14.8752 27.2665C15.9105 27.2665 16.7406 26.3069 16.7406 25.134V19.2056Z" fill="#F0F3F5"/>
    <path d="M24.1992 20.4268H22.1992" stroke="#464E56" stroke-width="1.5"/>
    <path d="M24.1992 23.2769L18.1992 23.2769" stroke="#464E56" stroke-width="1.5"/>
    <path d="M19.5039 16.6782V21.2098" stroke="#464E56" stroke-width="2.53"/>
    <path d="M24.1992 17.4268H22.1992" stroke="#464E56" stroke-width="1.5"/>
</svg>
