<svg width="20" height="20" viewBox="0 0 20 20" fill="none" xmlns="http://www.w3.org/2000/svg">
<path fill-rule="evenodd" clip-rule="evenodd" d="M17.912 5.20351L10.412 0.942673C10.157 0.796839 9.84366 0.796839 9.58866 0.942673L2.08866 5.20351C1.82783 5.35184 1.667 5.62351 1.667 5.92351C1.66616 7.76351 1.667 14.2618 1.667 14.2618C1.667 14.561 1.82783 14.8377 2.08866 14.986L9.58866 19.2485C9.84366 19.3935 10.157 19.3935 10.412 19.2485L17.912 14.986C18.1728 14.8377 18.3337 14.5618 18.3337 14.2618V5.92851C18.3337 5.62851 18.1728 5.35184 17.912 5.20351ZM16.667 13.7768L10.8337 17.0918V10.6752L13.0303 9.42684V11.7627L14.697 10.7993V8.48017L16.667 7.36017V13.7768ZM4.187 5.92851L10.0003 9.23184L12.2695 7.94267L6.50283 4.61267L4.187 5.92851ZM9.167 17.0918L3.33366 13.7768V7.36101L9.167 10.6752V17.0918ZM15.8137 5.92851L10.0003 2.62517L8.18283 3.65767L13.3812 6.66017L13.9512 6.98684L15.8137 5.92851Z" fill="#F5F8FA"/>
</svg>
