<svg width="40" height="40" viewBox="0 0 40 40" fill="none" xmlns="http://www.w3.org/2000/svg">
    <rect width="40" height="40" rx="8" fill="#F0F3F5"/>
    <path fill-rule="evenodd" clip-rule="evenodd" d="M25 13.2772H15C13.8954 13.2772 13 14.1727 13 15.2772V25.2772C13 26.3818 13.8954 27.2772 15 27.2772H25C26.1046 27.2772 27 26.3818 27 25.2772V15.2772C27 14.1727 26.1046 13.2772 25 13.2772ZM17.4492 16.2672H17.3789V24.2872H18.9689V21.7272H20.9092C22.4192 21.7272 23.4292 20.5072 23.4292 18.9972C23.4292 17.4872 22.4192 16.2672 20.9092 16.2672V16.2572H17.4492V16.2672ZM21.8292 18.9972C21.8292 18.4772 21.5892 17.8572 20.9092 17.8572V17.8472H19.0392V20.1372H20.9092C21.5892 20.1372 21.8292 19.5172 21.8292 18.9972Z" fill="#232A31"/>
</svg>
