<svg width="20" height="20" viewBox="0 0 20 20" fill="none" xmlns="http://www.w3.org/2000/svg">
<path fill-rule="evenodd" clip-rule="evenodd" d="M17.2133 7.75258L15.9974 4.40925C15.3983 2.76258 13.8333 1.66675 12.0816 1.66675H7.91825C6.16659 1.66675 4.60159 2.76258 4.00242 4.40925L2.78742 7.75258C1.63659 8.29841 0.833252 9.49925 0.833252 10.9001V14.9334C0.833252 15.8909 1.57992 16.6667 2.49992 16.6667V17.0834C2.49992 17.7734 3.05992 18.3334 3.74992 18.3334C4.44075 18.3334 4.99992 17.7734 4.99992 17.0834V16.6667H14.9999V17.0834C14.9999 17.7734 15.5599 18.3334 16.2499 18.3334C16.9408 18.3334 17.4999 17.7734 17.4999 17.0834V16.6667C18.4208 16.6667 19.1666 15.8909 19.1666 14.9334V10.9001C19.1666 9.49925 18.3633 8.29841 17.2133 7.75258ZM17.4999 15.0117H2.49992V10.8584C2.49992 9.88258 3.24742 9.16675 4.16659 9.16675H15.8333C16.7524 9.16675 17.4999 9.88258 17.4999 10.8584V15.0117ZM7.91825 3.33341C6.87075 3.33341 5.92659 3.99508 5.56909 4.97925L4.67659 7.50008H15.3233L14.4308 4.97925C14.0733 3.99508 13.1291 3.33341 12.0816 3.33341H7.91825ZM4.99992 10.8334C4.07909 10.8334 3.33325 11.5801 3.33325 12.5001C3.33325 13.4201 4.07909 14.1667 4.99992 14.1667C5.92075 14.1667 6.66659 13.4201 6.66659 12.5001C6.66659 11.5801 5.92075 10.8334 4.99992 10.8334ZM13.3333 12.5001C13.3333 11.5801 14.0799 10.8334 14.9999 10.8334C15.9208 10.8334 16.6666 11.5801 16.6666 12.5001C16.6666 13.4201 15.9208 14.1667 14.9999 14.1667C14.0799 14.1667 13.3333 13.4201 13.3333 12.5001Z" fill="#F5F8FA"/>
</svg>
