<?xml version="1.0" encoding="UTF-8"?>
<svg width="48px" height="48px" viewBox="0 0 48 48" version="1.1" xmlns="http://www.w3.org/2000/svg" xmlns:xlink="http://www.w3.org/1999/xlink">
    <title>Yahoo Copy</title>
    <defs>
        <linearGradient x1="16.5289256%" y1="100%" x2="83.4710744%" y2="0%" id="linearGradient-1">
            <stop stop-color="#7282FB" offset="0%"></stop>
            <stop stop-color="#755BF9" offset="68.7141263%"></stop>
            <stop stop-color="#7934F7" offset="100%"></stop>
        </linearGradient>
        <linearGradient x1="0%" y1="100%" x2="100%" y2="0%" id="linearGradient-2">
            <stop stop-color="#7282FB" offset="0%"></stop>
            <stop stop-color="#755BF9" offset="68.7141263%"></stop>
            <stop stop-color="#7934F7" offset="100%"></stop>
        </linearGradient>
    </defs>
    <g id="Yahoo-Copy" stroke="none" stroke-width="1" fill="none" fill-rule="evenodd">
        <g id="Group" transform="translate(6.000000, 2.000000)">
            <path d="M34,16 L30,16 L30,11 C30,4.92486775 25.0751322,8.8817842e-16 19,8.8817842e-16 L17,8.8817842e-16 C10.9248678,8.8817842e-16 6,4.92486775 6,11 L6,16 L2,16 C0.8954305,16 0,16.8954305 0,18 L0,42 C0,43.1045695 0.8954305,44 2,44 L34,44 C35.1045695,44 36,43.1045695 36,42 L36,18 C36,16.8954305 35.1045695,16 34,16 Z M10,11 C10,7.13400675 13.1340068,4 17,4 L19,4 C22.8659932,4 26,7.13400675 26,11 L26,16 L10,16 L10,11 Z M32,40 L4,40 L4,20 L32,20 L32,40 Z" id="Shape" fill="url(#linearGradient-1)"></path>
            <circle id="Oval" fill="url(#linearGradient-2)" cx="10" cy="30" r="3"></circle>
            <circle id="Oval" fill="url(#linearGradient-2)" cx="18" cy="30" r="3"></circle>
            <circle id="Oval" fill="url(#linearGradient-2)" cx="26" cy="30" r="3"></circle>
        </g>
    </g>
</svg>