<svg viewBox="0 0 160 104" version="1.1" xmlns="http://www.w3.org/2000/svg" xmlns:xlink="http://www.w3.org/1999/xlink" id="el_de-nm6Gd7"><style>@-webkit-keyframes kf_el_V7rsM87wb8O_an_tvKAjSnRd{0%{-webkit-transform:translate(80.26981592178345px,41.59935235977173px) scale(.8,.8) translate(-80.26981592178345px,-41.59935235977173px);transform:translate(80.26981592178345px,41.59935235977173px) scale(.8,.8) translate(-80.26981592178345px,-41.59935235977173px)}48%{-webkit-transform:translate(80.26981592178345px,41.59935235977173px) scale(1,1) translate(-80.26981592178345px,-41.59935235977173px);transform:translate(80.26981592178345px,41.59935235977173px) scale(1,1) translate(-80.26981592178345px,-41.59935235977173px)}}@keyframes kf_el_V7rsM87wb8O_an_tvKAjSnRd{0%{-webkit-transform:translate(80.26981592178345px,41.59935235977173px) scale(.8,.8) translate(-80.26981592178345px,-41.59935235977173px);transform:translate(80.26981592178345px,41.59935235977173px) scale(.8,.8) translate(-80.26981592178345px,-41.59935235977173px)}48%{-webkit-transform:translate(80.26981592178345px,41.59935235977173px) scale(1,1) translate(-80.26981592178345px,-41.59935235977173px);transform:translate(80.26981592178345px,41.59935235977173px) scale(1,1) translate(-80.26981592178345px,-41.59935235977173px)}}@-webkit-keyframes kf_el_V7rsM87wb8O_an_Lyh_KRvu-{0%{opacity:0}48%{opacity:1}}@keyframes kf_el_V7rsM87wb8O_an_Lyh_KRvu-{0%{opacity:0}48%{opacity:1}}@-webkit-keyframes kf_el_Nqjyr5OwqpK_an_jyIbdwqHm{0%,68%{opacity:0}94.67%{opacity:1}}@keyframes kf_el_Nqjyr5OwqpK_an_jyIbdwqHm{0%,68%{opacity:0}94.67%{opacity:1}}@-webkit-keyframes kf_el_GHmT--RfwTW_an_vM9-IVpxZ{0%,46.67%{opacity:0}69.33%{opacity:1}}@keyframes kf_el_GHmT--RfwTW_an_vM9-IVpxZ{0%,46.67%{opacity:0}69.33%{opacity:1}}@-webkit-keyframes kf_el_KFhn6QtdXgh_an_d6RTsgAcC{0%,61.33%{opacity:0}94.67%{opacity:1}}@keyframes kf_el_KFhn6QtdXgh_an_d6RTsgAcC{0%,61.33%{opacity:0}94.67%{opacity:1}}@-webkit-keyframes kf_el_Ez4T6o8bEH1_an_q20b8_bqW{0%,74.67%{opacity:0}97.33%{opacity:1}}@keyframes kf_el_Ez4T6o8bEH1_an_q20b8_bqW{0%,74.67%{opacity:0}97.33%{opacity:1}}@-webkit-keyframes kf_el_SrtwKXOGiDR_an_rCWt2Agfd{0%,58.67%{opacity:0}92%{opacity:1}}@keyframes kf_el_SrtwKXOGiDR_an_rCWt2Agfd{0%,58.67%{opacity:0}92%{opacity:1}}@-webkit-keyframes kf_el_-tbPXYp1LK_an_LRuHIA7Xi{0%,69.33%{opacity:0}96%{opacity:1}}@keyframes kf_el_-tbPXYp1LK_an_LRuHIA7Xi{0%,69.33%{opacity:0}96%{opacity:1}}@-webkit-keyframes kf_el_SuX2PSWCPB_an_8gLn4J4iU{0%,74.67%{opacity:0}93.33%{opacity:1}}@keyframes kf_el_SuX2PSWCPB_an_8gLn4J4iU{0%,74.67%{opacity:0}93.33%{opacity:1}}@-webkit-keyframes kf_el_EwhvcAwarF_an_hY6ACrcxR{0%{opacity:0}}@keyframes kf_el_EwhvcAwarF_an_hY6ACrcxR{0%{opacity:0}}@-webkit-keyframes kf_el_LctZZ8jzYy_an_Wzxr2CYMP{0%,46.67%{opacity:0}66.67%{opacity:1}}@keyframes kf_el_LctZZ8jzYy_an_Wzxr2CYMP{0%,46.67%{opacity:0}66.67%{opacity:1}}@-webkit-keyframes kf_el_dALZ0DLFQi_an_Pw1Ewl_c8{0%,58.67%{opacity:0}84%{opacity:1}}@keyframes kf_el_dALZ0DLFQi_an_Pw1Ewl_c8{0%,58.67%{opacity:0}84%{opacity:1}}@-webkit-keyframes kf_el_9fagnayFTt_an_w_IsIjFKQ{0%,58.67%{opacity:0}89.33%{opacity:1}}@keyframes kf_el_9fagnayFTt_an_w_IsIjFKQ{0%,58.67%{opacity:0}89.33%{opacity:1}}@-webkit-keyframes kf_el_IIY0_C8clE_an_OF_hHaBX9{0%,65.33%{opacity:0}97.33%{opacity:1}}@keyframes kf_el_IIY0_C8clE_an_OF_hHaBX9{0%,65.33%{opacity:0}97.33%{opacity:1}}#el_de-nm6Gd7 *{-webkit-animation-duration:2.5s;animation-duration:2.5s;-webkit-animation-iteration-count:1;animation-iteration-count:1;-webkit-animation-timing-function:cubic-bezier(0,0,1,1);animation-timing-function:cubic-bezier(0,0,1,1)}#el_OBTpFeqY_9{stroke:none;stroke-width:1;fill:none}#el_uapR0U6OiG{fill:#fff}#el_9fagnayFTt,#el_IIY0_C8clE{-webkit-animation-fill-mode:forwards;animation-fill-mode:forwards}#el_IIY0_C8clE{fill:#dfe2e8;-webkit-transform:translate(105.35311531478px,-65.89857383229705px) rotate(-315deg);transform:translate(105.35311531478px,-65.89857383229705px) rotate(-315deg);-webkit-animation-timing-function:cubic-bezier(.42,0,1,1);animation-timing-function:cubic-bezier(.42,0,1,1);-webkit-animation-name:kf_el_IIY0_C8clE_an_OF_hHaBX9;animation-name:kf_el_IIY0_C8clE_an_OF_hHaBX9}#el_9fagnayFTt{-webkit-animation-name:kf_el_9fagnayFTt_an_w_IsIjFKQ;animation-name:kf_el_9fagnayFTt_an_w_IsIjFKQ}#el_9fagnayFTt,#el_LctZZ8jzYy,#el_dALZ0DLFQi{stroke:#dfe2e8;stroke-width:1.15555556;-webkit-animation-timing-function:cubic-bezier(.42,0,1,1);animation-timing-function:cubic-bezier(.42,0,1,1)}#el_dALZ0DLFQi{-webkit-animation-fill-mode:forwards;animation-fill-mode:forwards;-webkit-animation-name:kf_el_dALZ0DLFQi_an_Pw1Ewl_c8;animation-name:kf_el_dALZ0DLFQi_an_Pw1Ewl_c8}#el_LctZZ8jzYy{-webkit-animation-name:kf_el_LctZZ8jzYy_an_Wzxr2CYMP;animation-name:kf_el_LctZZ8jzYy_an_Wzxr2CYMP}#el_-tbPXYp1LK,#el_EwhvcAwarF,#el_LctZZ8jzYy,#el_SuX2PSWCPB{-webkit-animation-fill-mode:forwards;animation-fill-mode:forwards}#el_EwhvcAwarF{fill:#dfe2e8;-webkit-transform:translate(39.82813988705088px,-69.47585143763814px) rotate(39deg);transform:translate(39.82813988705088px,-69.47585143763814px) rotate(39deg);-webkit-animation-name:kf_el_EwhvcAwarF_an_hY6ACrcxR;animation-name:kf_el_EwhvcAwarF_an_hY6ACrcxR;-webkit-animation-timing-function:cubic-bezier(0,0,1,1);animation-timing-function:cubic-bezier(0,0,1,1)}#el_-tbPXYp1LK,#el_SuX2PSWCPB{stroke:#e0e4e9;stroke-width:1.15555556}#el_SuX2PSWCPB{-webkit-transform:translate(286.704772321547px,95.93007489719112px) scale(-1,1) rotate(-37deg);transform:translate(286.704772321547px,95.93007489719112px) scale(-1,1) rotate(-37deg);-webkit-animation-name:kf_el_SuX2PSWCPB_an_8gLn4J4iU;animation-name:kf_el_SuX2PSWCPB_an_8gLn4J4iU;-webkit-animation-timing-function:cubic-bezier(.42,0,1,1);animation-timing-function:cubic-bezier(.42,0,1,1)}#el_-tbPXYp1LK{-webkit-transform:translate(52.364307746418575px,17.520852280807492px) scale(-1,1) rotate(-37deg);transform:translate(52.364307746418575px,17.520852280807492px) scale(-1,1) rotate(-37deg);-webkit-animation-name:kf_el_-tbPXYp1LK_an_LRuHIA7Xi;animation-name:kf_el_-tbPXYp1LK_an_LRuHIA7Xi;-webkit-animation-timing-function:cubic-bezier(0,0,.58,1);animation-timing-function:cubic-bezier(0,0,.58,1)}#el_LVkhaTGwWK{-webkit-transform:translate(49px,1px);transform:translate(49px,1px)}#el_VsOxXze95d{-webkit-transform:translate(.666667px,0);transform:translate(.666667px,0)}#el_IOhTK2sEsg{fill:#000;fill-opacity:1}#el_4KyWsU08be{fill:#e0e4e9}#el_glpS7fX3UU{fill:#fff}#el_e4-t89Q00Gn{fill:#f1f1f5}#el_LJpRYQBgNwv{fill:#fff;opacity:.747551306}#el_Ez4T6o8bEH1,#el_KFhn6QtdXgh,#el_SrtwKXOGiDR{-webkit-animation-fill-mode:forwards;animation-fill-mode:forwards}#el_SrtwKXOGiDR{stroke:#dfe2e8;stroke-width:1.15555556;-webkit-animation-name:kf_el_SrtwKXOGiDR_an_rCWt2Agfd;animation-name:kf_el_SrtwKXOGiDR_an_rCWt2Agfd;-webkit-animation-timing-function:cubic-bezier(.42,0,1,1);animation-timing-function:cubic-bezier(.42,0,1,1)}#el_Ez4T6o8bEH1,#el_KFhn6QtdXgh{fill:#dfe2e8}#el_Ez4T6o8bEH1{-webkit-transform:translate(70.2762828621008px,14.538208801390681px) rotate(-315deg);transform:translate(70.2762828621008px,14.538208801390681px) rotate(-315deg);-webkit-animation-name:kf_el_Ez4T6o8bEH1_an_q20b8_bqW;animation-name:kf_el_Ez4T6o8bEH1_an_q20b8_bqW;-webkit-animation-timing-function:cubic-bezier(0,0,.58,1);animation-timing-function:cubic-bezier(0,0,.58,1)}#el_KFhn6QtdXgh{-webkit-transform:translate(78.70165056410173px,26.333203915639693px) scale(-1,1) rotate(-37deg);transform:translate(78.70165056410173px,26.333203915639693px) scale(-1,1) rotate(-37deg);-webkit-animation-name:kf_el_KFhn6QtdXgh_an_d6RTsgAcC;animation-name:kf_el_KFhn6QtdXgh_an_d6RTsgAcC;-webkit-animation-timing-function:cubic-bezier(.42,0,1,1);animation-timing-function:cubic-bezier(.42,0,1,1)}#el_GHmT--RfwTW{fill:#dfe2e8;-webkit-transform:translate(287.9724229906517px,96.35422487778969px) scale(-1,1) rotate(-37deg);transform:translate(287.9724229906517px,96.35422487778969px) scale(-1,1) rotate(-37deg);-webkit-animation-name:kf_el_GHmT--RfwTW_an_vM9-IVpxZ;animation-name:kf_el_GHmT--RfwTW_an_vM9-IVpxZ}#el_GHmT--RfwTW,#el_Nqjyr5OwqpK,#el_V7rsM87wb8O{-webkit-animation-fill-mode:forwards;animation-fill-mode:forwards;-webkit-animation-timing-function:cubic-bezier(.42,0,1,1);animation-timing-function:cubic-bezier(.42,0,1,1)}#el_Nqjyr5OwqpK{fill:#dfe2e8;-webkit-transform:translate(17.704416251439998px,-21.392283828481695px) rotate(-315deg);transform:translate(17.704416251439998px,-21.392283828481695px) rotate(-315deg);-webkit-animation-name:kf_el_Nqjyr5OwqpK_an_jyIbdwqHm;animation-name:kf_el_Nqjyr5OwqpK_an_jyIbdwqHm}#el_V7rsM87wb8O{-webkit-transform:translate(35px,22px);transform:translate(35px,22px);-webkit-animation-name:kf_el_V7rsM87wb8O_an_Lyh_KRvu-;animation-name:kf_el_V7rsM87wb8O_an_Lyh_KRvu-}#el_q2pCWcGywDW{fill:url(#linearGradient-6);stroke:#fff;stroke-width:4.84400448}#el_iKJxHiPPd86{fill-opacity:.6;fill:#fff}#el_oWTuqOUxaeX{-webkit-transform:translate(20px,22px);transform:translate(20px,22px);fill:#fff;opacity:.6}#el_V7rsM87wb8O_an_tvKAjSnRd{-webkit-animation-fill-mode:forwards;animation-fill-mode:forwards;-webkit-animation-name:kf_el_V7rsM87wb8O_an_tvKAjSnRd;animation-name:kf_el_V7rsM87wb8O_an_tvKAjSnRd;-webkit-animation-timing-function:cubic-bezier(.42,0,1,1);animation-timing-function:cubic-bezier(.42,0,1,1)}</style><defs><rect id="path-1" x="0" y="0" width="61.078" height="100.692" rx="3.855"/><filter x="-13.9%" y="-6.5%" width="127.8%" height="116.9%" filterUnits="objectBoundingBox" id="filter-2"><feOffset dy="2" in="SourceAlpha" result="shadowOffsetOuter1"/><feGaussianBlur stdDeviation="2.5" in="shadowOffsetOuter1" result="shadowBlurOuter1"/><feColorMatrix values="0 0 0 0 0 0 0 0 0 0 0 0 0 0 0 0 0 0 0.161769701 0" in="shadowBlurOuter1"/></filter><rect id="path-3" x="4.24" y="7.976" width="52.654" height="78.172" rx="1.795"/><filter x="-20.3%" y="-46.2%" width="140.7%" height="192.5%" filterUnits="objectBoundingBox" id="filter-5"><feOffset dy="2" in="SourceAlpha" result="shadowOffsetOuter1"/><feGaussianBlur stdDeviation="2.5" in="shadowOffsetOuter1" result="shadowBlurOuter1"/><feColorMatrix values="0 0 0 0 0 0 0 0 0 0 0 0 0 0 0 0 0 0 0.15 0" in="shadowBlurOuter1" result="shadowMatrixOuter1"/><feMerge><feMergeNode in="shadowMatrixOuter1"/><feMergeNode in="SourceGraphic"/></feMerge></filter><linearGradient x1="0%" y1="100%" x2="103.234%" y2="-4.459%" id="linearGradient-6"><stop stop-color="#7282FB" offset="0%"/><stop stop-color="#755BF9" offset="68.714%"/><stop stop-color="#7934F7" offset="100%"/></linearGradient></defs><g id="el_OBTpFeqY_9" fill-rule="evenodd"><path id="el_uapR0U6OiG" d="M0 0h160v104H0z"/><path d="M127.9 89.836c3.705 3.761 4.954 3.767 8.737.04-3.783 3.727-3.796 4.977-.093 8.734-3.703-3.757-4.954-3.766-8.735-.035 3.781-3.731 3.796-4.978.092-8.739z" id="el_IIY0_C8clE"/><path d="M143.5 54l-3.5 1.33v1.774c.001 2.254 1.404 4.262 3.5 5.012 2.096-.75 3.499-2.758 3.5-5.012V55.33L143.5 54z" id="el_9fagnayFTt"/><path d="M133.842 11L131 12.08v1.44c.001 1.83 1.14 3.462 2.842 4.07 1.703-.608 2.841-2.24 2.842-4.07v-1.44L133.842 11z" id="el_dALZ0DLFQi"/><path d="M17.842 42L15 43.08v1.44c.001 1.83 1.14 3.462 2.842 4.07 1.703-.608 2.841-2.24 2.842-4.07v-1.44L17.842 42z" id="el_LctZZ8jzYy"/><path d="M118.485 21.027h.748c.633 0 1.146.515 1.146.941v-.941c0 .52-.525.941-1.146.941h-.748v1.415c0 .259-.22.469-.474.469a.466.466 0 0 1-.474-.469v-1.415h-.748c-.633 0-1.147-.514-1.147-.941v.941c0-.52.525-.941 1.147-.941h.748v-1.415c0-.258.22-.468.474-.468.262 0 .474.202.474.468v1.415z" id="el_EwhvcAwarF"/><circle id="el_SuX2PSWCPB" cx="148.019" cy="34.019" r="2.733"/><circle id="el_-tbPXYp1LK" cx="21.241" cy="23.529" r="1.733"/><g id="el_LVkhaTGwWK"><g id="el_VsOxXze95d"><g id="el_NUaO-H-FQ8"><use filter="url(#filter-2)" xlink:href="#path-1" id="el_IOhTK2sEsg"/><use fill-rule="evenodd" xlink:href="#path-1" id="el_4KyWsU08be"/></g><mask id="mask-4" fill="#fff"><use xlink:href="#path-3"/></mask><use id="el_glpS7fX3UU" xlink:href="#path-3"/></g><rect id="el_e4-t89Q00Gn" x="26.4" y="2.311" width="9.244" height="2.311" rx="1.156"/><circle id="el_LJpRYQBgNwv" cx="31.022" cy="92.444" r="4.622"/></g><path d="M37.573 92.133L33.8 93.538v1.874a5.62 5.62 0 0 0 3.773 5.293 5.62 5.62 0 0 0 3.774-5.293v-1.874l-3.774-1.405z" id="el_SrtwKXOGiDR"/><path d="M14.398 88.869c2.735 2.77 3.656 2.775 6.45.028-2.794 2.747-2.803 3.667-.07 6.434-2.733-2.767-3.656-2.773-6.448-.026 2.792-2.748 2.803-3.666.068-6.436z" id="el_Ez4T6o8bEH1"/><path d="M22.867 64.148h1.162c.467 0 .846.38.846.855a.85.85 0 0 1-.846.855h-1.162v1.13a.861.861 0 0 1-.86.866.866.866 0 0 1-.861-.866v-1.13h-1.161a.849.849 0 0 1-.847-.855.85.85 0 0 1 .847-.855h1.161v-1.13c0-.478.382-.866.86-.866.476 0 .861.392.861.866v1.13z" id="el_KFhn6QtdXgh"/><path d="M134.867 77.148h1.162c.467 0 .846.38.846.855a.85.85 0 0 1-.846.855h-1.162v1.13a.861.861 0 0 1-.86.866.866.866 0 0 1-.861-.866v-1.13h-1.161a.849.849 0 0 1-.847-.855.85.85 0 0 1 .847-.855h1.161v-1.13c0-.478.382-.866.86-.866.476 0 .861.392.861.866v1.13z" id="el_GHmT--RfwTW"/><path d="M31.428 7.38c2.783 2.825 3.72 2.83 6.563.028-2.842 2.801-2.852 3.74-.07 6.563-2.782-2.823-3.721-2.83-6.562-.027 2.84-2.803 2.852-3.74.069-6.565z" id="el_Nqjyr5OwqpK"/><g id="el_V7rsM87wb8O_an_tvKAjSnRd" data-animator-group="true" data-animator-type="2"><g id="el_V7rsM87wb8O"><g id="el_w_0Wa8RZeKZ"><g id="el_q2pCWcGywDW" filter="url(#filter-5)"><g id="el_EhtI2VSLVGF"><rect x="-2.422" y="-2.422" width="95.384" height="44.043" rx="3.229" id="el_SvGi6UkJRe-"/></g></g><path d="M46.714 11.759c0 1.028-.767 1.862-1.714 1.862-.946 0-1.714-.834-1.714-1.862 0-1.029.768-1.862 1.714-1.862.947 0 1.714.833 1.714 1.862m-5.143 4.83c.03-.404.234-.778.568-1.1.075-.07.146-.143.233-.208.67-.508 1.694-.833 2.842-.833 1.149 0 2.172.325 2.842.833.087.065.159.138.233.209.334.32.538.695.568 1.1a5 5 0 0 1-3.578 1.582h-.13a5 5 0 0 1-3.578-1.583M45 7a6 6 0 1 0 0 12 6 6 0 0 0 0-12" id="el_iKJxHiPPd86"/><g id="el_oWTuqOUxaeX"><path d="M5.233 4.01c.478-.228.927-.454 1.362-.681.436-.227.777-.39 1.03-.497.253-.106.459-.16.613-.16.258 0 .478.088.665.266.187.179.28.396.28.661a.97.97 0 0 1-.135.468c-.089.16-.187.265-.29.309-.946.386-1.98.66-3.118.835.206.197.46.458.759.781.3.323.458.497.472.521.108.16.263.352.46.589.196.236.332.415.411.55a.93.93 0 0 1 .117.482.91.91 0 0 1-.94.902c-.277 0-.59-.222-.937-.665-.346-.444-.796-1.245-1.343-2.398a97.309 97.309 0 0 1-1.119 2.06c-.192.333-.374.584-.548.753a.841.841 0 0 1-.603.255.877.877 0 0 1-.675-.29c-.177-.192-.266-.395-.266-.617 0-.202.037-.357.107-.463a17.22 17.22 0 0 1 2.107-2.456 19.417 19.417 0 0 1-1.648-.328c-.482-.12-.992-.299-1.535-.53-.09-.044-.173-.15-.258-.31A.965.965 0 0 1 .075 3.6c0-.265.094-.482.28-.66a.904.904 0 0 1 .642-.266c.178 0 .393.053.66.164.267.11.6.265 1.002.473.402.207.87.439 1.385.694A17.13 17.13 0 0 1 3.81 2.37c-.06-.618-.093-1.033-.093-1.26 0-.28.084-.516.257-.718a.829.829 0 0 1 .665-.3.82.82 0 0 1 .65.3c.169.198.258.463.258.796 0 .092-.014.27-.038.535-.023.266-.06.594-.107.975s-.113.82-.169 1.312z" id="el_vsz4PwJTv6u"/><path d="M18.757 4.01c.478-.228.927-.454 1.363-.681.435-.227.777-.39 1.03-.497.252-.106.458-.16.613-.16.257 0 .477.088.664.266a.874.874 0 0 1 .281.661.97.97 0 0 1-.136.468c-.089.16-.187.265-.29.309-.945.386-1.98.66-3.117.835.206.197.458.458.758.781s.459.497.473.521c.107.16.262.352.458.589.197.236.333.415.412.55a.93.93 0 0 1 .117.482.91.91 0 0 1-.94.902c-.277 0-.59-.222-.937-.665-.346-.444-.795-1.245-1.343-2.398a97.309 97.309 0 0 1-1.119 2.06c-.192.333-.374.584-.547.753a.841.841 0 0 1-.604.255.877.877 0 0 1-.674-.29c-.178-.192-.267-.395-.267-.617 0-.202.037-.357.108-.463a17.22 17.22 0 0 1 2.106-2.456 19.417 19.417 0 0 1-1.648-.328c-.482-.12-.992-.299-1.535-.53-.089-.044-.173-.15-.257-.31a.965.965 0 0 1-.127-.448.87.87 0 0 1 .281-.66.904.904 0 0 1 .641-.266c.178 0 .393.053.66.164.267.11.6.265 1.002.473.403.207.87.439 1.386.694a17.13 17.13 0 0 1-.235-1.635c-.06-.618-.093-1.033-.093-1.26 0-.28.084-.516.257-.718a.829.829 0 0 1 .665-.3.82.82 0 0 1 .65.3c.17.198.258.463.258.796 0 .092-.014.27-.037.535-.024.266-.061.594-.108.975s-.112.82-.169 1.312z" id="el_81RRVlsYt85"/><path d="M32.282 4.01c.477-.228.927-.454 1.362-.681.435-.227.777-.39 1.03-.497.252-.106.458-.16.613-.16.257 0 .477.088.664.266a.87.87 0 0 1 .281.661.97.97 0 0 1-.135.468c-.09.16-.188.265-.29.309-.946.386-1.98.66-3.118.835.206.197.459.458.758.781.3.323.459.497.473.521.108.16.262.352.459.589.196.236.332.415.412.55a.93.93 0 0 1 .117.482.91.91 0 0 1-.94.902c-.277 0-.591-.222-.937-.665-.347-.444-.796-1.245-1.344-2.398a97.309 97.309 0 0 1-1.118 2.06c-.192.333-.375.584-.548.753a.841.841 0 0 1-.604.255.877.877 0 0 1-.674-.29c-.178-.192-.267-.395-.267-.617 0-.202.038-.357.108-.463a17.22 17.22 0 0 1 2.106-2.456 19.417 19.417 0 0 1-1.647-.328c-.483-.12-.993-.299-1.536-.53-.089-.044-.173-.15-.257-.31a.965.965 0 0 1-.127-.448.87.87 0 0 1 .281-.66.904.904 0 0 1 .642-.266c.177 0 .393.053.66.164.266.11.599.265 1.001.473.403.207.87.439 1.386.694a17.13 17.13 0 0 1-.234-1.635c-.061-.618-.094-1.033-.094-1.26 0-.28.084-.516.258-.718a.829.829 0 0 1 .664-.3.82.82 0 0 1 .65.3c.17.198.258.463.258.796 0 .092-.014.27-.037.535-.024.266-.061.594-.108.975s-.107.82-.168 1.312z" id="el_rwdRW1iPa5_"/><path d="M45.81 4.01c.478-.228.927-.454 1.363-.681.435-.227.777-.39 1.03-.497.252-.106.458-.16.613-.16.257 0 .477.088.664.266a.87.87 0 0 1 .281.661.97.97 0 0 1-.135.468c-.09.16-.188.265-.29.309-.946.386-1.985.66-3.118.835.206.197.459.458.758.781.3.323.459.497.473.521.108.16.262.352.459.589.196.236.332.415.412.55a.93.93 0 0 1 .117.482.91.91 0 0 1-.94.902c-.277 0-.591-.222-.937-.665-.347-.444-.796-1.245-1.344-2.398a97.309 97.309 0 0 1-1.119 2.06c-.191.333-.374.584-.547.753a.841.841 0 0 1-.604.255.877.877 0 0 1-.674-.29c-.178-.192-.267-.395-.267-.617 0-.202.038-.357.108-.463a17.22 17.22 0 0 1 2.106-2.456 19.417 19.417 0 0 1-1.648-.328c-.482-.12-.992-.299-1.535-.53-.089-.044-.173-.15-.257-.31a.965.965 0 0 1-.127-.448.87.87 0 0 1 .281-.66.904.904 0 0 1 .641-.266c.178 0 .394.053.66.164.267.11.6.265 1.002.473.403.207.87.439 1.386.694a17.13 17.13 0 0 1-.234-1.635c-.061-.618-.094-1.033-.094-1.26 0-.28.084-.516.257-.718a.829.829 0 0 1 .665-.3.82.82 0 0 1 .65.3c.17.198.258.463.258.796 0 .092-.014.27-.037.535-.024.266-.061.594-.108.975s-.112.82-.168 1.312z" id="el_iFBJe0HdNhC"/></g></g></g></g></g></svg>