<svg width="160" height="104" xmlns="http://www.w3.org/2000/svg" xmlns:xlink="http://www.w3.org/1999/xlink"><defs><rect id="path-1" x="4.229" y="7.523" width="49.468" height="73.739" rx="1.718"/><linearGradient x1="83.361%" y1="21.875%" x2="14.719%" y2="77.143%" id="linearGradient-3"><stop stop-color="#EEEFF1" offset="0%"/><stop stop-color="#D8DADE" offset="100%"/></linearGradient><path d="M22 1.583C22 .709 21.18 0 20.167 0H1.837A1.98 1.98 0 0 0 .5.497c-.347.317-.527.745-.497 1.18v28.777c-.003.436.203.854.569 1.156l9.165 7.914a1.86 1.86 0 0 0 1.265.477c.48 0 .938-.173 1.264-.477 0 0 9.166-7.914 9.294-8.089.276-.278.431-.63.44-.997V1.582z" id="path-4"/><filter x="-56.8%" y="-21.2%" width="213.6%" height="162.5%" filterUnits="objectBoundingBox" id="filter-5"><feOffset dy="4" in="SourceAlpha" result="shadowOffsetOuter1"/><feGaussianBlur stdDeviation="3.5" in="shadowOffsetOuter1" result="shadowBlurOuter1"/><feColorMatrix values="0 0 0 0 0 0 0 0 0 0 0 0 0 0 0 0 0 0 0.15 0" in="shadowBlurOuter1"/></filter><linearGradient x1="0%" y1="100%" x2="100%" y2="0%" id="linearGradient-6"><stop stop-color="#7282FB" offset="0%"/><stop stop-color="#755BF9" offset="68.714%"/><stop stop-color="#7934F7" offset="100%"/></linearGradient></defs><g id="Edit-phone-number" stroke="none" stroke-width="1" fill="none" fill-rule="evenodd"><path fill="#FFF" d="M0 0h160v104H0z"/><g id="phone-copy" transform="translate(51 4)"><g id="Group-20-Copy"><rect id="phone" fill="#E0E4E9" x=".104" y="0" width="57.382" height="94.982" rx="3.689"/><mask id="mask-2" fill="#fff"><use xlink:href="#path-1"/></mask><use id="screen-copy" fill="#FFF" xlink:href="#path-1"/></g><rect id="ear-copy" fill="#FFF" x="24.299" y="2.18" width="8.685" height="2.18" rx="1.09"/><ellipse id="home-copy" fill="#FFF" cx="28.642" cy="87.202" rx="4.343" ry="4.36"/><path d="M29.932 21.732c0 .91-.676 1.647-1.51 1.647s-1.51-.737-1.51-1.647.676-1.646 1.51-1.646 1.51.737 1.51 1.646m-4.53 4.272c.026-.358.206-.688.5-.972.066-.063.129-.127.205-.185.59-.45 1.492-.736 2.504-.736 1.011 0 1.912.287 2.503.736.076.058.14.122.205.185.294.284.474.614.5.972a4.395 4.395 0 0 1-3.152 1.4h-.113a4.395 4.395 0 0 1-3.152-1.4m3.02-8.48c-2.919 0-5.285 2.376-5.285 5.306s2.366 5.306 5.285 5.306c2.918 0 5.284-2.376 5.284-5.306s-2.366-5.306-5.284-5.306" id="Fill-1-Copy" fill="url(#linearGradient-3)"/></g><path d="M129.9 88.836c3.705 3.761 4.954 3.767 8.737.04-3.783 3.727-3.796 4.977-.093 8.734-3.703-3.757-4.954-3.766-8.735-.035 3.781-3.731 3.796-4.978.092-8.739z" id="Path-Copy-16" fill="#DFE2E8" transform="rotate(45 134.223 93.223)"/><path d="M133.5 42l-3.5 1.311v1.749a5.243 5.243 0 0 0 3.5 4.94 5.243 5.243 0 0 0 3.5-4.94v-1.75L133.5 42z" id="Path-Copy-6" stroke="#DFE2E8" stroke-width="1.156"/><path d="M131 8l-3 1.147v1.53c.001 1.944 1.203 3.676 3 4.323 1.797-.647 2.999-2.38 3-4.323v-1.53L131 8z" id="Path-Copy-9" stroke="#DFE2E8" stroke-width="1.156"/><path d="M120.485 20.027h.748c.633 0 1.146.515 1.146.941v-.941c0 .52-.525.941-1.146.941h-.748v1.415c0 .259-.22.469-.474.469a.466.466 0 0 1-.474-.469v-1.415h-.748c-.633 0-1.147-.514-1.147-.941v.941c0-.52.525-.941 1.147-.941h.748v-1.415c0-.258.22-.468.474-.468.262 0 .474.202.474.468v1.415z" id="Combined-Shape-Copy-9" fill="#DFE2E8" transform="rotate(39 120.01 20.498)"/><circle id="Oval-2-Copy-4" stroke="#E0E4E9" stroke-width="1.156" transform="scale(-1 1) rotate(-37 0 457.457)" cx="143.019" cy="30.019" r="2.733"/><circle id="Oval-2-Copy-6" stroke="#E0E4E9" stroke-width="1.156" transform="scale(-1 1) rotate(-37 0 79.898)" cx="16.355" cy="31.019" r="2.733"/><circle id="Oval-2-Copy-5" stroke="#E0E4E9" stroke-width="1.156" transform="scale(-1 1) rotate(-37 0 118.115)" cx="31.618" cy="23.618" r="1.733"/><path d="M40 91l-4 1.475v1.967c.001 2.5 1.604 4.726 4 5.558 2.396-.832 3.999-3.059 4-5.558v-1.967L40 91z" id="Path-Copy-11" stroke="#DFE2E8" stroke-width="1.156"/><path d="M23.398 81.21c2.735 2.77 3.656 2.774 6.45.028-2.794 2.746-2.803 3.667-.07 6.434-2.733-2.767-3.656-2.773-6.448-.026 2.792-2.748 2.803-3.666.068-6.436z" id="Path-Copy-17" fill="#DFE2E8" transform="rotate(45 26.589 84.44)"/><path d="M26.867 63.148h1.162c.467 0 .846.38.846.855a.85.85 0 0 1-.846.855h-1.162v1.13a.861.861 0 0 1-.86.866.866.866 0 0 1-.861-.866v-1.13h-1.161a.849.849 0 0 1-.847-.855.85.85 0 0 1 .847-.855h1.161v-1.13c0-.478.382-.866.86-.866.476 0 .861.392.861.866v1.13z" id="Combined-Shape-Copy" fill="#DFE2E8" transform="scale(-1 1) rotate(-37 0 141.729)"/><path d="M139.867 69.53h1.162a.85.85 0 0 1 .846.856.85.85 0 0 1-.846.855h-1.162v1.13a.861.861 0 0 1-.86.866.866.866 0 0 1-.861-.866v-1.13h-1.161a.849.849 0 0 1-.847-.855.85.85 0 0 1 .847-.855h1.161V68.4c0-.478.382-.866.86-.866.476 0 .861.392.861.866v1.13z" id="Combined-Shape-Copy-2" fill="#DFE2E8" transform="scale(-1 1) rotate(-37 0 485.833)"/><path d="M34.5 37L32 38.147v1.53c0 1.944 1.003 3.676 2.5 4.323 1.497-.647 2.5-2.38 2.5-4.323v-1.53L34.5 37z" id="Path-Copy-12" stroke="#DFE2E8" stroke-width="1.156"/><path d="M34.917 7.002c2.783 2.825 3.72 2.83 6.563.029-2.842 2.8-2.852 3.74-.07 6.562-2.782-2.822-3.721-2.83-6.562-.027 2.84-2.803 2.852-3.74.069-6.564z" id="Path-Copy-13" fill="#DFE2E8" transform="rotate(45 38.164 10.297)"/><g id="Group-13-Copy-8" transform="rotate(60 36.35 112.959)"><g id="Path-Copy-3"><use fill="#000" filter="url(#filter-5)" xlink:href="#path-4"/><use fill="#FFF" xlink:href="#path-4"/></g><g id="FUJICONS-Copy-3" transform="translate(3 5)" fill="url(#linearGradient-6)"><g id="compose-fill"><path d="M15.202 23.259a1.208 1.208 0 0 1-.288.76c0 .108-6.084 6.157-6.084 6.157a1.196 1.196 0 0 1-1.668 0l-6-6.025a1.208 1.208 0 0 1-.36-.88v-13.04h14.4V23.26zm0-15.498H.802V1.277A1.2 1.2 0 0 1 2.002 0h12c.663 0 1.2.54 1.2 1.205v6.556z" id="Fill-1"/></g></g></g></g></svg>