<?xml version="1.0" encoding="UTF-8"?>
<svg width="48px" height="48px" viewBox="0 0 48 48" version="1.1" xmlns="http://www.w3.org/2000/svg" xmlns:xlink="http://www.w3.org/1999/xlink">
    <!-- Generator: Sketch 57.1 (83088) - https://sketch.com -->
    <title>call this number white theme</title>
    <desc>Created with Sketch.</desc>
    <g id="call-this-number-white-theme" stroke="none" stroke-width="1" fill="none" fill-rule="evenodd">
        <g id="Group" transform="translate(2.000000, 2.000000)" fill="#1D2228">
            <circle id="Oval-Copy" cx="22" cy="22" r="22"></circle>
        </g>
        <path d="M35.7107626,32.8124312 C36.1458103,32.3564478 36.0820173,31.6212268 35.5737644,31.2478642 L29.9170982,27.0854467 C29.6410102,26.882555 29.282305,26.8271258 28.957065,26.93903 L25.0301317,28.2557344 C24.2667066,27.6345093 23.5074647,26.9724967 22.7670469,26.2320465 C22.0182628,25.4821838 21.3468671,24.7134962 20.7193944,23.9385335 L22.0412702,20.0229327 C22.1531695,19.6976785 22.0977427,19.3389576 21.8948599,19.0628575 L17.7535402,13.4268605 C17.3791481,12.9185854 16.6450051,12.8537437 16.1879958,13.2888105 L13.7042498,15.6586693 C11.6179031,17.7440614 14.324402,23.8308127 19.7457659,29.2534596 C25.1681757,34.6750608 31.253615,37.381678 33.3410074,35.2962859 L35.7107626,32.8124312 Z" id="Fill-11" fill="#FFFFFF"></path>
    </g>
</svg>