<svg width="16" height="16" viewBox="0 0 16 16" fill="none" xmlns="http://www.w3.org/2000/svg">
<path d="M15.1441 13.2964C15.4214 13.0058 15.3808 12.5371 15.0568 12.2991L11.4508 9.64576C11.2748 9.51643 11.0461 9.48109 10.8388 9.55243L8.33545 10.3918C7.84878 9.99576 7.36478 9.57376 6.89278 9.10176C6.41545 8.62376 5.98745 8.13376 5.58745 7.63976L6.43011 5.14376C6.50145 4.93643 6.46611 4.70776 6.33678 4.53176L3.69678 0.939094C3.45811 0.615094 2.99011 0.573761 2.69878 0.851094L1.11545 2.36176C-0.214552 3.69109 1.51078 7.57109 4.96678 11.0278C8.42345 14.4838 12.3028 16.2091 13.6334 14.8798L15.1441 13.2964Z" fill="#232A31"/>
</svg>
