<svg width="16" height="16" viewBox="0 0 16 16" fill="none" xmlns="http://www.w3.org/2000/svg">
<g id="Communication - Compose / phone">
<path id="&#240;&#159;&#142;&#168; Color" d="M15.1443 13.2961C15.4216 13.0054 15.381 12.5367 15.057 12.2987L11.451 9.64539C11.275 9.51606 11.0463 9.48073 10.839 9.55206L8.33563 10.3914C7.84896 9.99539 7.36496 9.57339 6.89296 9.10139C6.41563 8.62339 5.98763 8.13339 5.58763 7.63939L6.4303 5.14339C6.50163 4.93606 6.4663 4.70739 6.33696 4.53139L3.69696 0.938728C3.4583 0.614728 2.9903 0.573395 2.69896 0.850728L1.11563 2.36139C-0.214369 3.69073 1.51096 7.57073 4.96696 11.0274C8.42363 14.4834 12.303 16.2087 13.6336 14.8794L15.1443 13.2961Z" fill="#0F69FF"/>
</g>
</svg>
