<svg width="16" height="16" viewBox="0 0 16 16" fill="none" xmlns="http://www.w3.org/2000/svg">
<path d="M15.1443 13.2961C15.4216 13.0055 15.3809 12.5368 15.0569 12.2988L11.4509 9.64546C11.2749 9.51612 11.0463 9.48079 10.8389 9.55212L8.3356 10.3915C7.84893 9.99546 7.36493 9.57345 6.89293 9.10145C6.4156 8.62346 5.9876 8.13346 5.5876 7.63946L6.43027 5.14346C6.5016 4.93612 6.46627 4.70746 6.33693 4.53146L3.69693 0.938789C3.45827 0.614789 2.99027 0.573456 2.69893 0.850789L1.1156 2.36146C-0.2144 3.69079 1.51093 7.57079 4.96693 11.0275C8.4236 14.4835 12.3029 16.2088 13.6336 14.8795L15.1443 13.2961Z" fill="#F0F3F5"/>
</svg>
