<?xml version="1.0" encoding="UTF-8"?>
<svg width="133px" height="111px" viewBox="0 0 133 111" version="1.1" xmlns="http://www.w3.org/2000/svg" xmlns:xlink="http://www.w3.org/1999/xlink">
    <!-- Generator: Sketch 52.5 (67469) - http://www.bohemiancoding.com/sketch -->
    <title>Group Copy</title>
    <desc>Created with Sketch.</desc>
    <defs>
        <rect id="path-1" x="0.848888889" y="0" width="61.0781297" height="100.691939" rx="3.85487291"></rect>
        <filter x="-13.9%" y="-6.5%" width="127.8%" height="116.9%" filterUnits="objectBoundingBox" id="filter-2">
            <feOffset dx="0" dy="2" in="SourceAlpha" result="shadowOffsetOuter1"></feOffset>
            <feGaussianBlur stdDeviation="2.5" in="shadowOffsetOuter1" result="shadowBlurOuter1"></feGaussianBlur>
            <feColorMatrix values="0 0 0 0 0   0 0 0 0 0   0 0 0 0 0  0 0 0 0.161769701 0" type="matrix" in="shadowBlurOuter1"></feColorMatrix>
        </filter>
        <rect id="path-3" x="5.24" y="7.97559913" width="52.6535601" height="78.1715837" rx="1.7945098"></rect>
        <path d="M97.5555556,67.4444444 L97.5555556,56.5555556 C97.5555556,55.6968889 96.8586667,55 96,55 C95.1405556,55 94.4444444,55.6968889 94.4444444,56.5555556 L94.4444444,67.4444444 L83.5555556,67.4444444 C82.6968889,67.4444444 82,68.1413333 82,69 C82,69.8594444 82.6968889,70.5555556 83.5555556,70.5555556 L94.4444444,70.5555556 L94.4444444,81.4444444 C94.4444444,82.3038889 95.1405556,83 96,83 C96.8586667,83 97.5555556,82.3038889 97.5555556,81.4444444 L97.5555556,70.5555556 L108.444444,70.5555556 C109.303111,70.5555556 110,69.8594444 110,69 C110,68.1413333 109.303111,67.4444444 108.444444,67.4444444 L97.5555556,67.4444444 Z" id="path-5"></path>
        <filter x="-39.3%" y="-32.1%" width="178.6%" height="178.6%" filterUnits="objectBoundingBox" id="filter-6">
            <feMorphology radius="4" operator="dilate" in="SourceAlpha" result="shadowSpreadOuter1"></feMorphology>
            <feOffset dx="0" dy="2" in="shadowSpreadOuter1" result="shadowOffsetOuter1"></feOffset>
            <feGaussianBlur stdDeviation="2" in="shadowOffsetOuter1" result="shadowBlurOuter1"></feGaussianBlur>
            <feComposite in="shadowBlurOuter1" in2="SourceAlpha" operator="out" result="shadowBlurOuter1"></feComposite>
            <feColorMatrix values="0 0 0 0 0   0 0 0 0 0   0 0 0 0 0  0 0 0 0.15 0" type="matrix" in="shadowBlurOuter1"></feColorMatrix>
        </filter>
        <linearGradient x1="0%" y1="100%" x2="100%" y2="0%" id="linearGradient-7">
            <stop stop-color="#7282FB" offset="0%"></stop>
            <stop stop-color="#755BF9" offset="68.7141263%"></stop>
            <stop stop-color="#7934F7" offset="100%"></stop>
        </linearGradient>
    </defs>
    <g id="Product-Jam-illustration-Final-" stroke="none" stroke-width="1" fill="none" fill-rule="evenodd">
        <g id="Group-Copy" transform="translate(0.000000, 3.000000)">
            <path d="M116.900724,87.8363893 C120.605168,91.59721 121.853761,91.6033619 125.637285,87.8751415 C121.853761,91.6033619 121.841176,92.8534549 125.544193,96.6099571 C121.841176,92.8534549 120.59043,92.8444277 116.809061,96.5748028 C120.590433,92.8437072 120.605168,91.59721 116.900724,87.8363893 Z" id="Path-Copy-16" fill="#DFE2E8" transform="translate(121.223173, 92.223173) rotate(-315.000000) translate(-121.223173, -92.223173) "></path>
            <path d="M120.5,41 L117,42.3112927 L117,44.0596829 C117.001296,46.2809522 118.403581,48.2603044 120.5,49 C122.596419,48.2603044 123.998704,46.2809522 124,44.0596829 L124,42.3112927 L120.5,41 Z" id="Path-Copy-6" stroke="#DFE2E8" stroke-width="1.15555556"></path>
            <path d="M118,7 L115,8.1473811 L115,9.67722257 C115.001111,11.6208332 116.20307,13.3527663 118,14 C119.79693,13.3527663 120.998889,11.6208332 121,9.67722257 L121,8.1473811 L118,7 Z" id="Path-Copy-9" stroke="#DFE2E8" stroke-width="1.15555556"></path>
            <path d="M107.484652,19.0268914 L108.232766,19.0268914 C108.866076,19.0268914 109.379476,19.5417516 109.379476,19.9684551 L109.379476,19.0268914 C109.379476,19.5469027 108.854428,19.9684551 108.232766,19.9684551 L107.484652,19.9684551 L107.484652,21.3829676 C107.484652,21.6417766 107.264915,21.8515827 107.010946,21.8515827 C106.749325,21.8515827 106.53724,21.6492936 106.53724,21.3829676 L106.53724,19.9684551 L105.789126,19.9684551 C105.155815,19.9684551 104.642416,19.4535949 104.642416,19.0268914 L104.642416,19.9684551 C104.642416,19.4484438 105.167463,19.0268914 105.789126,19.0268914 L106.53724,19.0268914 L106.53724,17.6123789 C106.53724,17.3535699 106.756976,17.1437638 107.010946,17.1437638 C107.272566,17.1437638 107.484652,17.3460529 107.484652,17.6123789 L107.484652,19.0268914 Z" id="Combined-Shape-Copy-9" fill="#DFE2E8" transform="translate(107.010946, 19.497673) rotate(39.000000) translate(-107.010946, -19.497673) "></path>
            <circle id="Oval-2-Copy-4" stroke="#E0E4E9" stroke-width="1.15555556" transform="translate(130.018749, 29.018749) scale(-1, 1) rotate(-37.000000) translate(-130.018749, -29.018749) " cx="130.018749" cy="29.0187488" r="2.73333328"></circle>
            <circle id="Oval-2-Copy-6" stroke="#E0E4E9" stroke-width="1.15555556" transform="translate(3.354612, 30.018749) scale(-1, 1) rotate(-37.000000) translate(-3.354612, -30.018749) " cx="3.35461215" cy="30.0187488" r="2.73333328"></circle>
            <circle id="Oval-2-Copy-5" stroke="#E0E4E9" stroke-width="1.15555556" transform="translate(18.618298, 22.618298) scale(-1, 1) rotate(-37.000000) translate(-18.618298, -22.618298) " cx="18.6182984" cy="22.6182984" r="1.73333333"></circle>
            <g id="Group-2" transform="translate(37.000000, 0.000000)">
                <g id="Group-20-Copy-2" transform="translate(0.666667, 0.000000)">
                    <g id="phone">
                        <use fill="black" fill-opacity="1" filter="url(#filter-2)" xlink:href="#path-1"></use>
                        <use fill="#F1F1F5" fill-rule="evenodd" xlink:href="#path-1"></use>
                    </g>
                    <mask id="mask-4" fill="white">
                        <use xlink:href="#path-3"></use>
                    </mask>
                    <use id="screen-copy" fill="#FFFFFF" xlink:href="#path-3"></use>
                </g>
                <rect id="ear-copy-2" fill="#D8DADE" x="27.4" y="2.31111111" width="9.24444444" height="2.31111111" rx="1.15555556"></rect>
                <circle id="home-copy-2" fill="#FFFFFF" opacity="0.747551306" cx="32.0222222" cy="92.4444444" r="4.62222222"></circle>
            </g>
            <path d="M27,90 L23,91.4752043 L23,93.4421433 C23.0014816,95.9410713 24.604093,98.1678424 27,99 C29.395907,98.1678424 30.9985184,95.9410713 31,93.4421433 L31,91.4752043 L27,90 Z" id="Path-Copy-11" stroke="#DFE2E8" stroke-width="1.15555556"></path>
            <path d="M10.3980809,80.209708 C13.1327514,82.9798627 14.0544794,82.9843942 16.8475274,80.2382522 C14.0544794,82.9843942 14.0451886,83.9051908 16.7788054,86.6721646 C14.0451886,83.9051908 13.1218717,83.8985415 10.3304144,86.6462706 C13.1218734,83.8980108 13.1327514,82.9798627 10.3980809,80.209708 Z" id="Path-Copy-17" fill="#DFE2E8" transform="translate(13.588971, 83.440936) rotate(-315.000000) translate(-13.588971, -83.440936) "></path>
            <path d="M13.867137,62.147846 L15.0285851,62.147846 C15.4961068,62.147846 15.875108,62.5274601 15.875108,63.0030929 C15.875108,63.4754328 15.4986835,63.8583399 15.0285851,63.8583399 L13.867137,63.8583399 L13.867137,64.9879587 C13.867137,65.4662137 13.4851652,65.853916 13.006578,65.853916 C12.5313044,65.853916 12.146019,65.4620187 12.146019,64.9879587 L12.146019,63.8583399 L10.984571,63.8583399 C10.5170493,63.8583399 10.138048,63.4787258 10.138048,63.0030929 C10.138048,62.5307531 10.5144726,62.147846 10.984571,62.147846 L12.146019,62.147846 L12.146019,61.0182272 C12.146019,60.5399722 12.5279909,60.1522699 13.006578,60.1522699 C13.4818517,60.1522699 13.867137,60.5441671 13.867137,61.0182272 L13.867137,62.147846 Z" id="Combined-Shape-Copy" fill="#DFE2E8" transform="translate(13.006578, 63.003093) scale(-1, 1) rotate(-37.000000) translate(-13.006578, -63.003093) "></path>
            <path d="M126.867137,68.5308367 L128.028585,68.5308367 C128.496107,68.5308367 128.875108,68.9104507 128.875108,69.3860836 C128.875108,69.8584235 128.498684,70.2413305 128.028585,70.2413305 L126.867137,70.2413305 L126.867137,71.3709493 C126.867137,71.8492044 126.485165,72.2369067 126.006578,72.2369067 C125.531304,72.2369067 125.146019,71.8450094 125.146019,71.3709493 L125.146019,70.2413305 L123.984571,70.2413305 C123.517049,70.2413305 123.138048,69.8617165 123.138048,69.3860836 C123.138048,68.9137438 123.514473,68.5308367 123.984571,68.5308367 L125.146019,68.5308367 L125.146019,67.4012179 C125.146019,66.9229629 125.527991,66.5352606 126.006578,66.5352606 C126.481852,66.5352606 126.867137,66.9271578 126.867137,67.4012179 L126.867137,68.5308367 Z" id="Combined-Shape-Copy-2" fill="#DFE2E8" transform="translate(126.006578, 69.386084) scale(-1, 1) rotate(-37.000000) translate(-126.006578, -69.386084) "></path>
            <path d="M21.5,36 L19,37.1473811 L19,38.6772226 C19.000926,40.6208332 20.0025581,42.3527663 21.5,43 C22.9974419,42.3527663 23.999074,40.6208332 24,38.6772226 L24,37.1473811 L21.5,36 Z" id="Path-Copy-12" stroke="#DFE2E8" stroke-width="1.15555556"></path>
            <path d="M21.9169318,6.00157579 C24.699635,8.82693842 25.6375529,8.83156048 28.4796608,6.03069108 C25.6375529,8.83156048 25.6280986,9.77070782 28.4097295,12.5928262 C25.6280986,9.77070782 24.6885639,9.76392574 21.8480745,12.5664139 C24.6885656,9.76338446 24.699635,8.82693842 21.9169318,6.00157579 Z" id="Path-Copy-13" fill="#DFE2E8" transform="translate(25.163868, 9.297201) rotate(-315.000000) translate(-25.163868, -9.297201) "></path>
            <g id="New-Copy">
                <use fill="black" fill-opacity="1" filter="url(#filter-6)" xlink:href="#path-5"></use>
                <path stroke="#FFFFFF" stroke-width="4" d="M96.4444444,68.5555556 L95.5555556,68.5555556 L95.5555556,69.4444444 L96.4444444,69.4444444 L96.4444444,68.5555556 Z M99.5555556,65.4444444 L108.444444,65.4444444 C110.407681,65.4444444 112,67.0367638 112,69 C112,70.9639 110.407795,72.5555556 108.444444,72.5555556 L99.5555556,72.5555556 L99.5555556,81.4444444 C99.5555556,83.4083445 97.9633502,85 96,85 C94.0359861,85 92.4444444,83.4084584 92.4444444,81.4444444 L92.4444444,72.5555556 L83.5555556,72.5555556 C81.5922053,72.5555556 80,70.9639 80,69 C80,67.0367638 81.5923194,65.4444444 83.5555556,65.4444444 L92.4444444,65.4444444 L92.4444444,56.5555556 C92.4444444,54.5922053 94.0361,53 96,53 C97.9632362,53 99.5555556,54.5923194 99.5555556,56.5555556 L99.5555556,65.4444444 Z" fill="#FFFFFF" fill-rule="evenodd"></path>
            </g>
            <path d="M97.5555556,67.4444444 L97.5555556,56.5555556 C97.5555556,55.6968889 96.8586667,55 96,55 C95.1405556,55 94.4444444,55.6968889 94.4444444,56.5555556 L94.4444444,67.4444444 L83.5555556,67.4444444 C82.6968889,67.4444444 82,68.1413333 82,69 C82,69.8594444 82.6968889,70.5555556 83.5555556,70.5555556 L94.4444444,70.5555556 L94.4444444,81.4444444 C94.4444444,82.3038889 95.1405556,83 96,83 C96.8586667,83 97.5555556,82.3038889 97.5555556,81.4444444 L97.5555556,70.5555556 L108.444444,70.5555556 C109.303111,70.5555556 110,69.8594444 110,69 C110,68.1413333 109.303111,67.4444444 108.444444,67.4444444 L97.5555556,67.4444444 Z" id="New" fill="url(#linearGradient-7)"></path>
        </g>
    </g>
</svg>