<svg width="16" height="16" viewBox="0 0 16 16" fill="none" xmlns="http://www.w3.org/2000/svg">
<path fill-rule="evenodd" clip-rule="evenodd" d="M0.666748 7.99996C0.666748 3.94996 3.95008 0.666626 8.00008 0.666626C12.0501 0.666626 15.3334 3.94996 15.3334 7.99996C15.3334 12.05 12.0501 15.3333 8.00008 15.3333C3.95008 15.3333 0.666748 12.05 0.666748 7.99996ZM8.66675 5.33329V7.33329H10.6667C11.0347 7.33329 11.3334 7.63196 11.3334 7.99996C11.3334 8.36829 11.0347 8.66663 10.6667 8.66663H8.66675V10.6666C8.66675 11.035 8.36808 11.3333 8.00008 11.3333C7.63175 11.3333 7.33341 11.035 7.33341 10.6666V8.66663H5.33341C4.96541 8.66663 4.66675 8.36829 4.66675 7.99996C4.66675 7.63196 4.96541 7.33329 5.33341 7.33329H7.33341V5.33329C7.33341 4.96529 7.63175 4.66663 8.00008 4.66663C8.36808 4.66663 8.66675 4.96529 8.66675 5.33329Z" fill="white"/>
</svg>
