<svg width="16" height="16" viewBox="0 0 16 16" fill="none" xmlns="http://www.w3.org/2000/svg">
<path fill-rule="evenodd" clip-rule="evenodd" d="M0.666504 8.00033C0.666504 3.95033 3.94984 0.666992 7.99984 0.666992C12.0498 0.666992 15.3332 3.95033 15.3332 8.00033C15.3332 12.0503 12.0498 15.3337 7.99984 15.3337C3.94984 15.3337 0.666504 12.0503 0.666504 8.00033ZM8.6665 5.33366V7.33366H10.6665C11.0345 7.33366 11.3332 7.63233 11.3332 8.00033C11.3332 8.36866 11.0345 8.66699 10.6665 8.66699H8.6665V10.667C8.6665 11.0353 8.36784 11.3337 7.99984 11.3337C7.6315 11.3337 7.33317 11.0353 7.33317 10.667V8.66699H5.33317C4.96517 8.66699 4.6665 8.36866 4.6665 8.00033C4.6665 7.63233 4.96517 7.33366 5.33317 7.33366H7.33317V5.33366C7.33317 4.96566 7.6315 4.66699 7.99984 4.66699C8.36784 4.66699 8.6665 4.96566 8.6665 5.33366Z" fill="#0F69FF"/>
</svg>
