<svg width="16" height="16" viewBox="0 0 16 16" fill="none" xmlns="http://www.w3.org/2000/svg">
<path fill-rule="evenodd" clip-rule="evenodd" d="M0.666748 8C0.666748 3.95001 3.95008 0.666672 8.00008 0.666672C12.0501 0.666672 15.3334 3.95001 15.3334 8C15.3334 12.05 12.0501 15.3333 8.00008 15.3333C3.95008 15.3333 0.666748 12.05 0.666748 8ZM8.66675 5.33334V7.33334H10.6667C11.0347 7.33334 11.3334 7.632 11.3334 8C11.3334 8.36834 11.0347 8.66667 10.6667 8.66667H8.66675V10.6667C8.66675 11.035 8.36808 11.3333 8.00008 11.3333C7.63175 11.3333 7.33341 11.035 7.33341 10.6667V8.66667H5.33341C4.96541 8.66667 4.66675 8.36834 4.66675 8C4.66675 7.632 4.96541 7.33334 5.33341 7.33334H7.33341V5.33334C7.33341 4.96534 7.63175 4.66667 8.00008 4.66667C8.36808 4.66667 8.66675 4.96534 8.66675 5.33334Z" fill="#101518"/>
</svg>
