<?xml version="1.0" encoding="UTF-8"?>
<svg id="Layer_2" data-name="Layer 2" xmlns="http://www.w3.org/2000/svg" width="48" height="48" viewBox="0 0 48 48">
  <g id="invisible_box" data-name="invisible box">
    <rect width="48" height="48" fill="none"/>
  </g>
  <g id="Icons">
    <g>
      <path d="M24,2S6,7.1,6,8V26.2c0,9.2,13.3,17.3,17,19.5,.3,.2,.6,.3,1,.3s.7,0,1-.3c3.8-2.1,17-10.3,17-19.5V8c0-.9-18-6-18-6Zm14,24.2c0,3.4-3.7,9.4-14,15.4-10.3-6.1-14-12-14-15.4V10.5c2.9-1.1,8.7-2.8,14-4.3,5.3,1.5,11.1,3.3,14,4.3v15.8Z"/>
      <path d="M22,16.6c-.4,.1-.7,.3-1,.4l-3.2-1.9-1.6,1.6,1.9,3.2c-.2,.3-.3,.7-.4,1l-3.6,.9v2.2l3.6,.9c.1,.4,.3,.7,.4,1l-1.9,3.2,1.6,1.6,3.2-1.9c.3,.2,.7,.3,1,.4l.9,3.6h2.2l.9-3.6c.4-.1,.7-.3,1-.4l3.2,1.9,1.6-1.6-1.9-3.2c.2-.3,.3-.7,.4-1l3.6-.9v-2.2l-3.6-.9c-.1-.4-.3-.7-.4-1l1.9-3.2-1.6-1.6-3.2,1.9c-.3-.2-.7-.3-1-.4l-.9-3.6h-2.2l-.9,3.6Zm5,6.4c0,1.7-1.3,3-3,3s-3-1.3-3-3,1.3-3,3-3,3,1.3,3,3Z"/>
    </g>
  </g>
</svg>