<svg xmlns="http://www.w3.org/2000/svg" viewBox="0 0 100 100"><defs><style>.cls-1{fill:#5e6e7a;}.cls-2{fill:#0f69ff;}.cls-2,.cls-3{fill-rule:evenodd;}.cls-3,.cls-4{fill:#fff;}.cls-5{fill:none;}</style></defs><g id="Layer_2" data-name="Layer 2"><g id="Layer_1-2" data-name="Layer 1"><path class="cls-1" d="M62.46,4.2l-41.13,0A10.93,10.93,0,0,0,10.39,15.1l0,73.57A10.93,10.93,0,0,0,21.27,99.61l41.13,0A10.93,10.93,0,0,0,73.34,88.71l0-73.57A10.93,10.93,0,0,0,62.46,4.2Zm6.48,76.17-54.18,0,0-64.74,54.17,0Z"/><path class="cls-2" d="M60.77.27A28.89,28.89,0,0,0,36.69,45.18l-.2.75L33.1,58.57l12.63-3.38,1.6-.43A28.9,28.9,0,1,0,60.77.27Z"/><path class="cls-3" d="M72.51,19.47a2.75,2.75,0,1,1,3.89,3.89L58.19,41.51a2.76,2.76,0,0,1-3.9,0l-7.78-7.77a2.75,2.75,0,1,1,3.9-3.88l5.83,5.83Z"/><circle class="cls-4" cx="41.84" cy="89.06" r="4.46"/><rect class="cls-5" width="100" height="100"/></g></g></svg>