<?xml version="1.0" encoding="UTF-8"?>
<svg width="20px" height="20px" viewBox="0 0 20 20" version="1.1" xmlns="http://www.w3.org/2000/svg" xmlns:xlink="http://www.w3.org/1999/xlink">
    <!-- Generator: Sketch 63.1 (92452) - https://sketch.com -->
    <title>qr-gradient@1x</title>
    <desc>Created with Sketch.</desc>
    <defs>
        <linearGradient x1="100%" y1="1.11022302e-14%" x2="3.74939946e-31%" y2="100%" id="linearGradient-1">
            <stop stop-color="#7764F9" offset="0%"></stop>
            <stop stop-color="#769FFC" offset="100%"></stop>
        </linearGradient>
    </defs>
    <g id="qr-ar" stroke="none" stroke-width="1" fill="none" fill-rule="evenodd">
        <g id="Comm-channel-selector" transform="translate(-34.000000, -404.000000)">
            <g id="qr-gradient" transform="translate(34.000000, 404.000000)">
                <rect id="Rectangle" x="0" y="0" width="20" height="20"></rect>
                <path d="M5,14.1666667 C5.46023729,14.1666667 5.83333333,14.5397627 5.83333333,15 L5.83333333,19.1666667 C5.83333333,19.626904 5.46023729,20 5,20 L0.833333333,20 C0.373096042,20 2.30926389e-13,19.626904 2.30926389e-13,19.1666667 L2.30926389e-13,15 C2.30926389e-13,14.5397627 0.373096042,14.1666667 0.833333333,14.1666667 L5,14.1666667 Z M14,7 C15.8639271,7 17.4300871,8.27489272 17.8740452,10.0002435 L19,10 C19.5522847,10 20,10.4477153 20,11 L20,19 C20,19.5522847 19.5522847,20 19,20 L9,20 C8.44771525,20 8,19.5522847 8,19 L8,11 C8,10.4477153 8.44771525,10 9,10 L10.1259548,10.0002435 C10.5699129,8.27489272 12.1360729,7 14,7 Z M3.91666667,15.8333333 L1.91666667,15.8333333 C1.77859548,15.8333333 1.66666667,15.9452621 1.66666667,16.0833333 L1.66666667,18.0833333 C1.66666667,18.2214045 1.77859548,18.3333333 1.91666667,18.3333333 L3.91666667,18.3333333 C4.05473785,18.3333333 4.16666667,18.2214045 4.16666667,18.0833333 L4.16666667,16.0833333 C4.16666667,15.9452621 4.05473785,15.8333333 3.91666667,15.8333333 Z M18,12 L10,12 L10,18 L18,18 L18,12 Z M14,13 C14.5522847,13 15,13.4477153 15,14 L15,16 C15,16.5522847 14.5522847,17 14,17 C13.4477153,17 13,16.5522847 13,16 L13,14 C13,13.4477153 13.4477153,13 14,13 Z M5.33325,10.8335 C5.60939237,10.8335 5.83325,11.0573576 5.83325,11.3335 L5.83325,12 C5.83325,12.2761424 5.60939237,12.5 5.33325,12.5 L3.83325,12.5 C3.55710763,12.5 3.33325,12.2761424 3.33325,12 L3.33325,11.3335 C3.33325,11.0573576 3.55710763,10.8335 3.83325,10.8335 L5.33325,10.8335 Z M8.333375,3.33325 C8.7936353,3.33325 9.16675,3.7063647 9.16675,4.166625 L9.16675,4.166625 L9.16675,8.16675 C9.16675,8.71903475 8.71903475,9.16675 8.16675,9.16675 L8.16675,9.16675 L1.91675,9.16675 C1.77867881,9.16675 1.66675,9.27867881 1.66675,9.41675 L1.66675,9.41675 L1.66675,11.666625 C1.66675,12.1268853 1.2936353,12.5 0.833375,12.5 C0.373114697,12.5 1.31342149e-14,12.1268853 1.24344979e-14,11.666625 L1.24344979e-14,11.666625 L1.24344979e-14,8.5 C1.23668625e-14,7.94771525 0.44771525,7.5 1,7.5 L1,7.5 L7.25,7.5 C7.38807119,7.5 7.5,7.38807119 7.5,7.25 L7.5,7.25 L7.5,4.166625 C7.5,3.7063647 7.8731147,3.33325 8.333375,3.33325 Z M14,9 C13.2597476,9 12.6134261,9.40216612 12.2676063,9.99992752 L15.7323937,9.99992752 C15.3865739,9.40216612 14.7402524,9 14,9 Z M5,7.10542736e-15 C5.46023729,7.10542736e-15 5.83333333,0.373096042 5.83333333,0.833333333 L5.83333333,5 C5.83333333,5.46023729 5.46023729,5.83333333 5,5.83333333 L0.833333333,5.83333333 C0.373096042,5.83333333 2.30926389e-13,5.46023729 2.30926389e-13,5 L2.30926389e-13,0.833333333 C2.30926389e-13,0.373096042 0.373096042,7.10542736e-15 0.833333333,7.10542736e-15 L5,7.10542736e-15 Z M19.1666667,7.10542736e-15 C19.626904,7.10542736e-15 20,0.373096042 20,0.833333333 L20,5 C20,5.46023729 19.626904,5.83333333 19.1666667,5.83333333 L15,5.83333333 C14.5397627,5.83333333 14.1666667,5.46023729 14.1666667,5 L14.1666667,0.833333333 C14.1666667,0.373096042 14.5397627,7.10542736e-15 15,7.10542736e-15 L19.1666667,7.10542736e-15 Z M11.5,-4.88498131e-15 C12.0522847,-4.98643437e-15 12.5,0.44771525 12.5,1 L12.5,1 L12.5,4.999875 C12.5,5.4601353 12.1268853,5.83325 11.666625,5.83325 C11.2063647,5.83325 10.83325,5.4601353 10.83325,4.999875 L10.83325,4.999875 L10.83325,1.91675 C10.83325,1.77867881 10.7213212,1.66675 10.58325,1.66675 L10.58325,1.66675 L8.333375,1.66675 C7.8731147,1.66675 7.5,1.2936353 7.5,0.833375 C7.5,0.373114697 7.8731147,-4.80043286e-15 8.333375,-4.88498131e-15 L8.333375,-4.88498131e-15 Z M3.91666667,1.66666667 L1.91666667,1.66666667 C1.77859548,1.66666667 1.66666667,1.77859548 1.66666667,1.91666667 L1.66666667,3.91666667 C1.66666667,4.05473785 1.77859548,4.16666667 1.91666667,4.16666667 L3.91666667,4.16666667 C4.05473785,4.16666667 4.16666667,4.05473785 4.16666667,3.91666667 L4.16666667,1.91666667 C4.16666667,1.77859548 4.05473785,1.66666667 3.91666667,1.66666667 Z M18.0833333,1.66666667 L16.0833333,1.66666667 C15.9452621,1.66666667 15.8333333,1.77859548 15.8333333,1.91666667 L15.8333333,3.91666667 C15.8333333,4.05473785 15.9452621,4.16666667 16.0833333,4.16666667 L18.0833333,4.16666667 C18.2214045,4.16666667 18.3333333,4.05473785 18.3333333,3.91666667 L18.3333333,1.91666667 C18.3333333,1.77859548 18.2214045,1.66666667 18.0833333,1.66666667 Z" id="Combined-Shape" fill="url(#linearGradient-1)"></path>
            </g>
        </g>
    </g>
</svg>