<?xml version="1.0" encoding="UTF-8"?>
<svg width="46px" height="46px" viewBox="0 0 46 46" version="1.1" xmlns="http://www.w3.org/2000/svg" xmlns:xlink="http://www.w3.org/1999/xlink">
    <title>Group</title>
    <g id="Upsells" stroke="none" stroke-width="1" fill="none" fill-rule="evenodd">
        <g id="password" transform="translate(-44.000000, -475.000000)">
            <g id="Group" transform="translate(44.000000, 475.000000)">
                <path d="M43.0048174,10.7226107 L45.8641803,10.7226107 L45.8641803,1.42968143 C45.8641803,0.640090179 45.2240901,9.76996262e-15 44.4344988,9.76996262e-15 L35.1415695,9.76996262e-15 L35.1415695,2.85936286 L43.0048174,2.85936286 L43.0048174,10.7226107 Z" id="Path" fill="#907CFF" opacity="0.6"></path>
                <path d="M1.54405594,9.76996262e-15 C0.754464693,9.76996262e-15 0.114374514,0.640090179 0.114374514,1.42968143 L0.114374514,10.7226107 L2.97373737,10.7226107 L2.97373737,2.85936286 L10.8369852,2.85936286 L10.8369852,9.76996262e-15 L1.54405594,9.76996262e-15 Z" id="Path" fill="#907CFF" opacity="0.6"></path>
                <path d="M2.97373737,35.027195 L0.114374514,35.027195 L0.114374514,44.3201243 C0.114374514,45.1097156 0.754464693,45.7498057 1.54405594,45.7498057 L10.8369852,45.7498057 L10.8369852,42.8904429 L2.97373737,42.8904429 L2.97373737,35.027195 Z" id="Path" fill="#907CFF" opacity="0.6"></path>
                <path d="M43.0048174,35.027195 L43.0048174,42.8904429 L35.1415695,42.8904429 L35.1415695,45.7498057 L44.4344988,45.7498057 C45.2240901,45.7498057 45.8641803,45.1097156 45.8641803,44.3201243 L45.8641803,35.027195 L43.0048174,35.027195 Z" id="Path" fill="#907CFF" opacity="0.6"></path>
                <path d="M19.4436674,25.019425 C20.2332587,25.019425 20.8733489,25.6595152 20.8733489,26.4491064 L20.8733489,26.4491064 L20.8733489,36.4568765 C20.8733489,37.2464677 20.2332587,37.8865579 19.4436674,37.8865579 L19.4436674,37.8865579 L9.43589744,37.8865579 C8.64630619,37.8865579 8.00621601,37.2464677 8.00621601,36.4568765 L8.00621601,36.4568765 L8.00621601,26.4491064 C8.00621601,25.6595152 8.64630619,25.019425 9.43589744,25.019425 L9.43589744,25.019425 Z M26.5920746,30.02331 L26.7297625,30.0298547 C27.4547557,30.0991321 28.021756,30.7098467 28.021756,31.4529915 L28.021756,31.4529915 L28.021756,35.027195 L36.5998446,35.027195 C37.3894359,35.027195 38.029526,35.6672852 38.029526,36.4568765 L38.029526,36.4568765 L38.0229814,36.5945643 C37.953704,37.3195576 37.3429893,37.8865579 36.5998446,37.8865579 L36.5998446,37.8865579 L26.5920746,37.8865579 C25.8024833,37.8865579 25.1623932,37.2464677 25.1623932,36.4568765 L25.1623932,36.4568765 L25.1623932,31.4529915 C25.1623932,30.6634002 25.8024833,30.02331 26.5920746,30.02331 L26.5920746,30.02331 Z M18.013986,27.8787879 L10.8655789,27.8787879 L10.8655789,35.027195 L18.013986,35.027195 L18.013986,27.8787879 Z M36.5998446,25.019425 L36.7375325,25.0259697 C37.4625257,25.0952471 38.029526,25.7059617 38.029526,26.4491064 L38.029526,26.4491064 L38.029526,31.4529915 C38.029526,32.2425827 37.3894359,32.8826729 36.5998446,32.8826729 L36.5998446,32.8826729 L31.5959596,32.8826729 C30.8063683,32.8826729 30.1662782,32.2425827 30.1662782,31.4529915 L30.1662782,31.4529915 L30.1728228,31.3153036 C30.2421002,30.5903103 30.8528149,30.02331 31.5959596,30.02331 L31.5959596,30.02331 L35.1701632,30.02331 L35.1701632,26.4491064 C35.1701632,25.6595152 35.8102533,25.019425 36.5998446,25.019425 L36.5998446,25.019425 Z M31.5959596,25.019425 C32.3855508,25.019425 33.025641,25.6595152 33.025641,26.4491064 C33.025641,27.2386977 32.3855508,27.8787879 31.5959596,27.8787879 L26.5920746,27.8787879 C25.8024833,27.8787879 25.1623932,27.2386977 25.1623932,26.4491064 C25.1623932,25.6595152 25.8024833,25.019425 26.5920746,25.019425 L31.5959596,25.019425 Z" id="Combined-Shape" fill="#FFFFFF" fill-rule="nonzero"></path>
                <rect id="Rectangle" fill="#7DCBFF" fill-rule="nonzero" x="13.010101" y="12.8671329" width="2.85936286" height="2.85936286"></rect>
                <path d="M9.43589744,20.7303807 L19.4436674,20.7303807 C20.2332587,20.7303807 20.8733489,20.0902906 20.8733489,19.3006993 L20.8733489,9.29292929 C20.8733489,8.50333804 20.2332587,7.86324786 19.4436674,7.86324786 L9.43589744,7.86324786 C8.64630619,7.86324786 8.00621601,8.50333804 8.00621601,9.29292929 L8.00621601,19.3006993 C8.00621601,20.0902906 8.64630619,20.7303807 9.43589744,20.7303807 Z M10.8655789,10.7226107 L18.013986,10.7226107 L18.013986,17.8710179 L10.8655789,17.8710179 L10.8655789,10.7226107 Z" id="Shape" fill="#7DCBFF" fill-rule="nonzero"></path>
                <path d="M25.1623932,9.29292929 L25.1623932,19.3006993 C25.1623932,20.0902906 25.8024833,20.7303807 26.5920746,20.7303807 L36.5998446,20.7303807 C37.3894359,20.7303807 38.029526,20.0902906 38.029526,19.3006993 L38.029526,9.29292929 C38.029526,8.50333804 37.3894359,7.86324786 36.5998446,7.86324786 L26.5920746,7.86324786 C25.8024833,7.86324786 25.1623932,8.50333804 25.1623932,9.29292929 Z M35.1701632,17.8710179 L28.021756,17.8710179 L28.021756,10.7226107 L35.1701632,10.7226107 L35.1701632,17.8710179 Z" id="Shape" fill="#7DCBFF" fill-rule="nonzero"></path>
                <rect id="Rectangle" fill="#7DCBFF" fill-rule="nonzero" x="0" y="23" width="46" height="3" rx="1.5"></rect>
            </g>
        </g>
    </g>
</svg>