<?xml version="1.0" encoding="UTF-8"?>
<svg width="48px" height="48px" viewBox="0 0 48 48" version="1.1" xmlns="http://www.w3.org/2000/svg" xmlns:xlink="http://www.w3.org/1999/xlink">
    <title>Yahoo Copy 2</title>
    <defs>
        <linearGradient x1="0%" y1="63.7777959%" x2="100%" y2="36.2222041%" id="linearGradient-1">
            <stop stop-color="#7282FB" offset="0%"></stop>
            <stop stop-color="#755BF9" offset="68.7141263%"></stop>
            <stop stop-color="#7934F7" offset="100%"></stop>
        </linearGradient>
        <linearGradient x1="0%" y1="63.7912176%" x2="100%" y2="36.2087824%" id="linearGradient-2">
            <stop stop-color="#7282FB" offset="0%"></stop>
            <stop stop-color="#755BF9" offset="68.7141263%"></stop>
            <stop stop-color="#7934F7" offset="100%"></stop>
        </linearGradient>
        <linearGradient x1="14.6917591%" y1="100%" x2="85.3082409%" y2="0%" id="linearGradient-3">
            <stop stop-color="#7282FB" offset="0%"></stop>
            <stop stop-color="#755BF9" offset="68.7141263%"></stop>
            <stop stop-color="#7934F7" offset="100%"></stop>
        </linearGradient>
    </defs>
    <g id="Yahoo-Copy-2" stroke="none" stroke-width="1" fill="none" fill-rule="evenodd">
        <g id="invisible_box">
            <rect id="Rectangle" x="0" y="0" width="48" height="48"></rect>
        </g>
        <path d="M24,1.99982755 C17.9393983,1.97591399 12.1423227,4.47590282 8,8.9 L8,7 C8.00664465,6.4132483 7.75528013,5.85318016 7.31248566,5.46814149 C6.8696912,5.08310282 6.28014468,4.91194398 5.7,5 C4.69847124,5.19414833 3.98135552,6.07999715 3.99964473,7.1 L3.99964473,14 C3.99964473,15.1045695 4.8954305,16 6,16 L13,16 C13.5867517,16.0066446 14.1468198,15.7552801 14.5318585,15.3124857 C14.9168972,14.8696912 15.088056,14.2801447 15,13.7 C14.8058517,12.6984712 13.9200028,11.9813555 12.9,12 L10.6,12 C15.3594628,6.69968309 22.796985,4.70487044 29.5700312,6.9120612 C36.3430773,9.11925196 41.1772506,15.1131475 41.9,22.2 C42.003084,23.2258026 42.8690439,24.0051665 43.9,24.0000255 L43.9,24.0000255 C44.4669756,24.0028428 45.008514,23.7649039 45.3899078,23.3453707 C45.7713016,22.9258375 45.9567054,22.3641399 45.9,21.8 C44.7697746,10.5543871 35.3022648,1.99472074 24,1.99982755 Z" id="Path" fill="url(#linearGradient-1)"></path>
        <path d="M42,32 L35,32 C34.4132483,31.9933554 33.8531802,32.2447199 33.4681415,32.6875143 C33.0831028,33.1303088 32.911944,33.7198553 33,34.3 C33.1941483,35.3015288 34.0799972,36.0186445 35.1,36 L37.4,36 C32.6405372,41.3003169 25.203015,43.2951296 18.4299688,41.0879388 C11.6569227,38.880748 6.82274941,32.8868525 6.1,25.8 C5.99691604,24.7741974 5.13095614,23.9948335 4.1,23.9999745 L4.1,23.9999745 C3.53302444,23.9971572 2.99148603,24.2350961 2.6100922,24.6546293 C2.22869837,25.0741625 2.0432946,25.6358601 2.1,26.2 C2.95782743,34.7752273 8.74359108,42.0599349 16.9019854,44.8368027 C25.0603797,47.6136704 34.0888748,45.3712831 40,39.1 L40,41 C39.9933554,41.5867517 40.2447199,42.1468198 40.6875143,42.5318585 C41.1303088,42.9168972 41.7198553,43.088056 42.3,43 C43.3015288,42.8058517 44.0186445,41.9200028 44.0003553,40.9 L44.0003553,34 C44.0003553,32.8954305 43.1045695,32 42,32 Z" id="Path" fill="url(#linearGradient-2)"></path>
        <path d="M18.1,33 C19.7850806,34.4225728 21.5920465,35.6941413 23.5,36.8 L24,37 L24.5,36.8 C26.4,35.7 34,31.3 34,26.3 L34,17.4 L24,13.2 L14,17.4 L14,26.3 C14,28.8 15.9,31.1 18,32.9 L18.1,32.9 L18.1,33 Z M24,17.5 L30,20.1 L30,26.3 C30,26.5 29.8,28.7 24,32.4 L24,32.4 L24,17.5 Z" id="Shape" fill="url(#linearGradient-3)"></path>
    </g>
</svg>