<svg width="40" height="40" viewBox="0 0 40 40" fill="none" xmlns="http://www.w3.org/2000/svg">
<circle cx="20" cy="20" r="19.5" fill="white" stroke="#E0E4E9"/>
<path fill-rule="evenodd" clip-rule="evenodd" d="M22.58 18.4418C22.7973 17.7936 22.9073 17.1282 22.9073 16.4555C22.9073 12.8955 20.0127 10 16.4545 10C12.8955 10 10 12.8955 10 16.4555C10 20.0173 12.8636 22.9155 16.3845 22.9155C17.1509 22.9155 17.9136 22.7755 18.6555 22.4973L20.2564 23.5264V25.8045H22.1209V27.6682H23.9864V30H28.9991L29.2655 29.7364C30.0736 28.9336 30.4664 28.2164 30.4664 27.5445C30.4664 26.7618 30.1627 26.0264 29.61 25.4736L22.58 18.4418ZM28.2336 28.1818H25.8045V25.85H23.9391V23.9864H22.0745V22.5336L18.8209 20.4418L18.3691 20.6491C17.7191 20.9464 17.0518 21.0973 16.3845 21.0973C13.9091 21.0973 11.8182 18.9709 11.8182 16.4555C11.8182 13.8982 13.8982 11.8182 16.4545 11.8182C19.01 11.8182 21.0891 13.8982 21.0891 16.4555C21.0891 17.0782 20.9545 17.6982 20.6873 18.2945L20.4327 18.8664L28.3236 26.7582C28.5364 26.9709 28.6482 27.2427 28.6482 27.5373C28.6418 27.6009 28.5491 27.8227 28.2336 28.1818ZM15.4455 16.9564C14.6109 16.9564 13.9345 16.2791 13.9345 15.4455C13.9345 14.6109 14.6109 13.9345 15.4455 13.9345C16.2791 13.9345 16.9564 14.6109 16.9564 15.4455C16.9564 16.2791 16.2791 16.9564 15.4455 16.9564Z" fill="#828A93"/>
</svg>
