<svg xmlns="http://www.w3.org/2000/svg" viewBox="0 0 134.87 146.79"><defs><style>.cls-1{fill:#dfe1e5;opacity:0.35;}.cls-1,.cls-2{isolation:isolate;}.cls-2{fill:#d7d7d7;opacity:0.5;}.cls-3{fill:#3d67d3;}.cls-4{fill:#fbbb15;}.cls-5,.cls-7,.cls-9{fill:none;}.cls-5,.cls-7{stroke:#000;}.cls-5{stroke-width:0.46px;}.cls-6{fill:#c20085;}.cls-7{stroke-width:0.24px;}.cls-8{fill:#fff;}</style></defs><g id="Layer_2" data-name="Layer 2"><g id="Layer_1-2" data-name="Layer 1"><path class="cls-1" d="M85.4,30c-14,0-31.5-7.5-44,0-19,10-18.5,29.5-37,59-16.39,26.13,17,50,35,56s25-3.5,62-22.5,35-37,32-61.5S99.4,30,85.4,30Z"/><path class="cls-2" d="M78.4,105c-5.17,3.65-6.52,10.6-10.68,12.67C64.33,118.9,63,116,56.43,115.42c-7.27-.64-13.53,9.08-20.53,7.08s-8.46-12.5-19.54-16c-7.14-2.28-12.23-1.73-16.13.24C2.74,125.29,25.59,140.4,39.4,145c18,6,25-3.5,62-22.5A102.66,102.66,0,0,0,118.14,112C111,108.61,86,99.65,78.4,105Z"/><path class="cls-3" d="M75.9,29.5c-1.5,17-26,38.5-26,38.5h-7c-7-5-25-21.13-27-37.5C15.9,10.07,29.4,0,46.9,0,66.4,0,77.17,15.06,75.9,29.5Z"/><rect class="cls-4" x="39.4" y="71" width="14" height="9"/><path class="cls-5" d="M42.05,71.31,38.4,64H53.94l-3.89,7.31Z"/><path class="cls-5" d="M46.17,64.23v6.86m-4.12,0V72h8v-.91"/><path class="cls-6" d="M98.86,76.84c-1.68,8.83-15.65,18.82-15.65,18.82l-3.65-.37c-3.43-3-12-12.39-12.2-21.08C68.43,63.5,76,58.93,85.21,59.85,95.43,60.88,100.29,69.33,98.86,76.84Z"/><rect class="cls-4" x="78.61" y="95.72" width="4.74" height="7.38" transform="translate(-26 170.07) rotate(-84.28)"/><path class="cls-7" d="M78.92,97l-1.53-4,8.15.81L83.12,97.4Z"/><path class="cls-7" d="M81.45,93.48l-.36,3.6m-2.15-.22,0,.48,4.19.42,0-.48"/><path class="cls-8" d="M41,58.84c.89-.12,1.8-.22,2.72-.29C41.54,51.87,38.3,42.83,37.4,38,36.07,30.91,31.45,8.08,40,.58A31.35,31.35,0,0,0,29,4.51c-3.15,7.82-3.92,12-2.58,22S36.63,51,41,58.84Z"/><path class="cls-8" d="M47.9,28c0,14.27,0,18.86-1,30.44a36,36,0,0,1,4.48.29c1.93-6.61,5.06-17.93,6-25.23.94-7.57,3.22-25-3.3-32.75A33.77,33.77,0,0,0,46.9,0l-.84,0C48.21,6.75,47.9,14.83,47.9,28Z"/><path class="cls-8" d="M35.74,60c.5-.15,1-.28,1.51-.41C31.33,54.38,25.61,48,20.4,35c-2.23-5.57-3.76-15.89,2.26-25.16a27.75,27.75,0,0,0-6,12.61A34,34,0,0,0,17.9,35C20.3,43.32,26.4,51.8,35.74,60Z"/><path class="cls-8" d="M63.45,41c-1.78,6.07-5.65,12.57-8.88,18.29q.93.23,1.83.48c6.22-9,10.4-13.56,13.5-24.27a47.08,47.08,0,0,0,.95-24.1,27,27,0,0,0-11.39-9C68.83,10.36,66.33,31.16,63.45,41Z"/><path class="cls-8" d="M75.8,90.26c.26-.06.53-.1.79-.15-2.66-2.94-5.17-6.55-7.11-13.3A14.76,14.76,0,0,1,72,63.71a14.58,14.58,0,0,0-3.83,6.38,17.79,17.79,0,0,0,0,6.59C69,81,71.59,85.63,75.8,90.26Z"/><path class="cls-8" d="M78.8,89.84c.51,0,1,0,1.55,0a105.91,105.91,0,0,1-2.12-10.54c-.32-3.78-1.54-16,3.3-19.47a16.5,16.5,0,0,0-6,1.49c-2.06,3.92-2.69,6.07-2.51,11.38C73.24,77.83,76.84,85.38,78.8,89.84Z"/><path class="cls-8" d="M82.27,89.91h0a18.22,18.22,0,0,1,2.42.42A97.51,97.51,0,0,0,89,78c.9-3.91,3-12.91,0-17.34a17.72,17.72,0,0,0-3.73-.77l-.44,0c.77,3.64.18,7.87-.51,14.76C83.54,81.82,83.29,84.31,82.27,89.91Z"/><path class="cls-8" d="M91.73,82.21a46.6,46.6,0,0,1-5.26,8.63c.33.12.67.23,1,.37C91,87.12,93.3,84.92,95.4,79.67a24.71,24.71,0,0,0,1.75-12.61,14.24,14.24,0,0,0-5.47-5.27C96.16,66.45,93.76,77.21,91.73,82.21Z"/><rect class="cls-9" width="134.87" height="146.79"/></g></g></svg>