<?xml version="1.0" encoding="UTF-8"?>
<svg width="10px" height="10px" viewBox="0 0 10 10" version="1.1" xmlns="http://www.w3.org/2000/svg" xmlns:xlink="http://www.w3.org/1999/xlink">
    <title>Remove</title>
    <g id="Account-Access" stroke="none" stroke-width="1" fill="none" fill-rule="evenodd">
        <g id="Disavow_02-Copy" transform="translate(-165.000000, -163.000000)">
            <g id="Group" transform="translate(24.000000, 124.000000)">
                <g id="Remove" transform="translate(125.000000, 26.000000)">
                    <g transform="translate(16.000000, 13.000000)">
                        <circle id="Oval" fill="#FFFFFF" cx="5" cy="5" r="5"></circle>
                        <path d="M7.44974747,3.94974747 L5.94974747,3.94974747 L5.94974747,2.44974747 C5.94974747,1.89674747 5.50274747,1.44974747 4.94974747,1.44974747 C4.39674747,1.44974747 3.94974747,1.89674747 3.94974747,2.44974747 L3.94974747,3.94974747 L2.38774747,3.94974747 L2.38774747,3.96274747 C1.86574747,3.99674747 1.44974747,4.41974747 1.44974747,4.94974747 C1.44974747,5.47974747 1.86574747,5.90274747 2.38774747,5.93674747 L2.38774747,5.94974747 L3.94974747,5.94974747 L3.94974747,7.51274747 L3.96274747,7.51274747 C3.99674747,8.03374747 4.41974747,8.44974747 4.94974747,8.44974747 C5.47974747,8.44974747 5.90274747,8.03374747 5.93674747,7.51274747 L5.94974747,7.51274747 L5.94974747,5.94974747 L7.44974747,5.94974747 C8.00174747,5.94974747 8.44974747,5.50274747 8.44974747,4.94974747 C8.44974747,4.39674747 8.00174747,3.94974747 7.44974747,3.94974747" id="Fill-6" stroke="#FFFFFF" stroke-width="0.3" fill="#F0172F" transform="translate(4.949747, 4.949747) rotate(-315.000000) translate(-4.949747, -4.949747) "></path>
                    </g>
                </g>
            </g>
        </g>
    </g>
</svg>