<svg width="20" height="20" viewBox="0 0 20 20" fill="none" xmlns="http://www.w3.org/2000/svg">
<path fill-rule="evenodd" clip-rule="evenodd" d="M4.16669 1.66666C4.16669 1.20583 4.53919 0.833328 5.00002 0.833328H15C15.46 0.833328 15.8334 1.20583 15.8334 1.66666V18.3333C15.8334 18.7942 15.46 19.1667 15 19.1667H5.00002C4.53919 19.1667 4.16669 18.7942 4.16669 18.3333V1.66666ZM5.83335 12.5H14.1667V2.49999H5.83335V12.5ZM14.1667 14.1667V17.5H5.83335V14.1667H14.1667ZM10 15C10.46 15 10.8334 15.3725 10.8334 15.8333C10.8334 16.2933 10.46 16.6667 10 16.6667C9.54002 16.6667 9.16669 16.2933 9.16669 15.8333C9.16669 15.3725 9.54002 15 10 15Z" fill="#F5F8FA"/>
</svg>
