<?xml version="1.0" encoding="UTF-8"?>
<svg width="25px" height="23px" viewBox="0 0 25 23" version="1.1" xmlns="http://www.w3.org/2000/svg" xmlns:xlink="http://www.w3.org/1999/xlink">
    <!-- Generator: Sketch 64 (93537) - https://sketch.com -->
    <title>Group 4</title>
    <desc>Created with Sketch.</desc>
    <defs>
        <linearGradient x1="100%" y1="7.3964497%" x2="3.74939946e-31%" y2="92.6035503%" id="linearGradient-1">
            <stop stop-color="#7764F9" offset="0%"></stop>
            <stop stop-color="#769FFC" offset="100%"></stop>
        </linearGradient>
    </defs>
    <g id="Design" stroke="none" stroke-width="1" fill="none" fill-rule="evenodd">
        <g id="C1_FIDO_Disable_01" transform="translate(-829.000000, -329.000000)">
            <g id="Group-4" transform="translate(829.000000, 329.000000)">
                <g id="Group-3">
                    <circle id="Oval" fill="#F1F1F5" cx="11" cy="11" r="11"></circle>
                    <path d="M16.5,5 C17.0522847,5 17.5,5.44771525 17.5,6 L17.5,16 C17.5,16.5522847 17.0522847,17 16.5,17 L10.05,17 C9.49771525,17 9.05,16.5522847 9.05,16 L9.049,15 L4.5,15 L4.5,7 L9.049,7 L9.05,6 C9.05,5.44771525 9.49771525,5 10.05,5 L16.5,5 Z M15.8583333,6 L10.6916667,6 C10.3569486,6 10.0798447,6.24667507 10.0322284,6.56815155 L10.025,6.66666667 L10.025,15.3333333 C10.025,15.6680514 10.2716751,15.9451553 10.5931516,15.9927716 L10.6916667,16 L15.8583333,16 C16.1930514,16 16.4701553,15.7533249 16.5177716,15.4318484 L16.525,15.3333333 L16.525,6.66666667 C16.525,6.29847683 16.2265232,6 15.8583333,6 Z M15.55,7.33333333 L15.55,14.6666667 L14.575,14.6666667 L14.575,7.33333333 L15.55,7.33333333 Z M9.05,8 L5.475,8 L5.475,14 L9.05,14 L9.05,8 Z M7.75,11.6666667 L7.75,13 L6.45,13 L6.45,11.6666667 L7.75,11.6666667 Z M7.75,8.66666667 L7.75,10 L6.45,10 L6.45,8.66666667 L7.75,8.66666667 Z" id="Combined-Shape" fill="url(#linearGradient-1)"></path>
                </g>
                <g id="Group-15" transform="translate(15.000000, 13.000000)">
                    <circle id="Oval" fill="#FFFFFF" cx="5" cy="5" r="5"></circle>
                    <path d="M7.44974747,3.94974747 L5.94974747,3.94974747 L5.94974747,2.44974747 C5.94974747,1.89674747 5.50274747,1.44974747 4.94974747,1.44974747 C4.39674747,1.44974747 3.94974747,1.89674747 3.94974747,2.44974747 L3.94974747,3.94974747 L2.38774747,3.94974747 L2.38774747,3.96274747 C1.86574747,3.99674747 1.44974747,4.41974747 1.44974747,4.94974747 C1.44974747,5.47974747 1.86574747,5.90274747 2.38774747,5.93674747 L2.38774747,5.94974747 L3.94974747,5.94974747 L3.94974747,7.51274747 L3.96274747,7.51274747 C3.99674747,8.03374747 4.41974747,8.44974747 4.94974747,8.44974747 C5.47974747,8.44974747 5.90274747,8.03374747 5.93674747,7.51274747 L5.94974747,7.51274747 L5.94974747,5.94974747 L7.44974747,5.94974747 C8.00174747,5.94974747 8.44974747,5.50274747 8.44974747,4.94974747 C8.44974747,4.39674747 8.00174747,3.94974747 7.44974747,3.94974747" id="Fill-6" stroke="#FFFFFF" stroke-width="0.3" fill="#F0172F" transform="translate(4.949747, 4.949747) rotate(-315.000000) translate(-4.949747, -4.949747) "></path>
                </g>
            </g>
        </g>
    </g>
</svg>