<?xml version="1.0" encoding="UTF-8"?>
<svg width="135px" height="84px" viewBox="0 0 135 84" version="1.1" xmlns="http://www.w3.org/2000/svg" xmlns:xlink="http://www.w3.org/1999/xlink">
    <!-- Generator: Sketch 63.1 (92452) - https://sketch.com -->
    <title>secure-account</title>
    <desc>Created with Sketch.</desc>
    <defs>
        <filter x="-12.5%" y="-10.0%" width="125.0%" height="120.0%" filterUnits="objectBoundingBox" id="filter-1">
            <feOffset dx="0" dy="2" in="SourceAlpha" result="shadowOffsetOuter1"></feOffset>
            <feGaussianBlur stdDeviation="1" in="shadowOffsetOuter1" result="shadowBlurOuter1"></feGaussianBlur>
            <feColorMatrix values="0 0 0 0 0   0 0 0 0 0   0 0 0 0 0  0 0 0 0.15 0" type="matrix" in="shadowBlurOuter1" result="shadowMatrixOuter1"></feColorMatrix>
            <feMerge>
                <feMergeNode in="shadowMatrixOuter1"></feMergeNode>
                <feMergeNode in="SourceGraphic"></feMergeNode>
            </feMerge>
        </filter>
        <linearGradient x1="17.4817898%" y1="100%" x2="82.5182102%" y2="0%" id="linearGradient-2">
            <stop stop-color="#7282FB" offset="0%"></stop>
            <stop stop-color="#755BF9" offset="68.7141263%"></stop>
            <stop stop-color="#7934F7" offset="100%"></stop>
        </linearGradient>
    </defs>
    <g id="qr-ar" stroke="none" stroke-width="1" fill="none" fill-rule="evenodd">
        <g id="QR-code_no" transform="translate(-92.000000, -220.000000)">
            <g id="secure-account" transform="translate(91.000000, 220.000000)">
                <g id="Master_icon_grid-working-file--copy-91-Copy-Copy" filter="url(#filter-1)" transform="translate(37.014933, 0.000000)" fill="#FFFFFF" fill-rule="nonzero">
                    <path d="M31.8822176,0 C31.8822176,0 0,9.27286589 0,10.909254 L0,44.0006578 C0,60.7281805 23.5574164,75.4556734 30.1109833,79.4557332 C31.1859976,80.1814223 32.5784376,80.1814223 33.6534519,79.4557332 C40.3841423,75.6374943 63.7644352,60.7281805 63.7644352,44.0006578 L63.7644352,10.909254 C63.7644352,9.27286589 31.8822176,0 31.8822176,0 Z" id="Shape"></path>
                </g>
                <path d="M69.0149326,9 C69.0149326,9 44.0149326,16.1864711 44.0149326,17.4546718 L44.0149326,43.1005098 C44.0149326,56.0643399 62.4871549,67.4781469 67.6260438,70.5781933 C68.4690014,71.1406022 69.5608639,71.1406022 70.4038215,70.5781933 C75.6815993,67.6190581 94.0149326,56.0643399 94.0149326,43.1005098 L94.0149326,17.4546718 C94.0149326,16.1864711 69.0149326,9 69.0149326,9 Z" id="Shape" fill="url(#linearGradient-2)" fill-rule="nonzero"></path>
                <g id="accept" transform="translate(56.014933, 25.000000)" fill="#FFFFFF">
                    <path d="M13.5,24.5454545 C7.41027273,24.5454545 2.45454545,19.5909545 2.45454545,13.5 C2.45454545,7.40904545 7.41027273,2.45454545 13.5,2.45454545 C19.5897273,2.45454545 24.5454545,7.40904545 24.5454545,13.5 C24.5454545,19.5909545 19.5897273,24.5454545 13.5,24.5454545 M13.5,0 C6.04431818,0 0,6.04431818 0,13.5 C0,20.9556818 6.04431818,27 13.5,27 C20.9544545,27 27,20.9556818 27,13.5 C27,6.04431818 20.9544545,0 13.5,0 M20.4729955,8.96473636 C19.9710409,8.46400909 19.1561318,8.46400909 18.6541773,8.96473636 L11.0634955,16.5394636 L8.33526818,13.8198273 C7.83331364,13.3178727 7.01963182,13.3178727 6.51767727,13.8198273 C6.01572273,14.3205545 6.01572273,15.1317818 6.51767727,15.6325091 L10.1540864,19.2603273 C10.6560409,19.7610545 11.47095,19.7610545 11.9729045,19.2603273 L20.4729955,10.7786455 C20.97495,10.2779182 20.97495,9.46546364 20.4729955,8.96473636 L20.4729955,8.96473636 Z" id="prefix__accept-a"></path>
                </g>
                <path d="M14.4196827,58.8516261 C17.978141,62.4637196 19.1717644,62.4753063 22.7715962,58.9285948 C19.1717644,62.4753063 19.1654458,63.670278 22.7225199,67.2782368 C19.1654458,63.670278 17.9697516,63.655933 14.3719894,67.2047141 C17.9697505,63.6552442 17.978141,62.4637196 14.4196827,58.8516261 Z" id="Path-Copy-16" fill="#DFE2E8" transform="translate(18.571793, 63.064931) rotate(-675.000000) translate(-18.571793, -63.064931) "></path>
                <path d="M18.5149326,20 L15.0149326,21.1473811 L15.0149326,22.6772226 C15.016229,24.6208332 16.418514,26.3527663 18.5149326,27 C20.6113513,26.3527663 22.0136363,24.6208332 22.0149326,22.6772226 L22.0149326,21.1473811 L18.5149326,20 Z" id="Path-Copy-6" stroke="#DFE2E8" stroke-width="1.0608" transform="translate(18.514933, 23.500000) rotate(-360.000000) translate(-18.514933, -23.500000) "></path>
                <path d="M12.632843,45.3488331 C12.9315245,45.3488331 13.1736538,45.5819969 13.1736538,45.8889713 L13.1727855,47.5188331 L14.7985749,47.5193758 C15.0661513,47.5193758 15.2881311,47.7232616 15.3298513,47.9761229 L15.336897,48.0620114 C15.336897,48.3617008 15.0904687,48.6046471 14.7985749,48.6046471 L13.1727855,48.6038331 L13.1736538,50.2350515 C13.1736538,50.5035306 12.9704536,50.7262593 12.7184427,50.7681202 L12.632843,50.7751897 C12.3341614,50.7751897 12.0920322,50.5420259 12.0920322,50.2350515 L12.0917855,48.6038331 L10.4671077,48.6046471 C10.1995313,48.6046471 9.97755147,48.4007613 9.93583128,48.1478999 L9.92878555,48.0620114 C9.92878555,47.762322 10.1752139,47.5193758 10.4671077,47.5193758 L12.0917855,47.5188331 L12.0920322,45.8889713 C12.0920322,45.6204922 12.2952323,45.3977636 12.5472433,45.3559026 L12.632843,45.3488331 Z" id="Combined-Shape-Copy-10" fill="#DFE2E8" transform="translate(12.632841, 48.062011) rotate(-321.000000) translate(-12.632841, -48.062011) "></path>
                <path d="M21.2103103,6.44515491 C21.4592116,6.44515491 21.660986,6.63945804 21.660986,6.89527009 L21.6605468,8.25315491 L22.9641652,8.25394044 C23.2093912,8.25394044 23.4133451,8.43425964 23.4556407,8.66137429 L23.4595468,8.70615491 L23.4558472,8.75269183 C23.4145842,8.98339143 23.2149672,9.15833321 22.9641652,9.15833321 L21.6605468,9.15815491 L21.660986,10.5170036 C21.660986,10.737974 21.4958078,10.9217547 21.2894027,10.9598668 L21.2103103,10.9671187 C20.961409,10.9671187 20.7596346,10.7728156 20.7596346,10.5170036 L20.7595468,9.15815491 L19.4564352,9.15833321 C19.2112092,9.15833321 19.0072553,8.97801401 18.9649597,8.75089936 L18.9605468,8.70515491 L18.9647532,8.65958182 C19.0060162,8.42888221 19.2056332,8.25394044 19.4564352,8.25394044 L20.7595468,8.25315491 L20.7596346,6.89527009 C20.7596346,6.67429965 20.9248128,6.49051899 21.131218,6.45240687 L21.2103103,6.44515491 Z" id="Combined-Shape-Copy-8" fill="#DFE2E8" transform="translate(21.210047, 8.706137) rotate(-321.000000) translate(-21.210047, -8.706137) "></path>
                <path d="M3.18328328,18.2315015 C3.43218458,18.2315015 3.63395896,18.4258046 3.63395896,18.6816166 L3.63351977,20.0395015 L4.93713819,20.040287 C5.18236414,20.040287 5.38631806,20.2206062 5.42861367,20.4477208 L5.43251977,20.4925015 L5.42882019,20.5390384 C5.38755718,20.769738 5.18794019,20.9446798 4.93713819,20.9446798 L3.63351977,20.9445015 L3.63395896,22.3033501 C3.63395896,22.5243206 3.46878076,22.7081012 3.26237563,22.7462133 L3.18328328,22.7534653 C2.93438198,22.7534653 2.7326076,22.5591622 2.7326076,22.3033501 L2.73251977,20.9445015 L1.42940814,20.9446798 C1.18418218,20.9446798 0.980228266,20.7643606 0.937932654,20.5372459 L0.933519767,20.4915015 L0.937726134,20.4459284 C0.978989144,20.2152288 1.17860613,20.040287 1.42940814,20.040287 L2.73251977,20.0395015 L2.7326076,18.6816166 C2.7326076,18.4606462 2.8977858,18.2768655 3.10419094,18.2387534 L3.18328328,18.2315015 Z" id="Combined-Shape-Copy-9" fill="#DFE2E8" transform="translate(3.183020, 20.492483) rotate(-321.000000) translate(-3.183020, -20.492483) "></path>
                <ellipse id="Oval-2-Copy-3" stroke="#E0E4E9" transform="translate(25.251762, 37.571467) scale(-1, 1) rotate(-397.000000) translate(-25.251762, -37.571467) " cx="25.2517615" cy="37.5714669" rx="1.4024541" ry="1.40329243"></ellipse>
                <path d="M114.371512,58.8516261 C117.92997,62.4637196 119.123594,62.4753063 122.723426,58.9285948 C119.123594,62.4753063 119.117275,63.670278 122.674349,67.2782368 C119.117275,63.670278 117.921581,63.655933 114.323819,67.2047141 C117.92158,63.6552442 117.92997,62.4637196 114.371512,58.8516261 Z" id="Path-Copy-16" fill="#DFE2E8" transform="translate(118.523622, 63.064931) scale(-1, 1) rotate(-675.000000) translate(-118.523622, -63.064931) "></path>
                <path d="M118.514933,20 L115.014933,21.1473811 L115.014933,22.6772226 C115.016229,24.6208332 116.418514,26.3527663 118.514933,27 C120.611351,26.3527663 122.013636,24.6208332 122.014933,22.6772226 L122.014933,21.1473811 L118.514933,20 Z" id="Path-Copy-6" stroke="#DFE2E8" stroke-width="1.0608" transform="translate(118.514933, 23.500000) scale(-1, 1) rotate(-360.000000) translate(-118.514933, -23.500000) "></path>
                <path d="M124.462575,45.3488331 C124.761257,45.3488331 125.003386,45.5819969 125.003386,45.8889713 L125.002518,47.5188331 L126.628307,47.5193758 C126.895884,47.5193758 127.117863,47.7232616 127.159584,47.9761229 L127.166629,48.0620114 C127.166629,48.3617008 126.920201,48.6046471 126.628307,48.6046471 L125.002518,48.6038331 L125.003386,50.2350515 C125.003386,50.5035306 124.800186,50.7262593 124.548175,50.7681202 L124.462575,50.7751897 C124.163894,50.7751897 123.921765,50.5420259 123.921765,50.2350515 L123.921518,48.6038331 L122.29684,48.6046471 C122.029264,48.6046471 121.807284,48.4007613 121.765564,48.1478999 L121.758518,48.0620114 C121.758518,47.762322 122.004946,47.5193758 122.29684,47.5193758 L123.921518,47.5188331 L123.921765,45.8889713 C123.921765,45.6204922 124.124965,45.3977636 124.376976,45.3559026 L124.462575,45.3488331 Z" id="Combined-Shape-Copy-10" fill="#DFE2E8" transform="translate(124.462574, 48.062011) scale(-1, 1) rotate(-321.000000) translate(-124.462574, -48.062011) "></path>
                <path d="M115.885632,6.44515491 C116.134533,6.44515491 116.336307,6.63945804 116.336307,6.89527009 L116.335868,8.25315491 L117.639487,8.25394044 C117.884713,8.25394044 118.088666,8.43425964 118.130962,8.66137429 L118.134868,8.70615491 L118.131169,8.75269183 C118.089906,8.98339143 117.890289,9.15833321 117.639487,9.15833321 L116.335868,9.15815491 L116.336307,10.5170036 C116.336307,10.737974 116.171129,10.9217547 115.964724,10.9598668 L115.885632,10.9671187 C115.63673,10.9671187 115.434956,10.7728156 115.434956,10.5170036 L115.434868,9.15815491 L114.131757,9.15833321 C113.886531,9.15833321 113.682577,8.97801401 113.640281,8.75089936 L113.635868,8.70515491 L113.640075,8.65958182 C113.681338,8.42888221 113.880955,8.25394044 114.131757,8.25394044 L115.434868,8.25315491 L115.434956,6.89527009 C115.434956,6.67429965 115.600134,6.49051899 115.806539,6.45240687 L115.885632,6.44515491 Z" id="Combined-Shape-Copy-8" fill="#DFE2E8" transform="translate(115.885368, 8.706137) scale(-1, 1) rotate(-321.000000) translate(-115.885368, -8.706137) "></path>
                <path d="M133.912659,18.2315015 C134.16156,18.2315015 134.363334,18.4258046 134.363334,18.6816166 L134.362895,20.0395015 L135.666514,20.040287 C135.91174,20.040287 136.115693,20.2206062 136.157989,20.4477208 L136.161895,20.4925015 L136.158196,20.5390384 C136.116933,20.769738 135.917316,20.9446798 135.666514,20.9446798 L134.362895,20.9445015 L134.363334,22.3033501 C134.363334,22.5243206 134.198156,22.7081012 133.991751,22.7462133 L133.912659,22.7534653 C133.663757,22.7534653 133.461983,22.5591622 133.461983,22.3033501 L133.461895,20.9445015 L132.158784,20.9446798 C131.913558,20.9446798 131.709604,20.7643606 131.667308,20.5372459 L131.662895,20.4915015 L131.667102,20.4459284 C131.708365,20.2152288 131.907982,20.040287 132.158784,20.040287 L133.461895,20.0395015 L133.461983,18.6816166 C133.461983,18.4606462 133.627161,18.2768655 133.833566,18.2387534 L133.912659,18.2315015 Z" id="Combined-Shape-Copy-9" fill="#DFE2E8" transform="translate(133.912395, 20.492483) scale(-1, 1) rotate(-321.000000) translate(-133.912395, -20.492483) "></path>
                <ellipse id="Oval-2-Copy-3" stroke="#E0E4E9" transform="translate(111.843653, 37.571467) rotate(-397.000000) translate(-111.843653, -37.571467) " cx="111.843653" cy="37.5714669" rx="1.4024541" ry="1.40329243"></ellipse>
            </g>
        </g>
    </g>
</svg>