<svg width="20" height="20" viewBox="0 0 20 20" fill="none" xmlns="http://www.w3.org/2000/svg">
<path fill-rule="evenodd" clip-rule="evenodd" d="M17.7659 8.20702C19.1039 8.41991 19.1684 8.43696 19.1916 8.4432C19.4286 8.50473 19.5858 8.70598 19.5833 8.94091L19.5829 9.99953V11.0573C19.5829 11.2311 19.4673 11.4511 19.2461 11.5355L19.2332 11.5405L19.2203 11.5446L19.2202 11.5447C19.1848 11.5555 19.0995 11.5816 16.7081 11.9671C16.6632 11.9812 16.6432 11.997 16.5933 12.0889C16.565 12.1579 16.4694 12.3912 16.1326 13.2037L16.1247 13.2228L16.1156 13.2407C16.1002 13.2698 16.1023 13.3055 16.1218 13.333L17.0345 14.6074C17.405 15.1114 17.5546 15.3155 17.6158 15.4307L17.617 15.4303C17.6212 15.439 17.6253 15.4477 17.6291 15.4565C17.6395 15.4789 17.6465 15.4976 17.6507 15.5155C17.7143 15.7205 17.6353 15.8768 17.5775 15.9567L17.5763 15.9558C17.5241 16.0204 17.374 16.1718 16.7967 16.7544L16.7759 16.7754L16.027 17.5242L16.0145 17.5367L16.0012 17.5483C15.9039 17.6307 15.7883 17.6739 15.6665 17.6739C15.5746 17.6739 15.4836 17.6486 15.4016 17.5999L15.3813 17.5878L15.3642 17.5754C15.3122 17.5371 14.133 16.6931 13.3451 16.1292C13.3123 16.1101 13.296 16.1101 13.2886 16.1101C13.274 16.1101 13.2478 16.1138 13.2145 16.1271C12.8516 16.2897 12.5688 16.4032 12.1938 16.5517C12.017 16.6145 11.9884 16.6506 11.9667 16.7143L11.5647 19.1483C11.526 19.3995 11.3131 19.582 11.0586 19.582H9.37756V19.5833H8.9418C8.70147 19.5833 8.46405 19.3749 8.43577 19.1529L8.02829 16.6847C8.02288 16.6527 7.99919 16.6253 7.96717 16.6157L7.95345 16.6111L7.94014 16.6061C7.54403 16.4543 7.26017 16.332 6.87134 16.1645L6.85616 16.1579L6.8046 16.1355C6.75096 16.1168 6.72435 16.1143 6.71312 16.1143C6.69857 16.1143 6.67487 16.1222 6.64285 16.1384L4.63746 17.5758C4.54889 17.6402 4.44453 17.6743 4.33475 17.6743C4.19796 17.6743 4.06948 17.6211 3.97259 17.5242L2.57094 16.123L2.47697 16.0307C2.34641 15.9018 2.29859 15.7155 2.33934 15.5446V15.4793L2.42125 15.3654L3.87821 13.3342C3.89817 13.3064 3.90108 13.2698 3.88528 13.2407L3.87987 13.2299L3.87488 13.2186C3.70482 12.8507 3.57468 12.5222 3.39463 12.0627L3.38881 12.0478L3.38424 12.0324C3.37426 12.0008 3.34723 11.9767 3.31397 11.9712L0.854107 11.5658C0.604628 11.5284 0.416687 11.3105 0.416687 11.0586V8.94174C0.416687 8.68685 0.598807 8.47355 0.845791 8.4353L3.31397 8.02906C3.34682 8.02366 3.37426 7.99954 3.38424 7.96752L3.38923 7.95089L3.39547 7.93509C3.55472 7.53551 3.68154 7.23572 3.82457 6.89851L3.86906 6.79331L3.87654 6.77585L3.88528 6.7588C3.90108 6.73011 3.89817 6.69393 3.88029 6.66898C2.77052 5.13635 2.48196 4.73677 2.39547 4.58833L2.39339 4.58999C2.28445 4.39291 2.30732 4.16546 2.45202 3.99665L2.46325 3.98376L2.47489 3.9717L3.37343 3.07316C3.80835 2.6399 3.94016 2.50892 3.98881 2.46277L3.98798 2.46194C4.1148 2.34385 4.27862 2.33138 4.34307 2.33138C4.43496 2.33138 4.52353 2.35466 4.59962 2.39957L4.59965 2.39958C4.62168 2.41247 4.64825 2.42801 6.56052 3.80289L6.66821 3.87981C6.68651 3.89312 6.7048 3.89561 6.71686 3.89561C6.731 3.89561 6.74431 3.8927 6.75636 3.88605L6.77674 3.87482L6.79878 3.86609L6.8362 3.8507C7.14098 3.7268 7.83578 3.44405 7.9838 3.37503C8.0154 3.34551 8.02663 3.31765 8.02995 3.30809L8.43453 0.851551C8.4732 0.599577 8.68608 0.416626 8.94055 0.416626H11.0582C11.2661 0.416626 11.5252 0.595003 11.5634 0.84573L11.9709 3.31599L11.9709 3.31604C11.9746 3.33806 11.9784 3.36051 12.0719 3.39873C12.0757 3.40029 12.0969 3.4091 12.1315 3.42343C12.3189 3.5011 12.8975 3.74091 13.2025 3.86692L13.2224 3.87524L13.2412 3.8848C13.2482 3.88896 13.2565 3.89187 13.2807 3.89478C13.2994 3.89478 13.3181 3.88896 13.3322 3.87898L15.3688 2.41953C15.4561 2.35757 15.5588 2.32514 15.6653 2.32514C15.8021 2.32514 15.9305 2.37795 16.0266 2.47441C17.0079 3.45486 17.5156 3.96214 17.5438 3.99208C17.7043 4.17544 17.7181 4.43989 17.5779 4.63365L16.1206 6.66649C16.101 6.69352 16.0989 6.72844 16.1143 6.75755L16.1235 6.7746L16.131 6.79206C16.2403 7.04902 16.4661 7.59913 16.5605 7.82948L16.6012 7.92844L16.6095 7.94798L16.6154 7.96794C16.6253 7.99996 16.6519 8.02324 16.6844 8.02865L17.7659 8.20702ZM6.63786 9.99994C6.63786 11.8536 8.14596 13.3617 10 13.3617C11.8541 13.3617 13.3626 11.8536 13.3626 9.99994C13.3622 8.14632 11.8536 6.63822 10 6.63822C8.14596 6.63822 6.63786 8.14632 6.63786 9.99994Z" fill="#232A31"/>
</svg>

