<svg width="20" height="20" viewBox="0 0 20 20" fill="none" xmlns="http://www.w3.org/2000/svg">
<path fill-rule="evenodd" clip-rule="evenodd" d="M17.7662 8.20702C19.1042 8.41991 19.1687 8.43696 19.1919 8.4432C19.429 8.50473 19.5861 8.70598 19.5836 8.94091L19.5832 9.99953V11.0573C19.5832 11.2311 19.4676 11.4511 19.2464 11.5355L19.2335 11.5405L19.2206 11.5446L19.2205 11.5447C19.1851 11.5555 19.0998 11.5816 16.7084 11.9671C16.6635 11.9812 16.6435 11.997 16.5936 12.0889C16.5654 12.1579 16.4697 12.3912 16.1329 13.2037L16.125 13.2228L16.1159 13.2407C16.1005 13.2698 16.1026 13.3055 16.1221 13.333L17.0348 14.6074C17.4053 15.1114 17.555 15.3155 17.6161 15.4307L17.6173 15.4303C17.6215 15.439 17.6256 15.4477 17.6294 15.4565C17.6398 15.4789 17.6468 15.4976 17.651 15.5155C17.7146 15.7205 17.6356 15.8768 17.5778 15.9567L17.5766 15.9558C17.5244 16.0204 17.3743 16.1718 16.797 16.7544L16.7762 16.7754L16.0273 17.5242L16.0148 17.5367L16.0015 17.5483C15.9042 17.6307 15.7886 17.6739 15.6668 17.6739C15.5749 17.6739 15.4839 17.6486 15.4019 17.5999L15.3816 17.5878L15.3645 17.5754C15.3126 17.5371 14.1333 16.6931 13.3454 16.1292C13.3126 16.1101 13.2963 16.1101 13.2889 16.1101C13.2743 16.1101 13.2481 16.1138 13.2148 16.1271C12.8519 16.2897 12.5691 16.4032 12.1941 16.5517C12.0173 16.6145 11.9887 16.6506 11.967 16.7143L11.565 19.1483C11.5263 19.3995 11.3134 19.582 11.0589 19.582H9.37786V19.5833H8.94211C8.70177 19.5833 8.46435 19.3749 8.43608 19.1529L8.0286 16.6847C8.02319 16.6527 7.99949 16.6253 7.96747 16.6157L7.95375 16.6111L7.94045 16.6061C7.54434 16.4543 7.26048 16.332 6.87165 16.1645L6.85646 16.1579L6.8049 16.1355C6.75126 16.1168 6.72465 16.1143 6.71343 16.1143C6.69887 16.1143 6.67517 16.1222 6.64316 16.1384L4.63776 17.5758C4.5492 17.6402 4.44483 17.6743 4.33506 17.6743C4.19826 17.6743 4.06978 17.6211 3.9729 17.5242L2.57124 16.123L2.47727 16.0307C2.34671 15.9018 2.2989 15.7155 2.33964 15.5446V15.4793L2.42156 15.3654L3.87851 13.3342C3.89847 13.3064 3.90138 13.2698 3.88558 13.2407L3.88018 13.2299L3.87519 13.2186C3.70513 12.8507 3.57498 12.5222 3.39494 12.0627L3.38912 12.0478L3.38454 12.0324C3.37457 12.0008 3.34754 11.9767 3.31427 11.9712L0.854412 11.5658C0.604933 11.5284 0.416992 11.3105 0.416992 11.0586V8.94174C0.416992 8.68685 0.599112 8.47355 0.846096 8.4353L3.31427 8.02906C3.34712 8.02366 3.37457 7.99954 3.38454 7.96752L3.38953 7.95089L3.39577 7.93509C3.55502 7.53551 3.68184 7.23572 3.82488 6.89851L3.86937 6.79331L3.87685 6.77585L3.88558 6.7588C3.90138 6.73011 3.89847 6.69393 3.88059 6.66898C2.77083 5.13635 2.48226 4.73677 2.39578 4.58833L2.3937 4.58999C2.28476 4.39291 2.30763 4.16546 2.45232 3.99665L2.46355 3.98376L2.47519 3.9717L3.37373 3.07316C3.80866 2.6399 3.94047 2.50892 3.98912 2.46277L3.98828 2.46194C4.1151 2.34385 4.27893 2.33138 4.34338 2.33138C4.43527 2.33138 4.52383 2.35466 4.59992 2.39957L4.59995 2.39958C4.62198 2.41247 4.64856 2.42801 6.56083 3.80289L6.66852 3.87981C6.68681 3.89312 6.70511 3.89561 6.71717 3.89561C6.73131 3.89561 6.74461 3.8927 6.75667 3.88605L6.77704 3.87482L6.79908 3.86609L6.8365 3.8507C7.14128 3.7268 7.83608 3.44405 7.98411 3.37503C8.01571 3.34551 8.02693 3.31765 8.03026 3.30809L8.43483 0.851551C8.4735 0.599577 8.68639 0.416626 8.94086 0.416626H11.0585C11.2664 0.416626 11.5255 0.595003 11.5637 0.84573L11.9712 3.31599L11.9712 3.31604C11.9749 3.33806 11.9788 3.36051 12.0722 3.39873C12.076 3.40029 12.0973 3.4091 12.1318 3.42343C12.3192 3.5011 12.8978 3.74091 13.2028 3.86692L13.2227 3.87524L13.2415 3.8848C13.2485 3.88896 13.2568 3.89187 13.281 3.89478C13.2997 3.89478 13.3184 3.88896 13.3325 3.87898L15.3691 2.41953C15.4564 2.35757 15.5591 2.32514 15.6656 2.32514C15.8024 2.32514 15.9308 2.37795 16.0269 2.47441C17.0082 3.45486 17.5159 3.96214 17.5441 3.99208C17.7046 4.17544 17.7184 4.43989 17.5782 4.63365L16.1209 6.66649C16.1013 6.69352 16.0992 6.72844 16.1146 6.75755L16.1238 6.7746L16.1313 6.79206C16.2406 7.04902 16.4664 7.59913 16.5608 7.82948L16.6015 7.92844L16.6098 7.94798L16.6157 7.96794C16.6256 7.99996 16.6523 8.02324 16.6847 8.02865L17.7662 8.20702ZM6.63817 9.99994C6.63817 11.8536 8.14627 13.3617 10.0003 13.3617C11.8544 13.3617 13.3629 11.8536 13.3629 9.99994C13.3625 8.14632 11.8539 6.63822 10.0003 6.63822C8.14627 6.63822 6.63817 8.14632 6.63817 9.99994Z" fill="#0F69FF"/>
</svg>

