<svg width="20" height="20" viewBox="0 0 20 20" fill="none" xmlns="http://www.w3.org/2000/svg">
<path fill-rule="evenodd" clip-rule="evenodd" d="M17.7659 8.20708C19.1039 8.41997 19.1684 8.43702 19.1916 8.44326C19.4286 8.5048 19.5858 8.70604 19.5833 8.94097L19.5829 9.99959V11.0574C19.5829 11.2312 19.4673 11.4511 19.2461 11.5355L19.2332 11.5405L19.2203 11.5447L19.2202 11.5447C19.1848 11.5556 19.0995 11.5817 16.7081 11.9671C16.6632 11.9813 16.6432 11.9971 16.5933 12.089C16.565 12.158 16.4694 12.3913 16.1326 13.2037L16.1247 13.2229L16.1156 13.2407C16.1002 13.2698 16.1023 13.3056 16.1218 13.333L17.0345 14.6075C17.405 15.1114 17.5546 15.3156 17.6158 15.4307L17.617 15.4303C17.6212 15.4391 17.6253 15.4478 17.6291 15.4565C17.6395 15.479 17.6465 15.4977 17.6507 15.5156C17.7143 15.7206 17.6353 15.8769 17.5775 15.9567L17.5763 15.9559C17.5241 16.0204 17.374 16.1718 16.7967 16.7544L16.7759 16.7754L16.027 17.5243L16.0145 17.5368L16.0012 17.5484C15.9039 17.6307 15.7883 17.674 15.6665 17.674C15.5746 17.674 15.4836 17.6486 15.4016 17.6L15.3813 17.5879L15.3642 17.5754C15.3122 17.5372 14.133 16.6931 13.3451 16.1293C13.3123 16.1102 13.296 16.1102 13.2886 16.1102C13.274 16.1102 13.2478 16.1139 13.2145 16.1272C12.8516 16.2898 12.5688 16.4033 12.1938 16.5517C12.017 16.6145 11.9884 16.6507 11.9667 16.7143L11.5647 19.1484C11.526 19.3995 11.3131 19.5821 11.0586 19.5821H9.37756V19.5833H8.9418C8.70147 19.5833 8.46405 19.375 8.43577 19.153L8.02829 16.6848C8.02288 16.6528 7.99919 16.6253 7.96717 16.6158L7.95345 16.6112L7.94014 16.6062C7.54403 16.4543 7.26017 16.332 6.87134 16.1645L6.85616 16.158L6.8046 16.1355C6.75096 16.1168 6.72435 16.1143 6.71312 16.1143C6.69857 16.1143 6.67487 16.1222 6.64285 16.1384L4.63746 17.5759C4.54889 17.6403 4.44453 17.6744 4.33475 17.6744C4.19796 17.6744 4.06948 17.6212 3.97259 17.5243L2.57094 16.1231L2.47697 16.0307C2.34641 15.9018 2.29859 15.7156 2.33934 15.5447V15.4794L2.42125 15.3655L3.87821 13.3343C3.89817 13.3064 3.90108 13.2698 3.88528 13.2407L3.87987 13.2299L3.87488 13.2187C3.70482 12.8507 3.57468 12.5222 3.39463 12.0628L3.38881 12.0478L3.38424 12.0324C3.37426 12.0008 3.34723 11.9767 3.31397 11.9713L0.854107 11.5659C0.604628 11.5285 0.416687 11.3106 0.416687 11.0586V8.9418C0.416687 8.68692 0.598807 8.47361 0.845791 8.43536L3.31397 8.02912C3.34682 8.02372 3.37426 7.9996 3.38424 7.96758L3.38923 7.95095L3.39547 7.93515C3.55472 7.53557 3.68154 7.23578 3.82457 6.89857L3.86906 6.79337L3.87654 6.77591L3.88528 6.75886C3.90108 6.73017 3.89817 6.69399 3.88029 6.66905C2.77052 5.13641 2.48196 4.73683 2.39547 4.58839L2.39339 4.59005C2.28445 4.39297 2.30732 4.16552 2.45202 3.99671L2.46325 3.98382L2.47489 3.97176L3.37343 3.07322C3.80835 2.63996 3.94016 2.50898 3.98881 2.46283L3.98798 2.462C4.1148 2.34391 4.27862 2.33144 4.34307 2.33144C4.43496 2.33144 4.52353 2.35472 4.59962 2.39963L4.59965 2.39965C4.62168 2.41253 4.64825 2.42808 6.56052 3.80295L6.66821 3.87987C6.68651 3.89318 6.7048 3.89567 6.71686 3.89567C6.731 3.89567 6.74431 3.89276 6.75636 3.88611L6.77674 3.87488L6.79878 3.86615L6.8362 3.85076C7.14098 3.72686 7.83578 3.44411 7.9838 3.37509C8.0154 3.34557 8.02663 3.31771 8.02995 3.30815L8.43453 0.851612C8.4732 0.599638 8.68608 0.416687 8.94055 0.416687H11.0582C11.2661 0.416687 11.5252 0.595064 11.5634 0.845791L11.9709 3.31605L11.9709 3.3161C11.9746 3.33812 11.9784 3.36057 12.0719 3.39879C12.0757 3.40035 12.0969 3.40916 12.1315 3.4235C12.3189 3.50117 12.8975 3.74097 13.2025 3.86698L13.2224 3.8753L13.2412 3.88486C13.2482 3.88902 13.2565 3.89193 13.2807 3.89484C13.2994 3.89484 13.3181 3.88902 13.3322 3.87904L15.3688 2.41959C15.4561 2.35763 15.5588 2.3252 15.6653 2.3252C15.8021 2.3252 15.9305 2.37801 16.0266 2.47447C17.0079 3.45493 17.5156 3.9622 17.5438 3.99214C17.7043 4.1755 17.7181 4.43995 17.5779 4.63371L16.1206 6.66655C16.101 6.69358 16.0989 6.72851 16.1143 6.75761L16.1235 6.77466L16.131 6.79212C16.2403 7.04909 16.4661 7.59919 16.5605 7.82954L16.6012 7.9285L16.6095 7.94804L16.6154 7.968C16.6253 8.00002 16.6519 8.0233 16.6844 8.02871L17.7659 8.20708ZM6.63786 10C6.63786 11.8536 8.14596 13.3617 10 13.3617C11.8541 13.3617 13.3626 11.8536 13.3626 10C13.3622 8.14638 11.8536 6.63828 10 6.63828C8.14596 6.63828 6.63786 8.14638 6.63786 10Z" fill="#12A9FF"/>
</svg>

