<svg width="20" height="20" viewBox="0 0 20 20" fill="none" xmlns="http://www.w3.org/2000/svg">
<path fill-rule="evenodd" clip-rule="evenodd" d="M19.1652 6.84749C19.1836 6.76583 19.1669 5.83333 18.3336 5.83333H14.1669L14.1852 4.99999C14.1852 2.69833 12.3202 0.833328 10.0186 0.833328C7.71773 0.833328 5.85189 2.69833 5.85189 4.99999L5.83356 5.83333H1.66689C1.13356 5.83333 0.737726 6.32749 0.85356 6.84749L3.17356 17.6708C3.25439 18.0567 3.59439 18.3333 3.98856 18.3333H16.0636C16.4577 18.3333 16.7977 18.0567 16.8786 17.6708L19.1652 6.84749ZM14.1669 7.49999V9.99999H12.5002V7.49999H7.50023V9.99999H5.83356L5.87273 7.49999H2.69273L4.73523 16.6667H15.3436L17.3861 7.49999H14.1669ZM10.0394 2.41583C11.4202 2.41583 12.5002 3.61916 12.5002 4.99999V5.83333H7.50023V4.99999C7.50023 3.61916 8.65856 2.41583 10.0394 2.41583Z" fill="#232A31"/>
</svg>
