<?xml version="1.0" encoding="UTF-8"?>
<svg width="60px" height="18px" viewBox="0 0 60 18" version="1.1" xmlns="http://www.w3.org/2000/svg" xmlns:xlink="http://www.w3.org/1999/xlink">
    <title>Sheild</title>
    <g id="Page-1" stroke="none" stroke-width="1" fill="none" fill-rule="evenodd">
        <g id="16_Link-Existing-UNR" transform="translate(-132.000000, -230.000000)">
            <g id="Sheild" transform="translate(132.000000, 230.000000)">
                <rect id="Rectangle" fill="#B9BDC5" x="0" y="9" width="20" height="1" rx="0.5"></rect>
                <rect id="Rectangle" fill="#B9BDC5" x="40" y="9" width="20" height="1" rx="0.5"></rect>
                <path d="M30.1904001,16.3030743 C26.1409748,14.6274011 23.8383443,10.0793788 23.6478889,4.90440943 C25.2393768,4.67144998 27.6703399,3.96112801 30.1822261,1.89882385 C32.6941123,3.96194542 35.1267102,4.67226738 36.7165633,4.90440943 C36.4729765,11.8114527 32.6810338,15.2952182 30.1904001,16.3030743 M37.6165264,3.35952046 C36.2424683,3.26388447 33.5205089,2.72521684 30.7200787,0.206802598 C30.5672239,0.068661732 30.3751337,0 30.1822261,0 C29.9893185,0 29.7964108,0.068661732 29.6435561,0.206802598 C26.8439432,2.72521684 24.1219839,3.26388447 22.7479258,3.35952046 C22.3130662,3.39058172 22,3.76086463 22,4.19653967 C22,14.1222469 28.6463217,17.4678716 29.8985865,17.9468689 C29.9909533,17.9820172 30.0890419,18 30.1863131,18 C30.2803147,18 30.3751337,17.9828346 30.4650483,17.9501385 C31.7173131,17.4866718 38.3636348,14.1614822 38.3636348,4.19572227 C38.3644522,3.76004723 38.0505686,3.39058172 37.6165264,3.35952046 M27.5298279,8.10371918 C27.2012311,7.77921075 26.6691003,7.77921075 26.3413208,8.10371918 C26.0127239,8.43067981 26.0127239,8.95872122 26.3413208,9.28322964 L28.7085262,11.6177285 C29.0632801,11.9373325 29.5676191,11.946324 29.8970334,11.6177285 L34.0216601,7.56178194 C34.3510744,7.23645611 34.3510744,6.7092321 34.0216601,6.38308887 C33.6938806,6.05776304 33.1625672,6.05776304 32.8331529,6.38308887 L29.3035972,9.84968893 L27.5298279,8.10371918 Z" id="Sign-in" fill="#000000"></path>
            </g>
        </g>
    </g>
</svg>