<svg width="16" height="16" viewBox="0 0 16 16" fill="none" xmlns="http://www.w3.org/2000/svg">
    <path fill-rule="evenodd" clip-rule="evenodd"
          d="M8.0005 0.666504C8.15768 0.666504 8.3142 0.722451 8.43875 0.83501C10.7206 2.88705 12.9385 3.32597 14.0581 3.40389C14.4117 3.4292 14.6675 3.73025 14.6668 4.08524C14.6668 12.2055 9.25131 14.9149 8.23094 15.2925C8.15768 15.3192 8.08042 15.3332 8.00383 15.3332C7.92457 15.3332 7.84464 15.3185 7.76938 15.2899C6.74902 14.8996 1.3335 12.1735 1.3335 4.08657C1.3335 3.73091 1.58859 3.4292 1.94292 3.40389C3.06252 3.32597 5.28041 2.88705 7.56158 0.83501C7.68613 0.722451 7.84331 0.666504 8.0005 0.666504ZM6.79964 10.1328C7.08869 10.3939 7.49964 10.4005 7.76871 10.1328L11.1289 6.82796C11.3973 6.56288 11.3973 6.13329 11.1289 5.86754C10.8618 5.60246 10.4289 5.60246 10.1604 5.86754L7.28451 8.69218L5.83921 7.26953C5.57147 7.00512 5.13788 7.00512 4.8708 7.26953C4.60306 7.53595 4.60306 7.9662 4.8708 8.23062L6.79964 10.1328Z"
          fill="#232A31"/>
</svg>
