<svg width="40" height="40" viewBox="0 0 40 40" fill="none" xmlns="http://www.w3.org/2000/svg">
<circle cx="20" cy="20" r="19.5" fill="white" stroke="#E0E4E9"/>
<path fill-rule="evenodd" clip-rule="evenodd" d="M13.4375 10.625C13.4375 10.1066 13.8566 9.6875 14.375 9.6875H25.625C26.1425 9.6875 26.5625 10.1066 26.5625 10.625V29.375C26.5625 29.8934 26.1425 30.3125 25.625 30.3125H14.375C13.8566 30.3125 13.4375 29.8934 13.4375 29.375V10.625ZM15.3125 22.8125H24.6875V11.5625H15.3125V22.8125ZM24.6875 24.6875V28.4375H15.3125V24.6875H24.6875ZM20 25.625C20.5175 25.625 20.9375 26.0441 20.9375 26.5625C20.9375 27.08 20.5175 27.5 20 27.5C19.4825 27.5 19.0625 27.08 19.0625 26.5625C19.0625 26.0441 19.4825 25.625 20 25.625Z" fill="#828A93"/>
</svg>
