<?xml version="1.0" encoding="UTF-8"?>
<svg width="150px" height="55px" viewBox="0 0 150 55" version="1.1" xmlns="http://www.w3.org/2000/svg" xmlns:xlink="http://www.w3.org/1999/xlink">
    <title>success-2comm chanel email verified</title>
    <g id="Page-1" stroke="none" stroke-width="1" fill="none" fill-rule="evenodd">
        <g id="Success-03" transform="translate(-84.000000, -203.000000)">
            <g id="success-2comm-chanel-email-verified" transform="translate(86.000000, 203.000000)">
                <g id="Group-21-Copy-2" transform="translate(114.489796, 0.000000)" fill="#E0E4E9">
                    <path d="M30.8256069,2.66453526e-13 C31.9543132,2.66453526e-13 32.8693105,0.906379427 32.8693105,2.05034566 L32.8693105,52.8067972 C32.8693105,53.9391718 31.9558912,54.8571429 30.8256069,54.8571429 L2.04370364,54.8571429 C0.914997285,54.8571429 -4.97379915e-12,53.9507634 -4.97379915e-12,52.8067972 L-4.97379915e-12,2.05034566 C-4.97379915e-12,0.91797102 0.913419366,2.66453526e-13 2.04370364,2.66453526e-13 L30.8256069,2.66453526e-13 Z M16.379058,48 C15.0651405,48 14,49.0835246 14,50.42012 C14,51.7567154 15.0651405,52.84024 16.379058,52.84024 C17.6929755,52.84024 18.758116,51.7567154 18.758116,50.42012 C18.758116,49.0835246 17.6929755,48 16.379058,48 Z M29.0621394,4.34512023 L3.64024812,4.34512023 C3.15044206,4.34512023 2.74522762,4.71155837 2.68983885,5.18364357 L2.68338747,5.294343 L2.68338747,45.9839117 C2.68338747,46.4739321 3.05277414,46.8723771 3.52865796,46.9267978 L3.64024812,46.9331345 L29.0621394,46.9331345 C29.5519454,46.9331345 29.9571599,46.5666964 30.0125486,46.0946112 L30.019,45.9839117 L30.019,5.294343 C30.019,4.76662876 29.5905989,4.34512023 29.0621394,4.34512023 Z" id="Combined-Shape"></path>
                </g>
                <g id="Group-4" transform="translate(0.000000, 9.795918)">
                    <g id="Group-2">
                        <rect id="Rectangle" stroke="#FFFFFF" stroke-width="1.95918367" fill="#FFFFFF" x="-0.979591837" y="-0.979591837" width="58.5795918" height="43.1020408" rx="3.91836735"></rect>
                        <g id="Group-26-Copy" fill="#E0E4E9">
                            <g id="envelope-back">
                                <path d="M52.8630726,2.04175921e-14 C54.9237937,1.63784677e-14 56.5943383,1.67054453 56.5943383,3.73126564 L56.5943383,18.0447087 C56.5943383,19.6879079 55.5321536,21.0830205 54.0569383,21.5808926 L54.0566806,6.20536274 C54.0566806,5.17500219 53.2214084,4.33972992 52.1910478,4.33972992 L52.1910478,4.33972992 L4.987409,4.33972992 C3.95704845,4.33972992 3.12177618,5.17500219 3.12177618,6.20536274 L3.12177618,6.20536274 L3.12101942,21.7263168 C1.35058966,21.435061 2.93684029e-13,19.8976084 2.91460598e-13,18.0447087 L2.91460598e-13,3.73126564 C2.91208232e-13,1.67054453 1.67054453,2.03520512e-14 3.73126564,2.04175921e-14 L52.8630726,2.04175921e-14 Z" id="Combined-Shape"></path>
                            </g>
                            <g id="envelope-front" transform="translate(0.000000, 13.229148)">
                                <path d="M28.0498452,12.7556346 L28.2971691,28.2154482 L3.73126564,28.2154482 C1.67054453,28.2154482 1.58463318e-15,26.5449037 0,24.4841826 L0,1.73292435 C-5.70271986e-16,0.702563794 0.835272265,-0.132708471 1.86563282,-0.132708471 C2.15559021,-0.132708471 2.44155641,-0.0651226828 2.70083486,0.0646847463 L28.0498452,12.7556346 L28.0498452,12.7556346 Z" id="Triangle-2"></path>
                                <path d="M56.3470144,12.7556346 L56.5943383,28.2154482 L32.0284348,28.2154482 C29.9677137,28.2154482 28.2971691,26.5449037 28.2971691,24.4841826 L28.2971691,1.73292435 C28.2971691,0.702563794 29.1324414,-0.132708471 30.162802,-0.132708471 C30.4527593,-0.132708471 30.7387255,-0.0651226828 30.998004,0.0646847463 L56.3470144,12.7556346 L56.3470144,12.7556346 Z" id="Triangle-2-Copy" transform="translate(42.445754, 14.121596) scale(-1, 1) translate(-42.445754, -14.121596) "></path>
                                <path d="M52.8979592,28.2075865 L3.42857143,28.2075865 L26.056313,13.7300068 C27.4284656,12.9191607 29.1658727,12.9191607 30.5380253,13.7300068 L52.8979592,28.2075865 Z" id="Triangle"></path>
                            </g>
                        </g>
                    </g>
                </g>
                <g id="Group-18" transform="translate(19.353432, 20.500000)">
                    <g id="Group-3" fill="#1AC567" stroke="#FFFFFF" stroke-width="1.69583769">
                        <g id="Group-2">
                            <g id="Group-4">
                                <g id="Group-16-Copy-3">
                                    <g id="Group-16-Copy-2">
                                        <rect id="Rectangle-2-Copy-6" x="-0.847918844" y="-0.847918844" width="20.057299" height="20.1931483" rx="10.0286495"></rect>
                                    </g>
                                </g>
                            </g>
                        </g>
                    </g>
                    <path d="M14.5513998,6.08307851 C14.2049329,5.73745868 13.6424535,5.73745868 13.2968337,6.08307851 L8.05662707,11.3114256 L6.17350723,9.43423554 C5.82704029,9.0877686 5.26540806,9.0877686 4.91894112,9.43423554 C4.57247417,9.77985537 4.57247417,10.3397934 4.91894112,10.6854132 L7.42892045,13.1894628 C7.7753874,13.5350826 8.33786674,13.5350826 8.68433368,13.1894628 L14.5513998,7.33510331 C14.8978667,6.98948347 14.8978667,6.42869835 14.5513998,6.08307851 L14.5513998,6.08307851 Z" id="Path" fill="#FFFFFF"></path>
                </g>
                <g id="Group-3" transform="translate(67.239796, 27.000000)" stroke="#6E7780" stroke-dasharray="0,4" stroke-linecap="round" stroke-width="2">
                    <line x1="0.5" y1="0.5" x2="37" y2="1" id="Line-5"></line>
                </g>
            </g>
        </g>
    </g>
</svg>