<?xml version="1.0" encoding="UTF-8"?>
<svg width="83px" height="55px" viewBox="0 0 83 55" version="1.1" xmlns="http://www.w3.org/2000/svg" xmlns:xlink="http://www.w3.org/1999/xlink">
    <title>success-2comm channel none verified</title>
    <g id="Page-1" stroke="none" stroke-width="1" fill="none" fill-rule="evenodd">
        <g id="Success-04" transform="translate(-120.000000, -204.000000)">
            <g id="success-2comm-channel-none-verified" transform="translate(120.000000, 204.000000)">
                <g id="Group-6">
                    <g id="Group">
                        <g id="Group-5">
                            <g id="Group-21-Copy-2" fill="#E0E4E9">
                                <path d="M30.8256069,2.60628111e-13 C31.9543132,2.60628111e-13 32.8693105,0.906379427 32.8693105,2.05034566 L32.8693105,52.8067972 C32.8693105,53.9391718 31.9558912,54.8571429 30.8256069,54.8571429 L2.04370364,54.8571429 C0.914997285,54.8571429 -5.49543452e-12,53.9507634 -5.49543452e-12,52.8067972 L-5.49543452e-12,2.05034566 C-5.49543452e-12,0.91797102 0.913419366,2.60628111e-13 2.04370364,2.60628111e-13 L30.8256069,2.60628111e-13 Z M16.8693504,48.3394625 C15.5554329,48.3394625 14.4902924,49.4229872 14.4902924,50.7595825 C14.4902924,52.0961779 15.5554329,53.1797026 16.8693504,53.1797026 C18.1832678,53.1797026 19.2484084,52.0961779 19.2484084,50.7595825 C19.2484084,49.4229872 18.1832678,48.3394625 16.8693504,48.3394625 Z M30.0762235,4.34512023 L3.62616401,4.34512023 C3.14309239,4.34512023 2.74424952,4.71155837 2.68973662,5.18364357 L2.68338747,5.294343 L2.68338747,45.9839117 C2.68338747,46.4739321 3.04733711,46.8723771 3.51621635,46.9267978 L3.62616401,46.9331345 L30.0762235,46.9331345 C30.5592951,46.9331345 30.958138,46.5666964 31.0126509,46.0946112 L31.019,45.9839117 L31.019,5.294343 C31.019,4.76662876 30.5969046,4.34512023 30.0762235,4.34512023 Z" id="Combined-Shape"></path>
                            </g>
                            <g id="Group-4" transform="translate(23.510204, 9.795918)">
                                <g id="Group-2">
                                    <rect id="Rectangle" stroke="#FFFFFF" stroke-width="1.95918367" fill="#FFFFFF" x="-0.979591837" y="-0.979591837" width="58.5795918" height="43.1020408" rx="3.91836735"></rect>
                                    <g id="Group-26-Copy" fill="#E0E4E9">
                                        <g id="envelope-back">
                                            <path d="M52.8630726,2.04175921e-14 C54.9237937,1.63784677e-14 56.5943383,1.67054453 56.5943383,3.73126564 L56.5943383,18.0447087 C56.5943383,19.6879079 55.5321536,21.0830205 54.0569383,21.5808926 L54.0566806,6.20536274 C54.0566806,5.17500219 53.2214084,4.33972992 52.1910478,4.33972992 L52.1910478,4.33972992 L4.987409,4.33972992 C3.95704845,4.33972992 3.12177618,5.17500219 3.12177618,6.20536274 L3.12177618,6.20536274 L3.12101942,21.7263168 C1.35058966,21.435061 2.93684029e-13,19.8976084 2.91460598e-13,18.0447087 L2.91460598e-13,3.73126564 C2.91208232e-13,1.67054453 1.67054453,2.03520512e-14 3.73126564,2.04175921e-14 L52.8630726,2.04175921e-14 Z" id="Combined-Shape"></path>
                                        </g>
                                        <g id="envelope-front" transform="translate(0.000000, 13.229148)">
                                            <path d="M28.0498452,12.7556346 L28.2971691,28.2154482 L3.73126564,28.2154482 C1.67054453,28.2154482 1.58463318e-15,26.5449037 0,24.4841826 L0,1.73292435 C-5.70271986e-16,0.702563794 0.835272265,-0.132708471 1.86563282,-0.132708471 C2.15559021,-0.132708471 2.44155641,-0.0651226828 2.70083486,0.0646847463 L28.0498452,12.7556346 L28.0498452,12.7556346 Z" id="Triangle-2"></path>
                                            <path d="M56.3470144,12.7556346 L56.5943383,28.2154482 L32.0284348,28.2154482 C29.9677137,28.2154482 28.2971691,26.5449037 28.2971691,24.4841826 L28.2971691,1.73292435 C28.2971691,0.702563794 29.1324414,-0.132708471 30.162802,-0.132708471 C30.4527593,-0.132708471 30.7387255,-0.0651226828 30.998004,0.0646847463 L56.3470144,12.7556346 L56.3470144,12.7556346 Z" id="Triangle-2-Copy" transform="translate(42.445754, 14.121596) scale(-1, 1) translate(-42.445754, -14.121596) "></path>
                                            <path d="M52.8979592,28.2075865 L3.42857143,28.2075865 L26.056313,13.7300068 C27.4284656,12.9191607 29.1658727,12.9191607 30.5380253,13.7300068 L52.8979592,28.2075865 Z" id="Triangle"></path>
                                        </g>
                                    </g>
                                </g>
                            </g>
                        </g>
                    </g>
                </g>
            </g>
        </g>
    </g>
</svg>