<?xml version="1.0" encoding="UTF-8"?>
<svg width="48px" height="80px" viewBox="0 0 48 80" version="1.1" xmlns="http://www.w3.org/2000/svg" xmlns:xlink="http://www.w3.org/1999/xlink">
    <title>success-1comm channel mobile verified</title>
    <g id="Page-1" stroke="none" stroke-width="1" fill="none" fill-rule="evenodd">
        <g id="Success-1comm-channel-mobile-verified" transform="translate(-136.000000, -201.000000)">
            <g id="success-1comm-channel-mobile-verified" transform="translate(136.000000, 201.000000)">
                <g id="Group-21-Copy-2" fill="#E0E4E9">
                    <path d="M44.8372464,4.80585269e-13 C46.4790011,4.80585269e-13 47.8099062,1.3348685 47.8099062,2.98232096 L47.8099062,76.8098868 C47.8099062,78.4569772 46.4812962,79.7922078 44.8372464,79.7922078 L2.97265984,79.7922078 C1.33090514,79.7922078 -8.8643436e-12,78.4573393 -8.8643436e-12,76.8098868 L-8.8643436e-12,2.98232096 C-8.8643436e-12,1.33523057 1.32860999,4.80585269e-13 2.97265984,4.80585269e-13 L44.8372464,4.80585269e-13 Z M23.8240844,69.8181818 C21.9129317,69.8181818 20.3636364,71.3942177 20.3636364,73.3383564 C20.3636364,75.2824951 21.9129317,76.858531 23.8240844,76.858531 C25.735237,76.858531 27.2845324,75.2824951 27.2845324,73.3383564 C27.2845324,71.3942177 25.735237,69.8181818 23.8240844,69.8181818 Z M42.2722027,6.32017487 L5.29490636,6.32017487 C4.57278998,6.32017487 3.97707914,6.86774464 3.90949418,7.56789311 L3.90310905,7.70086254 L3.90310905,66.8856898 C3.90310905,67.6081221 4.45508481,68.1937131 5.16086699,68.2601064 L5.29490636,68.2663775 L42.2722027,68.2663775 C42.9943191,68.2663775 43.5900299,67.7188077 43.6576149,67.0186592 L43.664,66.8856898 L43.664,7.70086254 C43.664,6.9332782 43.0408711,6.32017487 42.2722027,6.32017487 Z" id="Combined-Shape"></path>
                </g>
                <g id="Group-18" transform="translate(10.923933, 25.454545)">
                    <g id="Group-3" fill="#1AC567" stroke="#FFFFFF" stroke-width="2.466673">
                        <g id="Group-2">
                            <g id="Group-4">
                                <g id="Group-16-Copy-3">
                                    <g id="Group-16-Copy-2">
                                        <rect id="Rectangle-2-Copy-6" x="-1.2333365" y="-1.2333365" width="29.1742531" height="29.371852" rx="14.5871265"></rect>
                                    </g>
                                </g>
                            </g>
                        </g>
                    </g>
                    <path d="M21.1656724,8.8481142 C20.6617205,8.34539444 19.8435687,8.34539444 19.340849,8.8481142 L11.7187303,16.4529827 L8.97964688,13.7225244 C8.47569497,13.2185725 7.65877536,13.2185725 7.15482344,13.7225244 C6.65087153,14.2252442 6.65087153,15.0396995 7.15482344,15.5424192 L10.8057025,19.1846732 C11.3096544,19.6873929 12.1278062,19.6873929 12.6317581,19.1846732 L21.1656724,10.6692412 C21.6696243,10.1665214 21.6696243,9.35083396 21.1656724,8.8481142 L21.1656724,8.8481142 Z" id="Path" fill="#FFFFFF"></path>
                </g>
            </g>
        </g>
    </g>
</svg>