<?xml version="1.0" encoding="UTF-8"?>
<svg width="111px" height="83px" viewBox="0 0 111 83" version="1.1" xmlns="http://www.w3.org/2000/svg" xmlns:xlink="http://www.w3.org/1999/xlink">
    <title>success-1comm channel email verified</title>
    <g id="Page-1" stroke="none" stroke-width="1" fill="none" fill-rule="evenodd">
        <g id="Success-1comm-channel-email-verified" transform="translate(-105.000000, -197.000000)">
            <g id="success-1comm-channel-email-verified" transform="translate(109.000000, 201.000000)">
                <g id="Group-4">
                    <g id="Group-2">
                        <rect id="Rectangle" stroke="#FFFFFF" stroke-width="3.56215213" fill="#FFFFFF" x="-1.78107607" y="-1.78107607" width="106.508349" height="78.3673469" rx="7.12430427"></rect>
                        <g id="Group-26-Copy" fill="#E0E4E9">
                            <g id="envelope-back">
                                <path d="M96.1146775,4.48742699e-14 C99.8614432,4.32978218e-14 102.898797,3.03735369 102.898797,6.78411935 L102.898797,32.8085614 C102.898797,35.7963335 100.967374,38.3329978 98.2849725,39.2381115 L98.2848739,11.2824777 C98.2848739,9.40909489 96.766197,7.89041804 94.8928142,7.89041804 L94.8928142,7.89041804 L9.06801637,7.89041804 C7.19463354,7.89041804 5.6759567,9.40909489 5.6759567,11.2824777 L5.6759567,11.2824777 L5.6750165,39.5024659 C2.45583917,38.9730904 6.06445282e-13,36.1776218 6.10025905e-13,32.8085614 L6.10025905e-13,6.78411935 C6.09567058e-13,3.03735369 3.03735369,4.46743612e-14 6.78411935,4.48742699e-14 L96.1146775,4.48742699e-14 Z" id="Combined-Shape"></path>
                            </g>
                            <g id="envelope-front" transform="translate(0.000000, 24.052997)">
                                <path d="M50.9997186,23.192063 L51.4493984,51.300815 L6.78411935,51.300815 C3.03735369,51.300815 3.12338172e-15,48.2634613 0,44.5166956 L0,3.15077155 C6.58755191e-16,1.27738872 1.51867685,-0.24128813 3.39205968,-0.24128813 C3.91925492,-0.24128813 4.43919347,-0.118404878 4.91060884,0.11760863 L50.9997186,23.192063 L50.9997186,23.192063 Z" id="Triangle-2"></path>
                                <path d="M102.449117,23.192063 L102.898797,51.300815 L58.2335178,51.300815 C54.4867521,51.300815 51.4493984,48.2634613 51.4493984,44.5166956 L51.4493984,3.15077155 C51.4493984,1.27738872 52.9680753,-0.24128813 54.8414581,-0.24128813 C55.3686534,-0.24128813 55.8885919,-0.118404878 56.3600073,0.11760863 L102.449117,23.192063 L102.449117,23.192063 Z" id="Triangle-2-Copy" transform="translate(77.174098, 25.675629) scale(-1, 1) translate(-77.174098, -25.675629) "></path>
                                <path d="M96.1781076,51.2865209 L6.23376623,51.2865209 L47.3751145,24.9636487 C49.8699374,23.4893831 53.0288595,23.4893831 55.5236824,24.9636487 L96.1781076,51.2865209 Z" id="Triangle"></path>
                            </g>
                        </g>
                    </g>
                </g>
                <g id="Group-18" transform="translate(35.000000, 22.000000)">
                    <g id="Group-3" fill="#1AC567" stroke="#FFFFFF" stroke-width="3.08334125">
                        <g id="Group-2">
                            <g id="Group-4">
                                <g id="Group-16-Copy-3">
                                    <g id="Group-16-Copy-2">
                                        <rect id="Rectangle-2-Copy-6" x="-1.54167062" y="-1.54167062" width="36.4678164" height="36.7148151" rx="18.2339082"></rect>
                                    </g>
                                </g>
                            </g>
                        </g>
                    </g>
                    <path d="M26.4570905,11.0601427 C25.8271506,10.4317431 24.8044609,10.4317431 24.1760612,11.0601427 L14.6484128,20.5662284 L11.2245586,17.1531555 C10.5946187,16.5232156 9.5734692,16.5232156 8.9435293,17.1531555 C8.31358941,17.7815552 8.31358941,18.7996243 8.9435293,19.428024 L13.5071281,23.9808415 C14.137068,24.6092412 15.1597577,24.6092412 15.7896976,23.9808415 L26.4570905,13.3365515 C27.0870304,12.7081518 27.0870304,11.6885424 26.4570905,11.0601427 L26.4570905,11.0601427 Z" id="Path" fill="#FFFFFF"></path>
                </g>
            </g>
        </g>
    </g>
</svg>