<?xml version="1.0" encoding="UTF-8"?>
<svg width="121px" height="80px" viewBox="0 0 121 80" version="1.1" xmlns="http://www.w3.org/2000/svg" xmlns:xlink="http://www.w3.org/1999/xlink">
    <title>success-verified email mobile</title>
    <g id="Page-1" stroke="none" stroke-width="1" fill="none" fill-rule="evenodd">
        <g id="Success-01-" transform="translate(-101.000000, -205.000000)">
            <g id="success-verified-email-mobile" transform="translate(101.000000, 205.000000)">
                <g id="Group-7">
                    <g id="Group-6">
                        <g id="Group">
                            <g id="Group-5">
                                <g id="Group-21-Copy-2" fill="#E0E4E9">
                                    <path d="M44.8372464,4.50149708e-13 C46.4790011,4.50149708e-13 47.8099062,1.3348685 47.8099062,2.98232096 L47.8099062,76.8098868 C47.8099062,78.4569772 46.4812962,79.7922078 44.8372464,79.7922078 L2.97265984,79.7922078 C1.33090514,79.7922078 -9.2490821e-12,78.4573393 -9.2490821e-12,76.8098868 L-9.2490821e-12,2.98232096 C-9.2490821e-12,1.33523057 1.32860999,4.50149708e-13 2.97265984,4.50149708e-13 L44.8372464,4.50149708e-13 Z M24.5372369,70.3119455 C22.6260842,70.3119455 21.0767889,71.8879813 21.0767889,73.8321201 C21.0767889,75.7762588 22.6260842,77.3522946 24.5372369,77.3522946 C26.4483896,77.3522946 27.9976849,75.7762588 27.9976849,73.8321201 C27.9976849,71.8879813 26.4483896,70.3119455 24.5372369,70.3119455 Z M43.7236174,6.32017487 L5.29803713,6.32017487 C4.56362174,6.32017487 3.97598969,6.86774464 3.90939774,7.56789311 L3.90310905,7.70086254 L3.90310905,66.8856898 C3.90310905,67.6081221 4.45632645,68.1937131 5.16369625,68.2601064 L5.29803713,68.2663775 L43.7236174,68.2663775 C44.4580328,68.2663775 45.0456648,67.7188077 45.1122568,67.0186592 L45.1185455,66.8856898 L45.1185455,7.70086254 C45.1185455,6.9332782 44.4940149,6.32017487 43.7236174,6.32017487 Z" id="Combined-Shape"></path>
                                </g>
                                <g id="Group-4" transform="translate(35.000000, 15.000000)">
                                    <g id="Group-2">
                                        <rect id="Rectangle" stroke="#FFFFFF" stroke-width="2.84972171" fill="#FFFFFF" x="-1.42486085" y="-1.42486085" width="85.206679" height="62.6938776" rx="5.69944341"></rect>
                                        <g id="Group-26-Copy" fill="#E0E4E9">
                                            <g id="envelope-back">
                                                <path d="M76.891742,3.51888732e-14 C79.8891545,3.55264359e-14 82.3190375,2.42988295 82.3190375,5.42729548 L82.3190375,26.2468491 C82.3190375,28.6370207 80.7739592,30.66632 78.6281021,31.3904473 L78.6278991,9.02598217 C78.6278991,7.52727591 77.4129576,6.31233443 75.9142514,6.31233443 L75.9142514,6.31233443 L7.2544131,6.31233443 C5.75570683,6.31233443 4.54076536,7.52727591 4.54076536,9.02598217 L4.54076536,9.02598217 L4.54071183,31.6020876 C1.96502666,31.1788767 4.94833883e-13,28.9423412 4.93705066e-13,26.2468491 L4.93705066e-13,5.42729548 C4.93337989e-13,2.42988295 2.42988295,3.5739489e-14 5.42729548,3.51888732e-14 L76.891742,3.51888732e-14 Z" id="Combined-Shape"></path>
                                            </g>
                                            <g id="envelope-front" transform="translate(0.000000, 19.242397)">
                                                <path d="M40.7997749,18.5536504 L41.1595187,41.040652 L5.42729548,41.040652 C2.42988295,41.040652 1.25525559e-15,38.610769 0,35.6133565 L0,2.52061724 C-6.27627793e-16,1.02191097 1.21494148,-0.193030504 2.71364774,-0.193030504 C3.13540394,-0.193030504 3.55135478,-0.0947239023 3.92848707,0.0940869037 L40.7997749,18.5536504 L40.7997749,18.5536504 Z" id="Triangle-2"></path>
                                                <path d="M81.9592937,18.5536504 L82.3190375,41.040652 L46.5868142,41.040652 C43.5894017,41.040652 41.1595187,38.610769 41.1595187,35.6133565 L41.1595187,2.52061724 C41.1595187,1.02191097 42.3744602,-0.193030504 43.8731665,-0.193030504 C44.2949227,-0.193030504 44.7108735,-0.0947239023 45.0880058,0.0940869037 L81.9592937,18.5536504 L81.9592937,18.5536504 Z" id="Triangle-2-Copy" transform="translate(61.739278, 20.540503) scale(-1, 1) translate(-61.739278, -20.540503) "></path>
                                                <path d="M76.9424861,41.0292168 L4.98701299,41.0292168 L37.9000916,19.9709189 C39.8959499,18.7915065 42.4230876,18.7915065 44.4189459,19.9709189 L76.9424861,41.0292168 Z" id="Triangle"></path>
                                            </g>
                                        </g>
                                    </g>
                                </g>
                            </g>
                        </g>
                    </g>
                </g>
                <g id="Group-18" transform="translate(63.000000, 32.000000)">
                    <g id="Group-3" fill="#1AC567" stroke="#FFFFFF" stroke-width="2.466673">
                        <g id="Group-2">
                            <g id="Group-4">
                                <g id="Group-16-Copy-3">
                                    <g id="Group-16-Copy-2">
                                        <rect id="Rectangle-2-Copy-6" x="-1.2333365" y="-1.2333365" width="29.1742531" height="29.371852" rx="14.5871265"></rect>
                                    </g>
                                </g>
                            </g>
                        </g>
                    </g>
                    <path d="M21.1656724,8.8481142 C20.6617205,8.34539444 19.8435687,8.34539444 19.340849,8.8481142 L11.7187303,16.4529827 L8.97964688,13.7225244 C8.47569497,13.2185725 7.65877536,13.2185725 7.15482344,13.7225244 C6.65087153,14.2252442 6.65087153,15.0396995 7.15482344,15.5424192 L10.8057025,19.1846732 C11.3096544,19.6873929 12.1278062,19.6873929 12.6317581,19.1846732 L21.1656724,10.6692412 C21.6696243,10.1665214 21.6696243,9.35083396 21.1656724,8.8481142 L21.1656724,8.8481142 Z" id="Path" fill="#FFFFFF"></path>
                </g>
            </g>
        </g>
    </g>
</svg>