<svg width="20" height="20" viewBox="0 0 20 20" fill="none" xmlns="http://www.w3.org/2000/svg">
<path fill-rule="evenodd" clip-rule="evenodd" d="M0.833313 9.99999C0.833313 4.94583 4.94581 0.833328 9.99998 0.833328C15.0533 0.833328 19.1666 4.94583 19.1666 9.99999C19.1666 15.0542 15.0533 19.1667 9.99998 19.1667C4.94581 19.1667 0.833313 15.0542 0.833313 9.99999ZM2.50081 10C2.50081 14.135 5.86581 17.5 9.99998 17.5C14.135 17.5 17.5 14.135 17.5 10C17.5 5.865 14.135 2.49999 9.99998 2.49999C5.86581 2.49999 2.50081 5.865 2.50081 10ZM9.16665 10.8333V5.83333C9.16665 5.37249 9.53998 4.99999 9.99998 4.99999C10.46 4.99999 10.8333 5.37249 10.8333 5.83333V10.8333C10.8333 11.2933 10.46 11.6667 9.99998 11.6667C9.53998 11.6667 9.16665 11.2933 9.16665 10.8333ZM9.16665 14.1667C9.16665 13.7067 9.53998 13.3333 9.99998 13.3333C10.46 13.3333 10.8333 13.7067 10.8333 14.1667C10.8333 14.6267 10.46 15 9.99998 15C9.53998 15 9.16665 14.6267 9.16665 14.1667Z" fill="#232A31"/>
</svg>
