<?xml version="1.0" encoding="UTF-8"?>
<svg width="18px" height="22px" viewBox="0 0 18 22" version="1.1" xmlns="http://www.w3.org/2000/svg" xmlns:xlink="http://www.w3.org/1999/xlink">
    <title>tablet</title>
    <g id="Unlink" stroke="none" stroke-width="1" fill="none" fill-rule="evenodd">
        <g id="Group" transform="translate(-2.000000, 0.000000)" fill="#6001D2" fill-rule="nonzero">
            <g id="accessibility/accessibility-copy">
                <path d="M18.3333334,0.916666625 C18.8395944,0.916666625 19.25,1.32707227 19.25,1.8333333 L19.25,1.8333333 L19.25,20.1666667 C19.25,20.6729277 18.8395944,21.0833334 18.3333334,21.0833334 L18.3333334,21.0833334 L3.66666664,21.0833334 C3.16040561,21.0833334 2.74999997,20.6729277 2.74999997,20.1666667 L2.74999997,20.1666667 L2.74999997,1.8333333 C2.74999997,1.32707227 3.16040561,0.916666625 3.66666664,0.916666625 L3.66666664,0.916666625 Z M17.4166667,2.74999997 L4.58333331,2.74999997 L4.58333331,19.25 L17.4166667,19.25 L17.4166667,2.74999997 Z M11,16.5 C11.506261,16.5 11.9166667,16.9104057 11.9166667,17.4166667 L11.9166667,17.4166667 L11.9104996,17.5235694 C11.8575482,17.9794632 11.4700995,18.3333334 11,18.3333334 C10.493739,18.3333334 10.0833333,17.9229277 10.0833333,17.4166667 L10.0833333,17.4166667 L10.0895004,17.309764 C10.1424518,16.8538702 10.5299005,16.5 11,16.5 Z" id="Icon"></path>
            </g>
        </g>
    </g>
</svg>