<svg width="14" height="14" viewBox="0 0 14 14" fill="none" xmlns="http://www.w3.org/2000/svg">
<path fill-rule="evenodd" clip-rule="evenodd" d="M0.583336 7.00001C0.583336 3.46209 3.4615 0.583344 7 0.583344C10.5373 0.583344 13.4167 3.46209 13.4167 7.00001C13.4167 10.5379 10.5373 13.4167 7 13.4167C3.4615 13.4167 0.583336 10.5379 0.583336 7.00001ZM7 4.66668C6.67742 4.66668 6.41667 4.40534 6.41667 4.08334C6.41667 3.76076 6.67742 3.50001 7 3.50001C7.322 3.50001 7.58334 3.76076 7.58334 4.08334C7.58334 4.40534 7.322 4.66668 7 4.66668ZM7.58334 9.33334C7.58334 9.65534 7.322 9.91668 7 9.91668C6.67742 9.91668 6.41667 9.65534 6.41667 9.33334V6.41668C6.41667 6.09409 6.67742 5.83334 7 5.83334C7.322 5.83334 7.58334 6.09409 7.58334 6.41668V9.33334Z" fill="#F5F8FA"/>
</svg>

