<svg xmlns="http://www.w3.org/2000/svg" width="286" height="83" viewBox="0 0 286 83" fill="none">
    <mask id="path-1-outside-1_2342_69546" maskUnits="userSpaceOnUse" x="0" y="0" width="286" height="83" fill="black">
        <rect fill="white" width="286" height="83"/>
        <path fill-rule="evenodd" clip-rule="evenodd" d="M9 1C4.58172 1 1 4.58172 1 9V65C1 69.4183 4.58173 73 9.00001 73H90.8889L98 81L105.111 73H277C281.418 73 285 69.4183 285 65V9C285 4.58172 281.418 1 277 1H9Z"/>
    </mask>
    <path fill-rule="evenodd" clip-rule="evenodd" d="M9 1C4.58172 1 1 4.58172 1 9V65C1 69.4183 4.58173 73 9.00001 73H90.8889L98 81L105.111 73H277C281.418 73 285 69.4183 285 65V9C285 4.58172 281.418 1 277 1H9Z" fill="white"/>
    <path d="M90.8889 73L91.6363 72.3356L91.338 72H90.8889V73ZM98 81L97.2526 81.6644L98 82.5052L98.7474 81.6644L98 81ZM105.111 73V72H104.662L104.364 72.3356L105.111 73ZM2 9C2 5.13401 5.13401 2 9 2V0C4.02944 0 0 4.02944 0 9H2ZM2 65V9H0V65H2ZM9.00001 72C5.13401 72 2 68.866 2 65H0C0 69.9706 4.02944 74 9.00001 74V72ZM90.8889 72H9.00001V74H90.8889V72ZM98.7474 80.3356L91.6363 72.3356L90.1415 73.6644L97.2526 81.6644L98.7474 80.3356ZM104.364 72.3356L97.2526 80.3356L98.7474 81.6644L105.859 73.6644L104.364 72.3356ZM277 72H105.111V74H277V72ZM284 65C284 68.866 280.866 72 277 72V74C281.971 74 286 69.9706 286 65H284ZM284 9V65H286V9H284ZM277 2C280.866 2 284 5.13401 284 9H286C286 4.02944 281.971 0 277 0V2ZM9 2H277V0H9V2Z" fill="#6001D2" mask="url(#path-1-outside-1_2342_69546)"/>
</svg>