<svg width="14" height="14" viewBox="0 0 14 14" fill="none" xmlns="http://www.w3.org/2000/svg">
<path fill-rule="evenodd" clip-rule="evenodd" d="M0.583374 7.00004C0.583374 3.46212 3.46212 0.583374 7.00004 0.583374C10.5374 0.583374 13.4167 3.46212 13.4167 7.00004C13.4167 10.538 10.5374 13.4167 7.00004 13.4167C3.46212 13.4167 0.583374 10.538 0.583374 7.00004ZM1.75004 7.00004C1.75004 9.89454 4.10612 12.25 7.00004 12.25C9.89454 12.25 12.25 9.89454 12.25 7.00004C12.25 4.10554 9.89454 1.75004 7.00004 1.75004C4.10612 1.75004 1.75004 4.10554 1.75004 7.00004ZM6.41671 4.08337C6.41671 3.76079 6.67804 3.50004 7.00004 3.50004C7.32204 3.50004 7.58337 3.76079 7.58337 4.08337C7.58337 4.40537 7.32204 4.66671 7.00004 4.66671C6.67804 4.66671 6.41671 4.40537 6.41671 4.08337ZM6.41671 9.33337V6.41671C6.41671 6.09412 6.67804 5.83337 7.00004 5.83337C7.32204 5.83337 7.58337 6.09412 7.58337 6.41671V9.33337C7.58337 9.65537 7.32204 9.91671 7.00004 9.91671C6.67804 9.91671 6.41671 9.65537 6.41671 9.33337Z" fill="#232A31"/>
</svg>

