<svg width="16" height="16" viewBox="0 0 16 16" fill="none" xmlns="http://www.w3.org/2000/svg">
<path fill-rule="evenodd" clip-rule="evenodd" d="M1.33325 3.33331C1.33325 3.70131 1.63192 3.99998 2.00059 3.99998H13.9999C14.3686 3.99998 14.6666 3.70131 14.6666 3.33331C14.6666 2.96531 14.3686 2.66665 13.9999 2.66665H11.9999V1.99998C11.9999 1.63198 11.7019 1.33331 11.3333 1.33331H4.66659C4.29859 1.33331 4.00059 1.63198 4.00059 1.99998V2.66665H2.00059C1.63192 2.66665 1.33325 2.96531 1.33325 3.33331ZM11.9999 14H4.00059V5.33331H2.66659V14.6666C2.66659 15.0346 2.96525 15.3333 3.33392 15.3333H12.6673C13.0353 15.3333 13.3333 15.0346 13.3333 14.6666V5.33331H11.9999V14ZM5.66658 7.33331C5.66658 6.96512 5.96506 6.66665 6.33325 6.66665C6.70144 6.66665 6.99992 6.96512 6.99992 7.33331V12C6.99992 12.3682 6.70144 12.6666 6.33325 12.6666C5.96506 12.6666 5.66658 12.3682 5.66658 12V7.33331ZM9.66658 6.66665C9.2984 6.66665 8.99992 6.96512 8.99992 7.33331V12C8.99992 12.3682 9.2984 12.6666 9.66658 12.6666C10.0348 12.6666 10.3333 12.3682 10.3333 12V7.33331C10.3333 6.96512 10.0348 6.66665 9.66658 6.66665Z" fill="#0F69FF"/>
<mask id="mask0_4311_455" style="mask-type:luminance" maskUnits="userSpaceOnUse" x="1" y="1" width="14" height="15">
<path fill-rule="evenodd" clip-rule="evenodd" d="M1.33325 3.33331C1.33325 3.70131 1.63192 3.99998 2.00059 3.99998H13.9999C14.3686 3.99998 14.6666 3.70131 14.6666 3.33331C14.6666 2.96531 14.3686 2.66665 13.9999 2.66665H11.9999V1.99998C11.9999 1.63198 11.7019 1.33331 11.3333 1.33331H4.66659C4.29859 1.33331 4.00059 1.63198 4.00059 1.99998V2.66665H2.00059C1.63192 2.66665 1.33325 2.96531 1.33325 3.33331ZM11.9999 14H4.00059V5.33331H2.66659V14.6666C2.66659 15.0346 2.96525 15.3333 3.33392 15.3333H12.6673C13.0353 15.3333 13.3333 15.0346 13.3333 14.6666V5.33331H11.9999V14ZM5.66658 7.33331C5.66658 6.96512 5.96506 6.66665 6.33325 6.66665C6.70144 6.66665 6.99992 6.96512 6.99992 7.33331V12C6.99992 12.3682 6.70144 12.6666 6.33325 12.6666C5.96506 12.6666 5.66658 12.3682 5.66658 12V7.33331ZM9.66658 6.66665C9.2984 6.66665 8.99992 6.96512 8.99992 7.33331V12C8.99992 12.3682 9.2984 12.6666 9.66658 12.6666C10.0348 12.6666 10.3333 12.3682 10.3333 12V7.33331C10.3333 6.96512 10.0348 6.66665 9.66658 6.66665Z" fill="white"/>
</mask>
<g mask="url(#mask0_4311_455)">
</g>
</svg>
