<svg width="16" height="16" viewBox="0 0 16 16" fill="none" xmlns="http://www.w3.org/2000/svg">
<path fill-rule="evenodd" clip-rule="evenodd" d="M1.33325 3.33334C1.33325 3.70134 1.63192 4.00001 2.00059 4.00001H13.9999C14.3686 4.00001 14.6666 3.70134 14.6666 3.33334C14.6666 2.96534 14.3686 2.66668 13.9999 2.66668H11.9999V2.00001C11.9999 1.63201 11.7019 1.33334 11.3333 1.33334H4.66659C4.29859 1.33334 4.00059 1.63201 4.00059 2.00001V2.66668H2.00059C1.63192 2.66668 1.33325 2.96534 1.33325 3.33334ZM11.9999 14H4.00059V5.33334H2.66659V14.6667C2.66659 15.0347 2.96525 15.3333 3.33392 15.3333H12.6673C13.0353 15.3333 13.3333 15.0347 13.3333 14.6667V5.33334H11.9999V14ZM5.66658 7.33334C5.66658 6.96515 5.96506 6.66668 6.33325 6.66668C6.70144 6.66668 6.99992 6.96515 6.99992 7.33334V12C6.99992 12.3682 6.70144 12.6667 6.33325 12.6667C5.96506 12.6667 5.66658 12.3682 5.66658 12V7.33334ZM9.66658 6.66668C9.2984 6.66668 8.99992 6.96515 8.99992 7.33334V12C8.99992 12.3682 9.2984 12.6667 9.66658 12.6667C10.0348 12.6667 10.3333 12.3682 10.3333 12V7.33334C10.3333 6.96515 10.0348 6.66668 9.66658 6.66668Z" fill="#12A9FF"/>
<mask id="mask0_5602_725" style="mask-type:luminance" maskUnits="userSpaceOnUse" x="1" y="1" width="14" height="15">
<path fill-rule="evenodd" clip-rule="evenodd" d="M1.33325 3.33334C1.33325 3.70134 1.63192 4.00001 2.00059 4.00001H13.9999C14.3686 4.00001 14.6666 3.70134 14.6666 3.33334C14.6666 2.96534 14.3686 2.66668 13.9999 2.66668H11.9999V2.00001C11.9999 1.63201 11.7019 1.33334 11.3333 1.33334H4.66659C4.29859 1.33334 4.00059 1.63201 4.00059 2.00001V2.66668H2.00059C1.63192 2.66668 1.33325 2.96534 1.33325 3.33334ZM11.9999 14H4.00059V5.33334H2.66659V14.6667C2.66659 15.0347 2.96525 15.3333 3.33392 15.3333H12.6673C13.0353 15.3333 13.3333 15.0347 13.3333 14.6667V5.33334H11.9999V14ZM5.66658 7.33334C5.66658 6.96515 5.96506 6.66668 6.33325 6.66668C6.70144 6.66668 6.99992 6.96515 6.99992 7.33334V12C6.99992 12.3682 6.70144 12.6667 6.33325 12.6667C5.96506 12.6667 5.66658 12.3682 5.66658 12V7.33334ZM9.66658 6.66668C9.2984 6.66668 8.99992 6.96515 8.99992 7.33334V12C8.99992 12.3682 9.2984 12.6667 9.66658 12.6667C10.0348 12.6667 10.3333 12.3682 10.3333 12V7.33334C10.3333 6.96515 10.0348 6.66668 9.66658 6.66668Z" fill="white"/>
</mask>
<g mask="url(#mask0_5602_725)">
</g>
</svg>
