<svg width="16" height="16" viewBox="0 0 16 16" fill="none" xmlns="http://www.w3.org/2000/svg">
<path fill-rule="evenodd" clip-rule="evenodd" d="M1.3335 3.3335C1.3335 3.7015 1.63216 4.00016 2.00083 4.00016H14.0002C14.3688 4.00016 14.6668 3.7015 14.6668 3.3335C14.6668 2.9655 14.3688 2.66683 14.0002 2.66683H12.0002V2.00016C12.0002 1.63216 11.7022 1.3335 11.3335 1.3335H4.66683C4.29883 1.3335 4.00083 1.63216 4.00083 2.00016V2.66683H2.00083C1.63216 2.66683 1.3335 2.9655 1.3335 3.3335ZM12.0002 14.0002H4.00083V5.3335H2.66683V14.6668C2.66683 15.0348 2.9655 15.3335 3.33416 15.3335H12.6675C13.0355 15.3335 13.3335 15.0348 13.3335 14.6668V5.3335H12.0002V14.0002ZM5.66683 7.3335C5.66683 6.96531 5.96531 6.66683 6.3335 6.66683C6.70169 6.66683 7.00016 6.96531 7.00016 7.3335V12.0002C7.00016 12.3684 6.70169 12.6668 6.3335 12.6668C5.96531 12.6668 5.66683 12.3684 5.66683 12.0002V7.3335ZM9.66683 6.66683C9.29864 6.66683 9.00016 6.96531 9.00016 7.3335V12.0002C9.00016 12.3684 9.29864 12.6668 9.66683 12.6668C10.035 12.6668 10.3335 12.3684 10.3335 12.0002V7.3335C10.3335 6.96531 10.035 6.66683 9.66683 6.66683Z" fill="#5B636A"/>
<mask id="mask0_1430_3682" style="mask-type:luminance" maskUnits="userSpaceOnUse" x="1" y="1" width="14" height="15">
<path fill-rule="evenodd" clip-rule="evenodd" d="M1.3335 3.3335C1.3335 3.7015 1.63216 4.00016 2.00083 4.00016H14.0002C14.3688 4.00016 14.6668 3.7015 14.6668 3.3335C14.6668 2.9655 14.3688 2.66683 14.0002 2.66683H12.0002V2.00016C12.0002 1.63216 11.7022 1.3335 11.3335 1.3335H4.66683C4.29883 1.3335 4.00083 1.63216 4.00083 2.00016V2.66683H2.00083C1.63216 2.66683 1.3335 2.9655 1.3335 3.3335ZM12.0002 14.0002H4.00083V5.3335H2.66683V14.6668C2.66683 15.0348 2.9655 15.3335 3.33416 15.3335H12.6675C13.0355 15.3335 13.3335 15.0348 13.3335 14.6668V5.3335H12.0002V14.0002ZM5.66683 7.3335C5.66683 6.96531 5.96531 6.66683 6.3335 6.66683C6.70169 6.66683 7.00016 6.96531 7.00016 7.3335V12.0002C7.00016 12.3684 6.70169 12.6668 6.3335 12.6668C5.96531 12.6668 5.66683 12.3684 5.66683 12.0002V7.3335ZM9.66683 6.66683C9.29864 6.66683 9.00016 6.96531 9.00016 7.3335V12.0002C9.00016 12.3684 9.29864 12.6668 9.66683 12.6668C10.035 12.6668 10.3335 12.3684 10.3335 12.0002V7.3335C10.3335 6.96531 10.035 6.66683 9.66683 6.66683Z" fill="white"/>
</mask>
<g mask="url(#mask0_1430_3682)">
</g>
</svg>
