<svg width="16" height="16" viewBox="0 0 16 16" fill="none" xmlns="http://www.w3.org/2000/svg">
<g id="Interface / trashCan">
<path id="&#240;&#159;&#142;&#168; Color" fill-rule="evenodd" clip-rule="evenodd" d="M1.33203 3.33301C1.33203 3.70101 1.6307 3.99967 1.99936 3.99967H13.9987C14.3674 3.99967 14.6654 3.70101 14.6654 3.33301C14.6654 2.96501 14.3674 2.66634 13.9987 2.66634H11.9987V1.99967C11.9987 1.63167 11.7007 1.33301 11.332 1.33301H4.66536C4.29736 1.33301 3.99936 1.63167 3.99936 1.99967V2.66634H1.99936C1.6307 2.66634 1.33203 2.96501 1.33203 3.33301ZM11.9987 13.9997H3.99936V5.33301H2.66536V14.6663C2.66536 15.0343 2.96403 15.333 3.3327 15.333H12.666C13.034 15.333 13.332 15.0343 13.332 14.6663V5.33301H11.9987V13.9997ZM5.66536 7.33301C5.66536 6.96482 5.96384 6.66634 6.33203 6.66634C6.70022 6.66634 6.9987 6.96482 6.9987 7.33301V11.9997C6.9987 12.3679 6.70022 12.6663 6.33203 12.6663C5.96384 12.6663 5.66536 12.3679 5.66536 11.9997V7.33301ZM9.66536 6.66634C9.29717 6.66634 8.9987 6.96482 8.9987 7.33301V11.9997C8.9987 12.3679 9.29717 12.6663 9.66536 12.6663C10.0336 12.6663 10.332 12.3679 10.332 11.9997V7.33301C10.332 6.96482 10.0336 6.66634 9.66536 6.66634Z" fill="#B0B9C1"/>
<mask id="mask0_4743_16171" style="mask-type:luminance" maskUnits="userSpaceOnUse" x="1" y="1" width="14" height="15">
<path id="&#240;&#159;&#142;&#168; Color_2" fill-rule="evenodd" clip-rule="evenodd" d="M1.33203 3.33301C1.33203 3.70101 1.6307 3.99967 1.99936 3.99967H13.9987C14.3674 3.99967 14.6654 3.70101 14.6654 3.33301C14.6654 2.96501 14.3674 2.66634 13.9987 2.66634H11.9987V1.99967C11.9987 1.63167 11.7007 1.33301 11.332 1.33301H4.66536C4.29736 1.33301 3.99936 1.63167 3.99936 1.99967V2.66634H1.99936C1.6307 2.66634 1.33203 2.96501 1.33203 3.33301ZM11.9987 13.9997H3.99936V5.33301H2.66536V14.6663C2.66536 15.0343 2.96403 15.333 3.3327 15.333H12.666C13.034 15.333 13.332 15.0343 13.332 14.6663V5.33301H11.9987V13.9997ZM5.66536 7.33301C5.66536 6.96482 5.96384 6.66634 6.33203 6.66634C6.70022 6.66634 6.9987 6.96482 6.9987 7.33301V11.9997C6.9987 12.3679 6.70022 12.6663 6.33203 12.6663C5.96384 12.6663 5.66536 12.3679 5.66536 11.9997V7.33301ZM9.66536 6.66634C9.29717 6.66634 8.9987 6.96482 8.9987 7.33301V11.9997C8.9987 12.3679 9.29717 12.6663 9.66536 12.6663C10.0336 12.6663 10.332 12.3679 10.332 11.9997V7.33301C10.332 6.96482 10.0336 6.66634 9.66536 6.66634Z" fill="white"/>
</mask>
<g mask="url(#mask0_4743_16171)">
</g>
</g>
</svg>
