<svg width="40" height="40" viewBox="0 0 40 40" fill="none" xmlns="http://www.w3.org/2000/svg">
    <rect width="40" height="40" rx="8" fill="#F0F3F5"/>
    <path d="M20.0012 25.3672L16.7812 26.7272V27.2772H23.2213V26.7272L20.0012 25.3672Z" fill="#232A31"/>
    <path d="M20 22.2173V27.2773" stroke="#232A31" stroke-width="1.6"/>
    <path d="M23.4503 14.8772C23.7003 15.8272 23.8403 16.7872 23.8403 17.6472C23.8403 19.7572 22.1203 21.4872 20.0003 21.4872C17.8803 21.4872 16.1603 19.7672 16.1603 17.6472C16.1603 16.7872 16.3003 15.8272 16.5503 14.8772H23.4503ZM24.6203 13.2772H15.3803C14.8703 14.7072 14.5703 16.2572 14.5703 17.6472C14.5703 20.6472 17.0003 23.0872 20.0103 23.0872C23.0203 23.0872 25.4503 20.6572 25.4503 17.6472C25.4503 16.2572 25.1503 14.7072 24.6403 13.2772H24.6203Z" fill="#232A31"/>
    <path d="M20.0002 22.2872C17.6702 22.2872 15.7302 20.5472 15.4102 18.2972H24.5802C24.2602 20.5572 22.3202 22.2872 19.9902 22.2872H20.0002Z" fill="#232A31"/>
    <path d="M23.5503 19.0972C22.9803 20.4972 21.6003 21.4772 20.0003 21.4772C18.4003 21.4772 17.0203 20.4872 16.4503 19.0972H23.5503ZM25.4303 17.4972H14.5703C14.5703 17.4972 14.5703 17.5972 14.5703 17.6472C14.5703 20.6472 17.0003 23.0872 20.0103 23.0872C23.0203 23.0872 25.4503 20.6572 25.4503 17.6472C25.4503 17.5972 25.4503 17.5472 25.4503 17.4972H25.4303Z" fill="#232A31"/>
</svg>
