<svg width="40" height="40" viewBox="0 0 40 40" fill="none" xmlns="http://www.w3.org/2000/svg">
    <rect width="40" height="40" rx="8" fill="#464E56"/>
    <g clip-path="url(#clip0_3000_22346)">
        <path d="M26 21.9439C26 25.9203 23.8967 28.2772 19.9948 28.2772C16.093 28.2772 12.93 24.6106 14.3429 19.2772C14.8728 17.2772 15.4027 19.6106 16.8156 19.6106C16.8156 17.6106 16.4624 16.6106 20.3481 12.2772C21.0546 16.6106 26 17.9674 26 21.9439Z" fill="#F0F3F5"/>
        <path d="M23 23.8772C23 25.6169 21.6569 27.0272 20 27.0272C18.3431 27.0272 17 25.6169 17 23.8772C17 22.1375 18.6667 21.4272 20 20.0272C21.3333 21.4272 23 22.1375 23 23.8772Z" fill="#464E56"/>
    </g>
    <defs>
        <clipPath id="clip0_3000_22346">
            <rect width="16" height="16" fill="white" transform="translate(12 12.2772)"/>
        </clipPath>
    </defs>
</svg>
