<svg width="20" height="20" viewBox="0 0 20 20" fill="none" xmlns="http://www.w3.org/2000/svg">
<path d="M17.8398 4.16675L13.374 5.22175C12.9265 5.32675 12.649 5.77591 12.7548 6.22425C12.8607 6.67091 13.309 6.94841 13.7573 6.84341L15.2707 6.48591L15.2773 6.49008L10.3557 13.0426L6.91568 8.46758C6.74568 8.24175 6.48234 8.14175 6.21984 8.15091C5.95651 8.14175 5.69318 8.24175 5.52318 8.46758L1.41734 13.9292C1.14068 14.2967 1.21484 14.8192 1.58234 15.0959C1.94984 15.3726 2.47234 15.2984 2.74901 14.9309L6.21984 10.3151L9.68984 14.9309C9.71401 14.9634 9.74984 14.9809 9.77734 15.0084C9.80567 15.0367 9.82317 15.0717 9.85567 15.0959C9.86901 15.1067 9.88568 15.1076 9.89984 15.1176C9.94901 15.1501 10.0007 15.1701 10.0548 15.1909C10.1032 15.2101 10.1482 15.2309 10.1982 15.2409C10.2507 15.2509 10.3023 15.2492 10.3557 15.2492C10.4098 15.2492 10.4615 15.2509 10.514 15.2409C10.564 15.2309 10.609 15.2101 10.6573 15.1909C10.7115 15.1701 10.7632 15.1501 10.8123 15.1167C10.8265 15.1076 10.8432 15.1059 10.8565 15.0959C10.889 15.0717 10.9065 15.0367 10.9348 15.0084C10.9623 14.9801 10.9973 14.9634 11.0223 14.9301L16.6473 7.44175L16.8873 8.95425C16.924 9.19425 17.0598 9.39341 17.2457 9.51925C17.4132 9.63175 17.6215 9.68508 17.8373 9.65258C18.2923 9.58258 18.6048 9.15675 18.5348 8.70258L17.8398 4.16675Z" fill="#F5F8FA"/>
</svg>
