<?xml version="1.0" encoding="UTF-8"?>
<svg width="48px" height="48px" viewBox="0 0 48 48" version="1.1" xmlns="http://www.w3.org/2000/svg" xmlns:xlink="http://www.w3.org/1999/xlink">
    <!-- Generator: Sketch 57.1 (83088) - https://sketch.com -->
    <title>sign in black</title>
    <desc>Created with Sketch.</desc>
    <defs>
        <path d="M6.51318256,0.529634091 C5.65950269,-0.218391893 4.33399975,-0.168390156 3.55029364,0.643638051 C2.76858678,1.45366619 2.81856804,2.71971017 3.66824941,3.46973622 L7.07297264,5.99982411 L-9.09480824e-13,5.99982411 L-9.09480824e-13,9.99996306 L7.07297264,9.99996306 L3.66824941,12.5300509 C2.81856804,13.2820771 2.76858678,14.546121 3.55029364,15.3581492 C4.33399975,16.1681773 5.65950269,16.2181791 6.51318256,15.4701531 L15,7.99989358 L6.51318256,0.529634091 Z" id="path-1"></path>
    </defs>
    <g id="sign-in-black" stroke="none" stroke-width="1" fill="none" fill-rule="evenodd">
        <g id="Group-2" transform="translate(6.000000, 2.000000)">
            <g id="Group">
                <g id="Rectangle" transform="translate(25.000000, 14.000000)">
                    <g>
                        <mask id="mask-2" fill="white">
                            <use xlink:href="#path-1"></use>
                        </mask>
                        <use id="Mask" fill="#1D2228" transform="translate(7.500000, 8.000000) rotate(180.000000) translate(-7.500000, -8.000000) " xlink:href="#path-1"></use>
                    </g>
                </g>
                <path d="M28,40 L4,40 L4,4 L28,4 L28,9.998 L32,9.998 L32,2 C32,0.896 31.106,0 30,0 L2,0 C0.896,0 0,0.896 0,2 L0,42 C0,43.106 0.896,44 2,44 L30,44 C31.106,44 32,43.106 32,42 L32,34.002 L28,34.002 L28,40 Z" id="Path" fill="#1D2228"></path>
            </g>
            <path d="M16.5,21.0004 C18.543,21.0004 20.364,21.5664 21.555,22.4534 C21.709,22.5674 21.837,22.6944 21.969,22.8184 C22.611,23.4224 23,24.1334 23,24.9064 L23,24.9064 L23,26.5004 C23,27.0494 22.55,27.5004 22,27.5004 L22,27.5004 L11,27.5004 C10.45,27.5004 10,27.0494 10,26.5004 L10,26.5004 L10,24.9064 C10,24.1334 10.39,23.4224 11.031,22.8184 C11.163,22.6944 11.291,22.5674 11.446,22.4534 C12.637,21.5664 14.457,21.0004 16.5,21.0004 Z M16.5002,13 C18.2962,13 19.7502,14.455 19.7502,16.25 C19.7502,18.045 18.2962,19.5 16.5002,19.5 C14.7062,19.5 13.2502,18.045 13.2502,16.25 C13.2502,14.455 14.7062,13 16.5002,13 Z" id="Combined-Shape-Copy" fill="#000000"></path>
        </g>
    </g>
</svg>