<svg width="100" height="80" viewBox="0 0 100 80" fill="none" xmlns="http://www.w3.org/2000/svg">
<rect width="100" height="80" fill="white"/>
<path d="M74.7175 63.8406C68.2175 82.8406 47 79 39 79.5L35 55L74.7175 63.8406Z" fill="#EF966A"/>
<path d="M80.0265 16.3024C76.5737 17.5432 71.7094 21.009 68.275 23.8324L77.9904 30.7955C81.4763 25.1403 86.2783 14.0557 80.0265 16.3024Z" fill="#D9D9D9"/>
<path d="M94.3807 24.9924C92.7365 21.7738 85.3275 25.6068 81.1346 29.1607L80.2806 44.9726C90.83 34.2636 94.1958 31.086 94.6052 26.7182C94.6602 26.1321 94.6485 25.5166 94.3807 24.9924Z" fill="#EF966A"/>
<path d="M91.5776 37.158C89.1039 34.6397 83.3815 39.5902 79.5216 42.9477L78.8084 59.2526C87.6825 49.9781 90.8374 44.22 91.9665 41.0038C92.4209 39.7094 92.539 38.1366 91.5776 37.158Z" fill="#EF966A"/>
<path d="M91.206 49.1416C89.094 46.1982 82.3635 51.6986 78.5635 54.1889L75.9206 68.5601C84.7829 61.4951 89.1928 55.9348 90.9553 52.884C91.6251 51.7247 91.9865 50.2294 91.206 49.1416Z" fill="#EF966A"/>
<rect x="41.9126" width="51.9936" height="69.3249" rx="3" transform="rotate(10.3143 41.9126 0)" fill="#B2C0CD"/>
<rect x="46.0967" y="6.04639" width="41.5949" height="55.4599" transform="rotate(10.3143 46.0967 6.04639)" fill="#070B39"/>
<ellipse cx="61" cy="38" rx="16.5" ry="16" fill="#6E65E6"/>
<path fill-rule="evenodd" clip-rule="evenodd" d="M71.019 34.1809L58.962 45.685L52.4717 37.1061L55.6616 34.6928L59.4458 39.6947L68.2578 31.2869L71.019 34.1809Z" fill="white"/>
<path d="M19.8368 59.7279L10.5 75.5L38.9276 79L40.726 71.5408C42.577 63.8635 41.9474 55.7971 38.9276 48.5C46.3209 42.3162 48.3263 38.0184 48.5992 34.5688C48.8161 31.827 45.4882 30.3881 43.0809 31.7184L31.9033 37.8955C30.0183 38.9373 28.5199 40.5598 27.6312 42.5216L19.8368 59.7279Z" fill="#EF966A"/>
<path fill-rule="evenodd" clip-rule="evenodd" d="M59.8468 70.848L53.0263 69.6068L53.5635 66.6553L60.3839 67.8965L59.8468 70.848Z" fill="#070B39"/>
<path d="M3.99665 73.7207L1 79.5L62 80L40.3306 72.6544C35.1191 70.8878 29.7707 69.5544 24.3398 68.6677L16.5833 67.4014C11.4628 66.5654 6.38492 69.1148 3.99665 73.7207Z" fill="#CBBCF8"/>
</svg>
