<?xml version="1.0" encoding="UTF-8"?>
<svg width="222px" height="144px" viewBox="0 0 222 144" version="1.1" xmlns="http://www.w3.org/2000/svg" xmlns:xlink="http://www.w3.org/1999/xlink">
    <!-- Generator: Sketch 54.1 (76490) - https://sketchapp.com -->
    <title>Icon</title>
    <desc>Created with Sketch.</desc>
    <defs>
        <filter x="-10.2%" y="-12.5%" width="120.5%" height="125.0%" filterUnits="objectBoundingBox" id="filter-1">
            <feOffset dx="0" dy="2" in="SourceAlpha" result="shadowOffsetOuter1"></feOffset>
            <feGaussianBlur stdDeviation="2.5" in="shadowOffsetOuter1" result="shadowBlurOuter1"></feGaussianBlur>
            <feColorMatrix values="0 0 0 0 0   0 0 0 0 0   0 0 0 0 0  0 0 0 0.15 0" type="matrix" in="shadowBlurOuter1" result="shadowMatrixOuter1"></feColorMatrix>
            <feMerge>
                <feMergeNode in="shadowMatrixOuter1"></feMergeNode>
                <feMergeNode in="SourceGraphic"></feMergeNode>
            </feMerge>
        </filter>
        <filter x="-26.7%" y="-26.7%" width="153.3%" height="153.3%" filterUnits="objectBoundingBox" id="filter-2">
            <feOffset dx="0" dy="2" in="SourceAlpha" result="shadowOffsetOuter1"></feOffset>
            <feGaussianBlur stdDeviation="2" in="shadowOffsetOuter1" result="shadowBlurOuter1"></feGaussianBlur>
            <feColorMatrix values="0 0 0 0 0   0 0 0 0 0   0 0 0 0 0  0 0 0 0.15 0" type="matrix" in="shadowBlurOuter1" result="shadowMatrixOuter1"></feColorMatrix>
            <feMerge>
                <feMergeNode in="shadowMatrixOuter1"></feMergeNode>
                <feMergeNode in="SourceGraphic"></feMergeNode>
            </feMerge>
        </filter>
        <linearGradient x1="15.0648948%" y1="83.9749816%" x2="87.3955326%" y2="17.0679245%" id="linearGradient-3">
            <stop stop-color="#783AF7" offset="0%"></stop>
            <stop stop-color="#7468FA" offset="46.6672169%"></stop>
            <stop stop-color="#7282FB" offset="100%"></stop>
        </linearGradient>
        <path d="M11.5019041,30.6709823 C11.9749538,30.4526517 12.4261636,30.2343243 12.8555472,30.0159937 C13.2849308,29.7976631 13.6269769,29.6375563 13.881696,29.5356687 C14.136415,29.4337811 14.3401872,29.3828381 14.4930187,29.3828381 C14.7477377,29.3828381 14.9678845,29.4683496 15.1534655,29.6393752 C15.3390465,29.8104009 15.4318356,30.0232701 15.4318356,30.2779891 C15.4318356,30.4235429 15.3863508,30.5745526 15.2953797,30.7310229 C15.2044086,30.8874932 15.1079807,30.9875599 15.0060931,31.031226 C14.0672714,31.402388 13.0338553,31.6716584 11.9058138,31.8390453 C12.109589,32.0282651 12.3606654,32.2793416 12.6590506,32.5922821 C12.9574358,32.9052227 13.1139037,33.072607 13.1284591,33.09444 C13.2376244,33.2472715 13.3904536,33.4364885 13.5869511,33.6620968 C13.7834487,33.8877051 13.9199033,34.0641864 13.996319,34.1915459 C14.0727347,34.3189055 14.110942,34.473554 14.110942,34.6554962 C14.110942,34.8883822 14.0236111,35.0921544 13.8489466,35.2668189 C13.6742821,35.4414833 13.4486771,35.5288143 13.172125,35.5288143 C12.8955729,35.5288143 12.5844564,35.3141257 12.2387663,34.8847422 C11.8930761,34.4553586 11.4473245,33.6839353 10.9014979,32.5704492 C10.3483937,33.57477 9.97723719,34.2370296 9.78801732,34.5572479 C9.59879745,34.8774661 9.416858,35.1194456 9.2421935,35.2831936 C9.067529,35.4469415 8.8673956,35.5288143 8.6417873,35.5288143 C8.37251287,35.5288143 8.14872734,35.4360252 7.970424,35.2504441 C7.79212066,35.0648631 7.70297032,34.8665491 7.70297032,34.6554962 C7.70297032,34.4589986 7.73935821,34.3098083 7.81213509,34.2079206 C8.48168232,33.2982097 9.18032983,32.5085925 9.90809856,31.8390453 C9.29677283,31.7444353 8.75095446,31.6389104 8.2706271,31.5224674 C7.79029973,31.4060244 7.28086926,31.2350014 6.7423204,31.009393 C6.65498815,30.9657269 6.56947661,30.8656602 6.4857832,30.7091899 C6.4020898,30.5527197 6.36024372,30.4089875 6.36024372,30.2779891 C6.36024372,30.0232701 6.45303284,29.8104009 6.63861387,29.6393752 C6.8241949,29.4683496 7.03706406,29.3828381 7.27722774,29.3828381 C7.45189224,29.3828381 7.67021958,29.4356005 7.93221633,29.541127 C8.19421307,29.6466534 8.52716228,29.7994826 8.93107392,29.999619 C9.33498557,30.1997554 9.79529239,30.4235409 10.3120082,30.6709823 C10.2173983,30.212488 10.1391643,29.6866829 10.0773039,29.0935514 C10.0154436,28.5004199 9.9845139,28.0946949 9.9845139,27.8763643 C9.9845139,27.6070899 10.0700254,27.3760268 10.2410511,27.1831681 C10.4120767,26.9903093 10.6322235,26.8938814 10.9014979,26.8938814 C11.1634947,26.8938814 11.3800026,26.9903093 11.5510283,27.1831681 C11.7220539,27.3760268 11.8075655,27.6325614 11.8075655,27.9527796 C11.8075655,28.0401119 11.7948297,28.2129544 11.7693578,28.4713123 C11.7438859,28.7296702 11.707498,29.042606 11.660193,29.4101292 C11.6128881,29.7776525 11.5601256,30.1979326 11.5019041,30.6709823 Z M24.3991149,30.6709823 C24.8721646,30.4526517 25.3233744,30.2343243 25.752758,30.0159937 C26.1821415,29.7976631 26.5241877,29.6375563 26.7789067,29.5356687 C27.0336258,29.4337811 27.237398,29.3828381 27.3902294,29.3828381 C27.6449485,29.3828381 27.8650952,29.4683496 28.0506762,29.6393752 C28.2362573,29.8104009 28.3290464,30.0232701 28.3290464,30.2779891 C28.3290464,30.4235429 28.2835615,30.5745526 28.1925904,30.7310229 C28.1016193,30.8874932 28.0051914,30.9875599 27.9033038,31.031226 C26.9644821,31.402388 25.931066,31.6716584 24.8030245,31.8390453 C25.0067997,32.0282651 25.2578762,32.2793416 25.5562614,32.5922821 C25.8546466,32.9052227 26.0111145,33.072607 26.0256699,33.09444 C26.1348352,33.2472715 26.2876643,33.4364885 26.4841619,33.6620968 C26.6806594,33.8877051 26.817114,34.0641864 26.8935297,34.1915459 C26.9699455,34.3189055 27.0081527,34.473554 27.0081527,34.6554962 C27.0081527,34.8883822 26.9208218,35.0921544 26.7461573,35.2668189 C26.5714928,35.4414833 26.3458879,35.5288143 26.0693358,35.5288143 C25.7927836,35.5288143 25.4816672,35.3141257 25.135977,34.8847422 C24.7902869,34.4553586 24.3445352,33.6839353 23.7987087,32.5704492 C23.2456044,33.57477 22.8744479,34.2370296 22.6852281,34.5572479 C22.4960082,34.8774661 22.3140687,35.1194456 22.1394043,35.2831936 C21.9647398,35.4469415 21.7646064,35.5288143 21.538998,35.5288143 C21.2697236,35.5288143 21.0459381,35.4360252 20.8676347,35.2504441 C20.6893314,35.0648631 20.6001811,34.8665491 20.6001811,34.6554962 C20.6001811,34.4589986 20.636569,34.3098083 20.7093458,34.2079206 C21.3788931,33.2982097 22.0775406,32.5085925 22.8053093,31.8390453 C22.1939836,31.7444353 21.6481652,31.6389104 21.1678378,31.5224674 C20.6875105,31.4060244 20.17808,31.2350014 19.6395311,31.009393 C19.5521989,30.9657269 19.4666874,30.8656602 19.382994,30.7091899 C19.2993005,30.5527197 19.2574545,30.4089875 19.2574545,30.2779891 C19.2574545,30.0232701 19.3502436,29.8104009 19.5358246,29.6393752 C19.7214056,29.4683496 19.9342748,29.3828381 20.1744385,29.3828381 C20.349103,29.3828381 20.5674303,29.4356005 20.8294271,29.541127 C21.0914238,29.6466534 21.424373,29.7994826 21.8282847,29.999619 C22.2321963,30.1997554 22.6925031,30.4235409 23.2092189,30.6709823 C23.114609,30.212488 23.036375,29.6866829 22.9745147,29.0935514 C22.9126544,28.5004199 22.8817246,28.0946949 22.8817246,27.8763643 C22.8817246,27.6070899 22.9672362,27.3760268 23.1382618,27.1831681 C23.3092875,26.9903093 23.5294342,26.8938814 23.7987087,26.8938814 C24.0607054,26.8938814 24.2772134,26.9903093 24.448239,27.1831681 C24.6192647,27.3760268 24.7047762,27.6325614 24.7047762,27.9527796 C24.7047762,28.0401119 24.6920405,28.2129544 24.6665685,28.4713123 C24.6410966,28.7296702 24.6047087,29.042606 24.5574038,29.4101292 C24.5100988,29.7776525 24.4573364,30.1979326 24.3991149,30.6709823 Z M37.2963256,30.6709823 C37.7693753,30.4526517 38.2205851,30.2343243 38.6499687,30.0159937 C39.0793523,29.7976631 39.4213984,29.6375563 39.6761175,29.5356687 C39.9308365,29.4337811 40.1346087,29.3828381 40.2874402,29.3828381 C40.5421592,29.3828381 40.762306,29.4683496 40.947887,29.6393752 C41.133468,29.8104009 41.2262571,30.0232701 41.2262571,30.2779891 C41.2262571,30.4235429 41.1807723,30.5745526 41.0898012,30.7310229 C40.9988301,30.8874932 40.9024022,30.9875599 40.8005146,31.031226 C39.8616929,31.402388 38.8282768,31.6716584 37.7002353,31.8390453 C37.9040105,32.0282651 38.1550869,32.2793416 38.4534721,32.5922821 C38.7518573,32.9052227 38.9083252,33.072607 38.9228806,33.09444 C39.0320459,33.2472715 39.1848751,33.4364885 39.3813726,33.6620968 C39.5778702,33.8877051 39.7143248,34.0641864 39.7907405,34.1915459 C39.8671562,34.3189055 39.9053635,34.473554 39.9053635,34.6554962 C39.9053635,34.8883822 39.8180326,35.0921544 39.6433681,35.2668189 C39.4687036,35.4414833 39.2430986,35.5288143 38.9665465,35.5288143 C38.6899944,35.5288143 38.3788779,35.3141257 38.0331878,34.8847422 C37.6874976,34.4553586 37.241746,33.6839353 36.6959194,32.5704492 C36.1428152,33.57477 35.7716587,34.2370296 35.5824388,34.5572479 C35.393219,34.8774661 35.2112795,35.1194456 35.036615,35.2831936 C34.8619505,35.4469415 34.6618171,35.5288143 34.4362088,35.5288143 C34.1669344,35.5288143 33.9431488,35.4360252 33.7648455,35.2504441 C33.5865422,35.0648631 33.4973918,34.8665491 33.4973918,34.6554962 C33.4973918,34.4589986 33.5337797,34.3098083 33.6065566,34.2079206 C34.2761038,33.2982097 34.9747513,32.5085925 35.7025201,31.8390453 C35.0911943,31.7444353 34.545376,31.6389104 34.0650486,31.5224674 C33.5847212,31.4060244 33.0752908,31.2350014 32.5367419,31.009393 C32.4494096,30.9657269 32.3638981,30.8656602 32.2802047,30.7091899 C32.1965113,30.5527197 32.1546652,30.4089875 32.1546652,30.2779891 C32.1546652,30.0232701 32.2474543,29.8104009 32.4330354,29.6393752 C32.6186164,29.4683496 32.8314856,29.3828381 33.0716492,29.3828381 C33.2463137,29.3828381 33.4646411,29.4356005 33.7266378,29.541127 C33.9886346,29.6466534 34.3215838,29.7994826 34.7254954,29.999619 C35.1294071,30.1997554 35.5897139,30.4235409 36.1064297,30.6709823 C36.0118198,30.212488 35.9335858,29.6866829 35.8717254,29.0935514 C35.8098651,28.5004199 35.7789354,28.0946949 35.7789354,27.8763643 C35.7789354,27.6070899 35.8644469,27.3760268 36.0354726,27.1831681 C36.2064982,26.9903093 36.426645,26.8938814 36.6959194,26.8938814 C36.9579162,26.8938814 37.1744241,26.9903093 37.3454498,27.1831681 C37.5164754,27.3760268 37.601987,27.6325614 37.601987,27.9527796 C37.601987,28.0401119 37.5892512,28.2129544 37.5637793,28.4713123 C37.5383074,28.7296702 37.5019195,29.042606 37.4546145,29.4101292 C37.4073096,29.7776525 37.3545471,30.1979326 37.2963256,30.6709823 Z M50.1935364,30.6709823 C50.6665861,30.4526517 51.1177959,30.2343243 51.5471795,30.0159937 C51.976563,29.7976631 52.3186092,29.6375563 52.5733282,29.5356687 C52.8280473,29.4337811 53.0318195,29.3828381 53.1846509,29.3828381 C53.43937,29.3828381 53.6595167,29.4683496 53.8450977,29.6393752 C54.0306788,29.8104009 54.1234679,30.0232701 54.1234679,30.2779891 C54.1234679,30.4235429 54.077983,30.5745526 53.9870119,30.7310229 C53.8960408,30.8874932 53.7996129,30.9875599 53.6977253,31.031226 C52.7589036,31.402388 51.7254875,31.6716584 50.597446,31.8390453 C50.8012212,32.0282651 51.0522977,32.2793416 51.3506829,32.5922821 C51.6490681,32.9052227 51.805536,33.072607 51.8200914,33.09444 C51.9292567,33.2472715 52.0820858,33.4364885 52.2785834,33.6620968 C52.4750809,33.8877051 52.6115355,34.0641864 52.6879512,34.1915459 C52.764367,34.3189055 52.8025742,34.473554 52.8025742,34.6554962 C52.8025742,34.8883822 52.7152433,35.0921544 52.5405788,35.2668189 C52.3659143,35.4414833 52.1403094,35.5288143 51.8637573,35.5288143 C51.5872051,35.5288143 51.2760887,35.3141257 50.9303985,34.8847422 C50.5847084,34.4553586 50.1389567,33.6839353 49.5931302,32.5704492 C49.0400259,33.57477 48.6688694,34.2370296 48.4796496,34.5572479 C48.2904297,34.8774661 48.1084902,35.1194456 47.9338258,35.2831936 C47.7591613,35.4469415 47.5590279,35.5288143 47.3334195,35.5288143 C47.0641451,35.5288143 46.8403596,35.4360252 46.6620562,35.2504441 C46.4837529,35.0648631 46.3946026,34.8665491 46.3946026,34.6554962 C46.3946026,34.4589986 46.4309905,34.3098083 46.5037673,34.2079206 C47.1733146,33.2982097 47.8719621,32.5085925 48.5997308,31.8390453 C47.9884051,31.7444353 47.4425867,31.6389104 46.9622593,31.5224674 C46.481932,31.4060244 45.9725015,31.2350014 45.4339526,31.009393 C45.3466204,30.9657269 45.2611089,30.8656602 45.1774155,30.7091899 C45.093722,30.5527197 45.051876,30.4089875 45.051876,30.2779891 C45.051876,30.0232701 45.1446651,29.8104009 45.3302461,29.6393752 C45.5158271,29.4683496 45.7286963,29.3828381 45.96886,29.3828381 C46.1435245,29.3828381 46.3618518,29.4356005 46.6238486,29.541127 C46.8858453,29.6466534 47.2187945,29.7994826 47.6227062,29.999619 C48.0266178,30.1997554 48.4869246,30.4235409 49.0036404,30.6709823 C48.9090305,30.212488 48.8307965,29.6866829 48.7689362,29.0935514 C48.7070759,28.5004199 48.6761461,28.0946949 48.6761461,27.8763643 C48.6761461,27.6070899 48.7616577,27.3760268 48.9326833,27.1831681 C49.103709,26.9903093 49.3238557,26.8938814 49.5931302,26.8938814 C49.8551269,26.8938814 50.0716349,26.9903093 50.2426605,27.1831681 C50.4136862,27.3760268 50.4991977,27.6325614 50.4991977,27.9527796 C50.4991977,28.0401119 50.486462,28.2129544 50.46099,28.4713123 C50.4355181,28.7296702 50.3991302,29.042606 50.3518253,29.4101292 C50.3045203,29.7776525 50.2517579,30.1979326 50.1935364,30.6709823 Z" id="path-4"></path>
        <filter x="-0.5%" y="-4.3%" width="101.3%" height="108.7%" filterUnits="objectBoundingBox" id="filter-5">
            <feMorphology radius="0.125" operator="dilate" in="SourceAlpha" result="shadowSpreadOuter1"></feMorphology>
            <feOffset dx="0" dy="0" in="shadowSpreadOuter1" result="shadowOffsetOuter1"></feOffset>
            <feColorMatrix values="0 0 0 0 1   0 0 0 0 1   0 0 0 0 1  0 0 0 1 0" type="matrix" in="shadowOffsetOuter1"></feColorMatrix>
        </filter>
    </defs>
    <g id="Icon" stroke="none" stroke-width="1" fill="none" fill-rule="evenodd">
        <rect fill="#FFFFFF" x="0" y="0" width="222" height="144"></rect>
        <g id="Illustration">
            <rect id="Rectangle" fill="#D8D8D8" fill-rule="nonzero" opacity="0" x="0" y="0" width="222" height="144"></rect>
            <g id="TV" transform="translate(47.000000, 25.000000)" fill-rule="nonzero">
                <g id="Group" filter="url(#filter-1)" fill="#F1F1F5">
                    <rect id="Rectangle" x="0" y="0" width="132" height="85" rx="4"></rect>
                    <path d="M60,85 L38.7737631,104.528138 C37.9608761,105.275994 37.9081581,106.541226 38.6560141,107.354113 C39.0347284,107.765759 39.5685221,108 40.1278761,108 L49.3035389,108 C50.3877717,108 51.4255578,107.559859 52.1792043,106.780386 L67,91.4517081 L80.8092882,106.686384 C81.5675239,107.522884 82.6439529,108 83.7729588,108 L92.4168716,108 C93.5214411,108 94.4168716,107.104569 94.4168716,106 C94.4168716,105.46841 94.2052405,104.958691 93.828723,104.583428 L74.1798194,85" id="Path-10"></path>
                </g>
                <rect id="Rectangle" fill="#FFFFFF" x="6" y="6" width="120" height="73" rx="4"></rect>
            </g>
            <g id="codes" transform="translate(83.000000, 11.000000)">
                <g id="Group-17" filter="url(#filter-2)" fill="url(#linearGradient-3)" stroke="#FFFFFF" stroke-width="4">
                    <rect id="Rectangle-2-Copy-3" x="-2" y="-2" width="64" height="64" rx="32"></rect>
                </g>
                <g id="****" fill-rule="nonzero">
                    <use fill="black" fill-opacity="1" filter="url(#filter-5)" xlink:href="#path-4"></use>
                    <use fill-opacity="0.5" fill="#FFFFFF" xlink:href="#path-4"></use>
                    <use fill="#FFFFFF" xlink:href="#path-4"></use>
                </g>
            </g>
            <g id="confettis" transform="translate(5.000000, 28.000000)">
                <g id="Group-6" transform="translate(0.000000, 2.000000)">
                    <path d="M28.75776,71.5705489 C33.7880082,76.6760538 35.4690762,76.6985802 40.5203556,71.7223876 C35.4690762,76.6985802 35.4663931,78.381454 40.4946704,83.4811286 C35.4663931,78.381454 33.7823944,78.3550322 28.7340405,83.3341502 C33.7823893,78.3540622 33.7880082,76.6760538 28.75776,71.5705489 Z" id="Path-Copy-16" fill="#DFE2E8" transform="translate(34.627198, 77.525839) rotate(-315.000000) translate(-34.627198, -77.525839) "></path>
                    <path d="M27.5,22 L24,23.3112927 L24,25.0596829 C24.0012964,27.2809522 25.4035814,29.2603044 27.5,30 C29.5964186,29.2603044 30.9987036,27.2809522 31,25.0596829 L31,23.3112927 L27.5,22 Z" id="Path-Copy-6" stroke="#DFE2E8" stroke-width="0.884"></path>
                    <path d="M18.7263274,58.89627 L20.6262966,58.89627 C20.9739282,58.89627 21.2557392,59.1799844 21.2557392,59.5354609 C21.2557392,59.8884762 20.9675985,60.1746517 20.6262966,60.1746517 L18.7263274,60.1746517 L18.7263274,62.095166 C18.7263274,62.4465566 18.4456482,62.731415 18.0939745,62.731415 C17.7447356,62.731415 17.4616216,62.4567627 17.4616216,62.095166 L17.4616216,60.1746517 L15.5616524,60.1746517 C15.2140208,60.1746517 14.9322098,59.8909374 14.9322098,59.5354609 C14.9322098,59.1824455 15.2203505,58.89627 15.5616524,58.89627 L17.4616216,58.89627 L17.4616216,56.9757557 C17.4616216,56.6243651 17.7423008,56.3395067 18.0939745,56.3395067 C18.4432134,56.3395067 18.7263274,56.6141591 18.7263274,56.9757557 L18.7263274,58.89627 Z" id="Combined-Shape-Copy-10" fill="#DFE2E8" transform="translate(18.093974, 59.535461) rotate(39.000000) translate(-18.093974, -59.535461) "></path>
                    <path d="M31.3733863,3.88452707 L33.2733554,3.88452707 C33.620987,3.88452707 33.902798,4.16824139 33.902798,4.52371789 C33.902798,4.87673323 33.6146573,5.16290871 33.2733554,5.16290871 L31.3733863,5.16290871 L31.3733863,7.08342301 C31.3733863,7.43481362 31.092707,7.719672 30.7410333,7.719672 C30.3917944,7.719672 30.1086804,7.44501969 30.1086804,7.08342301 L30.1086804,5.16290871 L28.2087112,5.16290871 C27.8610797,5.16290871 27.5792686,4.87919439 27.5792686,4.52371789 C27.5792686,4.17070255 27.8674093,3.88452707 28.2087112,3.88452707 L30.1086804,3.88452707 L30.1086804,1.96401277 C30.1086804,1.61262216 30.3893596,1.32776379 30.7410333,1.32776379 C31.0902722,1.32776379 31.3733863,1.60241609 31.3733863,1.96401277 L31.3733863,3.88452707 Z" id="Combined-Shape-Copy-8" fill="#DFE2E8" transform="translate(30.741033, 4.523718) rotate(39.000000) translate(-30.741033, -4.523718) "></path>
                    <path d="M6.07926861,20.5448208 L7.9792378,20.5448208 C8.32686934,20.5448208 8.60868038,20.8285351 8.60868038,21.1840116 C8.60868038,21.5370269 8.32053966,21.8232024 7.9792378,21.8232024 L6.07926861,21.8232024 L6.07926861,23.7437167 C6.07926861,24.0951073 5.79858939,24.3799657 5.44691567,24.3799657 C5.09767679,24.3799657 4.81456273,24.1053134 4.81456273,23.7437167 L4.81456273,21.8232024 L2.91459355,21.8232024 C2.56696201,21.8232024 2.28515097,21.5394881 2.28515097,21.1840116 C2.28515097,20.8309962 2.57329169,20.5448208 2.91459355,20.5448208 L4.81456273,20.5448208 L4.81456273,18.6243065 C4.81456273,18.2729158 5.09524196,17.9880575 5.44691567,17.9880575 C5.79615456,17.9880575 6.07926861,18.2627098 6.07926861,18.6243065 L6.07926861,20.5448208 Z" id="Combined-Shape-Copy-9" fill="#DFE2E8" transform="translate(5.446916, 21.184012) rotate(39.000000) translate(-5.446916, -21.184012) "></path>
                    <ellipse id="Oval-2-Copy-3" stroke="#E0E4E9" transform="translate(36.411765, 45.325334) scale(-1, 1) rotate(-37.000000) translate(-36.411765, -45.325334) " cx="36.4117647" cy="45.3253344" rx="1.76967637" ry="1.77344587"></ellipse>
                </g>
                <g id="Group-7" transform="translate(174.000000, 0.000000)">
                    <path d="M2.30168849,49.1517908 C6.80638612,53.7247445 8.32139106,53.7354906 12.9023571,49.2217729 C8.32139106,53.7354906 8.30940587,55.2522664 12.8123602,59.8199765 C8.30940587,55.2522664 6.79178173,55.238026 2.21343571,59.7543638 C6.79178259,55.2371517 6.80638612,53.7247445 2.30168849,49.1517908 Z" id="Path-Copy-15" fill="#DFE2E8" transform="translate(7.557896, 54.485884) rotate(-315.000000) translate(-7.557896, -54.485884) "></path>
                    <path d="M22.5,32 L19,33.3112927 L19,35.0596829 C19.0012964,37.2809522 20.4035814,39.2603044 22.5,40 C24.5964186,39.2603044 25.9987036,37.2809522 26,35.0596829 L26,33.3112927 L22.5,32 Z" id="Path-Copy-5" stroke="#DFE2E8" stroke-width="0.884"></path>
                    <path d="M17.5,0 L14,1.31129269 L14,3.05968294 C14.0012964,5.28095223 15.4035814,7.26030436 17.5,8 C19.5964186,7.26030436 20.9987036,5.28095223 21,3.05968294 L21,1.31129269 L17.5,0 Z" id="Path-Copy-7" stroke="#DFE2E8" stroke-width="0.884"></path>
                    <path d="M13.7832491,73.2938711 L15.506477,73.2938711 C15.8217707,73.2938711 16.0773667,73.5594182 16.0773667,73.8663348 C16.0773667,74.1824979 15.8309283,74.4387986 15.506477,74.4387986 L13.7832491,74.4387986 L13.7832491,76.1588246 C13.7832491,76.4735325 13.5172076,76.7286537 13.2097197,76.7286537 C12.8929681,76.7286537 12.6361903,76.4678023 12.6361903,76.1588246 L12.6361903,74.4387986 L10.9129624,74.4387986 C10.5976687,74.4387986 10.3420726,74.1732515 10.3420726,73.8663348 C10.3420726,73.5501718 10.588511,73.2938711 10.9129624,73.2938711 L12.6361903,73.2938711 L12.6361903,71.5738451 C12.6361903,71.2591372 12.9022318,71.004016 13.2097197,71.004016 C13.5264712,71.004016 13.7832491,71.2648674 13.7832491,71.5738451 L13.7832491,73.2938711 Z" id="Combined-Shape-Copy-6" fill="#DFE2E8" transform="translate(13.209720, 73.866335) rotate(39.000000) translate(-13.209720, -73.866335) "></path>
                    <path d="M8.04795498,13.7576392 L9.77118285,13.7576392 C10.0864766,13.7576392 10.3420726,14.0231864 10.3420726,14.330103 C10.3420726,14.646266 10.0956342,14.9025667 9.77118285,14.9025667 L8.04795498,14.9025667 L8.04795498,16.6225928 C8.04795498,16.9373007 7.78191351,17.1924218 7.47442557,17.1924218 C7.15767402,17.1924218 6.90089616,16.9315704 6.90089616,16.6225928 L6.90089616,14.9025667 L5.17766829,14.9025667 C4.86237457,14.9025667 4.60677851,14.6370196 4.60677851,14.330103 C4.60677851,14.01394 4.85321693,13.7576392 5.17766829,13.7576392 L6.90089616,13.7576392 L6.90089616,12.0376132 C6.90089616,11.7229053 7.16693763,11.4677841 7.47442557,11.4677841 C7.79117712,11.4677841 8.04795498,11.7286355 8.04795498,12.0376132 L8.04795498,13.7576392 Z" id="Combined-Shape-Copy-7" fill="#DFE2E8" transform="translate(7.474426, 14.330103) rotate(39.000000) translate(-7.474426, -14.330103) "></path>
                    <ellipse id="Oval-2-Copy-2" stroke="#E0E4E9" transform="translate(37.165223, 48.545443) scale(-1, 1) rotate(-37.000000) translate(-37.165223, -48.545443) " cx="37.1652227" cy="48.5454434" rx="1.64628738" ry="1.64569992"></ellipse>
                </g>
            </g>
        </g>
    </g>
</svg>