<?xml version="1.0" encoding="UTF-8"?>
<svg width="212px" height="121px" viewBox="0 0 212 121" version="1.1" xmlns="http://www.w3.org/2000/svg" xmlns:xlink="http://www.w3.org/1999/xlink">
    <!-- Generator: Sketch 52.5 (67469) - http://www.bohemiancoding.com/sketch -->
    <title>Icon</title>
    <desc>Created with Sketch.</desc>
    <defs>
        <filter x="-10.2%" y="-12.5%" width="120.5%" height="125.0%" filterUnits="objectBoundingBox" id="filter-1">
            <feOffset dx="0" dy="2" in="SourceAlpha" result="shadowOffsetOuter1"></feOffset>
            <feGaussianBlur stdDeviation="2.5" in="shadowOffsetOuter1" result="shadowBlurOuter1"></feGaussianBlur>
            <feColorMatrix values="0 0 0 0 0   0 0 0 0 0   0 0 0 0 0  0 0 0 0.15 0" type="matrix" in="shadowBlurOuter1" result="shadowMatrixOuter1"></feColorMatrix>
            <feMerge>
                <feMergeNode in="shadowMatrixOuter1"></feMergeNode>
                <feMergeNode in="SourceGraphic"></feMergeNode>
            </feMerge>
        </filter>
        <filter x="-26.7%" y="-26.7%" width="153.3%" height="153.3%" filterUnits="objectBoundingBox" id="filter-2">
            <feOffset dx="0" dy="2" in="SourceAlpha" result="shadowOffsetOuter1"></feOffset>
            <feGaussianBlur stdDeviation="2" in="shadowOffsetOuter1" result="shadowBlurOuter1"></feGaussianBlur>
            <feColorMatrix values="0 0 0 0 0   0 0 0 0 0   0 0 0 0 0  0 0 0 0.15 0" type="matrix" in="shadowBlurOuter1" result="shadowMatrixOuter1"></feColorMatrix>
            <feMerge>
                <feMergeNode in="shadowMatrixOuter1"></feMergeNode>
                <feMergeNode in="SourceGraphic"></feMergeNode>
            </feMerge>
        </filter>
        <linearGradient x1="15.0648948%" y1="83.9749816%" x2="87.3955326%" y2="17.0679245%" id="linearGradient-3">
            <stop stop-color="#783AF7" offset="0%"></stop>
            <stop stop-color="#7468FA" offset="46.6672169%"></stop>
            <stop stop-color="#7282FB" offset="100%"></stop>
        </linearGradient>
    </defs>
    <g id="Page-1" stroke="none" stroke-width="1" fill="none" fill-rule="evenodd">
        <g id="URL-First-(Mobile)-(UI)-4" transform="translate(-56.000000, -196.000000)">
            <g id="Icon" transform="translate(54.000000, 202.000000)">
                <g id="TV" filter="url(#filter-1)" transform="translate(42.000000, 0.000000)" fill="#F1F1F5" fill-rule="nonzero">
                    <rect id="Rectangle" x="0" y="0" width="132" height="85" rx="4"></rect>
                    <path d="M60.8306205,85 L39.9280242,104.53893 C39.1210977,105.293214 39.078422,106.558824 39.8327054,107.365751 C40.2109043,107.770345 40.7399421,108 41.2937751,108 L49.4122896,108 C49.9336426,108 50.4343882,107.79642 50.8078417,107.432632 L67.2253987,91.44 L81.6299913,107.34267 C82.0091265,107.761235 82.5475511,108 83.1122992,108 L91.4168716,108 C92.5214411,108 93.4168716,107.104569 93.4168716,106 C93.4168716,105.46841 93.2052405,104.958691 92.828723,104.583428 L73.1798194,85" id="Path-10"></path>
                </g>
                <rect id="TV-Inner" fill="#FFFFFF" fill-rule="nonzero" x="48" y="6" width="120" height="73" rx="4"></rect>
                <g id="Check" filter="url(#filter-2)" transform="translate(78.000000, 0.000000)" stroke="#FFFFFF">
                    <rect id="Rectangle-2-Copy-3" stroke-width="4" fill="url(#linearGradient-3)" x="-2" y="-2" width="64" height="64" rx="32"></rect>
                    <path d="M18.6214185,30.7764779 C18.133833,30.3053351 18.1419077,29.548098 18.6388101,29.0854773 C19.1363337,28.6234652 19.9351044,28.6307697 20.4233111,29.1025212 L27.2302538,35.7155631 L42.1857758,21.2282289 C42.6733613,20.7564775 43.472132,20.749173 43.9696556,21.2117937 C44.4671792,21.6738058 44.4746328,22.4310429 43.9870472,22.9021856 L27.2302538,39.1304348 L18.6214185,30.7764779 Z" id="Fill-2" stroke-width="1.56521739" fill="#FFFFFF"></path>
                </g>
                <g id="Right" transform="translate(174.000000, 15.000000)">
                    <path d="M2.30168849,49.1517908 C6.80638612,53.7247445 8.32139106,53.7354906 12.9023571,49.2217729 C8.32139106,53.7354906 8.30940587,55.2522664 12.8123602,59.8199765 C8.30940587,55.2522664 6.79178173,55.238026 2.21343571,59.7543638 C6.79178259,55.2371517 6.80638612,53.7247445 2.30168849,49.1517908 Z" id="Path-Copy-15" fill="#DFE2E8" transform="translate(7.557896, 54.485884) rotate(-315.000000) translate(-7.557896, -54.485884) "></path>
                    <path d="M22.5,32 L19,33.3112927 L19,35.0596829 C19.0012964,37.2809522 20.4035814,39.2603044 22.5,40 C24.5964186,39.2603044 25.9987036,37.2809522 26,35.0596829 L26,33.3112927 L22.5,32 Z" id="Path-Copy-5" stroke="#DFE2E8" stroke-width="0.884"></path>
                    <path d="M17.5,0 L14,1.31129269 L14,3.05968294 C14.0012964,5.28095223 15.4035814,7.26030436 17.5,8 C19.5964186,7.26030436 20.9987036,5.28095223 21,3.05968294 L21,1.31129269 L17.5,0 Z" id="Path-Copy-7" stroke="#DFE2E8" stroke-width="0.884"></path>
                    <path d="M13.7832491,73.2938711 L15.506477,73.2938711 C15.8217707,73.2938711 16.0773667,73.5594182 16.0773667,73.8663348 C16.0773667,74.1824979 15.8309283,74.4387986 15.506477,74.4387986 L13.7832491,74.4387986 L13.7832491,76.1588246 C13.7832491,76.4735325 13.5172076,76.7286537 13.2097197,76.7286537 C12.8929681,76.7286537 12.6361903,76.4678023 12.6361903,76.1588246 L12.6361903,74.4387986 L10.9129624,74.4387986 C10.5976687,74.4387986 10.3420726,74.1732515 10.3420726,73.8663348 C10.3420726,73.5501718 10.588511,73.2938711 10.9129624,73.2938711 L12.6361903,73.2938711 L12.6361903,71.5738451 C12.6361903,71.2591372 12.9022318,71.004016 13.2097197,71.004016 C13.5264712,71.004016 13.7832491,71.2648674 13.7832491,71.5738451 L13.7832491,73.2938711 Z" id="Combined-Shape-Copy-6" fill="#DFE2E8" transform="translate(13.209720, 73.866335) rotate(39.000000) translate(-13.209720, -73.866335) "></path>
                    <path d="M8.04795498,13.7576392 L9.77118285,13.7576392 C10.0864766,13.7576392 10.3420726,14.0231864 10.3420726,14.330103 C10.3420726,14.646266 10.0956342,14.9025667 9.77118285,14.9025667 L8.04795498,14.9025667 L8.04795498,16.6225928 C8.04795498,16.9373007 7.78191351,17.1924218 7.47442557,17.1924218 C7.15767402,17.1924218 6.90089616,16.9315704 6.90089616,16.6225928 L6.90089616,14.9025667 L5.17766829,14.9025667 C4.86237457,14.9025667 4.60677851,14.6370196 4.60677851,14.330103 C4.60677851,14.01394 4.85321693,13.7576392 5.17766829,13.7576392 L6.90089616,13.7576392 L6.90089616,12.0376132 C6.90089616,11.7229053 7.16693763,11.4677841 7.47442557,11.4677841 C7.79117712,11.4677841 8.04795498,11.7286355 8.04795498,12.0376132 L8.04795498,13.7576392 Z" id="Combined-Shape-Copy-7" fill="#DFE2E8" transform="translate(7.474426, 14.330103) rotate(39.000000) translate(-7.474426, -14.330103) "></path>
                    <ellipse id="Oval-2-Copy-2" stroke="#E0E4E9" transform="translate(37.165223, 48.545443) scale(-1, 1) rotate(-37.000000) translate(-37.165223, -48.545443) " cx="37.1652227" cy="48.5454434" rx="1.64628738" ry="1.64569992"></ellipse>
                </g>
                <g id="Left" transform="translate(0.000000, 17.000000)">
                    <path d="M28.75776,71.5705489 C33.7880082,76.6760538 35.4690762,76.6985802 40.5203556,71.7223876 C35.4690762,76.6985802 35.4663931,78.381454 40.4946704,83.4811286 C35.4663931,78.381454 33.7823944,78.3550322 28.7340405,83.3341502 C33.7823893,78.3540622 33.7880082,76.6760538 28.75776,71.5705489 Z" id="Path-Copy-16" fill="#DFE2E8" transform="translate(34.627198, 77.525839) rotate(-315.000000) translate(-34.627198, -77.525839) "></path>
                    <path d="M27.5,22 L24,23.3112927 L24,25.0596829 C24.0012964,27.2809522 25.4035814,29.2603044 27.5,30 C29.5964186,29.2603044 30.9987036,27.2809522 31,25.0596829 L31,23.3112927 L27.5,22 Z" id="Path-Copy-6" stroke="#DFE2E8" stroke-width="0.884"></path>
                    <path d="M18.7263274,58.89627 L20.6262966,58.89627 C20.9739282,58.89627 21.2557392,59.1799844 21.2557392,59.5354609 C21.2557392,59.8884762 20.9675985,60.1746517 20.6262966,60.1746517 L18.7263274,60.1746517 L18.7263274,62.095166 C18.7263274,62.4465566 18.4456482,62.731415 18.0939745,62.731415 C17.7447356,62.731415 17.4616216,62.4567627 17.4616216,62.095166 L17.4616216,60.1746517 L15.5616524,60.1746517 C15.2140208,60.1746517 14.9322098,59.8909374 14.9322098,59.5354609 C14.9322098,59.1824455 15.2203505,58.89627 15.5616524,58.89627 L17.4616216,58.89627 L17.4616216,56.9757557 C17.4616216,56.6243651 17.7423008,56.3395067 18.0939745,56.3395067 C18.4432134,56.3395067 18.7263274,56.6141591 18.7263274,56.9757557 L18.7263274,58.89627 Z" id="Combined-Shape-Copy-10" fill="#DFE2E8" transform="translate(18.093974, 59.535461) rotate(39.000000) translate(-18.093974, -59.535461) "></path>
                    <path d="M31.3733863,3.88452707 L33.2733554,3.88452707 C33.620987,3.88452707 33.902798,4.16824139 33.902798,4.52371789 C33.902798,4.87673323 33.6146573,5.16290871 33.2733554,5.16290871 L31.3733863,5.16290871 L31.3733863,7.08342301 C31.3733863,7.43481362 31.092707,7.719672 30.7410333,7.719672 C30.3917944,7.719672 30.1086804,7.44501969 30.1086804,7.08342301 L30.1086804,5.16290871 L28.2087112,5.16290871 C27.8610797,5.16290871 27.5792686,4.87919439 27.5792686,4.52371789 C27.5792686,4.17070255 27.8674093,3.88452707 28.2087112,3.88452707 L30.1086804,3.88452707 L30.1086804,1.96401277 C30.1086804,1.61262216 30.3893596,1.32776379 30.7410333,1.32776379 C31.0902722,1.32776379 31.3733863,1.60241609 31.3733863,1.96401277 L31.3733863,3.88452707 Z" id="Combined-Shape-Copy-8" fill="#DFE2E8" transform="translate(30.741033, 4.523718) rotate(39.000000) translate(-30.741033, -4.523718) "></path>
                    <path d="M6.07926861,20.5448208 L7.9792378,20.5448208 C8.32686934,20.5448208 8.60868038,20.8285351 8.60868038,21.1840116 C8.60868038,21.5370269 8.32053966,21.8232024 7.9792378,21.8232024 L6.07926861,21.8232024 L6.07926861,23.7437167 C6.07926861,24.0951073 5.79858939,24.3799657 5.44691567,24.3799657 C5.09767679,24.3799657 4.81456273,24.1053134 4.81456273,23.7437167 L4.81456273,21.8232024 L2.91459355,21.8232024 C2.56696201,21.8232024 2.28515097,21.5394881 2.28515097,21.1840116 C2.28515097,20.8309962 2.57329169,20.5448208 2.91459355,20.5448208 L4.81456273,20.5448208 L4.81456273,18.6243065 C4.81456273,18.2729158 5.09524196,17.9880575 5.44691567,17.9880575 C5.79615456,17.9880575 6.07926861,18.2627098 6.07926861,18.6243065 L6.07926861,20.5448208 Z" id="Combined-Shape-Copy-9" fill="#DFE2E8" transform="translate(5.446916, 21.184012) rotate(39.000000) translate(-5.446916, -21.184012) "></path>
                    <ellipse id="Oval-2-Copy-3" stroke="#E0E4E9" transform="translate(36.411765, 45.325334) scale(-1, 1) rotate(-37.000000) translate(-36.411765, -45.325334) " cx="36.4117647" cy="45.3253344" rx="1.76967637" ry="1.77344587"></ellipse>
                </g>
            </g>
        </g>
    </g>
</svg>