<svg width="160" height="104" xmlns="http://www.w3.org/2000/svg" xmlns:xlink="http://www.w3.org/1999/xlink"><defs><rect id="path-1" x="4.229" y="7.523" width="49.468" height="73.739" rx="1.718"/><rect id="path-3" x="4.1" y="8.278" width="73.8" height="47.596" rx="3.075"/><filter x="-6.8%" y="-8.4%" width="113.6%" height="121%" filterUnits="objectBoundingBox" id="filter-4"><feOffset dy="1" in="SourceAlpha" result="shadowOffsetOuter1"/><feGaussianBlur stdDeviation="1.5" in="shadowOffsetOuter1" result="shadowBlurOuter1"/><feColorMatrix values="0 0 0 0 0.878431373 0 0 0 0 0.894117647 0 0 0 0 0.91372549 0 0 0 1 0" in="shadowBlurOuter1"/></filter><linearGradient x1="50%" y1="90.702%" x2="50%" y2="0%" id="linearGradient-5"><stop stop-color="#E0E4E9" offset="0%"/><stop stop-color="#D8DADE" offset="100%"/></linearGradient><circle id="path-6" cx="15" cy="15" r="15"/><filter x="-35%" y="-25%" width="170%" height="170%" filterUnits="objectBoundingBox" id="filter-7"><feOffset dy="3" in="SourceAlpha" result="shadowOffsetOuter1"/><feGaussianBlur stdDeviation="3" in="shadowOffsetOuter1" result="shadowBlurOuter1"/><feColorMatrix values="0 0 0 0 0 0 0 0 0 0 0 0 0 0 0 0 0 0 0.15 0" in="shadowBlurOuter1"/></filter><linearGradient x1="99.635%" y1=".365%" x2="0%" y2="100%" id="linearGradient-8"><stop stop-color="#5DA341" offset="0%"/><stop stop-color="#7FC33B" offset="47.056%"/><stop stop-color="#B3EC50" offset="100%"/></linearGradient></defs><g id="Verify-phone-email" stroke="none" stroke-width="1" fill="none" fill-rule="evenodd"><path fill="#FFF" d="M0 0h160v104H0z"/><g id="phone-copy-4" transform="translate(22 3)"><g id="Group-20-Copy"><rect id="phone" fill="#E0E4E9" x=".104" y="0" width="57.382" height="94.982" rx="3.689"/><mask id="mask-2" fill="#fff"><use xlink:href="#path-1"/></mask><use id="screen-copy" fill="#FFF" xlink:href="#path-1"/></g><rect id="ear-copy" fill="#FFF" x="24.299" y="2.18" width="8.685" height="2.18" rx="1.09"/><ellipse id="home-copy" fill="#FFF" cx="28.642" cy="87.202" rx="4.343" ry="4.36"/></g><g id="Group-Copy-2" transform="translate(56 19)"><g id="envelope-back" transform="translate(0 .327)"><rect fill="#E0E4E9" width="82" height="32.076" rx="6.15"/><g id="envelope-inside"><use fill="#000" filter="url(#filter-4)" xlink:href="#path-3"/><use fill="#FFF" xlink:href="#path-3"/></g></g><g id="envelope-front" transform="translate(0 19.578)"><path d="M81.642 18.748L82 41.52H47.15A6.15 6.15 0 0 1 41 35.37V3.078a3.075 3.075 0 0 1 4.47-2.74l36.172 18.41z" id="Triangle-2-Copy" fill="#E0E4E9" transform="matrix(-1 0 0 1 123 0)"/><path d="M40.642 18.748L41 41.52H6.15A6.15 6.15 0 0 1 0 35.37V3.078A3.075 3.075 0 0 1 4.47.338l36.172 18.41z" id="Triangle-2-Copy-2" fill="#E0E4E9"/><path d="M78.925 40.762H3.075l34.678-20.833a6.332 6.332 0 0 1 6.494 0l34.678 20.833z" id="Triangle" fill="url(#linearGradient-5)"/></g></g><path d="M143.9 78.836c3.705 3.761 4.954 3.767 8.737.04-3.783 3.727-3.796 4.977-.093 8.734-3.703-3.757-4.954-3.766-8.735-.035 3.781-3.731 3.796-4.978.092-8.739z" id="Path-Copy-16" fill="#DFE2E8" transform="rotate(45 148.223 83.223)"/><path d="M152.5 63l-3.5 1.33v1.774c.001 2.254 1.404 4.262 3.5 5.012 2.096-.75 3.499-2.758 3.5-5.012V64.33L152.5 63z" id="Path-Copy-6" stroke="#DFE2E8" stroke-width="1.156"/><path d="M142.5 13l-2.5.983v1.312c0 1.666 1.003 3.15 2.5 3.705 1.497-.555 2.5-2.04 2.5-3.705v-1.312L142.5 13z" id="Path-Copy-9" stroke="#DFE2E8" stroke-width="1.016"/><path d="M9.842 45L7 46.08v1.44c.001 1.83 1.14 3.462 2.842 4.07 1.703-.608 2.841-2.24 2.842-4.07v-1.44L9.842 45z" id="Path-Copy-10" stroke="#DFE2E8" stroke-width="1.156"/><path d="M131.796 12.21h.748c.633 0 1.147.514 1.147.94v-.94c0 .52-.525.94-1.147.94h-.748v1.415c0 .26-.22.469-.474.469a.466.466 0 0 1-.474-.469v-1.414h-.748c-.633 0-1.146-.515-1.146-.942v.942c0-.52.525-.942 1.146-.942h.748v-1.414c0-.259.22-.469.474-.469.262 0 .474.202.474.469v1.414z" id="Combined-Shape-Copy-9" fill="#DFE2E8" transform="rotate(39 131.322 12.68)"/><circle id="Oval-2-Copy-4" stroke="#E0E4E9" stroke-width=".804" transform="scale(-1 1) rotate(-37 0 486.674)" cx="151.16" cy="34.906" r="1.902"/><circle id="Oval-2-Copy-5" stroke="#E0E4E9" stroke-width="1.156" transform="scale(-1 1) rotate(-37 0 78.633)" cx="15.618" cy="31.954" r="1.733"/><path d="M8.773 69L5 70.405v1.873a5.62 5.62 0 0 0 3.773 5.294 5.62 5.62 0 0 0 3.774-5.294v-1.873L8.773 69z" id="Path-Copy-11" stroke="#DFE2E8" stroke-width="1.156"/><path d="M11.398 85.875c2.735 2.77 3.656 2.775 6.45.029-2.794 2.746-2.803 3.667-.07 6.434-2.733-2.767-3.656-2.774-6.448-.026 2.792-2.749 2.803-3.667.068-6.437z" id="Path-Copy-17" fill="#DFE2E8" transform="rotate(45 14.589 89.106)"/><path d="M17.867 58.148h1.162c.467 0 .846.38.846.855a.85.85 0 0 1-.846.855h-1.162v1.13a.861.861 0 0 1-.86.866.866.866 0 0 1-.861-.866v-1.13h-1.161a.849.849 0 0 1-.847-.855.85.85 0 0 1 .847-.855h1.161v-1.13c0-.478.382-.866.86-.866.476 0 .861.392.861.866v1.13z" id="Combined-Shape-Copy" fill="#DFE2E8" transform="scale(-1 1) rotate(-37 0 109.83)"/><path d="M150.867 49.148h1.162c.467 0 .846.38.846.855a.85.85 0 0 1-.846.855h-1.162v1.13a.861.861 0 0 1-.86.866.866.866 0 0 1-.861-.866v-1.13h-1.161a.849.849 0 0 1-.847-.855.85.85 0 0 1 .847-.855h1.161v-1.13c0-.478.382-.866.86-.866.476 0 .861.392.861.866v1.13z" id="Combined-Shape-Copy-3" fill="#DFE2E8" transform="scale(-1 1) rotate(-37 0 498.325)"/><path d="M148.867 94.148h1.162c.467 0 .846.38.846.855a.85.85 0 0 1-.846.855h-1.162v1.13a.861.861 0 0 1-.86.866.866.866 0 0 1-.861-.866v-1.13h-1.161a.849.849 0 0 1-.847-.855.85.85 0 0 1 .847-.855h1.161v-1.13c0-.478.382-.866.86-.866.476 0 .861.392.861.866v1.13z" id="Combined-Shape-Copy-2" fill="#DFE2E8" transform="scale(-1 1) rotate(-37 0 537.348)"/><path d="M5.428 16.38c2.783 2.825 3.72 2.83 6.563.028-2.842 2.801-2.852 3.74-.07 6.563-2.782-2.823-3.721-2.83-6.562-.027 2.84-2.803 2.852-3.74.069-6.565z" id="Path-Copy-13" fill="#DFE2E8" transform="rotate(45 8.675 19.675)"/><path d="M150.428 18.38c2.783 2.825 3.72 2.83 6.563.028-2.842 2.801-2.852 3.74-.07 6.563-2.782-2.823-3.721-2.83-6.562-.027 2.84-2.803 2.852-3.74.069-6.565z" id="Path-Copy-14" fill="#DFE2E8" transform="rotate(45 153.675 21.675)"/><g id="Group-12-Copy" transform="translate(117 26)"><g id="Oval" fill-rule="nonzero"><use fill="#000" filter="url(#filter-7)" xlink:href="#path-6"/><use fill="#FFF" xlink:href="#path-6"/></g><path d="M20.682 11.305a1.049 1.049 0 0 0-1.481 0l-6.186 6.172-2.223-2.216a1.047 1.047 0 0 0-1.481 0 1.042 1.042 0 0 0 0 1.477l2.963 2.956a1.05 1.05 0 0 0 1.482 0l6.926-6.911a1.044 1.044 0 0 0 0-1.478zM4 15c0 6.075 4.925 11 11 11s11-4.925 11-11S21.075 4 15 4 4 8.925 4 15z" id="accept_fill" fill="url(#linearGradient-8)"/></g></g></svg>