<?xml version="1.0" encoding="UTF-8"?>
<svg width="48px" height="48px" viewBox="0 0 48 48" version="1.1" xmlns="http://www.w3.org/2000/svg" xmlns:xlink="http://www.w3.org/1999/xlink">
    <!-- Generator: Sketch 57.1 (83088) - https://sketch.com -->
    <title>visit help site black</title>
    <desc>Created with Sketch.</desc>
    <g id="visit-help-site-black" stroke="none" stroke-width="1" fill="none" fill-rule="evenodd">
        <path d="M43.05,9 L43.05,39 L5,39 L5,9 L43.05,9 L43.05,9 Z M44.05,6 L4,6 C2.8954305,6 2,6.8954305 2,8 L2,40 C2,41.1045695 2.8954305,42 4,42 L44.06,42 C45.1645695,42 46.06,41.1045695 46.06,40 L46.06,8 C46.06,6.8954305 45.1645695,6 44.06,6 L44.05,6 Z" id="Shape" fill="#1D2228" fill-rule="nonzero"></path>
        <path d="M3.54,16.13 L43.83,16.13" id="Path" stroke="#1D2228" stroke-width="3" stroke-linecap="round" stroke-linejoin="round"></path>
        <g id="Overflow" transform="translate(30.000000, 10.000000)" fill="#1D2228" fill-rule="nonzero">
            <path d="M2.49,1.83 C2.49,2.38228475 2.04228475,2.83 1.49,2.83 C0.93771525,2.83 0.49,2.38228475 0.49,1.83 C0.49,1.27771525 0.93771525,0.83 1.49,0.83 C2.04228475,0.83 2.49,1.27771525 2.49,1.83 Z M5.56,1.83 C5.56,2.38228475 5.11228475,2.83 4.56,2.83 C4.00771525,2.83 3.56,2.38228475 3.56,1.83 C3.56,1.27771525 4.00771525,0.83 4.56,0.83 C5.11228475,0.83 5.56,1.27771525 5.56,1.83 Z M8.63,1.83 C8.63,2.38228475 8.18228475,2.83 7.63,2.83 C7.07771525,2.83 6.63,2.38228475 6.63,1.83 C6.63,1.27771525 7.07771525,0.83 7.63,0.83 C8.18228475,0.83 8.63,1.27771525 8.63,1.83 Z" id="actions"></path>
        </g>
        <g id="minus" transform="translate(8.000000, 10.000000)" fill="#1D2228" fill-rule="nonzero">
            <path d="M16.1,0.76 C16.51,0.76 16.83,1.21 16.83,1.76 C16.83,2.31 16.51,2.76 16.1,2.76 L1.56,2.76 C1.16,2.76 0.83,2.32 0.83,1.76 C0.83,1.2 1.16,0.76 1.56,0.76 L16.1,0.76 Z" id="Fill-18"></path>
        </g>
        <path d="M24.7272727,29.4225455 L24.7272727,29.672 C24.7272727,30.064 24.4014545,30.3818182 24,30.3818182 C23.5985455,30.3818182 23.2727273,30.064 23.2727273,29.672 L23.2727273,28.8065455 C23.2727273,28.4145455 23.5985455,28.096 24,28.096 C24.8014545,28.096 25.4545455,27.4596364 25.4545455,26.6763636 C25.4545455,25.8930909 24.8014545,25.256 24,25.256 C23.1970909,25.256 22.5454545,25.8930909 22.5454545,26.6763636 C22.5454545,27.0690909 22.2196364,27.3861818 21.8181818,27.3861818 C21.4167273,27.3861818 21.0909091,27.0690909 21.0909091,26.6763636 C21.0909091,25.1112727 22.3956364,23.8363636 24,23.8363636 C25.6043636,23.8363636 26.9090909,25.1112727 26.9090909,26.6763636 C26.9090909,27.9970909 25.9796364,29.1069091 24.7272727,29.4225455 M24,32.5636364 C23.5985455,32.5636364 23.2727273,32.2385455 23.2727273,31.8363636 C23.2727273,31.4349091 23.5985455,31.1090909 24,31.1090909 C24.4014545,31.1090909 24.7272727,31.4349091 24.7272727,31.8363636 C24.7272727,32.2385455 24.4014545,32.5636364 24,32.5636364 M24,20.2 C19.5890909,20.2 16,23.7890909 16,28.2 C16,32.6109091 19.5890909,36.2 24,36.2 C28.4101818,36.2 32,32.6109091 32,28.2 C32,23.7890909 28.4101818,20.2 24,20.2" id="Fill-22-Copy" fill="#1D2228"></path>
    </g>
</svg>