<svg width="20" height="20" viewBox="0 0 20 20" fill="none" xmlns="http://www.w3.org/2000/svg">
<path fill-rule="evenodd" clip-rule="evenodd" d="M9.99998 2.46501C9.99998 2.02417 9.62665 1.66667 9.16665 1.66667C8.70581 1.66667 8.33331 2.02417 8.33331 2.46501V4.16667H9.99998V2.46501ZM12.5933 7.63584C11.8416 6.54834 10.5883 5.83334 9.16665 5.83334C6.86498 5.83334 4.99998 7.69917 4.99998 10C4.99998 10.4867 5.09915 10.9475 5.25415 11.3808C4.58498 12.12 4.16665 13.0908 4.16665 14.1667C4.16665 16.4667 6.02915 18.3308 8.32831 18.3333H13.7383C16.7416 18.3333 19.1666 15.9083 19.1666 12.9167C19.1666 9.925 16.7416 7.50001 13.75 7.50001C13.3508 7.50001 12.9675 7.55334 12.5933 7.63584ZM8.32831 16.6667C6.95248 16.6642 5.83331 15.5433 5.83331 14.1667C5.83331 12.145 8.05165 10.9992 9.70665 12.0858C9.83081 12.1692 9.94831 12.2608 10.055 12.3625C10.0866 12.1525 10.14 11.95 10.2041 11.7533C10.505 10.8142 11.675 9.16667 13.75 9.16667C15.8166 9.16667 17.5 10.8492 17.5 12.9167C17.5 14.9842 15.8166 16.6667 13.75 16.6667H8.32831ZM9.14165 10.0892C9.59581 9.34834 10.2258 8.73001 10.9683 8.28C10.5133 7.80251 9.87665 7.50001 9.16665 7.50001C7.78831 7.50001 6.66665 8.62167 6.66665 10C6.66665 10.1142 6.68331 10.2242 6.69998 10.3333C7.20165 10.12 7.75331 10 8.33331 10C8.61081 10 8.87831 10.0367 9.14165 10.0892ZM3.33331 10.8333H1.63081C1.19081 10.8333 0.833313 10.46 0.833313 10C0.833313 9.54001 1.19081 9.16667 1.63081 9.16667H3.33331V10.8333ZM15.0838 5.26126C15.3955 4.94959 15.3838 4.43292 15.0588 4.10792C14.733 3.78209 14.2171 3.77042 13.9055 4.08209L12.7021 5.28626L13.8805 6.46459L15.0838 5.26126ZM5.63056 5.28609L4.45223 6.46442L3.2489 5.26109C2.93723 4.94942 2.94806 4.43275 3.2739 4.10776C3.59973 3.78192 4.11556 3.77109 4.42723 4.08276L5.63056 5.28609Z" fill="#232A31"/>
</svg>
