<svg width="40" height="40" viewBox="0 0 40 40" fill="none" xmlns="http://www.w3.org/2000/svg">
    <rect width="40" height="40" rx="8" fill="#464E56"/>
    <path fill-rule="evenodd" clip-rule="evenodd" d="M21.6369 16.7868C21.4584 14.8192 19.7925 13.2772 17.7639 13.2772C15.6161 13.2772 13.875 15.0055 13.875 17.1375C13.875 18.1505 14.268 19.0723 14.911 19.7609C13.7671 20.464 13 21.7583 13 23.2387C13 25.4691 14.7411 27.2772 16.8889 27.2772L22.1538 27.2773C24.8303 27.2773 27 25.1076 27 22.4311C27 22.3655 26.9986 22.3001 26.9961 22.2351C26.9986 22.1661 27 22.0968 27 22.0272C27 19.1277 24.7365 16.7772 21.9444 16.7772C21.8412 16.7772 21.7386 16.7804 21.6369 16.7868ZM25.3972 22.1751L25.3949 22.2369L25.3973 22.2987C25.3991 22.3425 25.4 22.3867 25.4 22.4311C25.4 24.2239 23.9466 25.6773 22.1538 25.6773L16.8889 25.6772C15.6811 25.6772 14.6 24.6429 14.6 23.2387C14.6 21.8346 15.6811 20.8003 16.8889 20.8003C17.0377 20.8003 17.1818 20.8152 17.3204 20.8433L18.4338 21.069L19.014 20.0922C19.6381 19.0413 20.7309 18.3772 21.9444 18.3772C23.7965 18.3772 25.4 19.9539 25.4 22.0272C25.4 22.0769 25.399 22.1262 25.3972 22.1751Z" fill="#F0F3F5"/>
</svg>
