<svg width="48" height="48" viewBox="0 0 48 48" fill="none" xmlns="http://www.w3.org/2000/svg">
<circle cx="24" cy="24" r="24" fill="#7A5FFF" fill-opacity="0.2"/>
<path d="M33.5 36.6667V10.5417C33.5 9.22998 32.4367 8.16666 31.125 8.16666H16.875C15.5633 8.16666 14.5 9.22998 14.5 10.5417V36.6667" stroke="black" stroke-width="1.10833" stroke-linecap="round"/>
<g style="mix-blend-mode:multiply">
<rect x="16.875" y="10.5417" width="14.25" height="23.75" rx="1.88021" fill="#7A5FFF"/>
</g>
<path fill-rule="evenodd" clip-rule="evenodd" d="M34.0543 35.0833H13.9459V36.6667C13.9459 37.9784 15.0092 39.0417 16.3209 39.0417H31.6793C32.9909 39.0417 34.0543 37.9784 34.0543 36.6667V35.0833ZM24.1979 38.4083C24.7444 38.4083 25.1875 37.9652 25.1875 37.4187C25.1875 36.8722 24.7444 36.4291 24.1979 36.4291C23.6514 36.4291 23.2083 36.8722 23.2083 37.4187C23.2083 37.9652 23.6514 38.4083 24.1979 38.4083Z" fill="black"/>
</svg>
