<?xml version="1.0" encoding="utf-8"?>
<!-- Generator: Adobe Illustrator 24.2.1, SVG Export Plug-In . SVG Version: 6.00 Build 0)  -->
<svg version="1.1" id="Layer_1" xmlns="http://www.w3.org/2000/svg" xmlns:xlink="http://www.w3.org/1999/xlink" x="0px" y="0px"
	 viewBox="0 0 216 196" style="enable-background:new 0 0 216 196;" xml:space="preserve">
<style type="text/css">
	.st0{opacity:0.3;fill:none;stroke:#BBBFC3;stroke-width:1.6;enable-background:new    ;}
	.st1{opacity:0.6;}
	.st2{fill:none;stroke:#EDEDED;stroke-width:1.5;}
	.st3{opacity:0.35;fill:#DFE1E5;enable-background:new    ;}
	.st4{fill:#BAC0C7;}
	.st5{fill-rule:evenodd;clip-rule:evenodd;fill:#FFFFFF;}
	.st6{fill:#FFFFFF;}
	.st7{opacity:0.2;}
	.st8{fill:#FFD333;}
	.st9{fill:#7A5FFF;}
	.st10{opacity:0.15;}
	.st11{opacity:9.000000e-02;}
	.st12{fill:#CC008C;}
</style>
<circle class="st0" cx="108.1" cy="96.1" r="69.5"/>
<g class="st1">
	<circle class="st2" cx="108.1" cy="96.7" r="91.4"/>
</g>
<path class="st3" d="M154.8,67.4c0,0-30.7-15.6-47.9-23.4C91.8,50.8,57.8,65.8,58,67.4c1.6,10.4,2.6,28.1,5.7,56.7
	c1.3,12,41.6,32.3,43.7,32.3s41.5-21,42.7-35.4C152,99.4,154.8,67.4,154.8,67.4z"/>
<circle class="st4" cx="106.9" cy="97.6" r="30.2"/>
<path class="st5" d="M84.3,117.5c5.1-5.7,13.4-9.4,22.7-9.4c9.4,0,17.6,3.7,22.7,9.4c-5.5,6.3-13.7,10.3-22.7,10.3
	C97.9,127.8,89.8,123.8,84.3,117.5z"/>
<circle class="st6" cx="106.4" cy="92.9" r="10.9"/>
<g class="st7">
	<circle class="st8" cx="43.3" cy="119" r="34"/>
</g>
<g class="st7">
</g>
<g>
	<circle class="st8" cx="43.1" cy="119.1" r="29.8"/>
</g>
<path class="st6" d="M51.5,104.9c-0.1,0-0.3,0-0.4-0.1c-3.6-1.4-6.7-1.8-10.3-1.4s-6.8,1.6-9.7,3.7c-0.4,0.3-1,0.2-1.3-0.2
	c-0.3-0.4-0.2-1,0.2-1.3c3.1-2.2,6.7-3.6,10.5-4s7.3,0,11.1,1.5c0.5,0.2,0.7,0.7,0.5,1.2C52.1,104.7,51.8,104.9,51.5,104.9
	L51.5,104.9z M27,117.3c-0.2,0-0.4,0-0.5-0.1c-0.4-0.2-0.6-0.8-0.4-1.2c1.5-2.7,3.5-5,6-6.6c5.3-3.6,12.5-4.4,18.5-2.2
	c2.8,1.1,5.3,2.8,7.4,5c0.3,0.4,0.3,0.9-0.1,1.3c-0.4,0.3-0.9,0.3-1.3-0.1c-1.9-2.1-4.1-3.6-6.7-4.6c-5.5-2-12-1.3-16.9,2
	c-2.3,1.5-4.1,3.6-5.5,6C27.5,117.1,27.2,117.3,27,117.3L27,117.3z M40.7,137.6c-0.2,0-0.5,0-0.7-0.2c-1.7-1.4-2.7-2.3-4.2-4.3
	c-1.5-2.1-2.5-4.7-2.8-7.6c-0.6-5.3,3.4-10.2,9-10.8c5.6-0.7,10.7,3.2,11.3,8.5c0.1,0.5-0.3,0.9-0.8,1s-0.9-0.3-1-0.8
	c-0.5-4.3-4.7-7.4-9.3-6.9s-7.9,4.5-7.4,8.8c0.3,2.6,1.2,4.9,2.5,6.7c1.4,1.9,2.3,2.7,3.8,4c0.4,0.3,0.4,0.9,0.1,1.3
	C41.1,137.5,40.9,137.6,40.7,137.6z M53.1,132.8c-2.1,0.2-4.1-0.1-5.7-0.9c-2.9-1.5-4.8-4.3-5.2-7.4c-0.1-0.5,0.3-0.9,0.8-1
	s0.9,0.3,1,0.8c0.3,2.5,1.9,4.8,4.2,6c1.4,0.7,2.9,1,4.7,0.7c0.4-0.1,1.1-0.2,1.8-0.4c0.5-0.1,1,0.1,1.1,0.6s-0.1,1-0.6,1.1
	C54.3,132.7,53.4,132.8,53.1,132.8L53.1,132.8z M50,136.9c-0.1,0-0.2,0-0.2,0c-2.9-0.5-4.9-1.3-7.1-3c-2.8-2.2-4.6-5.4-5-8.9
	c-0.3-2.9,1.9-5.6,4.9-5.9c3-0.4,5.8,1.7,6.1,4.6c0.2,1.9,2.1,3.3,4.1,3c2.1-0.2,3.5-2,3.3-3.9c-0.8-6.8-7.3-11.6-14.4-10.7
	c-5.1,0.6-9.4,4-11,8.6c-0.5,1.5-0.7,3.3-0.5,5.1c0.2,1.4,0.5,3.6,2,6.3c0.2,0.4,0.1,1-0.4,1.2c-0.4,0.2-1,0-1.2-0.4
	c-1.2-2.2-1.9-4.5-2.1-6.9c-0.3-2.2-0.1-4.2,0.5-6c1.8-5.3,6.7-9.1,12.5-9.8c8.2-0.9,15.5,4.6,16.4,12.3c0.3,2.9-1.9,5.6-4.9,5.9
	c-3,0.4-5.8-1.7-6.1-4.6c-0.2-1.9-2.1-3.3-4.1-3c-2.1,0.2-3.5,2-3.3,3.9c0.4,3.1,1.9,5.8,4.3,7.7c1.9,1.5,3.6,2.2,6.2,2.6
	c0.5,0.1,0.8,0.5,0.8,1C50.7,136.6,50.3,136.9,50,136.9L50,136.9z"/>
<g>
	<path class="st9" d="M148.5,120.3l27.9,8.3c6.2,1.8,9.7,8.3,7.8,14.5l-8.3,27.9c-1.8,6.2-8.3,9.7-14.5,7.8l-27.9-8.3
		c-6.2-1.8-9.7-8.3-7.8-14.5l8.3-27.9C135.8,122,142.3,118.5,148.5,120.3z"/>
</g>
<g class="st10">
	<path class="st9" d="M147.7,116.2l31.8,9.5c7.1,2.1,11.1,9.5,8.9,16.5l-9.5,31.8c-2.1,7.1-9.5,11.1-16.5,8.9l-31.8-9.5
		c-7.1-2.1-11.1-9.5-8.9-16.5l9.5-31.8C133.2,118.1,140.6,114.2,147.7,116.2z"/>
</g>
<path class="st5" d="M140.9,136.4l1.2-4.1c0.7-2.3,3.1-3.5,5.3-2.9l4.1,1.2c0.5,0.2,1.1-0.1,1.2-0.7c0.2-0.5-0.1-1.1-0.7-1.2
	l-4.1-1.2c-3.3-1-6.8,0.9-7.7,4.2l-1.2,4.1c-0.2,0.5,0.1,1.1,0.7,1.2C140.2,137.2,140.8,136.9,140.9,136.4z M141.7,163.7
	c0.5,0.2,0.8,0.7,0.7,1.2c-0.2,0.5-0.7,0.8-1.2,0.7l-4.1-1.2c-3.3-1-5.2-4.4-4.2-7.7l1.2-4.1c0.2-0.5,0.7-0.8,1.2-0.7
	c0.5,0.2,0.8,0.7,0.7,1.2l-1.2,4.1c-0.7,2.3,0.6,4.6,2.9,5.3L141.7,163.7z M170.9,163.4l-1.2,4.1c-1,3.3-4.4,5.2-7.7,4.2l-4.1-1.2
	c-0.5-0.2-0.8-0.7-0.7-1.2c0.2-0.5,0.7-0.8,1.2-0.7l4.1,1.2c2.3,0.7,4.6-0.6,5.3-2.9l1.2-4.1c0.2-0.5,0.7-0.8,1.2-0.7
	C170.7,162.4,171,162.9,170.9,163.4z M177,142.7l-1.2,4.1c-0.2,0.5-0.7,0.8-1.2,0.7c-0.5-0.2-0.8-0.7-0.7-1.2l1.2-4.1
	c0.7-2.3-0.6-4.6-2.9-5.3l-4.1-1.2c-0.5-0.2-0.8-0.7-0.7-1.2c0.2-0.5,0.7-0.8,1.2-0.7l4.1,1.2C176.1,135.9,178,139.4,177,142.7z
	 M158.8,160.4c0.5-0.2,0.7-0.9,0.5-1.4s-0.9-0.7-1.4-0.5c-1.8,0.9-3.8,1-5.7,0.5c-1.9-0.6-3.5-1.8-4.5-3.5c-0.3-0.5-0.9-0.6-1.4-0.4
	c-0.5,0.3-0.6,0.9-0.4,1.4c1.3,2.1,3.3,3.7,5.7,4.4C154,161.7,156.5,161.5,158.8,160.4z M158.2,145.7l-2.1,6.9
	c-0.4,1.4-1.8,2.1-3.2,1.7l-0.8-0.2c-0.5-0.2-0.8-0.7-0.7-1.3c0.2-0.5,0.7-0.8,1.3-0.7l0.8,0.2c0.3,0.1,0.6-0.1,0.7-0.4l2.1-6.9
	c0.2-0.5,0.7-0.8,1.3-0.7C158.1,144.6,158.4,145.2,158.2,145.7z M164.1,150.4l0.8-2.8c0.2-0.5-0.1-1-0.6-1.2s-1,0.1-1.2,0.6
	l-0.8,2.8c-0.2,0.5,0.1,1,0.6,1.2C163.4,151.2,164,150.9,164.1,150.4z M147.1,145.3c-0.2,0.5,0.1,1,0.6,1.2s1-0.1,1.2-0.6l0.8-2.8
	c0.2-0.5-0.1-1-0.6-1.2s-1,0.1-1.2,0.6L147.1,145.3z"/>
<g class="st11">
	<path class="st12" d="M147.2,36.4l38.3,3.8c3,0.2,5.1,3,4.9,5.8l-3.8,38.3c-0.2,3-3,5.1-5.8,4.9l-38.3-3.8c-3-0.2-5.1-3-4.9-5.8
		l3.8-38.3C141.6,38.3,144.2,36,147.2,36.4z"/>
</g>
<g>
	<path class="st12" d="M149.4,39.8l32.3,3.2c2.5,0.2,4.3,2.5,4.1,4.9l-3.2,32.3c-0.2,2.5-2.5,4.3-4.9,4.1l-32.3-3.2
		c-2.5-0.2-4.3-2.5-4.1-4.9l3.2-32.3C144.7,41.4,146.9,39.5,149.4,39.8z"/>
</g>
<path class="st5" d="M157.9,56.6c1.2-3,4-4.9,7-4.6c3,0.3,5.4,2.7,5.9,5.9L157.9,56.6z M156.3,56.4c1.3-3.8,4.8-6.4,8.7-6
	s6.8,3.6,7.3,7.5l1,0.1c1.2,0.1,2.2,1.2,2,2.5l-1.2,12c-0.1,1.2-1.2,2.2-2.5,2l-18-1.8c-1.2-0.1-2.2-1.2-2-2.5l1.2-12
	c0.1-1.2,1.2-2.2,2.5-2L156.3,56.4z M164.1,66.9c1.3-0.2,2.4-1.3,2.5-2.7c0.2-1.7-1-3.1-2.7-3.3s-3.1,1.1-3.3,2.7
	c-0.1,1.4,0.7,2.7,2,3.1l-0.3,3.1l1.5,0.1L164.1,66.9z"/>
</svg>
