<svg width="48" height="48" viewBox="0 0 48 48" fill="none" xmlns="http://www.w3.org/2000/svg">
<circle cx="24" cy="24" r="24" fill="#0F69FF" fill-opacity="0.1"/>
<g style="mix-blend-mode:multiply" opacity="0.7">
<rect x="16.6733" y="17.4688" width="19.7917" height="15.8333" rx="1.88021" fill="#0F69FF"/>
</g>
<path fill-rule="evenodd" clip-rule="evenodd" d="M18.8107 18.2604C18.8107 15.0998 21.5433 12.4812 24.9857 12.4812C28.4282 12.4812 31.1608 15.0998 31.1608 18.2604C31.1608 18.5665 31.4089 18.8146 31.7149 18.8146C32.021 18.8146 32.2691 18.5665 32.2691 18.2604C32.2691 14.4254 28.9761 11.3729 24.9857 11.3729C20.9954 11.3729 17.7024 14.4254 17.7024 18.2604C17.7024 18.5665 17.9505 18.8146 18.2566 18.8146C18.5626 18.8146 18.8107 18.5665 18.8107 18.2604ZM14.273 21.119C14.273 20.1134 15.0882 19.2982 16.0938 19.2982H16.2775C16.5835 19.2982 16.8316 19.05 16.8316 18.744C16.8316 18.4379 16.5835 18.1898 16.2775 18.1898H16.0938C14.4761 18.1898 13.1647 19.5013 13.1647 21.119V33.0315C13.1647 34.6493 14.4761 35.9607 16.0938 35.9607H34.0655C35.6832 35.9607 36.9947 34.6493 36.9947 33.0315V21.119C36.9947 19.5013 35.6832 18.1898 34.0655 18.1898H33.6941C33.3881 18.1898 33.14 18.4379 33.14 18.744C33.14 19.05 33.3881 19.2982 33.6941 19.2982H34.0655C35.0711 19.2982 35.8863 20.1134 35.8863 21.119V33.0315C35.8863 34.0371 35.0711 34.8524 34.0655 34.8524H16.0938C15.0882 34.8524 14.273 34.0371 14.273 33.0315V21.119ZM20.6316 18.1898C20.3256 18.1898 20.0775 18.4379 20.0775 18.744C20.0775 19.05 20.3256 19.2982 20.6316 19.2982H28.5361C28.8421 19.2982 29.0902 19.05 29.0902 18.744C29.0902 18.4379 28.8421 18.1898 28.5361 18.1898H20.6316Z" fill="black"/>
<path fill-rule="evenodd" clip-rule="evenodd" d="M25.3169 28.556C26.7748 28.337 27.8926 27.0791 27.8926 25.5602C27.8926 23.887 26.5362 22.5306 24.863 22.5306C23.1899 22.5306 21.8335 23.887 21.8335 25.5602C21.8335 27.0703 22.9383 28.3223 24.3837 28.552H24.2086V32.339H25.3169V28.556Z" fill="black"/>
</svg>
