<svg width="48" height="48" viewBox="0 0 48 48" fill="none" xmlns="http://www.w3.org/2000/svg">
<circle cx="24" cy="24" r="24" fill="#FFD333" fill-opacity="0.2"/>
<path d="M35.7597 27.7602C34.3442 32.9068 29.6308 36.6875 24.0345 36.6875C17.319 36.6875 11.875 31.2435 11.875 24.528C11.875 17.8125 17.319 12.3685 24.0345 12.3685C29.3827 12.3685 33.9245 15.8214 35.5522 20.6196" stroke="black" stroke-width="1.1375" stroke-linecap="round"/>
<g style="mix-blend-mode:multiply">
<circle cx="27.5086" cy="21.9224" r="10.4224" fill="#FFD333"/>
</g>
<path d="M28.8115 28.4365L23.8383 24.5584C23.5291 24.3174 23.0885 24.3456 22.8127 24.6242C22.5237 24.916 22.5131 25.3829 22.7886 25.6875L27.5276 30.9288C28.2156 31.6897 29.4097 31.6918 30.1004 30.9334L41.1942 18.7516C41.3635 18.5657 41.4136 18.3001 41.3235 18.0652C41.1548 17.6251 40.5946 17.495 40.2492 17.8158L28.8115 28.4365Z" fill="black"/>
</svg>
