<svg width="18" height="18" viewBox="0 0 18 18" fill="none" xmlns="http://www.w3.org/2000/svg">
<path fill-rule="evenodd" clip-rule="evenodd" d="M17.25 9C17.25 11.793 15.858 14.2575 13.734 15.75H16.5C16.914 15.75 17.25 16.086 17.25 16.5C17.25 16.914 16.914 17.25 16.5 17.25H9C4.44375 17.25 0.75 13.5562 0.75 9C0.75 4.44375 4.44375 0.75 9 0.75C13.5562 0.75 17.25 4.44375 17.25 9ZM15.75 9C15.75 5.27175 12.7283 2.25 9 2.25C5.27175 2.25 2.25 5.27175 2.25 9C2.25 12.7283 5.27175 15.75 9 15.75C12.7283 15.75 15.75 12.7283 15.75 9ZM12.75 7.5C13.5787 7.5 14.25 8.17125 14.25 9C14.25 9.82875 13.5787 10.5 12.75 10.5C11.9213 10.5 11.25 9.82875 11.25 9C11.25 8.17125 11.9213 7.5 12.75 7.5ZM6.65625 9C6.65625 8.223 6.027 7.59375 5.25 7.59375C4.473 7.59375 3.84375 8.223 3.84375 9C3.84375 9.777 4.473 10.4062 5.25 10.4062C6.027 10.4062 6.65625 9.777 6.65625 9ZM10.3748 12.7498C10.3748 13.5095 9.75975 14.1253 9 14.1253C8.24025 14.1253 7.62525 13.5095 7.62525 12.7498C7.62525 11.9908 8.24025 11.375 9 11.375C9.75975 11.375 10.3748 11.9908 10.3748 12.7498ZM9 6.75C9.82875 6.75 10.5 6.07875 10.5 5.25C10.5 4.42125 9.82875 3.75 9 3.75C8.17125 3.75 7.5 4.42125 7.5 5.25C7.5 6.07875 8.17125 6.75 9 6.75Z" fill="#F5F8FA"/>
</svg>
