<?xml version="1.0" encoding="utf-8"?>
<!-- Generator: Adobe Illustrator 24.2.3, SVG Export Plug-In . SVG Version: 6.00 Build 0)  -->
<svg version="1.1" id="Layer_1" xmlns="http://www.w3.org/2000/svg" xmlns:xlink="http://www.w3.org/1999/xlink" x="0px" y="0px"
	 viewBox="0 0 300 300" style="enable-background:new 0 0 300 300;" xml:space="preserve">
<style type="text/css">
	.st0{fill:#FFFFFF;}
	.st1{fill:#6001D2;}
</style>
<polygon class="st0" points="458.4,255.5 524.8,95.3 481,95.3 454.2,162.5 429,95.3 384,95.3 431.8,212.6 414.5,255.5 "/>
<g>
	<path class="st0" d="M503.6,187.4c0,14.7,11.4,26.8,26.8,26.8c15.9,0,27.8-12.6,27.8-27.7c0-14.7-11.4-26.8-26.8-26.8
		C515.5,159.7,503.6,172.3,503.6,187.4L503.6,187.4z"/>
	<polygon class="st0" points="562.2,43.6 518.3,149.4 567.7,149.4 611.6,43.6 	"/>
</g>
<polygon class="st1" points="110.9,255.5 177.4,95.3 133.5,95.3 106.7,162.5 81.5,95.3 36.5,95.3 84.3,212.6 67.1,255.5 "/>
<g>
	<path class="st1" d="M156.1,187.4c0,14.7,11.4,26.8,26.8,26.8c15.9,0,27.8-12.6,27.8-27.7c0-14.7-11.4-26.8-26.8-26.8
		C168,159.7,156.2,172.3,156.1,187.4L156.1,187.4z"/>
	<polygon class="st1" points="214.7,43.6 170.8,149.4 220.3,149.4 264.2,43.6 	"/>
</g>
</svg>
