<?xml version="1.0" encoding="UTF-8"?>
<svg width="40px" height="40px" viewBox="0 0 40 40" version="1.1" xmlns="http://www.w3.org/2000/svg" xmlns:xlink="http://www.w3.org/1999/xlink">
    <!-- Generator: Sketch 63.1 (92452) - https://sketch.com -->
    <title>mail-app-icon@1x</title>
    <desc>Created with Sketch.</desc>
    <defs>
        <linearGradient x1="13.466276%" y1="13.835907%" x2="87.9017735%" y2="87.9711151%" id="linearGradient-1">
            <stop stop-color="#7759FF" offset="0%"></stop>
            <stop stop-color="#6001D2" offset="100%"></stop>
        </linearGradient>
    </defs>
    <g id="qr-ar" stroke="none" stroke-width="1" fill="none" fill-rule="evenodd">
        <g id="QR_native_scan" transform="translate(-255.000000, -36.000000)">
            <g id="Group" transform="translate(10.000000, 10.000000)">
                <g id="mail-app-icon" transform="translate(245.000000, 26.000000)">
                    <rect id="Background" fill="url(#linearGradient-1)" x="0" y="0" width="40" height="40" rx="6"></rect>
                    <path d="M29.9177263,33.5983859 C29.9177263,34.1077917 30.3152073,34.5283019 30.8506948,34.5283019 C31.4022689,34.5283019 31.816006,34.0916442 31.816006,33.5660346 C31.816006,33.0485269 31.4185249,32.6361186 30.8830939,32.6361186 C30.3314633,32.6361186 29.9177263,33.0808219 29.9177263,33.5983859 Z M8.42833476,30.393531 L9.36939872,32.7928235 L10.3186617,30.393531 L11.8489155,30.393531 L9.51669618,36 L7.97824337,36 L8.60837132,34.5147155 L6.85714286,30.393531 L8.42833476,30.393531 Z M27.5273282,30.2533693 C28.7715721,30.2533693 29.7068063,31.1717124 29.7068063,32.3908356 C29.7068063,33.6099022 28.7715721,34.5283019 27.5273282,34.5283019 C26.2830277,34.5283019 25.3477936,33.6099022 25.3477936,32.3908356 C25.3477936,31.1717124 26.2830277,30.2533693 27.5273282,30.2533693 Z M22.8871172,30.2533693 C24.1313449,30.2533693 25.0665669,31.1717124 25.0665669,32.3908356 C25.0665669,33.6099022 24.1313449,34.5283019 22.8871172,34.5283019 C21.6428328,34.5283019 20.7075542,33.6099022 20.7075542,32.3908356 C20.7075542,31.1717124 21.6428328,30.2533693 22.8871172,30.2533693 Z M13.5100682,30.2533693 C13.9814553,30.2533693 14.3878118,30.4484041 14.6072759,30.7328982 L14.6072759,30.7328982 L14.6072759,30.3508584 L15.9970082,30.3508584 L15.9970082,34.4226698 L14.6072759,34.4226698 L14.6072759,34.0406866 C14.3878118,34.3413535 13.9814553,34.5283019 13.5100682,34.5283019 C12.3885447,34.5283019 11.5676889,33.577387 11.5676889,32.3908356 C11.5676889,31.2367429 12.3966312,30.2533693 13.5100682,30.2533693 Z M17.9327715,28.5714286 L17.9327715,30.777956 C18.1870809,30.4604232 18.5479994,30.2812905 19.0154698,30.2812905 C19.885007,30.2812905 20.4263276,30.9000971 20.4263276,31.8934282 L20.4263276,31.8934282 L20.4263276,34.458221 L18.9744926,34.458221 L18.9744926,32.2353779 C18.9744926,31.8282787 18.7940334,31.6084134 18.4741492,31.6084134 C18.1460467,31.6084134 17.9409898,31.8608534 17.9409898,32.2842683 L17.9409898,32.2842683 L17.9409898,34.458221 L16.4891548,34.458221 L16.4891548,28.5714286 L17.9327715,28.5714286 Z M27.5624814,31.5849057 C27.0935388,31.5849057 26.7539267,31.959623 26.7539267,32.425876 C26.7539267,32.8921291 27.0935388,33.2668464 27.5624814,33.2668464 C28.0313677,33.2668464 28.3709798,32.8921291 28.3709798,32.425876 C28.3709798,31.959623 28.0313677,31.5849057 27.5624814,31.5849057 Z M22.922242,31.5849057 C22.4532995,31.5849057 22.1136874,31.959623 22.1136874,32.425876 C22.1136874,32.8921291 22.4532995,33.2668464 22.922242,33.2668464 C23.3911846,33.2668464 23.7307405,32.8921291 23.7307405,32.425876 C23.7307405,31.959623 23.3911846,31.5849057 22.922242,31.5849057 Z M13.8215571,31.5849057 C13.3406048,31.5849057 12.973822,31.9523455 12.973822,32.4259044 C12.973822,32.8994633 13.3406048,33.2668464 13.8215571,33.2668464 C14.2943422,33.2668464 14.6611818,32.8994633 14.6611818,32.4259044 C14.6611818,31.9523455 14.2943422,31.5849057 13.8215571,31.5849057 Z M33.7142857,28.5714286 L32.1866197,32.2857143 L30.4801795,32.2857143 L32.0078455,28.5714286 L33.7142857,28.5714286 Z" id="Yahoo-wordmark" fill="#FFFFFF"></path>
                    <g id="Mail-icon" transform="translate(8.571429, 8.000000)" fill-rule="nonzero">
                        <path d="M0,1.14114552 L0,13.7159973 C0,14.3457264 0.510981668,14.8571429 1.1413095,14.8571429 L21.7158334,14.8571429 C22.3476915,14.8571429 22.8571429,14.3462346 22.8571429,13.7159973 L22.8571429,1.14114552 C22.8571429,0.511416486 22.3461612,0 21.7158334,0 L1.1413095,0 C0.50945133,0 0,0.510908251 0,1.14114552 Z" id="icon" fill="#FFFFFF"></path>
                        <polygon id="Path" fill="#7759FF" points="1.71039845 1.71129394 1.71039845 3.70447301 11.4285714 8.55646971 21.1467444 3.70447301 21.1467444 1.71129394"></polygon>
                    </g>
                </g>
            </g>
        </g>
    </g>
</svg>