<?xml version="1.0" encoding="UTF-8"?>
<svg width="19px" height="19px" viewBox="0 0 19 19" version="1.1" xmlns="http://www.w3.org/2000/svg" xmlns:xlink="http://www.w3.org/1999/xlink">
    <g id="Push-animation" stroke="none" stroke-width="1" fill="none" fill-rule="evenodd">
        <g id="iPhone-SE-Copy-37" transform="translate(-124.000000, -228.000000)" fill-rule="nonzero">
            <g id="Group-2" transform="translate(124.000000, 228.000000)">
                <path d="M0.864,18.72 C0.386825976,18.72 0,18.397645 0,18 L0,0.72 C0,0.32235498 0.386825976,0 0.864,0 L17.856,0 C18.333174,0 18.72,0.32235498 18.72,0.72 L18.72,0.72 L18.72,18 C18.72,18.397645 18.333174,18.72 17.856,18.72 L17.856,18.72 L0.864,18.72 Z" id="Combined-Shape" fill="#6001D2"></path>
                <path d="M3.6,6.408 L6.336,12.816 L5.328,15.12 L7.704,15.12 L11.304,6.408 L8.928,6.408 L7.488,10.152 L6.048,6.408 L3.6,6.408 Z M10.152,11.448 C10.1309814,11.8359743 10.2759333,12.2145836 10.5506748,12.4893252 C10.8254164,12.7640667 11.2040257,12.9090186 11.592,12.888 C12.4270545,12.888 13.104,12.2110545 13.104,11.376 C13.104,10.58071 12.45929,9.936 11.664,9.936 C10.8289455,9.936 10.152,10.6129455 10.152,11.448 L10.152,11.448 Z M13.32,3.6 L10.944,9.36 L13.608,9.36 L15.984,3.6 L13.32,3.6 Z" id="Shape" fill="#FFFFFF"></path>
            </g>
        </g>
    </g>
</svg>