<svg viewBox="0 0 160 104" version="1.1" xmlns="http://www.w3.org/2000/svg" xmlns:xlink="http://www.w3.org/1999/xlink" id="el_0TQ3rQ4r_"><style>@-webkit-keyframes kf_el_uD8PPYl-uER_an_QGplDHQ5z{26.67%{-webkit-transform: translate(95.6581916809082px, 55.69568157196045px) scale(0.8, 0.8) translate(-95.6581916809082px, -55.69568157196045px);transform: translate(95.6581916809082px, 55.69568157196045px) scale(0.8, 0.8) translate(-95.6581916809082px, -55.69568157196045px);}60%{-webkit-transform: translate(95.6581916809082px, 55.69568157196045px) scale(1, 1) translate(-95.6581916809082px, -55.69568157196045px);transform: translate(95.6581916809082px, 55.69568157196045px) scale(1, 1) translate(-95.6581916809082px, -55.69568157196045px);}0%{-webkit-transform: translate(95.6581916809082px, 55.69568157196045px) scale(0.8, 0.8) translate(-95.6581916809082px, -55.69568157196045px);transform: translate(95.6581916809082px, 55.69568157196045px) scale(0.8, 0.8) translate(-95.6581916809082px, -55.69568157196045px);}100%{-webkit-transform: translate(95.6581916809082px, 55.69568157196045px) scale(1, 1) translate(-95.6581916809082px, -55.69568157196045px);transform: translate(95.6581916809082px, 55.69568157196045px) scale(1, 1) translate(-95.6581916809082px, -55.69568157196045px);}}@keyframes kf_el_uD8PPYl-uER_an_QGplDHQ5z{26.67%{-webkit-transform: translate(95.6581916809082px, 55.69568157196045px) scale(0.8, 0.8) translate(-95.6581916809082px, -55.69568157196045px);transform: translate(95.6581916809082px, 55.69568157196045px) scale(0.8, 0.8) translate(-95.6581916809082px, -55.69568157196045px);}60%{-webkit-transform: translate(95.6581916809082px, 55.69568157196045px) scale(1, 1) translate(-95.6581916809082px, -55.69568157196045px);transform: translate(95.6581916809082px, 55.69568157196045px) scale(1, 1) translate(-95.6581916809082px, -55.69568157196045px);}0%{-webkit-transform: translate(95.6581916809082px, 55.69568157196045px) scale(0.8, 0.8) translate(-95.6581916809082px, -55.69568157196045px);transform: translate(95.6581916809082px, 55.69568157196045px) scale(0.8, 0.8) translate(-95.6581916809082px, -55.69568157196045px);}100%{-webkit-transform: translate(95.6581916809082px, 55.69568157196045px) scale(1, 1) translate(-95.6581916809082px, -55.69568157196045px);transform: translate(95.6581916809082px, 55.69568157196045px) scale(1, 1) translate(-95.6581916809082px, -55.69568157196045px);}}@-webkit-keyframes kf_el_kDnC9_4iPR_an_UWMI-ZsNj{26.67%{-webkit-transform: translate(63.6581916809082px, 55.69568157196045px) scale(0.8, 0.8) translate(-63.6581916809082px, -55.69568157196045px);transform: translate(63.6581916809082px, 55.69568157196045px) scale(0.8, 0.8) translate(-63.6581916809082px, -55.69568157196045px);}60%{-webkit-transform: translate(63.6581916809082px, 55.69568157196045px) scale(1, 1) translate(-63.6581916809082px, -55.69568157196045px);transform: translate(63.6581916809082px, 55.69568157196045px) scale(1, 1) translate(-63.6581916809082px, -55.69568157196045px);}0%{-webkit-transform: translate(63.6581916809082px, 55.69568157196045px) scale(0.8, 0.8) translate(-63.6581916809082px, -55.69568157196045px);transform: translate(63.6581916809082px, 55.69568157196045px) scale(0.8, 0.8) translate(-63.6581916809082px, -55.69568157196045px);}100%{-webkit-transform: translate(63.6581916809082px, 55.69568157196045px) scale(1, 1) translate(-63.6581916809082px, -55.69568157196045px);transform: translate(63.6581916809082px, 55.69568157196045px) scale(1, 1) translate(-63.6581916809082px, -55.69568157196045px);}}@keyframes kf_el_kDnC9_4iPR_an_UWMI-ZsNj{26.67%{-webkit-transform: translate(63.6581916809082px, 55.69568157196045px) scale(0.8, 0.8) translate(-63.6581916809082px, -55.69568157196045px);transform: translate(63.6581916809082px, 55.69568157196045px) scale(0.8, 0.8) translate(-63.6581916809082px, -55.69568157196045px);}60%{-webkit-transform: translate(63.6581916809082px, 55.69568157196045px) scale(1, 1) translate(-63.6581916809082px, -55.69568157196045px);transform: translate(63.6581916809082px, 55.69568157196045px) scale(1, 1) translate(-63.6581916809082px, -55.69568157196045px);}0%{-webkit-transform: translate(63.6581916809082px, 55.69568157196045px) scale(0.8, 0.8) translate(-63.6581916809082px, -55.69568157196045px);transform: translate(63.6581916809082px, 55.69568157196045px) scale(0.8, 0.8) translate(-63.6581916809082px, -55.69568157196045px);}100%{-webkit-transform: translate(63.6581916809082px, 55.69568157196045px) scale(1, 1) translate(-63.6581916809082px, -55.69568157196045px);transform: translate(63.6581916809082px, 55.69568157196045px) scale(1, 1) translate(-63.6581916809082px, -55.69568157196045px);}}@-webkit-keyframes kf_el_pmvuPMTMVMQ_an_J2nl7MOh0{81.33%{opacity: 0;}93.33%{opacity: 1;}0%{opacity: 0;}100%{opacity: 1;}}@keyframes kf_el_pmvuPMTMVMQ_an_J2nl7MOh0{81.33%{opacity: 0;}93.33%{opacity: 1;}0%{opacity: 0;}100%{opacity: 1;}}@-webkit-keyframes kf_el_JC-Uu6ttKfH_an_aVUy73jcg{90.67%{opacity: 0;}97.33%{opacity: 1;}0%{opacity: 0;}100%{opacity: 1;}}@keyframes kf_el_JC-Uu6ttKfH_an_aVUy73jcg{90.67%{opacity: 0;}97.33%{opacity: 1;}0%{opacity: 0;}100%{opacity: 1;}}@-webkit-keyframes kf_el_h3KUm3dod8m_an_qqxvaEsJX{86.67%{opacity: 0;}93.33%{opacity: 1;}0%{opacity: 0;}100%{opacity: 1;}}@keyframes kf_el_h3KUm3dod8m_an_qqxvaEsJX{86.67%{opacity: 0;}93.33%{opacity: 1;}0%{opacity: 0;}100%{opacity: 1;}}@-webkit-keyframes kf_el_kO7EG4MK0tq_an_RtrvweCaQ{89.33%{opacity: 0;}97.33%{opacity: 1;}0%{opacity: 0;}100%{opacity: 1;}}@keyframes kf_el_kO7EG4MK0tq_an_RtrvweCaQ{89.33%{opacity: 0;}97.33%{opacity: 1;}0%{opacity: 0;}100%{opacity: 1;}}@-webkit-keyframes kf_el_3YytfJBgeDz_an_dER-xaSPA{84%{opacity: 0;}100%{opacity: 1;}0%{opacity: 0;}}@keyframes kf_el_3YytfJBgeDz_an_dER-xaSPA{84%{opacity: 0;}100%{opacity: 1;}0%{opacity: 0;}}@-webkit-keyframes kf_el_F9m3XcVf2_P_an_qCC_ocKrZ{69.33%{opacity: 0;}77.33%{opacity: 1;}0%{opacity: 0;}100%{opacity: 1;}}@keyframes kf_el_F9m3XcVf2_P_an_qCC_ocKrZ{69.33%{opacity: 0;}77.33%{opacity: 1;}0%{opacity: 0;}100%{opacity: 1;}}@-webkit-keyframes kf_el_CmN-w4s81rf_an_lrRHGvJOc{0%{opacity: 0;}26.67%{opacity: 1;}100%{opacity: 1;}}@keyframes kf_el_CmN-w4s81rf_an_lrRHGvJOc{0%{opacity: 0;}26.67%{opacity: 1;}100%{opacity: 1;}}@-webkit-keyframes kf_el_APB1d0tIR9q_an_OoXDkzcXt{0%{opacity: 0;}26.67%{opacity: 1;}100%{opacity: 1;}}@keyframes kf_el_APB1d0tIR9q_an_OoXDkzcXt{0%{opacity: 0;}26.67%{opacity: 1;}100%{opacity: 1;}}@-webkit-keyframes kf_el_lPgJ21SGYBC_an_yXFnyHX7q{61.33%{opacity: 0;}77.33%{opacity: 1;}0%{opacity: 0;}100%{opacity: 1;}}@keyframes kf_el_lPgJ21SGYBC_an_yXFnyHX7q{61.33%{opacity: 0;}77.33%{opacity: 1;}0%{opacity: 0;}100%{opacity: 1;}}@-webkit-keyframes kf_el_hSXC4aO7bG-_an_WMUKE0bb1{0%{opacity: 0;}26.67%{opacity: 1;}100%{opacity: 1;}}@keyframes kf_el_hSXC4aO7bG-_an_WMUKE0bb1{0%{opacity: 0;}26.67%{opacity: 1;}100%{opacity: 1;}}@-webkit-keyframes kf_el_b43wm1fZp3b_an_HzTvaBVlN{69.33%{opacity: 0;}80%{opacity: 1;}0%{opacity: 0;}100%{opacity: 1;}}@keyframes kf_el_b43wm1fZp3b_an_HzTvaBVlN{69.33%{opacity: 0;}80%{opacity: 1;}0%{opacity: 0;}100%{opacity: 1;}}@-webkit-keyframes kf_el_YAmnJv8AoUA_an_Toi-CGzpC{78.67%{opacity: 0;}93.33%{opacity: 1;}0%{opacity: 0;}100%{opacity: 1;}}@keyframes kf_el_YAmnJv8AoUA_an_Toi-CGzpC{78.67%{opacity: 0;}93.33%{opacity: 1;}0%{opacity: 0;}100%{opacity: 1;}}@-webkit-keyframes kf_el_aZqx8j5jXI1_an_x6DT1GjeD{76%{opacity: 0;}89.33%{opacity: 1;}0%{opacity: 0;}100%{opacity: 1;}}@keyframes kf_el_aZqx8j5jXI1_an_x6DT1GjeD{76%{opacity: 0;}89.33%{opacity: 1;}0%{opacity: 0;}100%{opacity: 1;}}@-webkit-keyframes kf_el_ELcHjxKLFnf_an_5GsYahEB0{57.33%{opacity: 0;}73.33%{opacity: 1;}0%{opacity: 0;}100%{opacity: 1;}}@keyframes kf_el_ELcHjxKLFnf_an_5GsYahEB0{57.33%{opacity: 0;}73.33%{opacity: 1;}0%{opacity: 0;}100%{opacity: 1;}}@-webkit-keyframes kf_el_ZK9cfHW0GEp_an_hefMxH9Vc{73.33%{opacity: 0;}78.67%{opacity: 1;}0%{opacity: 0;}100%{opacity: 1;}}@keyframes kf_el_ZK9cfHW0GEp_an_hefMxH9Vc{73.33%{opacity: 0;}78.67%{opacity: 1;}0%{opacity: 0;}100%{opacity: 1;}}@-webkit-keyframes kf_el_3IiLPWh-hm0_an_rTVid1XFG{0%{opacity: 0;}26.67%{opacity: 1;}100%{opacity: 1;}}@keyframes kf_el_3IiLPWh-hm0_an_rTVid1XFG{0%{opacity: 0;}26.67%{opacity: 1;}100%{opacity: 1;}}@-webkit-keyframes kf_el_uD8PPYl-uER_an_oCwdraF-i{26.67%{opacity: 0;}60%{opacity: 1;}0%{opacity: 0;}100%{opacity: 1;}}@keyframes kf_el_uD8PPYl-uER_an_oCwdraF-i{26.67%{opacity: 0;}60%{opacity: 1;}0%{opacity: 0;}100%{opacity: 1;}}@-webkit-keyframes kf_el_kDnC9_4iPR_an_irXvxPYLK{26.67%{opacity: 0;}60%{opacity: 1;}0%{opacity: 0;}100%{opacity: 1;}}@keyframes kf_el_kDnC9_4iPR_an_irXvxPYLK{26.67%{opacity: 0;}60%{opacity: 1;}0%{opacity: 0;}100%{opacity: 1;}}#el_0TQ3rQ4r_ *{-webkit-animation-duration: 2.5s;animation-duration: 2.5s;-webkit-animation-iteration-count: 1;animation-iteration-count: 1;-webkit-animation-timing-function: cubic-bezier(0, 0, 1, 1);animation-timing-function: cubic-bezier(0, 0, 1, 1);}#el_hdDrkokAnt{stroke: none;stroke-width: 1;fill: none;}#el_po4beE8cvl{fill: #FFFFFF;}#el_ocG5BxqHn2{-webkit-transform: translate(48px, 1px);transform: translate(48px, 1px);}#el_xJOuHt1BoU{fill: black;fill-opacity: 1;}#el_uvI82JCctb{fill: #E0E4E9;}#el_qDJahG80Lg{fill: #FFFFFF;}#el__wCfdIG73y{fill: #F1F1F5;}#el_ZM_xrS3FGN{fill: #FFFFFF;opacity: 0.747551306;}#el_2cix1pGEeo{fill: url(#linearGradient-5);}#el_kDnC9_4iPR{-webkit-transform: translate(53.11875px, 45.126214px);transform: translate(53.11875px, 45.126214px);-webkit-animation-fill-mode: forwards;animation-fill-mode: forwards;-webkit-animation-name: kf_el_kDnC9_4iPR_an_irXvxPYLK;animation-name: kf_el_kDnC9_4iPR_an_irXvxPYLK;-webkit-animation-timing-function: cubic-bezier(0.42, 0, 1, 1);animation-timing-function: cubic-bezier(0.42, 0, 1, 1);}#el_BHxT83d77d{fill: #E0E4E9;stroke: #FFFFFF;stroke-width: 2;}#el_UN8ZgtlwYm6{stroke: url(#linearGradient-6);stroke-width: 1.18181818;fill: url(#linearGradient-6);}#el_uD8PPYl-uER{-webkit-transform: translate(84.914062px, 45.126214px);transform: translate(84.914062px, 45.126214px);-webkit-animation-fill-mode: forwards;animation-fill-mode: forwards;-webkit-animation-name: kf_el_uD8PPYl-uER_an_oCwdraF-i;animation-name: kf_el_uD8PPYl-uER_an_oCwdraF-i;-webkit-animation-timing-function: cubic-bezier(0.42, 0, 1, 1);animation-timing-function: cubic-bezier(0.42, 0, 1, 1);}#el_uI-u3ahr0Xf{fill: #E0E4E9;stroke: #FFFFFF;stroke-width: 2;}#el_J1tvPYd2sPb{-webkit-transform: translate(6.015625px, 7.190939px);transform: translate(6.015625px, 7.190939px);fill: url(#linearGradient-6);stroke: url(#linearGradient-6);stroke-width: 1.18181818;}#el_3IiLPWh-hm0{-webkit-transform: translate(121px, 61px);transform: translate(121px, 61px);-webkit-animation-fill-mode: forwards;animation-fill-mode: forwards;-webkit-animation-name: kf_el_3IiLPWh-hm0_an_rTVid1XFG;animation-name: kf_el_3IiLPWh-hm0_an_rTVid1XFG;-webkit-animation-timing-function: cubic-bezier(0.42, 0, 1, 1);animation-timing-function: cubic-bezier(0.42, 0, 1, 1);}#el_wzDKRbdeZE5{fill: url(#linearGradient-8);stroke: #FFFFFF;stroke-width: 1.9449461;}#el_tZ0Mnw3hRsn{-webkit-transform: translate(4px, 5px);transform: translate(4px, 5px);fill: #FFFFFF;}#el_ZK9cfHW0GEp{fill: #DFE2E8;-webkit-transform: translate(107.25617958823796px, -64.22630741131904px) rotate(-315deg);transform: translate(107.25617958823796px, -64.22630741131904px) rotate(-315deg);-webkit-animation-fill-mode: forwards;animation-fill-mode: forwards;-webkit-animation-name: kf_el_ZK9cfHW0GEp_an_hefMxH9Vc;animation-name: kf_el_ZK9cfHW0GEp_an_hefMxH9Vc;-webkit-animation-timing-function: cubic-bezier(0.42, 0, 1, 1);animation-timing-function: cubic-bezier(0.42, 0, 1, 1);}#el_ELcHjxKLFnf{stroke: #DFE2E8;stroke-width: 1.15555556;-webkit-animation-fill-mode: forwards;animation-fill-mode: forwards;-webkit-animation-name: kf_el_ELcHjxKLFnf_an_5GsYahEB0;animation-name: kf_el_ELcHjxKLFnf_an_5GsYahEB0;-webkit-animation-timing-function: cubic-bezier(0.42, 0, 1, 1);animation-timing-function: cubic-bezier(0.42, 0, 1, 1);}#el_aZqx8j5jXI1{stroke: #DFE2E8;stroke-width: 1.15555556;-webkit-animation-fill-mode: forwards;animation-fill-mode: forwards;-webkit-animation-name: kf_el_aZqx8j5jXI1_an_x6DT1GjeD;animation-name: kf_el_aZqx8j5jXI1_an_x6DT1GjeD;-webkit-animation-timing-function: cubic-bezier(0.42, 0, 1, 1);animation-timing-function: cubic-bezier(0.42, 0, 1, 1);}#el_YAmnJv8AoUA{stroke: #DFE2E8;stroke-width: 1.15555556;-webkit-animation-fill-mode: forwards;animation-fill-mode: forwards;-webkit-animation-name: kf_el_YAmnJv8AoUA_an_Toi-CGzpC;animation-name: kf_el_YAmnJv8AoUA_an_Toi-CGzpC;-webkit-animation-timing-function: cubic-bezier(0.42, 0, 1, 1);animation-timing-function: cubic-bezier(0.42, 0, 1, 1);}#el_b43wm1fZp3b{fill: #DFE2E8;-webkit-transform: translate(83.8345050444304px, -54.10932105419836px) rotate(39deg);transform: translate(83.8345050444304px, -54.10932105419836px) rotate(39deg);-webkit-animation-fill-mode: forwards;animation-fill-mode: forwards;-webkit-animation-name: kf_el_b43wm1fZp3b_an_HzTvaBVlN;animation-name: kf_el_b43wm1fZp3b_an_HzTvaBVlN;-webkit-animation-timing-function: cubic-bezier(0.42, 0, 1, 1);animation-timing-function: cubic-bezier(0.42, 0, 1, 1);}#el_hSXC4aO7bG-{-webkit-transform: translate(126.5px, 10px);transform: translate(126.5px, 10px);-webkit-animation-fill-mode: forwards;animation-fill-mode: forwards;-webkit-animation-name: kf_el_hSXC4aO7bG-_an_WMUKE0bb1;animation-name: kf_el_hSXC4aO7bG-_an_WMUKE0bb1;-webkit-animation-timing-function: cubic-bezier(0.42, 0, 1, 1);animation-timing-function: cubic-bezier(0.42, 0, 1, 1);}#el_TtzygYXA2Pa{fill: url(#linearGradient-10);stroke: #FFFFFF;stroke-width: 1.9449461;}#el_BH_ex5pm-7c{-webkit-transform: translate(5.217391px, 9.130435px);transform: translate(5.217391px, 9.130435px);}#el_lkSVYxvuxUi{fill: #FFFFFF;}#el_azea0zOqRML{fill: url(#linearGradient-11);}#el_lPgJ21SGYBC{stroke: #E0E4E9;stroke-width: 1.15555556;-webkit-transform: translate(55.993595605463526px, 18.735195011535772px) scale(-1, 1) rotate(-37deg);transform: translate(55.993595605463526px, 18.735195011535772px) scale(-1, 1) rotate(-37deg);-webkit-animation-fill-mode: forwards;animation-fill-mode: forwards;-webkit-animation-name: kf_el_lPgJ21SGYBC_an_yXFnyHX7q;animation-name: kf_el_lPgJ21SGYBC_an_yXFnyHX7q;-webkit-animation-timing-function: cubic-bezier(0.42, 0, 1, 1);animation-timing-function: cubic-bezier(0.42, 0, 1, 1);}#el_APB1d0tIR9q{-webkit-transform: translate(4px, 10px);transform: translate(4px, 10px);-webkit-animation-fill-mode: forwards;animation-fill-mode: forwards;-webkit-animation-name: kf_el_APB1d0tIR9q_an_OoXDkzcXt;animation-name: kf_el_APB1d0tIR9q_an_OoXDkzcXt;-webkit-animation-timing-function: cubic-bezier(0.42, 0, 1, 1);animation-timing-function: cubic-bezier(0.42, 0, 1, 1);}#el_MlbrRHkkP_I{fill: url(#linearGradient-13);stroke: #FFFFFF;stroke-width: 1.9449461;}#el_CnbUTS_K_Dp{fill: #FFFFFF;}#el_CmN-w4s81rf{-webkit-transform: translate(13px, 61px);transform: translate(13px, 61px);-webkit-animation-fill-mode: forwards;animation-fill-mode: forwards;-webkit-animation-name: kf_el_CmN-w4s81rf_an_lrRHGvJOc;animation-name: kf_el_CmN-w4s81rf_an_lrRHGvJOc;-webkit-animation-timing-function: cubic-bezier(0.42, 0, 1, 1);animation-timing-function: cubic-bezier(0.42, 0, 1, 1);}#el__Yf_DCDaSTy{stroke: #FFFFFF;stroke-width: 1.9449461;fill: url(#linearGradient-8);}#el_79VCnfWyz-B{-webkit-transform: translate(4.676829px, 6.541533px);transform: translate(4.676829px, 6.541533px);}#el_n_5ZHpNa7SY{-webkit-transform: translate(4.676829px, 6.541533px);transform: translate(4.676829px, 6.541533px);fill: #FFFFFF;}#el_F9m3XcVf2_P{stroke: #DFE2E8;stroke-width: 1.15555556;-webkit-animation-fill-mode: forwards;animation-fill-mode: forwards;-webkit-animation-name: kf_el_F9m3XcVf2_P_an_qCC_ocKrZ;animation-name: kf_el_F9m3XcVf2_P_an_qCC_ocKrZ;-webkit-animation-timing-function: cubic-bezier(0.42, 0, 1, 1);animation-timing-function: cubic-bezier(0.42, 0, 1, 1);}#el_3YytfJBgeDz{fill: #DFE2E8;-webkit-transform: translate(71.80831330068774px, 16.83956213862406px) rotate(-315deg);transform: translate(71.80831330068774px, 16.83956213862406px) rotate(-315deg);-webkit-animation-fill-mode: forwards;animation-fill-mode: forwards;-webkit-animation-name: kf_el_3YytfJBgeDz_an_dER-xaSPA;animation-name: kf_el_3YytfJBgeDz_an_dER-xaSPA;-webkit-animation-timing-function: cubic-bezier(0.42, 0, 1, 1);animation-timing-function: cubic-bezier(0.42, 0, 1, 1);}#el_kO7EG4MK0tq{fill: #DFE2E8;-webkit-transform: translate(56.02589015603937px, 18.746000616991644px) scale(-1, 1) rotate(-37deg);transform: translate(56.02589015603937px, 18.746000616991644px) scale(-1, 1) rotate(-37deg);-webkit-animation-fill-mode: forwards;animation-fill-mode: forwards;-webkit-animation-name: kf_el_kO7EG4MK0tq_an_RtrvweCaQ;animation-name: kf_el_kO7EG4MK0tq_an_RtrvweCaQ;-webkit-animation-timing-function: cubic-bezier(0.42, 0, 1, 1);animation-timing-function: cubic-bezier(0.42, 0, 1, 1);}#el_h3KUm3dod8m{fill: #DFE2E8;-webkit-transform: translate(298.2058211926394px, 99.77827201879165px) scale(-1, 1) rotate(-37deg);transform: translate(298.2058211926394px, 99.77827201879165px) scale(-1, 1) rotate(-37deg);-webkit-animation-fill-mode: forwards;animation-fill-mode: forwards;-webkit-animation-name: kf_el_h3KUm3dod8m_an_qqxvaEsJX;animation-name: kf_el_h3KUm3dod8m_an_qqxvaEsJX;-webkit-animation-timing-function: cubic-bezier(0.42, 0, 1, 1);animation-timing-function: cubic-bezier(0.42, 0, 1, 1);}#el_JC-Uu6ttKfH{fill: #DFE2E8;-webkit-transform: translate(250.63896264321318px, 83.86262378485921px) scale(-1, 1) rotate(-37deg);transform: translate(250.63896264321318px, 83.86262378485921px) scale(-1, 1) rotate(-37deg);-webkit-animation-fill-mode: forwards;animation-fill-mode: forwards;-webkit-animation-name: kf_el_JC-Uu6ttKfH_an_aVUy73jcg;animation-name: kf_el_JC-Uu6ttKfH_an_aVUy73jcg;-webkit-animation-timing-function: cubic-bezier(0.42, 0, 1, 1);animation-timing-function: cubic-bezier(0.42, 0, 1, 1);}#el_pmvuPMTMVMQ{fill: #DFE2E8;-webkit-transform: translate(16.16276734549px, -23.682644131357737px) rotate(-315deg);transform: translate(16.16276734549px, -23.682644131357737px) rotate(-315deg);-webkit-animation-fill-mode: forwards;animation-fill-mode: forwards;-webkit-animation-name: kf_el_pmvuPMTMVMQ_an_J2nl7MOh0;animation-name: kf_el_pmvuPMTMVMQ_an_J2nl7MOh0;-webkit-animation-timing-function: cubic-bezier(0.42, 0, 1, 1);animation-timing-function: cubic-bezier(0.42, 0, 1, 1);}#el_kDnC9_4iPR_an_UWMI-ZsNj{-webkit-animation-fill-mode: forwards;animation-fill-mode: forwards;-webkit-animation-name: kf_el_kDnC9_4iPR_an_UWMI-ZsNj;animation-name: kf_el_kDnC9_4iPR_an_UWMI-ZsNj;-webkit-animation-timing-function: cubic-bezier(0, 0, 0.58, 1);animation-timing-function: cubic-bezier(0, 0, 0.58, 1);}#el_uD8PPYl-uER_an_QGplDHQ5z{-webkit-animation-fill-mode: forwards;animation-fill-mode: forwards;-webkit-animation-name: kf_el_uD8PPYl-uER_an_QGplDHQ5z;animation-name: kf_el_uD8PPYl-uER_an_QGplDHQ5z;-webkit-animation-timing-function: cubic-bezier(0, 0, 0.58, 1);animation-timing-function: cubic-bezier(0, 0, 0.58, 1);}</style>
    <!-- Generator: Sketch 52.5 (67469) - http://www.bohemiancoding.com/sketch -->
    <title>YAK Resend  IL only</title>
    <desc>Created with Sketch.</desc>
    <defs>
        <rect id="path-1" x="0.879375" y="0" width="61.5690672" height="100.980773" rx="3.94248366"/>
        <filter x="-13.8%" y="-6.4%" width="127.6%" height="116.8%" filterUnits="objectBoundingBox" id="filter-2">
            <feOffset dx="0" dy="2" in="SourceAlpha" result="shadowOffsetOuter1"/>
            <feGaussianBlur stdDeviation="2.5" in="shadowOffsetOuter1" result="shadowBlurOuter1"/>
            <feColorMatrix values="0 0 0 0 0   0 0 0 0 0   0 0 0 0 0  0 0 0 0.161769701 0" type="matrix" in="shadowBlurOuter1"/>
        </filter>
        <rect id="path-3" x="5.30578125" y="7.99847706" width="53.076782" height="78.3958182" rx="1.83529412"/>
        <linearGradient x1="90.2060987%" y1="9.74771034%" x2="8.82317355%" y2="87.9652155%" id="linearGradient-5">
            <stop stop-color="#7282FB" offset="0%"/>
            <stop stop-color="#755BF9" offset="68.7141263%"/>
            <stop stop-color="#7934F7" offset="100%"/>
        </linearGradient>
        <linearGradient x1="0%" y1="100%" x2="100%" y2="0%" id="linearGradient-6">
            <stop stop-color="#7282FB" offset="0%"/>
            <stop stop-color="#755BF9" offset="68.7141263%"/>
            <stop stop-color="#7934F7" offset="100%"/>
        </linearGradient>
        <filter x="-38.5%" y="-38.5%" width="176.9%" height="176.9%" filterUnits="objectBoundingBox" id="filter-7">
            <feOffset dx="0" dy="2" in="SourceAlpha" result="shadowOffsetOuter1"/>
            <feGaussianBlur stdDeviation="1" in="shadowOffsetOuter1" result="shadowBlurOuter1"/>
            <feColorMatrix values="0 0 0 0 0   0 0 0 0 0   0 0 0 0 0  0 0 0 0.15 0" type="matrix" in="shadowBlurOuter1" result="shadowMatrixOuter1"/>
            <feMerge>
                <feMergeNode in="shadowMatrixOuter1"/>
                <feMergeNode in="SourceGraphic"/>
            </feMerge>
        </filter>
        <linearGradient x1="85.1619045%" y1="16.5826525%" x2="16.2230344%" y2="88.7852452%" id="linearGradient-8">
            <stop stop-color="#7282FB" offset="0%"/>
            <stop stop-color="#755BF9" offset="62.6983535%"/>
            <stop stop-color="#7934F7" offset="100%"/>
        </linearGradient>
        <filter x="-33.3%" y="-33.3%" width="166.7%" height="166.7%" filterUnits="objectBoundingBox" id="filter-9">
            <feOffset dx="0" dy="2" in="SourceAlpha" result="shadowOffsetOuter1"/>
            <feGaussianBlur stdDeviation="1" in="shadowOffsetOuter1" result="shadowBlurOuter1"/>
            <feColorMatrix values="0 0 0 0 0   0 0 0 0 0   0 0 0 0 0  0 0 0 0.15 0" type="matrix" in="shadowBlurOuter1" result="shadowMatrixOuter1"/>
            <feMerge>
                <feMergeNode in="shadowMatrixOuter1"/>
                <feMergeNode in="SourceGraphic"/>
            </feMerge>
        </filter>
        <linearGradient x1="82.1754198%" y1="10.8200905%" x2="14.8204845%" y2="82.9532473%" id="linearGradient-10">
            <stop stop-color="#7282FB" offset="0%"/>
            <stop stop-color="#755BF9" offset="68.7141263%"/>
            <stop stop-color="#7934F7" offset="100%"/>
        </linearGradient>
        <linearGradient x1="100%" y1="0%" x2="0%" y2="188.804344%" id="linearGradient-11">
            <stop stop-color="#7282FB" offset="0%"/>
            <stop stop-color="#755BF9" offset="48.4520432%"/>
            <stop stop-color="#7934F7" offset="100%"/>
        </linearGradient>
        <filter x="-34.5%" y="-33.3%" width="169.0%" height="163.3%" filterUnits="objectBoundingBox" id="filter-12">
            <feOffset dx="0" dy="2" in="SourceAlpha" result="shadowOffsetOuter1"/>
            <feGaussianBlur stdDeviation="1" in="shadowOffsetOuter1" result="shadowBlurOuter1"/>
            <feColorMatrix values="0 0 0 0 0   0 0 0 0 0   0 0 0 0 0  0 0 0 0.15 0" type="matrix" in="shadowBlurOuter1" result="shadowMatrixOuter1"/>
            <feMerge>
                <feMergeNode in="shadowMatrixOuter1"/>
                <feMergeNode in="SourceGraphic"/>
            </feMerge>
        </filter>
        <linearGradient x1="85.8843995%" y1="15.0615605%" x2="20.1220644%" y2="88.4027227%" id="linearGradient-13">
            <stop stop-color="#7282FB" offset="0%"/>
            <stop stop-color="#755BF9" offset="73.4796193%"/>
            <stop stop-color="#7934F7" offset="100%"/>
        </linearGradient>
        <filter x="-38.5%" y="-38.5%" width="176.9%" height="176.9%" filterUnits="objectBoundingBox" id="filter-14">
            <feOffset dx="0" dy="2" in="SourceAlpha" result="shadowOffsetOuter1"/>
            <feGaussianBlur stdDeviation="1" in="shadowOffsetOuter1" result="shadowBlurOuter1"/>
            <feColorMatrix values="0 0 0 0 0   0 0 0 0 0   0 0 0 0 0  0 0 0 0.15 0" type="matrix" in="shadowBlurOuter1" result="shadowMatrixOuter1"/>
            <feMerge>
                <feMergeNode in="shadowMatrixOuter1"/>
                <feMergeNode in="SourceGraphic"/>
            </feMerge>
        </filter>
    </defs>
    <g id="el_hdDrkokAnt" fill-rule="evenodd">
        <rect x="0" y="0" width="160" height="104" id="el_po4beE8cvl"/>
        <g id="el_ocG5BxqHn2">
            <g id="el_CqUMpSXZMJ">
                <g id="el_3ElIynNgnz">
                    <use filter="url(#filter-2)" xlink:href="#path-1" id="el_xJOuHt1BoU"/>
                    <use fill-rule="evenodd" xlink:href="#path-1" id="el_uvI82JCctb"/>
                </g>
                <mask id="mask-4" fill="white">
                    <use xlink:href="#path-3"/>
                </mask>
                <use id="el_qDJahG80Lg" xlink:href="#path-3"/>
            </g>
            <rect id="el__wCfdIG73y" x="26.840625" y="2.31774051" width="9.31875" height="2.31774051" rx="1.15887026"/>
            <ellipse id="el_ZM_xrS3FGN" cx="31.5" cy="92.7096205" rx="4.659375" ry="4.63548102"/>
            <path d="M32.88375,23.1049038 C32.88375,24.0717909 32.1589869,24.8555351 31.26375,24.8555351 C30.36951,24.8555351 29.64375,24.0717909 29.64375,23.1049038 C29.64375,22.1380166 30.36951,21.3542724 31.26375,21.3542724 C32.1589869,21.3542724 32.88375,22.1380166 32.88375,23.1049038 M28.02375,27.6465503 C28.0519106,27.2662593 28.2447841,26.9145171 28.5603953,26.6128698 C28.6305311,26.5460765 28.6985416,26.4776672 28.7803668,26.4162604 C29.4137145,25.9384727 30.3807387,25.6335935 31.46625,25.6335935 C32.5517613,25.6335935 33.5187855,25.9384727 34.1521332,26.4162604 C34.2339584,26.4776672 34.3019689,26.5460765 34.3721047,26.6128698 C34.6877159,26.9145171 34.8805894,27.2662593 34.90875,27.6465503 C34.0511802,28.5498761 32.8546205,29.1176194 31.5273532,29.1348563 L31.4051468,29.1348563 C30.0778795,29.1176194 28.8813198,28.5498761 28.02375,27.6465503 M31.26375,18.631068 C28.1323636,18.631068 25.59375,21.1566632 25.59375,24.2719913 C25.59375,27.3873195 28.1323636,29.9129147 31.26375,29.9129147 C34.3951364,29.9129147 36.93375,27.3873195 36.93375,24.2719913 C36.93375,21.1566632 34.3951364,18.631068 31.26375,18.631068" id="el_2cix1pGEeo"/>
        </g>
        <g id="el_kDnC9_4iPR_an_UWMI-ZsNj" data-animator-group="true" data-animator-type="2"><g id="el_kDnC9_4iPR">
            <g id="el_BHxT83d77d">
                <g id="el_eMfc57tQTc">
                    <g id="el_bVbGemSNip">
                        <rect id="el_Wg2eBQ5bu2A" x="-1" y="-1" width="23.3163838" height="23.3913627" rx="11.6581919"/>
                    </g>
                </g>
            </g>
            <path d="M11.3023461,10.5185142 L13.987419,7.84664023 C14.1382464,7.69658623 14.1382464,7.45315263 13.987419,7.30347901 C13.8369738,7.15342501 13.5922854,7.15342501 13.441458,7.30347901 L10.7561939,9.97535295 L8.07092993,7.30347901 C7.92010247,7.15342501 7.67541407,7.15342501 7.52496894,7.30347901 C7.37414148,7.45315263 7.37414148,7.69639605 7.52496894,7.84664023 L10.2100418,10.5185142 L7.33170334,13.3824724 C7.18106704,13.5319559 7.18106704,13.7755797 7.3318945,13.9250631 C7.48233963,14.0749269 7.72702803,14.0749269 7.87785549,13.9250631 L10.7561939,11.0616754 L13.441458,13.9250631 C13.5922854,14.0749269 13.8369738,14.0749269 13.9876101,13.9250631 C14.1382464,13.7755797 14.1382464,13.5327166 13.987419,13.3824724 L11.3023461,10.5185142 Z" id="el_UN8ZgtlwYm6"/>
        </g></g>
        <g id="el_uD8PPYl-uER_an_QGplDHQ5z" data-animator-group="true" data-animator-type="2"><g id="el_uD8PPYl-uER">
            <g id="el_2GvDRgNLfo6">
                <g id="el_uI-u3ahr0Xf">
                    <g id="el_J6yuFn0p-bk">
                        <rect id="el_TFtUlobM5_j" x="-1" y="-1" width="23.3163838" height="23.3913627" rx="11.6581919"/>
                    </g>
                </g>
                <g id="el_J1tvPYd2sPb">
                    <path d="M0.132102562,3.61120765 C-0.0465452935,3.43946957 -0.043586794,3.16344608 0.138474715,2.99481437 C0.320763801,2.82640455 0.613427677,2.82906715 0.79230311,3.00102712 L3.28631821,5.41157303 L8.76591448,0.130737922 C8.94456233,-0.0412220452 9.23722621,-0.0438846511 9.4195153,0.124747058 C9.60180438,0.293156884 9.6045353,0.569180366 9.42588745,0.740918449 L3.28631821,6.6563413 L0.132102562,3.61120765 Z" id="el_swC8U1sKRY7"/>
                </g>
            </g>
        </g></g>
        <g id="el_3IiLPWh-hm0">
            <g id="el_wzDKRbdeZE5" filter="url(#filter-7)">
                <rect id="el_b18FaiNlUMF" x="-0.972473052" y="-0.972473052" width="27.1558631" height="27.2840476" rx="13.5779316"/>
            </g>
            <g id="el_tZ0Mnw3hRsn">
                <polygon id="el_J22wLH96LeR" points="17.1421259 -0.000182114014 10.0889177 6.73318005 5.64196187 2.83047671 0.000120939784 8.69454798 0.000120939784 10.5569673 5.64619475 4.68439739 10.0750096 8.56767522 17.1421259 1.82095803"/>
                <polygon id="el__bklDexhhhy" points="10.2968132 10.5606096 5.64184092 6.76110419 0.237041976 12.4879829 0.237041976 14.0493071 17.1686118 14.0493071 17.1686118 3.81571353"/>
            </g>
        </g>
        <path d="M126.833565,92.9698085 C130.538083,96.7305556 131.785056,96.7383275 135.558787,93.0199007 C131.785056,96.7383275 131.774117,97.9867741 135.477204,101.743207 C131.774117,97.9867741 130.524991,97.9761281 126.753415,101.696709 C130.524992,97.9754085 130.538083,96.7305556 126.833565,92.9698085 Z" id="el_ZK9cfHW0GEp"/>
        <path d="M139.334825,51 L137,51.8897858 L137,53.0761669 C137.000865,54.5834229 137.936319,55.9265246 139.334825,56.4284497 C140.73333,55.9265246 141.668784,54.5834229 141.669649,53.0761669 L141.669649,51.8897858 L139.334825,51 Z" id="el_ELcHjxKLFnf"/>
        <path d="M123.334824,7 L121,7.8897858 L121,9.07616686 C121.000865,10.5834229 121.936319,11.9265246 123.334824,12.4284497 C124.73333,11.9265246 125.668784,10.5834229 125.669649,9.07616686 L125.669649,7.8897858 L123.334824,7 Z" id="el_aZqx8j5jXI1"/>
        <path d="M41.3348245,30 L39,30.8897858 L39,32.0761669 C39.0008648,33.5834229 39.9363189,34.9265246 41.3348245,35.4284497 C42.7333301,34.9265246 43.6687842,33.5834229 43.669649,32.0761669 L43.669649,30.8897858 L41.3348245,30 Z" id="el_YAmnJv8AoUA"/>
        <path d="M118.789728,90.8452268 L120.173984,90.8452268 C120.453234,90.8452268 120.679611,91.0636071 120.679611,91.3380695 L120.679611,91.293948 C120.679611,91.5661375 120.451728,91.7867906 120.173984,91.7867906 L118.789728,91.7867906 L118.789728,93.201303 C118.789728,93.460112 118.570564,93.6699182 118.317257,93.6699182 C118.056319,93.6699182 117.844786,93.4676291 117.844786,93.201303 L117.844786,91.7867906 L116.46053,91.7867906 C116.18128,91.7867906 115.954903,91.5684104 115.954903,91.293948 L115.954903,91.3380695 C115.954903,91.06588 116.182786,90.8452268 116.46053,90.8452268 L117.844786,90.8452268 L117.844786,89.4307144 C117.844786,89.1719054 118.06395,88.9620993 118.317257,88.9620993 C118.578195,88.9620993 118.789728,89.1643884 118.789728,89.4307144 L118.789728,90.8452268 Z" id="el_b43wm1fZp3b"/>
        <g id="el_hSXC4aO7bG-">
            <g id="el_TtzygYXA2Pa" filter="url(#filter-9)">
                <rect id="el_gK1qeBd2g07" x="-0.972473052" y="-0.972473052" width="31.025887" height="31.1737486" rx="15.5129435"/>
            </g>
            <g id="el_BH_ex5pm-7c">
                <rect id="el_lkSVYxvuxUi" x="0" y="0" width="18.5327814" height="12.0193546" rx="0.296592593"/>
                <polygon id="el_azea0zOqRML" points="1.3237701 1.33548384 1.3237701 3.33870961 9.2663907 6.67741921 17.2090113 3.33870961 17.2090113 1.33548384"/>
            </g>
        </g>
        <ellipse id="el_lPgJ21SGYBC" cx="14.2242481" cy="50.5294095" rx="1.52149741" ry="1.52056636"/>
        <g id="el_APB1d0tIR9q">
            <g id="el_MlbrRHkkP_I" filter="url(#filter-12)">
                <rect id="el_84qUUvd-TR9" x="-0.972473052" y="-0.972473052" width="30.8143893" height="30.9611755" rx="15.4071946"/>
            </g>
            <path d="M19.2876608,14.7755408 C19.2918153,14.7712014 19.2918153,14.7675852 19.2952774,14.7632458 C19.8914575,13.5315766 20.2764472,12.0634095 20.3796189,10.470846 L22.9325991,10.470846 C22.738027,11.7025152 22.007516,14.2902501 19.2876608,14.7755408 Z M6.07822118,10.470846 L8.6312014,10.470846 C8.73021853,12.0713651 9.11936279,13.5438715 9.72315958,14.7755408 C7.00330433,14.2902501 6.27279331,11.7025152 6.07822118,10.470846 Z M20.4114706,9.22688182 C20.4190873,8.77919935 20.4350131,8.32717747 20.4232418,7.89179 L16.2742163,7.89179 L16.2742163,14.2569813 L14.5071412,12.2745941 L12.7366041,14.2569813 L12.7366041,7.89179 L8.59173303,7.89179 C8.57926933,8.33079365 8.59173303,8.78281553 8.59519517,9.22688182 L4.8,9.22688182 L4.81938797,9.86983774 C4.88724587,11.9469687 6.13776995,15.9283774 10.3823506,16.0939982 L10.3899673,15.9370562 C11.1724104,17.0732584 12.164659,17.8897906 13.272543,18.2427293 C13.2843143,18.2463455 13.2960855,18.250685 13.3085492,18.250685 L13.3085492,20.0175481 L10.2708697,20.0175481 L10.2708697,21.3114155 L8.54395554,21.3114155 L8.54395554,22.9452034 L20.4627102,22.9452034 L20.4627102,21.3114155 L18.7399506,21.3114155 L18.7399506,20.0175481 L15.7022711,20.0175481 L15.7022711,18.250685 C16.7942293,17.9151039 17.7830158,17.1224384 18.5571497,16.019505 C18.5806923,15.9862362 18.6007726,15.9573068 18.620853,15.9240379 L18.6284698,16.0939982 C22.8730504,15.9283774 24.1235744,11.9469687 24.19074,9.86983774 L24.2108204,9.22688182 L20.4114706,9.22688182 Z" id="el_CnbUTS_K_Dp" fill-rule="nonzero"/>
        </g>
        <g id="el_CmN-w4s81rf" filter="url(#filter-14)">
            <g id="el_Nq5aA_AGUKz">
                <rect id="el__Yf_DCDaSTy" x="-0.972473052" y="-0.972473052" width="27.1558631" height="27.2840476" rx="13.5779316"/>
                <g id="el_79VCnfWyz-B"/>
            </g>
            <g id="el_n_5ZHpNa7SY">
                <path d="M12.3394032,12.0166157 L1.08645082,12.0166157 C0.486747687,12.0166157 5.67900693e-05,11.5125744 5.67900693e-05,10.8901776 C5.67900693e-05,10.2677808 0.486747687,9.76373943 1.08645082,9.76373943 L12.0389837,9.76373943 C12.4734277,9.47226699 12.9288841,9.041241 13.0407605,8.47242802 C13.1566122,7.88359472 12.8533533,7.29711675 12.5620202,6.89258827 C12.4836499,6.8878776 12.3524648,6.89141059 12.2598971,6.89494359 C12.1690329,6.89788776 12.0776009,6.9002431 11.985601,6.9002431 L2.78731341,6.9002431 C2.67202957,6.9002431 2.55731363,6.88140043 2.44770879,6.8437151 C2.33526445,6.80544094 1.33519133,6.44095312 0.787167156,5.43758117 C0.376007052,4.68387453 0.2527726,3.66519292 0.465167461,2.77899879 C0.941636149,0.79521938 3.01788109,0.115705745 3.25355988,0.0450457479 C3.3518067,0.0150152493 3.45402883,0.000294416653 3.55681885,0.000294416653 L14.7387835,0.000294416653 C15.3390546,0.000294416653 15.8251776,0.504335727 15.8251776,1.12673253 C15.8251776,1.74912934 15.3390546,2.25317064 14.7387835,2.25317064 L3.73797918,2.25317064 C3.38588074,2.39566831 2.70610361,2.77252162 2.57378275,3.32308077 C2.48575814,3.68992391 2.56185683,4.11447273 2.67827647,4.32704155 C2.76005418,4.47778288 2.91281946,4.5861282 3.01731319,4.64677804 L11.9861689,4.64677804 C12.0548849,4.64677804 12.1241688,4.6444227 12.1928847,4.6426562 C12.717625,4.62558004 13.5973032,4.59731604 14.2430063,5.46348983 C15.2941905,6.87139027 15.3276966,8.12148338 15.1703881,8.92288547 C14.9358451,10.1158618 14.1402163,11.1363099 12.8698224,11.8729404 C12.7079707,11.9671537 12.5251066,12.0166157 12.3394032,12.0166157" id="el_0Zn3mR1iMrR"/>
            </g>
        </g>
        <path d="M34.5118644,95.1333333 L31.7457627,96.1659628 L31.7457627,97.5428022 C31.7467873,99.2920289 32.8550338,100.850748 34.5118644,101.433251 C36.168695,100.850748 37.2769416,99.2920289 37.2779661,97.5428022 L37.2779661,96.1659628 L34.5118644,95.1333333 Z" id="el_F9m3XcVf2_P"/>
        <path d="M12.3860623,91.8689077 C15.1207791,94.6390162 16.0413112,94.6447434 18.8271373,91.9058233 C16.0413112,94.6447434 16.033233,95.5643274 18.7668933,98.3312578 C16.033233,95.5643274 15.1111113,95.556483 12.3268758,98.2969902 C15.1111122,95.555953 15.1207791,94.6390162 12.3860623,91.8689077 Z" id="el_3YytfJBgeDz"/>
        <path d="M11.011984,61.5954429 L11.9684848,61.5954429 C12.3535084,61.5954429 12.6656317,61.9088882 12.6656317,62.3016158 C12.6656317,62.6916243 12.3556305,63.0077886 11.9684848,63.0077886 L11.011984,63.0077886 L11.011984,63.9405089 C11.011984,64.3354015 10.6974143,64.6555252 10.3032778,64.6555252 C9.9118702,64.6555252 9.59457164,64.3466321 9.59457164,63.9405089 L9.59457164,63.0077886 L8.6380708,63.0077886 C8.25304719,63.0077886 7.94092388,62.6943433 7.94092388,62.3016158 C7.94092388,61.9116073 8.25092516,61.5954429 8.6380708,61.5954429 L9.59457164,61.5954429 L9.59457164,60.6627227 C9.59457164,60.26783 9.90914138,59.9477063 10.3032778,59.9477063 C10.6946854,59.9477063 11.011984,60.2565995 11.011984,60.6627227 L11.011984,61.5954429 Z" id="el_kO7EG4MK0tq"/>
        <path d="M151.011984,45.5954429 L151.968485,45.5954429 C152.353508,45.5954429 152.665632,45.9088882 152.665632,46.3016158 C152.665632,46.6916243 152.35563,47.0077886 151.968485,47.0077886 L151.011984,47.0077886 L151.011984,47.9405089 C151.011984,48.3354015 150.697414,48.6555252 150.303278,48.6555252 C149.91187,48.6555252 149.594572,48.3466321 149.594572,47.9405089 L149.594572,47.0077886 L148.638071,47.0077886 C148.253047,47.0077886 147.940924,46.6943433 147.940924,46.3016158 C147.940924,45.9116073 148.250925,45.5954429 148.638071,45.5954429 L149.594572,45.5954429 L149.594572,44.6627227 C149.594572,44.26783 149.909141,43.9477063 150.303278,43.9477063 C150.694685,43.9477063 151.011984,44.2565995 151.011984,44.6627227 L151.011984,45.5954429 Z" id="el_h3KUm3dod8m"/>
        <path d="M139.011984,2.42066108 L139.968485,2.42066108 C140.353508,2.42066108 140.665632,2.73410636 140.665632,3.12683392 C140.665632,3.51684241 140.35563,3.83300676 139.968485,3.83300676 L139.011984,3.83300676 L139.011984,4.76572702 C139.011984,5.16061965 138.697414,5.48074339 138.303278,5.48074339 C137.91187,5.48074339 137.594572,5.17185024 137.594572,4.76572702 L137.594572,3.83300676 L136.638071,3.83300676 C136.253047,3.83300676 135.940924,3.51956148 135.940924,3.12683392 C135.940924,2.73682543 136.250925,2.42066108 136.638071,2.42066108 L137.594572,2.42066108 L137.594572,1.48794082 C137.594572,1.09304819 137.909141,0.772924455 138.303278,0.772924455 C138.694685,0.772924455 139.011984,1.0818176 139.011984,1.48794082 L139.011984,2.42066108 Z" id="el_JC-Uu6ttKfH"/>
        <path d="M33.4218627,4.37330281 C36.2046216,7.19860982 37.1413226,7.2044487 39.9760733,4.41093651 C37.1413226,7.2044487 37.1331051,8.14235927 39.9147888,10.9644248 C37.1331051,8.14235927 36.1947865,8.13436108 33.3616543,10.929492 C36.1947875,8.13382051 36.2046216,7.19860982 33.4218627,4.37330281 Z" id="el_pmvuPMTMVMQ"/>
    </g>
</svg>