<svg width="140" height="140" viewBox="0 0 140 140" fill="none" xmlns="http://www.w3.org/2000/svg">
<rect x="3.24857" y="13.9262" width="57.1036" height="106.914" rx="3.46126" transform="rotate(-10.7771 3.24857 13.9262)" fill="white" stroke="#B0B9C1" stroke-width="3.84584"/>
<path d="M56.4595 73.5588L58.5408 73.1626C59.3754 73.0038 59.9232 72.1984 59.7643 71.3638L59.1315 68.0391" stroke="#FFA700" stroke-width="2.3075" stroke-linecap="round"/>
<path d="M55.6449 45.6213L55.0121 42.2967C54.8532 41.4621 54.0479 40.9143 53.2132 41.0731L49.9345 41.6972" stroke="#FFA700" stroke-width="2.3075" stroke-linecap="round"/>
<path d="M27.1813 46.0286L25.1 46.4248C24.2654 46.5836 23.7176 47.389 23.8765 48.2236L24.5093 51.5483" stroke="#FFA700" stroke-width="2.3075" stroke-linecap="round"/>
<path d="M27.684 74.7463L28.0867 76.862C28.2456 77.6966 29.051 78.2444 29.8856 78.0856L33.1643 77.4615" stroke="#FFA700" stroke-width="2.3075" stroke-linecap="round"/>
<path d="M43.2209 54.4101L42.2285 49.1966C42.1627 48.8509 42.2489 48.4909 42.468 48.1959C42.6871 47.901 43.0215 47.695 43.3972 47.6235L49.0642 46.5448C49.4399 46.4733 49.8265 46.542 50.1387 46.7358C50.4508 46.9296 50.6632 47.2329 50.729 47.5785L51.7214 52.792C51.7872 53.1376 51.701 53.4977 51.4819 53.7927C51.2628 54.0876 50.9284 54.2936 50.5527 54.3651L44.8857 55.4438C44.51 55.5153 44.1234 55.4466 43.8112 55.2528C43.4991 55.0589 43.2867 54.7557 43.2209 54.4101ZM45.8063 52.5673L48.6398 52.028L48.1436 49.4212L45.3101 49.9606L45.8063 52.5673ZM36.3852 57.0618L30.7182 58.1405C30.3425 58.212 29.9558 58.1433 29.6437 57.9495C29.3315 57.7557 29.1191 57.4524 29.0534 57.1068L28.061 51.8933C27.9952 51.5477 28.0813 51.1876 28.3005 50.8926C28.5196 50.5977 28.854 50.3917 29.2296 50.3202L34.8967 49.2415C35.2724 49.17 35.659 49.2387 35.9712 49.4326C36.2833 49.6264 36.4957 49.9296 36.5615 50.2752L37.5539 55.4887C37.6197 55.8344 37.5335 56.1944 37.3144 56.4894C37.0953 56.7843 36.7609 56.9903 36.3852 57.0618ZM33.9761 52.118L31.1426 52.6573L31.6388 55.2641L34.4723 54.7247L33.9761 52.118ZM39.5386 65.9157L40.531 71.1292C40.5967 71.4749 40.5106 71.8349 40.2915 72.1299C40.0724 72.4248 39.738 72.6308 39.3623 72.7023L33.6953 73.781C33.3196 73.8525 32.9329 73.7838 32.6208 73.59C32.3086 73.3961 32.0962 73.0929 32.0304 72.7473L31.0381 67.5338C30.9723 67.1881 31.0584 66.8281 31.2775 66.5331C31.4967 66.2382 31.831 66.0322 32.2067 65.9607L37.8738 64.882C38.2494 64.8105 38.6361 64.8792 38.9483 65.073C39.2604 65.2669 39.4728 65.5701 39.5386 65.9157ZM36.9532 67.7585L34.1197 68.2978L34.6159 70.9045L37.4494 70.3652L36.9532 67.7585ZM48.2872 65.6011L48.0391 64.2977L49.4559 64.028C49.9622 63.9317 50.3826 63.5942 50.5588 63.1428C50.735 62.6914 50.6405 62.1945 50.3107 61.8394C49.981 61.4843 49.466 61.3249 48.9597 61.4213L46.1262 61.9606C45.7505 62.0321 45.4161 62.2381 45.197 62.533C44.9779 62.828 44.8917 63.188 44.9575 63.5337L45.4537 66.1404C45.5424 66.6062 45.8943 66.9851 46.3769 67.1344C46.8595 67.2837 47.3997 67.1809 47.7937 66.8647C48.1877 66.5485 48.3759 66.0668 48.2872 65.6011ZM31.2144 60.7472C30.7081 60.8436 30.2877 61.1811 30.1114 61.6325C29.9352 62.0839 30.0298 62.5808 30.3595 62.9358C30.6893 63.2909 31.2043 63.4503 31.7106 63.354L34.5441 62.8146C35.0504 62.7183 35.4708 62.3808 35.647 61.9294C35.8232 61.478 35.7287 60.9811 35.3989 60.626C35.0692 60.2709 34.5542 60.1115 34.0479 60.2079L31.2144 60.7472ZM44.4613 60.9269C44.9676 60.8306 45.388 60.4931 45.5643 60.0417C45.7405 59.5903 45.6459 59.0934 45.3162 58.7383C44.9864 58.3832 44.4714 58.2238 43.9652 58.3202L42.5484 58.5898L41.8041 54.6797C41.7155 54.2139 41.3635 53.8351 40.8809 53.6858C40.3983 53.5365 39.8581 53.6393 39.4641 53.9554C39.0701 54.2716 38.882 54.7533 38.9706 55.2191L39.7149 59.1292L38.2981 59.3989C37.7918 59.4952 37.3714 59.8327 37.1952 60.2841C37.019 60.7355 37.1135 61.2324 37.4433 61.5875C37.773 61.9425 38.288 62.102 38.7943 62.0056L44.4613 60.9269ZM51.0489 56.9718L49.6322 57.2415C49.1259 57.3379 48.7055 57.6753 48.5292 58.1267C48.353 58.5781 48.4476 59.075 48.7773 59.4301C49.1071 59.7852 49.6221 59.9446 50.1283 59.8482L51.5451 59.5786C52.0514 59.4822 52.4718 59.1447 52.648 58.6933C52.8243 58.2419 52.7297 57.745 52.3999 57.39C52.0702 57.0349 51.5552 56.8754 51.0489 56.9718ZM39.8912 52.3427C40.2669 52.2711 40.6013 52.0652 40.8204 51.7703C41.0395 51.4753 41.1256 51.1152 41.0599 50.7696L40.8118 49.4662C40.7231 49.0004 40.3711 48.6216 39.8885 48.4723C39.4059 48.323 38.8658 48.4258 38.4718 48.7419C38.0778 49.0581 37.8896 49.5398 37.9783 50.0056L38.2263 51.3089C38.2921 51.6546 38.5045 51.9578 38.8167 52.1516C39.1288 52.3455 39.5155 52.4142 39.8912 52.3427ZM41.8759 62.7696C41.5002 62.8412 41.1658 63.0471 40.9467 63.342C40.7276 63.637 40.6415 63.9971 40.7073 64.3427L41.9477 70.8596C42.0364 71.3253 42.3883 71.7042 42.8709 71.8535C43.3536 72.0028 43.8937 71.9 44.2877 71.5838C44.6817 71.2677 44.8699 70.786 44.7812 70.3202L43.5408 63.8033C43.475 63.4577 43.2626 63.1545 42.9504 62.9606C42.6383 62.7668 42.2516 62.6981 41.8759 62.7696ZM49.2796 70.8146L53.5298 70.0056C53.9055 69.934 54.2399 69.7281 54.459 69.4332C54.6781 69.1382 54.7643 68.7781 54.6985 68.4325L53.9542 64.5224C53.8656 64.0566 53.5136 63.6777 53.031 63.5284C52.5484 63.3791 52.0082 63.4819 51.6142 63.7981C51.2202 64.1143 51.0321 64.596 51.1207 65.0617L51.6169 67.6685L48.7834 68.2078C48.2771 68.3042 47.8567 68.6417 47.6804 69.0931C47.5042 69.5445 47.5988 70.0414 47.9285 70.3964C48.2583 70.7515 48.7733 70.9109 49.2796 70.8146Z" fill="#FFA700"/>
<rect x="81.4087" y="20.2333" width="57.1036" height="106.914" rx="3.46126" transform="rotate(11.1349 81.4087 20.2333)" fill="white" stroke="white" stroke-width="3.84584"/>
<path d="M108.518 95.4149L110.597 95.824C111.431 95.9881 112.239 95.4453 112.403 94.6117L113.057 91.2911" stroke="#FFBD41" stroke-width="2.3075" stroke-linecap="round"/>
<path d="M118.191 69.1919L118.844 65.8713C119.008 65.0377 118.466 64.2289 117.632 64.0648L114.357 63.4202" stroke="#FFBD41" stroke-width="2.3075" stroke-linecap="round"/>
<path d="M91.6304 58.9475L89.5516 58.5384C88.718 58.3743 87.9093 58.917 87.7452 59.7507L87.0916 63.0713" stroke="#FFBD41" stroke-width="2.3075" stroke-linecap="round"/>
<path d="M81.38 85.7783L80.964 87.8914C80.8 88.7251 81.3427 89.5338 82.1763 89.6979L85.4511 90.3425" stroke="#FFBD41" stroke-width="2.3075" stroke-linecap="round"/>
<path d="M103.385 72.7098L104.41 67.5026C104.478 67.1574 104.692 66.8555 105.005 66.6636C105.319 66.4717 105.706 66.4055 106.081 66.4793L111.741 67.5934C112.116 67.6672 112.45 67.8753 112.667 68.1716C112.884 68.4679 112.968 68.8285 112.9 69.1737L111.875 74.3809C111.807 74.7261 111.593 75.028 111.28 75.2199C110.966 75.4117 110.579 75.478 110.204 75.4042L104.544 74.2901C104.168 74.2163 103.835 74.0082 103.618 73.7119C103.401 73.4156 103.317 73.055 103.385 72.7098ZM106.471 71.965L109.301 72.5221L109.814 69.9185L106.984 69.3614L106.471 71.965ZM96.0534 72.619L90.3933 71.505C90.018 71.4311 89.685 71.2231 89.4677 70.9268C89.2504 70.6305 89.1665 70.2699 89.2345 69.9246L90.2594 64.7174C90.3273 64.3722 90.5416 64.0703 90.855 63.8785C91.1683 63.6866 91.5554 63.6203 91.9306 63.6942L97.5908 64.8082C97.966 64.8821 98.2991 65.0901 98.5164 65.3864C98.7337 65.6827 98.8176 66.0433 98.7496 66.3885L97.7247 71.5957C97.6568 71.9409 97.4425 72.2429 97.1291 72.4347C96.8158 72.6266 96.4287 72.6929 96.0534 72.619ZM95.6633 67.1333L92.8332 66.5763L92.3208 69.1799L95.1509 69.7369L95.6633 67.1333ZM95.6749 82.0101L94.65 87.2173C94.5821 87.5625 94.3678 87.8645 94.0544 88.0563C93.741 88.2482 93.354 88.3145 92.9787 88.2406L87.3186 87.1265C86.9433 87.0527 86.6102 86.8447 86.393 86.5484C86.1757 86.2521 86.0918 85.8914 86.1598 85.5462L87.1847 80.339C87.2526 79.9938 87.4669 79.6919 87.7802 79.5C88.0936 79.3082 88.4807 79.2419 88.8559 79.3158L94.5161 80.4298C94.8913 80.5037 95.2244 80.7117 95.4417 81.008C95.659 81.3043 95.7428 81.6649 95.6749 82.0101ZM92.5886 82.7549L89.7585 82.1979L89.2461 84.8015L92.0761 85.3585L92.5886 82.7549ZM103.909 84.983L104.165 83.6812L105.58 83.9597C106.086 84.0593 106.602 83.9031 106.934 83.55C107.266 83.197 107.363 82.7007 107.19 82.2482C107.017 81.7958 106.598 81.4557 106.093 81.3561L103.263 80.7991C102.887 80.7252 102.5 80.7915 102.187 80.9834C101.874 81.1753 101.659 81.4772 101.591 81.8224L101.079 84.426C100.987 84.8912 101.172 85.374 101.564 85.6927C101.956 86.0113 102.496 86.1175 102.979 85.9712C103.463 85.8249 103.817 85.4482 103.909 84.983ZM89.8808 74.1086C89.3751 74.009 88.8592 74.1652 88.5272 74.5182C88.1953 74.8713 88.0976 75.3676 88.271 75.82C88.4444 76.2725 88.8627 76.6126 89.3684 76.7122L92.1985 77.2692C92.7041 77.3687 93.2201 77.2125 93.5521 76.8595C93.884 76.5065 93.9817 76.0102 93.8083 75.5577C93.6349 75.1052 93.2166 74.7651 92.7109 74.6656L89.8808 74.1086ZM102.104 79.2188C102.609 79.3183 103.125 79.1621 103.457 78.8091C103.789 78.4561 103.887 77.9598 103.714 77.5073C103.54 77.0548 103.122 76.7147 102.616 76.6152L101.201 76.3367L101.97 72.4313C102.061 71.9661 101.876 71.4832 101.484 71.1646C101.092 70.846 100.553 70.7398 100.069 70.8861C99.5856 71.0324 99.2313 71.409 99.1398 71.8742L98.3711 75.7796L96.956 75.5011C96.4503 75.4016 95.9344 75.5578 95.6024 75.9108C95.2705 76.2638 95.1728 76.7601 95.3462 77.2126C95.5196 77.6651 95.9379 78.0052 96.4436 78.1047L102.104 79.2188ZM109.691 78.0078L108.276 77.7292C107.771 77.6297 107.255 77.7859 106.923 78.1389C106.591 78.492 106.493 78.9883 106.667 79.4407C106.84 79.8932 107.258 80.2333 107.764 80.3328L109.179 80.6114C109.685 80.7109 110.201 80.5547 110.533 80.2017C110.865 79.8487 110.962 79.3523 110.789 78.8999C110.615 78.4474 110.197 78.1073 109.691 78.0078ZM101.067 69.5492C101.442 69.623 101.83 69.5567 102.143 69.3649C102.456 69.173 102.671 68.8711 102.739 68.5259L102.995 67.2241C103.086 66.7589 102.901 66.276 102.509 65.9574C102.117 65.6388 101.578 65.5326 101.094 65.6789C100.611 65.8252 100.256 66.2018 100.165 66.6671L99.9084 67.9689C99.8405 68.3141 99.9244 68.6747 100.142 68.971C100.359 69.2673 100.692 69.4753 101.067 69.5492ZM99.0174 79.9636C98.6422 79.8897 98.2551 79.956 97.9418 80.1478C97.6284 80.3397 97.4141 80.6416 97.3462 80.9868L96.065 87.4958C95.9735 87.9611 96.1586 88.4439 96.5507 88.7625C96.9427 89.0812 97.4822 89.1873 97.9657 89.041C98.4492 88.8947 98.8036 88.5181 98.8951 88.0529L100.176 81.5439C100.244 81.1987 100.16 80.8381 99.943 80.5417C99.7258 80.2454 99.3927 80.0374 99.0174 79.9636ZM102.884 90.1902L107.129 91.0258C107.504 91.0996 107.891 91.0333 108.205 90.8415C108.518 90.6496 108.732 90.3477 108.8 90.0025L109.569 86.0971C109.661 85.6319 109.475 85.149 109.083 84.8304C108.691 84.5118 108.152 84.4056 107.668 84.5519C107.185 84.6982 106.831 85.0748 106.739 85.54L106.227 88.1436L103.396 87.5866C102.891 87.4871 102.375 87.6433 102.043 87.9963C101.711 88.3493 101.613 88.8456 101.787 89.2981C101.96 89.7506 102.378 90.0907 102.884 90.1902Z" fill="#FFBD41"/>
<rect x="81.0674" y="20.5424" width="57.1036" height="106.914" rx="3.46126" transform="rotate(11.1319 81.0674 20.5424)" fill="white" stroke="#B0B9C1" stroke-width="3.84584"/>
<circle cx="85.3672" cy="77.1083" r="8.93005" transform="rotate(4.1942 85.3672 77.1083)" stroke="#EB0F29" stroke-width="1.37641"/>
<line x1="88.8372" y1="74.4924" x2="82.4035" y2="80.0949" stroke="#EB0F29" stroke-width="1.23877" stroke-linecap="round"/>
<line x1="88.3573" y1="80.4303" x2="82.7547" y2="73.9965" stroke="#EB0F29" stroke-width="1.23877" stroke-linecap="round"/>
<rect x="103.275" y="69.8203" width="19.9984" height="19.9984" rx="9.99918" transform="rotate(11.1319 103.275 69.8203)" fill="#008751"/>
<path d="M107.698 81.613C107.574 81.4317 107.622 81.1853 107.806 81.0628C107.989 80.9415 108.237 80.9903 108.361 81.172L109.641 83.0627L114.347 79.9304C114.53 79.8088 114.778 79.8576 114.902 80.0395C115.025 80.222 114.977 80.4681 114.793 80.5897L109.756 83.943C109.572 84.066 109.337 84.0155 109.201 83.8337L107.698 81.613Z" fill="white"/>
<path d="M130.481 35.6891L86.0098 26.9411C85.5849 26.8576 85.177 27.1117 85.0989 27.5088L82.6421 39.9906C82.5639 40.3877 82.845 40.7774 83.27 40.8609L127.741 49.6089C128.166 49.6925 128.574 49.4384 128.652 49.0413L131.109 36.5595C131.187 36.1624 130.906 35.7727 130.481 35.6891Z" fill="#F0F3F5"/>
<path d="M107.725 86.7659L110.668 94.8402L118.548 101.068L111.031 114.982L101.92 113.917L95.42 100.35L97.0782 98.4965L100.238 100.245L107.725 86.7659Z" fill="white"/>
<path fill-rule="evenodd" clip-rule="evenodd" d="M116.311 97.3817C116.729 97.3633 117.155 97.4072 117.572 97.543C119.398 98.1385 120.326 100.077 119.646 101.873L117.184 108.377C114.465 115.561 110.384 118.581 103.081 116.199L103.043 116.187C99.5696 115.054 98.7049 113.262 97.1641 110.07L97.1334 110.006L93.4314 102.448C92.4588 100.418 93.3939 97.9476 95.5208 96.9285C96.5842 96.4189 97.7441 96.3689 98.7583 96.6997C99.3544 96.8941 99.6948 97.3064 99.9647 97.6334C100.09 97.7852 100.2 97.9185 100.313 98.0032L104.088 88.0315C104.768 86.2351 106.799 85.2621 108.625 85.8576C110.451 86.4531 111.38 88.3911 110.7 90.1875L109.937 92.2037C110.167 92.2306 110.396 92.2805 110.623 92.3543C111.801 92.7385 112.596 93.6832 112.836 94.7873C113.255 94.7689 113.681 94.8128 114.097 94.9487C115.275 95.3329 116.07 96.2775 116.311 97.3817ZM103.976 113.569C108.609 115.309 112.47 113.436 114.081 108.727L117.002 101.011C117.138 100.652 116.952 100.264 116.587 100.145C116.222 100.026 115.815 100.22 115.679 100.579L113.956 105.132C113.684 105.85 112.871 106.24 112.141 106.002C111.411 105.764 111.039 104.988 111.311 104.27L113.527 98.4162C113.663 98.0572 113.477 97.6692 113.112 97.5502C112.747 97.4312 112.341 97.626 112.205 97.985L110.481 102.538C110.21 103.256 109.397 103.645 108.667 103.407C107.937 103.169 107.565 102.393 107.837 101.675L110.053 95.8218C110.189 95.4628 110.003 95.0748 109.638 94.9558C109.273 94.8368 108.866 95.0316 108.73 95.3906L107.007 99.9433C106.735 100.661 105.922 101.051 105.192 100.813C104.462 100.575 104.09 99.7989 104.362 99.0809L108.055 89.3251C108.191 88.9661 108.005 88.5781 107.64 88.4591C107.275 88.3401 106.869 88.5349 106.733 88.8939L101.996 101.406C101.699 102.19 100.851 102.497 100.171 102.275C99.8461 102.169 99.5603 101.943 99.391 101.59L98.9487 100.666L98.9468 100.667L98.9447 100.665C98.7331 100.224 97.9784 99.368 97.7734 99.3012C97.5685 99.2344 97.157 99.1557 96.6956 99.3779C96.2315 99.5992 96.0345 99.9705 95.9587 100.171C95.8823 100.372 95.7863 100.775 95.998 101.217L99.6235 108.706C99.7692 109.012 99.902 109.301 100.027 109.573C100.97 111.623 101.492 112.759 103.976 113.569Z" fill="#FFA700"/>
<path d="M102.577 66.4889C104.086 67.1532 104.401 68.5966 104.558 68.825" stroke="#FFA700" stroke-width="1.85099" stroke-linecap="round"/>
<path d="M110.558 64.3147C110.755 65.2028 110.951 66.169 111.028 67.0722" stroke="#FFA700" stroke-width="1.85099" stroke-linecap="round"/>
<path d="M117.564 64.9224C116.808 65.4465 116.259 66.1641 115.972 66.8681" stroke="#FFA700" stroke-width="1.85099" stroke-linecap="round"/>
</svg>
