<svg viewBox="0 0 160 104" version="1.1" xmlns="http://www.w3.org/2000/svg" xmlns:xlink="http://www.w3.org/1999/xlink" id="el_I_LfFFkaS"><style>@-webkit-keyframes kf_el_KOmykVZZFwq_an_gIpBz74AC{63.33%{opacity: 0;}71.67%{opacity: 1;}0%{opacity: 0;}100%{opacity: 1;}}@keyframes kf_el_KOmykVZZFwq_an_gIpBz74AC{63.33%{opacity: 0;}71.67%{opacity: 1;}0%{opacity: 0;}100%{opacity: 1;}}@-webkit-keyframes kf_el_PhpVs7bkuU2_an_CLNikhwyW{48.33%{opacity: 0;}71.67%{opacity: 1;}0%{opacity: 0;}100%{opacity: 1;}}@keyframes kf_el_PhpVs7bkuU2_an_CLNikhwyW{48.33%{opacity: 0;}71.67%{opacity: 1;}0%{opacity: 0;}100%{opacity: 1;}}@-webkit-keyframes kf_el_DRwa9cCJRit_an_UQ1EQh-Na{45%{opacity: 0;}75%{opacity: 1;}0%{opacity: 0;}100%{opacity: 1;}}@keyframes kf_el_DRwa9cCJRit_an_UQ1EQh-Na{45%{opacity: 0;}75%{opacity: 1;}0%{opacity: 0;}100%{opacity: 1;}}@-webkit-keyframes kf_el_jB6CUER0ui0_an_uNtETyA1J{41.67%{opacity: 0;}81.67%{opacity: 1;}0%{opacity: 0;}100%{opacity: 1;}}@keyframes kf_el_jB6CUER0ui0_an_uNtETyA1J{41.67%{opacity: 0;}81.67%{opacity: 1;}0%{opacity: 0;}100%{opacity: 1;}}@-webkit-keyframes kf_el_YMZ8ielv-bq_an_Xv6lvUtGy{40%{opacity: 0;}71.67%{opacity: 1;}0%{opacity: 0;}100%{opacity: 1;}}@keyframes kf_el_YMZ8ielv-bq_an_Xv6lvUtGy{40%{opacity: 0;}71.67%{opacity: 1;}0%{opacity: 0;}100%{opacity: 1;}}@-webkit-keyframes kf_el_7JuMdVCFV3B_an_tL0M2lwXW{86.67%{opacity: 0;}95%{opacity: 1;}0%{opacity: 0;}100%{opacity: 1;}}@keyframes kf_el_7JuMdVCFV3B_an_tL0M2lwXW{86.67%{opacity: 0;}95%{opacity: 1;}0%{opacity: 0;}100%{opacity: 1;}}@-webkit-keyframes kf_el_CwyDwGitZZk_an_nG4kAB1B5{88.33%{opacity: 0;}91.67%{opacity: 1;}0%{opacity: 0;}100%{opacity: 1;}}@keyframes kf_el_CwyDwGitZZk_an_nG4kAB1B5{88.33%{opacity: 0;}91.67%{opacity: 1;}0%{opacity: 0;}100%{opacity: 1;}}@-webkit-keyframes kf_el_JmtkvFvPiSO_an_oO8lbHjdt{60%{opacity: 0;}65%{opacity: 1;}0%{opacity: 0;}100%{opacity: 1;}}@keyframes kf_el_JmtkvFvPiSO_an_oO8lbHjdt{60%{opacity: 0;}65%{opacity: 1;}0%{opacity: 0;}100%{opacity: 1;}}@-webkit-keyframes kf_el_LeK8ep9_lrz_an_ezT_AC__6{51.67%{opacity: 0;}0%{opacity: 0;}100%{opacity: 0;}}@keyframes kf_el_LeK8ep9_lrz_an_ezT_AC__6{51.67%{opacity: 0;}0%{opacity: 0;}100%{opacity: 0;}}@-webkit-keyframes kf_el_kSGPdfYxCNY_an_-YmdOtXXA{81.67%{opacity: 0;}85%{opacity: 1;}0%{opacity: 0;}100%{opacity: 1;}}@keyframes kf_el_kSGPdfYxCNY_an_-YmdOtXXA{81.67%{opacity: 0;}85%{opacity: 1;}0%{opacity: 0;}100%{opacity: 1;}}@-webkit-keyframes kf_el_Z5DvPHhn7W6_an_eHbhyzEXi{78.33%{opacity: 0;}85%{opacity: 1;}0%{opacity: 0;}100%{opacity: 1;}}@keyframes kf_el_Z5DvPHhn7W6_an_eHbhyzEXi{78.33%{opacity: 0;}85%{opacity: 1;}0%{opacity: 0;}100%{opacity: 1;}}@-webkit-keyframes kf_el_CMUnx3FjPKb_an_rbixQC4FL{86.67%{opacity: 0;}91.67%{opacity: 1;}0%{opacity: 0;}100%{opacity: 1;}}@keyframes kf_el_CMUnx3FjPKb_an_rbixQC4FL{86.67%{opacity: 0;}91.67%{opacity: 1;}0%{opacity: 0;}100%{opacity: 1;}}@-webkit-keyframes kf_el_b3RIndJ6wbL_an_fq7HcC6Jq{65%{opacity: 0;}73.33%{opacity: 1;}0%{opacity: 0;}100%{opacity: 1;}}@keyframes kf_el_b3RIndJ6wbL_an_fq7HcC6Jq{65%{opacity: 0;}73.33%{opacity: 1;}0%{opacity: 0;}100%{opacity: 1;}}@-webkit-keyframes kf_el_I5v_RH3tzj7_an_eXAgpCPox{70%{opacity: 0;}85%{opacity: 1;}0%{opacity: 0;}100%{opacity: 1;}}@keyframes kf_el_I5v_RH3tzj7_an_eXAgpCPox{70%{opacity: 0;}85%{opacity: 1;}0%{opacity: 0;}100%{opacity: 1;}}@-webkit-keyframes kf_el_MENIXFiDwBE_an_kpM5AgL-p{28.33%{-webkit-transform: translate(64.6581916809082px, 55.69568157196045px) scale(0.8, 0.8) translate(-64.6581916809082px, -55.69568157196045px);transform: translate(64.6581916809082px, 55.69568157196045px) scale(0.8, 0.8) translate(-64.6581916809082px, -55.69568157196045px);}75%{-webkit-transform: translate(64.6581916809082px, 55.69568157196045px) scale(1, 1) translate(-64.6581916809082px, -55.69568157196045px);transform: translate(64.6581916809082px, 55.69568157196045px) scale(1, 1) translate(-64.6581916809082px, -55.69568157196045px);}0%{-webkit-transform: translate(64.6581916809082px, 55.69568157196045px) scale(0.8, 0.8) translate(-64.6581916809082px, -55.69568157196045px);transform: translate(64.6581916809082px, 55.69568157196045px) scale(0.8, 0.8) translate(-64.6581916809082px, -55.69568157196045px);}100%{-webkit-transform: translate(64.6581916809082px, 55.69568157196045px) scale(1, 1) translate(-64.6581916809082px, -55.69568157196045px);transform: translate(64.6581916809082px, 55.69568157196045px) scale(1, 1) translate(-64.6581916809082px, -55.69568157196045px);}}@keyframes kf_el_MENIXFiDwBE_an_kpM5AgL-p{28.33%{-webkit-transform: translate(64.6581916809082px, 55.69568157196045px) scale(0.8, 0.8) translate(-64.6581916809082px, -55.69568157196045px);transform: translate(64.6581916809082px, 55.69568157196045px) scale(0.8, 0.8) translate(-64.6581916809082px, -55.69568157196045px);}75%{-webkit-transform: translate(64.6581916809082px, 55.69568157196045px) scale(1, 1) translate(-64.6581916809082px, -55.69568157196045px);transform: translate(64.6581916809082px, 55.69568157196045px) scale(1, 1) translate(-64.6581916809082px, -55.69568157196045px);}0%{-webkit-transform: translate(64.6581916809082px, 55.69568157196045px) scale(0.8, 0.8) translate(-64.6581916809082px, -55.69568157196045px);transform: translate(64.6581916809082px, 55.69568157196045px) scale(0.8, 0.8) translate(-64.6581916809082px, -55.69568157196045px);}100%{-webkit-transform: translate(64.6581916809082px, 55.69568157196045px) scale(1, 1) translate(-64.6581916809082px, -55.69568157196045px);transform: translate(64.6581916809082px, 55.69568157196045px) scale(1, 1) translate(-64.6581916809082px, -55.69568157196045px);}}@-webkit-keyframes kf_el_MENIXFiDwBE_an_5B8v1OBcw{28.33%{opacity: 0;}75%{opacity: 1;}0%{opacity: 0;}100%{opacity: 1;}}@keyframes kf_el_MENIXFiDwBE_an_5B8v1OBcw{28.33%{opacity: 0;}75%{opacity: 1;}0%{opacity: 0;}100%{opacity: 1;}}@-webkit-keyframes kf_el_DzY9ki77Fz_an_0bN1TzqQ8{28.33%{-webkit-transform: translate(96.6581916809082px, 55.69568157196045px) scale(0.8, 0.8) translate(-96.6581916809082px, -55.69568157196045px);transform: translate(96.6581916809082px, 55.69568157196045px) scale(0.8, 0.8) translate(-96.6581916809082px, -55.69568157196045px);}75%{-webkit-transform: translate(96.6581916809082px, 55.69568157196045px) scale(1, 1) translate(-96.6581916809082px, -55.69568157196045px);transform: translate(96.6581916809082px, 55.69568157196045px) scale(1, 1) translate(-96.6581916809082px, -55.69568157196045px);}0%{-webkit-transform: translate(96.6581916809082px, 55.69568157196045px) scale(0.8, 0.8) translate(-96.6581916809082px, -55.69568157196045px);transform: translate(96.6581916809082px, 55.69568157196045px) scale(0.8, 0.8) translate(-96.6581916809082px, -55.69568157196045px);}100%{-webkit-transform: translate(96.6581916809082px, 55.69568157196045px) scale(1, 1) translate(-96.6581916809082px, -55.69568157196045px);transform: translate(96.6581916809082px, 55.69568157196045px) scale(1, 1) translate(-96.6581916809082px, -55.69568157196045px);}}@keyframes kf_el_DzY9ki77Fz_an_0bN1TzqQ8{28.33%{-webkit-transform: translate(96.6581916809082px, 55.69568157196045px) scale(0.8, 0.8) translate(-96.6581916809082px, -55.69568157196045px);transform: translate(96.6581916809082px, 55.69568157196045px) scale(0.8, 0.8) translate(-96.6581916809082px, -55.69568157196045px);}75%{-webkit-transform: translate(96.6581916809082px, 55.69568157196045px) scale(1, 1) translate(-96.6581916809082px, -55.69568157196045px);transform: translate(96.6581916809082px, 55.69568157196045px) scale(1, 1) translate(-96.6581916809082px, -55.69568157196045px);}0%{-webkit-transform: translate(96.6581916809082px, 55.69568157196045px) scale(0.8, 0.8) translate(-96.6581916809082px, -55.69568157196045px);transform: translate(96.6581916809082px, 55.69568157196045px) scale(0.8, 0.8) translate(-96.6581916809082px, -55.69568157196045px);}100%{-webkit-transform: translate(96.6581916809082px, 55.69568157196045px) scale(1, 1) translate(-96.6581916809082px, -55.69568157196045px);transform: translate(96.6581916809082px, 55.69568157196045px) scale(1, 1) translate(-96.6581916809082px, -55.69568157196045px);}}@-webkit-keyframes kf_el_DzY9ki77Fz_an_uJblMpvHH{28.33%{opacity: 0;}75%{opacity: 1;}0%{opacity: 0;}100%{opacity: 1;}}@keyframes kf_el_DzY9ki77Fz_an_uJblMpvHH{28.33%{opacity: 0;}75%{opacity: 1;}0%{opacity: 0;}100%{opacity: 1;}}#el_I_LfFFkaS *{-webkit-animation-duration: 2s;animation-duration: 2s;-webkit-animation-iteration-count: 1;animation-iteration-count: 1;-webkit-animation-timing-function: cubic-bezier(0, 0, 1, 1);animation-timing-function: cubic-bezier(0, 0, 1, 1);}#el_uaWoF0EVQU{stroke: none;stroke-width: 1;fill: none;}#el_9lA66rQTxo{fill: #FFFFFF;}#el_Fq7hca9AGG{-webkit-transform: translate(49px, 1px);transform: translate(49px, 1px);}#el_e3Aj6suVeb{fill: black;fill-opacity: 1;}#el_QKCrZSXMmO{fill: #E0E4E9;}#el_sT-X--JIfC{fill: #FFFFFF;}#el_azaJIQYgwJ{fill: #F1F1F5;}#el_GiZIZGambk{fill: #FFFFFF;opacity: 0.747551306;}#el_hfMjVigyG5{-webkit-transform: translate(74px, 19px);transform: translate(74px, 19px);fill: url(#linearGradient-5);}#el_DzY9ki77Fz{-webkit-transform: translate(85.914062px, 45.126214px);transform: translate(85.914062px, 45.126214px);-webkit-animation-fill-mode: forwards;animation-fill-mode: forwards;-webkit-animation-name: kf_el_DzY9ki77Fz_an_uJblMpvHH;animation-name: kf_el_DzY9ki77Fz_an_uJblMpvHH;-webkit-animation-timing-function: cubic-bezier(0.42, 0, 1, 1);animation-timing-function: cubic-bezier(0.42, 0, 1, 1);}#el_mjymolajgT{fill: #E0E4E9;stroke: #FFFFFF;stroke-width: 2;}#el_FUR-PDEPWpE{-webkit-transform: translate(6.015625px, 7.190939px);transform: translate(6.015625px, 7.190939px);fill: url(#linearGradient-6);stroke: url(#linearGradient-6);stroke-width: 1.18181818;}#el_MENIXFiDwBE{-webkit-transform: translate(54.11875px, 45.126214px);transform: translate(54.11875px, 45.126214px);-webkit-animation-fill-mode: forwards;animation-fill-mode: forwards;-webkit-animation-name: kf_el_MENIXFiDwBE_an_5B8v1OBcw;animation-name: kf_el_MENIXFiDwBE_an_5B8v1OBcw;-webkit-animation-timing-function: cubic-bezier(0.42, 0, 1, 1);animation-timing-function: cubic-bezier(0.42, 0, 1, 1);}#el_j0RuqqGDYQ9{fill: #E0E4E9;stroke: #FFFFFF;stroke-width: 2;}#el_j2JkqaFay_T{stroke: url(#linearGradient-6);stroke-width: 1.18181818;fill: url(#linearGradient-6);}#el_I5v_RH3tzj7{stroke: #DFE2E8;stroke-width: 1.3254902;-webkit-animation-fill-mode: forwards;animation-fill-mode: forwards;-webkit-animation-name: kf_el_I5v_RH3tzj7_an_eXAgpCPox;animation-name: kf_el_I5v_RH3tzj7_an_eXAgpCPox;-webkit-animation-timing-function: cubic-bezier(0.42, 0, 1, 1);animation-timing-function: cubic-bezier(0.42, 0, 1, 1);}#el_PhpVs7bkuU2{fill: #DFE2E8;-webkit-transform: translate(70.83870161157287px, -2.8296901716072256px) rotate(-315deg);transform: translate(70.83870161157287px, -2.8296901716072256px) rotate(-315deg);-webkit-animation-fill-mode: forwards;animation-fill-mode: forwards;-webkit-animation-name: kf_el_PhpVs7bkuU2_an_CLNikhwyW;animation-name: kf_el_PhpVs7bkuU2_an_CLNikhwyW;-webkit-animation-timing-function: cubic-bezier(0.42, 0, 1, 1);animation-timing-function: cubic-bezier(0.42, 0, 1, 1);}#el_b3RIndJ6wbL{fill: #DFE2E8;-webkit-transform: translate(69.71988283018149px, 14.003477304546195px) rotate(-315deg);transform: translate(69.71988283018149px, 14.003477304546195px) rotate(-315deg);-webkit-animation-fill-mode: forwards;animation-fill-mode: forwards;-webkit-animation-name: kf_el_b3RIndJ6wbL_an_fq7HcC6Jq;animation-name: kf_el_b3RIndJ6wbL_an_fq7HcC6Jq;-webkit-animation-timing-function: cubic-bezier(0.42, 0, 1, 1);animation-timing-function: cubic-bezier(0.42, 0, 1, 1);}#el_CMUnx3FjPKb{fill: #DDE0E6;-webkit-animation-fill-mode: forwards;animation-fill-mode: forwards;-webkit-animation-name: kf_el_CMUnx3FjPKb_an_rbixQC4FL;animation-name: kf_el_CMUnx3FjPKb_an_rbixQC4FL;-webkit-animation-timing-function: cubic-bezier(0.42, 0, 1, 1);animation-timing-function: cubic-bezier(0.42, 0, 1, 1);}#el_Z5DvPHhn7W6{fill: #DFE2E8;-webkit-transform: translate(49.66925795464269px, 16.619101234671703px) scale(-1, 1) rotate(-37deg);transform: translate(49.66925795464269px, 16.619101234671703px) scale(-1, 1) rotate(-37deg);-webkit-animation-fill-mode: forwards;animation-fill-mode: forwards;-webkit-animation-name: kf_el_Z5DvPHhn7W6_an_eHbhyzEXi;animation-name: kf_el_Z5DvPHhn7W6_an_eHbhyzEXi;-webkit-animation-timing-function: cubic-bezier(0.42, 0, 1, 1);animation-timing-function: cubic-bezier(0.42, 0, 1, 1);}#el_KOmykVZZFwq{fill: #DFE2E8;-webkit-transform: translate(274.4162755147928px, 91.81840138195736px) scale(-1, 1) rotate(-37deg);transform: translate(274.4162755147928px, 91.81840138195736px) scale(-1, 1) rotate(-37deg);-webkit-animation-fill-mode: forwards;animation-fill-mode: forwards;-webkit-animation-name: kf_el_KOmykVZZFwq_an_gIpBz74AC;animation-name: kf_el_KOmykVZZFwq_an_gIpBz74AC;-webkit-animation-timing-function: cubic-bezier(0.42, 0, 1, 1);animation-timing-function: cubic-bezier(0.42, 0, 1, 1);}#el_kSGPdfYxCNY{fill: #DFE2E8;-webkit-transform: translate(100.94997217101758px, -75.29813793771237px) rotate(-315deg);transform: translate(100.94997217101758px, -75.29813793771237px) rotate(-315deg);-webkit-animation-fill-mode: forwards;animation-fill-mode: forwards;-webkit-animation-name: kf_el_kSGPdfYxCNY_an_-YmdOtXXA;animation-name: kf_el_kSGPdfYxCNY_an_-YmdOtXXA;-webkit-animation-timing-function: cubic-bezier(0.42, 0, 1, 1);animation-timing-function: cubic-bezier(0.42, 0, 1, 1);}#el_LeK8ep9_lrz{fill: #DFE2E8;-webkit-transform: translate(104.54030448085801px, -59.307902893288954px) rotate(-315deg);transform: translate(104.54030448085801px, -59.307902893288954px) rotate(-315deg);-webkit-animation-fill-mode: forwards;animation-fill-mode: forwards;-webkit-animation-name: kf_el_LeK8ep9_lrz_an_ezT_AC__6;animation-name: kf_el_LeK8ep9_lrz_an_ezT_AC__6;-webkit-animation-timing-function: cubic-bezier(0.42, 0, 1, 1);animation-timing-function: cubic-bezier(0.42, 0, 1, 1);}#el_JmtkvFvPiSO{fill: #DDE0E6;-webkit-animation-fill-mode: forwards;animation-fill-mode: forwards;-webkit-animation-name: kf_el_JmtkvFvPiSO_an_oO8lbHjdt;animation-name: kf_el_JmtkvFvPiSO_an_oO8lbHjdt;-webkit-animation-timing-function: cubic-bezier(0.42, 0, 1, 1);animation-timing-function: cubic-bezier(0.42, 0, 1, 1);}#el_CwyDwGitZZk{stroke: #E0E4E9;stroke-width: 1.18181818;-webkit-transform: translate(249.86390764917036px, 83.60329401148951px) scale(-1, 1) rotate(-37deg);transform: translate(249.86390764917036px, 83.60329401148951px) scale(-1, 1) rotate(-37deg);-webkit-animation-fill-mode: forwards;animation-fill-mode: forwards;-webkit-animation-name: kf_el_CwyDwGitZZk_an_nG4kAB1B5;animation-name: kf_el_CwyDwGitZZk_an_nG4kAB1B5;-webkit-animation-timing-function: cubic-bezier(0.42, 0, 1, 1);animation-timing-function: cubic-bezier(0.42, 0, 1, 1);}#el_DRwa9cCJRit{stroke: #DFE2E8;stroke-width: 1.18181818;-webkit-animation-fill-mode: forwards;animation-fill-mode: forwards;-webkit-animation-name: kf_el_DRwa9cCJRit_an_UQ1EQh-Na;animation-name: kf_el_DRwa9cCJRit_an_UQ1EQh-Na;-webkit-animation-timing-function: cubic-bezier(0.42, 0, 1, 1);animation-timing-function: cubic-bezier(0.42, 0, 1, 1);}#el_7JuMdVCFV3B{stroke: #E1E2EA;stroke-width: 0.5;fill: #DFE2E8;-webkit-animation-fill-mode: forwards;animation-fill-mode: forwards;-webkit-animation-name: kf_el_7JuMdVCFV3B_an_tL0M2lwXW;animation-name: kf_el_7JuMdVCFV3B_an_tL0M2lwXW;-webkit-animation-timing-function: cubic-bezier(0.42, 0, 1, 1);animation-timing-function: cubic-bezier(0.42, 0, 1, 1);}#el_YMZ8ielv-bq{stroke: #E1E2EA;stroke-width: 0.5;fill: #DFE2E8;-webkit-animation-fill-mode: forwards;animation-fill-mode: forwards;-webkit-animation-name: kf_el_YMZ8ielv-bq_an_Xv6lvUtGy;animation-name: kf_el_YMZ8ielv-bq_an_Xv6lvUtGy;-webkit-animation-timing-function: cubic-bezier(0.42, 0, 1, 1);animation-timing-function: cubic-bezier(0.42, 0, 1, 1);}#el_jB6CUER0ui0{stroke: #E0E4E9;stroke-width: 1.18181818;-webkit-transform: translate(80.47947417454259px, 26.928055374632496px) scale(-1, 1) rotate(-37deg);transform: translate(80.47947417454259px, 26.928055374632496px) scale(-1, 1) rotate(-37deg);-webkit-animation-fill-mode: forwards;animation-fill-mode: forwards;-webkit-animation-name: kf_el_jB6CUER0ui0_an_uNtETyA1J;animation-name: kf_el_jB6CUER0ui0_an_uNtETyA1J;-webkit-animation-timing-function: cubic-bezier(0.42, 0, 1, 1);animation-timing-function: cubic-bezier(0.42, 0, 1, 1);}#el_DzY9ki77Fz_an_0bN1TzqQ8{-webkit-animation-fill-mode: forwards;animation-fill-mode: forwards;-webkit-animation-name: kf_el_DzY9ki77Fz_an_0bN1TzqQ8;animation-name: kf_el_DzY9ki77Fz_an_0bN1TzqQ8;-webkit-animation-timing-function: cubic-bezier(0, 0, 0.58, 1);animation-timing-function: cubic-bezier(0, 0, 0.58, 1);}#el_MENIXFiDwBE_an_kpM5AgL-p{-webkit-animation-fill-mode: forwards;animation-fill-mode: forwards;-webkit-animation-name: kf_el_MENIXFiDwBE_an_kpM5AgL-p;animation-name: kf_el_MENIXFiDwBE_an_kpM5AgL-p;-webkit-animation-timing-function: cubic-bezier(0, 0, 0.58, 1);animation-timing-function: cubic-bezier(0, 0, 0.58, 1);}</style>
    <!-- Generator: Sketch 52.5 (67469) - http://www.bohemiancoding.com/sketch -->
    <title>YAK SIgn In IL only</title>
    <desc>Created with Sketch.</desc>
    <defs>
        <rect id="path-1" x="0.879375" y="0" width="61.5690672" height="100.980773" rx="3.94248366"/>
        <filter x="-13.8%" y="-6.4%" width="127.6%" height="116.8%" filterUnits="objectBoundingBox" id="filter-2">
            <feOffset dx="0" dy="2" in="SourceAlpha" result="shadowOffsetOuter1"/>
            <feGaussianBlur stdDeviation="2.5" in="shadowOffsetOuter1" result="shadowBlurOuter1"/>
            <feColorMatrix values="0 0 0 0 0   0 0 0 0 0   0 0 0 0 0  0 0 0 0.161769701 0" type="matrix" in="shadowBlurOuter1"/>
        </filter>
        <rect id="path-3" x="5.30578125" y="7.99847706" width="53.076782" height="78.3958182" rx="1.83529412"/>
        <linearGradient x1="90.2060987%" y1="9.74771034%" x2="8.82317355%" y2="87.9652155%" id="linearGradient-5">
            <stop stop-color="#7282FB" offset="0%"/>
            <stop stop-color="#755BF9" offset="68.7141263%"/>
            <stop stop-color="#7934F7" offset="100%"/>
        </linearGradient>
        <linearGradient x1="0%" y1="100%" x2="100%" y2="0%" id="linearGradient-6">
            <stop stop-color="#7282FB" offset="0%"/>
            <stop stop-color="#755BF9" offset="68.7141263%"/>
            <stop stop-color="#7934F7" offset="100%"/>
        </linearGradient>
    </defs>
    <g id="el_uaWoF0EVQU" fill-rule="evenodd">
        <rect x="0" y="0" width="160" height="104" id="el_9lA66rQTxo"/>
        <g id="el_Fq7hca9AGG">
            <g id="el_ZxkC16MZRG">
                <g id="el_Y0FzHAsxyB">
                    <use filter="url(#filter-2)" xlink:href="#path-1" id="el_e3Aj6suVeb"/>
                    <use fill-rule="evenodd" xlink:href="#path-1" id="el_QKCrZSXMmO"/>
                </g>
                <mask id="mask-4" fill="white">
                    <use xlink:href="#path-3"/>
                </mask>
                <use id="el_sT-X--JIfC" xlink:href="#path-3"/>
            </g>
            <rect id="el_azaJIQYgwJ" x="26.840625" y="2.31774051" width="9.31875" height="2.31774051" rx="1.15887026"/>
            <ellipse id="el_GiZIZGambk" cx="31.5" cy="92.7096205" rx="4.659375" ry="4.63548102"/>
        </g>
        <g id="el_hfMjVigyG5">
            <path d="M7.88375,5.10490375 C7.88375,6.07179094 7.15898692,6.85553515 6.26375,6.85553515 C5.36951,6.85553515 4.64375,6.07179094 4.64375,5.10490375 C4.64375,4.13801656 5.36951,3.35427235 6.26375,3.35427235 C7.15898692,3.35427235 7.88375,4.13801656 7.88375,5.10490375 M3.02375,9.64655032 C3.0519106,9.26625932 3.24478411,8.91451707 3.56039532,8.61286981 C3.63053114,8.54607649 3.69854163,8.47766721 3.78036676,8.41626044 C4.4137145,7.93847274 5.38073873,7.63359354 6.46625,7.63359354 C7.55176127,7.63359354 8.5187855,7.93847274 9.15213324,8.41626044 C9.23395837,8.47766721 9.30196886,8.54607649 9.37210468,8.61286981 C9.68771589,8.91451707 9.8805894,9.26625932 9.90875,9.64655032 C9.05118016,10.5498761 7.8546205,11.1176194 6.52735318,11.1348563 L6.40514682,11.1348563 C5.0778795,11.1176194 3.88131984,10.5498761 3.02375,9.64655032 M6.26375,0.631067961 C3.13236364,0.631067961 0.59375,3.1566632 0.59375,6.27199135 C0.59375,9.38731949 3.13236364,11.9129147 6.26375,11.9129147 C9.39513636,11.9129147 11.93375,9.38731949 11.93375,6.27199135 C11.93375,3.1566632 9.39513636,0.631067961 6.26375,0.631067961" id="el_hsxFb1yIwo"/>
        </g>
        <g id="el_DzY9ki77Fz_an_0bN1TzqQ8" data-animator-group="true" data-animator-type="2"><g id="el_DzY9ki77Fz">
            <g id="el_-8jad648jk">
                <g id="el_mjymolajgT">
                    <g id="el_pLCTTeHsWRz">
                        <rect x="-1" y="-1" width="23.3163838" height="23.3913627" rx="11.6581919" id="el_EIbHtgNjfLQ"/>
                    </g>
                </g>
                <g id="el_FUR-PDEPWpE">
                    <path d="M0.132102562,3.61120765 C-0.0465452935,3.43946957 -0.043586794,3.16344608 0.138474715,2.99481437 C0.320763801,2.82640455 0.613427677,2.82906715 0.79230311,3.00102712 L3.28631821,5.41157303 L8.76591448,0.130737922 C8.94456233,-0.0412220452 9.23722621,-0.0438846511 9.4195153,0.124747058 C9.60180438,0.293156884 9.6045353,0.569180366 9.42588745,0.740918449 L3.28631821,6.6563413 L0.132102562,3.61120765 Z" id="el_eiiEtxxLFgB"/>
                </g>
            </g>
        </g></g>
        <g id="el_MENIXFiDwBE_an_kpM5AgL-p" data-animator-group="true" data-animator-type="2"><g id="el_MENIXFiDwBE">
            <g id="el_j0RuqqGDYQ9">
                <g id="el_fd-p6egKQMn">
                    <g id="el_NRzEDyKwWo8">
                        <rect id="el_K2v0xSGVO7n" x="-1" y="-1" width="23.3163838" height="23.3913627" rx="11.6581919"/>
                    </g>
                </g>
            </g>
            <path d="M11.3023461,10.5185142 L13.987419,7.84664023 C14.1382464,7.69658623 14.1382464,7.45315263 13.987419,7.30347901 C13.8369738,7.15342501 13.5922854,7.15342501 13.441458,7.30347901 L10.7561939,9.97535295 L8.07092993,7.30347901 C7.92010247,7.15342501 7.67541407,7.15342501 7.52496894,7.30347901 C7.37414148,7.45315263 7.37414148,7.69639605 7.52496894,7.84664023 L10.2100418,10.5185142 L7.33170334,13.3824724 C7.18106704,13.5319559 7.18106704,13.7755797 7.3318945,13.9250631 C7.48233963,14.0749269 7.72702803,14.0749269 7.87785549,13.9250631 L10.7561939,11.0616754 L13.441458,13.9250631 C13.5922854,14.0749269 13.8369738,14.0749269 13.9876101,13.9250631 C14.1382464,13.7755797 14.1382464,13.5327166 13.987419,13.3824724 L11.3023461,10.5185142 Z" id="el_j2JkqaFay_T"/>
        </g></g>
        <path d="M26.5,63 L22,64.6391159 L22,66.8246037 C22.0016668,69.6011903 23.8046046,72.0753805 26.5,73 C29.1953954,72.0753805 30.9983332,69.6011903 31,66.8246037 L31,64.6391159 L26.5,63 Z" id="el_I5v_RH3tzj7"/>
        <path d="M35.3385678,80.5431257 C38.3351753,83.5869483 39.3592605,83.5780699 42.5042685,80.4774799 C39.3592605,83.5780699 39.3349932,84.6037066 42.3304781,87.6440025 C39.3349932,84.6037066 38.3091746,84.6102504 35.16591,87.712584 C38.3091845,84.6096594 38.3351753,83.5869483 35.3385678,80.5431257 Z" id="el_PhpVs7bkuU2"/>
        <path d="M13.3015345,86.4331717 C17.2907431,90.4847768 18.6540453,90.4729563 22.8407955,86.3457734 C18.6540453,90.4729563 18.6217423,91.8381747 22.6094564,95.8850855 C18.6217423,91.8381747 17.2561324,91.8468876 13.071703,95.9763913 C17.2561455,91.8461008 17.2907431,90.4847768 13.3015345,86.4331717 Z" id="el_b3RIndJ6wbL"/>
        <path d="M20.8332889,49.8667038 C21.0555704,50.0845463 21.0555704,50.4372171 20.8332889,50.6545024 L19.6269431,51.8367574 C19.5160866,51.9459572 19.370552,52 19.2250173,52 C19.0794827,52 18.9345165,51.9459572 18.8230915,51.8367574 C18.6013786,51.6194721 18.6013786,51.2668013 18.8230915,51.0489588 L19.6275116,50.2606031 L18.8230915,49.4728045 L18.01924,50.2606031 C17.9083835,50.3698029 17.7628489,50.4238457 17.6173142,50.4238457 C17.4717796,50.4238457 17.3262449,50.3698029 17.2153884,50.2606031 C16.993107,50.0433178 16.993107,49.690647 17.2153884,49.4728045 L18.01924,48.6850059 L16.4240438,47.1211087 C16.0778305,47.3216798 15.6867061,47.4358939 15.2745474,47.4358939 C14.6668266,47.4358939 14.0960578,47.2041229 13.6662758,46.7829236 C13.2364938,46.3617244 13,45.8023539 13,45.2067693 C13,44.6117418 13.2364938,44.0523714 13.6662758,43.6311721 C14.5252714,42.7898879 16.022118,42.7893308 16.8822505,43.6311721 C17.6292526,44.3632565 17.7384036,45.4786545 17.2273268,46.332753 L20.8332889,49.8667038 Z M14.4701274,45.995125 C14.8993409,46.4163243 15.6480485,46.4163243 16.078399,45.995125 C16.5212564,45.5605544 16.5212564,44.8535413 16.078399,44.4189707 C15.863508,44.2089282 15.5781236,44.0930427 15.2745474,44.0930427 C14.9704027,44.0930427 14.6850184,44.2089282 14.4701274,44.4189707 C14.2552364,44.6295703 14.1369895,44.9092555 14.1369895,45.2067693 C14.1369895,45.5048402 14.2552364,45.7845254 14.4701274,45.995125 Z" id="el_CMUnx3FjPKb"/>
        <path d="M24.7482884,10.1574016 L25.8321312,10.1574016 C26.2469992,10.1574016 26.5833162,10.4950125 26.5833162,10.9180181 C26.5833162,11.338095 26.2393125,11.6786346 25.8321312,11.6786346 L24.7482884,11.6786346 L24.7482884,12.6610977 C24.7482884,13.0986778 24.3992151,13.4534066 23.9618479,13.4534066 C23.5275088,13.4534066 23.1754074,13.1048715 23.1754074,12.6610977 L23.1754074,11.6786346 L22.0915646,11.6786346 C21.6766965,11.6786346 21.3403796,11.3410237 21.3403796,10.9180181 C21.3403796,10.4979412 21.6843833,10.1574016 22.0915646,10.1574016 L23.1754074,10.1574016 L23.1754074,9.17493852 C23.1754074,8.73735839 23.5244807,8.38262961 23.9618479,8.38262961 C24.396187,8.38262961 24.7482884,8.73116465 24.7482884,9.17493852 L24.7482884,10.1574016 Z" id="el_Z5DvPHhn7W6"/>
        <path d="M142.675963,31.1574016 L143.759805,31.1574016 C144.174673,31.1574016 144.51099,31.4950125 144.51099,31.9180181 C144.51099,32.338095 144.166987,32.6786346 143.759805,32.6786346 L142.675963,32.6786346 L142.675963,33.6610977 C142.675963,34.0986778 142.326889,34.4534066 141.889522,34.4534066 C141.455183,34.4534066 141.103082,34.1048715 141.103082,33.6610977 L141.103082,32.6786346 L140.019239,32.6786346 C139.604371,32.6786346 139.268054,32.3410237 139.268054,31.9180181 C139.268054,31.4979412 139.612058,31.1574016 140.019239,31.1574016 L141.103082,31.1574016 L141.103082,30.1749385 C141.103082,29.7373584 141.452155,29.3826296 141.889522,29.3826296 C142.323861,29.3826296 142.675963,29.7311647 142.675963,30.1749385 L142.675963,31.1574016 Z" id="el_KOmykVZZFwq"/>
        <path d="M136.686987,79.4580947 C140.698625,83.530501 142.047624,83.5402499 146.126091,79.5216698 C142.047624,83.5402499 142.037132,84.8908229 146.047217,88.95856 C142.037132,84.8908229 140.685801,84.8779623 136.609666,88.8988757 C140.685801,84.8771839 140.698625,83.530501 136.686987,79.4580947 Z" id="el_kSGPdfYxCNY"/>
        <path d="M119.180233,91.7871264 C123.19187,95.8595328 124.540869,95.8692817 128.619337,91.8507016 C124.540869,95.8692817 124.530378,97.2198547 128.540462,101.287592 C124.530378,97.2198547 123.179046,97.2069941 119.102912,101.227907 C123.179047,97.2062156 123.19187,95.8595328 119.180233,91.7871264 Z" id="el_LeK8ep9_lrz"/>
        <path d="M130.833289,74.8667038 C131.05557,75.0845463 131.05557,75.4372171 130.833289,75.6545024 L129.626943,76.8367574 C129.516087,76.9459572 129.370552,77 129.225017,77 C129.079483,77 128.934517,76.9459572 128.823092,76.8367574 C128.601379,76.6194721 128.601379,76.2668013 128.823092,76.0489588 L129.627512,75.2606031 L128.823092,74.4728045 L128.01924,75.2606031 C127.908384,75.3698029 127.762849,75.4238457 127.617314,75.4238457 C127.47178,75.4238457 127.326245,75.3698029 127.215388,75.2606031 C126.993107,75.0433178 126.993107,74.690647 127.215388,74.4728045 L128.01924,73.6850059 L126.424044,72.1211087 C126.07783,72.3216798 125.686706,72.4358939 125.274547,72.4358939 C124.666827,72.4358939 124.096058,72.2041229 123.666276,71.7829236 C123.236494,71.3617244 123,70.8023539 123,70.2067693 C123,69.6117418 123.236494,69.0523714 123.666276,68.6311721 C124.525271,67.7898879 126.022118,67.7893308 126.882251,68.6311721 C127.629253,69.3632565 127.738404,70.4786545 127.227327,71.332753 L130.833289,74.8667038 Z M124.470127,70.995125 C124.899341,71.4163243 125.648048,71.4163243 126.078399,70.995125 C126.521256,70.5605544 126.521256,69.8535413 126.078399,69.4189707 C125.863508,69.2089282 125.578124,69.0930427 125.274547,69.0930427 C124.970403,69.0930427 124.685018,69.2089282 124.470127,69.4189707 C124.255236,69.6295703 124.136989,69.9092555 124.136989,70.2067693 C124.136989,70.5048402 124.255236,70.7845254 124.470127,70.995125 Z" id="el_JmtkvFvPiSO"/>
        <ellipse id="el_CwyDwGitZZk" cx="135.429093" cy="10.4290046" rx="1.61155372" ry="1.6111058"/>
        <path d="M127,19 L124,20.1473811 L124,21.6772226 C124.001111,23.6208332 125.20307,25.3527663 127,26 C128.79693,25.3527663 129.998889,23.6208332 130,21.6772226 L130,20.1473811 L127,19 Z" id="el_DRwa9cCJRit"/>
        <path d="M133.499944,48 C132.073794,48 130.923698,49.1905714 130.877263,50.667718 L130.235507,50.667718 C130.108422,50.6803346 130,50.803233 130,50.932327 L130,54.5984398 C130,55.3544172 130.548665,56 131.258629,56 L135.73826,56 C136.448225,56 137,55.3544172 137,54.5984398 L137,50.9322144 C137,50.7936579 136.872804,50.6676054 136.736499,50.6676054 L136.122737,50.6676054 C136.07608,49.1905714 134.925984,48 133.499944,48 Z M133.499944,48.5322594 C134.634599,48.5322594 135.552299,49.4676842 135.595623,50.667718 L131.401155,50.667718 C131.44759,49.4677969 132.36529,48.5322594 133.499944,48.5322594 Z M130.523781,51.1999775 L136.472998,51.1999775 L136.472998,54.5983272 C136.472998,55.099158 136.131957,55.4676279 135.73826,55.4676279 L131.258518,55.4676279 C130.864822,55.4676279 130.523781,55.099158 130.523781,54.5983272 L130.523781,51.1999775 Z M133.499944,52.1762933 C133.20856,52.1762933 132.975941,52.4156693 132.975941,52.7117069 C132.975941,52.9101918 133.081364,53.0801769 133.236443,53.1716466 L133.236443,54.223549 C133.236443,54.3621054 133.360418,54.4913121 133.499944,54.4913121 C133.639471,54.4913121 133.763446,54.362218 133.763446,54.223549 L133.763446,53.1716466 C133.918525,53.0801769 134.023836,52.9070377 134.023836,52.7117069 C134.023836,52.4156693 133.788218,52.1762933 133.499944,52.1762933 Z" id="el_7JuMdVCFV3B" fill-rule="nonzero"/>
        <path d="M22.9999524,28 C21.777538,28 20.7917414,29.04175 20.7519401,30.3342533 L20.2018631,30.3342533 C20.0929332,30.3452927 20,30.4528289 20,30.5657861 L20,33.7736349 C20,34.435115 20.4702839,35 21.078825,35 L24.9185089,35 C25.52705,35 26,34.435115 26,33.7736349 L26,30.5656876 C26,30.4444507 25.8909749,30.3341547 25.7741418,30.3341547 L25.2480599,30.3341547 C25.2080682,29.04175 24.2222716,28 22.9999524,28 Z M22.9999524,28.465727 C23.9725136,28.465727 24.7591132,29.2842237 24.7962484,30.3342533 L21.2009903,30.3342533 C21.2407916,29.2843223 22.0273912,28.465727 22.9999524,28.465727 Z M20.448955,30.7999803 L25.5482837,30.7999803 L25.5482837,33.7735363 C25.5482837,34.2117632 25.2559631,34.5341744 24.9185089,34.5341744 L21.0787298,34.5341744 C20.7412756,34.5341744 20.448955,34.2117632 20.448955,33.7735363 L20.448955,30.7999803 Z M22.9999524,31.6542567 C22.7501944,31.6542567 22.550807,31.8637106 22.550807,32.1227435 C22.550807,32.2964178 22.6411693,32.4451547 22.7740942,32.5251908 L22.7740942,33.4456053 C22.7740942,33.5668422 22.880358,33.6798981 22.9999524,33.6798981 C23.1195468,33.6798981 23.2258105,33.5669408 23.2258105,33.4456053 L23.2258105,32.5251908 C23.3587355,32.4451547 23.4490026,32.2936579 23.4490026,32.1227435 C23.4490026,31.8637106 23.2470443,31.6542567 22.9999524,31.6542567 Z" id="el_YMZ8ielv-bq" fill-rule="nonzero"/>
        <ellipse id="el_jB6CUER0ui0" cx="36.5709073" cy="24.4290046" rx="1.61155372" ry="1.6111058"/>
    </g>
</svg>