<?xml version="1.0" encoding="UTF-8"?>
<svg width="80px" height="80px" viewBox="0 0 14 14" version="1.1" xmlns="http://www.w3.org/2000/svg" xmlns:xlink="http://www.w3.org/1999/xlink">
    <!-- Generator: Sketch 41.2 (35397) - http://www.bohemiancoding.com/sketch -->
    <title>YAK_Logo</title>
    <desc>Created with Sketch.</desc>
    <defs>
        <path d="M-1.77635684e-15,7 C-1.77635684e-15,10.8653126 3.1350224,14 6.99986336,14 C10.8647043,14 14,10.8653126 14,7 C14,3.13523392 10.8647043,1.77635684e-15 6.99986336,1.77635684e-15 C3.1350224,1.77635684e-15 -1.77635684e-15,3.13523448 -1.77635684e-15,7 Z M6.99986336,12.8340621 C3.78280832,12.8340621 1.16623396,10.217265 1.16623396,6.99999944 C1.16623396,3.78273392 3.78280832,1.16648392 6.99986336,1.16648392 C10.2177388,1.16648392 12.8334927,3.78273392 12.8334927,6.99999944 C12.8334927,10.217265 10.2177388,12.8340621 6.99986336,12.8340621 L6.99986336,12.8340621 Z" id="path-1"></path>
        <path d="M7.66917586,6.39055691 C8.17632809,5.52763055 8.06082794,4.40008071 7.32529945,3.65813267 C6.8848223,3.21928975 6.31361957,3 5.74031695,3 C5.16543916,3 4.59502401,3.21928975 4.15480921,3.65813267 C3.28173026,4.53819088 3.28173026,5.96041163 4.15480921,6.84020642 C4.59502401,7.2793133 5.16543916,7.49912989 5.74031695,7.49912989 C6.13459361,7.49912989 6.52677092,7.39422923 6.8769475,7.18653633 L7.63872605,7.95141466 L7.04494831,8.54655435 C6.93574778,8.65725344 6.88272243,8.79958099 6.88272243,8.94349012 C6.88272243,9.09003451 6.93574778,9.23288944 7.04494831,9.34306115 C7.26072424,9.55866089 7.61930086,9.55866089 7.83717721,9.34306115 L8.43095495,8.74633987 L8.62730569,8.94348958 L8.03247801,9.53915666 C7.92432742,9.64985628 7.86762702,9.79218383 7.86762702,9.93820139 C7.86762702,10.0821105 7.92432742,10.2254923 8.03247801,10.3351372 C8.25140429,10.5549543 8.60683056,10.5549543 8.82575685,10.3351372 L9.41848466,9.73894325 L9.46730972,9.78691278 C9.68518553,10.0067299 10.0406123,10.0067299 10.2584887,9.78691278 C10.4779397,9.56762303 10.4779397,9.21022311 10.2584887,8.99093336 L7.66917586,6.39055691 L7.66917586,6.39055691 Z M6.53202061,6.04475384 C6.31991973,6.25560937 6.03956805,6.37368847 5.74031695,6.37368847 C5.44001538,6.37368847 5.16045182,6.25560937 4.94730046,6.04475384 C4.73729946,5.83178989 4.61943654,5.55029742 4.61943654,5.24930126 C4.61943654,4.94830509 4.73729946,4.66733999 4.94730046,4.45384867 C5.16045128,4.24299314 5.44001538,4.12491405 5.74031695,4.12491405 C6.03956859,4.12491405 6.31991973,4.24299314 6.53202061,4.45384867 C6.74202162,4.66734053 6.85962218,4.94830509 6.85962218,5.24930179 C6.85962218,5.5502985 6.74202162,5.83178989 6.53202061,6.04475384 L6.53202061,6.04475384 Z" id="path-2"></path>
    </defs>
    <g id="Page-1" stroke="none" stroke-width="1" fill="none" fill-rule="evenodd">
        <g id="YAK_Logo" fill="#26282A">
            <use id="Shape" xlink:href="#path-1"></use>
            <use id="Shape" xlink:href="#path-2"></use>
        </g>
    </g>
</svg>