<?xml version="1.0" encoding="utf-8"?>
<!-- Generator: Adobe Illustrator 19.1.0, SVG Export Plug-In . SVG Version: 6.00 Build 0)  -->
<svg version="1.1" id="Layer_1" xmlns="http://www.w3.org/2000/svg" xmlns:xlink="http://www.w3.org/1999/xlink" x="0px" y="0px"
	 height="144" fill="#fff" width="144" viewBox="0 0 144 144" enable-background="new 0 0 144 144" xml:space="preserve">
<g>
	<path d="M72,2C33.34,2,2,33.34,2,72s31.34,70,70,70s70-31.34,70-70S110.66,2,72,2z M72,134c-34.187,0-62-27.813-62-62
		c0-34.187,27.813-62,62-62c34.187,0,62,27.813,62,62C134,106.187,106.187,134,72,134z"/>
	<path d="M78.615,66.792c6.599-9.366,5.733-22.384-2.645-30.762C71.284,31.343,65.142,29,59,29s-12.284,2.343-16.971,7.029
		c-9.373,9.373-9.373,24.569,0,33.941C46.716,74.657,52.858,77,59,77c4.914,0,9.815-1.526,13.984-4.526l13.342,13.342l-6.498,6.498
		c-1.556,1.556-1.556,4.101,0,5.657c1.556,1.556,4.101,1.556,5.657,0l6.498-6.497l3.343,3.343l-6.498,6.498
		c-1.556,1.556-1.556,4.101,0,5.657c1.556,1.556,4.101,1.556,5.657,0l6.498-6.497l3.787,3.787c1.556,1.556,4.101,1.556,5.657,0
		c1.556-1.556,1.556-4.101,0-5.657L78.615,66.792z M47.686,64.314c-6.238-6.238-6.238-16.389,0-22.627
		C50.708,38.664,54.726,37,59,37s8.292,1.664,11.314,4.686c6.238,6.238,6.238,16.389,0,22.627C67.292,67.336,63.274,69,59,69
		S50.708,67.336,47.686,64.314z"/>
</g>
</svg>
