<svg width="20" height="20" viewBox="0 0 20 20" fill="none" xmlns="http://www.w3.org/2000/svg">
<path fill-rule="evenodd" clip-rule="evenodd" d="M10.5482 1.04396C10.3926 0.903261 10.1969 0.833328 10.0004 0.833328C9.80396 0.833328 9.60748 0.903261 9.45179 1.04396C6.60033 3.60901 3.82797 4.15765 2.42846 4.25506C1.98555 4.2867 1.66669 4.66384 1.66669 5.10758C1.66669 15.2171 8.43609 18.6247 9.71154 19.1125C9.80562 19.1483 9.90553 19.1667 10.0046 19.1667C10.1003 19.1667 10.1969 19.1492 10.2885 19.1159C11.564 18.6438 18.3334 15.2571 18.3334 5.10675C18.3342 4.66301 18.0145 4.2867 17.5724 4.25506C16.1729 4.15765 13.4005 3.60901 10.5482 1.04396ZM3.34509 5.82856C4.96605 5.59129 7.44203 4.86781 10.0004 2.76732C12.5588 4.86864 15.0365 5.59212 16.6558 5.82856C16.4077 12.8635 12.5455 16.4118 10.0088 17.4383C5.88435 15.7316 3.53907 11.0994 3.34509 5.82856ZM6.0884 9.08712C6.42225 8.7566 6.96424 8.7566 7.29892 9.08712L9.10554 10.8654L12.7005 7.33462C13.036 7.00327 13.5771 7.00327 13.911 7.33462C14.2465 7.66681 14.2465 8.20379 13.911 8.53514L9.70996 12.6662C9.37445 13.0009 8.86077 12.9917 8.49945 12.6662L6.0884 10.2885C5.75372 9.95795 5.75372 9.42013 6.0884 9.08712Z" fill="#F5F8FA"/>
</svg>
