<svg width="16" height="16" viewBox="0 0 16 16" fill="none" xmlns="http://www.w3.org/2000/svg">
<g id="addPerson-outline-32 2">
<path id="Vector" d="M9.83367 4.33334C9.83367 6.1743 8.34127 7.66665 6.50032 7.66665C4.65938 7.66665 3.16699 6.1743 3.16699 4.33334C3.16699 2.49239 4.65938 1 6.50032 1C8.34127 1 9.83367 2.49239 9.83367 4.33334ZM8.68367 4.33334C8.68367 3.12752 7.70617 2.15 6.50032 2.15C5.29452 2.15 4.31699 3.12752 4.31699 4.33334C4.31699 5.53915 5.29452 6.51665 6.50032 6.51665C7.70617 6.51665 8.68367 5.53915 8.68367 4.33334Z" fill="#12A9FF"/>
<path id="Vector_2" d="M0.5 13.0669C0.5 11.6576 1.15067 10.3272 2.26311 9.462C3.06477 8.8385 4.05137 8.5 5.06695 8.5H7.93305C8.9486 8.5 9.93525 8.8385 10.7369 9.462C11.8493 10.3272 12.5 11.6576 12.5 13.0669V15.5H0.5V13.0669ZM11.35 13.0669C11.35 12.0125 10.8632 11.0171 10.0309 10.3698C9.43105 9.90325 8.6929 9.65 7.93305 9.65H5.06695C4.30711 9.65 3.56894 9.90325 2.96915 10.3698C2.13683 11.0171 1.65 12.0125 1.65 13.0669V14.35H11.35V13.0669Z" fill="#12A9FF"/>
<path id="Vector_3" d="M10.25 5.76258H12.0877V3.9248H13.2377V5.76258H15.0754V6.91258H13.2377V8.75023H12.0877V6.91258H10.25V5.76258Z" fill="#12A9FF"/>
</g>
</svg>
