<svg width="16" height="16" viewBox="0 0 16 16" fill="none" xmlns="http://www.w3.org/2000/svg">
<g id="accountSwitchALT-outline-32 1" clip-path="url(#clip0_1813_5911)">
<path id="Vector" d="M9.28512 2.90527C10.6201 2.90527 11.7001 3.98527 11.7001 5.32029C11.7001 6.65529 10.6201 7.73529 9.28512 7.73529C7.95012 7.73529 6.87012 6.65529 6.87012 5.32029C6.87012 3.98527 7.95012 2.90527 9.28512 2.90527ZM9.28512 4.05527C8.59012 4.05527 8.02012 4.62527 8.02012 5.32029C8.02012 6.01529 8.59012 6.58529 9.28512 6.58529C9.98012 6.58529 10.5501 6.01529 10.5501 5.32029C10.5501 4.62527 9.98512 4.05527 9.28512 4.05527Z" fill="#12A9FF"/>
<path id="Vector_2" d="M15.5003 0.5H3.07031V12.935H15.5003V0.5ZM14.3503 1.655V10.4319C12.9301 9.39935 11.1798 8.79 9.28532 8.79C7.38997 8.79 5.64187 9.3999 4.22031 10.4334V1.655H14.3503ZM14.1946 11.78H4.37598C5.73512 10.5882 7.45787 9.94 9.28532 9.94C11.1178 9.94 12.8355 10.5882 14.1946 11.78Z" fill="#12A9FF"/>
<path id="Vector_3" d="M1.57481 14.4252V3.9502H0.424805V15.5752H12.0498V14.4252H1.57481Z" fill="#12A9FF"/>
</g>
<defs>
<clipPath id="clip0_1813_5911">
<rect width="16" height="16" fill="white"/>
</clipPath>
</defs>
</svg>
