<svg width="20" height="20" viewBox="0 0 20 20" fill="none" xmlns="http://www.w3.org/2000/svg">
<path fill-rule="evenodd" clip-rule="evenodd" d="M12.5 9.83154C14.2883 9.83154 15.9133 7.89321 15.9133 5.95571C15.9133 4.01654 14.3691 2.49988 12.5 2.49988C10.6308 2.49988 9.08663 4.01654 9.08663 5.95571C9.08663 7.89321 10.7116 9.83154 12.5 9.83154ZM7.49996 9.16663C7.49996 8.70579 7.12663 8.33329 6.66663 8.33329H5.41663V7.08329C5.41663 6.62246 5.04413 6.24996 4.58329 6.24996C4.12246 6.24996 3.74996 6.62246 3.74996 7.08329V8.33329H2.44829V8.34413C2.01329 8.37246 1.66663 8.72496 1.66663 9.16663C1.66663 9.60829 2.01329 9.96079 2.44829 9.98913V9.99996H3.74996V11.3025H3.76079C3.78913 11.7366 4.14163 12.0833 4.58329 12.0833C5.02496 12.0833 5.37746 11.7366 5.40579 11.3025H5.41663V9.99996H6.66663C7.12663 9.99996 7.49996 9.62746 7.49996 9.16663ZM10.9562 10.7585H14.0437C16.8879 10.7585 19.2445 13.0335 19.2445 15.8985C19.2445 16.1518 19.082 16.4043 18.8379 16.4885C18.5129 16.6568 17.9445 16.826 17.1312 16.9943C15.7504 17.3318 14.2062 17.5001 12.4995 17.5001C10.7937 17.5001 9.24954 17.3318 7.86871 16.9943C7.49975 16.8987 7.15683 16.8029 6.86968 16.7227C6.65096 16.6616 6.46459 16.6095 6.32371 16.5735L6.16204 16.4885C5.91788 16.4043 5.75538 16.1518 5.75538 15.8985C5.75538 13.0335 8.11204 10.7585 10.9562 10.7585Z" fill="#F5F8FA"/>
<mask id="mask0_164_1377" style="mask-type:luminance" maskUnits="userSpaceOnUse" x="1" y="2" width="19" height="16">
<path fill-rule="evenodd" clip-rule="evenodd" d="M12.5 9.83154C14.2883 9.83154 15.9133 7.89321 15.9133 5.95571C15.9133 4.01654 14.3691 2.49988 12.5 2.49988C10.6308 2.49988 9.08663 4.01654 9.08663 5.95571C9.08663 7.89321 10.7116 9.83154 12.5 9.83154ZM7.49996 9.16663C7.49996 8.70579 7.12663 8.33329 6.66663 8.33329H5.41663V7.08329C5.41663 6.62246 5.04413 6.24996 4.58329 6.24996C4.12246 6.24996 3.74996 6.62246 3.74996 7.08329V8.33329H2.44829V8.34413C2.01329 8.37246 1.66663 8.72496 1.66663 9.16663C1.66663 9.60829 2.01329 9.96079 2.44829 9.98913V9.99996H3.74996V11.3025H3.76079C3.78913 11.7366 4.14163 12.0833 4.58329 12.0833C5.02496 12.0833 5.37746 11.7366 5.40579 11.3025H5.41663V9.99996H6.66663C7.12663 9.99996 7.49996 9.62746 7.49996 9.16663ZM10.9562 10.7585H14.0437C16.8879 10.7585 19.2445 13.0335 19.2445 15.8985C19.2445 16.1518 19.082 16.4043 18.8379 16.4885C18.5129 16.6568 17.9445 16.826 17.1312 16.9943C15.7504 17.3318 14.2062 17.5001 12.4995 17.5001C10.7937 17.5001 9.24954 17.3318 7.86871 16.9943C7.49975 16.8987 7.15683 16.8029 6.86968 16.7227C6.65096 16.6616 6.46459 16.6095 6.32371 16.5735L6.16204 16.4885C5.91788 16.4043 5.75538 16.1518 5.75538 15.8985C5.75538 13.0335 8.11204 10.7585 10.9562 10.7585Z" fill="white"/>
</mask>
<g mask="url(#mask0_164_1377)">
</g>
</svg>

