<svg width="20" height="20" viewBox="0 0 20 20" fill="none" xmlns="http://www.w3.org/2000/svg">
<path fill-rule="evenodd" clip-rule="evenodd" d="M12.5003 9.83154C14.2887 9.83154 15.9137 7.89321 15.9137 5.95571C15.9137 4.01654 14.3695 2.49988 12.5003 2.49988C10.6312 2.49988 9.08699 4.01654 9.08699 5.95571C9.08699 7.89321 10.712 9.83154 12.5003 9.83154ZM7.50033 9.16663C7.50033 8.70579 7.12699 8.33329 6.66699 8.33329H5.41699V7.08329C5.41699 6.62246 5.04449 6.24996 4.58366 6.24996C4.12283 6.24996 3.75033 6.62246 3.75033 7.08329V8.33329H2.44866V8.34413C2.01366 8.37246 1.66699 8.72496 1.66699 9.16663C1.66699 9.60829 2.01366 9.96079 2.44866 9.98913V9.99996H3.75033V11.3025H3.76116C3.78949 11.7366 4.14199 12.0833 4.58366 12.0833C5.02533 12.0833 5.37783 11.7366 5.40616 11.3025H5.41699V9.99996H6.66699C7.12699 9.99996 7.50033 9.62746 7.50033 9.16663ZM10.9566 10.7585H14.0441C16.8882 10.7585 19.2449 13.0335 19.2449 15.8985C19.2449 16.1518 19.0824 16.4043 18.8382 16.4885C18.5132 16.6568 17.9449 16.826 17.1316 16.9943C15.7507 17.3318 14.2066 17.5001 12.4999 17.5001C10.7941 17.5001 9.24991 17.3318 7.86908 16.9943C7.50011 16.8987 7.1572 16.8029 6.87004 16.7227C6.65132 16.6616 6.46495 16.6095 6.32408 16.5735L6.16241 16.4885C5.91824 16.4043 5.75574 16.1518 5.75574 15.8985C5.75574 13.0335 8.11241 10.7585 10.9566 10.7585Z" fill="#0F69FF"/>
<mask id="mask0_163_24123" style="mask-type:luminance" maskUnits="userSpaceOnUse" x="1" y="2" width="19" height="16">
<path fill-rule="evenodd" clip-rule="evenodd" d="M12.5003 9.83154C14.2887 9.83154 15.9137 7.89321 15.9137 5.95571C15.9137 4.01654 14.3695 2.49988 12.5003 2.49988C10.6312 2.49988 9.08699 4.01654 9.08699 5.95571C9.08699 7.89321 10.712 9.83154 12.5003 9.83154ZM7.50033 9.16663C7.50033 8.70579 7.12699 8.33329 6.66699 8.33329H5.41699V7.08329C5.41699 6.62246 5.04449 6.24996 4.58366 6.24996C4.12283 6.24996 3.75033 6.62246 3.75033 7.08329V8.33329H2.44866V8.34413C2.01366 8.37246 1.66699 8.72496 1.66699 9.16663C1.66699 9.60829 2.01366 9.96079 2.44866 9.98913V9.99996H3.75033V11.3025H3.76116C3.78949 11.7366 4.14199 12.0833 4.58366 12.0833C5.02533 12.0833 5.37783 11.7366 5.40616 11.3025H5.41699V9.99996H6.66699C7.12699 9.99996 7.50033 9.62746 7.50033 9.16663ZM10.9566 10.7585H14.0441C16.8882 10.7585 19.2449 13.0335 19.2449 15.8985C19.2449 16.1518 19.0824 16.4043 18.8382 16.4885C18.5132 16.6568 17.9449 16.826 17.1316 16.9943C15.7507 17.3318 14.2066 17.5001 12.4999 17.5001C10.7941 17.5001 9.24991 17.3318 7.86908 16.9943C7.50011 16.8987 7.1572 16.8029 6.87004 16.7227C6.65132 16.6616 6.46495 16.6095 6.32408 16.5735L6.16241 16.4885C5.91824 16.4043 5.75574 16.1518 5.75574 15.8985C5.75574 13.0335 8.11241 10.7585 10.9566 10.7585Z" fill="white"/>
</mask>
<g mask="url(#mask0_163_24123)">
</g>
</svg>

