<svg width="20" height="20" viewBox="0 0 20 20" fill="none" xmlns="http://www.w3.org/2000/svg">
<path fill-rule="evenodd" clip-rule="evenodd" d="M12.5 9.83161C14.2884 9.83161 15.9134 7.89327 15.9134 5.95577C15.9134 4.01661 14.3692 2.49994 12.5 2.49994C10.6309 2.49994 9.08669 4.01661 9.08669 5.95577C9.08669 7.89327 10.7117 9.83161 12.5 9.83161ZM7.50002 9.16669C7.50002 8.70586 7.12669 8.33336 6.66669 8.33336H5.41669V7.08336C5.41669 6.62252 5.04419 6.25002 4.58335 6.25002C4.12252 6.25002 3.75002 6.62252 3.75002 7.08336V8.33336H2.44835V8.34419C2.01335 8.37252 1.66669 8.72502 1.66669 9.16669C1.66669 9.60836 2.01335 9.96086 2.44835 9.98919V10H3.75002V11.3025H3.76085C3.78919 11.7367 4.14169 12.0834 4.58335 12.0834C5.02502 12.0834 5.37752 11.7367 5.40585 11.3025H5.41669V10H6.66669C7.12669 10 7.50002 9.62752 7.50002 9.16669ZM10.9563 10.7585H14.0438C16.8879 10.7585 19.2446 13.0335 19.2446 15.8985C19.2446 16.1519 19.0821 16.4044 18.8379 16.4885C18.5129 16.6569 17.9446 16.826 17.1313 16.9944C15.7504 17.3319 14.2063 17.5002 12.4996 17.5002C10.7938 17.5002 9.2496 17.3319 7.86877 16.9944C7.49981 16.8988 7.15689 16.803 6.86974 16.7227C6.65102 16.6616 6.46465 16.6096 6.32377 16.5735L6.1621 16.4885C5.91794 16.4044 5.75544 16.1519 5.75544 15.8985C5.75544 13.0335 8.1121 10.7585 10.9563 10.7585Z" fill="#12A9FF"/>
<mask id="mask0_1_41455" style="mask-type:luminance" maskUnits="userSpaceOnUse" x="1" y="2" width="19" height="16">
<path fill-rule="evenodd" clip-rule="evenodd" d="M12.5 9.83161C14.2884 9.83161 15.9134 7.89327 15.9134 5.95577C15.9134 4.01661 14.3692 2.49994 12.5 2.49994C10.6309 2.49994 9.08669 4.01661 9.08669 5.95577C9.08669 7.89327 10.7117 9.83161 12.5 9.83161ZM7.50002 9.16669C7.50002 8.70586 7.12669 8.33336 6.66669 8.33336H5.41669V7.08336C5.41669 6.62252 5.04419 6.25002 4.58335 6.25002C4.12252 6.25002 3.75002 6.62252 3.75002 7.08336V8.33336H2.44835V8.34419C2.01335 8.37252 1.66669 8.72502 1.66669 9.16669C1.66669 9.60836 2.01335 9.96086 2.44835 9.98919V10H3.75002V11.3025H3.76085C3.78919 11.7367 4.14169 12.0834 4.58335 12.0834C5.02502 12.0834 5.37752 11.7367 5.40585 11.3025H5.41669V10H6.66669C7.12669 10 7.50002 9.62752 7.50002 9.16669ZM10.9563 10.7585H14.0438C16.8879 10.7585 19.2446 13.0335 19.2446 15.8985C19.2446 16.1519 19.0821 16.4044 18.8379 16.4885C18.5129 16.6569 17.9446 16.826 17.1313 16.9944C15.7504 17.3319 14.2063 17.5002 12.4996 17.5002C10.7938 17.5002 9.2496 17.3319 7.86877 16.9944C7.49981 16.8988 7.15689 16.803 6.86974 16.7227C6.65102 16.6616 6.46465 16.6096 6.32377 16.5735L6.1621 16.4885C5.91794 16.4044 5.75544 16.1519 5.75544 15.8985C5.75544 13.0335 8.1121 10.7585 10.9563 10.7585Z" fill="white"/>
</mask>
<g mask="url(#mask0_1_41455)">
</g>
</svg>

