<svg width="18" height="18" viewBox="0 0 18 18" fill="none" xmlns="http://www.w3.org/2000/svg">
<path fill-rule="evenodd" clip-rule="evenodd" d="M0 9C0 4.03773 4.03773 0 9 0C13.9615 0 18 4.03773 18 9C18 13.9623 13.9615 18 9 18C4.03773 18 0 13.9623 0 9ZM9.81776 9.81858C9.81776 10.2702 9.45121 10.6368 8.99958 10.6368C8.54712 10.6368 8.1814 10.2702 8.1814 9.81858V4.90949C8.1814 4.45785 8.54712 4.09131 8.99958 4.09131C9.45121 4.09131 9.81776 4.45785 9.81776 4.90949V9.81858ZM8.99958 13.9098C8.54712 13.9098 8.1814 13.5433 8.1814 13.0916C8.1814 12.64 8.54712 12.2734 8.99958 12.2734C9.45121 12.2734 9.81776 12.64 9.81776 13.0916C9.81776 13.5433 9.45121 13.9098 8.99958 13.9098Z" fill="#FFA700"/>
</svg>
