<svg width="16" height="16" viewBox="0 0 16 16" fill="none" xmlns="http://www.w3.org/2000/svg">
<path fill-rule="evenodd" clip-rule="evenodd" d="M0.666748 7.99996C0.666748 3.95663 3.95675 0.666626 8.00008 0.666626C12.0427 0.666626 15.3334 3.95663 15.3334 7.99996C15.3334 12.0433 12.0427 15.3333 8.00008 15.3333C3.95675 15.3333 0.666748 12.0433 0.666748 7.99996ZM8.66675 8.66663C8.66675 9.03463 8.36808 9.33329 8.00008 9.33329C7.63141 9.33329 7.33342 9.03463 7.33342 8.66663V4.66663C7.33342 4.29863 7.63141 3.99996 8.00008 3.99996C8.36808 3.99996 8.66675 4.29863 8.66675 4.66663V8.66663ZM8.00008 12C7.63141 12 7.33342 11.7013 7.33342 11.3333C7.33342 10.9653 7.63141 10.6666 8.00008 10.6666C8.36808 10.6666 8.66675 10.9653 8.66675 11.3333C8.66675 11.7013 8.36808 12 8.00008 12Z" fill="#232A31"/>
</svg>
