<svg xmlns="http://www.w3.org/2000/svg" width="36" height="36" viewBox="0 0 24 24">
  <path fill="#fff" d="M12.8761,3.518 L22.1851,20.518 C22.5511,21.184 22.0691,22 21.3091,22 L2.6911,22 C1.9311,22 1.4481,21.184 1.8151,20.518 L11.1241,3.518 C11.5041,2.827 12.4961,2.827 12.8761,3.518 Z M12.0001,18 C11.4471,18 11.0001,18.448 11.0001,19 C11.0001,19.552 11.4471,20 12.0001,20 C12.5521,20 13.0001,19.552 13.0001,19 C13.0001,18.448 12.5521,18 12.0001,18 Z M12.0001,10 C11.4471,10 11.0001,10.448 11.0001,11 L11.0001,11 L11.0001,15 C11.0001,15.552 11.4471,16 12.0001,16 C12.5521,16 13.0001,15.552 13.0001,15 L13.0001,15 L13.0001,11 C13.0001,10.448 12.5521,10 12.0001,10 Z"></path>
</svg>