<?xml version="1.0" encoding="UTF-8"?>
<svg width="40px" height="40px" viewBox="0 0 40 40" version="1.1" xmlns="http://www.w3.org/2000/svg" xmlns:xlink="http://www.w3.org/1999/xlink">
    <title>AOL</title>
    <g id="Page-1" stroke="none" stroke-width="1" fill="none" fill-rule="evenodd">
        <g id="Brand-assets" transform="translate(-130.000000, -21.000000)">
            <g id="AOL" transform="translate(130.000000, 21.000000)">
                <circle id="Oval" fill="#F1F1F5" cx="20" cy="20" r="20"></circle>
                <g id="Fill-2" transform="translate(5.000000, 14.000000)" fill="#000000">
                    <path d="M29.9992278,10.3679613 C29.9992278,9.47636129 29.2783398,8.75380645 28.3882625,8.75380645 C27.4999614,8.75380645 26.7792664,9.47636129 26.7792664,10.3679613 C26.7792664,11.2599484 27.4999614,11.982929 28.3882625,11.982929 C29.2783398,11.982929 29.9992278,11.2599484 29.9992278,10.3679613 L29.9992278,10.3679613 Z M16.530695,9.5367871 C15.3947104,9.5367871 14.4295753,8.60113548 14.4295753,7.31914839 C14.4295753,6.03464516 15.3947104,5.09949677 16.530695,5.09949677 C17.6689575,5.09949677 18.6326641,6.03464516 18.6326641,7.31914839 C18.6326641,8.60113548 17.6689575,9.5367871 16.530695,9.5367871 L16.530695,9.5367871 Z M16.530695,2.64499355 C13.3400772,2.64499355 11.8067181,5.16332903 11.8067181,7.31914839 C11.8067181,9.47264516 13.3400772,11.9925677 16.530695,11.9925677 C19.7228571,11.9925677 21.2564479,9.47264516 21.2564479,7.31914839 C21.2564479,5.16332903 19.7228571,2.64499355 16.530695,2.64499355 L16.530695,2.64499355 Z M5.84710425,3.64323871 L5.89401544,3.64323871 L7.09602317,7.65112258 L4.64517375,7.65112258 L5.84710425,3.64323871 Z M7.88559846,10.0271613 L8.45440154,11.7228774 L11.6932819,11.7228774 L7.04698842,0 L4.69351351,0 L0,11.7228774 L3.20891892,11.7228774 L3.82362934,10.0271613 L7.88559846,10.0271613 Z M22.6309266,11.7228774 L25.2534749,11.7228774 L25.2534749,0 L22.6309266,0 L22.6309266,11.7228774 Z" id="Fill-1"></path>
                </g>
            </g>
        </g>
    </g>
</svg>