<?xml version="1.0" encoding="UTF-8"?>
<svg width="40px" height="40px" viewBox="0 0 40 40" version="1.1" xmlns="http://www.w3.org/2000/svg" xmlns:xlink="http://www.w3.org/1999/xlink">
    <title>APP_icon_Store</title>
    <defs>
        <path d="M0.20109844,0.00207447767 C0.106815167,0.00207447767 0.0304475253,0.079095373 0.0308546988,0.17383789 L0.0308546988,0.17383789 L0.0386362357,2.17433637 C0.0390886506,2.2687608 0.115456292,2.34505466 0.209377633,2.34482746 L0.209377633,2.34482746 L2.16073374,2.33919289 C2.2654678,2.33892025 2.3455,2.43284484 2.32957499,2.53690258 L2.32957499,2.53690258 C2.13196015,3.82381041 1.37154113,5.33301099 0.103829228,6.08658888 L0.103829228,6.08658888 C0.0524801328,6.11717004 0.021444468,6.17310675 0.021444468,6.23304218 L0.021444468,6.23304218 L0.0212182068,8.23785747 C0.0212182068,8.35486558 0.135362549,8.43724842 0.245797036,8.40026025 L0.245797036,8.40026025 C3.13627607,7.43306863 4.28522904,4.36127539 4.48361299,2.4929166 L4.48361299,2.4929166 C4.4928875,2.40535361 4.56586203,2.33882937 4.65335908,2.33910201 L4.65335908,2.33910201 L6.62561676,2.34482746 C6.71935713,2.34505466 6.7953176,2.42134851 6.7953176,2.51559119 L6.7953176,2.51559119 C6.79549857,2.69766949 6.7953176,2.98807689 6.7934627,3.19610147 L6.7934627,3.19610147 C6.78816944,3.80331694 6.79142683,4.45819903 6.78645027,4.70216669 L6.78645027,4.70216669 C6.76220083,5.91037235 6.41157925,6.13407374 5.98965708,6.13407374 L5.98965708,6.13407374 C5.72065116,6.13407374 5.36206708,6.13352847 5.15164889,6.13352847 L5.15164889,6.13352847 C5.05763707,6.13361934 4.98176708,6.21023128 4.98176708,6.30470116 L4.98176708,6.30470116 L4.98226474,8.30583579 C4.98230998,8.400442 5.05849666,8.47714483 5.15255373,8.47696308 L5.15255373,8.47696308 C5.43472492,8.47641775 5.98201127,8.47569075 6.12216942,8.47728108 L6.12216942,8.47728108 C7.12689251,8.48936817 9.11693008,8.08145279 9.11693008,4.98743937 L9.11693008,4.98743937 L9.11670392,0.173201729 C9.11670392,0.0786864125 9.040472,0.00207447767 8.94650542,0.00207447767 L8.94650542,0.00207447767 L0.20109844,0.00207447767 Z" id="path-1"></path>
        <path d="M0.20109844,0.00207447767 C0.106815167,0.00207447767 0.0304475253,0.079095373 0.0308546988,0.17383789 L0.0308546988,0.17383789 L0.0386362357,2.17433637 C0.0390886506,2.2687608 0.115456292,2.34505466 0.209377633,2.34482746 L0.209377633,2.34482746 L2.16073374,2.33919289 C2.2654678,2.33892025 2.3455,2.43284484 2.32957499,2.53690258 L2.32957499,2.53690258 C2.13196015,3.82381041 1.37154113,5.33301099 0.103829228,6.08658888 L0.103829228,6.08658888 C0.0524801328,6.11717004 0.021444468,6.17310675 0.021444468,6.23304218 L0.021444468,6.23304218 L0.0212182068,8.23785747 C0.0212182068,8.35486558 0.135362549,8.43724842 0.245797036,8.40026025 L0.245797036,8.40026025 C3.13627607,7.43306863 4.28522904,4.36127539 4.48361299,2.4929166 L4.48361299,2.4929166 C4.4928875,2.40535361 4.56586203,2.33882937 4.65335908,2.33910201 L4.65335908,2.33910201 L6.62561676,2.34482746 C6.71935713,2.34505466 6.7953176,2.42134851 6.7953176,2.51559119 L6.7953176,2.51559119 C6.79549857,2.69766949 6.7953176,2.98807689 6.7934627,3.19610147 L6.7934627,3.19610147 C6.78816944,3.80331694 6.79142683,4.45819903 6.78645027,4.70216669 L6.78645027,4.70216669 C6.76220083,5.91037235 6.41157925,6.13407374 5.98965708,6.13407374 L5.98965708,6.13407374 C5.72065116,6.13407374 5.36206708,6.13352847 5.15164889,6.13352847 L5.15164889,6.13352847 C5.05763707,6.13361934 4.98176708,6.21023128 4.98176708,6.30470116 L4.98176708,6.30470116 L4.98226474,8.30583579 C4.98230998,8.400442 5.05849666,8.47714483 5.15255373,8.47696308 L5.15255373,8.47696308 C5.43472492,8.47641775 5.98201127,8.47569075 6.12216942,8.47728108 L6.12216942,8.47728108 C7.12689251,8.48936817 9.11693008,8.08145279 9.11693008,4.98743937 L9.11693008,4.98743937 L9.11670392,0.173201729 C9.11670392,0.0786864125 9.040472,0.00207447767 8.94650542,0.00207447767 L8.94650542,0.00207447767 L0.20109844,0.00207447767 Z" id="path-3"></path>
        <path d="M4.09087651,0.00996557217 C4.012685,0.00996557217 3.94919115,0.0737337027 3.94919115,0.152725962 L3.94919115,0.152725962 L3.94715609,2.21737303 C3.94715609,2.2963197 3.88361701,2.36036132 3.8054255,2.36036132 L3.8054255,2.36036132 L0.563168786,2.36036132 C0.271205589,2.36036132 0.0345507872,2.5990246 0.0345507872,2.89329697 L0.0345507872,2.89329697 L0.0345507872,4.17791257 C0.0345507872,4.47227612 0.271296037,4.71089382 0.56334968,4.71089382 L0.56334968,4.71089382 L3.42043748,4.71089382 C3.7124459,4.71089382 3.94919115,4.94951152 3.94919115,5.24378389 L3.94919115,5.24378389 L3.94919115,6.94209467 C3.94919115,7.02104134 3.88565207,7.08512854 3.80737012,7.08512854 L3.80737012,7.08512854 L0.175919583,7.08398901 C0.0977280775,7.08398901 0.0341437752,7.14807621 0.0341437752,7.22697731 L0.0341437752,7.22697731 L0.0345507872,9.26878817 C0.0345507872,9.34778042 0.097954195,9.4117765 0.176236148,9.4117765 L0.176236148,9.4117765 L3.84960891,9.4117765 C3.92734818,9.4117765 3.99052547,9.47508883 3.99142993,9.5534885 L3.99142993,9.5534885 C3.99717333,10.1551151 4.02019211,12.5477646 4.02697564,14.2691395 L4.02697564,14.2691395 C4.02846802,14.6231232 3.59902525,14.7956026 3.35839078,14.5377952 L3.35839078,14.5377952 C3.01641034,14.1713222 2.63653258,13.7685665 2.46065822,13.5713821 L2.46065822,13.5713821 C2.39648601,13.4995917 2.36121165,13.406606 2.36139254,13.3099282 L2.36139254,13.3099282 L2.36374417,11.9019698 C2.36374417,11.8229776 2.30015987,11.7588904 2.22192313,11.7588904 L2.22192313,11.7588904 L0.562761773,11.7588904 C0.270617683,11.7588904 0.0339176575,11.9975537 0.0339176575,12.2919172 L0.0339176575,12.2919172 L0.0339176575,21.0426459 C0.0339176575,21.3370094 0.270617683,21.5756727 0.562761773,21.5756727 L0.562761773,21.5756727 L2.20066807,21.5756727 C2.27831689,21.5756727 2.34158463,21.5124516 2.34244388,21.4340518 L2.34244388,21.4340518 L2.34882039,18.5709129 C2.34954398,18.2446426 2.72453759,18.0627279 2.97683974,18.2672508 L2.97683974,18.2672508 C5.5743444,20.3726475 9.00654,21.326389 13.1191238,21.2767055 L13.1191238,21.2767055 C13.1536294,21.2762041 18.9218019,21.2688655 20.4817428,21.2668599 L20.4817428,21.2668599 C20.6947004,21.266632 20.8673639,21.0928764 20.8679971,20.8781432 L20.8679971,20.8781432 L20.8736077,19.0172898 C20.8741927,18.8006423 20.6995393,18.6249722 20.4845918,18.626203 L20.4845918,18.626203 L13.4071977,18.6649926 C10.9976422,18.7380137 8.57700675,18.2376687 6.52489806,17.1319593 L6.52489806,17.1319593 C6.39804603,17.0635875 6.31827169,16.9309462 6.31858826,16.7859978 L6.31858826,16.7859978 L6.32356284,14.2742446 C6.32356284,14.1954802 6.3870567,14.131393 6.46524821,14.131393 L6.46524821,14.131393 L9.63320267,14.131393 C9.92525625,14.131393 10.1619563,13.8928665 10.1619563,13.5985485 L10.1619563,13.5985485 L10.1619563,12.3164855 C10.1619563,12.0221219 9.92521108,11.7835042 9.63311217,11.7835042 L9.63311217,11.7835042 L6.46524821,11.7835042 C6.3870567,11.7835042 6.32356284,11.719417 6.32356284,11.6407438 L6.32356284,11.6407438 L6.31980929,9.55522058 C6.31958318,9.47600042 6.38303181,9.4117765 6.46163033,9.4117765 L6.46163033,9.4117765 L10.0179646,9.4117765 C10.0961561,9.4117765 10.1596499,9.34778042 10.1596499,9.26906167 L10.1596499,9.26906167 L10.161685,7.20446018 C10.161685,7.12546792 10.0984173,7.06138072 10.0198639,7.06138072 L10.0198639,7.06138072 L6.80736431,7.06138072 C6.51540112,7.06138072 6.27870109,6.82276302 6.27870109,6.52849065 L6.27870109,6.52849065 L6.27870109,5.24387505 C6.27870109,4.9495571 6.51544634,4.71089382 6.80759043,4.71089382 L6.80759043,4.71089382 L10.0159295,4.71089382 C10.0942114,4.71089382 10.1577053,4.64703452 10.1577053,4.56813342 L10.1577053,4.56813342 L10.1613684,2.50371427 C10.1613684,2.4244941 10.0978746,2.36036132 10.0195473,2.36036132 L10.0195473,2.36036132 L6.42644641,2.36036132 C6.34816445,2.36036132 6.28498717,2.29659319 6.2846706,2.21760093 L6.2846706,2.21760093 L6.279289,0.152406893 C6.27897243,0.0737337027 6.21543335,0.00996557217 6.13746797,0.00996557217 L6.13746797,0.00996557217 L4.09087651,0.00996557217 Z M3.88818459,17.0779 L3.97703308,17.1037778 C3.9669192,17.1108516 3.95680533,17.1143438 3.94662743,17.1143438 L3.94662743,17.1143438 C3.92761591,17.1143438 3.90834833,17.102166 3.88818459,17.0779 L3.88818459,17.0779 Z" id="path-5"></path>
        <path d="M4.08867153,0.00996436992 C4.01052217,0.00996436992 3.94706253,0.0737248074 3.94706253,0.152707537 L3.94706253,0.152707537 L3.94502857,2.21710552 C3.94502857,2.29604268 3.88152374,2.36007657 3.80337438,2.36007657 L3.80337438,2.36007657 L0.562865238,2.36007657 C0.27105941,2.36007657 0.0345321643,2.59871105 0.0345321643,2.89294793 L0.0345321643,2.89294793 L0.0345321643,4.17740855 C0.0345321643,4.47173657 0.271149808,4.71032548 0.563046034,4.71032548 L0.563046034,4.71032548 L3.41859386,4.71032548 C3.71044489,4.71032548 3.94706253,4.9489144 3.94706253,5.24315127 L3.94706253,5.24315127 L3.94706253,6.94125716 C3.94706253,7.02019432 3.8835577,7.08427378 3.80531794,7.08427378 L3.80531794,7.08427378 L0.175824763,7.08313438 C0.0976754017,7.08313438 0.0341253718,7.14721386 0.0341253718,7.22610543 L0.0341253718,7.22610543 L0.0345321643,9.26767 C0.0345321643,9.34665267 0.0979013975,9.410641 0.176141158,9.410641 L0.176141158,9.410641 L3.84753397,9.410641 C3.92523133,9.410641 3.98837458,9.47394567 3.98927856,9.55233592 L3.98927856,9.55233592 C3.99501885,10.1538899 4.01802523,12.5462508 4.0248051,14.267418 L4.0248051,14.267418 C4.02629668,14.6213591 3.59708538,14.7938177 3.3565806,14.5360413 L3.3565806,14.5360413 C3.01478449,14.1696125 2.63511148,13.7669054 2.45933193,13.5697448 L2.45933193,13.5697448 C2.3951943,13.4979631 2.35993895,13.4049886 2.36011975,13.3083225 L2.36011975,13.3083225 L2.36247011,11.900534 C2.36247011,11.8215512 2.29892008,11.7574718 2.22072552,11.7574718 L2.22072552,11.7574718 L0.562458445,11.7574718 C0.270471821,11.7574718 0.0338993759,11.9961063 0.0338993759,12.2904342 L0.0338993759,12.2904342 L0.0338993759,21.0401072 C0.0338993759,21.3344353 0.270471821,21.5730698 0.562458445,21.5730698 L0.562458445,21.5730698 L2.19948191,21.5730698 C2.27708888,21.5730698 2.34032252,21.5098562 2.3411813,21.431466 L2.3411813,21.431466 L2.34755438,18.5686725 C2.34827757,18.2424415 2.72306907,18.0605487 2.97523523,18.2650471 L2.97523523,18.2650471 C5.57133983,20.3701898 9.0016855,21.3238162 13.1120526,21.2741387 L13.1120526,21.2741387 C13.1465396,21.2736373 18.911603,21.2662996 20.4707031,21.2642943 L20.4707031,21.2642943 C20.683546,21.2640664 20.8561164,21.0903318 20.8567493,20.8756245 L20.8567493,20.8756245 L20.8623569,19.0149956 C20.8629415,18.7983742 20.6883823,18.6227253 20.4735507,18.6239558 L20.4735507,18.6239558 L13.3999713,18.6627408 C10.9917144,18.7357531 8.57238375,18.2354684 6.52138113,17.1298925 L6.52138113,17.1298925 C6.39459748,17.0615289 6.31486614,16.9289036 6.31518253,16.7839728 L6.31518253,16.7839728 L6.32015444,14.2725225 C6.32015444,14.1937677 6.38361408,14.1296882 6.46176343,14.1296882 L6.46176343,14.1296882 L9.62801033,14.1296882 C9.91990658,14.1296882 10.156479,13.8911904 10.156479,13.596908 L10.156479,13.596908 L10.156479,12.3149996 C10.156479,12.0206716 9.91986133,11.7820827 9.62791992,11.7820827 L9.62791992,11.7820827 L6.46176343,11.7820827 C6.38361408,11.7820827 6.32015444,11.7180032 6.32015444,11.6393395 L6.32015444,11.6393395 L6.31640291,9.55406783 C6.31617692,9.47485725 6.37959135,9.410641 6.4581475,9.410641 L6.4581475,9.410641 L10.0125648,9.410641 C10.0907143,9.410641 10.1541738,9.34665267 10.1541738,9.26794342 L10.1541738,9.26794342 L10.1562078,7.20359102 C10.1562078,7.12460829 10.0929742,7.06052883 10.0144633,7.06052883 L10.0144633,7.06052883 L6.80369514,7.06052883 C6.51188931,7.06052883 6.27531687,6.82193992 6.27531687,6.52770304 L6.27531687,6.52770304 L6.27531687,5.24324242 C6.27531687,4.94895997 6.51193451,4.71032548 6.80392113,4.71032548 L6.80392113,4.71032548 L10.0105309,4.71032548 C10.0887707,4.71032548 10.1522303,4.64647389 10.1522303,4.56758232 L10.1522303,4.56758232 L10.1558914,2.50341222 C10.1558914,2.42420161 10.0924318,2.36007657 10.0141468,2.36007657 L10.0141468,2.36007657 L6.42298255,2.36007657 C6.34474279,2.36007657 6.28159955,2.29631613 6.28128316,2.2173334 L6.28128316,2.2173334 L6.27590446,0.152388507 C6.27558806,0.0737248074 6.21208323,0.00996436992 6.13415987,0.00996436992 L6.13415987,0.00996436992 L4.08867153,0.00996436992 Z M3.88608886,17.0758397 L3.97488945,17.1017143 C3.96478103,17.1087873 3.9546726,17.1123686 3.94443623,17.1123686 L3.94443623,17.1123686 C3.92549892,17.1123686 3.90624173,17.1001028 3.88608886,17.0758397 L3.88608886,17.0758397 Z" id="path-7"></path>
    </defs>
    <g id="taiwan-app-icons" stroke="none" stroke-width="1" fill="none" fill-rule="evenodd">
        <g id="tw-store" transform="translate(-33.000000, -409.000000)">
            <g id="APP_icon_Store" transform="translate(33.000000, 409.000000)">
                <rect id="Background" fill="#00B3FF" fill-rule="nonzero" x="0" y="0" width="40" height="40" rx="8"></rect>
                <g id="logo-pixel-hint" transform="translate(7.187500, 28.203125)" fill="#FFFFFF" fill-rule="nonzero">
                    <path d="M24.0234375,4.140625 C23.5546875,4.140625 23.171875,4.5234375 23.171875,4.9921875 C23.171875,5.453125 23.53125,5.8125 23.9921875,5.8125 C24.46875,5.8125 24.84375,5.4375 24.84375,4.9609375 C24.84375,4.5 24.4921875,4.140625 24.0234375,4.140625 Z" id="Path"></path>
                    <polygon id="Path" points="25.234375 0.0390625 23.796875 3.5546875 25.2578125 3.5546875 26.703125 0.0390625"></polygon>
                    <path d="M20.6484375,1.734375 C19.4609375,1.734375 18.5703125,2.609375 18.5703125,3.7734375 C18.5703125,4.9375 19.4609375,5.8125 20.6484375,5.8125 C21.8359375,5.8125 22.7265625,4.9375 22.7265625,3.7734375 C22.7265625,2.609375 21.828125,1.734375 20.6484375,1.734375 Z M20.6796875,4.78125 C20.1484375,4.78125 19.75,4.3671875 19.75,3.8125 C19.75,3.2578125 20.1484375,2.84375 20.6796875,2.84375 C21.2109375,2.84375 21.609375,3.2578125 21.609375,3.8125 C21.6171875,4.3671875 21.2109375,4.78125 20.6796875,4.78125 Z" id="Shape"></path>
                    <path d="M15.9765625,1.734375 C14.7890625,1.734375 13.8984375,2.609375 13.8984375,3.7734375 C13.8984375,4.9375 14.7890625,5.8125 15.9765625,5.8125 C17.1640625,5.8125 18.0546875,4.9375 18.0546875,3.7734375 C18.0546875,2.609375 17.1640625,1.734375 15.9765625,1.734375 Z M16.015625,4.78125 C15.484375,4.78125 15.0859375,4.3671875 15.0859375,3.8125 C15.0859375,3.2578125 15.484375,2.84375 16.015625,2.84375 C16.546875,2.84375 16.9453125,3.2578125 16.9453125,3.8125 C16.9453125,4.3671875 16.546875,4.78125 16.015625,4.78125 Z" id="Shape"></path>
                    <path d="M12.078125,1.765625 C11.65625,1.765625 11.3203125,1.921875 11.078125,2.2265625 L10.8671875,2.484375 L10.8671875,2.1484375 L10.8671875,0.0390625 L9.6484375,0.0390625 L9.6484375,5.75 L10.875,5.75 L10.875,3.671875 C10.875,3.1875 11.1328125,2.875 11.53125,2.875 C11.921875,2.875 12.1484375,3.15625 12.1484375,3.625 L12.1484375,5.75 L13.375,5.75 L13.375,3.2734375 C13.3828125,2.34375 12.8828125,1.765625 12.078125,1.765625 Z" id="Path"></path>
                    <path d="M6.5390625,1.734375 C6.0390625,1.734375 5.5703125,1.9453125 5.2265625,2.3359375 C4.8828125,2.71875 4.6953125,3.234375 4.6953125,3.7734375 C4.6953125,4.9375 5.484375,5.8125 6.53125,5.8125 C6.9609375,5.8125 7.3359375,5.6484375 7.5390625,5.3671875 L7.75,5.078125 L7.75,5.4375 L7.75,5.703125 L8.9140625,5.703125 L8.9140625,1.8359375 L7.75,1.8359375 L7.75,2.1015625 L7.75,2.4453125 L7.5390625,2.171875 C7.34375,1.90625 6.953125,1.734375 6.5390625,1.734375 Z M7.8125,3.8125 C7.8125,4.3515625 7.390625,4.78125 6.8515625,4.78125 C6.3046875,4.78125 5.8828125,4.359375 5.8828125,3.8125 C5.8828125,3.2734375 6.3125,2.84375 6.8515625,2.84375 C7.390625,2.84375 7.8125,3.2734375 7.8125,3.8125 Z" id="Shape"></path>
                    <polygon id="Path" points="3.40625 1.875 2.484375 4.2265625 2.375 4.5078125 2.265625 4.2265625 1.34375 1.875 0.0234375 1.875 1.7109375 5.875 1.734375 5.921875 1.7109375 5.96875 1.1484375 7.3046875 2.4453125 7.3046875 4.6953125 1.875"></polygon>
                </g>
                <g id="超" transform="translate(10.000000, 4.000000)">
                    <path d="M20.7197278,1.05121798 C20.7197278,0.95665255 20.6432931,0.88 20.5490312,0.88 L11.7804041,0.88 C11.68587,0.88 11.6093446,0.957061725 11.6097528,1.05189994 L11.6175551,3.05345901 C11.6179633,3.14793351 11.6945341,3.22426781 11.7887053,3.22404049 L13.7452527,3.21835747 C13.8502653,3.21808468 13.9305104,3.31210454 13.9144977,3.4162629 C13.7163572,4.70380754 12.9539605,6.21385372 11.6828308,6.96778567 C11.6313451,6.99833757 11.6002722,7.05430394 11.6002722,7.11431662 L11.6,9.12019475 C11.6,9.23726492 11.714448,9.319646 11.8252216,9.28268367 C14.7233903,8.31502473 15.8753997,5.24151201 16.0743115,3.37220814 C16.083656,3.28464419 16.1567793,3.21803922 16.2445545,3.21831201 L18.2219682,3.22404049 C18.3160488,3.22426781 18.3921206,3.30060211 18.3921659,3.39489475 C18.392302,3.57706959 18.3921206,3.86767642 18.3903061,4.07572035 C18.3849988,4.68330321 18.3882648,5.33857796 18.383275,5.58258404 C18.3589157,6.79147571 18.0074521,7.01525023 17.5844075,7.01525023 C17.3146406,7.01525023 16.9551479,7.0146592 16.7441246,7.01475013 C16.649908,7.01479559 16.5737908,7.09144815 16.5738362,7.18601358 L16.5742897,9.18820917 C16.5743352,9.2828655 16.6507245,9.3595635 16.7450772,9.35938167 C17.0279537,9.35888158 17.5766959,9.35810867 17.7172723,9.35974533 C18.7246683,9.37183883 20.72,8.96370717 20.72,5.86805342 L20.7197278,1.05121798 Z" id="Fill-1" fill="#FFFFFF" fill-rule="nonzero"></path>
                    <g id="Group-6" transform="translate(11.600000, 1.040000)">
                        <g id="Fill-3-Clipped">
                            <mask id="mask-2" fill="white">
                                <use xlink:href="#path-1"></use>
                            </mask>
                            <g id="path-1"></g>
                            <polygon id="Fill-3" fill="#FFFFFF" fill-rule="nonzero" mask="url(#mask-2)" points="-223.492979 269.606425 32.6259032 269.606425 32.6259032 -55.5580276 -223.492979 -55.5580276"></polygon>
                        </g>
                        <g id="Fill-5-Clipped">
                            <mask id="mask-4" fill="white">
                                <use xlink:href="#path-3"></use>
                            </mask>
                            <g id="path-1"></g>
                            <polygon id="Fill-5" fill="#FFFFFF" fill-rule="nonzero" mask="url(#mask-4)" points="-0.9504333 9.45342442 10.0886269 9.45342442 10.0886269 -0.973841608 -0.9504333 -0.973841608"></polygon>
                        </g>
                    </g>
                    <path d="M19.7303059,10.809489 C19.2918774,10.3391299 18.7073959,10.08 18.0853912,10.08 C17.4499662,10.08 16.893223,10.24859 16.0568516,11.2112684 C16.0055042,11.2704236 15.9146586,11.2704693 15.8632213,11.2113599 C15.0161226,10.2368322 14.459559,10.08 13.8351755,10.08 C13.212318,10.08 12.6285546,10.3391299 12.1902159,10.809489 C11.2965274,11.7675468 11.2965274,13.3277703 12.1906198,14.2866972 L15.8692358,17.9621873 C15.9196856,18.0126042 16.0003873,18.0126042 16.050882,17.9621873 L19.7303059,14.2858738 C20.6232313,13.3277703 20.6232313,11.7675468 19.7303059,10.809489" id="Fill-7" fill="#FCDA19" fill-rule="nonzero"></path>
                    <path d="M3.92696302,17.03176 L4.01570967,17.0576958 C3.98670248,17.0778184 3.95782308,17.0689645 3.92696302,17.03176 L3.92696302,17.03176 Z M13.4277808,18.6154888 C11.0228647,18.6883553 8.60689,18.1890706 6.55864898,17.0857048 C6.43203882,17.0174778 6.35241659,16.8851176 6.35273256,16.7404765 L6.35769766,14.2340013 C6.35769766,14.1554948 6.42107045,14.091498 6.499158,14.091498 L9.661072,14.091498 C9.95252367,14.091498 10.1887723,13.853477 10.1887723,13.5597828 L10.1887723,12.2804825 C10.1887723,11.9866973 9.95243333,11.7485854 9.66093658,11.7485854 L6.499158,11.7485854 C6.42107045,11.7485854 6.35769766,11.684634 6.35769766,11.6061276 L6.3539964,9.52502442 C6.35372557,9.44592667 6.41705322,9.38192983 6.49545674,9.38192983 L10.04501,9.38192983 C10.1230976,9.38192983 10.1865155,9.31802392 10.1865155,9.2395175 L10.1885015,7.17924633 C10.1885015,7.10042149 10.1253544,7.03651561 10.0469509,7.03651561 L6.84062178,7.03651561 C6.54921528,7.03651561 6.31292144,6.79840364 6.31292144,6.50475496 L6.31292144,5.22286203 C6.31292144,4.92912238 6.54926042,4.69096492 6.84080233,4.69096492 L10.0430239,4.69096492 C10.1211115,4.69096492 10.1845294,4.62728646 10.1845294,4.54846162 L10.1881856,2.48850883 C10.1881856,2.40941109 10.1248127,2.34545972 10.0466801,2.34545972 L6.46043018,2.34545972 C6.38225236,2.34545972 6.31919553,2.28182674 6.31887957,2.20295642 L6.31350823,0.142139426 C6.31319227,0.063632978 6.24981948,0 6.17195761,0 L4.12931359,0 C4.05122604,0 3.98785325,0.063632978 3.98785325,0.142457818 L3.98586721,2.20272899 C3.98586721,2.28150835 3.92244928,2.34545972 3.84436173,2.34545972 L0.608332262,2.34545972 C0.316880625,2.34545972 0.0806319224,2.5835262 0.0806319224,2.87722037 L0.0806319224,4.15906782 C0.0806319224,4.45285296 0.316925763,4.69096492 0.608422537,4.69096492 L3.46015291,4.69096492 C3.75155941,4.69096492 3.98785325,4.92907688 3.98785325,5.22272557 L3.98785325,6.91743688 C3.98785325,6.99621624 3.92443532,7.06021309 3.84634777,7.06021309 L0.221821441,7.05903049 C0.143733887,7.05903049 0.0802708239,7.12293638 0.0802708239,7.20176122 L0.0806319224,9.23919908 C0.0806319224,9.31802392 0.143959574,9.38192983 0.222137402,9.38192983 L3.88846088,9.38192983 C3.96605193,9.38192983 4.02915389,9.4450625 4.0300115,9.523296 C4.03578908,10.123602 4.0586737,12.5111805 4.06553457,14.228998 C4.06697897,14.5822315 3.63835502,14.7542998 3.39822452,14.4970388 C3.05685101,14.1313425 2.67774271,13.7294859 2.50215856,13.5327195 C2.43815384,13.4610357 2.4029016,13.3682471 2.40308215,13.2718197 L2.40542929,11.8667999 C2.40542929,11.7879751 2.34201137,11.7240692 2.26387867,11.7240692 L0.60788089,11.7240692 C0.316338978,11.7240692 0.08,11.9621812 0.08,12.2559208 L0.08,20.9881029 C0.08,21.2818426 0.316338978,21.52 0.60788089,21.52 L2.24266413,21.52 C2.32016491,21.52 2.38335714,21.4569128 2.38416962,21.3786793 L2.39053397,18.5216541 C2.39125617,18.1960298 2.76553478,18.0145461 3.017401,18.2186356 C5.60990777,20.3195245 9.03555908,21.2712447 13.1402562,21.2216664 C13.1747411,21.2211661 18.9319152,21.2138431 20.4888817,21.2118873 C20.7014785,21.2116143 20.8737225,21.0381815 20.8743996,20.8239489 L20.88,18.9670849 C20.8806285,18.7508966 20.7062631,18.5755988 20.4916802,18.5767814 L13.4277808,18.6154888 Z" id="Fill-13" fill="#FFFFFF" fill-rule="nonzero"></path>
                    <g id="Group-17">
                        <g id="Fill-15-Clipped">
                            <mask id="mask-6" fill="white">
                                <use xlink:href="#path-5"></use>
                            </mask>
                            <g id="path-3"></g>
                            <polygon id="Fill-15" fill="#FFFFFF" fill-rule="nonzero" mask="url(#mask-6)" points="-211.827078 271.401203 44.1901854 271.401203 44.1901854 -54.7734223 -211.827078 -54.7734223"></polygon>
                        </g>
                    </g>
                    <g id="Group-20">
                        <g id="Fill-18-Clipped">
                            <mask id="mask-8" fill="white">
                                <use xlink:href="#path-7"></use>
                            </mask>
                            <g id="path-5"></g>
                            <polygon id="Fill-18" fill="#FFFFFF" fill-rule="nonzero" mask="url(#mask-8)" points="-0.93684315 22.5518541 21.8341813 22.5518541 21.8341813 -0.96886545 -0.93684315 -0.96886545"></polygon>
                        </g>
                    </g>
                </g>
            </g>
        </g>
    </g>
</svg>