<?xml version="1.0" encoding="UTF-8"?>
<svg width="40px" height="40px" viewBox="0 0 40 40" version="1.1" xmlns="http://www.w3.org/2000/svg" xmlns:xlink="http://www.w3.org/1999/xlink">
    <title>APP_icon_Shopping</title>
    <defs>
        <linearGradient x1="107.979446%" y1="109.981929%" x2="31.7643229%" y2="27.2330729%" id="linearGradient-1">
            <stop stop-color="#F26591" offset="0%"></stop>
            <stop stop-color="#A464F3" offset="50.4109465%"></stop>
            <stop stop-color="#7A4DFF" offset="100%"></stop>
        </linearGradient>
    </defs>
    <g id="taiwan-app-icons" stroke="none" stroke-width="1" fill="none" fill-rule="evenodd">
        <g id="tw-shopping" transform="translate(-33.000000, -409.000000)" fill-rule="nonzero">
            <g id="APP_icon_Shopping" transform="translate(33.000000, 409.000000)">
                <rect id="Background" fill="url(#linearGradient-1)" x="0" y="0" width="40" height="40" rx="8"></rect>
                <g id="logo-pixel-hint" transform="translate(7.187500, 4.000000)">
                    <g id="Group" transform="translate(0.000000, 24.203125)" fill="#FFFFFF">
                        <path d="M24.0234375,4.140625 C23.5546875,4.140625 23.171875,4.5234375 23.171875,4.9921875 C23.171875,5.453125 23.53125,5.8125 23.9921875,5.8125 C24.46875,5.8125 24.84375,5.4375 24.84375,4.9609375 C24.84375,4.5 24.4921875,4.140625 24.0234375,4.140625 Z" id="Path"></path>
                        <polygon id="Path" points="25.234375 0.0390625 23.796875 3.5546875 25.2578125 3.5546875 26.703125 0.0390625"></polygon>
                        <path d="M20.6484375,1.734375 C19.4609375,1.734375 18.5703125,2.609375 18.5703125,3.7734375 C18.5703125,4.9375 19.4609375,5.8125 20.6484375,5.8125 C21.8359375,5.8125 22.7265625,4.9375 22.7265625,3.7734375 C22.7265625,2.609375 21.828125,1.734375 20.6484375,1.734375 Z M20.6796875,4.78125 C20.1484375,4.78125 19.75,4.3671875 19.75,3.8125 C19.75,3.2578125 20.1484375,2.84375 20.6796875,2.84375 C21.2109375,2.84375 21.609375,3.2578125 21.609375,3.8125 C21.6171875,4.3671875 21.2109375,4.78125 20.6796875,4.78125 Z" id="Shape"></path>
                        <path d="M15.9765625,1.734375 C14.7890625,1.734375 13.8984375,2.609375 13.8984375,3.7734375 C13.8984375,4.9375 14.7890625,5.8125 15.9765625,5.8125 C17.1640625,5.8125 18.0546875,4.9375 18.0546875,3.7734375 C18.0546875,2.609375 17.1640625,1.734375 15.9765625,1.734375 Z M16.015625,4.78125 C15.484375,4.78125 15.0859375,4.3671875 15.0859375,3.8125 C15.0859375,3.2578125 15.484375,2.84375 16.015625,2.84375 C16.546875,2.84375 16.9453125,3.2578125 16.9453125,3.8125 C16.9453125,4.3671875 16.546875,4.78125 16.015625,4.78125 Z" id="Shape"></path>
                        <path d="M12.078125,1.765625 C11.65625,1.765625 11.3203125,1.921875 11.078125,2.2265625 L10.8671875,2.484375 L10.8671875,2.1484375 L10.8671875,0.0390625 L9.6484375,0.0390625 L9.6484375,5.75 L10.875,5.75 L10.875,3.671875 C10.875,3.1875 11.1328125,2.875 11.53125,2.875 C11.921875,2.875 12.1484375,3.15625 12.1484375,3.625 L12.1484375,5.75 L13.375,5.75 L13.375,3.2734375 C13.3828125,2.34375 12.8828125,1.765625 12.078125,1.765625 Z" id="Path"></path>
                        <path d="M6.5390625,1.734375 C6.0390625,1.734375 5.5703125,1.9453125 5.2265625,2.3359375 C4.8828125,2.71875 4.6953125,3.234375 4.6953125,3.7734375 C4.6953125,4.9375 5.484375,5.8125 6.53125,5.8125 C6.9609375,5.8125 7.3359375,5.6484375 7.5390625,5.3671875 L7.75,5.078125 L7.75,5.4375 L7.75,5.703125 L8.9140625,5.703125 L8.9140625,1.8359375 L7.75,1.8359375 L7.75,2.1015625 L7.75,2.4453125 L7.5390625,2.171875 C7.34375,1.90625 6.953125,1.734375 6.5390625,1.734375 Z M7.8125,3.8125 C7.8125,4.3515625 7.390625,4.78125 6.8515625,4.78125 C6.3046875,4.78125 5.8828125,4.359375 5.8828125,3.8125 C5.8828125,3.2734375 6.3125,2.84375 6.8515625,2.84375 C7.390625,2.84375 7.8125,3.2734375 7.8125,3.8125 Z" id="Shape"></path>
                        <polygon id="Path" points="3.40625 1.875 2.484375 4.2265625 2.375 4.5078125 2.265625 4.2265625 1.34375 1.875 0.0234375 1.875 1.7109375 5.875 1.734375 5.921875 1.7109375 5.96875 1.1484375 7.3046875 2.4453125 7.3046875 4.6953125 1.875"></polygon>
                    </g>
                    <g id="購" transform="translate(1.479167, 0.000000)">
                        <path d="M21.6568149,12.1179396 C21.6236709,11.8653694 21.3708396,11.6496953 21.2642368,11.5647398 L19.1144687,9.65175275 L17.8246079,9.65175275 L19.7593992,11.989848 C19.7593992,11.989848 19.974376,12.2284848 19.974376,12.2668079 C19.974376,12.3344246 19.974376,12.4149562 19.974376,12.4149562 C19.974376,12.4149562 19.3294456,20.7045664 19.3294456,20.7045664 C19.3294456,20.7045664 22.3472919,20.1239978 22.3391375,20.0669041 L21.6568149,12.1179396 Z" id="Fill-2" fill="#FFFFFF"></path>
                        <path d="M18.6289207,6.78736163 L18.6289207,5.51473132 L21.2086518,5.51473132 L21.2086518,4.02999597 L18.6289207,4.02999597 L18.6289207,2.96947071 L21.638607,2.96947071 L21.638607,1.27263031 L18.6289207,1.27263031 L18.6289207,0 L16.6941223,0 L16.6941223,1.27263031 L13.0395032,1.27263031 L13.0395032,0 L11.1047048,0 L11.1047048,1.27263031 L8.09501845,1.27263031 L8.09501845,2.96947071 L11.1047048,2.96947071 L11.1047048,4.02999597 L8.52497367,4.02999597 L8.52497367,5.51473132 L11.1047048,5.51473132 L11.1047048,6.78736163 L8.09501845,6.78736163 L8.09501845,8.484202 L21.638607,8.484202 L21.638607,6.78736163 L18.6289207,6.78736163 L18.6289207,6.78736163 Z M13.0395032,5.51473132 L16.9090999,5.51473132 L16.9090999,6.78736163 L13.0395032,6.78736163 L13.0395032,5.51473132 Z M13.0395032,2.96947071 L16.9090999,2.96947071 L16.9090999,4.24210102 L13.0395032,4.24210102 L13.0395032,2.96947071 Z" id="Fill-3" fill="#FAFAFA"></path>
                        <path d="M0.856203875,15.6451799 L7.00530443,15.6451799 L7.00530443,0.622693727 L0.856203875,0.622693727 L0.856203875,15.6451799 Z M2.76454543,10.990325 L5.09696288,10.990325 L5.09696288,13.9525054 L2.76454543,13.9525054 L2.76454543,10.990325 Z M2.76454543,6.54705447 L5.09696288,6.54705447 L5.09696288,9.2976505 L2.76454543,9.2976505 L2.76454543,6.54705447 Z M2.76454543,2.31536823 L5.09696288,2.31536823 L5.09696288,4.85437997 L2.76454543,4.85437997 L2.76454543,2.31536823 Z" id="Fill-4" fill="#FAFAFA"></path>
                        <polyline id="Fill-5" fill="#FAFAFA" points="16.3598625 10.1966098 14.1662823 9.76850783 14.6049983 7.62799816 16.5792205 7.84204913 16.3598625 10.1966098"></polyline>
                        <path d="M0,20.2486657 L1.92645872,21.09375 C2.53114262,19.9156312 3.02986292,18.4356811 3.4248155,16.6570572 L1.49835678,16.6570572 C1.0536561,18.1168786 0.545309868,19.3479832 0,20.2486657" id="Fill-6" fill="#FAFAFA"></path>
                        <path d="M6.19580258,20.4710563 L7.93934502,19.8353898 C7.80814967,19.3717953 7.01607597,17.3089446 6.63168819,16.6570572 L4.67020295,16.6570572 C4.67020295,16.6570572 6.19580258,19.8353898 6.19580258,20.4710563 Z" id="Fill-7" fill="#FAFAFA"></path>
                        <path d="M18.8850827,12.2195292 L15.6604767,8.629874 C15.443632,8.450468 14.9882564,8.3743785 14.8005818,8.41871775 L10.0711597,10.7414358 C9.87550125,10.8821207 9.87550125,11.0268492 9.856186,11.1637482 L8.56634367,19.1876834 C8.53222708,19.4970172 8.70322692,19.7306168 8.99629108,19.821152 L16.9503191,21.0880892 C17.1895829,21.1229095 17.2958594,20.9989045 17.3802665,20.6657767 L18.8850827,12.6418416 C18.9508711,12.2852707 18.8850827,12.2195292 18.8850827,12.2195292 Z M14.3706343,12.8529978 C13.6477064,12.7372932 13.2080649,12.1420321 13.2957657,11.5860606 C13.4129631,10.8754159 14.0189528,10.4440273 14.5856081,10.5302797 C15.3086062,10.6459943 15.7482477,11.2409705 15.6604767,11.7972168 C15.5431582,12.5074916 14.937551,12.9392602 14.3706343,12.8529978 Z" id="Fill-8" fill="#FAFAFA"></path>
                    </g>
                </g>
            </g>
        </g>
    </g>
</svg>