<?xml version="1.0" encoding="UTF-8"?>
<svg width="40px" height="40px" viewBox="0 0 40 40" version="1.1" xmlns="http://www.w3.org/2000/svg" xmlns:xlink="http://www.w3.org/1999/xlink">
    <title>APP-icon-yahoo-search@1x</title>
    <defs>
        <linearGradient x1="13.466276%" y1="13.835907%" x2="87.9017735%" y2="87.9711151%" id="linearGradient-1">
            <stop stop-color="#7759FF" offset="0%"></stop>
            <stop stop-color="#6001D2" offset="100%"></stop>
        </linearGradient>
    </defs>
    <g id="yahoo-app-icons" stroke="none" stroke-width="1" fill="none" fill-rule="evenodd">
        <g id="yahoo-search-app" transform="translate(-33.000000, -396.000000)">
            <g id="APP-icon-yahoo-search" transform="translate(33.000000, 396.000000)">
                <rect id="Background" fill="url(#linearGradient-1)" x="0" y="0" width="40" height="40" rx="6"></rect>
                <path d="M18.4765625,5 C23.2011859,5 27.03125,8.83006405 27.03125,13.5546875 C27.03125,15.3107193 26.5021517,16.9431736 25.5946776,18.3013277 L30.0304414,22.7334933 L28.2639764,24.498906 L23.9187048,20.1554326 C22.4398681,21.3760895 20.5438493,22.109375 18.4765625,22.109375 C13.7519391,22.109375 9.921875,18.2793109 9.921875,13.5546875 C9.921875,8.83006405 13.7519391,5 18.4765625,5 Z M18.4765625,7.5 C15.1326509,7.5 12.421875,10.2107759 12.421875,13.5546875 C12.421875,16.8985991 15.1326509,19.609375 18.4765625,19.609375 C21.8204741,19.609375 24.53125,16.8985991 24.53125,13.5546875 C24.53125,10.2107759 21.8204741,7.5 18.4765625,7.5 Z" id="Combined-Shape" fill="#FFFFFF" fill-rule="nonzero"></path>
                <path d="M29.7607166,33.2690766 C29.7607166,33.7745171 30.153837,34.1917539 30.6834498,34.1917539 C31.2289728,34.1917539 31.6381708,33.7584953 31.6381708,33.2369771 C31.6381708,32.7234978 31.2450504,32.3142997 30.7154934,32.3142997 C30.1699147,32.3142997 29.7607166,32.7555414 29.7607166,33.2690766 Z M8.50707976,30.0891688 L9.43781954,32.4697849 L10.3766684,30.0891688 L11.8901342,30.0891688 L9.58350104,35.6519961 L8.0619262,35.6519961 L8.68514118,34.1782733 L6.953125,30.0891688 L8.50707976,30.0891688 Z M27.396543,29.9500982 C28.6271367,29.9500982 29.5521106,30.8612928 29.5521106,32.070926 C29.5521106,33.2805032 28.6271367,34.1917539 27.396543,34.1917539 C26.1658934,34.1917539 25.2409195,33.2805032 25.2409195,32.070926 C25.2409195,30.8612928 26.1658934,29.9500982 27.396543,29.9500982 Z M22.8072386,29.9500982 C24.0378162,29.9500982 24.9627781,30.8612928 24.9627781,32.070926 C24.9627781,33.2805032 24.0378162,34.1917539 22.8072386,34.1917539 C21.5766049,34.1917539 20.651587,33.2805032 20.651587,32.070926 C20.651587,30.8612928 21.5766049,29.9500982 22.8072386,29.9500982 Z M13.5330628,29.9500982 C13.9992784,29.9500982 14.4011769,30.1436148 14.6182333,30.4258944 L14.6182333,30.4258944 L14.6182333,30.0468284 L15.9927192,30.0468284 L15.9927192,34.0869441 L14.6182333,34.0869441 L14.6182333,33.7079343 C14.4011769,34.0062607 13.9992784,34.1917539 13.5330628,34.1917539 C12.4238433,34.1917539 11.6119928,33.2482411 11.6119928,32.070926 C11.6119928,30.925817 12.431841,29.9500982 13.5330628,29.9500982 Z M17.9072458,28.28125 L17.9072458,30.4706014 C18.1587652,30.1555403 18.5157241,29.977802 18.978066,29.977802 C19.8380638,29.977802 20.3734457,30.5917917 20.3734457,31.5773906 L20.3734457,31.5773906 L20.3734457,34.1222186 L18.9375384,34.1222186 L18.9375384,31.9166785 C18.9375384,31.5127482 18.759059,31.2945944 18.4426841,31.2945944 C18.1181812,31.2945944 17.9153739,31.5450694 17.9153739,31.9651883 L17.9153739,31.9651883 L17.9153739,34.1222186 L16.4794666,34.1222186 L16.4794666,28.28125 L17.9072458,28.28125 Z M27.4313105,31.2712696 C26.9675126,31.2712696 26.6316263,31.6430701 26.6316263,32.1056937 C26.6316263,32.5683174 26.9675126,32.9401178 27.4313105,32.9401178 C27.8950528,32.9401178 28.2309391,32.5683174 28.2309391,32.1056937 C28.2309391,31.6430701 27.8950528,31.2712696 27.4313105,31.2712696 Z M22.8419781,31.2712696 C22.3781801,31.2712696 22.0422938,31.6430701 22.0422938,32.1056937 C22.0422938,32.5683174 22.3781801,32.9401178 22.8419781,32.9401178 C23.305776,32.9401178 23.6416067,32.5683174 23.6416067,32.1056937 C23.6416067,31.6430701 23.305776,31.2712696 22.8419781,31.2712696 Z M13.8411344,31.2712696 C13.3654585,31.2712696 13.0026996,31.6358493 13.0026996,32.1057219 C13.0026996,32.5755945 13.3654585,32.9401178 13.8411344,32.9401178 C14.3087327,32.9401178 14.6715478,32.5755945 14.6715478,32.1057219 C14.6715478,31.6358493 14.3087327,31.2712696 13.8411344,31.2712696 Z M33.515625,28.28125 L32.0047186,31.966623 L30.3169993,31.966623 L31.8279057,28.28125 L33.515625,28.28125 Z" id="Yahoo-wordmark" fill="#FFFFFF"></path>
            </g>
        </g>
    </g>
</svg>