<?xml version="1.0" encoding="UTF-8"?>
<svg width="40px" height="40px" viewBox="0 0 40 40" version="1.1" xmlns="http://www.w3.org/2000/svg" xmlns:xlink="http://www.w3.org/1999/xlink">
    <title>APP-icon-yahoo-finance@1x</title>
    <defs>
        <linearGradient x1="13.466276%" y1="13.835907%" x2="87.9017735%" y2="87.9711151%" id="linearGradient-1">
            <stop stop-color="#7759FF" offset="0%"></stop>
            <stop stop-color="#6001D2" offset="100%"></stop>
        </linearGradient>
    </defs>
    <g id="yahoo-app-icons" stroke="none" stroke-width="1" fill="none" fill-rule="evenodd">
        <g id="yahoo-finance-app" transform="translate(-33.000000, -396.000000)" fill-rule="nonzero">
            <g id="APP-icon-yahoo-finance" transform="translate(33.000000, 396.000000)">
                <rect id="Background" fill="url(#linearGradient-1)" x="0" y="0" width="40" height="40" rx="6"></rect>
                <g id="Group-2" transform="translate(5.000000, 2.734375)">
                    <path d="M24.7607166,30.5347016 C24.7607166,31.0401421 25.153837,31.4573789 25.6834498,31.4573789 C26.2289728,31.4573789 26.6381708,31.0241203 26.6381708,30.5026021 C26.6381708,29.9891228 26.2450504,29.5799247 25.7154934,29.5799247 C25.1699146,29.5799247 24.7607166,30.0211664 24.7607166,30.5347016 Z M3.50707977,27.3547939 L4.43781953,29.7354099 L5.3766684,27.3547939 L6.89013418,27.3547939 L4.58350105,32.9176211 L3.06192621,32.9176211 L3.68514117,31.4438984 L1.953125,27.3547939 L3.50707977,27.3547939 Z M22.396543,27.2157232 C23.6271367,27.2157232 24.5521106,28.1269178 24.5521106,29.3365511 C24.5521106,30.5461282 23.6271367,31.4573789 22.396543,31.4573789 C21.1658934,31.4573789 20.2409195,30.5461282 20.2409195,29.3365511 C20.2409195,28.1269178 21.1658934,27.2157232 22.396543,27.2157232 Z M17.8072386,27.2157232 C19.0378162,27.2157232 19.9627781,28.1269178 19.9627781,29.3365511 C19.9627781,30.5461282 19.0378162,31.4573789 17.8072386,31.4573789 C16.5766049,31.4573789 15.651587,30.5461282 15.651587,29.3365511 C15.651587,28.1269178 16.5766049,27.2157232 17.8072386,27.2157232 Z M8.53306281,27.2157232 C8.99927844,27.2157232 9.40117684,27.4092398 9.61823332,27.6915194 L9.61823332,27.6915194 L9.61823332,27.3124534 L10.9927193,27.3124534 L10.9927193,31.3525691 L9.61823332,31.3525691 L9.61823332,30.9735593 C9.40117684,31.2718857 8.99927844,31.4573789 8.53306281,31.4573789 C7.42384328,31.4573789 6.61199281,30.5138661 6.61199281,29.3365511 C6.61199281,28.191442 7.43184098,27.2157232 8.53306281,27.2157232 Z M12.9072458,25.546875 L12.9072458,27.7362264 C13.1587652,27.4211653 13.5157241,27.243427 13.978066,27.243427 C14.8380638,27.243427 15.3734457,27.8574168 15.3734457,28.8430155 L15.3734457,28.8430155 L15.3734457,31.3878436 L13.9375384,31.3878436 L13.9375384,29.1823035 C13.9375384,28.7783732 13.759059,28.5602194 13.4426841,28.5602194 C13.1181812,28.5602194 12.9153739,28.8106944 12.9153739,29.2308133 L12.9153739,29.2308133 L12.9153739,31.3878436 L11.4794666,31.3878436 L11.4794666,25.546875 L12.9072458,25.546875 Z M22.4313105,28.5368946 C21.9675126,28.5368946 21.6316263,28.9086951 21.6316263,29.3713187 C21.6316263,29.8339424 21.9675126,30.2057428 22.4313105,30.2057428 C22.8950529,30.2057428 23.2309391,29.8339424 23.2309391,29.3713187 C23.2309391,28.9086951 22.8950529,28.5368946 22.4313105,28.5368946 Z M17.8419781,28.5368946 C17.3781802,28.5368946 17.0422939,28.9086951 17.0422939,29.3713187 C17.0422939,29.8339424 17.3781802,30.2057428 17.8419781,30.2057428 C18.305776,30.2057428 18.6416067,29.8339424 18.6416067,29.3713187 C18.6416067,28.9086951 18.305776,28.5368946 17.8419781,28.5368946 Z M8.84113441,28.5368946 C8.36545855,28.5368946 8.00269961,28.9014743 8.00269961,29.3713469 C8.00269961,29.8412195 8.36545855,30.2057428 8.84113441,30.2057428 C9.30873273,30.2057428 9.67154777,29.8412195 9.67154777,29.3713469 C9.67154777,28.9014743 9.30873273,28.5368946 8.84113441,28.5368946 Z M28.515625,25.546875 L27.0047186,29.232248 L25.3169993,29.232248 L26.8279057,25.546875 L28.515625,25.546875 Z" id="Yahoo-wordmark" fill="#FFFFFF"></path>
                    <g id="Group">
                        <polygon id="Rectangle" fill="#9DF10A" points="0 16.0361842 10.2721585 7.25003004 17.2532107 13.1997513 30 2.51644737 30 1.40238698e-15 17.2246351 10.7072368 10.2856124 4.73684211 0 13.5690789"></polygon>
                        <path d="M0,18.9967105 L10.2721585,10.2105564 L17.2532107,16.1602777 L30,5.47697367 L30,21.5254934 C30,21.6549352 29.8950667,21.7598684 29.765625,21.7598684 L0.234375,21.7598684 C0.104933262,21.7598684 0,21.6549352 0,21.5254934 L0,18.9967105 L0,18.9967105 Z" id="Rectangle" fill="#FFFFFF"></path>
                    </g>
                </g>
            </g>
        </g>
    </g>
</svg>