<?xml version="1.0" encoding="UTF-8"?>
<svg width="40px" height="40px" viewBox="0 0 40 40" version="1.1" xmlns="http://www.w3.org/2000/svg" xmlns:xlink="http://www.w3.org/1999/xlink">
    <title>APP-icon-yahoo-weather@1x</title>
    <defs>
        <linearGradient x1="17.3779458%" y1="17.6904912%" x2="82.3924964%" y2="80.9437979%" id="linearGradient-1">
            <stop stop-color="#7759FF" offset="0%"></stop>
            <stop stop-color="#6001D2" offset="100%"></stop>
        </linearGradient>
        <linearGradient x1="-36.3958333%" y1="32.8541667%" x2="33.3958333%" y2="133.3125%" id="linearGradient-2">
            <stop stop-color="#FFF5B2" offset="0.0131967905%"></stop>
            <stop stop-color="#FFDE00" offset="39.9440456%"></stop>
            <stop stop-color="#FFA700" offset="100%"></stop>
        </linearGradient>
        <linearGradient x1="36.8619445%" y1="50.9276958%" x2="94.0276968%" y2="24.4812399%" id="linearGradient-3">
            <stop stop-color="#000000" stop-opacity="0" offset="0%"></stop>
            <stop stop-color="#000000" stop-opacity="0.5" offset="99.9419341%"></stop>
        </linearGradient>
    </defs>
    <g id="yahoo-app-icons" stroke="none" stroke-width="1" fill="none" fill-rule="evenodd">
        <g id="yahoo-weather-app" transform="translate(-33.000000, -396.000000)">
            <g id="APP-icon-yahoo-weather" transform="translate(33.000000, 396.000000)">
                <rect id="Rectangle" fill="#6001D2" x="0" y="0" width="40" height="40" rx="6"></rect>
                <path d="M10.2555408,-4.14336123e-16 L29.7444592,4.14336123e-16 C33.3105342,-2.4074122e-16 34.6036791,0.371302445 35.9073828,1.06853082 C37.2110865,1.76575919 38.2342408,2.78891348 38.9314692,4.09261719 C39.6286976,5.39632089 40,6.68946584 40,10.2555408 L40,29.7444592 C40,33.3105342 39.6286976,34.6036791 38.9314692,35.9073828 C38.2342408,37.2110865 37.2110865,38.2342408 35.9073828,38.9314692 C34.6036791,39.6286976 33.3105342,40 29.7444592,40 L10.2555408,40 C6.68946584,40 5.39632089,39.6286976 4.09261719,38.9314692 C2.78891348,38.2342408 1.76575919,37.2110865 1.06853082,35.9073828 C0.371302445,34.6036791 1.60494146e-16,33.3105342 -2.76224082e-16,29.7444592 L2.76224082e-16,10.2555408 C-1.60494146e-16,6.68946584 0.371302445,5.39632089 1.06853082,4.09261719 C1.76575919,2.78891348 2.78891348,1.76575919 4.09261719,1.06853082 C5.39632089,0.371302445 6.68946584,2.4074122e-16 10.2555408,-4.14336123e-16 Z" id="App-Icon" fill="url(#linearGradient-1)"></path>
                <g id="Logo-/-00-Yahoo-logo" transform="translate(6.822917, 28.072917)" fill="#FFFFFF">
                    <path d="M24.6082472,0.171719933 L23.1008383,3.84035623 L24.784706,3.84035623 L26.2921149,0.171719933 L24.6082472,0.171719933 Z M22.5876059,5.15757424 C22.5876059,5.66660258 22.9805709,6.08684103 23.5096971,6.08684103 C24.0549674,6.08684103 24.4639514,5.65045896 24.4639514,5.12516089 C24.4639514,4.60806076 24.0711115,4.19589411 23.5418602,4.19589411 C22.9965899,4.19589411 22.5876059,4.64034798 22.5876059,5.15757424 L22.5876059,5.15757424 Z M21.064178,3.99384669 C21.064178,3.54132101 20.7274045,3.17771132 20.2623541,3.17771132 C19.7973038,3.17771132 19.4605302,3.54132101 19.4605302,3.99384669 C19.4605302,4.44649849 19.7973038,4.80998205 20.2623541,4.80998205 C20.7274045,4.80998205 21.064178,4.44649849 21.064178,3.99384669 L21.064178,3.99384669 Z M16.5258072,3.99384669 C16.5258072,3.54132101 16.1890336,3.17771132 15.7239833,3.17771132 C15.2588078,3.17771132 14.9221594,3.54132101 14.9221594,3.99384669 C14.9221594,4.44649849 15.2588078,4.80998205 15.7239833,4.80998205 C16.1890336,4.80998205 16.5258072,4.44649849 16.5258072,3.99384669 L16.5258072,3.99384669 Z M6.79153732,4.82625179 C6.31847749,4.82625179 5.9576755,4.46251598 5.9576755,3.99384669 C5.9576755,3.52517739 6.31847749,3.16156771 6.79153732,3.16156771 C7.25658768,3.16156771 7.61738966,3.52517739 7.61738966,3.99384669 C7.61738966,4.46251598 7.25658768,4.82625179 6.79153732,4.82625179 L6.79153732,4.82625179 Z M-2.97756988e-13,1.96567905 L1.71603081,6.04635587 L1.09855006,7.51706434 L2.60595898,7.51706434 L4.89116336,1.96567905 L3.39176392,1.96567905 L2.46166321,4.34143888 L1.53957198,1.96567905 L-2.97756988e-13,1.96567905 Z M17.8729014,3.99384669 C17.8729014,5.20600509 16.950685,6.11912826 15.7239833,6.11912826 C14.4971564,6.11912826 13.5750652,5.20600509 13.5750652,3.99384669 C13.5750652,2.78181441 14.4971564,1.86869124 15.7239833,1.86869124 C16.950685,1.86869124 17.8729014,2.78181441 17.8729014,3.99384669 L17.8729014,3.99384669 Z M22.4112722,3.99384669 C22.4112722,5.20600509 21.489181,6.11912826 20.2623541,6.11912826 C19.0355273,6.11912826 18.113436,5.20600509 18.113436,3.99384669 C18.113436,2.78181441 19.0355273,1.86869124 20.2623541,1.86869124 C21.489181,1.86869124 22.4112722,2.78181441 22.4112722,3.99384669 L22.4112722,3.99384669 Z M9.42953421,0.171719933 L9.42953421,6.01406864 L10.8488389,6.01406864 L10.8488389,3.85649985 C10.8488389,3.43638751 11.0493261,3.18578313 11.3699556,3.18578313 C11.6827007,3.18578313 11.8591595,3.40397416 11.8591595,3.808069 L11.8591595,6.01406864 L13.278339,6.01406864 L13.278339,3.46867474 C13.278339,2.48277919 12.7492128,1.86869124 11.8992069,1.86869124 C11.442166,1.86869124 11.0893735,2.04639712 10.8408294,2.36157596 L10.8408294,0.171719933 L9.42953421,0.171719933 Z M7.58535175,1.96567905 L7.58535175,2.34543234 C7.36884553,2.06266685 6.967871,1.86869124 6.50294579,1.86869124 C5.40439573,1.86869124 4.58655287,2.84651499 4.58655287,3.99384669 C4.58655287,5.17371786 5.39638626,6.11912826 6.50294579,6.11912826 C6.967871,6.11912826 7.36884553,5.93322445 7.58535175,5.63431535 L7.58535175,6.01406864 L8.95647438,6.01406864 L8.95647438,1.96567905 L7.58535175,1.96567905 Z" id="Mask"></path>
                </g>
                <g id="Sky-Code-/-Large-/-32-Sunny" transform="translate(6.822917, 5.625000)" fill="url(#linearGradient-2)" fill-rule="nonzero">
                    <path d="M7.99479167,15.9895833 C12.4101819,15.9895833 15.9895833,12.4101819 15.9895833,7.99479167 C15.9895833,3.57940148 12.4101819,0 7.99479167,0 C3.57940148,0 0,3.57940148 0,7.99479167 C0,12.4101819 3.57940148,15.9895833 7.99479167,15.9895833 Z" id="Path" opacity="0.15"></path>
                    <path d="M7.99479167,14.9902344 C11.8582581,14.9902344 14.9902344,11.8582581 14.9902344,7.99479167 C14.9902344,4.13132525 11.8582581,0.999348958 7.99479167,0.999348958 C4.13132525,0.999348958 0.999348958,4.13132525 0.999348958,7.99479167 C0.999348958,11.8582581 4.13132525,14.9902344 7.99479167,14.9902344 Z" id="Path" opacity="0.3"></path>
                    <path d="M7.99479167,13.9908854 C11.3063343,13.9908854 13.9908854,11.3063343 13.9908854,7.99479167 C13.9908854,4.68324902 11.3063343,1.99869792 7.99479167,1.99869792 C4.68324902,1.99869792 1.99869792,4.68324902 1.99869792,7.99479167 C1.99869792,11.3063343 4.68324902,13.9908854 7.99479167,13.9908854 Z" id="Path"></path>
                </g>
                <path d="M11.09375,16.5219127 C12.6336035,18.9848255 15.6141245,20.130403 18.403372,19.3313582 C21.1926195,18.5323406 23.1178637,15.9814152 23.125,13.0753406 C23.1244302,12.8006477 23.1044866,12.5263354 23.065305,12.2544693 L19.7603744,10.78125 L11.09375,16.5219127 Z" id="Path" fill="url(#linearGradient-3)" fill-rule="nonzero" style="mix-blend-mode: multiply;" opacity="0.4"></path>
                <path d="M32.1875,16.786859 C32.1875,21.0878205 28.7,24.5753205 24.3990385,24.5753205 L14.4471154,24.5753205 C11.8163462,24.5753205 9.6875,22.4464744 9.6875,19.8157051 C9.6875,17.1849359 11.8163462,15.0560897 14.4471154,15.0560897 C15.2605769,15.0560897 16.0307692,15.2637821 16.7057692,15.6272436 C17.2682692,11.8801282 20.4961538,8.99839744 24.3990385,8.99839744 C28.7,8.99839744 32.1875,12.4858974 32.1875,16.786859 Z" id="Path" fill="#FFFFFF" fill-rule="nonzero"></path>
            </g>
        </g>
    </g>
</svg>