<?xml version="1.0" encoding="UTF-8"?>
<svg width="40px" height="40px" viewBox="0 0 40 40" version="1.1" xmlns="http://www.w3.org/2000/svg" xmlns:xlink="http://www.w3.org/1999/xlink">
    <title>APP-icon-yahoo-fantasy@1x</title>
    <defs>
        <linearGradient x1="13.466276%" y1="13.835907%" x2="87.9017735%" y2="87.9711151%" id="linearGradient-1">
            <stop stop-color="#7759FF" offset="0%"></stop>
            <stop stop-color="#6001D2" offset="100%"></stop>
        </linearGradient>
    </defs>
    <g id="yahoo-app-icons" stroke="none" stroke-width="1" fill="none" fill-rule="evenodd">
        <g id="yahoo-fantasy-app" transform="translate(-33.000000, -396.000000)" fill-rule="nonzero">
            <g id="APP-icon-yahoo-fantasy" transform="translate(33.000000, 396.000000)">
                <rect id="Background" fill="url(#linearGradient-1)" x="0" y="0" width="40" height="40" rx="8"></rect>
                <path d="M29.7607166,33.2690766 C29.7607166,33.7745171 30.153837,34.1917539 30.6834498,34.1917539 C31.2289728,34.1917539 31.6381708,33.7584953 31.6381708,33.2369771 C31.6381708,32.7234978 31.2450504,32.3142997 30.7154934,32.3142997 C30.1699146,32.3142997 29.7607166,32.7555414 29.7607166,33.2690766 Z M8.50707977,30.0891689 L9.43781953,32.4697849 L10.3766684,30.0891689 L11.8901342,30.0891689 L9.58350105,35.6519961 L8.06192621,35.6519961 L8.68514117,34.1782734 L6.953125,30.0891689 L8.50707977,30.0891689 Z M27.396543,29.9500982 C28.6271367,29.9500982 29.5521106,30.8612928 29.5521106,32.0709261 C29.5521106,33.2805032 28.6271367,34.1917539 27.396543,34.1917539 C26.1658934,34.1917539 25.2409195,33.2805032 25.2409195,32.0709261 C25.2409195,30.8612928 26.1658934,29.9500982 27.396543,29.9500982 Z M22.8072386,29.9500982 C24.0378162,29.9500982 24.9627781,30.8612928 24.9627781,32.0709261 C24.9627781,33.2805032 24.0378162,34.1917539 22.8072386,34.1917539 C21.5766049,34.1917539 20.651587,33.2805032 20.651587,32.0709261 C20.651587,30.8612928 21.5766049,29.9500982 22.8072386,29.9500982 Z M13.5330628,29.9500982 C13.9992784,29.9500982 14.4011768,30.1436148 14.6182333,30.4258944 L14.6182333,30.4258944 L14.6182333,30.0468284 L15.9927193,30.0468284 L15.9927193,34.0869441 L14.6182333,34.0869441 L14.6182333,33.7079343 C14.4011768,34.0062607 13.9992784,34.1917539 13.5330628,34.1917539 C12.4238433,34.1917539 11.6119928,33.2482411 11.6119928,32.0709261 C11.6119928,30.925817 12.431841,29.9500982 13.5330628,29.9500982 Z M17.9072458,28.28125 L17.9072458,30.4706014 C18.1587652,30.1555403 18.5157241,29.977802 18.978066,29.977802 C19.8380638,29.977802 20.3734457,30.5917918 20.3734457,31.5773905 L20.3734457,31.5773905 L20.3734457,34.1222186 L18.9375384,34.1222186 L18.9375384,31.9166785 C18.9375384,31.5127482 18.759059,31.2945944 18.4426841,31.2945944 C18.1181812,31.2945944 17.9153739,31.5450694 17.9153739,31.9651883 L17.9153739,31.9651883 L17.9153739,34.1222186 L16.4794666,34.1222186 L16.4794666,28.28125 L17.9072458,28.28125 Z M27.4313105,31.2712696 C26.9675126,31.2712696 26.6316263,31.6430701 26.6316263,32.1056937 C26.6316263,32.5683174 26.9675126,32.9401178 27.4313105,32.9401178 C27.8950529,32.9401178 28.2309391,32.5683174 28.2309391,32.1056937 C28.2309391,31.6430701 27.8950529,31.2712696 27.4313105,31.2712696 Z M22.8419781,31.2712696 C22.3781802,31.2712696 22.0422939,31.6430701 22.0422939,32.1056937 C22.0422939,32.5683174 22.3781802,32.9401178 22.8419781,32.9401178 C23.305776,32.9401178 23.6416067,32.5683174 23.6416067,32.1056937 C23.6416067,31.6430701 23.305776,31.2712696 22.8419781,31.2712696 Z M13.8411344,31.2712696 C13.3654586,31.2712696 13.0026996,31.6358493 13.0026996,32.1057219 C13.0026996,32.5755945 13.3654586,32.9401178 13.8411344,32.9401178 C14.3087327,32.9401178 14.6715478,32.5755945 14.6715478,32.1057219 C14.6715478,31.6358493 14.3087327,31.2712696 13.8411344,31.2712696 Z M33.515625,28.28125 L32.0047186,31.966623 L30.3169993,31.966623 L31.8279057,28.28125 L33.515625,28.28125 Z" id="Yahoo-wordmark" fill="#FFFFFF"></path>
                <g id="fantasy-glyph" transform="translate(7.031250, 4.921875)">
                    <g id="trophy">
                        <path d="M1.55903055,3.44873273 L1.55903055,3.44873273 L4.99853605,3.44873273 L4.99853605,4.27637301 L4.99812941,4.27637301 L4.99812941,4.1623266 C4.99779672,4.19999703 4.99694645,4.23748262 4.99694645,4.27522699 C4.99694645,4.33707449 4.99761188,4.39873719 4.99853605,4.46028895 L4.99853605,4.48383758 L4.99901664,4.48383758 C5.02740809,6.09922957 5.3845932,7.61673023 5.9929391,8.94273652 C3.41752432,8.18071453 1.55903055,6.00910152 1.55903055,3.44873273 M20.9515719,4.48383758 L20.9531245,4.48383758 L20.9531245,4.3524532 C20.9532724,4.32672344 20.9536421,4.30103066 20.9536421,4.27522699 C20.9536421,4.26831395 20.9534203,4.26147488 20.9534203,4.25456184 L20.9534203,4.27637301 L20.9531245,4.27637301 L20.9531245,3.44873273 L24.3925561,3.44873273 L24.3925561,3.44873273 C24.3925561,6.00950816 22.5334709,8.18134297 19.9575016,8.94306922 C20.5659214,7.61695207 20.9231804,6.09937746 20.9515719,4.48383758 M18.8922678,10.7423402 C22.8688448,10.3060805 25.9515719,7.20693965 25.9515719,3.44803034 C25.9515719,3.4441487 25.9515719,3.44030402 25.9515719,3.43645935 L25.9510543,3.43612664 L25.9510543,3.03546713 L25.9512022,3.03546713 L25.9512022,2.25488717 L25.947912,2.25488717 C25.9500562,2.23987815 25.9512022,2.22457339 25.9512022,2.20897288 C25.9512022,2.03148937 25.8075445,1.88757283 25.6302827,1.88757283 L25.1728034,1.88757283 C25.1727294,1.88757283 25.1727294,1.88757283 25.1726555,1.88757283 L25.1726555,1.88753586 L20.9531245,1.88753586 L20.9531245,1.17490314 C20.9532724,1.16758347 20.9536051,1.16030077 20.9536051,1.15290716 L20.9536051,0.372364179 L20.9489841,0.372364179 C20.9511652,0.357244255 20.9536051,0.342198267 20.9536051,0.326449886 C20.9536051,0.148929406 20.8099104,0.00490196078 20.6326487,0.00490196078 L19.8103318,0.00490196078 C19.8093337,0.00490196078 19.8083725,0.00490196078 19.8073744,0.00490196078 C19.8071526,0.00490196078 19.8069308,0.00490196078 19.8067089,0.00490196078 L19.8067089,0.00490196078 L6.14358383,0.00490196078 L6.14358383,0.00490196078 C6.1428075,0.00490196078 6.14206813,0.00490196078 6.1412918,0.00490196078 L5.31890102,0.00490196078 C5.1416393,0.00490196078 4.99794457,0.148929406 4.99794457,0.326449886 C4.99794457,0.342050395 4.99912754,0.357355159 5.00123473,0.372364179 L4.99794457,0.372364179 L4.99794457,1.15290716 C4.99794457,1.16192736 4.99835121,1.17083666 4.99853605,1.17978292 L4.99853605,1.88753586 L0.778857246,1.88753586 L0.778857246,1.88757283 L0.778820277,1.88757283 L0.321303936,1.88757283 C0.144042232,1.88757283 0.000347499482,2.03148937 0.000347499482,2.20897288 C0.000347499482,2.22457339 0.00149350841,2.23987815 0.00363765416,2.25488717 L0.000347499482,2.25488717 L0.000347499482,3.03546713 L0.000495371602,3.03546713 L0.000495371602,3.43612664 L1.4787212e-05,3.43645935 C1.4787212e-05,3.44030402 1.4787212e-05,3.4441487 1.4787212e-05,3.44803034 C1.4787212e-05,7.20660691 3.08215036,10.305526 7.05824684,10.7422293 C8.12558777,12.1673838 9.54050219,13.2052982 11.1415136,13.6603747 L11.1415136,15.8457398 L7.65735074,15.8457398 L7.65735074,15.8458138 L7.5196818,15.8458138 C7.34242008,15.8458138 7.19872535,15.9896933 7.19872535,16.1672138 C7.19872535,16.1828143 7.19990832,16.1981191 7.20205246,16.2131281 L7.19872535,16.2131281 L7.19872535,17.6823115 L5.36459352,17.6823115 L5.36459352,17.6823855 L5.22722031,17.6823855 C5.04995859,17.6823855 4.90622691,17.826302 4.90622691,18.0038225 C4.90622691,18.019423 4.90740988,18.0347278 4.90955402,18.0497368 L4.90622691,18.0497368 L4.90622691,19.1516798 L4.90955402,19.1516798 C4.90740988,19.1667258 4.90622691,19.1820306 4.90622691,19.1976311 C4.90622691,19.3751146 5.04995859,19.5191051 5.22722031,19.5191051 L5.36459352,19.5191051 L5.36459352,19.5191051 L20.5870671,19.5191051 L20.5870671,19.5191051 L20.7243664,19.5191051 C20.9016281,19.5191051 21.0452858,19.3751146 21.0452858,19.1976311 C21.0452858,19.1820306 21.0441398,19.1667258 21.0419957,19.1516798 L21.0452858,19.1516798 L21.0452858,18.0497368 L21.0419957,18.0497368 C21.0441398,18.0347278 21.0452858,18.019423 21.0452858,18.0038225 C21.0452858,17.826302 20.9016281,17.6823855 20.7243664,17.6823855 L20.5870671,17.6823855 L20.5870671,17.6823115 L18.7528613,17.6823115 L18.7528613,16.2131281 L18.7495342,16.2131281 C18.7516414,16.1981191 18.7528613,16.1828143 18.7528613,16.1672138 C18.7528613,15.9896933 18.6091666,15.8458138 18.4319049,15.8458138 L18.2942729,15.8458138 L18.2942729,15.8457398 L14.810147,15.8457398 L14.810147,13.6600789 C16.4106779,13.2048177 17.8251856,12.1671251 18.8922678,10.7423402" id="Fill-1" fill="#F1F1F1"></path>
                        <polygon id="Fill-4" fill="#188FFF" points="12.995903 6.29088664 15.5165682 8.35614262 15.5165682 0 10.4752379 0 10.4752379 8.35614262"></polygon>
                    </g>
                </g>
            </g>
        </g>
    </g>
</svg>