<?xml version="1.0" encoding="UTF-8"?>
<svg width="40px" height="40px" viewBox="0 0 40 40" version="1.1" xmlns="http://www.w3.org/2000/svg" xmlns:xlink="http://www.w3.org/1999/xlink">
    <title>APP_icon_stock</title>
    <defs>
        <linearGradient x1="13.466276%" y1="13.835907%" x2="87.9017735%" y2="87.9711151%" id="linearGradient-1">
            <stop stop-color="#7759FF" offset="0%"></stop>
            <stop stop-color="#6001D2" offset="100%"></stop>
        </linearGradient>
    </defs>
    <g id="taiwan-app-icons" stroke="none" stroke-width="1" fill="none" fill-rule="evenodd">
        <g id="tw-stock" transform="translate(-33.000000, -409.000000)" fill-rule="nonzero">
            <g id="APP_icon_stock" transform="translate(33.000000, 409.000000)">
                <rect id="Background" fill="url(#linearGradient-1)" x="0" y="0" width="40" height="40" rx="8"></rect>
                <g id="logo-pixel-hint" transform="translate(7.187500, 28.203125)" fill="#FFFFFF">
                    <path d="M24.0234375,4.140625 C23.5546875,4.140625 23.171875,4.5234375 23.171875,4.9921875 C23.171875,5.453125 23.53125,5.8125 23.9921875,5.8125 C24.46875,5.8125 24.84375,5.4375 24.84375,4.9609375 C24.84375,4.5 24.4921875,4.140625 24.0234375,4.140625 Z" id="Path"></path>
                    <polygon id="Path" points="25.234375 0.0390625 23.796875 3.5546875 25.2578125 3.5546875 26.703125 0.0390625"></polygon>
                    <path d="M20.6484375,1.734375 C19.4609375,1.734375 18.5703125,2.609375 18.5703125,3.7734375 C18.5703125,4.9375 19.4609375,5.8125 20.6484375,5.8125 C21.8359375,5.8125 22.7265625,4.9375 22.7265625,3.7734375 C22.7265625,2.609375 21.828125,1.734375 20.6484375,1.734375 Z M20.6796875,4.78125 C20.1484375,4.78125 19.75,4.3671875 19.75,3.8125 C19.75,3.2578125 20.1484375,2.84375 20.6796875,2.84375 C21.2109375,2.84375 21.609375,3.2578125 21.609375,3.8125 C21.6171875,4.3671875 21.2109375,4.78125 20.6796875,4.78125 Z" id="Shape"></path>
                    <path d="M15.9765625,1.734375 C14.7890625,1.734375 13.8984375,2.609375 13.8984375,3.7734375 C13.8984375,4.9375 14.7890625,5.8125 15.9765625,5.8125 C17.1640625,5.8125 18.0546875,4.9375 18.0546875,3.7734375 C18.0546875,2.609375 17.1640625,1.734375 15.9765625,1.734375 Z M16.015625,4.78125 C15.484375,4.78125 15.0859375,4.3671875 15.0859375,3.8125 C15.0859375,3.2578125 15.484375,2.84375 16.015625,2.84375 C16.546875,2.84375 16.9453125,3.2578125 16.9453125,3.8125 C16.9453125,4.3671875 16.546875,4.78125 16.015625,4.78125 Z" id="Shape"></path>
                    <path d="M12.078125,1.765625 C11.65625,1.765625 11.3203125,1.921875 11.078125,2.2265625 L10.8671875,2.484375 L10.8671875,2.1484375 L10.8671875,0.0390625 L9.6484375,0.0390625 L9.6484375,5.75 L10.875,5.75 L10.875,3.671875 C10.875,3.1875 11.1328125,2.875 11.53125,2.875 C11.921875,2.875 12.1484375,3.15625 12.1484375,3.625 L12.1484375,5.75 L13.375,5.75 L13.375,3.2734375 C13.3828125,2.34375 12.8828125,1.765625 12.078125,1.765625 Z" id="Path"></path>
                    <path d="M6.5390625,1.734375 C6.0390625,1.734375 5.5703125,1.9453125 5.2265625,2.3359375 C4.8828125,2.71875 4.6953125,3.234375 4.6953125,3.7734375 C4.6953125,4.9375 5.484375,5.8125 6.53125,5.8125 C6.9609375,5.8125 7.3359375,5.6484375 7.5390625,5.3671875 L7.75,5.078125 L7.75,5.4375 L7.75,5.703125 L8.9140625,5.703125 L8.9140625,1.8359375 L7.75,1.8359375 L7.75,2.1015625 L7.75,2.4453125 L7.5390625,2.171875 C7.34375,1.90625 6.953125,1.734375 6.5390625,1.734375 Z M7.8125,3.8125 C7.8125,4.3515625 7.390625,4.78125 6.8515625,4.78125 C6.3046875,4.78125 5.8828125,4.359375 5.8828125,3.8125 C5.8828125,3.2734375 6.3125,2.84375 6.8515625,2.84375 C7.390625,2.84375 7.8125,3.2734375 7.8125,3.8125 Z" id="Shape"></path>
                    <polygon id="Path" points="3.40625 1.875 2.484375 4.2265625 2.375 4.5078125 2.265625 4.2265625 1.34375 1.875 0.0234375 1.875 1.7109375 5.875 1.734375 5.921875 1.7109375 5.96875 1.1484375 7.3046875 2.4453125 7.3046875 4.6953125 1.875"></polygon>
                </g>
                <g id="Group-2" transform="translate(7.333333, 4.000000)">
                    <g id="Group" transform="translate(0.000000, 8.164062)" fill="#FFFFFF">
                        <rect id="Rectangle-path" x="0" y="6.25" width="3.59375" height="5.859375"></rect>
                        <rect id="Rectangle-path" x="5.234375" y="4.6875" width="3.59375" height="7.421875"></rect>
                        <rect id="Rectangle-path" x="10.46875" y="3.125" width="3.515625" height="8.984375"></rect>
                        <rect id="Rectangle-path" x="15.703125" y="3.90625" width="3.515625" height="8.203125"></rect>
                        <rect id="Rectangle-path" x="20.9375" y="0" width="3.515625" height="12.109375"></rect>
                    </g>
                    <g id="Group" transform="translate(0.078125, 0.000000)">
                        <polygon id="Shape" fill="#EE3A39" points="24.375 0.0373828125 24.375 3.08324219 14.1655078 8.76074217 8.43972658 7.3625 0 12.2989844 0 9.29214842 8.46003908 4.33285156 14.1939453 5.7378125"></polygon>
                        <polygon id="Shape" fill="#CA2027" points="14.18625 8.76074217 8.45542967 7.3625 8.46539058 4.33285156 14.2174609 5.7378125"></polygon>
                    </g>
                </g>
            </g>
        </g>
    </g>
</svg>