<?xml version="1.0" encoding="UTF-8"?>
<svg width="40px" height="40px" viewBox="0 0 40 40" version="1.1" xmlns="http://www.w3.org/2000/svg" xmlns:xlink="http://www.w3.org/1999/xlink">
    <title>APP-icon-yahoo-news@1x</title>
    <defs>
        <linearGradient x1="13.466276%" y1="13.835907%" x2="87.9017735%" y2="87.9711151%" id="linearGradient-1">
            <stop stop-color="#7759FF" offset="0%"></stop>
            <stop stop-color="#6001D2" offset="100%"></stop>
        </linearGradient>
    </defs>
    <g id="yahoo-app-icons" stroke="none" stroke-width="1" fill="none" fill-rule="evenodd">
        <g id="yahoo-news-app" transform="translate(-33.000000, -396.000000)">
            <g id="APP-icon-yahoo-news" transform="translate(33.000000, 396.000000)">
                <rect id="Background" fill="url(#linearGradient-1)" x="0" y="0" width="40" height="40" rx="8"></rect>
                <path d="M29.7607166,33.2690766 C29.7607166,33.7745171 30.153837,34.1917539 30.6834498,34.1917539 C31.2289728,34.1917539 31.6381708,33.7584953 31.6381708,33.2369771 C31.6381708,32.7234978 31.2450504,32.3142997 30.7154934,32.3142997 C30.1699147,32.3142997 29.7607166,32.7555414 29.7607166,33.2690766 Z M8.50707976,30.0891688 L9.43781954,32.4697849 L10.3766684,30.0891688 L11.8901342,30.0891688 L9.58350104,35.6519961 L8.0619262,35.6519961 L8.68514118,34.1782733 L6.953125,30.0891688 L8.50707976,30.0891688 Z M27.396543,29.9500982 C28.6271367,29.9500982 29.5521106,30.8612928 29.5521106,32.070926 C29.5521106,33.2805032 28.6271367,34.1917539 27.396543,34.1917539 C26.1658934,34.1917539 25.2409195,33.2805032 25.2409195,32.070926 C25.2409195,30.8612928 26.1658934,29.9500982 27.396543,29.9500982 Z M22.8072386,29.9500982 C24.0378162,29.9500982 24.9627781,30.8612928 24.9627781,32.070926 C24.9627781,33.2805032 24.0378162,34.1917539 22.8072386,34.1917539 C21.5766049,34.1917539 20.651587,33.2805032 20.651587,32.070926 C20.651587,30.8612928 21.5766049,29.9500982 22.8072386,29.9500982 Z M13.5330628,29.9500982 C13.9992784,29.9500982 14.4011769,30.1436148 14.6182333,30.4258944 L14.6182333,30.4258944 L14.6182333,30.0468284 L15.9927192,30.0468284 L15.9927192,34.0869441 L14.6182333,34.0869441 L14.6182333,33.7079343 C14.4011769,34.0062607 13.9992784,34.1917539 13.5330628,34.1917539 C12.4238433,34.1917539 11.6119928,33.2482411 11.6119928,32.070926 C11.6119928,30.925817 12.431841,29.9500982 13.5330628,29.9500982 Z M17.9072458,28.28125 L17.9072458,30.4706014 C18.1587652,30.1555403 18.5157241,29.977802 18.978066,29.977802 C19.8380638,29.977802 20.3734457,30.5917917 20.3734457,31.5773906 L20.3734457,31.5773906 L20.3734457,34.1222186 L18.9375384,34.1222186 L18.9375384,31.9166785 C18.9375384,31.5127482 18.759059,31.2945944 18.4426841,31.2945944 C18.1181812,31.2945944 17.9153739,31.5450694 17.9153739,31.9651883 L17.9153739,31.9651883 L17.9153739,34.1222186 L16.4794666,34.1222186 L16.4794666,28.28125 L17.9072458,28.28125 Z M27.4313105,31.2712696 C26.9675126,31.2712696 26.6316263,31.6430701 26.6316263,32.1056937 C26.6316263,32.5683174 26.9675126,32.9401178 27.4313105,32.9401178 C27.8950528,32.9401178 28.2309391,32.5683174 28.2309391,32.1056937 C28.2309391,31.6430701 27.8950528,31.2712696 27.4313105,31.2712696 Z M22.8419781,31.2712696 C22.3781801,31.2712696 22.0422938,31.6430701 22.0422938,32.1056937 C22.0422938,32.5683174 22.3781801,32.9401178 22.8419781,32.9401178 C23.305776,32.9401178 23.6416067,32.5683174 23.6416067,32.1056937 C23.6416067,31.6430701 23.305776,31.2712696 22.8419781,31.2712696 Z M13.8411344,31.2712696 C13.3654585,31.2712696 13.0026996,31.6358493 13.0026996,32.1057219 C13.0026996,32.5755945 13.3654585,32.9401178 13.8411344,32.9401178 C14.3087327,32.9401178 14.6715478,32.5755945 14.6715478,32.1057219 C14.6715478,31.6358493 14.3087327,31.2712696 13.8411344,31.2712696 Z M33.515625,28.28125 L32.0047186,31.966623 L30.3169993,31.966623 L31.8279057,28.28125 L33.515625,28.28125 Z" id="Yahoo-wordmark" fill="#FFFFFF"></path>
                <g id="icon" transform="translate(8.671875, 6.093750)">
                    <path d="M2.02243083,17.341821 C0.905980869,17.340598 0.00122485021,16.4372312 0,15.3224955 L0,15.3224955 L0,0.707904718 C0,0.519779904 0.074998074,0.339392419 0.208435306,0.206576425 C0.341872537,0.0737604312 0.522771278,-0.000558452527 0.711184469,-4.7103841e-16 L0.711184469,-4.7103841e-16 L18.5819167,-4.7103841e-16 C18.7713025,-0.00174246068 18.9535742,0.071982168 19.0883279,0.204862702 C19.2230815,0.337743235 19.299185,0.518802302 19.2997685,0.707904718 L19.2997685,0.707904718 L19.299,1.5379698 L21.6366184,1.53832252 C21.9204665,1.53752343 22.191745,1.65715799 22.3848268,1.86835409 C22.5779086,2.07955018 22.6752065,2.36307048 22.6531824,2.6503266 L21.7373984,14.7793087 C21.5914501,16.2565196 20.3515474,17.3718132 18.8892666,17.341206 Z M16.5350389,12.732877 L2.63138253,12.732877 L2.63138253,14.5391747 L16.5283715,14.5391747 L16.5350389,12.732877 Z M19.4046138,13.8120743 C19.5529505,13.9116167 19.7458531,13.9116167 19.8941898,13.8120743 C19.9203886,13.7944934 19.9442962,13.7744121 19.9657221,13.7522877 L20.7142618,4.06025962 C20.7251478,3.88749978 20.6651973,3.71785635 20.5486104,3.59151156 C20.4320234,3.46516677 20.2691711,3.39335973 20.0986272,3.39309888 L19.299,3.3929698 L19.2974627,13.7106564 C19.3268279,13.7495913 19.3628032,13.784017 19.4046138,13.8120743 Z M16.5283715,9.10918633 L12.7502041,9.10918633 L12.7502041,10.9465506 L16.5283715,10.9465506 L16.5283715,9.10918633 Z M16.5283715,2.67175422 L12.7502041,2.67175422 L12.7502041,7.39608823 L16.5283715,7.39608823 L16.5283715,2.67175422 Z" id="Combined-Shape" fill="#FFFFFF"></path>
                    <rect id="Rectangle" fill="#008FF9" x="2.65721451" y="2.65721451" width="8.11149691" height="8.11149691"></rect>
                </g>
            </g>
        </g>
    </g>
</svg>