<?xml version="1.0" encoding="UTF-8"?>
<svg width="40px" height="40px" viewBox="0 0 40 40" version="1.1" xmlns="http://www.w3.org/2000/svg" xmlns:xlink="http://www.w3.org/1999/xlink">
    <title>APP-icon-yahoo-sports@1x</title>
    <defs>
        <linearGradient x1="13.466276%" y1="13.835907%" x2="87.901774%" y2="87.971115%" id="linearGradient-1">
            <stop stop-color="#7759FF" offset="0%"></stop>
            <stop stop-color="#6001D2" offset="100%"></stop>
        </linearGradient>
    </defs>
    <g id="yahoo-app-icons" stroke="none" stroke-width="1" fill="none" fill-rule="evenodd">
        <g id="yahoo-sports-app" transform="translate(-33.000000, -396.000000)" fill-rule="nonzero">
            <g id="APP-icon-yahoo-sports" transform="translate(33.000000, 396.000000)">
                <path d="M6,0 L34,0 C37.3137085,-6.08718376e-16 40,2.6862915 40,6 L40,34 C40,37.3137085 37.3137085,40 34,40 L6,40 C2.6862915,40 4.05812251e-16,37.3137085 0,34 L0,6 C-4.05812251e-16,2.6862915 2.6862915,6.08718376e-16 6,0 Z" id="Path" fill="url(#linearGradient-1)"></path>
                <g id="Group" transform="translate(6.000000, 4.666667)" fill="#FFFFFF">
                    <g transform="translate(1.187500, 23.536459)">
                        <path d="M24.0234375,4.140625 C23.5546875,4.140625 23.171875,4.5234375 23.171875,4.9921875 C23.171875,5.453125 23.53125,5.8125 23.9921875,5.8125 C24.46875,5.8125 24.84375,5.4375 24.84375,4.9609375 C24.84375,4.5 24.4921875,4.140625 24.0234375,4.140625 Z" id="Path"></path>
                        <polygon id="Path" points="25.234375 0.0390625 23.796875 3.5546875 25.2578125 3.5546875 26.703125 0.0390625"></polygon>
                        <path d="M20.6484375,1.734375 C19.4609375,1.734375 18.5703125,2.609375 18.5703125,3.7734375 C18.5703125,4.9375 19.4609375,5.8125 20.6484375,5.8125 C21.8359375,5.8125 22.7265625,4.9375 22.7265625,3.7734375 C22.7265625,2.609375 21.828125,1.734375 20.6484375,1.734375 L20.6484375,1.734375 Z M20.6796875,4.78125 C20.1484375,4.78125 19.75,4.3671875 19.75,3.8125 C19.75,3.2578125 20.1484375,2.84375 20.6796875,2.84375 C21.2109375,2.84375 21.609375,3.2578125 21.609375,3.8125 C21.6171875,4.3671875 21.2109375,4.78125 20.6796875,4.78125 Z" id="Shape"></path>
                        <path d="M15.9765625,1.734375 C14.7890625,1.734375 13.8984375,2.609375 13.8984375,3.7734375 C13.8984375,4.9375 14.7890625,5.8125 15.9765625,5.8125 C17.1640625,5.8125 18.0546875,4.9375 18.0546875,3.7734375 C18.0546875,2.609375 17.1640625,1.734375 15.9765625,1.734375 Z M16.015625,4.78125 C15.484375,4.78125 15.0859375,4.3671875 15.0859375,3.8125 C15.0859375,3.2578125 15.484375,2.84375 16.015625,2.84375 C16.546875,2.84375 16.9453125,3.2578125 16.9453125,3.8125 C16.9453125,4.3671875 16.546875,4.78125 16.015625,4.78125 Z" id="Shape"></path>
                        <path d="M12.078125,1.765625 C11.65625,1.765625 11.3203125,1.921875 11.078125,2.2265625 L10.8671875,2.484375 L10.8671875,2.1484375 L10.8671875,0.0390625 L9.64843747,0.0390625 L9.64843747,5.75 L10.875,5.75 L10.875,3.671875 C10.875,3.1875 11.1328125,2.875 11.53125,2.875 C11.921875,2.875 12.1484375,3.15625 12.1484375,3.625 L12.1484375,5.75 L13.375,5.75 L13.375,3.2734375 C13.3828125,2.34375 12.8828125,1.765625 12.078125,1.765625 Z" id="Path"></path>
                        <path d="M6.5390625,1.734375 C6.0390625,1.734375 5.5703125,1.9453125 5.2265625,2.3359375 C4.8828125,2.71875 4.6953125,3.234375 4.6953125,3.7734375 C4.6953125,4.9375 5.484375,5.8125 6.53125,5.8125 C6.96093747,5.8125 7.33593747,5.6484375 7.53906253,5.3671875 L7.75,5.078125 L7.75,5.4375 L7.75,5.703125 L8.91406253,5.703125 L8.91406253,1.8359375 L7.75,1.8359375 L7.75,2.1015625 L7.75,2.4453125 L7.53906253,2.171875 C7.34375,1.90625 6.953125,1.734375 6.5390625,1.734375 Z M7.8125,3.8125 C7.8125,4.3515625 7.390625,4.78125 6.85156253,4.78125 C6.3046875,4.78125 5.8828125,4.359375 5.8828125,3.8125 C5.8828125,3.2734375 6.3125,2.84375 6.85156253,2.84375 C7.390625,2.84375 7.8125,3.2734375 7.8125,3.8125 Z" id="Shape"></path>
                        <polygon id="Path" points="3.40625 1.875 2.484375 4.2265625 2.375 4.5078125 2.265625 4.2265625 1.34375 1.875 0.0234375 1.875 1.7109375 5.875 1.734375 5.921875 1.7109375 5.96875 1.1484375 7.30468747 2.4453125 7.30468747 4.6953125 1.875"></polygon>
                    </g>
                    <path d="M27.8009713,15.3155419 C26.8962199,18.7153589 23.4894903,21.3333333 20.0369847,21.3333333 L1.60940973,21.3333333 C0.473534047,21.3333333 -0.23061016,20.4025902 0.0691784533,19.2312091 C0.36896706,18.0598281 1.54164313,17.1332339 2.68380187,17.1332339 L21.1136208,17.1332339 C22.3168143,17.1332339 23.3862697,16.3813557 23.6510531,15.3155419 C23.9158364,14.2497281 23.2565707,12.788844 22.085241,12.788844 L4.82540553,12.788844 C1.4177784,12.788844 -0.690615133,9.4803034 0.213687333,6.04498993 C1.11664347,2.64701687 4.55748067,0 7.96600533,0 L26.3908876,0 C27.5263145,0 28.2309074,0.924750233 27.93067,2.09382633 C27.6304327,3.2629024 26.4591029,4.19410647 25.3227785,4.19410647 L6.90014013,4.19410647 C5.59237967,4.19410647 4.6274912,4.98240307 4.35956633,6.04498993 C4.09298787,7.0762294 4.62883753,8.60165233 5.92717353,8.60165233 L23.1879066,8.60165233 C26.5959825,8.6002694 28.6689221,11.9558312 27.8009713,15.3155419 L27.8009713,15.3155419 Z" id="Path"></path>
                </g>
            </g>
        </g>
    </g>
</svg>