<?xml version="1.0" encoding="UTF-8"?>
<svg width="40px" height="40px" viewBox="0 0 40 40" version="1.1" xmlns="http://www.w3.org/2000/svg" xmlns:xlink="http://www.w3.org/1999/xlink">
    <title>APP_icon_Auction</title>
    <defs>
        <linearGradient x1="75.8652882%" y1="24.3256053%" x2="8.5233797%" y2="92.0656882%" id="linearGradient-1">
            <stop stop-color="#FCDA19" offset="0%"></stop>
            <stop stop-color="#FFE762" offset="100%"></stop>
        </linearGradient>
    </defs>
    <g id="taiwan-app-icons" stroke="none" stroke-width="1" fill="none" fill-rule="evenodd">
        <g id="tw-auction" transform="translate(-33.000000, -409.000000)" fill-rule="nonzero">
            <g id="APP_icon_Auction" transform="translate(33.000000, 409.000000)">
                <rect id="Background" fill="url(#linearGradient-1)" x="0" y="0" width="40" height="40" rx="8"></rect>
                <g id="logo-pixel-hint" transform="translate(7.187500, 28.203125)" fill="#232A31">
                    <path d="M1.34375,1.875 L2.265625,4.2265625 L2.375,4.5078125 L2.484375,4.2265625 L3.40625,1.875 L4.6953125,1.875 L2.4453125,7.3046875 L1.1484375,7.3046875 L1.7109375,5.96875 L1.734375,5.921875 L1.7109375,5.875 L0.0234375,1.875 L1.34375,1.875 Z M24.0234375,4.140625 C24.4921875,4.140625 24.84375,4.5 24.84375,4.9609375 C24.84375,5.4375 24.46875,5.8125 23.9921875,5.8125 C23.53125,5.8125 23.171875,5.453125 23.171875,4.9921875 C23.171875,4.5234375 23.5546875,4.140625 24.0234375,4.140625 Z M20.6484375,1.734375 C21.828125,1.734375 22.7265625,2.609375 22.7265625,3.7734375 C22.7265625,4.9375 21.8359375,5.8125 20.6484375,5.8125 C19.4609375,5.8125 18.5703125,4.9375 18.5703125,3.7734375 C18.5703125,2.609375 19.4609375,1.734375 20.6484375,1.734375 Z M15.9765625,1.734375 C17.1640625,1.734375 18.0546875,2.609375 18.0546875,3.7734375 C18.0546875,4.9375 17.1640625,5.8125 15.9765625,5.8125 C14.7890625,5.8125 13.8984375,4.9375 13.8984375,3.7734375 C13.8984375,2.609375 14.7890625,1.734375 15.9765625,1.734375 Z M6.5390625,1.734375 C6.953125,1.734375 7.34375,1.90625 7.5390625,2.171875 L7.5390625,2.171875 L7.75,2.4453125 L7.75,1.8359375 L8.9140625,1.8359375 L8.9140625,5.703125 L7.75,5.703125 L7.75,5.078125 L7.5390625,5.3671875 C7.3359375,5.6484375 6.9609375,5.8125 6.53125,5.8125 C5.484375,5.8125 4.6953125,4.9375 4.6953125,3.7734375 C4.6953125,3.234375 4.8828125,2.71875 5.2265625,2.3359375 C5.5703125,1.9453125 6.0390625,1.734375 6.5390625,1.734375 Z M10.8671875,0.0390625 L10.8671875,2.484375 L11.078125,2.2265625 C11.3203125,1.921875 11.65625,1.765625 12.078125,1.765625 C12.8828125,1.765625 13.3828125,2.34375 13.375,3.2734375 L13.375,3.2734375 L13.375,5.75 L12.1484375,5.75 L12.1484375,3.625 C12.1484375,3.15625 11.921875,2.875 11.53125,2.875 C11.1328125,2.875 10.875,3.1875 10.875,3.671875 L10.875,3.671875 L10.875,5.75 L9.6484375,5.75 L9.6484375,0.0390625 L10.8671875,0.0390625 Z M20.6796875,2.84375 C20.1484375,2.84375 19.75,3.2578125 19.75,3.8125 C19.75,4.3671875 20.1484375,4.78125 20.6796875,4.78125 C21.2109375,4.78125 21.6171875,4.3671875 21.609375,3.8125 C21.609375,3.2578125 21.2109375,2.84375 20.6796875,2.84375 Z M16.015625,2.84375 C15.484375,2.84375 15.0859375,3.2578125 15.0859375,3.8125 C15.0859375,4.3671875 15.484375,4.78125 16.015625,4.78125 C16.546875,4.78125 16.9453125,4.3671875 16.9453125,3.8125 C16.9453125,3.2578125 16.546875,2.84375 16.015625,2.84375 Z M6.8515625,2.84375 C6.3125,2.84375 5.8828125,3.2734375 5.8828125,3.8125 C5.8828125,4.359375 6.3046875,4.78125 6.8515625,4.78125 C7.390625,4.78125 7.8125,4.3515625 7.8125,3.8125 C7.8125,3.2734375 7.390625,2.84375 6.8515625,2.84375 Z M26.703125,0.0390625 L25.2578125,3.5546875 L23.796875,3.5546875 L25.234375,0.0390625 L26.703125,0.0390625 Z" id="Combined-Shape"></path>
                </g>
                <g id="Group" transform="translate(7.421875, 4.453125)">
                    <path d="M20.8766553,2.84603175 L17.6193772,2.84603175 L17.6193772,0.914607217 C17.6193772,0.409536856 17.2077719,7.03538603e-06 16.7000984,7.03538603e-06 L16.2319287,7.03538603e-06 C15.7242201,7.03538603e-06 15.3126148,0.409536856 15.3126148,0.914607217 L15.3126148,2.84603175 L12.1093683,2.84603175 C10.4543993,2.84603175 9.10807267,4.18549889 9.10807267,5.83202546 L9.10807267,10.9767218 L11.4159959,10.433379 L11.4159959,6.04699168 C11.4215187,5.54642397 11.8300987,5.14213551 12.3343248,5.14213551 L20.6528246,5.14213551 C21.1540607,5.14213551 21.5598968,5.54181579 21.5699927,6.03805674 L21.5699927,18.213531 C21.5598968,18.7098071 21.1540607,19.1094523 20.6528246,19.1094523 L20.5273132,19.1094523 L20.5273132,19.1096633 L12.4595898,19.1096633 L12.4595898,19.1094523 L12.3343248,19.1094523 C11.8300987,19.1094523 11.4215187,18.7051989 11.4159959,18.204596 L11.4159959,14.7911323 L9.10807267,15.6931039 L9.10807267,18.4198788 C9.10807267,20.0662999 10.4543993,21.405767 12.1093683,21.405767 L20.8766553,21.405767 C22.5315893,21.405767 23.8779158,20.0662999 23.8779158,18.4198788 L23.8779158,5.83202546 C23.8779158,4.18549889 22.5315893,2.84603175 20.8766553,2.84603175" id="Fill-4" fill="#000000"></path>
                    <path d="M4.11453858,20.5360421 C4.11453858,21.0165589 4.51460582,21.4057917 5.00803262,21.4057917 L5.43648763,21.4057917 C5.92991443,21.4057917 6.32998165,21.0165589 6.32998165,20.5360421 L6.32998165,16.976981 L4.11453858,17.8330468 L4.11453858,20.5360421" id="Fill-6" fill="#000000"></path>
                    <path d="M2.14985076,5.09027768 L3.20899294,5.09027768 C3.70277152,5.10346903 4.09907481,5.49991303 4.10280357,5.99080709 L4.10280357,12.0561189 L6.38145957,11.5308922 L6.38145957,5.96984164 C6.39640977,5.488973 6.78673298,5.10325797 7.27315957,5.09027768 L8.14231116,5.09027768 C8.21561988,4.16709433 8.67028167,3.35988931 9.35426192,2.81394335 L7.29936638,2.81394335 C6.79566792,2.81394335 6.38810801,2.41324294 6.38145957,1.91665022 L6.38145957,0.909499525 C6.38145957,0.407278498 5.96999502,-1.18423789e-14 5.46246227,-1.18423789e-14 L5.02180087,-1.18423789e-14 C4.51426812,-1.18423789e-14 4.10280357,0.407278498 4.10280357,0.909499525 L4.10280357,1.91116262 C4.09907481,2.41028808 3.68989676,2.81394335 3.18443945,2.81394335 L2.14985076,2.81394335 C1.64231801,2.81394335 1.23085346,3.22115149 1.23085346,3.72347806 L1.23085346,4.18077815 C1.23085346,4.68328059 1.64231801,5.09027768 2.14985076,5.09027768" id="Fill-8" fill="#000000"></path>
                    <path d="M12.2024148,11.4285168 L1.39806699,14.1276426 C1.32444168,14.1400952 1.25078118,14.1561008 1.17828153,14.1785084 C0.270505673,14.4592907 -0.215674678,15.3731522 0.0926862917,16.2192277 C0.400343723,17.0657605 1.38659932,17.5243622 2.29507871,17.2431578 C2.36757837,17.222122 2.43663068,17.1938398 2.50381862,17.163869 L12.6089547,13.2453348 L12.2024148,11.4285168 Z" id="Fill-10" fill="#000000"></path>
                    <path d="M20.58373,11.6737914 C20.58373,14.0234345 18.6780902,15.9280542 16.3273215,15.9280542 C13.9765176,15.9280542 12.0709129,14.0234345 12.0709129,11.6737914 C12.0709129,9.32414833 13.9765176,7.41945831 16.3273215,7.41945831 C18.6780902,7.41945831 20.58373,9.32414833 20.58373,11.6737914" id="Fill-13" fill="#000000"></path>
                    <path d="M18.7193528,11.6737914 C18.7193528,12.9844838 17.6563411,14.0470733 16.3449099,14.0470733 C15.0335492,14.0470733 13.9704672,12.9844838 13.9704672,11.6737914 C13.9704672,10.363099 15.0335492,9.3005095 16.3449099,9.3005095 C17.6563411,9.3005095 18.7193528,10.363099 18.7193528,11.6737914" id="Fill-15" fill="#3ABDB9"></path>
                </g>
            </g>
        </g>
    </g>
</svg>