<?xml version="1.0" encoding="UTF-8"?>
<svg xmlns="http://www.w3.org/2000/svg" xmlns:xlink="http://www.w3.org/1999/xlink" width="20pt" height="23pt" viewBox="0 0 20 23" version="1.1">
<g id="surface1">
<path style=" stroke:none;fill-rule:nonzero;fill:rgb(0%,0%,0%);fill-opacity:1;" d="M 16.675781 22.078125 C 15.386719 23.289062 13.964844 23.101562 12.613281 22.53125 C 11.171875 21.949219 9.859375 21.910156 8.335938 22.53125 C 6.445312 23.320312 5.4375 23.09375 4.300781 22.078125 C -2.136719 15.664062 -1.1875 5.886719 6.128906 5.519531 C 7.902344 5.613281 9.144531 6.46875 10.191406 6.542969 C 11.742188 6.234375 13.230469 5.359375 14.894531 5.472656 C 16.890625 5.628906 18.386719 6.394531 19.382812 7.765625 C 15.273438 10.160156 16.246094 15.402344 20.019531 16.875 C 19.265625 18.796875 18.296875 20.691406 16.671875 22.097656 Z M 10.046875 5.449219 C 9.855469 2.597656 12.242188 0.253906 14.988281 0.0234375 C 15.367188 3.3125 11.898438 5.773438 10.046875 5.449219 Z M 10.046875 5.449219 "/>
</g>
</svg>