<svg xmlns="http://www.w3.org/2000/svg" viewBox="0 0 222 45"><defs><style>.cls-1,.cls-2,.cls-3,.cls-6{fill:#9bb1c3;}.cls-2{opacity:0.8;}.cls-3{opacity:0.7;}.cls-4{fill:#fff;}.cls-5{fill:#ff8b12;}.cls-6{fill-rule:evenodd;}.cls-7{fill:none;}</style></defs><g id="Layer_2" data-name="Layer 2"><g id="Layer_1-2" data-name="Layer 1"><path class="cls-1" d="M220.11,44.6H165.33a1.55,1.55,0,0,1-1.41-.91,1.59,1.59,0,0,1,.21-1.71l4.33-5.2a2.67,2.67,0,0,1,2-1h44.44a2.69,2.69,0,0,1,2.05,1l4.32,5.2a1.59,1.59,0,0,1,.22,1.71A1.56,1.56,0,0,1,220.11,44.6Zm-.34-1.34h0Zm-53.54-.67h53l-3.76-4.52a.66.66,0,0,0-.51-.25H170.5a.64.64,0,0,0-.5.25Z"/><path class="cls-1" d="M213.62,34.28h-41.8A3.27,3.27,0,0,1,168.56,31V5.6a3.27,3.27,0,0,1,3.26-3.26h41.8a3.26,3.26,0,0,1,3.26,3.26V31A3.26,3.26,0,0,1,213.62,34.28ZM171.82,4.35a1.25,1.25,0,0,0-1.25,1.25V31a1.26,1.26,0,0,0,1.25,1.26h41.8A1.27,1.27,0,0,0,214.88,31V5.6a1.26,1.26,0,0,0-1.26-1.25Z"/><rect class="cls-2" x="186.68" y="39.94" width="12.08" height="1.4" rx="0.7"/><path class="cls-3" d="M192.76,26.57a8.21,8.21,0,1,1,8.2-8.21A8.2,8.2,0,0,1,192.76,26.57Z"/><circle class="cls-4" cx="192.75" cy="16.52" r="2.69"/><path class="cls-4" d="M192.74,24.88a6.54,6.54,0,0,0,5.35-2.78.15.15,0,0,0,0-.17h0a5.47,5.47,0,0,0-2.92-1.54h0a13.76,13.76,0,0,0-4.79,0h0a5.47,5.47,0,0,0-2.92,1.54h0a.12.12,0,0,0,0,.17,6.52,6.52,0,0,0,5.34,2.78"/><circle class="cls-5" cx="59.77" cy="24.43" r="3.05"/><circle class="cls-5" cx="69.23" cy="24.43" r="3.05"/><circle class="cls-5" cx="78.69" cy="24.43" r="3.05"/><circle class="cls-5" cx="138.62" cy="24.43" r="3.05"/><circle class="cls-5" cx="148.09" cy="24.43" r="3.05"/><circle class="cls-5" cx="157.55" cy="24.43" r="3.05"/><path class="cls-1" d="M49.19,21.05h-4.7L41.29,5.56A6.59,6.59,0,0,0,34.87.33H15.54A6.59,6.59,0,0,0,9.12,5.56L5.92,21.05H1.22a.9.9,0,0,0,0,1.8h48a.9.9,0,0,0,0-1.8ZM10.89,5.93a4.77,4.77,0,0,1,4.65-3.8H34.87a4.77,4.77,0,0,1,4.65,3.8l3.13,15.12H7.76Z"/><path class="cls-1" d="M28.86,42.45a3.64,3.64,0,0,1-2.8-1.31l-.85-1-.86,1a3.65,3.65,0,0,1-3.72,1.19L6.8,38.66A2.4,2.4,0,0,1,5,36.35V24.52H45.4V36.35a2.4,2.4,0,0,1-1.78,2.31L29.78,42.33A3.63,3.63,0,0,1,28.86,42.45ZM25.2,37.89a1,1,0,0,1,.8.37L27.45,40a1.83,1.83,0,0,0,1.87.59l13.84-3.66a.6.6,0,0,0,.44-.57v-10H6.82v10a.6.6,0,0,0,.44.57L21.1,40.58A1.84,1.84,0,0,0,23,40l1.43-1.73a1,1,0,0,1,.8-.37Z"/><path class="cls-6" d="M13.75,29.21A1,1,0,0,0,13,30.36a3.93,3.93,0,0,0,3.55,3.36A5.87,5.87,0,0,0,21.19,33a1,1,0,0,0,.24-1.27,5.5,5.5,0,0,0-3.92-2.39A10.3,10.3,0,0,0,13.75,29.21Z"/><path class="cls-6" d="M36.65,29.21a1,1,0,0,1,.77,1.15,3.93,3.93,0,0,1-3.55,3.36A5.87,5.87,0,0,1,29.21,33,1,1,0,0,1,29,31.71a5.5,5.5,0,0,1,3.92-2.39A10.3,10.3,0,0,1,36.65,29.21Z"/><path class="cls-5" d="M108.77,44.67a19.79,19.79,0,1,1,19.78-19.8A19.79,19.79,0,0,1,108.77,44.67Z"/><path class="cls-4" d="M108.77,30.9A2.22,2.22,0,0,0,111,28.68h0V13.44a2.22,2.22,0,1,0-4.44,0V28.68a2.21,2.21,0,0,0,2.22,2.22Z"/><path class="cls-4" d="M108.77,34.4A2.22,2.22,0,1,0,111,36.62a2.21,2.21,0,0,0-2.22-2.22Z"/><rect class="cls-7" width="222" height="45"/></g></g></svg>