<svg xmlns="http://www.w3.org/2000/svg" width="140" height="140" viewBox="0 0 140 140">
    <defs>
        <radialGradient id="kpdswq5fla" cx="50%" cy="50%" r="50%" fx="50%" fy="50%">
            <stop offset="0%" stop-color="#6001D2"/>
            <stop offset="100%" stop-color="#6001D2" stop-opacity="0"/>
        </radialGradient>
        <linearGradient id="aclb7ow16b" x1="50%" x2="50%" y1="0%" y2="100%">
            <stop offset="0%" stop-color="#FFF"/>
            <stop offset="100%" stop-color="#FFF" stop-opacity="0"/>
        </linearGradient>
    </defs>
    <g fill="none" fill-rule="evenodd">
        <g>
            <g transform="translate(-694 -360) translate(694 360)">
                <circle cx="70" cy="70" r="70" fill="url(#kpdswq5fla)" opacity=".8"/>
                <circle cx="70" cy="70" r="53.667" fill="#39007D"/>
                <rect width="48.222" height="48.222" x="83.53" y="20.308" fill="#11D3CD" opacity=".96" rx="14" transform="rotate(15 107.641 44.419)"/>
                <g fill="#FFF" opacity=".96">
                    <path d="M11.098 12.207c.613 0 1.109.496 1.109 1.11v4.44c0 .612-.496 1.109-1.109 1.109-.614 0-1.11-.497-1.11-1.11v-4.439c0-.614.496-1.11 1.11-1.11m0-9.987C6.74 2.22 6.66 6.659 6.66 6.659h8.877s-.079-4.44-4.438-4.44m9.987 22.196H1.109c-.612 0-1.11-.498-1.11-1.11V7.768c0-.613.498-1.11 1.11-1.11h3.33C4.44 2.982 7.42 0 11.1 0c3.676 0 6.658 2.98 6.658 6.659h3.328c.614 0 1.11.496 1.11 1.11v15.536c0 .612-.496 1.11-1.11 1.11" transform="rotate(15 -61.865 395.995)"/>
                </g>
                <g transform="translate(0 5)">
                    <rect width="77.778" height="77.778" x="6.364" y="6.364" fill="#7759FF" opacity=".96" rx="14.141" transform="rotate(-9 45.253 45.253)"/>
                    <rect width="63.636" height="61.515" x="13.664" y="14.842" fill="url(#aclb7ow16b)" opacity=".14" rx="14.141" transform="rotate(170 45.482 45.6)"/>
                    <g fill="#FFF" opacity=".96">
                        <path d="M27.69 34.62c0 .952.775 1.722 1.73 1.722.956 0 1.731-.77 1.731-1.722v-3.513c0-.936-.76-1.696-1.696-1.696h-.07c-.935 0-1.695.76-1.695 1.696v3.513zM18.665 7.06c-6.63.2-11.743 5.959-11.743 12.563v1.165c0 .937.76 1.697 1.696 1.697h.07c.936 0 1.696-.76 1.696-1.697v-1.3c0-4.5 3.303-8.519 7.803-8.946 5.16-.49 9.503 3.538 9.503 8.576v5.098c0 .958.775 1.731 1.73 1.731.956 0 1.731-.773 1.731-1.73v-5.1c0-6.785-5.626-12.261-12.486-12.057zM34.09 8.637h-.049c-1.313 0-2.108 1.414-1.452 2.551 1.288 2.232 2.023 4.813 2.023 7.562v14.158c0 1.573 2.013 2.306 3.034 1.094l.035-.042c.258-.306.393-.696.393-1.094V18.75c0-3.388-.926-6.558-2.525-9.3-.3-.512-.866-.813-1.46-.813zm-15.332 7.042c-2.809.147-4.913 2.656-4.913 5.455v6.608c0 .952.775 1.724 1.73 1.724.956 0 1.731-.772 1.731-1.724v-6.9c0-.951.775-1.723 1.73-1.723.956 0 1.731.772 1.731 1.722v15.51c0 .952.776 1.723 1.731 1.723.955 0 1.73-.77 1.73-1.723v-15.51c0-2.946-2.476-5.318-5.47-5.162zM18 3.443c2.86-.182 5.557.409 7.923 1.562.225.109.469.17.718.17h.094c1.765 0 2.383-2.416.8-3.198C24.877.664 21.867-.054 18.68.003 12.441.116 7.026 3.308 3.655 8.046c-.583.82-.34 1.97.533 2.474l.004.002c.747.433 1.711.24 2.206-.466C9.008 6.332 13.153 3.751 18 3.443zm-2.424 27.739c-.956 0-1.731.772-1.731 1.722v3.447c0 .952.775 1.723 1.73 1.723.956 0 1.731-.77 1.731-1.723v-3.447c0-.95-.775-1.722-1.73-1.722zm-8.654 1.707c0 .952.776 1.722 1.731 1.722.955 0 1.73-.77 1.73-1.722v-5.244c0-.937-.759-1.697-1.695-1.697h-.07c-.936 0-1.696.76-1.696 1.697v5.244zM0 19.373v10.03c0 .399.135.789.393 1.095l.033.041c1.023 1.212 3.035.48 3.035-1.094V19.276c0-.739.056-1.466.158-2.183.095-.668-.258-1.322-.843-1.66l-.042-.024c-1.02-.589-2.348.01-2.525 1.177C.073 17.498 0 18.428 0 19.373z" transform="rotate(-9 193.72 -138.436)"/>
                    </g>
                </g>
                <path stroke="#39007D" stroke-linecap="round" stroke-width="4.667" d="M29.889 21.667l-8.21 1.295c-6.626 1.045-11.15 7.265-10.105 13.891l.002.015L12.87 45h0M75.47 34.64l-1.263-7.976c-1.05-6.626-7.272-11.147-13.898-10.097l-7.976 1.263h0M16.667 65.719l1.263 7.976c1.05 6.626 7.272 11.147 13.897 10.097l7.976-1.263h0M77.84 55.704l1.124 7.997c.934 6.643-3.694 12.785-10.338 13.719l-7.996 1.124h0"/>
                <g opacity=".96">
                    <g transform="translate(50 61)">
                        <circle cx="34.782" cy="34.782" r="34.284" fill="#29D781"/>
                        <path fill="#01AC5F" d="M40.845 8.296c14.058 6.286 22.611 21.604 19.82 37.55-3.287 18.78-21.063 31.32-39.704 28.008-5.712-1.014-10.843-3.4-15.117-6.76 2.497 1.114 5.166 1.945 7.976 2.444 18.641 3.312 36.418-9.228 39.705-28.007C55.793 28.573 50.57 16.03 40.99 8.41z" transform="rotate(90 33.516 41.34)"/>
                    </g>
                    <g fill="#FFF">
                        <path d="M23.047 14.497l-7.906 7.776c-.633.63-1.6.615-2.28 0l-4.538-4.475c-.63-.623-.63-1.635 0-2.262.628-.622 1.649-.622 2.278 0l3.401 3.348 6.767-6.647c.631-.623 1.65-.623 2.278 0 .632.626.632 1.637 0 2.26m6.893-8.056c-2.635-.184-7.853-1.216-13.222-6.045C16.425.132 16.057 0 15.687 0c-.37 0-.74.132-1.033.396C9.287 5.225 4.068 6.257 1.434 6.441.6 6.5 0 7.21 0 8.047c0 19.028 12.742 25.442 15.143 26.36.177.068.365.102.552.102.18 0 .362-.033.534-.095 2.4-.889 15.143-7.264 15.143-26.37.002-.835-.6-1.544-1.432-1.603" transform="translate(50 61) translate(19.566 17.014)"/>
                    </g>
                </g>
            </g>
        </g>
    </g>
</svg>
