<svg xmlns="http://www.w3.org/2000/svg" width="204" height="175" viewBox="0 0 204 175">
    <defs>
        <radialGradient id="2a028defea" cx="50%" cy="50%" r="50%" fx="50%" fy="50%">
            <stop offset="0%" stop-color="#6001D2"/>
            <stop offset="100%" stop-color="#6001D2" stop-opacity="0"/>
        </radialGradient>
    </defs>
    <g fill="none" fill-rule="evenodd">
        <g>
            <g transform="translate(-662 -337) translate(662 337)">
                <path d="M0 6.653H204V174.653H0z"/>
                <path fill="#7759FF" d="M183.894 71.52c4.038 4.115 5.398 4.123 9.512.054-4.114 4.07-4.126 5.435-.09 9.546-4.036-4.11-5.398-4.122-9.51-.05 4.112-4.073 4.126-5.435.088-9.55z" transform="rotate(45 188.606 76.32)"/>
                <ellipse cx="29.537" cy="162.051" stroke="#7759FF" stroke-width="2.4" opacity=".2" rx="3" ry="2.998" transform="scale(-1 1) rotate(-37 0 250.329)"/>
                <ellipse cx="173.537" cy="137.851" stroke="#7759FF" stroke-width="2.4" opacity=".2" rx="3" ry="2.998" transform="scale(-1 1) rotate(-37 0 656.5)"/>
                <circle cx="156.65" cy="25.579" r="21.5" fill="#11D3CD" opacity=".3" transform="rotate(-95 156.65 25.579)"/>
                <circle cx="134.142" cy="15" r="13" fill="#11D3CD" opacity=".1" transform="rotate(-95 134.142 15)"/>
                <circle cx="27.138" cy="24.052" r="3" stroke="#7759FF" stroke-width="2.4" opacity=".2" transform="scale(-1 1) rotate(-37 0 105.16)"/>
                <path fill="#7759FF" d="M3.731 68.914c6.058 6.172 8.098 6.185 14.269.082-6.171 6.103-6.19 8.152-.134 14.318-6.055-6.166-8.098-6.183-14.266-.076 6.168-6.108 6.19-8.152.131-14.324z" transform="rotate(45 10.8 76.114)"/>
                <path fill="#7759FF" d="M110.694 161.52c4.038 4.115 5.398 4.123 9.512.054-4.114 4.07-4.126 5.435-.09 9.546-4.036-4.11-5.398-4.122-9.51-.05 4.112-4.073 4.126-5.435.088-9.55z" transform="rotate(45 115.406 166.32)"/>
                <circle cx="56.5" cy="133.153" r="21.5" fill="#11D3CD" opacity=".3" transform="matrix(-1 0 0 1 113 0)"/>
                <circle cx="38.5" cy="115.153" r="11.5" fill="#11D3CD" opacity=".1" transform="matrix(-1 0 0 1 77 0)"/>
                <circle cx="78.5" cy="145.153" r="13.5" fill="#11D3CD" opacity=".1"/>
                <circle cx="103" cy="78.653" r="72" fill="url(#2a028defea)" opacity=".26"/>
                <g opacity=".96" transform="translate(59 35)">
                    <circle cx="44.764" cy="44.764" r="44.124" fill="#29D781"/>
                    <path fill="#01AC5F" d="M52.565 10.678c18.093 8.09 29.102 27.805 25.51 48.329-4.23 24.169-27.108 40.307-51.1 36.045-7.351-1.306-13.954-4.376-19.456-8.701 3.214 1.435 6.65 2.504 10.267 3.147 23.991 4.261 46.869-11.877 51.1-36.046 2.918-16.677-3.804-32.82-16.133-42.626z" transform="rotate(90 43.136 53.206)"/>
                </g>
                <g fill="#FFF" opacity=".96">
                    <path d="M29.365 18.471L19.292 28.38c-.807.803-2.039.783-2.905 0l-5.783-5.703c-.802-.792-.802-2.082 0-2.88.801-.793 2.101-.793 2.904 0l4.333 4.264 8.621-8.468c.805-.795 2.103-.795 2.903 0 .805.797.805 2.085 0 2.88m8.782-10.266c-3.356-.233-10.006-1.549-16.846-7.7C20.927.167 20.458 0 19.987 0c-.471 0-.942.168-1.316.505C11.832 6.657 5.183 7.973 1.827 8.206.765 8.282 0 9.186 0 10.253c0 24.244 16.235 32.416 19.294 33.586.226.086.465.13.703.13.23 0 .461-.042.68-.122 3.06-1.132 19.295-9.254 19.295-33.598.002-1.064-.765-1.967-1.825-2.043" transform="translate(85 56)"/>
                </g>
            </g>
        </g>
    </g>
</svg>
