<svg xmlns="http://www.w3.org/2000/svg" width="140" height="139" viewBox="0 0 140 139">
    <defs>
        <radialGradient id="ykvhb9joda" cx="50%" cy="50%" r="50%" fx="50%" fy="50%">
            <stop offset="0%" stop-color="#6001D2"/>
            <stop offset="100%" stop-color="#6001D2" stop-opacity="0"/>
        </radialGradient>
    </defs>
    <g fill="none" fill-rule="evenodd">
        <g>
            <g transform="translate(-110 -242) translate(110 242)">
                <circle cx="68.445" cy="65.333" r="65.333" fill="url(#ykvhb9joda)"/>
                <circle cx="68.446" cy="65.335" r="53.667" fill="#39007D"/>
                <g transform="rotate(15 -12.966 346.621)">
                    <rect width="51.333" height="60.667" x=".309" y=".669" fill="#11D3CD" opacity=".96" rx="14.002"/>
                    <circle cx="12.331" cy="15.977" r="7.001" fill="#FFF" fill-opacity=".5"/>
                    <circle cx="40.45" cy="46.284" r="7.001" fill="#FFF" fill-opacity=".5"/>
                    <path stroke="#FFF" stroke-linecap="round" stroke-width="4.667" d="M12.38 15.955h25.391c.645 0 1.167.522 1.167 1.166 0 .442-.25.846-.645 1.044L14.385 30.119c-.576.288-.81.989-.522 1.565.107.215.278.39.488.505l26.03 14.099h0" opacity=".8"/>
                    <circle cx="12.446" cy="15.947" r="3.5" fill="#39007D"/>
                    <circle cx="26.448" cy="15.947" r="3.5" fill="#39007D"/>
                    <circle cx="40.45" cy="15.947" r="3.5" fill="#39007D"/>
                    <circle cx="11.982" cy="31.24" r="3.5" fill="#39007D"/>
                    <circle cx="26.448" cy="31.115" r="3.5" fill="#39007D"/>
                    <circle cx="40.45" cy="31.115" r="3.5" fill="#39007D"/>
                    <circle cx="12.446" cy="46.284" r="3.5" fill="#39007D"/>
                    <circle cx="26.448" cy="46.284" r="3.5" fill="#39007D"/>
                    <circle cx="40.45" cy="46.284" r="3.5" fill="#39007D"/>
                </g>
                <rect width="77" height="77" x="5.549" y="21.882" fill="#7759FF" opacity=".96" rx="14.002" transform="rotate(-9 44.049 60.382)"/>
                <path stroke="#39007D" stroke-linecap="round" stroke-width="3.5" d="M27.773 31.889l-7.509 1.19c-6.037.955-10.156 6.624-9.2 12.661l1.19 7.509h0M73.471 44.106l-1.19-7.508c-.955-6.037-6.624-10.156-12.661-9.2l-7.509 1.19h0M15.167 75.643l1.189 7.508c.956 6.037 6.625 10.156 12.662 9.2l7.509-1.19h0"/>
                <g opacity=".96" transform="translate(45.111 65.567)">
                    <circle cx="36.88" cy="36.491" r="31.5" fill="#21D87D" transform="rotate(10 36.88 36.491)"/>
                    <path fill="#00AB5E" d="M41.437 13.268c13.012 5.818 20.93 19.997 18.346 34.756-3.042 17.382-19.496 28.988-36.75 25.923-5.287-.939-10.036-3.147-13.993-6.258 2.312 1.032 4.783 1.802 7.385 2.264 17.253 3.065 33.707-8.542 36.749-25.923 2.1-11.994-2.735-23.603-11.602-30.655z" transform="rotate(90 34.656 43.853)"/>
                </g>
                <g fill="#39007D">
                    <path d="M23.758 29.703c0 .817.665 1.478 1.484 1.478.82 0 1.485-.66 1.485-1.478V26.69c0-.804-.652-1.456-1.455-1.456h-.06c-.803 0-1.454.652-1.454 1.456v3.013zM16.014 6.058C10.326 6.23 5.94 11.171 5.94 16.838v1c0 .803.652 1.455 1.456 1.455h.059c.803 0 1.455-.652 1.455-1.456v-1.115c0-3.862 2.835-7.31 6.695-7.677 4.428-.42 8.154 3.036 8.154 7.359v4.374c0 .821.665 1.485 1.484 1.485.82 0 1.485-.664 1.485-1.485v-4.374c0-5.823-4.827-10.52-10.713-10.346zM29.25 7.41h-.042c-1.127 0-1.809 1.214-1.246 2.19 1.105 1.914 1.736 4.129 1.736 6.487v12.147c0 1.35 1.727 1.979 2.603.94l.03-.036c.22-.263.337-.598.337-.94v-12.11c0-2.907-.795-5.627-2.167-7.98-.257-.44-.742-.698-1.251-.698zm-13.155 6.042c-2.41.127-4.215 2.279-4.215 4.68v5.67c0 .817.665 1.48 1.485 1.48.82 0 1.484-.663 1.484-1.48v-5.92c0-.816.666-1.478 1.485-1.478.82 0 1.485.662 1.485 1.478v13.307c0 .817.665 1.478 1.485 1.478.82 0 1.485-.661 1.485-1.478V17.882c0-2.528-2.125-4.563-4.694-4.43zm-.65-10.498c2.453-.156 4.768.35 6.798 1.34.193.093.402.145.616.145h.08c1.514 0 2.045-2.072.686-2.743C21.344.57 18.763-.046 16.027.003c-5.352.096-9.999 2.835-12.891 6.9-.5.705-.291 1.69.457 2.123l.003.002c.642.37 1.469.206 1.893-.4 2.24-3.195 5.796-5.41 9.955-5.674zm-2.08 23.8c-.82 0-1.485.662-1.485 1.477v2.958c0 .817.665 1.478 1.485 1.478.82 0 1.484-.661 1.484-1.478V28.23c0-.815-.665-1.477-1.484-1.477zm-7.425 1.464c0 .817.666 1.478 1.485 1.478.82 0 1.485-.661 1.485-1.478V23.72c0-.804-.652-1.456-1.455-1.456h-.06c-.803 0-1.455.652-1.455 1.456v4.5zM0 16.622v8.606c0 .342.116.676.337.939l.028.035c.878 1.04 2.605.412 2.605-.938v-8.725c0-.634.047-1.258.135-1.873.081-.573-.221-1.135-.723-1.425l-.036-.02C1.47 12.716.331 13.23.18 14.23c-.118.782-.18 1.58-.18 2.391z" transform="rotate(10 -430.168 433.874)"/>
                </g>
                <g>
                    <path fill="#FFDE00" d="M0 21.003c0 11.6 9.404 21.003 21.003 21.003 11.6 0 21.003-9.404 21.003-21.003C42.006 9.403 32.602 0 21.003 0 9.403 0 0 9.404 0 21.003z" transform="rotate(-10 250.173 -92.328)"/>
                    <path fill="#FFA700" d="M5.834 16.146c0 11.6 9.404 21.003 21.003 21.003 3.615 0 7.016-.913 9.986-2.521-3.85 4.406-9.51 7.189-15.82 7.189C9.403 41.817 0 32.413 0 20.814 0 12.83 4.455 5.886 11.015 2.334c-3.226 3.692-5.18 8.524-5.18 13.812z" opacity=".5" transform="rotate(-10 250.173 -92.328)"/>
                    <path fill="#39007D" d="M27.686 15.275c-1.583 0-2.864 1.283-2.864 2.864 0 1.583 1.28 2.864 2.864 2.864 1.583 0 2.864-1.281 2.864-2.864 0-1.581-1.281-2.864-2.864-2.864M14.32 21.003c1.583 0 2.864-1.281 2.864-2.864 0-1.581-1.28-2.864-2.864-2.864-1.58 0-2.864 1.283-2.864 2.864 0 1.583 1.283 2.864 2.864 2.864M27.797 25.006H14.033c-1.532 0-2.334 1.741-1.555 3.148 1.567 2.826 4.794 5.018 8.458 5.018 3.665 0 6.844-2.007 8.416-5.018.94-1.799-.347-3.148-1.555-3.148" transform="rotate(-10 250.173 -92.328)"/>
                    <path fill="#FFF" d="M20.29 4.078c-1.532 0-2.334 1.492-1.555 2.698 1.567 2.422 4.794 4.302 8.458 4.302 3.665 0 6.845-1.72 8.416-4.302.94-1.542-.347-2.698-1.554-2.698-3.33 1.057-5.757 1.586-7.28 1.586-1.536 0-3.697-.529-6.485-1.586z" opacity=".5" transform="rotate(-10 250.173 -92.328) rotate(-150 27.183 7.578)"/>
                </g>
            </g>
        </g>
    </g>
</svg>
