<?xml version="1.0" encoding="UTF-8"?>
<svg width="16px" height="17px" viewBox="0 0 16 17" version="1.1" xmlns="http://www.w3.org/2000/svg" xmlns:xlink="http://www.w3.org/1999/xlink">
    <defs>
        <linearGradient x1="94.2906574%" y1="1.11022302e-14%" x2="5.70934256%" y2="100%" id="linearGradient-1">
            <stop stop-color="#7764F9" offset="0%"></stop>
            <stop stop-color="#769FFC" offset="100%"></stop>
        </linearGradient>
    </defs>
    <g id="Account-Access" stroke="none" stroke-width="1" fill="none" fill-rule="evenodd">
        <g id="User-Name-Copy-9" transform="translate(-376.000000, -110.000000)" fill="url(#linearGradient-1)">
            <path d="M377.454545,121.333333 L377.454545,125.583333 L390.545455,125.583333 L390.545455,118.5 L377.454545,118.5 L377.454545,119.916667 L390.545455,119.916667 L390.545455,121.333333 L377.454545,121.333333 Z M386.909091,117.083333 L386.909091,114.268939 C386.909091,113.867278 387.234702,113.541667 387.636364,113.541667 C388.038025,113.541667 388.363636,113.867278 388.363636,114.268939 L388.363636,117.083333 L391.272727,117.083333 C391.674389,117.083333 392,117.408944 392,117.810606 L392,126.272727 C392,126.674389 391.674389,127 391.272727,127 L376.727273,127 C376.325611,127 376,126.674389 376,126.272727 L376,117.810606 C376,117.408944 376.325611,117.083333 376.727273,117.083333 L379.636364,117.083333 L379.636364,114.268939 C379.636364,113.867278 379.961975,113.541667 380.363636,113.541667 C380.765298,113.541667 381.090909,113.867278 381.090909,114.268939 L381.090909,117.083333 L383.272727,117.083333 L383.272727,114.268939 C383.272727,113.867278 383.598338,113.541667 384,113.541667 C384.401662,113.541667 384.727273,113.867278 384.727273,114.268939 L384.727273,117.083333 L386.909091,117.083333 Z M383.999416,110.526649 C384.419472,111.105718 385.069672,112.272478 384.727273,112.833333 C384.384874,113.394189 383.636364,113.394189 383.272727,112.833333 C383.030303,112.45943 383.272533,111.690535 383.999416,110.526649 Z M377.453576,111.753342 C377.550545,111.624448 377.667394,111.510579 377.800242,111.416432 C377.667394,111.32252 377.550545,111.208651 377.453576,111.079756 C377.356848,111.208651 377.239758,111.32252 377.107152,111.416432 C377.239758,111.510579 377.356606,111.624448 377.453576,111.753342 Z M378.725576,111.240112 C378.825939,111.240112 378.909091,111.318998 378.909091,111.416197 C378.909091,111.513396 378.825939,111.592517 378.725576,111.592517 C378.123394,111.592517 377.635394,112.074053 377.635394,112.657248 C377.635394,112.754447 377.554182,112.833333 377.453818,112.833333 C377.353455,112.833333 377.272,112.754447 377.272,112.657248 C377.272,112.074053 376.783758,111.592517 376.181576,111.592048 C376.081455,111.592048 376,111.513396 376,111.416197 C376,111.318998 376.081455,111.240112 376.181576,111.240112 C376.783758,111.240112 377.272,110.759281 377.272,110.176086 C377.272,110.078886 377.353455,110 377.453818,110 C377.554182,110 377.635394,110.078886 377.635394,110.176086 C377.635394,110.759281 378.123394,111.240112 378.725576,111.240112 Z M390.544485,113.878342 C390.641455,113.749448 390.758303,113.635579 390.891152,113.541432 C390.758303,113.44752 390.641455,113.333651 390.544485,113.204756 C390.447758,113.333651 390.330667,113.44752 390.198061,113.541432 C390.330667,113.635579 390.447515,113.749448 390.544485,113.878342 Z M391.816485,113.365112 C391.916848,113.365112 392,113.443998 392,113.541197 C392,113.638396 391.916848,113.717517 391.816485,113.717517 C391.214303,113.717517 390.726303,114.199053 390.726303,114.782248 C390.726303,114.879447 390.645091,114.958333 390.544727,114.958333 C390.444364,114.958333 390.362909,114.879447 390.362909,114.782248 C390.362909,114.199053 389.874667,113.717517 389.272485,113.717048 C389.172364,113.717048 389.090909,113.638396 389.090909,113.541197 C389.090909,113.443998 389.172364,113.365112 389.272485,113.365112 C389.874667,113.365112 390.362909,112.884281 390.362909,112.301086 C390.362909,112.203886 390.444364,112.125 390.544727,112.125 C390.645091,112.125 390.726303,112.203886 390.726303,112.301086 C390.726303,112.884281 391.214303,113.365112 391.816485,113.365112 Z" id="Birthday_Yahoo"></path>
        </g>
    </g>
</svg>