<?xml version="1.0" encoding="UTF-8"?>
<svg width="20px" height="24px" viewBox="0 0 20 24" version="1.1" xmlns="http://www.w3.org/2000/svg" xmlns:xlink="http://www.w3.org/1999/xlink">
    <title>Shape</title>
    <g id="Forgot-password-flow" stroke="none" stroke-width="1" fill="none" fill-rule="evenodd">
        <g id="Desktop-5.1-A_Verify_A" transform="translate(-44.000000, -195.000000)" fill="#188FFF" fill-rule="nonzero">
            <path d="M54,195 C54,195 44,197.781347 44,198.272173 L44,208.197765 C44,213.215097 51.3888889,217.632531 53.4444444,218.832328 C53.7798051,219.055891 54.2201949,219.055891 54.5555556,218.832328 C56.6666667,217.687067 64,213.215097 64,208.197765 L64,198.272173 C64,197.77044 54,195 54,195 Z M59.2222222,205.078293 L53.6111111,210.49374 C53.1619167,210.925378 52.4436388,210.925378 51.9944444,210.49374 L48.7777778,207.379722 C48.5587374,207.173965 48.4348566,206.889281 48.4348566,206.591673 C48.4348566,206.294066 48.5587374,206.009382 48.7777778,205.803625 C49.2269721,205.371987 49.9452501,205.371987 50.3944444,205.803625 L52.8055556,208.132322 L57.6055556,203.50765 C58.0522797,203.070108 58.7754981,203.070108 59.2222222,203.50765 C59.4395021,203.713233 59.562251,203.996731 59.562251,204.292972 C59.562251,204.589212 59.4395021,204.87271 59.2222222,205.078293 L59.2222222,205.078293 Z" id="Shape"></path>
        </g>
    </g>
</svg>