<?xml version="1.0" encoding="UTF-8"?>
<svg width="22px" height="22px" viewBox="0 0 22 22" version="1.1" xmlns="http://www.w3.org/2000/svg" xmlns:xlink="http://www.w3.org/1999/xlink">
    <!-- Generator: Sketch 63.1 (92452) - https://sketch.com -->
    <title>opera</title>
    <desc>Created with Sketch.</desc>
    <g id="opera" stroke="none" stroke-width="1" fill="none" fill-rule="evenodd">
        <g id="Group-4" fill="#C7CDD2" fill-rule="nonzero">
            <path d="M12.0788459,2.85587452 C14.845869,3.42749045 16.9692248,6.76111094 16.9692248,10.7883234 C16.9692248,14.815674 14.8456617,18.1494326 12.0784314,18.7208414 C13.0537434,19.2034963 14.118116,19.4615385 15.2097801,19.4615385 C16.4796342,19.4615385 17.7275168,19.1121178 18.8416361,18.449676 C20.7932275,16.4834857 22,13.7770128 22,10.7883234 C22,7.79977218 20.7933657,5.09343733 18.8420506,3.12745425 C17.7280005,2.4648743 16.4800487,2.11538462 15.2097801,2.11538462 C14.1182541,2.11538462 13.0540889,2.37335773 12.0788459,2.85587452 Z" id="Path"></path>
            <path d="M10.6001969,21.9871492 C10.7763051,21.9953206 10.9526959,22 11.1304294,22 C13.980102,22 16.5789689,20.9409935 18.5481009,19.2006832 C17.2434026,20.0558224 15.7180744,20.5477859 14.0878022,20.5477859 C11.4372052,20.5477859 9.063491,19.2483151 7.46699874,17.199026 C6.23622059,15.7632246 5.4391405,13.6408814 5.38486641,11.2591469 L5.38486641,10.7411325 C5.4391405,8.35939797 6.23629126,6.23677535 7.46678673,4.80125334 C9.06356167,2.75196429 11.4372759,1.4524935 14.0878728,1.4524935 C15.7184277,1.4524935 17.2440386,1.94445697 18.5490196,2.80015492 C16.5894987,1.06773672 14.006179,0.0109651142 11.1725484,0.000558731932 C11.1584145,0.000558731932 11.1445633,0 11.1304294,0 C4.98332292,0 0,4.92459341 0,10.9999651 C0,16.8993362 4.69923196,21.7137896 10.6001969,21.9871492 Z" id="Path"></path>
        </g>
    </g>
</svg>