<?xml version="1.0" encoding="UTF-8"?>
<svg width="22px" height="22px" viewBox="0 0 22 22" version="1.1" xmlns="http://www.w3.org/2000/svg" xmlns:xlink="http://www.w3.org/1999/xlink">
    <!-- Generator: Sketch 63.1 (92452) - https://sketch.com -->
    <title>samsung</title>
    <desc>Created with Sketch.</desc>
    <g id="samsung" stroke="none" stroke-width="1" fill="none" fill-rule="evenodd">
        <g id="Group-6" fill="#C7CDD2" fill-rule="nonzero">
            <path d="M8.49201637,0 L13.5079836,0 C18.1979613,0 22,3.80200761 22,8.4920176 L22,13.5079844 C22,18.1979617 18.1979613,22 13.5079836,22 L8.49201637,22 C3.80200595,22 0,18.1979617 0,13.5079844 L0,8.4920176 C0,3.80200761 3.80200595,0 8.49201637,0 Z" id="Path"></path>
        </g>
        <g id="Group-7" transform="translate(3.000000, 4.000000)" fill-rule="nonzero">
            <path d="M4.47872058,0.336917154 C3.4409839,0.36383118 2.54347932,0.568238628 1.85023642,0.915485622 C1.01574841,1.33348262 0.45334632,1.95799476 0.180747914,2.72607891 C-0.0776093084,3.45401301 -0.0621535445,4.272459 0.247464667,5.13207023 C0.506368816,5.85088103 0.982130545,6.60957849 1.65583042,7.3464753 C2.81257778,8.61167172 4.5728297,9.83804813 6.68762134,10.7136415 C8.80828325,11.59164 10.8822038,11.9499252 12.5279644,11.8413392 C13.4829022,11.7782817 14.304155,11.5565984 14.9399789,11.2086053 C15.7003722,10.792434 16.2174049,10.1954353 16.4755446,9.46815887 C16.7601051,8.66638084 16.7129658,7.75079686 16.3021513,6.79162254 C15.9853208,6.05188293 15.4434926,5.3145733 14.8992103,4.87587227 C14.773518,4.77456204 14.6476948,4.68917652 14.5244814,4.62336332 L12.8681756,3.73866368 L13.087187,5.71570691 C13.1102155,5.92358854 13.1220044,6.1351185 13.1220044,6.34970943 C13.1220044,6.79035059 13.0716227,7.21836866 12.9504763,7.64372036 C11.8003229,8.10932297 9.65636829,7.47801071 7.86225928,6.66133536 C5.7417653,5.69608388 4.39340508,4.79672898 3.90585311,3.93179894 C4.22039599,3.27180855 4.65521697,2.69275363 5.15483133,2.23003922 L7.27729367,0.264335287 L4.47872058,0.336917154 Z" id="Path" fill="#FFFFFF"></path>
            <path d="M14.0801459,5.58813613 C14.1078082,5.83784666 14.1220044,6.09193807 14.1220044,6.34970943 C14.1220044,7.05433122 14.0157359,7.73222959 13.8195855,8.36561816 C12.6344085,9.25704094 9.84968872,8.73527736 7.47292619,7.65328602 C4.61862088,6.3540027 3.14664079,5.04490621 2.80765259,3.92620303 C3.18571675,2.93807656 3.78800731,2.07554135 4.54602574,1.41252047 L4.57561055,1.38682219 C5.58102353,0.518916004 6.85600141,6.69549886e-15 8.24316955,6.69549886e-15 C11.2512964,6.69549886e-15 13.7318126,2.44035529 14.0801459,5.58813613 Z" id="Shape" fill="#FFFFFF"></path>
            <path d="M13.86623,5.17230238 C15.2607802,6.50908608 15.9434129,7.95109868 15.5414586,9.08364545 C15.1832285,10.0929141 14.032528,10.6630426 12.4668126,10.7664316 C10.9383318,10.8672796 9.01438636,10.5232047 7.04647338,9.70844748 C5.08348445,8.89570542 3.4429756,7.76622527 2.36841512,6.59092104 C1.26218503,5.3809202 0.755763206,4.12229151 1.11484506,3.11056083 C1.49651911,2.03514081 2.77816512,1.45825692 4.50279639,1.41352807 L4.54602574,1.41252047 C3.78799919,2.07553259 3.18570863,2.93807656 2.80765259,3.92620303 C3.14663268,5.04490621 4.61862088,6.3540027 7.47292619,7.65328602 C9.80831704,8.71635193 12.5375501,9.23872883 13.75623,8.41082891 L13.8195855,8.36561816 C15,8 13.946053,5.31143934 13.86623,5.17230238 Z" id="Path" fill="#C7CDD2"></path>
            <path d="M3.30225858,12.1213613 C4.36569585,13.2153516 5.8113475,13.888171 7.40408399,13.888171 C9.07193076,13.888171 10.5785202,13.1504529 11.6537786,11.9638447 C11.9720771,11.6125843 12.2525504,11.22202 12.4884158,10.7998757 C12.0502753,10.9001322 11.6301602,10.963609 11.2359489,10.9893644 C9.90011481,11.0766398 8.21990049,10.7727017 6.50093895,10.0685874 C4.78631835,9.36623391 3.34955121,8.39529005 2.41045882,7.37907487 C2.13413042,7.08005305 1.86189583,6.73491237 1.59900934,6.34970943 C1.51250879,6.81970399 1.47518743,7.30724472 1.49258824,7.80513534 C1.55178569,9.49895591 2.23417943,11.0225957 3.30225858,12.1213613 Z" id="Path" fill="#FFFFFF"></path>
        </g>
    </g>
</svg>