<?xml version="1.0" encoding="UTF-8"?>
<svg width="22px" height="22px" viewBox="0 0 22 22" version="1.1" xmlns="http://www.w3.org/2000/svg" xmlns:xlink="http://www.w3.org/1999/xlink">
    <!-- Generator: Sketch 63.1 (92452) - https://sketch.com -->
    <title>firefox</title>
    <desc>Created with Sketch.</desc>
    <g id="firefox" stroke="none" stroke-width="1" fill="none" fill-rule="evenodd">
        <path d="M21.2119717,6.85104605 C21.0858308,6.53589485 20.9455891,6.22794745 20.7920779,5.92793629 C20.7912141,5.92625008 20.7903567,5.92456388 20.7894929,5.92288093 C20.7753531,5.89529291 20.7611094,5.86776999 20.7467488,5.84031544 C20.745112,5.8371774 20.7434623,5.83404262 20.741819,5.83090784 C20.727952,5.8044559 20.7139941,5.77805929 20.6999193,5.75173755 C20.6977954,5.74777269 20.695665,5.74381434 20.6935411,5.73985599 C20.6796806,5.71401928 20.6657552,5.68822814 20.6516998,5.66251839 C20.649524,5.65853725 20.6473286,5.65457239 20.6451463,5.6505945 C20.6309675,5.62472524 20.6167238,5.5988983 20.6023437,5.57315599 C20.6007459,5.57029791 20.5991222,5.56745284 20.5975244,5.56459475 C20.5349443,5.45280713 20.4705131,5.34220765 20.4042049,5.23286795 C20.4026461,5.23029632 20.4011067,5.22770517 20.3995479,5.22513028 C20.3874281,5.20518879 20.3751849,5.18533518 20.3629416,5.16547506 C20.3568103,5.15552384 20.3507244,5.14554333 20.3445606,5.13561164 C20.3337008,5.11811807 20.3227436,5.10069937 20.3117929,5.0832709 C20.3041027,5.07103126 20.296432,5.0587786 20.2886964,5.04657151 C20.2784537,5.03041584 20.268133,5.01431876 20.2578123,4.99822168 C20.2492063,4.98479063 20.2405939,4.97135957 20.2319294,4.95796758 C20.2220504,4.94270384 20.2121065,4.92747916 20.2021495,4.91226425 C20.192907,4.89813658 20.1836515,4.88402518 20.1743441,4.86993983 C20.1646924,4.85533364 20.1550017,4.84075675 20.1452786,4.82619939 C20.135471,4.81150531 20.1256245,4.79684053 20.1157455,4.78219854 C20.1063276,4.76823688 20.0968903,4.7542915 20.087414,4.74037868 C20.0770608,4.7251833 20.0666492,4.71003023 20.0562246,4.69489019 C20.0470211,4.68152098 20.0378175,4.66815504 20.0285556,4.65483141 C20.0175854,4.63905334 20.0065437,4.62333061 19.9955021,4.60761114 C19.9866363,4.59499714 19.97779,4.58237013 19.9688723,4.5697952 C19.9570383,4.55310242 19.9451068,4.53648125 19.9331818,4.51985682 C19.9248811,4.50828776 19.9166129,4.4966894 19.9082732,4.48515288 C19.8949063,4.46667298 19.8814226,4.44828097 19.8679453,4.4298857 C19.8609046,4.42027303 19.8539159,4.41061803 19.8468428,4.40102814 C19.8262404,4.37310158 19.8055211,4.34526291 19.7846654,4.31753817 C19.4662247,3.89818075 19.1191473,3.50427918 18.7475898,3.13792005 C18.4873581,2.86922089 18.211025,2.61918392 17.9209938,2.38776031 C17.7441588,2.2346639 17.5600038,2.09022638 17.3698475,1.95393342 C17.0310122,1.70126298 16.6612799,1.47355033 16.259475,1.27504355 C16.1605939,1.22329526 16.0610114,1.17301833 15.9607728,1.12433972 C15.1736603,0.742065806 14.3516433,0.440371694 13.5021326,0.252895236 C13.3890598,0.22794232 13.2755388,0.205106929 13.1617321,0.183910541 C12.5953613,0.0757313266 12.0185205,0.013922771 11.436516,0.00230813295 C11.3471243,0.000524269988 11.2588107,0 11.1713545,0 C10.4097352,-0.00104962934 9.65868336,0.0761007936 8.94664098,0.226317965 C7.38384409,0.556013509 6.00952787,1.23231874 5.14038904,2.07782398 C5.14166533,2.07704598 5.14298383,2.07628425 5.14426336,2.07550951 C5.1428182,2.07698087 5.14161012,2.07821786 5.14069756,2.07915536 C5.14263634,2.07754403 5.14488039,2.07568529 5.1472446,2.07373216 C5.14906322,2.07263189 5.15093055,2.07154465 5.15275242,2.07044438 C5.15135923,2.07155767 5.14994005,2.07264166 5.14854686,2.0737582 C5.15177167,2.07155116 5.15568495,2.06894698 5.16016331,2.06602379 C5.81038878,1.67546208 6.70763506,1.35900878 7.34892331,1.19697678 C7.38941037,1.18674887 7.42998188,1.17694413 7.47057611,1.16728589 C7.48988273,1.16273183 7.50928677,1.15821358 7.52879474,1.15373765 C7.54314886,1.15042383 7.55751598,1.1471979 7.57188309,1.1439557 C7.6552604,1.1252284 7.7403719,1.10724003 7.82726629,1.09017615 C7.83626523,1.08841833 7.8452674,1.0866833 7.85426958,1.08495152 C7.88178273,1.07963248 7.90942903,1.07438181 7.93728317,1.06924832 C10.7798312,0.549975069 13.8112398,1.40048033 15.9216075,3.42434066 C16.3753277,3.85945987 16.7821793,4.34633713 17.1120448,4.88261242 C18.458338,7.07129773 18.3309566,9.82285025 17.2813195,11.4456605 C16.5015595,12.6512228 14.8317789,13.7821883 13.2738111,13.7698999 C13.3052798,13.7715535 13.3366965,13.7728979 13.3681067,13.7741544 C13.3170229,13.7730672 13.2657962,13.7711564 13.2143617,13.7681323 C13.2126925,13.7680346 13.2110232,13.7679663 13.209354,13.7678653 C12.467038,13.7231581 11.8245709,13.5496449 11.2825047,13.2844679 C8.80925709,12.0745176 8.42626834,8.95612095 10.1873664,7.45554756 C10.187347,7.45554105 10.1873242,7.4555378 10.1873047,7.45553454 C10.187308,7.45553129 10.1873112,7.45552803 10.1873112,7.45552803 C9.60809644,7.33078136 8.51956364,7.57505984 7.76170823,8.70814128 C7.08180674,9.72467921 7.12006924,11.2953376 7.53957008,12.4092555 C7.28444018,11.8727979 7.09736895,11.3274243 6.99977716,10.6682578 C6.46897992,7.08301653 8.80775998,4.01316826 11.0232732,3.14934914 C11.0764419,3.12861662 11.1295392,3.10916015 11.182526,3.09099275 L11.182526,3.09099275 C11.182539,3.09098624 11.1825585,3.09097973 11.182578,3.09097322 C10.7060601,2.67480266 9.94937056,2.43222992 9.06852761,2.39086905 C7.76489731,2.32964481 6.18931811,2.70916155 4.8475812,3.61895419 C4.77505391,3.66813411 4.70320861,3.71886351 4.63212648,3.77115216 C4.63184394,3.77135724 4.6315744,3.77157209 4.63129186,3.77178042 C4.59459467,3.7987825 4.55828719,3.82621101 4.52216806,3.85384461 C4.51455583,3.8596682 4.50693386,3.86547877 4.49934761,3.87133167 C4.46402737,3.89857463 4.42896045,3.92609429 4.39419879,3.95393622 C4.38820383,3.95873767 4.38226409,3.96359772 4.37628537,3.96841545 C4.34332285,3.9949911 4.3105974,4.02180763 4.27814799,4.04891713 C4.27412104,4.05227977 4.27005188,4.05560336 4.26603142,4.05897577 C4.2311561,4.08823372 4.19663801,4.11785951 4.16236024,4.14773269 C4.1559431,4.15332517 4.1495422,4.15893066 4.1431478,4.16454267 C4.10838615,4.19505062 4.07386156,4.22579946 4.03972018,4.25693242 C4.03843741,4.2581043 4.03717411,4.2592892 4.03589458,4.26046108 C4.00184414,4.29155497 3.96816391,4.3230102 3.93473375,4.35471933 C3.93061262,4.35862885 3.92646551,4.36251559 3.92235413,4.36643488 C3.88843034,4.39876901 3.85483779,4.43142542 3.82155702,4.46438781 C3.81796199,4.46794902 3.81439295,4.47153628 3.81080117,4.47510726 C3.74215144,4.54339208 3.67488842,4.6130148 3.60902184,4.68394612 C3.60652773,4.68663168 3.60403037,4.68931399 3.60153951,4.6920028 C2.80731491,5.54987789 2.21739947,6.59834956 1.85825091,7.78381732 C1.91128971,7.11775627 2.10696692,6.21593893 2.47969345,5.2365789 C2.47987531,5.23610038 2.48005392,5.23562187 2.48023578,5.2351466 C2.49568757,5.19455722 2.5114836,5.15382461 2.52754593,5.11298132 C2.52876701,5.10987909 2.52997184,5.10678663 2.53119616,5.10368115 C2.54654403,5.06475193 2.56220691,5.02569901 2.57811336,4.98656146 C2.58012683,4.98161027 2.58213056,4.97666233 2.58415378,4.97170788 C2.5995731,4.93391148 2.61527819,4.89601742 2.63122036,4.85804524 C2.63384762,4.85179196 2.63647813,4.84553867 2.63911838,4.83927888 C2.65474553,4.80223769 2.67063249,4.76511838 2.68676302,4.7279307 C2.68985143,4.72081153 2.69295608,4.71368584 2.69606397,4.70656341 C2.71203861,4.66992587 2.72824708,4.63322974 2.74471535,4.5964685 C2.74810578,4.58890011 2.75153193,4.58132195 2.75494185,4.5737503 C2.77140038,4.53720716 2.78807324,4.50061519 2.80502539,4.46396788 C2.80856521,4.45631485 2.81215049,4.44865206 2.81571304,4.44099577 C2.83282108,4.40420849 2.85012721,4.36738215 2.86773212,4.33051023 C2.87117776,4.3232934 2.87467861,4.3160668 2.87814373,4.30884997 C2.89610262,4.27142467 2.91425961,4.23396681 2.93273161,4.19646989 C2.93586224,4.1901157 2.93906106,4.18374848 2.94220793,4.17739103 C2.95999795,4.14145011 2.9780023,4.10547989 2.99626971,4.06949014 C2.99813704,4.06581173 2.99996541,4.06213984 3.00183599,4.05846144 C3.00181651,4.05847121 3.00180027,4.05848097 3.00178078,4.05849074 C3.00178728,4.05848097 3.00179052,4.05846795 3.00179702,4.05845819 C2.74814475,4.18969903 2.47136351,4.41566362 2.19731345,4.70123787 C1.64883986,5.27276397 1.11134295,6.08332763 0.792113126,6.85312939 C0.26172508,8.13212623 -0.00438474929,9.60364675 0,11.0758346 C0.00137963338,11.519336 0.0269669922,11.962896 0.0776480837,12.4012737 C0.0802493618,12.4236501 0.0827694529,12.4460037 0.0853090274,12.4683639 C0.0979809238,12.5802752 0.110347552,12.6918903 0.124678941,12.8030269 C0.125718153,12.8110966 0.126663187,12.8191858 0.127725132,12.8272522 C1.01332898,18.0351606 5.53692328,22 10.9849977,22 C17.0683849,22 22,17.0567153 22,10.9589297 C22,9.50706101 21.720205,8.1207948 21.2119717,6.85104605 Z" id="Path" fill="#C7CDD2" fill-rule="nonzero"></path>
    </g>
</svg>