<?xml version="1.0" encoding="UTF-8"?>
<svg width="22px" height="22px" viewBox="0 0 22 22" version="1.1" xmlns="http://www.w3.org/2000/svg" xmlns:xlink="http://www.w3.org/1999/xlink">
    <!-- Generator: Sketch 63.1 (92452) - https://sketch.com -->
    <title>internet-explorer</title>
    <desc>Created with Sketch.</desc>
    <g id="internet-explorer" stroke="none" stroke-width="1" fill="none" fill-rule="evenodd">
        <g id="Group-2">
            <rect id="Rectangle" x="0" y="0" width="22" height="22"></rect>
            <path d="M14.3711986,2.4243496 C14.9788281,2.04055644 17.2946576,0.612054115 19.2245156,0.612054115 C22.864779,0.612054115 21.1543735,4.84532563 21.1543735,4.84532563 L21.2646511,4.95474517 C23.3599254,-0.378770053 19.3347932,0.00612279838 19.3347932,0.00612279838 C17.0741024,0.00612279838 14.2074363,1.87450267 13.6003582,2.3154799 C13.0489702,2.26159491 12.4975822,2.20551052 11.8899527,2.20551052 C3.50995816,2.20551052 2.24066303,8.5848346 2.07745219,10.4532145 C2.02121062,10.7281379 2.02121062,10.893092 2.02121062,10.893092 L2.02121062,10.8381073 C5.38578006,6.05443903 10.0163363,4.12997477 10.0163363,4.12997477 L10.0163363,4.46098263 C3.12398657,9.13468153 1.46982264,16.0611033 1.08385105,17.4357206 C0.642740668,18.8664223 0.918434657,22 3.84079095,22 C6.76425001,22 9.57522593,19.6906429 9.57522593,19.6906429 C9.57522593,19.6906429 10.2357887,19.8006123 11.9461942,19.8006123 C19.2245156,19.8006123 21.1543735,13.2024491 21.1543735,13.2024491 L14.7031341,13.2024491 C14.7031341,13.2024491 14.0414686,15.4018368 11.7267418,15.4018368 C8.52758877,15.4018368 8.63786636,12.1027553 8.63786636,12.1027553 L21.3197899,12.1027553 C21.5392423,9.07859714 20.7121603,6.98917881 19.5002096,5.56067649 C18.506057,4.12997477 16.9086861,2.92031153 14.3706472,2.4243496 L14.3711986,2.4243496 Z M9.18925434,19.5817732 C9.18925434,19.5817732 4.88842811,22.2749235 2.90453416,20.4065436 C1.85524283,18.5354145 3.56509696,15.8955994 3.56509696,15.8955994 C3.56509696,15.8955994 4.88787672,18.5914989 9.18925434,19.5817732 Z M8.63786636,9.35352061 C8.63786636,9.35352061 8.58162479,6.60428596 11.6705002,6.60428596 C14.6468926,6.60428596 14.7031341,9.35352061 14.7031341,9.35352061 L8.63786636,9.35352061 Z" id="surface1" fill="#C7CDD2" fill-rule="nonzero"></path>
        </g>
    </g>
</svg>