<?xml version="1.0" encoding="UTF-8"?>
<svg width="24px" height="25px" viewBox="0 0 24 25" version="1.1" xmlns="http://www.w3.org/2000/svg" xmlns:xlink="http://www.w3.org/1999/xlink">
    <!-- Generator: Sketch 62 (91390) - https://sketch.com -->
    <title>Group</title>
    <desc>Created with Sketch.</desc>
    <g id="Page-1" stroke="none" stroke-width="1" fill="none" fill-rule="evenodd">
        <g id="QR-code_yes_no" transform="translate(-149.000000, -231.000000)" fill="#C7CDD2">
            <g id="Group" transform="translate(149.000000, 231.660839)">
                <path d="M8.55051563,12.0227813 C8.55051563,13.7870625 9.98076563,15.2174063 11.7449063,15.2174063 C13.5089531,15.2174063 14.9393906,13.7870156 14.9393906,12.0227813 C14.9393906,10.2587813 13.5089531,8.82834375 11.7449063,8.82834375 C9.98071875,8.82834375 8.55046875,10.2587813 8.55051563,12.0227813 L8.55051563,12.0227813 Z" id="Shape"></path>
                <path d="M11.7449062,7.01835937 C13.367625,7.01835937 14.60925,7.56909375 15.5235,8.7661875 L15.7047656,8.74964062 L23.4862031,8.59725 C22.0208906,3.63867187 17.4369375,0.012703125 12,0.012703125 C10.2416719,0.012703125 8.57521875,0.4010625 7.06907812,1.0820625 L9.0665625,7.80778125 C9.84215625,7.31353125 10.7578125,7.01835937 11.7449062,7.01835937 L11.7449062,7.01835937 Z" id="Shape"></path>
                <path d="M23.8170937,10.08525 L16.4075625,10.225875 C16.621875,10.7849531 16.7531719,11.3877656 16.7531719,12.0228281 C16.7531719,14.7886406 14.5106719,17.0281406 11.7449531,17.0281406 C11.6603906,17.0281406 11.6824219,17.01675 11.5994531,17.01375 L11.5684687,17.0601563 L6.90585937,22.839 C8.45273437,23.5686094 10.1760937,23.98725 12.0000937,23.98725 C18.6209062,23.98725 23.9862656,18.618 23.9862656,11.9987344 C23.9861719,11.3442188 23.9176875,10.7091563 23.8170937,10.08525 L23.8170937,10.08525 Z" id="Shape"></path>
                <path d="M7.82273438,8.8610625 L5.72475,1.80154687 C2.302875,3.91275 0.01378125,7.68328125 0.01378125,11.9988281 C0.01378125,16.25175 2.23434375,19.9807031 5.57610938,22.1085469 L9.954375,16.6833281 C8.07510938,15.9608906 6.73959375,14.1558281 6.73959375,12.0228281 C6.73959375,10.8039844 7.10104688,9.7299375 7.82273438,8.8610625 Z" id="Shape"></path>
            </g>
        </g>
    </g>
</svg>