<?xml version="1.0" encoding="UTF-8"?>
<svg width="22px" height="22px" viewBox="0 0 22 22" version="1.1" xmlns="http://www.w3.org/2000/svg" xmlns:xlink="http://www.w3.org/1999/xlink">
    <!-- Generator: Sketch 63.1 (92452) - https://sketch.com -->
    <title>microsoft-edge</title>
    <desc>Created with Sketch.</desc>
    <g id="microsoft-edge" stroke="none" stroke-width="1" fill="none" fill-rule="evenodd">
        <g id="Group-3">
            <rect id="Rectangle" x="0" y="0" width="22" height="22"></rect>
            <path d="M0.916666667,9.77064946 L0.929041539,9.77064946 C1.0596652,8.73803509 1.30028772,7.74942026 1.64815914,6.80205501 C1.99603056,5.85468976 2.46765071,4.9664489 3.0616446,4.13458246 C3.65563848,3.30271602 4.34175642,2.58222343 5.11999842,1.97172971 C5.89824041,1.36123599 6.81398099,0.879990945 7.86722015,0.527994567 C8.92045931,0.175998189 10.0534477,0 11.2648102,0 C13.1581657,0 14.8535233,0.431745557 16.3536328,1.29661166 C17.8537424,2.16147776 19.056855,3.40446497 19.9670956,5.02694827 C20.8195869,6.55868251 21.2458325,8.36953888 21.2458325,10.4595174 L21.2458325,12.7694936 L7.41759977,12.7694936 C7.42584969,13.6783593 7.64447244,14.4676011 8.07484301,15.1358443 C8.50521358,15.8040874 9.06483283,16.3059572 9.75232575,16.6414538 C10.4398187,16.9769503 11.2166857,17.2106979 12.0815518,17.3413216 C12.9485191,17.4719826 13.8292012,17.4844713 14.6995248,17.3784462 C15.5687515,17.2749627 16.4251943,17.0833112 17.2556235,16.8064521 C18.0126401,16.5645841 18.7308796,16.2149575 19.3882266,15.7683377 L19.3882266,20.4020401 C18.6347344,20.8530354 17.694244,21.2297816 16.5681306,21.5322784 C15.4420172,21.8347753 14.1619054,21.9915237 12.7277951,21.9997736 C11.2936849,22.0080235 9.9998232,21.7907758 8.8434601,21.3480303 C7.29522603,20.7499115 6.01923916,19.729672 5.01549949,18.2886868 C4.01175982,16.8477016 3.50164007,15.3214673 3.48514024,13.7154839 C3.46039049,11.7327543 3.91551081,10.0456466 4.8491262,8.65278597 C5.7827416,7.2599253 7.11510289,6.1613116 8.8434601,5.35831986 C8.45021415,5.8505648 8.13121743,6.36480951 7.88509496,6.90105399 C7.6389725,7.43729847 7.45059943,8.09179174 7.31997578,8.86178382 L15.1243955,8.86178382 C15.1938564,8.2870868 15.1603325,7.70460968 15.0253965,7.14167651 C14.8947728,6.62605682 14.7022748,6.20943611 14.4479024,5.89456435 C14.1935301,5.57969259 13.904783,5.3060704 13.5816613,5.07782275 C13.2801314,4.85914066 12.9460418,4.68931181 12.5916715,4.57457793 C12.256175,4.46870402 11.9481782,4.3834549 11.670431,4.32295552 C11.3926839,4.26245614 11.1630612,4.22670651 10.9815631,4.21845659 L10.7120659,4.20333175 C9.60657725,4.24458132 8.5423382,4.42607946 7.5220987,4.75057612 C6.5018592,5.07507278 5.58749361,5.50269338 4.77625195,6.0348129 C3.9650103,6.56693243 3.24314273,7.1430515 2.61339921,7.76179513 C1.98365569,8.38053877 1.41578653,9.05015688 0.916666667,9.77064946 Z" id="Path" fill="#C7CDD2" fill-rule="nonzero"></path>
        </g>
    </g>
</svg>