<svg width="20" height="20" viewBox="0 0 20 20" fill="none" xmlns="http://www.w3.org/2000/svg">
<path fill-rule="evenodd" clip-rule="evenodd" d="M18.3333 18.3333H1.66665C1.20665 18.3333 0.833313 17.96 0.833313 17.4992V4.16667C0.833313 3.70584 1.20665 3.33334 1.66665 3.33334H4.99998V2.50001C4.99998 2.03917 5.37331 1.66667 5.83331 1.66667C6.29331 1.66667 6.66665 2.03917 6.66665 2.50001V3.33334H13.3333V2.50001C13.3333 2.03917 13.7066 1.66667 14.1666 1.66667C14.6275 1.66667 15 2.03917 15 2.50001V3.33334H18.3333C18.7933 3.33334 19.1666 3.70584 19.1666 4.16667V17.4992C19.1666 17.96 18.7933 18.3333 18.3333 18.3333ZM17.5 10.8333H2.49998V16.6658H17.5V10.8333ZM15 5.00001H17.5V9.16584H2.49998V5.00001H4.99998V5.83334C4.99998 6.29334 5.37331 6.66667 5.83331 6.66667C6.29331 6.66667 6.66665 6.29334 6.66665 5.83334V5.00001H13.3333V5.83334C13.3333 6.29334 13.7066 6.66667 14.1666 6.66667C14.6275 6.66667 15 6.29334 15 5.83334V5.00001Z" fill="#0F69FF"/>
</svg>
