<?xml version="1.0" encoding="UTF-8"?>
<svg width="48px" height="48px" viewBox="0 0 48 48" version="1.1" xmlns="http://www.w3.org/2000/svg" xmlns:xlink="http://www.w3.org/1999/xlink">
    <!-- Generator: Sketch 57.1 (83088) - https://sketch.com -->
    <title>Call customer black</title>
    <desc>Created with Sketch.</desc>
    <g id="Call-customer-black" stroke="none" stroke-width="1" fill="none" fill-rule="evenodd">
        <g id="Group" transform="translate(2.000000, 2.000000)" fill="#1D2228">
            <path d="M6.52943019,12 C6.17038893,12 5.80989407,12.1351806 5.53080128,12.414263 L1.32405883,16.6208494 C-1.99598255,19.9407677 1.14235779,28.4673177 8.33771892,35.6609584 C13.5852449,40.9082898 19.5421318,44 23.6689258,44 C25.2010289,44 26.4802042,43.5741086 27.3785342,42.6758119 L31.5867302,38.467772 C32.2001529,37.8529185 32.1202045,36.8354304 31.4166581,36.3252328 L23.9785443,30.8584147 C23.7270701,30.665092 23.4218123,30.5647967 23.115101,30.5647967 C22.9392144,30.5647967 22.7618742,30.5967749 22.591802,30.665092 L17.7527399,32.6666364 C16.6043894,31.7581649 15.4618532,30.7581195 14.3512965,29.6476039 C13.2421934,28.5385419 12.2406572,27.3960481 11.3336056,26.2477402 L13.358482,21.4306609 C13.5430903,20.9669771 13.4689563,20.4407904 13.1651521,20.0454236 L7.67341992,12.5828753 C7.39432713,12.1976834 6.96405907,12 6.52943019,12 M6.3994334,16 L10.3188737,21.3277046 L8.65894282,25.2759015 L8.00498727,26.8328563 L9.05102995,28.1594161 C10.0570053,29.433028 11.1316675,30.6422438 12.244966,31.757012 C13.3511096,32.863194 14.5617144,33.9364625 15.841006,34.9481969 L17.1589339,35.9914139 L18.7101107,35.3488838 L22.692514,33.7017745 L28,37.6027476 L25.0693633,40.534917 C24.6844311,40.9184316 23.9718056,41 23.4409139,41 C20.6061525,41 15.4646596,38.7203778 10.3718198,33.6287922 C3.38293824,26.639668 2.14514493,20.2530052 3.46736576,18.9307384 L6.3994334,16" id="Fill-13"></path>
            <path d="M31.9978182,7.35411732e-13 C38.6174545,7.35411732e-13 44,4.81213924 44,10.5 C44,15.8864855 38.9988903,21 32.0024683,21 C30.7950439,21 29.4533691,20.8521118 28.0756378,20.5338135 C28.0756378,20.5338135 22.8388268,22.4071655 22.3720398,22.5743408 C21.9052528,22.7415161 21.3531466,23.0018593 21.0022278,23 C20,22.9946899 19.8243408,22.221283 20.200592,21.1555786 C20.8903392,19.2019196 21.4631619,17.6490885 21.9052528,16.3069563 C20.5609928,14.6027776 20,12.686697 20,10.5 C20,4.81213924 25.3825455,7.35411732e-13 31.9978182,7.35411732e-13 Z M31.9966461,14.2715425 C31.3339371,14.2715425 30.7951102,14.8104346 30.7951102,15.4744266 C30.7951102,16.1396215 31.3339371,16.6773107 31.9966461,16.6773107 C32.6605579,16.6773107 33.1993848,16.1396215 33.1993848,15.4744266 C33.1993848,14.8104346 32.6605579,14.2715425 31.9966461,14.2715425 Z M31.9962858,4.79281742 C29.8747538,4.79281742 28.150408,6.47974205 28.150408,8.55062729 C28.150408,9.07027321 28.5812541,9.48983918 29.1111562,9.48983918 C29.64202,9.48983918 30.0728661,9.07027321 30.0728661,8.55062729 C30.0728661,7.51422236 30.9355198,6.6712412 31.9962858,6.6712412 C33.0570518,6.6712412 33.9206672,7.51422236 33.9206672,8.55062729 C33.9206672,9.58703221 33.0570518,10.4290511 31.9962858,10.4290511 C31.4663837,10.4290511 31.0355376,10.8505417 31.0355376,11.3692253 L31.0355376,12.5153332 C31.0355376,13.0340168 31.4663837,13.4535828 31.9962858,13.4535828 C32.5271496,13.4535828 32.9579956,13.0340168 32.9579956,12.5153332 L32.9579956,12.1842995 C34.61406,11.7666582 35.8440869,10.2981773 35.8440869,8.55062729 C35.8440869,6.47974205 34.1178177,4.79281742 31.9962858,4.79281742 Z" id="question"></path>
        </g>
    </g>
</svg>