<svg width="20" height="20" viewBox="0 0 20 20" fill="none" xmlns="http://www.w3.org/2000/svg">
<path d="M18.9304 16.6201C19.277 16.2568 19.2262 15.671 18.8212 15.3735L14.3137 12.0568C14.0937 11.8951 13.8079 11.851 13.5487 11.9401L10.4195 12.9893C9.81119 12.4943 9.20619 11.9668 8.61619 11.3768C8.01952 10.7793 7.48452 10.1668 6.98452 9.5493L8.03786 6.4293C8.12702 6.17014 8.08286 5.8843 7.92119 5.6643L4.62119 1.17347C4.32286 0.768471 3.73786 0.716805 3.37369 1.06347L1.39452 2.9518C-0.267977 4.61347 1.88869 9.46347 6.20869 13.7843C10.5295 18.1043 15.3787 20.261 17.042 18.5993L18.9304 16.6201Z" fill="#5D5EFF"/>
</svg>
