<svg width="20" height="20" viewBox="0 0 20 20" fill="none" xmlns="http://www.w3.org/2000/svg">
<path d="M18.9303 16.6201C19.277 16.2568 19.2262 15.671 18.8212 15.3735L14.3137 12.0568C14.0937 11.8951 13.8078 11.851 13.5487 11.9401L10.4195 12.9893C9.81118 12.4943 9.20618 11.9668 8.61618 11.3768C8.01952 10.7793 7.48452 10.1668 6.98452 9.54929L8.03785 6.42929C8.12702 6.17013 8.08285 5.88429 7.92118 5.66429L4.62118 1.17346C4.32285 0.76846 3.73785 0.716793 3.37368 1.06346L1.39452 2.95179C-0.267985 4.61346 1.88868 9.46346 6.20868 13.7843C10.5295 18.1043 15.3787 20.261 17.042 18.5993L18.9303 16.6201Z" fill="url(#paint0_linear_233_287)"/>
<defs>
<linearGradient id="paint0_linear_233_287" x1="20.5" y1="-0.500004" x2="1.00002" y2="19.5" gradientUnits="userSpaceOnUse">
<stop stop-color="#7740F7"/>
<stop offset="1" stop-color="#737EFB"/>
</linearGradient>
</defs>
</svg>
