<?xml version="1.0" encoding="UTF-8"?>
<svg width="26px" height="21px" viewBox="0 0 26 21" version="1.1" xmlns="http://www.w3.org/2000/svg" xmlns:xlink="http://www.w3.org/1999/xlink">
    <!-- Generator: Sketch 63.1 (92452) - https://sketch.com -->
    <title>camera-fill copy</title>
    <desc>Created with Sketch.</desc>
    <defs>
        <path d="M9.45572727,11.6666667 C9.45572727,13.59925 11.0429091,15.1666667 13.0011818,15.1666667 C14.9588636,15.1666667 16.5466364,13.59925 16.5466364,11.6666667 C16.5466364,9.7335 14.9588636,8.16666667 13.0011818,8.16666667 C11.0429091,8.16666667 9.45572727,9.7335 9.45572727,11.6666667 Z M7.09236529,11.6666667 C7.09236529,8.44491667 9.73786529,5.83333333 13.0014562,5.83333333 C16.2650471,5.83333333 18.9105471,8.44491667 18.9105471,11.6666667 C18.9105471,14.8878333 16.2650471,17.5 13.0014562,17.5 C9.73786529,17.5 7.09236529,14.8878333 7.09236529,11.6666667 Z M8.27272727,2.33333333 L8.27272727,1.16666667 C8.27272727,0.522666667 7.74386364,0 7.09090909,0 L3.54545455,0 C2.8925,0 2.36363636,0.522666667 2.36363636,1.16666667 L2.36363636,2.33333333 L1.18327438,2.33333333 C0.530319837,2.33333333 0.00145620146,2.856 0.00145620146,3.5 L0.00145620146,19.8333333 C0.00145620146,20.4779167 0.530319837,21 1.18327438,21 L24.8484539,21 C25.5002266,21 26,20.4779167 26,19.8333333 L26,3.5 C26,2.856 25.5002266,2.33333333 24.8484539,2.33333333 L8.27272727,2.33333333 Z" id="path-1"></path>
        <linearGradient x1="0%" y1="98.726167%" x2="103.23415%" y2="-3.07109191%" id="linearGradient-3">
            <stop stop-color="#769FFC" offset="0%"></stop>
            <stop stop-color="#7764F9" offset="100%"></stop>
        </linearGradient>
    </defs>
    <g id="qr-ar" stroke="none" stroke-width="1" fill="none" fill-rule="evenodd">
        <g id="QR-instructions-Copy" transform="translate(-40.000000, -336.000000)">
            <g id="camera-fill-copy" transform="translate(40.000000, 336.000000)">
                <g id="prefix__camera-fill-a-link" transform="translate(-0.000000, 0.000000)" fill="#1D2228" fill-rule="nonzero">
                    <path d="M9.45572727,11.6666667 C9.45572727,13.59925 11.0429091,15.1666667 13.0011818,15.1666667 C14.9588636,15.1666667 16.5466364,13.59925 16.5466364,11.6666667 C16.5466364,9.7335 14.9588636,8.16666667 13.0011818,8.16666667 C11.0429091,8.16666667 9.45572727,9.7335 9.45572727,11.6666667 Z M7.09236529,11.6666667 C7.09236529,8.44491667 9.73786529,5.83333333 13.0014562,5.83333333 C16.2650471,5.83333333 18.9105471,8.44491667 18.9105471,11.6666667 C18.9105471,14.8878333 16.2650471,17.5 13.0014562,17.5 C9.73786529,17.5 7.09236529,14.8878333 7.09236529,11.6666667 Z M8.27272727,2.33333333 L8.27272727,1.16666667 C8.27272727,0.522666667 7.74386364,0 7.09090909,0 L3.54545455,0 C2.8925,0 2.36363636,0.522666667 2.36363636,1.16666667 L2.36363636,2.33333333 L1.18327438,2.33333333 C0.530319837,2.33333333 0.00145620146,2.856 0.00145620146,3.5 L0.00145620146,19.8333333 C0.00145620146,20.4779167 0.530319837,21 1.18327438,21 L24.8484539,21 C25.5002266,21 26,20.4779167 26,19.8333333 L26,3.5 C26,2.856 25.5002266,2.33333333 24.8484539,2.33333333 L8.27272727,2.33333333 Z" id="prefix__camera-fill-a"></path>
                </g>
                <g id="Clipped" transform="translate(-0.000000, 0.000000)">
                    <mask id="mask-2" fill="white">
                        <use xlink:href="#path-1"></use>
                    </mask>
                    <g id="prefix__camera-fill-a"></g>
                    <g id="Group" mask="url(#mask-2)" fill="url(#linearGradient-3)">
                        <g transform="translate(-1.181818, -3.500000)" id="Rectangle">
                            <rect x="0" y="0" width="28.3636364" height="28"></rect>
                        </g>
                    </g>
                </g>
            </g>
        </g>
    </g>
</svg>