<svg width="20" height="20" viewBox="0 0 20 20" fill="none" xmlns="http://www.w3.org/2000/svg">
<path d="M12.8855 6.66433L9.80636 3.58017C9.4447 3.21909 8.89636 3.25403 8.57136 3.58017C8.22886 3.92211 8.22886 4.47538 8.57136 4.8165L10.4147 6.66433H6.70553L6.1522 4.96293C6.00886 4.5253 5.4972 4.16755 5.01303 4.16755H1.49303C1.09553 4.16755 0.833862 4.40966 0.833862 4.73996C0.833862 4.81151 0.846362 4.88555 0.871362 4.96293L3.15386 11.915C3.26636 12.2561 3.58553 12.4874 3.94636 12.4874H7.83886L9.50553 10.8234H4.55053L2.91136 5.83152H4.68303L5.4947 8.32747H16.248C16.938 8.32747 17.498 8.88823 17.498 9.57628C17.498 10.2635 16.938 10.8243 16.248 10.8243H11.8622L7.44386 15.2354C7.11803 15.5607 7.11803 16.0874 7.44386 16.4119C7.60636 16.5749 7.8197 16.6556 8.03303 16.6556C8.24636 16.6556 8.4597 16.5749 8.6222 16.4119L12.553 12.4882H16.248C18.0589 12.4882 19.4839 10.8426 19.1039 8.96893C18.828 7.60697 17.5639 6.66433 16.1722 6.66433H12.8855Z" fill="#12A9FF"/>
<mask id="mask0_2768_88121" style="mask-type:luminance" maskUnits="userSpaceOnUse" x="0" y="3" width="20" height="14">
<path d="M12.8855 6.66433L9.80636 3.58017C9.4447 3.21909 8.89636 3.25403 8.57136 3.58017C8.22886 3.92211 8.22886 4.47538 8.57136 4.8165L10.4147 6.66433H6.70553L6.1522 4.96293C6.00886 4.5253 5.4972 4.16755 5.01303 4.16755H1.49303C1.09553 4.16755 0.833862 4.40966 0.833862 4.73996C0.833862 4.81151 0.846362 4.88555 0.871362 4.96293L3.15386 11.915C3.26636 12.2561 3.58553 12.4874 3.94636 12.4874H7.83886L9.50553 10.8234H4.55053L2.91136 5.83152H4.68303L5.4947 8.32747H16.248C16.938 8.32747 17.498 8.88823 17.498 9.57628C17.498 10.2635 16.938 10.8243 16.248 10.8243H11.8622L7.44386 15.2354C7.11803 15.5607 7.11803 16.0874 7.44386 16.4119C7.60636 16.5749 7.8197 16.6556 8.03303 16.6556C8.24636 16.6556 8.4597 16.5749 8.6222 16.4119L12.553 12.4882H16.248C18.0589 12.4882 19.4839 10.8426 19.1039 8.96893C18.828 7.60697 17.5639 6.66433 16.1722 6.66433H12.8855Z" fill="white"/>
</mask>
<g mask="url(#mask0_2768_88121)">
</g>
</svg>
