<?xml version="1.0" encoding="UTF-8"?>
<svg width="42px" height="44px" viewBox="0 0 42 44" version="1.1" xmlns="http://www.w3.org/2000/svg" xmlns:xlink="http://www.w3.org/1999/xlink">
    <!-- Generator: Sketch 41.2 (35397) - http://www.bohemiancoding.com/sketch -->
    <title>Security_icon</title>
    <desc>Created with Sketch.</desc>
    <defs></defs>
    <g id="Presentation-mocks" stroke="none" stroke-width="1" fill="none" fill-rule="evenodd">
        <g id="In-App-NAG" transform="translate(-140.000000, -118.000000)">
            <g id="Security_icon" transform="translate(140.000000, 118.000000)">
                <path d="M18.1142183,36.2290541 C9.1583463,32.5053358 4.06575618,22.3986195 3.64453733,10.8986876 C7.16433604,10.381 12.5407517,8.8025067 18.0961402,4.21960856 C23.6515287,8.80432315 29.03156,10.3828164 32.5477431,10.8986876 C32.0090169,26.2476727 23.6226038,33.9893738 18.1142183,36.2290541 M34.5381378,7.46560102 C31.4992155,7.25307661 25.4792208,6.05603742 19.2856767,0.459561328 C18.947617,0.152581627 18.5227825,0 18.0961402,0 C17.669498,0 17.2428557,0.152581627 16.9047959,0.459561328 C10.7130596,6.05603742 4.69306494,7.25307661 1.65414269,7.46560102 C0.692389781,7.53462604 0,8.35747695 0,9.3256437 C0,31.382771 14.6992724,38.8174924 17.4688315,39.8819309 C17.6731136,39.9600381 17.8900503,40 18.1051793,40 C18.313077,40 18.5227825,39.9618546 18.7216412,39.8891967 C21.4912003,38.8592707 36.1904727,31.4699605 36.1904727,9.32382726 C36.1922805,8.35566051 35.4980829,7.53462604 34.5381378,7.46560102 M12.2299898,18.0082648 C11.5032517,17.287135 10.3263699,17.287135 9.6014396,18.0082648 C8.8747015,18.734844 8.8747015,19.9082694 9.6014396,20.6293992 L14.8368464,25.8171745 C15.6214343,26.5274057 16.7368507,26.5473866 17.4653966,25.8171745 L26.5875868,16.8039599 C27.3161327,16.0810136 27.3161327,14.9094047 26.5875868,14.1846419 C25.8626565,13.4616957 24.6875825,13.4616957 23.9590366,14.1846419 L16.1529293,21.8881976 L12.2299898,18.0082648 Z" id="Fill-1-Copy" fill="#B9BDC5"></path>
                <g id="Group-2" transform="translate(20.000000, 22.000000)">
                    <circle id="Oval" fill="#FFFFFF" cx="11" cy="11" r="11"></circle>
                    <path d="M11.8181818,11.8181818 C11.8181818,12.2698182 11.4516364,12.6363636 11,12.6363636 C10.5475455,12.6363636 10.1818182,12.2698182 10.1818182,11.8181818 L10.1818182,6.90909091 C10.1818182,6.45745455 10.5475455,6.09090909 11,6.09090909 C11.4516364,6.09090909 11.8181818,6.45745455 11.8181818,6.90909091 L11.8181818,11.8181818 Z M11,15.9090909 C10.5475455,15.9090909 10.1818182,15.5425455 10.1818182,15.0909091 C10.1818182,14.6392727 10.5475455,14.2727273 11,14.2727273 C11.4516364,14.2727273 11.8181818,14.6392727 11.8181818,15.0909091 C11.8181818,15.5425455 11.4516364,15.9090909 11,15.9090909 L11,15.9090909 Z M11,2 C6.03772727,2 2,6.03772727 2,11 C2,15.9622727 6.03772727,20 11,20 C15.9614545,20 20,15.9622727 20,11 C20,6.03772727 15.9614545,2 11,2 L11,2 Z" id="alert" fill="#FF8B12"></path>
                </g>
            </g>
        </g>
    </g>
</svg>