<svg width="20" height="20" viewBox="0 0 20 20" fill="none" xmlns="http://www.w3.org/2000/svg">
<g id="ec-checkmark-fill">
<path id="Fill 1" fill-rule="evenodd" clip-rule="evenodd" d="M7.5 9.43754L9.48733 11.4235L12.6687 7.3602C12.974 6.96154 13.544 6.88554 13.9433 7.19087C14.342 7.4962 14.418 8.06687 14.1127 8.46554C14.1087 8.47087 14.1047 8.4762 14.1 8.48087L10.286 13.3529C9.97667 13.7482 9.40533 13.8175 9.01 13.5075C8.98133 13.4855 8.954 13.4609 8.928 13.4355L6.21533 10.7229C5.87267 10.3562 5.892 9.78087 6.25933 9.43754C6.60867 9.11154 7.15067 9.11154 7.5 9.43754ZM10 20.0002C4.47733 20.0002 0 15.5229 0 10.0002C0 4.47758 4.47733 0.000244141 10 0.000244141C15.5227 0.000244141 20 4.47758 20 10.0002C20 15.5229 15.5227 20.0002 10 20.0002Z" fill="#1AC567"/>
</g>
</svg>
