<?xml version="1.0" encoding="UTF-8"?>
<svg width="24px" height="23px" viewBox="0 0 24 23" version="1.1" xmlns="http://www.w3.org/2000/svg" xmlns:xlink="http://www.w3.org/1999/xlink">
    <!-- Generator: Sketch 62 (91390) - https://sketch.com -->
    <title>Group 2</title>
    <desc>Created with Sketch.</desc>
    <g id="Page-1" stroke="none" stroke-width="1" fill="none" fill-rule="evenodd">
        <g id="QR-code_success" transform="translate(-179.000000, -217.000000)">
            <g id="Group-5" transform="translate(112.000000, 217.000000)">
                <g id="Group-2" transform="translate(67.861386, -0.000000)">
                    <circle id="Oval" fill="#FFFFFF" cx="11.0891089" cy="11.0891089" r="11.0891089"></circle>
                    <g id="check-circle-solid" transform="translate(1.584158, 1.584158)" fill="#41BE28" fill-rule="nonzero">
                        <path d="M9.5049505,0.791988206 C4.69296454,0.791988206 0.792079172,4.69296454 0.792079172,9.5049505 C0.792079172,14.3169365 4.69296454,18.2178218 9.5049505,18.2178218 C14.3169365,18.2178218 18.2179128,14.3169365 18.2179128,9.5049505 C18.2284125,7.1909229 17.3138532,4.96861127 15.6775715,3.33232953 C14.0412897,1.69604779 11.8189781,0.78148849 9.5049505,0.791988206 Z M14.019802,7.2871287 L8.47524752,12.8316832 C8.33273122,12.9870115 8.13159478,13.0754363 7.92079207,13.0754363 C7.70998937,13.0754363 7.50885293,12.9870115 7.36633662,12.8316832 L5.02970295,10.4950495 C4.73544673,10.2184101 4.66987694,9.77581404 4.87128711,9.42574257 C5.00943757,9.23103865 5.22803771,9.10903206 5.46627902,9.09366165 C5.70452032,9.07829124 5.93698576,9.17119683 6.09900989,9.34653465 L7.92079207,11.1683168 L12.9108911,6.17821781 C13.2262339,5.9417107 13.6674969,5.97307029 13.9462232,6.2517966 C14.2249495,6.5305229 14.2563091,6.97178589 14.019802,7.2871287 Z" id="Shape"></path>
                    </g>
                </g>
            </g>
        </g>
    </g>
</svg>