<svg width="20" height="20" viewBox="0 0 20 20" fill="none" xmlns="http://www.w3.org/2000/svg">
<path d="M10.0001 8.82352L5.58508 4.40852C5.26592 4.08935 4.73675 4.08685 4.41175 4.41185C4.08508 4.73935 4.08592 5.26185 4.40925 5.58519L8.82342 10.0002L4.40925 14.4144C4.08925 14.7344 4.08758 15.2627 4.41175 15.5877C4.73925 15.9152 5.26258 15.9144 5.58508 15.591L10.0001 11.176L14.4151 15.591C14.7342 15.911 15.2634 15.9127 15.5884 15.5877C15.9151 15.261 15.9142 14.7377 15.5909 14.4144L11.1767 10.0002L15.5909 5.58519C15.9109 5.26519 15.9126 4.73685 15.5884 4.41185C15.2609 4.08519 14.7376 4.08602 14.4151 4.40852L10.0001 8.82352Z" fill="#F5F8FA"/>
</svg>
