<svg width="20" height="20" viewBox="0 0 20 20" fill="none" xmlns="http://www.w3.org/2000/svg">
<g id="Interface / close">
<path id="&#240;&#159;&#142;&#168; Color" d="M10.0001 8.82328L5.58508 4.40828C5.26592 4.08911 4.73675 4.08661 4.41175 4.41161C4.08508 4.73911 4.08592 5.26161 4.40925 5.58494L8.82342 9.99994L4.40925 14.4141C4.08925 14.7341 4.08758 15.2624 4.41175 15.5874C4.73925 15.9149 5.26258 15.9141 5.58508 15.5908L10.0001 11.1758L14.4151 15.5908C14.7342 15.9108 15.2634 15.9124 15.5884 15.5874C15.9151 15.2608 15.9142 14.7374 15.5909 14.4141L11.1767 9.99994L15.5909 5.58494C15.9109 5.26494 15.9126 4.73661 15.5884 4.41161C15.2609 4.08494 14.7376 4.08578 14.4151 4.40828L10.0001 8.82328Z" fill="#0F69FF"/>
</g>
</svg>
