<svg xmlns="http://www.w3.org/2000/svg" width="16" height="16" viewBox="0 0 16 16" fill="none">
    <path d="M7.99967 7.05843L4.46767 3.52643C4.21234 3.27109 3.78901 3.26909 3.52901 3.52909C3.26767 3.79109 3.26834 4.20909 3.52701 4.46776L7.05834 7.99976L3.52701 11.5311C3.27101 11.7871 3.26967 12.2098 3.52901 12.4698C3.79101 12.7318 4.20967 12.7311 4.46767 12.4724L7.99967 8.94043L11.5317 12.4724C11.787 12.7284 12.2103 12.7298 12.4703 12.4698C12.7317 12.2084 12.731 11.7898 12.4723 11.5311L8.94101 7.99976L12.4723 4.46776C12.7283 4.21176 12.7297 3.78909 12.4703 3.52909C12.2083 3.26776 11.7897 3.26843 11.5317 3.52643L7.99967 7.05843Z" fill="#F0F3F5"/>
</svg>